<svg width="545" height="408" viewBox="0 0 545 408" fill="none" xmlns="http://www.w3.org/2000/svg">
<path d="M530.642 322.023C513.518 329.639 485.758 329.639 468.606 322.023C451.455 314.406 451.469 302.041 468.606 294.424C485.744 286.808 513.491 286.808 530.642 294.424C547.794 302.041 547.78 314.393 530.642 322.023Z" fill="#E0E0E0"/>
<path d="M165.867 180.593C144.173 192.285 126.6 220.708 126.6 244.066C126.6 267.424 144.173 276.907 165.867 265.228C187.561 253.549 205.134 225.113 205.134 201.755C205.134 178.397 187.547 168.901 165.867 180.593ZM162.548 247.074C159.872 248.649 156.811 249.562 153.653 249.728C146.036 249.728 145.206 241.336 145.206 237.731C145.206 223.64 156.251 205.804 169.321 198.759C171.99 197.18 175.048 196.267 178.203 196.106C185.833 196.106 186.65 204.497 186.65 208.102C186.582 222.18 175.551 240.029 162.548 247.074Z" fill="#455A64"/>
<path d="M179.223 196.181C178.862 196.135 178.499 196.109 178.135 196.104C176.224 196.165 174.343 196.557 172.586 197.26C172.759 198.399 172.845 199.549 172.844 200.7C172.844 214.778 161.8 232.627 148.729 239.66C147.661 240.238 146.547 240.739 145.396 241.158C145.646 243.278 146.45 245.31 147.736 247.073C148.404 247.928 149.287 248.617 150.306 249.079C151.326 249.542 152.452 249.764 153.585 249.726C156.744 249.567 159.807 248.654 162.48 247.073C175.551 240.028 186.581 222.179 186.581 208.101C186.581 204.673 185.833 196.942 179.223 196.181Z" fill="#263238"/>
<path d="M193.572 178.002L174.095 167.504C166.955 163.607 157.107 164.14 146.226 169.954C124.464 181.646 106.959 210.069 106.959 233.427C106.959 244.979 111.257 253.116 118.221 257.001L118.411 257.128H118.52L137.725 267.474H137.82C134.479 265.531 131.799 262.739 130.095 259.426C128.601 256.574 127.605 253.519 127.143 250.374C126.789 248.241 126.607 246.085 126.599 243.925C126.599 220.555 144.172 192.132 165.866 180.453C167.873 179.379 169.965 178.449 172.123 177.672C175.272 176.475 178.605 175.751 181.998 175.527C186.022 175.232 190.051 176.044 193.586 177.863L193.572 178.002Z" fill="#37474F"/>
<path d="M162.004 89.5844L143.683 79.708L116.086 94.5734L52.0371 306.865L70.3717 316.742L97.588 302.067L162.004 89.5844Z" fill="#37474F"/>
<path d="M97.5874 302.067L70.3711 316.742L134.515 104.4L162.003 89.585L97.5874 302.067Z" fill="#455A64"/>
<path d="M70.3717 316.742L134.516 104.4L116.086 94.5742L52.0371 306.866L70.3717 316.742Z" fill="#263238"/>
<path d="M59.1773 146.381C37.4967 158.072 19.9102 186.495 19.9102 209.854C19.9102 233.212 37.5239 242.707 59.1773 231.028C80.8306 219.349 98.4444 190.913 98.4444 167.555C98.4444 144.197 80.9394 134.702 59.1773 146.381ZM55.8313 212.862C53.1566 214.439 50.0948 215.352 46.936 215.515C39.3057 215.515 38.4896 207.124 38.4896 203.519C38.4896 189.441 49.5203 171.592 62.5912 164.547C65.2641 162.966 68.327 162.053 71.4865 161.893C79.1033 161.893 79.9329 170.284 79.9329 173.89C79.9329 187.968 68.8886 205.817 55.8313 212.862Z" fill="#455A64"/>
<path d="M72.5748 161.97C72.214 161.924 71.8507 161.899 71.4867 161.894C69.5703 161.954 67.6832 162.35 65.9237 163.061C66.097 164.197 66.1834 165.342 66.1821 166.489C66.1821 180.567 55.1514 198.416 42.0805 205.449C41.0199 206.024 39.9152 206.524 38.7754 206.947C39.0234 209.074 39.8318 211.111 41.1284 212.875C41.7983 213.727 42.6815 214.414 43.701 214.874C44.7205 215.334 45.8453 215.554 46.977 215.516C50.1358 215.352 53.1976 214.439 55.8723 212.862C68.9296 205.817 79.9739 187.968 79.9739 173.89C79.9331 170.462 79.1714 162.731 72.5748 161.97Z" fill="#263238"/>
<path d="M86.9241 143.791L67.4469 133.292C60.3334 129.42 50.486 129.954 39.6049 135.831C17.8428 147.51 0.324219 175.933 0.324219 199.304C0.324219 210.856 4.63585 218.993 11.5861 222.878L11.7766 223.005H11.8854L31.0633 233.427H31.1721C27.8266 231.49 25.142 228.702 23.4329 225.392C21.9414 222.535 20.9451 219.476 20.4814 216.328C20.1263 214.194 19.9444 212.038 19.9374 209.879C19.9374 186.508 37.5239 158.085 59.2045 146.406C61.2141 145.337 63.3053 144.408 65.4611 143.626C68.6152 142.428 71.9526 141.704 75.3493 141.48C79.3693 141.186 83.3935 141.998 86.9241 143.816V143.791Z" fill="#37474F"/>
<path d="M365.82 382.768L378.674 405.427C388.906 403.914 398.77 400.721 407.808 395.995L376.729 389.483C373.559 391.171 369.806 382.12 365.82 382.768Z" fill="#FFCA05"/>
<path opacity="0.2" d="M365.82 382.768L378.674 405.427C388.906 403.914 398.77 400.721 407.808 395.995L376.729 389.483C373.559 391.171 369.806 382.12 365.82 382.768Z" fill="black"/>
<path d="M339.475 369.374C345.691 366.023 354.205 364.715 362.257 365.401L369.126 328.586L362.257 317.161L326.812 321.503L288.729 373.551L289.912 375.137L331.886 377.981C332.566 374.833 335.014 371.799 339.475 369.374Z" fill="#FFCA05"/>
<path opacity="0.7" d="M339.475 369.374C345.691 366.023 354.205 364.715 362.257 365.401L369.126 328.586L362.257 317.161L326.812 321.503L288.729 373.551L289.912 375.137L331.886 377.981C332.566 374.833 335.014 371.799 339.475 369.374Z" fill="black"/>
<path d="M369.127 303.564V297.064L362.258 320.397L362.271 326.897L369.127 303.564Z" fill="#FFCA05"/>
<path opacity="0.7" d="M369.127 303.564V297.064L362.258 320.397L362.271 326.897L369.127 303.564Z" fill="black"/>
<path d="M339.475 324.372C345.691 321.033 354.205 319.713 362.257 320.398L369.126 297.065C330.797 293.803 294.808 307.881 288.742 328.535C288.565 329.119 288.374 329.919 288.266 330.503L331.899 332.978C332.565 329.83 335.013 326.784 339.475 324.372Z" fill="#FFCA05"/>
<path opacity="0.6" d="M339.475 324.372C345.691 321.033 354.205 319.713 362.257 320.398L369.126 297.065C330.797 293.803 294.808 307.881 288.742 328.535C288.565 329.119 288.374 329.919 288.266 330.503L331.899 332.978C332.565 329.83 335.013 326.784 339.475 324.372Z" fill="black"/>
<path d="M331.899 359.523V332.978L288.266 330.503V357.047L331.899 359.523Z" fill="#FFCA05"/>
<path opacity="0.8" d="M331.899 359.523V332.978L288.266 330.503V357.047L331.899 359.523Z" fill="black"/>
<path d="M376.77 330.872C382.048 333.728 384.605 337.473 384.455 341.205L428.374 341.624C429 322.518 404.15 306.561 369.127 303.54L362.258 326.873C367.344 327.234 372.29 328.597 376.77 330.872Z" fill="#FFCA05"/>
<path opacity="0.8" d="M376.77 330.872C382.048 333.728 384.605 337.473 384.455 341.205L428.374 341.624C429 322.518 404.15 306.561 369.127 303.54L362.258 326.873C367.344 327.234 372.29 328.597 376.77 330.872Z" fill="white"/>
<path d="M384.455 341.204V369.475L428.374 369.894V341.623L384.455 341.204Z" fill="#FFCA05"/>
<path opacity="0.6" d="M384.455 341.204V369.475L428.374 369.894V341.623L384.455 341.204Z" fill="white"/>
<path d="M384.468 341.204V369.259C384.468 365.629 381.911 361.985 376.77 359.205C372.689 356.996 367.575 365.921 362.271 365.464V326.897C374.267 327.85 384.686 333.499 384.468 341.204Z" fill="#FFCA05"/>
<path opacity="0.6" d="M384.468 341.204V369.259C384.468 365.629 381.911 361.985 376.77 359.205C372.689 356.996 367.575 365.921 362.271 365.464V326.897C374.267 327.85 384.686 333.499 384.468 341.204Z" fill="white"/>
<path d="M384.483 353.798H331.764V386.88H384.483V353.798Z" fill="#E0E0E0"/>
<path d="M339.475 364.016C329.179 358.468 329.179 349.468 339.475 343.92C349.771 338.373 366.474 338.373 376.77 343.92C387.066 349.468 387.053 358.468 376.77 364.016C366.487 369.563 349.771 369.563 339.475 364.016Z" fill="#FAFAFA"/>
<path d="M384.455 369.476C384.319 373.017 381.735 386.766 376.771 389.457L407.85 395.969C421.451 388.657 428.088 380.215 428.415 369.869L384.455 369.476Z" fill="#37474F"/>
<path d="M428.374 347.818V369.894L407.809 395.994V373.931L428.374 347.818Z" fill="#37474F"/>
<path d="M384.455 347.399C384.319 350.941 381.735 354.458 376.771 357.162L407.85 373.906C421.451 366.594 428.088 358.152 428.415 347.806L384.455 347.399Z" fill="#455A64"/>
<path d="M407.808 373.932V395.995L376.729 379.251L376.769 357.162L407.808 373.932Z" fill="#263238"/>
<path d="M407.809 380.901L378.675 390.333V405.427L407.809 395.995V380.901Z" fill="#FFCA05"/>
<path opacity="0.2" d="M407.809 380.901L378.675 390.333V405.427L407.809 395.995V380.901Z" fill="black"/>
<path d="M365.82 367.673L378.674 390.333C388.906 388.819 398.77 385.626 407.808 380.9L376.729 364.182C373.333 365.919 369.644 367.1 365.82 367.673Z" fill="#FFCA05"/>
<path d="M365.807 367.673V374.553L378.674 405.427V390.333L365.807 367.673Z" fill="#FFCA05"/>
<path opacity="0.4" d="M365.807 367.673V374.553L378.674 405.427V390.333L365.807 367.673Z" fill="black"/>
<path d="M345.69 387.033C339.869 383.884 331.123 382.12 331.899 378.019L287.871 358.305C287.871 358.305 287.871 368.08 287.871 369.438C287.966 388.48 314.761 404.894 350.791 406.925C360.114 407.524 369.48 407.038 378.674 405.478V394.421C369.656 395.843 352.818 390.841 345.69 387.033Z" fill="#FFCA05"/>
<path opacity="0.5" d="M345.69 387.033C339.869 383.884 331.123 382.12 331.899 378.019L287.871 358.305C287.871 358.305 287.871 368.08 287.871 369.438C287.966 388.48 314.761 404.894 350.791 406.925C360.114 407.524 369.48 407.038 378.674 405.478V394.421C369.656 395.843 352.818 390.841 345.69 387.033Z" fill="black"/>
<path d="M339.475 368.167C333.654 365.032 331.124 360.779 331.899 356.679L288.266 354.203C284.185 374.997 312.204 393.633 350.832 395.816C360.155 396.408 369.52 395.922 378.715 394.369L365.862 371.709C356.803 373.182 346.602 372.014 339.475 368.167Z" fill="#FFCA05"/>
<path opacity="0.3" d="M339.475 368.167C333.654 365.032 331.124 360.779 331.899 356.679L288.266 354.203C284.185 374.997 312.204 393.633 350.832 395.816C360.155 396.408 369.52 395.922 378.715 394.369L365.862 371.709C356.803 373.182 346.602 372.014 339.475 368.167Z" fill="black"/>
<path d="M180.23 310.866C181.365 302.997 180.866 294.997 178.761 287.305C176.503 278.913 171.96 273.074 166.588 270.002C161.215 266.93 151.436 270.154 159.243 279.967C167.05 289.78 174.98 302.271 175.823 311.704L180.23 310.866Z" fill="#37474F"/>
<path d="M178.72 311.78C178.631 311.778 178.543 311.76 178.461 311.727C178.379 311.693 178.305 311.645 178.243 311.585C178.181 311.525 178.133 311.454 178.1 311.376C178.068 311.298 178.052 311.216 178.054 311.132C178.434 293.779 169.716 276.324 161.732 272.312C161.571 272.233 161.451 272.098 161.398 271.936C161.344 271.774 161.362 271.599 161.446 271.449C161.531 271.299 161.676 271.187 161.85 271.137C162.023 271.087 162.211 271.103 162.371 271.182C170.763 275.372 179.863 293.36 179.468 311.158C179.469 311.246 179.449 311.334 179.411 311.415C179.372 311.496 179.316 311.568 179.245 311.627C179.174 311.686 179.091 311.73 179 311.756C178.91 311.782 178.814 311.791 178.72 311.78Z" fill="white"/>
<path d="M180.896 341.561C172.327 346.207 162.589 341.942 160.902 333.017C160.317 329.907 159.733 326.67 156.645 324.905C154.061 323.407 150.579 323.217 148.362 321.211C145.206 318.342 147.002 314.648 148.987 311.741C150.837 309.101 152.333 306.016 150.592 302.994C149.525 301.409 148.679 299.703 148.076 297.917C147.783 297.025 147.743 296.078 147.96 295.168C148.177 294.258 148.643 293.416 149.314 292.725C150.946 291.277 153.517 291.341 155.707 291.836C159.257 292.722 162.524 294.399 165.227 296.723C167.145 298.259 168.233 299.821 170.994 300.291C173.035 300.633 175.156 300.29 177.169 300.735C178.438 301.056 179.619 301.626 180.633 302.408C181.646 303.189 182.469 304.164 183.045 305.267C185.045 308.91 184.405 313.15 184.093 317.073C183.78 320.995 183.385 324.537 182.896 328.257C182.488 331.405 182.025 334.604 181.536 337.689C181.454 338.171 181.359 341.332 180.896 341.561Z" fill="#455A64"/>
<path d="M181.713 337.168C181.55 337.167 181.394 337.111 181.271 337.011C181.149 336.91 181.069 336.773 181.046 336.622C178.068 316.692 160.087 298.145 153.395 294.959C153.315 294.92 153.245 294.868 153.187 294.804C153.129 294.74 153.086 294.666 153.059 294.587C153.031 294.507 153.021 294.423 153.029 294.34C153.036 294.257 153.061 294.176 153.102 294.102C153.144 294.028 153.2 293.962 153.268 293.908C153.337 293.854 153.416 293.813 153.501 293.788C153.586 293.762 153.676 293.753 153.765 293.76C153.854 293.767 153.941 293.79 154.021 293.829C161.107 297.206 179.305 315.778 182.393 336.457C182.416 336.624 182.368 336.792 182.258 336.926C182.148 337.059 181.987 337.146 181.808 337.168H181.713Z" fill="white"/>
<path d="M155.135 315.587C154.955 315.62 154.768 315.586 154.615 315.491C154.461 315.395 154.355 315.247 154.319 315.079C154.283 314.911 154.32 314.736 154.422 314.593C154.524 314.45 154.683 314.351 154.863 314.317C160.257 312.366 166.065 311.618 171.824 312.134C171.913 312.14 172 312.163 172.079 312.201C172.158 312.239 172.228 312.292 172.285 312.356C172.342 312.42 172.385 312.494 172.411 312.573C172.437 312.653 172.446 312.737 172.436 312.819C172.428 312.903 172.402 312.984 172.359 313.058C172.317 313.132 172.259 313.197 172.19 313.251C172.12 313.304 172.04 313.343 171.954 313.367C171.868 313.391 171.777 313.399 171.688 313.391C166.14 312.944 160.557 313.691 155.366 315.574C155.29 315.587 155.213 315.591 155.135 315.587Z" fill="white"/>
<path d="M182.8 346.258C181.591 345.497 180.591 344.481 179.882 343.292C179.173 342.103 178.775 340.775 178.72 339.415V147.574C178.797 146.172 179.23 144.808 179.982 143.592C180.734 142.376 181.783 141.344 183.045 140.58L425.952 9.6983C427.238 9.06294 428.665 8.71712 430.12 8.68846C431.575 8.65981 433.016 8.94911 434.33 9.53326C435.54 10.2839 436.541 11.2924 437.25 12.4756C437.96 13.6588 438.358 14.9826 438.41 16.3376V208.242C438.333 209.644 437.9 211.008 437.148 212.224C436.397 213.44 435.347 214.472 434.085 215.237L191.179 346.118C189.891 346.752 188.463 347.095 187.007 347.119C185.552 347.144 184.111 346.848 182.8 346.258Z" fill="#FFCA05"/>
<path d="M203.094 155.991L179.971 143.55C179.19 144.755 178.754 146.128 178.706 147.536V339.415C178.665 340.787 179.022 342.145 179.739 343.343C180.457 344.542 181.508 345.537 182.782 346.224C184.056 346.911 185.505 347.264 186.976 347.245C188.447 347.226 189.885 346.837 191.138 346.117L203.053 339.694L203.094 155.991Z" fill="#FFCA05"/>
<path opacity="0.2" d="M203.094 155.991L179.971 143.55C179.19 144.755 178.754 146.128 178.706 147.536V339.415C178.665 340.787 179.022 342.145 179.739 343.343C180.457 344.542 181.508 345.537 182.782 346.224C184.056 346.911 185.505 347.264 186.976 347.245C188.447 347.226 189.885 346.837 191.138 346.117L203.053 339.694L203.094 155.991Z" fill="black"/>
<path d="M191.179 144.959L434.058 14.014C436.452 12.7445 438.383 13.7728 438.383 16.3371V208.241C438.306 209.643 437.873 211.008 437.121 212.224C436.37 213.44 435.32 214.472 434.058 215.236L191.179 346.117C188.799 347.387 186.867 346.359 186.867 343.782V151.953C186.943 150.553 187.374 149.189 188.123 147.973C188.873 146.757 189.92 145.724 191.179 144.959Z" fill="#FFCA05"/>
<g opacity="0.5">
<path d="M191.178 144.96L434.057 14.015C436.451 12.7455 438.382 13.7738 438.382 16.3381V208.242C438.305 209.644 437.872 211.009 437.12 212.225C436.369 213.441 435.319 214.473 434.057 215.237L191.178 346.118C188.798 347.388 186.866 346.359 186.866 343.783V151.954C186.942 150.554 187.373 149.19 188.122 147.974C188.872 146.758 189.919 145.725 191.178 144.96Z" fill="white"/>
</g>
<path opacity="0.4" d="M211.2 300.341C211.448 286.504 212.488 272.689 214.315 258.956C216.205 244.04 220.082 218.867 235.506 210.564C250.93 202.262 256.71 217.267 258.927 224.668C261.824 234.252 276.895 228.184 279.003 212.367C281.111 196.549 282.458 146.215 300.52 136.479C318.583 126.742 324.431 150.176 326.485 156.714C330.566 169.561 342.399 166.019 346.275 157.501C350.152 148.983 360.693 146.914 364.678 158.885C368.663 170.856 371.138 184.604 384.06 177.546C395.39 171.351 390.18 160.065 401.238 154.695C404.462 153.147 410.882 154.01 412.323 162.845C413.641 172.187 414.218 181.606 414.051 191.027L211.2 300.341Z" fill="white"/>
<path d="M211.201 301.28C210.936 301.277 210.684 301.176 210.498 301.001C210.312 300.825 210.208 300.588 210.208 300.341C210.457 286.458 211.497 272.597 213.323 258.817C214.846 246.795 218.423 218.651 235.003 209.714C239.913 207.074 244.347 206.477 248.197 207.937C253.324 209.879 257.146 215.262 259.894 224.44C260.71 227.131 262.614 228.528 265.239 228.337C270.516 227.956 276.732 221.85 278.011 212.278C278.351 209.74 278.677 206.261 279.044 202.237C281.057 180.491 284.485 144.096 300.031 135.692C304.805 133.153 309.185 132.569 313.075 134.042C321.63 137.279 325.316 149.402 327.071 155.229C327.207 155.699 327.329 156.118 327.452 156.498C328.961 161.31 331.75 164.115 335.3 164.255C339.203 164.496 343.392 161.5 345.351 157.184C347.527 152.398 351.771 149.44 356.015 149.643C360.258 149.846 363.795 153.122 365.631 158.669C366.066 159.939 366.488 161.297 366.896 162.617C369.167 169.815 371.289 176.581 375.669 178.232C377.777 179.006 380.361 178.536 383.557 176.797C388.889 173.877 390.358 169.853 391.8 165.588C393.241 161.322 394.887 156.79 400.777 153.934C401.856 153.439 403.045 153.188 404.248 153.202C405.45 153.215 406.633 153.492 407.7 154.01C409.767 154.988 412.419 157.311 413.303 162.77C414.627 172.166 415.209 181.64 415.044 191.117C415.047 191.24 415.021 191.362 414.97 191.476C414.919 191.59 414.843 191.692 414.747 191.777C414.651 191.862 414.537 191.927 414.413 191.968C414.288 192.01 414.156 192.027 414.024 192.018C413.76 192.011 413.509 191.908 413.325 191.729C413.142 191.551 413.041 191.313 413.045 191.066C413.219 181.7 412.646 172.335 411.331 163.049C410.57 158.364 408.448 156.448 406.802 155.673C406.017 155.29 405.147 155.083 404.261 155.07C403.376 155.057 402.499 155.237 401.701 155.597C396.533 158.136 395.159 162.021 393.704 166.172C392.153 170.577 390.548 175.134 384.564 178.409C380.796 180.453 377.654 180.948 374.934 179.958C369.657 178.003 367.385 170.78 364.978 163.138C364.57 161.868 364.162 160.51 363.727 159.215C362.149 154.467 359.292 151.662 355.919 151.497C352.546 151.332 349.01 153.921 347.187 157.92C344.875 162.998 339.951 166.375 335.177 166.121C332.593 165.981 327.914 164.61 325.534 157.032C325.411 156.663 325.289 156.232 325.139 155.762C323.467 150.227 319.971 138.688 312.313 135.793C309.035 134.524 305.241 135.07 301.024 137.33C286.335 145.251 282.894 182.446 281.044 202.427C280.663 206.464 280.337 209.955 279.997 212.583C278.636 223.107 271.469 229.835 265.389 230.267C261.812 230.521 259.037 228.553 257.976 225.011C255.405 216.493 251.964 211.517 247.435 209.778C244.198 208.508 240.349 209.105 235.996 211.441C220.287 219.908 216.791 247.404 215.309 259.147C213.492 272.843 212.457 286.619 212.207 300.417C212.187 300.653 212.072 300.873 211.885 301.033C211.699 301.193 211.454 301.281 211.201 301.28Z" fill="#F5F5F5"/>
<path d="M239.954 210.386C239.784 210.386 239.622 210.324 239.502 210.212C239.382 210.1 239.314 209.948 239.314 209.79V208.622C239.301 208.537 239.307 208.451 239.333 208.368C239.359 208.286 239.403 208.21 239.463 208.145C239.523 208.08 239.597 208.028 239.681 207.993C239.764 207.957 239.855 207.938 239.947 207.938C240.039 207.938 240.129 207.957 240.213 207.993C240.296 208.028 240.371 208.08 240.431 208.145C240.491 208.21 240.535 208.286 240.561 208.368C240.586 208.451 240.593 208.537 240.579 208.622V209.79C240.579 209.946 240.514 210.096 240.397 210.207C240.28 210.319 240.121 210.383 239.954 210.386Z" fill="#F5F5F5"/>
<path d="M239.954 280.83C239.87 280.83 239.787 280.815 239.709 280.785C239.631 280.755 239.561 280.711 239.502 280.655C239.442 280.6 239.395 280.534 239.363 280.462C239.331 280.39 239.314 280.312 239.314 280.234V277.86C239.337 277.718 239.413 277.589 239.529 277.495C239.645 277.401 239.793 277.35 239.947 277.35C240.1 277.35 240.249 277.401 240.365 277.495C240.481 277.589 240.557 277.718 240.579 277.86V280.208C240.583 280.288 240.57 280.367 240.54 280.441C240.51 280.516 240.465 280.584 240.407 280.642C240.348 280.7 240.278 280.746 240.201 280.779C240.123 280.811 240.039 280.829 239.954 280.83ZM239.954 276.133C239.784 276.133 239.622 276.07 239.502 275.958C239.382 275.847 239.314 275.695 239.314 275.537V273.188C239.337 273.046 239.413 272.917 239.529 272.823C239.645 272.73 239.793 272.678 239.947 272.678C240.1 272.678 240.249 272.73 240.365 272.823C240.481 272.917 240.557 273.046 240.579 273.188V275.537C240.579 275.693 240.514 275.842 240.397 275.954C240.28 276.066 240.121 276.13 239.954 276.133ZM239.954 271.436C239.87 271.436 239.787 271.421 239.709 271.391C239.631 271.361 239.561 271.317 239.502 271.261C239.442 271.206 239.395 271.14 239.363 271.068C239.331 270.996 239.314 270.918 239.314 270.84V268.504C239.301 268.419 239.307 268.333 239.333 268.25C239.359 268.168 239.403 268.092 239.463 268.027C239.523 267.962 239.597 267.91 239.681 267.874C239.764 267.839 239.855 267.82 239.947 267.82C240.039 267.82 240.129 267.839 240.213 267.874C240.296 267.91 240.371 267.962 240.431 268.027C240.491 268.092 240.535 268.168 240.561 268.25C240.586 268.333 240.593 268.419 240.579 268.504V270.84C240.579 270.996 240.514 271.145 240.397 271.257C240.28 271.369 240.121 271.433 239.954 271.436ZM239.954 266.739C239.786 266.739 239.626 266.678 239.506 266.569C239.387 266.46 239.318 266.311 239.314 266.155V263.807C239.301 263.722 239.307 263.635 239.333 263.553C239.359 263.471 239.403 263.395 239.463 263.33C239.523 263.265 239.597 263.213 239.681 263.177C239.764 263.142 239.855 263.123 239.947 263.123C240.039 263.123 240.129 263.142 240.213 263.177C240.296 263.213 240.371 263.265 240.431 263.33C240.491 263.395 240.535 263.471 240.561 263.553C240.586 263.635 240.593 263.722 240.579 263.807V266.155C240.576 266.309 240.509 266.456 240.392 266.565C240.276 266.673 240.119 266.736 239.954 266.739ZM239.954 262.042C239.786 262.042 239.626 261.981 239.506 261.872C239.387 261.763 239.318 261.614 239.314 261.458V259.11C239.301 259.025 239.307 258.939 239.333 258.856C239.359 258.774 239.403 258.698 239.463 258.633C239.523 258.568 239.597 258.516 239.681 258.48C239.764 258.445 239.855 258.426 239.947 258.426C240.039 258.426 240.129 258.445 240.213 258.48C240.296 258.516 240.371 258.568 240.431 258.633C240.491 258.698 240.535 258.774 240.561 258.856C240.586 258.939 240.593 259.025 240.579 259.11V261.458C240.576 261.612 240.509 261.759 240.392 261.868C240.276 261.976 240.119 262.039 239.954 262.042ZM239.954 257.345C239.786 257.345 239.626 257.284 239.506 257.175C239.387 257.066 239.318 256.917 239.314 256.761V254.413C239.301 254.328 239.307 254.242 239.333 254.159C239.359 254.077 239.403 254.001 239.463 253.936C239.523 253.871 239.597 253.819 239.681 253.783C239.764 253.748 239.855 253.729 239.947 253.729C240.039 253.729 240.129 253.748 240.213 253.783C240.296 253.819 240.371 253.871 240.431 253.936C240.491 254.001 240.535 254.077 240.561 254.159C240.586 254.242 240.593 254.328 240.579 254.413V256.761C240.576 256.915 240.509 257.062 240.392 257.171C240.276 257.279 240.119 257.342 239.954 257.345ZM239.954 252.648C239.786 252.648 239.626 252.587 239.506 252.478C239.387 252.369 239.318 252.22 239.314 252.064V249.716C239.301 249.631 239.307 249.544 239.333 249.462C239.359 249.38 239.403 249.304 239.463 249.239C239.523 249.174 239.597 249.122 239.681 249.086C239.764 249.051 239.855 249.032 239.947 249.032C240.039 249.032 240.129 249.051 240.213 249.086C240.296 249.122 240.371 249.174 240.431 249.239C240.491 249.304 240.535 249.38 240.561 249.462C240.586 249.544 240.593 249.631 240.579 249.716V252.064C240.576 252.218 240.509 252.365 240.392 252.474C240.276 252.582 240.119 252.645 239.954 252.648ZM239.954 247.951C239.87 247.953 239.788 247.939 239.71 247.91C239.633 247.882 239.562 247.839 239.502 247.785C239.443 247.73 239.396 247.665 239.363 247.594C239.331 247.522 239.314 247.445 239.314 247.367V245.019C239.301 244.934 239.307 244.848 239.333 244.765C239.359 244.683 239.403 244.607 239.463 244.542C239.523 244.477 239.597 244.425 239.681 244.389C239.764 244.354 239.855 244.335 239.947 244.335C240.039 244.335 240.129 244.354 240.213 244.389C240.296 244.425 240.371 244.477 240.431 244.542C240.491 244.607 240.535 244.683 240.561 244.765C240.586 244.848 240.593 244.934 240.579 245.019V247.393C240.572 247.543 240.503 247.685 240.387 247.789C240.27 247.893 240.115 247.951 239.954 247.951ZM239.954 243.254C239.87 243.256 239.788 243.242 239.71 243.213C239.633 243.185 239.562 243.142 239.502 243.088C239.443 243.033 239.396 242.968 239.363 242.897C239.331 242.825 239.314 242.748 239.314 242.67V240.322C239.301 240.237 239.307 240.15 239.333 240.068C239.359 239.986 239.403 239.91 239.463 239.845C239.523 239.78 239.597 239.728 239.681 239.692C239.764 239.657 239.855 239.638 239.947 239.638C240.039 239.638 240.129 239.657 240.213 239.692C240.296 239.728 240.371 239.78 240.431 239.845C240.491 239.91 240.535 239.986 240.561 240.068C240.586 240.15 240.593 240.237 240.579 240.322V242.67C240.579 242.747 240.563 242.823 240.532 242.894C240.5 242.965 240.454 243.029 240.396 243.083C240.338 243.137 240.269 243.18 240.193 243.21C240.117 243.239 240.036 243.254 239.954 243.254ZM239.954 238.557C239.87 238.559 239.788 238.545 239.71 238.516C239.633 238.488 239.562 238.445 239.502 238.391C239.443 238.336 239.396 238.271 239.363 238.2C239.331 238.128 239.314 238.051 239.314 237.973V235.625C239.337 235.483 239.413 235.354 239.529 235.26C239.645 235.166 239.793 235.115 239.947 235.115C240.1 235.115 240.249 235.166 240.365 235.26C240.481 235.354 240.557 235.483 240.579 235.625V237.973C240.566 238.119 240.494 238.255 240.378 238.354C240.262 238.452 240.111 238.507 239.954 238.506V238.557ZM239.954 233.873C239.784 233.873 239.622 233.81 239.502 233.698C239.382 233.586 239.314 233.434 239.314 233.276V230.89C239.337 230.748 239.413 230.619 239.529 230.525C239.645 230.431 239.793 230.38 239.947 230.38C240.1 230.38 240.249 230.431 240.365 230.525C240.481 230.619 240.557 230.748 240.579 230.89V233.238C240.585 233.319 240.573 233.399 240.544 233.475C240.515 233.551 240.47 233.621 240.412 233.68C240.353 233.74 240.283 233.787 240.204 233.82C240.125 233.853 240.04 233.871 239.954 233.873ZM239.954 229.176C239.784 229.176 239.622 229.113 239.502 229.001C239.382 228.889 239.314 228.737 239.314 228.579V226.231C239.337 226.089 239.413 225.96 239.529 225.866C239.645 225.772 239.793 225.721 239.947 225.721C240.1 225.721 240.249 225.772 240.365 225.866C240.481 225.96 240.557 226.089 240.579 226.231V228.579C240.579 228.735 240.514 228.885 240.397 228.997C240.28 229.108 240.121 229.173 239.954 229.176ZM239.954 224.479C239.784 224.479 239.622 224.416 239.502 224.304C239.382 224.192 239.314 224.04 239.314 223.882V221.534C239.337 221.392 239.413 221.263 239.529 221.169C239.645 221.075 239.793 221.024 239.947 221.024C240.1 221.024 240.249 221.075 240.365 221.169C240.481 221.263 240.557 221.392 240.579 221.534V223.882C240.589 223.965 240.58 224.048 240.553 224.127C240.526 224.206 240.481 224.279 240.423 224.341C240.364 224.403 240.292 224.453 240.211 224.488C240.13 224.523 240.043 224.541 239.954 224.542V224.479ZM239.954 219.782C239.784 219.782 239.622 219.719 239.502 219.607C239.382 219.495 239.314 219.343 239.314 219.185V216.837C239.337 216.695 239.413 216.566 239.529 216.472C239.645 216.378 239.793 216.327 239.947 216.327C240.1 216.327 240.249 216.378 240.365 216.472C240.481 216.566 240.557 216.695 240.579 216.837V219.185C240.579 219.341 240.514 219.491 240.397 219.603C240.28 219.714 240.121 219.779 239.954 219.782ZM239.954 215.085C239.784 215.085 239.622 215.022 239.502 214.91C239.382 214.798 239.314 214.646 239.314 214.488V212.14C239.337 211.998 239.413 211.869 239.529 211.775C239.645 211.681 239.793 211.63 239.947 211.63C240.1 211.63 240.249 211.681 240.365 211.775C240.481 211.869 240.557 211.998 240.579 212.14V214.488C240.579 214.644 240.514 214.794 240.397 214.906C240.28 215.017 240.121 215.082 239.954 215.085Z" fill="#F5F5F5"/>
<path d="M239.954 284.359C239.87 284.359 239.787 284.344 239.709 284.314C239.632 284.284 239.561 284.24 239.502 284.185C239.442 284.129 239.395 284.063 239.363 283.991C239.331 283.919 239.314 283.841 239.314 283.763V282.582C239.337 282.44 239.413 282.311 239.529 282.217C239.645 282.124 239.793 282.072 239.947 282.072C240.1 282.072 240.249 282.124 240.365 282.217C240.481 282.311 240.557 282.44 240.579 282.582V283.763C240.579 283.919 240.514 284.069 240.397 284.18C240.28 284.292 240.121 284.356 239.954 284.359Z" fill="#F5F5F5"/>
<path d="M305.213 136.656C305.048 136.653 304.891 136.59 304.774 136.481C304.657 136.373 304.59 136.226 304.587 136.072V134.891C304.574 134.807 304.58 134.72 304.606 134.638C304.631 134.556 304.676 134.48 304.736 134.415C304.796 134.35 304.87 134.298 304.953 134.262C305.037 134.226 305.128 134.208 305.219 134.208C305.311 134.208 305.402 134.226 305.485 134.262C305.569 134.298 305.643 134.35 305.703 134.415C305.763 134.48 305.807 134.556 305.833 134.638C305.859 134.72 305.865 134.807 305.852 134.891V136.072C305.848 136.228 305.779 136.377 305.66 136.486C305.54 136.595 305.38 136.656 305.213 136.656Z" fill="#F5F5F5"/>
<path d="M305.213 246.77C305.045 246.767 304.886 246.703 304.769 246.591C304.652 246.48 304.587 246.33 304.587 246.174V243.787C304.574 243.702 304.58 243.616 304.606 243.534C304.631 243.451 304.676 243.375 304.736 243.31C304.796 243.245 304.87 243.193 304.953 243.158C305.037 243.122 305.128 243.104 305.219 243.104C305.311 243.104 305.402 243.122 305.485 243.158C305.569 243.193 305.643 243.245 305.703 243.31C305.763 243.375 305.807 243.451 305.833 243.534C305.859 243.616 305.865 243.702 305.852 243.787V246.123C305.859 246.205 305.848 246.289 305.82 246.367C305.791 246.445 305.745 246.517 305.685 246.578C305.625 246.639 305.552 246.687 305.47 246.721C305.389 246.754 305.301 246.771 305.213 246.77ZM305.213 241.984C305.045 241.981 304.886 241.917 304.769 241.805C304.652 241.694 304.587 241.544 304.587 241.388V238.989C304.609 238.847 304.685 238.717 304.801 238.624C304.918 238.53 305.066 238.479 305.219 238.479C305.373 238.479 305.521 238.53 305.637 238.624C305.753 238.717 305.829 238.847 305.852 238.989V241.388C305.852 241.466 305.835 241.544 305.803 241.616C305.771 241.689 305.724 241.754 305.665 241.81C305.605 241.865 305.535 241.909 305.457 241.939C305.38 241.969 305.297 241.984 305.213 241.984ZM305.213 237.186C305.047 237.186 304.887 237.124 304.77 237.015C304.653 236.905 304.587 236.757 304.587 236.602V234.203C304.609 234.061 304.685 233.932 304.801 233.838C304.918 233.744 305.066 233.693 305.219 233.693C305.373 233.693 305.521 233.744 305.637 233.838C305.753 233.932 305.829 234.061 305.852 234.203V236.602C305.859 236.684 305.849 236.766 305.82 236.844C305.791 236.922 305.745 236.993 305.684 237.053C305.624 237.113 305.551 237.16 305.47 237.192C305.388 237.224 305.301 237.239 305.213 237.237V237.186ZM305.213 232.4C305.048 232.397 304.891 232.334 304.774 232.225C304.657 232.117 304.59 231.97 304.587 231.816V229.417C304.609 229.275 304.685 229.146 304.801 229.052C304.918 228.958 305.066 228.907 305.219 228.907C305.373 228.907 305.521 228.958 305.637 229.052C305.753 229.146 305.829 229.275 305.852 229.417V231.816C305.848 231.972 305.779 232.121 305.66 232.23C305.54 232.339 305.38 232.4 305.213 232.4ZM305.213 227.614C305.048 227.611 304.891 227.548 304.774 227.44C304.657 227.331 304.59 227.184 304.587 227.03V224.631C304.609 224.489 304.685 224.36 304.801 224.266C304.918 224.173 305.066 224.121 305.219 224.121C305.373 224.121 305.521 224.173 305.637 224.266C305.753 224.36 305.829 224.489 305.852 224.631V227.081C305.835 227.228 305.76 227.364 305.642 227.462C305.524 227.561 305.371 227.615 305.213 227.614ZM305.213 222.828C305.048 222.825 304.891 222.763 304.774 222.654C304.657 222.545 304.59 222.398 304.587 222.244V219.845C304.609 219.703 304.685 219.574 304.801 219.48C304.918 219.387 305.066 219.335 305.219 219.335C305.373 219.335 305.521 219.387 305.637 219.48C305.753 219.574 305.829 219.703 305.852 219.845V222.244C305.848 222.4 305.779 222.549 305.66 222.658C305.54 222.767 305.38 222.828 305.213 222.828ZM305.213 218.042C305.045 218.039 304.886 217.975 304.769 217.863C304.652 217.752 304.587 217.602 304.587 217.446V215.059C304.574 214.974 304.58 214.888 304.606 214.806C304.631 214.723 304.676 214.647 304.736 214.582C304.796 214.518 304.87 214.466 304.953 214.43C305.037 214.394 305.128 214.376 305.219 214.376C305.311 214.376 305.402 214.394 305.485 214.43C305.569 214.466 305.643 214.518 305.703 214.582C305.763 214.647 305.807 214.723 305.833 214.806C305.859 214.888 305.865 214.974 305.852 215.059V217.446C305.852 217.524 305.835 217.602 305.803 217.674C305.771 217.747 305.724 217.812 305.665 217.868C305.605 217.923 305.535 217.967 305.457 217.997C305.38 218.027 305.297 218.042 305.213 218.042ZM305.213 213.257C305.045 213.253 304.886 213.189 304.769 213.077C304.652 212.966 304.587 212.816 304.587 212.66V210.273C304.574 210.189 304.58 210.102 304.606 210.02C304.631 209.938 304.676 209.861 304.736 209.797C304.796 209.732 304.87 209.68 304.953 209.644C305.037 209.608 305.128 209.59 305.219 209.59C305.311 209.59 305.402 209.608 305.485 209.644C305.569 209.68 305.643 209.732 305.703 209.797C305.763 209.861 305.807 209.938 305.833 210.02C305.859 210.102 305.865 210.189 305.852 210.273V212.66C305.852 212.738 305.835 212.816 305.803 212.888C305.771 212.961 305.724 213.026 305.665 213.082C305.605 213.137 305.535 213.181 305.457 213.211C305.38 213.241 305.297 213.257 305.213 213.257ZM305.213 208.471C305.045 208.467 304.886 208.403 304.769 208.292C304.652 208.18 304.587 208.03 304.587 207.874V205.5C304.574 205.415 304.58 205.329 304.606 205.247C304.631 205.164 304.676 205.088 304.736 205.023C304.796 204.959 304.87 204.907 304.953 204.871C305.037 204.835 305.128 204.817 305.219 204.817C305.311 204.817 305.402 204.835 305.485 204.871C305.569 204.907 305.643 204.959 305.703 205.023C305.763 205.088 305.807 205.164 305.833 205.247C305.859 205.329 305.865 205.415 305.852 205.5V207.887C305.848 208.043 305.779 208.191 305.66 208.3C305.54 208.41 305.38 208.471 305.213 208.471ZM305.213 203.685C305.045 203.682 304.886 203.617 304.769 203.506C304.652 203.394 304.587 203.244 304.587 203.088V200.702C304.574 200.617 304.58 200.53 304.606 200.448C304.631 200.366 304.676 200.29 304.736 200.225C304.796 200.16 304.87 200.108 304.953 200.072C305.037 200.037 305.128 200.018 305.219 200.018C305.311 200.018 305.402 200.037 305.485 200.072C305.569 200.108 305.643 200.16 305.703 200.225C305.763 200.29 305.807 200.366 305.833 200.448C305.859 200.53 305.865 200.617 305.852 200.702V203.088C305.852 203.167 305.835 203.244 305.803 203.317C305.771 203.389 305.724 203.455 305.665 203.51C305.605 203.566 305.535 203.609 305.457 203.639C305.38 203.669 305.297 203.685 305.213 203.685ZM305.213 198.899C305.045 198.896 304.886 198.831 304.769 198.72C304.652 198.608 304.587 198.458 304.587 198.302V195.916C304.574 195.831 304.58 195.745 304.606 195.662C304.631 195.58 304.676 195.504 304.736 195.439C304.796 195.374 304.87 195.322 304.953 195.286C305.037 195.251 305.128 195.232 305.219 195.232C305.311 195.232 305.402 195.251 305.485 195.286C305.569 195.322 305.643 195.374 305.703 195.439C305.763 195.504 305.807 195.58 305.833 195.662C305.859 195.745 305.865 195.831 305.852 195.916V198.302C305.852 198.381 305.835 198.458 305.803 198.531C305.771 198.603 305.724 198.669 305.665 198.724C305.605 198.78 305.535 198.824 305.457 198.854C305.38 198.884 305.297 198.899 305.213 198.899ZM305.213 194.1C305.047 194.1 304.887 194.039 304.77 193.929C304.653 193.82 304.587 193.671 304.587 193.517V191.117C304.609 190.976 304.685 190.846 304.801 190.752C304.918 190.659 305.066 190.607 305.219 190.607C305.373 190.607 305.521 190.659 305.637 190.752C305.753 190.846 305.829 190.976 305.852 191.117V193.517C305.845 193.669 305.774 193.813 305.654 193.918C305.535 194.022 305.376 194.079 305.213 194.075V194.1ZM305.213 189.315C305.047 189.315 304.887 189.253 304.77 189.144C304.653 189.034 304.587 188.886 304.587 188.731V186.331C304.609 186.19 304.685 186.06 304.801 185.967C304.918 185.873 305.066 185.822 305.219 185.822C305.373 185.822 305.521 185.873 305.637 185.967C305.753 186.06 305.829 186.19 305.852 186.331V188.731C305.852 188.808 305.835 188.885 305.803 188.957C305.771 189.029 305.723 189.094 305.664 189.148C305.604 189.203 305.534 189.245 305.456 189.274C305.379 189.302 305.296 189.316 305.213 189.315ZM305.213 184.529C305.048 184.525 304.891 184.463 304.774 184.354C304.657 184.245 304.59 184.099 304.587 183.945V181.546C304.609 181.404 304.685 181.274 304.801 181.181C304.918 181.087 305.066 181.036 305.219 181.036C305.373 181.036 305.521 181.087 305.637 181.181C305.753 181.274 305.829 181.404 305.852 181.546V183.919C305.854 183.999 305.838 184.078 305.807 184.152C305.776 184.225 305.729 184.293 305.669 184.35C305.61 184.406 305.539 184.451 305.46 184.482C305.382 184.513 305.298 184.529 305.213 184.529ZM305.213 179.743C305.048 179.74 304.891 179.677 304.774 179.568C304.657 179.459 304.59 179.313 304.587 179.159V176.76C304.609 176.618 304.685 176.488 304.801 176.395C304.918 176.301 305.066 176.25 305.219 176.25C305.373 176.25 305.521 176.301 305.637 176.395C305.753 176.488 305.829 176.618 305.852 176.76V179.159C305.848 179.315 305.779 179.463 305.66 179.573C305.54 179.682 305.38 179.743 305.213 179.743ZM305.213 174.957C305.048 174.954 304.891 174.891 304.774 174.782C304.657 174.674 304.59 174.527 304.587 174.373V171.974C304.609 171.832 304.685 171.703 304.801 171.609C304.918 171.515 305.066 171.464 305.219 171.464C305.373 171.464 305.521 171.515 305.637 171.609C305.753 171.703 305.829 171.832 305.852 171.974V174.373C305.848 174.529 305.779 174.678 305.66 174.787C305.54 174.896 305.38 174.957 305.213 174.957ZM305.213 170.171C305.045 170.168 304.886 170.104 304.769 169.992C304.652 169.88 304.587 169.731 304.587 169.574V167.188C304.574 167.103 304.58 167.017 304.606 166.934C304.631 166.852 304.676 166.776 304.736 166.711C304.796 166.646 304.87 166.594 304.953 166.559C305.037 166.523 305.128 166.504 305.219 166.504C305.311 166.504 305.402 166.523 305.485 166.559C305.569 166.594 305.643 166.646 305.703 166.711C305.763 166.776 305.807 166.852 305.833 166.934C305.859 167.017 305.865 167.103 305.852 167.188V169.574C305.852 169.653 305.835 169.73 305.803 169.803C305.771 169.875 305.724 169.941 305.665 169.996C305.605 170.052 305.535 170.096 305.457 170.126C305.38 170.156 305.297 170.171 305.213 170.171ZM305.213 165.385C305.045 165.382 304.886 165.318 304.769 165.206C304.652 165.095 304.587 164.945 304.587 164.789V162.402C304.574 162.317 304.58 162.231 304.606 162.149C304.631 162.066 304.676 161.99 304.736 161.925C304.796 161.86 304.87 161.808 304.953 161.773C305.037 161.737 305.128 161.719 305.219 161.719C305.311 161.719 305.402 161.737 305.485 161.773C305.569 161.808 305.643 161.86 305.703 161.925C305.763 161.99 305.807 162.066 305.833 162.149C305.859 162.231 305.865 162.317 305.852 162.402V164.789C305.852 164.867 305.835 164.945 305.803 165.017C305.771 165.089 305.724 165.155 305.665 165.211C305.605 165.266 305.535 165.31 305.457 165.34C305.38 165.37 305.297 165.385 305.213 165.385ZM305.213 160.599C305.045 160.596 304.886 160.532 304.769 160.42C304.652 160.309 304.587 160.159 304.587 160.003V157.616C304.574 157.531 304.58 157.445 304.606 157.363C304.631 157.28 304.676 157.204 304.736 157.139C304.796 157.075 304.87 157.023 304.953 156.987C305.037 156.951 305.128 156.933 305.219 156.933C305.311 156.933 305.402 156.951 305.485 156.987C305.569 157.023 305.643 157.075 305.703 157.139C305.763 157.204 305.807 157.28 305.833 157.363C305.859 157.445 305.865 157.531 305.852 157.616V160.003C305.852 160.081 305.835 160.159 305.803 160.231C305.771 160.303 305.724 160.369 305.665 160.425C305.605 160.48 305.535 160.524 305.457 160.554C305.38 160.584 305.297 160.599 305.213 160.599ZM305.213 155.814C305.045 155.81 304.886 155.746 304.769 155.634C304.652 155.523 304.587 155.373 304.587 155.217V152.83C304.574 152.746 304.58 152.659 304.606 152.577C304.631 152.495 304.676 152.418 304.736 152.354C304.796 152.289 304.87 152.237 304.953 152.201C305.037 152.165 305.128 152.147 305.219 152.147C305.311 152.147 305.402 152.165 305.485 152.201C305.569 152.237 305.643 152.289 305.703 152.354C305.763 152.418 305.807 152.495 305.833 152.577C305.859 152.659 305.865 152.746 305.852 152.83V155.217C305.852 155.295 305.835 155.373 305.803 155.445C305.771 155.518 305.724 155.583 305.665 155.639C305.605 155.694 305.535 155.738 305.457 155.768C305.38 155.798 305.297 155.814 305.213 155.814ZM305.213 151.028C305.045 151.024 304.886 150.96 304.769 150.849C304.652 150.737 304.587 150.587 304.587 150.431V148.032C304.609 147.89 304.685 147.761 304.801 147.667C304.918 147.573 305.066 147.522 305.219 147.522C305.373 147.522 305.521 147.573 305.637 147.667C305.753 147.761 305.829 147.89 305.852 148.032V150.431C305.852 150.509 305.835 150.587 305.803 150.659C305.771 150.732 305.724 150.798 305.665 150.853C305.605 150.908 305.535 150.952 305.457 150.982C305.38 151.012 305.297 151.028 305.213 151.028ZM305.213 146.229C305.047 146.229 304.887 146.168 304.77 146.058C304.653 145.949 304.587 145.8 304.587 145.645V143.297C304.609 143.155 304.685 143.026 304.801 142.932C304.918 142.838 305.066 142.787 305.219 142.787C305.373 142.787 305.521 142.838 305.637 142.932C305.753 143.026 305.829 143.155 305.852 143.297V145.696C305.838 145.844 305.764 145.982 305.645 146.081C305.527 146.18 305.372 146.233 305.213 146.229ZM305.213 141.443C305.047 141.443 304.887 141.382 304.77 141.272C304.653 141.163 304.587 141.014 304.587 140.859V138.46C304.609 138.318 304.685 138.189 304.801 138.095C304.918 138.002 305.066 137.95 305.219 137.95C305.373 137.95 305.521 138.002 305.637 138.095C305.753 138.189 305.829 138.318 305.852 138.46V140.859C305.852 140.937 305.835 141.014 305.803 141.086C305.771 141.157 305.723 141.222 305.664 141.277C305.604 141.331 305.534 141.374 305.456 141.403C305.379 141.431 305.296 141.445 305.213 141.443Z" fill="#F5F5F5"/>
<path d="M305.213 250.337C305.048 250.333 304.891 250.271 304.774 250.162C304.657 250.053 304.59 249.907 304.587 249.753V248.572C304.574 248.487 304.58 248.401 304.606 248.319C304.631 248.236 304.676 248.16 304.736 248.095C304.796 248.03 304.87 247.978 304.953 247.943C305.037 247.907 305.128 247.889 305.219 247.889C305.311 247.889 305.402 247.907 305.485 247.943C305.569 247.978 305.643 248.03 305.703 248.095C305.763 248.16 305.807 248.236 305.833 248.319C305.859 248.401 305.865 248.487 305.852 248.572V249.753C305.848 249.909 305.779 250.057 305.66 250.166C305.54 250.276 305.38 250.337 305.213 250.337Z" fill="#F5F5F5"/>
<path d="M355.09 152.716C354.922 152.712 354.763 152.648 354.646 152.537C354.529 152.425 354.464 152.275 354.464 152.119V150.913C354.486 150.771 354.562 150.642 354.678 150.548C354.795 150.455 354.943 150.403 355.096 150.403C355.25 150.403 355.398 150.455 355.514 150.548C355.63 150.642 355.706 150.771 355.729 150.913V152.183C355.712 152.33 355.637 152.466 355.519 152.564C355.401 152.663 355.248 152.717 355.09 152.716Z" fill="#F5F5F5"/>
<path d="M355.089 220.072C354.925 220.069 354.768 220.007 354.651 219.898C354.534 219.789 354.467 219.642 354.464 219.488V217.076C354.486 216.935 354.562 216.805 354.678 216.712C354.795 216.618 354.943 216.567 355.096 216.567C355.25 216.567 355.398 216.618 355.514 216.712C355.63 216.805 355.706 216.935 355.729 217.076V219.463C355.731 219.542 355.715 219.621 355.684 219.695C355.653 219.769 355.606 219.836 355.546 219.893C355.487 219.95 355.416 219.995 355.337 220.026C355.259 220.057 355.175 220.072 355.089 220.072ZM355.089 215.261C354.925 215.258 354.768 215.195 354.651 215.086C354.534 214.978 354.467 214.831 354.464 214.677V212.265C354.486 212.123 354.562 211.994 354.678 211.9C354.795 211.807 354.943 211.755 355.096 211.755C355.25 211.755 355.398 211.807 355.514 211.9C355.63 211.994 355.706 212.123 355.729 212.265V214.677C355.725 214.833 355.656 214.982 355.537 215.091C355.417 215.2 355.257 215.261 355.089 215.261ZM355.089 210.45C354.925 210.447 354.768 210.384 354.651 210.275C354.534 210.166 354.467 210.02 354.464 209.866V207.454C354.486 207.312 354.562 207.183 354.678 207.089C354.795 206.996 354.943 206.944 355.096 206.944C355.25 206.944 355.398 206.996 355.514 207.089C355.63 207.183 355.706 207.312 355.729 207.454V209.866C355.725 210.022 355.656 210.17 355.537 210.28C355.417 210.389 355.257 210.45 355.089 210.45ZM355.089 205.639C354.925 205.635 354.768 205.573 354.651 205.464C354.534 205.355 354.467 205.208 354.464 205.055V202.643C354.486 202.501 354.562 202.372 354.678 202.278C354.795 202.184 354.943 202.133 355.096 202.133C355.25 202.133 355.398 202.184 355.514 202.278C355.63 202.372 355.706 202.501 355.729 202.643V205.055C355.725 205.211 355.656 205.359 355.537 205.468C355.417 205.577 355.257 205.639 355.089 205.639ZM355.089 200.827C354.925 200.824 354.768 200.762 354.651 200.653C354.534 200.544 354.467 200.397 354.464 200.243V197.882C354.486 197.74 354.562 197.611 354.678 197.517C354.795 197.424 354.943 197.372 355.096 197.372C355.25 197.372 355.398 197.424 355.514 197.517C355.63 197.611 355.706 197.74 355.729 197.882V200.294C355.712 200.441 355.637 200.577 355.519 200.676C355.401 200.774 355.248 200.828 355.089 200.827ZM355.089 196.016C354.925 196.013 354.768 195.95 354.651 195.841C354.534 195.733 354.467 195.586 354.464 195.432V193.02C354.486 192.878 354.562 192.749 354.678 192.655C354.795 192.562 354.943 192.51 355.096 192.51C355.25 192.51 355.398 192.562 355.514 192.655C355.63 192.749 355.706 192.878 355.729 193.02V195.432C355.725 195.588 355.656 195.737 355.537 195.846C355.417 195.955 355.257 196.016 355.089 196.016ZM355.089 191.205C354.925 191.202 354.768 191.139 354.651 191.03C354.534 190.921 354.467 190.775 354.464 190.621V188.209C354.486 188.067 354.562 187.938 354.678 187.844C354.795 187.751 354.943 187.699 355.096 187.699C355.25 187.699 355.398 187.751 355.514 187.844C355.63 187.938 355.706 188.067 355.729 188.209V190.621C355.725 190.777 355.656 190.925 355.537 191.035C355.417 191.144 355.257 191.205 355.089 191.205ZM355.089 186.394C354.925 186.39 354.768 186.328 354.651 186.219C354.534 186.11 354.467 185.963 354.464 185.81V183.398C354.486 183.256 354.562 183.126 354.678 183.033C354.795 182.939 354.943 182.888 355.096 182.888C355.25 182.888 355.398 182.939 355.514 183.033C355.63 183.126 355.706 183.256 355.729 183.398V185.81C355.736 185.892 355.725 185.975 355.697 186.054C355.668 186.132 355.622 186.204 355.562 186.265C355.502 186.326 355.429 186.374 355.347 186.407C355.266 186.44 355.178 186.457 355.089 186.457V186.394ZM355.089 181.582C354.925 181.579 354.768 181.517 354.651 181.408C354.534 181.299 354.467 181.152 354.464 180.998V178.586C354.486 178.445 354.562 178.315 354.678 178.222C354.795 178.128 354.943 178.077 355.096 178.077C355.25 178.077 355.398 178.128 355.514 178.222C355.63 178.315 355.706 178.445 355.729 178.586V180.998C355.725 181.154 355.656 181.303 355.537 181.412C355.417 181.521 355.257 181.582 355.089 181.582ZM355.089 176.771C354.925 176.768 354.768 176.705 354.651 176.596C354.534 176.488 354.467 176.341 354.464 176.187V173.762C354.486 173.621 354.562 173.491 354.678 173.398C354.795 173.304 354.943 173.253 355.096 173.253C355.25 173.253 355.398 173.304 355.514 173.398C355.63 173.491 355.706 173.621 355.729 173.762V176.174C355.729 176.253 355.712 176.33 355.68 176.403C355.648 176.475 355.601 176.541 355.542 176.596C355.482 176.652 355.412 176.696 355.334 176.726C355.257 176.756 355.173 176.771 355.089 176.771ZM355.089 171.96C354.925 171.957 354.768 171.894 354.651 171.785C354.534 171.676 354.467 171.53 354.464 171.376V168.964C354.486 168.822 354.562 168.693 354.678 168.599C354.795 168.506 354.943 168.454 355.096 168.454C355.25 168.454 355.398 168.506 355.514 168.599C355.63 168.693 355.706 168.822 355.729 168.964V171.376C355.725 171.532 355.656 171.68 355.537 171.79C355.417 171.899 355.257 171.96 355.089 171.96ZM355.089 167.149C354.922 167.145 354.763 167.081 354.646 166.969C354.529 166.858 354.464 166.708 354.464 166.552V164.153C354.45 164.068 354.457 163.981 354.482 163.899C354.508 163.817 354.553 163.741 354.613 163.676C354.673 163.611 354.747 163.559 354.83 163.523C354.914 163.488 355.004 163.469 355.096 163.469C355.188 163.469 355.279 163.488 355.362 163.523C355.446 163.559 355.52 163.611 355.58 163.676C355.64 163.741 355.684 163.817 355.71 163.899C355.736 163.981 355.742 164.068 355.729 164.153V166.552C355.729 166.71 355.661 166.862 355.542 166.974C355.422 167.086 355.259 167.149 355.089 167.149ZM355.089 162.337C354.922 162.334 354.763 162.27 354.646 162.158C354.529 162.047 354.464 161.897 354.464 161.741V159.341C354.45 159.257 354.457 159.17 354.482 159.088C354.508 159.006 354.553 158.929 354.613 158.865C354.673 158.8 354.747 158.748 354.83 158.712C354.914 158.676 355.004 158.658 355.096 158.658C355.188 158.658 355.279 158.676 355.362 158.712C355.446 158.748 355.52 158.8 355.58 158.865C355.64 158.929 355.684 159.006 355.71 159.088C355.736 159.17 355.742 159.257 355.729 159.341V161.741C355.729 161.899 355.661 162.051 355.542 162.163C355.422 162.274 355.259 162.337 355.089 162.337ZM355.089 157.526C354.922 157.523 354.763 157.458 354.646 157.347C354.529 157.235 354.464 157.085 354.464 156.929V154.53C354.45 154.445 354.457 154.359 354.482 154.277C354.508 154.194 354.553 154.118 354.613 154.053C354.673 153.988 354.747 153.936 354.83 153.901C354.914 153.865 355.004 153.847 355.096 153.847C355.188 153.847 355.279 153.865 355.362 153.901C355.446 153.936 355.52 153.988 355.58 154.053C355.64 154.118 355.684 154.194 355.71 154.277C355.736 154.359 355.742 154.445 355.729 154.53V156.929C355.729 157.088 355.661 157.239 355.542 157.351C355.422 157.463 355.259 157.526 355.089 157.526Z" fill="#F5F5F5"/>
<path d="M355.09 223.665C354.922 223.662 354.763 223.597 354.646 223.486C354.529 223.374 354.464 223.224 354.464 223.068V221.888C354.486 221.746 354.562 221.617 354.678 221.523C354.795 221.429 354.943 221.378 355.096 221.378C355.25 221.378 355.398 221.429 355.514 221.523C355.63 221.617 355.706 221.746 355.729 221.888V223.068C355.729 223.147 355.712 223.224 355.68 223.297C355.648 223.369 355.601 223.435 355.542 223.49C355.482 223.546 355.412 223.59 355.334 223.62C355.257 223.65 355.173 223.665 355.09 223.665Z" fill="#F5F5F5"/>
<path d="M404.23 155.863C404.061 155.863 403.898 155.8 403.778 155.689C403.658 155.577 403.591 155.425 403.591 155.267V154.086C403.613 153.944 403.689 153.815 403.805 153.721C403.922 153.628 404.07 153.576 404.223 153.576C404.377 153.576 404.525 153.628 404.641 153.721C404.757 153.815 404.833 153.944 404.856 154.086V155.267C404.856 155.423 404.79 155.573 404.673 155.684C404.556 155.796 404.397 155.86 404.23 155.863Z" fill="#F5F5F5"/>
<path d="M404.23 193.554C404.061 193.554 403.898 193.491 403.778 193.379C403.658 193.267 403.591 193.115 403.591 192.957V190.609C403.577 190.524 403.584 190.437 403.609 190.355C403.635 190.273 403.679 190.197 403.739 190.132C403.799 190.067 403.874 190.015 403.957 189.979C404.041 189.944 404.131 189.925 404.223 189.925C404.315 189.925 404.406 189.944 404.489 189.979C404.573 190.015 404.647 190.067 404.707 190.132C404.767 190.197 404.811 190.273 404.837 190.355C404.863 190.437 404.869 190.524 404.856 190.609V192.957C404.856 193.113 404.79 193.263 404.673 193.375C404.556 193.486 404.397 193.55 404.23 193.554ZM404.23 188.844C404.061 188.844 403.898 188.781 403.778 188.669C403.658 188.557 403.591 188.406 403.591 188.247V185.899C403.577 185.814 403.584 185.728 403.609 185.645C403.635 185.563 403.679 185.487 403.739 185.422C403.799 185.357 403.874 185.305 403.957 185.27C404.041 185.234 404.131 185.215 404.223 185.215C404.315 185.215 404.406 185.234 404.489 185.27C404.573 185.305 404.647 185.357 404.707 185.422C404.767 185.487 404.811 185.563 404.837 185.645C404.863 185.728 404.869 185.814 404.856 185.899V188.247C404.856 188.403 404.79 188.553 404.673 188.665C404.556 188.776 404.397 188.841 404.23 188.844ZM404.23 184.134C404.061 184.134 403.898 184.071 403.778 183.96C403.658 183.848 403.591 183.696 403.591 183.538V181.189C403.577 181.104 403.584 181.018 403.609 180.936C403.635 180.853 403.679 180.777 403.739 180.712C403.799 180.648 403.874 180.596 403.957 180.56C404.041 180.524 404.131 180.506 404.223 180.506C404.315 180.506 404.406 180.524 404.489 180.56C404.573 180.596 404.647 180.648 404.707 180.712C404.767 180.777 404.811 180.853 404.837 180.936C404.863 181.018 404.869 181.104 404.856 181.189V183.538C404.856 183.694 404.79 183.844 404.673 183.955C404.556 184.067 404.397 184.131 404.23 184.134ZM404.23 179.425C404.061 179.425 403.898 179.362 403.778 179.25C403.658 179.138 403.591 178.986 403.591 178.828V176.467C403.613 176.325 403.689 176.196 403.805 176.102C403.921 176.008 404.07 175.957 404.223 175.957C404.377 175.957 404.525 176.008 404.641 176.102C404.757 176.196 404.833 176.325 404.856 176.467V178.841C404.852 178.995 404.785 179.141 404.669 179.25C404.552 179.359 404.395 179.421 404.23 179.425ZM404.23 174.702C404.147 174.704 404.064 174.69 403.986 174.662C403.909 174.633 403.838 174.59 403.779 174.536C403.719 174.481 403.672 174.416 403.64 174.345C403.607 174.273 403.591 174.196 403.591 174.118V171.757C403.613 171.615 403.689 171.486 403.805 171.392C403.921 171.299 404.07 171.247 404.223 171.247C404.377 171.247 404.525 171.299 404.641 171.392C404.757 171.486 404.833 171.615 404.856 171.757V174.118C404.856 174.273 404.79 174.422 404.672 174.531C404.555 174.641 404.396 174.702 404.23 174.702ZM404.23 169.993C404.063 169.993 403.902 169.931 403.783 169.822C403.663 169.713 403.594 169.565 403.591 169.409V167.047C403.613 166.906 403.689 166.776 403.805 166.683C403.921 166.589 404.07 166.538 404.223 166.538C404.377 166.538 404.525 166.589 404.641 166.683C404.757 166.776 404.833 166.906 404.856 167.047V169.409C404.842 169.556 404.771 169.693 404.655 169.794C404.54 169.895 404.388 169.952 404.23 169.954V169.993ZM404.23 165.283C404.063 165.283 403.902 165.222 403.783 165.113C403.663 165.003 403.594 164.855 403.591 164.699V162.338C403.613 162.196 403.689 162.067 403.805 161.973C403.921 161.879 404.07 161.828 404.223 161.828C404.377 161.828 404.525 161.879 404.641 161.973C404.757 162.067 404.833 162.196 404.856 162.338V164.699C404.852 164.853 404.785 164.999 404.669 165.108C404.552 165.217 404.395 165.28 404.23 165.283ZM404.23 160.573C404.063 160.573 403.902 160.512 403.783 160.403C403.663 160.294 403.594 160.145 403.591 159.989V157.628C403.613 157.486 403.689 157.357 403.805 157.263C403.921 157.17 404.07 157.118 404.223 157.118C404.377 157.118 404.525 157.17 404.641 157.263C404.757 157.357 404.833 157.486 404.856 157.628V159.989C404.852 160.143 404.785 160.29 404.669 160.399C404.552 160.507 404.395 160.57 404.23 160.573Z" fill="#F5F5F5"/>
<path d="M404.23 197.084C404.147 197.085 404.064 197.072 403.986 197.043C403.909 197.014 403.838 196.972 403.779 196.917C403.719 196.863 403.672 196.798 403.64 196.726C403.607 196.655 403.591 196.578 403.591 196.5V195.345C403.577 195.26 403.584 195.173 403.609 195.091C403.635 195.009 403.679 194.933 403.739 194.868C403.799 194.803 403.874 194.751 403.957 194.715C404.041 194.68 404.131 194.661 404.223 194.661C404.315 194.661 404.406 194.68 404.489 194.715C404.573 194.751 404.647 194.803 404.707 194.868C404.767 194.933 404.811 195.009 404.837 195.091C404.863 195.173 404.869 195.26 404.856 195.345V196.525C404.849 196.676 404.78 196.818 404.663 196.922C404.547 197.026 404.391 197.084 404.23 197.084Z" fill="#F5F5F5"/>
<path d="M365.359 114.416C365.359 113.261 364.488 112.791 363.414 113.375L345.501 122.985C344.934 123.333 344.462 123.8 344.124 124.349C343.786 124.898 343.592 125.514 343.556 126.146V139.678C343.556 140.834 344.426 141.303 345.501 140.719L352.152 137.14L354.94 141.659C354.981 141.723 355.042 141.776 355.114 141.809C355.186 141.843 355.267 141.856 355.347 141.848C355.427 141.84 355.503 141.811 355.566 141.764C355.629 141.717 355.676 141.654 355.702 141.583L358.653 133.636L363.414 131.097C363.982 130.754 364.455 130.289 364.793 129.742C365.131 129.194 365.325 128.58 365.359 127.949V114.416Z" fill="#F5F5F5"/>
<path d="M349.771 128.596C349.592 128.609 349.411 128.584 349.244 128.522C349.077 128.46 348.927 128.364 348.805 128.24C348.544 127.926 348.418 127.532 348.452 127.136C348.452 126.618 348.573 126.107 348.805 125.638C349.044 125.123 349.37 124.647 349.771 124.229C350.157 123.805 350.617 123.444 351.131 123.162C351.541 122.924 352.009 122.788 352.491 122.769C352.671 122.759 352.852 122.787 353.019 122.851C353.186 122.914 353.335 123.012 353.457 123.137C353.723 123.449 353.854 123.843 353.824 124.241C353.815 124.755 353.69 125.261 353.457 125.727C353.21 126.242 352.885 126.72 352.491 127.148C352.101 127.562 351.642 127.914 351.131 128.189C350.724 128.435 350.255 128.576 349.771 128.596ZM349.336 135.438C349.339 135.358 349.362 135.28 349.404 135.209L357.184 120.446L357.388 120.116C357.472 120.032 357.568 119.959 357.673 119.9L359.265 119.049C359.295 119.037 359.327 119.031 359.36 119.031C359.393 119.031 359.425 119.037 359.455 119.049C359.481 119.055 359.505 119.07 359.52 119.092C359.535 119.113 359.541 119.138 359.537 119.163C359.535 119.25 359.507 119.333 359.455 119.405L351.607 134.181C351.607 134.308 351.471 134.397 351.43 134.46C351.357 134.535 351.269 134.595 351.172 134.638L349.567 135.514C349.431 135.679 349.336 135.59 349.336 135.438ZM352.056 126.069C352.3 125.74 352.437 125.352 352.45 124.952C352.474 124.808 352.448 124.661 352.377 124.531C352.307 124.402 352.194 124.296 352.056 124.229C351.89 124.182 351.715 124.173 351.545 124.202C351.375 124.231 351.214 124.296 351.077 124.394C350.678 124.611 350.342 124.916 350.097 125.282C349.851 125.62 349.714 126.017 349.703 126.425C349.681 126.565 349.708 126.708 349.779 126.834C349.85 126.959 349.961 127.06 350.097 127.123C350.262 127.169 350.436 127.179 350.606 127.153C350.776 127.126 350.937 127.064 351.077 126.971C351.496 126.755 351.851 126.445 352.11 126.069H352.056ZM356.381 131.757C356.199 131.769 356.015 131.743 355.846 131.679C355.676 131.615 355.524 131.516 355.402 131.388C355.136 131.081 355.005 130.691 355.035 130.297C355.044 129.787 355.169 129.285 355.402 128.824C355.647 128.305 355.977 127.826 356.381 127.402C356.767 126.981 357.227 126.625 357.741 126.349C358.148 126.103 358.617 125.962 359.101 125.942C359.282 125.934 359.463 125.961 359.632 126.022C359.801 126.083 359.954 126.177 360.081 126.298C360.349 126.609 360.48 127.004 360.448 127.402C360.44 127.916 360.315 128.423 360.081 128.888C359.829 129.403 359.499 129.882 359.101 130.309C358.712 130.727 358.252 131.082 357.741 131.363C357.347 131.592 356.899 131.727 356.436 131.757H356.381ZM358.707 129.218C358.957 128.886 359.094 128.493 359.101 128.088C359.101 127.72 358.979 127.491 358.707 127.39C358.541 127.342 358.366 127.333 358.196 127.361C358.026 127.39 357.865 127.456 357.728 127.555C357.326 127.768 356.989 128.074 356.748 128.443C356.507 128.773 356.37 129.161 356.354 129.56C356.354 129.941 356.49 130.182 356.748 130.271C356.915 130.312 357.088 130.318 357.258 130.289C357.427 130.261 357.587 130.198 357.728 130.106C358.141 129.899 358.495 129.603 358.761 129.243L358.707 129.218Z" fill="#FFCA05"/>
<path opacity="0.4" d="M349.771 128.596C349.592 128.609 349.411 128.584 349.244 128.522C349.077 128.46 348.927 128.364 348.805 128.24C348.544 127.926 348.418 127.532 348.452 127.136C348.452 126.618 348.573 126.107 348.805 125.638C349.044 125.123 349.37 124.647 349.771 124.229C350.157 123.805 350.617 123.444 351.131 123.162C351.541 122.924 352.009 122.788 352.491 122.769C352.671 122.759 352.852 122.787 353.019 122.851C353.186 122.914 353.335 123.012 353.457 123.137C353.723 123.449 353.854 123.843 353.824 124.241C353.815 124.755 353.69 125.261 353.457 125.727C353.21 126.242 352.885 126.72 352.491 127.148C352.101 127.562 351.642 127.914 351.131 128.189C350.724 128.435 350.255 128.576 349.771 128.596ZM349.336 135.438C349.339 135.358 349.362 135.28 349.404 135.209L357.184 120.446L357.388 120.116C357.472 120.032 357.568 119.959 357.673 119.9L359.265 119.049C359.295 119.037 359.327 119.031 359.36 119.031C359.393 119.031 359.425 119.037 359.455 119.049C359.481 119.055 359.505 119.07 359.52 119.092C359.535 119.113 359.541 119.138 359.537 119.163C359.535 119.25 359.507 119.333 359.455 119.405L351.607 134.181C351.607 134.308 351.471 134.397 351.43 134.46C351.357 134.535 351.269 134.595 351.172 134.638L349.567 135.514C349.431 135.679 349.336 135.59 349.336 135.438ZM352.056 126.069C352.3 125.74 352.437 125.352 352.45 124.952C352.474 124.808 352.448 124.661 352.377 124.531C352.307 124.402 352.194 124.296 352.056 124.229C351.89 124.182 351.715 124.173 351.545 124.202C351.375 124.231 351.214 124.296 351.077 124.394C350.678 124.611 350.342 124.916 350.097 125.282C349.851 125.62 349.714 126.017 349.703 126.425C349.681 126.565 349.708 126.708 349.779 126.834C349.85 126.959 349.961 127.06 350.097 127.123C350.262 127.169 350.436 127.179 350.606 127.153C350.776 127.126 350.937 127.064 351.077 126.971C351.496 126.755 351.851 126.445 352.11 126.069H352.056ZM356.381 131.757C356.199 131.769 356.015 131.743 355.846 131.679C355.676 131.615 355.524 131.516 355.402 131.388C355.136 131.081 355.005 130.691 355.035 130.297C355.044 129.787 355.169 129.285 355.402 128.824C355.647 128.305 355.977 127.826 356.381 127.402C356.767 126.981 357.227 126.625 357.741 126.349C358.148 126.103 358.617 125.962 359.101 125.942C359.282 125.934 359.463 125.961 359.632 126.022C359.801 126.083 359.954 126.177 360.081 126.298C360.349 126.609 360.48 127.004 360.448 127.402C360.44 127.916 360.315 128.423 360.081 128.888C359.829 129.403 359.499 129.882 359.101 130.309C358.712 130.727 358.252 131.082 357.741 131.363C357.347 131.592 356.899 131.727 356.436 131.757H356.381ZM358.707 129.218C358.957 128.886 359.094 128.493 359.101 128.088C359.101 127.72 358.979 127.491 358.707 127.39C358.541 127.342 358.366 127.333 358.196 127.361C358.026 127.39 357.865 127.456 357.728 127.555C357.326 127.768 356.989 128.074 356.748 128.443C356.507 128.773 356.37 129.161 356.354 129.56C356.354 129.941 356.49 130.182 356.748 130.271C356.915 130.312 357.088 130.318 357.258 130.289C357.427 130.261 357.587 130.198 357.728 130.106C358.141 129.899 358.495 129.603 358.761 129.243L358.707 129.218Z" fill="black"/>
<path d="M413.725 116.74C413.725 115.585 412.854 115.115 411.78 115.686L393.867 125.36C393.302 125.706 392.831 126.171 392.493 126.718C392.156 127.265 391.96 127.878 391.922 128.508V142.028C391.922 143.196 392.792 143.665 393.867 143.081L400.572 139.489L403.374 144.008C403.406 144.076 403.458 144.134 403.525 144.174C403.591 144.215 403.669 144.237 403.748 144.237C403.828 144.237 403.905 144.215 403.972 144.174C404.038 144.134 404.091 144.076 404.122 144.008L407.074 136.049L411.848 133.51C412.413 133.163 412.884 132.698 413.221 132.151C413.559 131.605 413.755 130.991 413.793 130.361L413.725 116.74Z" fill="#F5F5F5"/>
<path d="M398.138 130.919C397.956 130.93 397.773 130.903 397.604 130.839C397.434 130.775 397.282 130.677 397.159 130.551C396.901 130.24 396.775 129.851 396.805 129.459C396.813 128.943 396.933 128.433 397.159 127.961C397.402 127.442 397.732 126.962 398.138 126.54C398.528 126.122 398.987 125.767 399.498 125.486C399.906 125.244 400.375 125.109 400.858 125.092C401.041 125.08 401.224 125.106 401.394 125.17C401.564 125.234 401.715 125.333 401.838 125.461C402.107 125.771 402.238 126.167 402.205 126.565C402.196 127.075 402.071 127.577 401.838 128.038C401.593 128.556 401.262 129.036 400.858 129.459C400.472 129.88 400.012 130.236 399.498 130.513C399.092 130.759 398.622 130.899 398.138 130.919ZM397.689 137.762C397.693 137.676 397.721 137.593 397.771 137.52L405.551 122.757C405.604 122.639 405.672 122.528 405.755 122.427C405.83 122.339 405.922 122.266 406.027 122.211L407.632 121.348C407.713 121.348 407.768 121.284 407.822 121.348C407.877 121.411 407.89 121.348 407.89 121.462C407.892 121.547 407.868 121.63 407.822 121.703L400.001 136.543C399.953 136.641 399.893 136.735 399.825 136.822C399.756 136.896 399.673 136.956 399.58 137L397.961 137.876C397.852 137.927 397.689 137.901 397.689 137.762ZM400.409 128.393C400.651 128.063 400.788 127.676 400.804 127.276C400.827 127.132 400.802 126.985 400.731 126.855C400.66 126.725 400.548 126.62 400.409 126.552C400.244 126.506 400.069 126.497 399.899 126.526C399.729 126.554 399.568 126.62 399.43 126.717C399.035 126.935 398.704 127.24 398.464 127.606C398.213 127.941 398.075 128.339 398.07 128.748C398.046 128.889 398.072 129.033 398.143 129.159C398.214 129.284 398.327 129.385 398.464 129.447C398.628 129.493 398.801 129.502 398.969 129.473C399.137 129.444 399.295 129.379 399.43 129.282C399.852 129.075 400.209 128.769 400.464 128.393H400.409ZM404.735 134.08C404.552 134.09 404.37 134.062 404.201 133.998C404.032 133.935 403.879 133.837 403.755 133.712C403.502 133.399 403.377 133.012 403.402 132.62C403.411 132.108 403.532 131.603 403.755 131.135C404.007 130.62 404.337 130.141 404.735 129.713C405.125 129.3 405.584 128.948 406.095 128.672C406.503 128.43 406.972 128.29 407.455 128.266C407.636 128.255 407.818 128.281 407.987 128.342C408.156 128.403 408.309 128.499 408.434 128.622C408.701 128.928 408.833 129.319 408.801 129.713C408.795 130.231 408.67 130.742 408.434 131.211C408.186 131.724 407.856 132.199 407.455 132.62C407.068 133.04 406.608 133.396 406.095 133.674C405.701 133.906 405.253 134.045 404.789 134.08H404.735ZM407.074 131.541C407.32 131.204 407.457 130.807 407.469 130.399C407.488 130.259 407.46 130.116 407.39 129.991C407.319 129.866 407.209 129.765 407.074 129.701C406.905 129.66 406.728 129.655 406.556 129.686C406.385 129.716 406.222 129.782 406.081 129.878C405.686 130.09 405.354 130.391 405.116 130.754C404.864 131.085 404.722 131.478 404.707 131.884C404.707 132.265 404.843 132.493 405.116 132.595C405.28 132.635 405.451 132.641 405.618 132.613C405.785 132.584 405.943 132.522 406.081 132.43C406.498 132.223 406.857 131.927 407.129 131.567L407.074 131.541Z" fill="#FFCA05"/>
<path opacity="0.4" d="M398.138 130.919C397.956 130.93 397.773 130.903 397.604 130.839C397.434 130.775 397.282 130.677 397.159 130.551C396.901 130.24 396.775 129.851 396.805 129.459C396.813 128.943 396.933 128.433 397.159 127.961C397.402 127.442 397.732 126.962 398.138 126.54C398.528 126.122 398.987 125.767 399.498 125.486C399.906 125.244 400.375 125.109 400.858 125.092C401.041 125.08 401.224 125.106 401.394 125.17C401.564 125.234 401.715 125.333 401.838 125.461C402.107 125.771 402.238 126.167 402.205 126.565C402.196 127.075 402.071 127.577 401.838 128.038C401.593 128.556 401.262 129.036 400.858 129.459C400.472 129.88 400.012 130.236 399.498 130.513C399.092 130.759 398.622 130.899 398.138 130.919ZM397.689 137.762C397.693 137.676 397.721 137.593 397.771 137.52L405.551 122.757C405.604 122.639 405.672 122.528 405.755 122.427C405.83 122.339 405.922 122.266 406.027 122.211L407.632 121.348C407.713 121.348 407.768 121.284 407.822 121.348C407.877 121.411 407.89 121.348 407.89 121.462C407.892 121.547 407.868 121.63 407.822 121.703L400.001 136.543C399.953 136.641 399.893 136.735 399.825 136.822C399.756 136.896 399.673 136.956 399.58 137L397.961 137.876C397.852 137.927 397.689 137.901 397.689 137.762ZM400.409 128.393C400.651 128.063 400.788 127.676 400.804 127.276C400.827 127.132 400.802 126.985 400.731 126.855C400.66 126.725 400.548 126.62 400.409 126.552C400.244 126.506 400.069 126.497 399.899 126.526C399.729 126.554 399.568 126.62 399.43 126.717C399.035 126.935 398.704 127.24 398.464 127.606C398.213 127.941 398.075 128.339 398.07 128.748C398.046 128.889 398.072 129.033 398.143 129.159C398.214 129.284 398.327 129.385 398.464 129.447C398.628 129.493 398.801 129.502 398.969 129.473C399.137 129.444 399.295 129.379 399.43 129.282C399.852 129.075 400.209 128.769 400.464 128.393H400.409ZM404.735 134.08C404.552 134.09 404.37 134.062 404.201 133.998C404.032 133.935 403.879 133.837 403.755 133.712C403.502 133.399 403.377 133.012 403.402 132.62C403.411 132.108 403.532 131.603 403.755 131.135C404.007 130.62 404.337 130.141 404.735 129.713C405.125 129.3 405.584 128.948 406.095 128.672C406.503 128.43 406.972 128.29 407.455 128.266C407.636 128.255 407.818 128.281 407.987 128.342C408.156 128.403 408.309 128.499 408.434 128.622C408.701 128.928 408.833 129.319 408.801 129.713C408.795 130.231 408.67 130.742 408.434 131.211C408.186 131.724 407.856 132.199 407.455 132.62C407.068 133.04 406.608 133.396 406.095 133.674C405.701 133.906 405.253 134.045 404.789 134.08H404.735ZM407.074 131.541C407.32 131.204 407.457 130.807 407.469 130.399C407.488 130.259 407.46 130.116 407.39 129.991C407.319 129.866 407.209 129.765 407.074 129.701C406.905 129.66 406.728 129.655 406.556 129.686C406.385 129.716 406.222 129.782 406.081 129.878C405.686 130.09 405.354 130.391 405.116 130.754C404.864 131.085 404.722 131.478 404.707 131.884C404.707 132.265 404.843 132.493 405.116 132.595C405.28 132.635 405.451 132.641 405.618 132.613C405.785 132.584 405.943 132.522 406.081 132.43C406.498 132.223 406.857 131.927 407.129 131.567L407.074 131.541Z" fill="black"/>
<path d="M314.502 98.6877C314.502 97.5325 313.632 97.0627 312.557 97.6467L294.644 107.307C294.077 107.655 293.606 108.122 293.268 108.671C292.93 109.22 292.735 109.836 292.699 110.468V124.001C292.699 125.156 293.57 125.626 294.644 125.042L301.282 121.462L304.084 125.968C304.115 126.036 304.168 126.094 304.234 126.135C304.3 126.175 304.378 126.197 304.458 126.197C304.537 126.197 304.615 126.175 304.681 126.135C304.748 126.094 304.8 126.036 304.832 125.968L307.783 118.022L312.557 115.483C313.126 115.139 313.598 114.675 313.936 114.127C314.275 113.58 314.469 112.965 314.502 112.334V98.6877Z" fill="#F5F5F5"/>
<path d="M298.901 112.829C298.722 112.84 298.542 112.814 298.375 112.753C298.208 112.691 298.058 112.596 297.935 112.474C297.68 112.157 297.555 111.765 297.582 111.369C297.59 110.853 297.71 110.343 297.935 109.871C298.179 109.359 298.505 108.884 298.901 108.462C299.29 108.041 299.75 107.681 300.261 107.396C300.671 107.159 301.14 107.024 301.621 107.002C301.804 106.99 301.987 107.016 302.157 107.08C302.327 107.144 302.478 107.243 302.601 107.37C302.866 107.683 302.997 108.077 302.968 108.475C302.959 108.989 302.833 109.495 302.601 109.96C302.349 110.476 302.019 110.954 301.621 111.382C301.231 111.796 300.772 112.147 300.261 112.423C299.855 112.669 299.385 112.809 298.901 112.829ZM298.466 119.672C298.468 119.589 298.496 119.51 298.547 119.443L306.327 104.667C306.383 104.55 306.452 104.44 306.531 104.336C306.606 104.249 306.699 104.176 306.803 104.121L308.408 103.27C308.438 103.257 308.471 103.251 308.504 103.251C308.536 103.251 308.569 103.257 308.599 103.27C308.599 103.27 308.667 103.27 308.667 103.384C308.67 103.469 308.646 103.553 308.599 103.626L300.778 118.466C300.729 118.564 300.67 118.658 300.601 118.745C300.536 118.822 300.452 118.883 300.356 118.923L298.738 119.798C298.561 119.887 298.466 119.862 298.466 119.71V119.672ZM301.186 110.303C301.43 109.974 301.567 109.586 301.581 109.186C301.604 109.042 301.578 108.895 301.508 108.765C301.437 108.635 301.324 108.529 301.186 108.462C301.02 108.416 300.845 108.407 300.675 108.436C300.505 108.464 300.345 108.53 300.207 108.627C299.812 108.846 299.481 109.151 299.241 109.516C298.989 109.851 298.852 110.249 298.847 110.658C298.847 111.027 298.969 111.255 299.241 111.357C299.405 111.403 299.577 111.412 299.745 111.383C299.913 111.354 300.071 111.289 300.207 111.192C300.645 110.987 301.017 110.676 301.281 110.29L301.186 110.303ZM305.511 115.99C305.329 116.003 305.146 115.976 304.976 115.912C304.806 115.848 304.654 115.749 304.532 115.622C304.277 115.31 304.151 114.922 304.178 114.53C304.19 114.022 304.31 113.522 304.532 113.058C304.777 112.539 305.107 112.059 305.511 111.636C305.897 111.215 306.357 110.859 306.871 110.582C307.278 110.336 307.748 110.196 308.232 110.176C308.412 110.167 308.593 110.194 308.762 110.255C308.931 110.317 309.084 110.411 309.211 110.531C309.474 110.845 309.6 111.239 309.565 111.636C309.562 112.149 309.441 112.655 309.211 113.121C308.959 113.637 308.63 114.115 308.232 114.543C307.841 114.96 307.382 115.315 306.871 115.597C306.481 115.839 306.032 115.987 305.566 116.028L305.511 115.99ZM307.851 113.451C308.095 113.117 308.232 112.725 308.245 112.321C308.267 112.181 308.24 112.038 308.169 111.913C308.098 111.787 307.987 111.686 307.851 111.623C307.683 111.576 307.506 111.566 307.333 111.595C307.161 111.624 306.998 111.69 306.858 111.788C306.461 112.004 306.129 112.309 305.892 112.677C305.641 113.003 305.499 113.392 305.484 113.794C305.484 114.175 305.62 114.416 305.892 114.505C306.056 114.545 306.228 114.551 306.395 114.523C306.562 114.494 306.72 114.432 306.858 114.34C307.27 114.144 307.629 113.861 307.905 113.515L307.851 113.451Z" fill="#FFCA05"/>
<path opacity="0.4" d="M298.901 112.829C298.722 112.84 298.542 112.814 298.375 112.753C298.208 112.691 298.058 112.596 297.935 112.474C297.68 112.157 297.555 111.765 297.582 111.369C297.59 110.853 297.71 110.343 297.935 109.871C298.179 109.359 298.505 108.884 298.901 108.462C299.29 108.041 299.75 107.681 300.261 107.396C300.671 107.159 301.14 107.024 301.621 107.002C301.804 106.99 301.987 107.016 302.157 107.08C302.327 107.144 302.478 107.243 302.601 107.37C302.866 107.683 302.997 108.077 302.968 108.475C302.959 108.989 302.833 109.495 302.601 109.96C302.349 110.476 302.019 110.954 301.621 111.382C301.231 111.796 300.772 112.147 300.261 112.423C299.855 112.669 299.385 112.809 298.901 112.829ZM298.466 119.672C298.468 119.589 298.496 119.51 298.547 119.443L306.327 104.667C306.383 104.55 306.452 104.44 306.531 104.336C306.606 104.249 306.699 104.176 306.803 104.121L308.408 103.27C308.438 103.257 308.471 103.251 308.504 103.251C308.536 103.251 308.569 103.257 308.599 103.27C308.599 103.27 308.667 103.27 308.667 103.384C308.67 103.469 308.646 103.553 308.599 103.626L300.778 118.466C300.729 118.564 300.67 118.658 300.601 118.745C300.536 118.822 300.452 118.883 300.356 118.923L298.738 119.798C298.561 119.887 298.466 119.862 298.466 119.71V119.672ZM301.186 110.303C301.43 109.974 301.567 109.586 301.581 109.186C301.604 109.042 301.578 108.895 301.508 108.765C301.437 108.635 301.324 108.529 301.186 108.462C301.02 108.416 300.845 108.407 300.675 108.436C300.505 108.464 300.345 108.53 300.207 108.627C299.812 108.846 299.481 109.151 299.241 109.516C298.989 109.851 298.852 110.249 298.847 110.658C298.847 111.027 298.969 111.255 299.241 111.357C299.405 111.403 299.577 111.412 299.745 111.383C299.913 111.354 300.071 111.289 300.207 111.192C300.645 110.987 301.017 110.676 301.281 110.29L301.186 110.303ZM305.511 115.99C305.329 116.003 305.146 115.976 304.976 115.912C304.806 115.848 304.654 115.749 304.532 115.622C304.277 115.31 304.151 114.922 304.178 114.53C304.19 114.022 304.31 113.522 304.532 113.058C304.777 112.539 305.107 112.059 305.511 111.636C305.897 111.215 306.357 110.859 306.871 110.582C307.278 110.336 307.748 110.196 308.232 110.176C308.412 110.167 308.593 110.194 308.762 110.255C308.931 110.317 309.084 110.411 309.211 110.531C309.474 110.845 309.6 111.239 309.565 111.636C309.562 112.149 309.441 112.655 309.211 113.121C308.959 113.637 308.63 114.115 308.232 114.543C307.841 114.96 307.382 115.315 306.871 115.597C306.481 115.839 306.032 115.987 305.566 116.028L305.511 115.99ZM307.851 113.451C308.095 113.117 308.232 112.725 308.245 112.321C308.267 112.181 308.24 112.038 308.169 111.913C308.098 111.787 307.987 111.686 307.851 111.623C307.683 111.576 307.506 111.566 307.333 111.595C307.161 111.624 306.998 111.69 306.858 111.788C306.461 112.004 306.129 112.309 305.892 112.677C305.641 113.003 305.499 113.392 305.484 113.794C305.484 114.175 305.62 114.416 305.892 114.505C306.056 114.545 306.228 114.551 306.395 114.523C306.562 114.494 306.72 114.432 306.858 114.34C307.27 114.144 307.629 113.861 307.905 113.515L307.851 113.451Z" fill="black"/>
<path d="M249.475 170.742C249.475 169.587 248.604 169.117 247.53 169.688L229.617 179.362C229.05 179.709 228.578 180.176 228.24 180.726C227.902 181.275 227.708 181.89 227.672 182.523V196.042C227.672 197.21 228.542 197.68 229.617 197.096L236.268 193.516L239.056 198.023C239.096 198.088 239.156 198.14 239.227 198.175C239.298 198.21 239.379 198.224 239.459 198.218C239.539 198.211 239.615 198.183 239.679 198.137C239.742 198.092 239.791 198.03 239.818 197.959L242.769 190L247.53 187.461C248.097 187.116 248.568 186.651 248.906 186.104C249.244 185.557 249.439 184.943 249.475 184.313V170.742Z" fill="#F5F5F5"/>
<path d="M233.887 184.922C233.706 184.935 233.525 184.909 233.357 184.845C233.189 184.781 233.04 184.681 232.921 184.554C232.658 184.246 232.531 183.855 232.568 183.462C232.569 182.945 232.689 182.434 232.921 181.964C233.163 181.447 233.489 180.967 233.887 180.542C234.274 180.123 234.734 179.767 235.247 179.489C235.655 179.247 236.125 179.111 236.607 179.095C236.79 179.083 236.973 179.109 237.143 179.173C237.313 179.237 237.464 179.336 237.587 179.463C237.855 179.775 237.986 180.169 237.954 180.568C237.945 181.077 237.82 181.579 237.587 182.04C237.339 182.561 237.008 183.045 236.607 183.475C236.217 183.888 235.758 184.24 235.247 184.516C234.839 184.758 234.37 184.898 233.887 184.922ZM233.452 191.764C233.457 191.68 233.48 191.598 233.52 191.523L241.3 176.759C241.353 176.642 241.421 176.531 241.504 176.429C241.582 176.345 241.674 176.272 241.776 176.213L243.381 175.35C243.442 175.33 243.51 175.33 243.571 175.35C243.598 175.356 243.621 175.371 243.636 175.393C243.651 175.414 243.657 175.439 243.653 175.464C243.649 175.55 243.621 175.633 243.571 175.706L235.764 190.546C235.696 190.673 235.628 190.761 235.587 190.825C235.51 190.895 235.423 190.955 235.329 191.003L233.71 191.879C233.533 191.929 233.452 191.917 233.452 191.764ZM236.172 182.396C236.41 182.065 236.542 181.677 236.553 181.279C236.553 180.898 236.431 180.657 236.172 180.555C236.006 180.509 235.831 180.5 235.661 180.528C235.491 180.557 235.331 180.623 235.193 180.72C234.791 180.934 234.454 181.24 234.213 181.609C233.968 181.946 233.831 182.343 233.819 182.751C233.798 182.891 233.824 183.035 233.895 183.16C233.966 183.285 234.077 183.387 234.213 183.449C234.379 183.495 234.554 183.505 234.724 183.476C234.894 183.447 235.055 183.382 235.193 183.284C235.612 183.074 235.967 182.768 236.226 182.396H236.172ZM240.497 188.083C240.315 188.093 240.133 188.065 239.963 188.001C239.794 187.938 239.642 187.84 239.518 187.715C239.254 187.406 239.123 187.017 239.151 186.623C239.16 186.113 239.285 185.611 239.518 185.15C239.766 184.629 240.096 184.146 240.497 183.716C240.89 183.305 241.349 182.954 241.857 182.675C242.266 182.433 242.734 182.293 243.218 182.269C243.399 182.257 243.58 182.283 243.75 182.345C243.919 182.406 244.072 182.502 244.197 182.624C244.466 182.935 244.598 183.33 244.564 183.729C244.557 184.243 244.431 184.749 244.197 185.214C243.948 185.727 243.618 186.202 243.218 186.623C242.834 187.046 242.374 187.403 241.857 187.677C241.467 187.914 241.017 188.054 240.552 188.083H240.497ZM242.823 185.544C243.069 185.206 243.206 184.81 243.218 184.401C243.237 184.261 243.209 184.119 243.139 183.994C243.068 183.869 242.958 183.768 242.823 183.703C242.654 183.663 242.477 183.657 242.305 183.688C242.134 183.719 241.971 183.785 241.83 183.881C241.439 184.098 241.108 184.398 240.865 184.757C240.618 185.09 240.481 185.482 240.47 185.887C240.47 186.268 240.593 186.496 240.865 186.598C241.029 186.638 241.2 186.644 241.367 186.616C241.534 186.587 241.692 186.525 241.83 186.433C242.247 186.226 242.606 185.93 242.878 185.569L242.823 185.544Z" fill="#FFCA05"/>
<path opacity="0.4" d="M233.887 184.922C233.706 184.935 233.525 184.909 233.357 184.845C233.189 184.781 233.04 184.681 232.921 184.554C232.658 184.246 232.531 183.855 232.568 183.462C232.569 182.945 232.689 182.434 232.921 181.964C233.163 181.447 233.489 180.967 233.887 180.542C234.274 180.123 234.734 179.767 235.247 179.489C235.655 179.247 236.125 179.111 236.607 179.095C236.79 179.083 236.973 179.109 237.143 179.173C237.313 179.237 237.464 179.336 237.587 179.463C237.855 179.775 237.986 180.169 237.954 180.568C237.945 181.077 237.82 181.579 237.587 182.04C237.339 182.561 237.008 183.045 236.607 183.475C236.217 183.888 235.758 184.24 235.247 184.516C234.839 184.758 234.37 184.898 233.887 184.922ZM233.452 191.764C233.457 191.68 233.48 191.598 233.52 191.523L241.3 176.759C241.353 176.642 241.421 176.531 241.504 176.429C241.582 176.345 241.674 176.272 241.776 176.213L243.381 175.35C243.442 175.33 243.51 175.33 243.571 175.35C243.598 175.356 243.621 175.371 243.636 175.393C243.651 175.414 243.657 175.439 243.653 175.464C243.649 175.55 243.621 175.633 243.571 175.706L235.764 190.546C235.696 190.673 235.628 190.761 235.587 190.825C235.51 190.895 235.423 190.955 235.329 191.003L233.71 191.879C233.533 191.929 233.452 191.917 233.452 191.764ZM236.172 182.396C236.41 182.065 236.542 181.677 236.553 181.279C236.553 180.898 236.431 180.657 236.172 180.555C236.006 180.509 235.831 180.5 235.661 180.528C235.491 180.557 235.331 180.623 235.193 180.72C234.791 180.934 234.454 181.24 234.213 181.609C233.968 181.946 233.831 182.343 233.819 182.751C233.798 182.891 233.824 183.035 233.895 183.16C233.966 183.285 234.077 183.387 234.213 183.449C234.379 183.495 234.554 183.505 234.724 183.476C234.894 183.447 235.055 183.382 235.193 183.284C235.612 183.074 235.967 182.768 236.226 182.396H236.172ZM240.497 188.083C240.315 188.093 240.133 188.065 239.963 188.001C239.794 187.938 239.642 187.84 239.518 187.715C239.254 187.406 239.123 187.017 239.151 186.623C239.16 186.113 239.285 185.611 239.518 185.15C239.766 184.629 240.096 184.146 240.497 183.716C240.89 183.305 241.349 182.954 241.857 182.675C242.266 182.433 242.734 182.293 243.218 182.269C243.399 182.257 243.58 182.283 243.75 182.345C243.919 182.406 244.072 182.502 244.197 182.624C244.466 182.935 244.598 183.33 244.564 183.729C244.557 184.243 244.431 184.749 244.197 185.214C243.948 185.727 243.618 186.202 243.218 186.623C242.834 187.046 242.374 187.403 241.857 187.677C241.467 187.914 241.017 188.054 240.552 188.083H240.497ZM242.823 185.544C243.069 185.206 243.206 184.81 243.218 184.401C243.237 184.261 243.209 184.119 243.139 183.994C243.068 183.869 242.958 183.768 242.823 183.703C242.654 183.663 242.477 183.657 242.305 183.688C242.134 183.719 241.971 183.785 241.83 183.881C241.439 184.098 241.108 184.398 240.865 184.757C240.618 185.09 240.481 185.482 240.47 185.887C240.47 186.268 240.593 186.496 240.865 186.598C241.029 186.638 241.2 186.644 241.367 186.616C241.534 186.587 241.692 186.525 241.83 186.433C242.247 186.226 242.606 185.93 242.878 185.569L242.823 185.544Z" fill="black"/>
<path d="M233.384 297.129L246.51 290.058C248.428 289.03 249.964 289.474 249.964 291.048C249.823 292.03 249.436 292.968 248.836 293.786C248.236 294.604 247.44 295.279 246.51 295.758L233.398 302.829C231.48 303.857 229.93 303.413 229.93 301.839C230.078 300.858 230.467 299.923 231.066 299.106C231.665 298.289 232.459 297.612 233.384 297.129Z" fill="#F5F5F5"/>
<path d="M298.658 261.953L311.783 254.882C313.687 253.854 315.238 254.298 315.238 255.872C315.09 256.853 314.701 257.788 314.102 258.605C313.503 259.422 312.709 260.099 311.783 260.582L298.658 267.704C296.754 268.732 295.203 268.288 295.203 266.714C295.345 265.725 295.731 264.78 296.331 263.954C296.93 263.128 297.727 262.443 298.658 261.953Z" fill="#F5F5F5"/>
<path d="M348.534 235.117L361.659 228.046C363.563 227.018 365.114 227.462 365.114 229.036C364.966 230.017 364.577 230.952 363.978 231.769C363.378 232.586 362.585 233.263 361.659 233.746L348.534 240.817C346.63 241.845 345.079 241.414 345.079 239.84C345.226 238.857 345.614 237.92 346.214 237.101C346.813 236.281 347.607 235.603 348.534 235.117Z" fill="#F5F5F5"/>
<path d="M397.662 208.61L410.787 201.539C412.705 200.511 414.255 200.943 414.242 202.517C414.102 203.501 413.716 204.442 413.116 205.262C412.516 206.082 411.719 206.759 410.787 207.239L397.675 214.31C395.758 215.338 394.207 214.894 394.207 213.32C394.355 212.34 394.744 211.404 395.343 210.587C395.942 209.77 396.736 209.094 397.662 208.61Z" fill="#F5F5F5"/>
<path d="M488.979 139.069C485.62 138.841 480.955 138.828 476.344 145.861C471.733 152.894 459.206 172.24 459.206 172.24L467.367 177.394L481.648 158.67C481.648 158.67 483.008 143.703 485.647 141.608C488.286 139.513 488.979 139.069 488.979 139.069Z" fill="#F28F8F"/>
<path d="M500.296 280.675L492.636 282.99L496.243 293.389L503.903 291.074L500.296 280.675Z" fill="#FFA8A7"/>
<path d="M494.705 288.865C494.753 289.718 494.521 290.564 494.039 291.29C492.82 293.182 491.383 294.944 489.755 296.545C487.456 298.843 484.015 301.623 481.594 303.566C480.234 304.683 480.166 306.371 482.124 306.955C485.77 307.791 489.62 307.291 492.883 305.559C495.331 304.289 498.813 298.678 500.84 297.815C503.179 296.837 504.498 296.342 505.287 295.276C505.884 294.703 506.256 293.959 506.343 293.164C506.429 292.368 506.225 291.569 505.763 290.896C504.662 288.979 503.043 286.034 502.322 286.364L502.526 286.961C501.996 288.522 497.439 290.338 495.1 289.906L494.705 288.865Z" fill="#263238"/>
<path d="M502.499 287.026C500.337 286.404 499.684 287.47 497.344 287.026L494.706 288.866C494.761 289.72 494.528 290.568 494.039 291.291C492.82 293.183 491.384 294.945 489.755 296.546C488.626 297.664 487.238 298.882 485.838 300.076C484.709 301.726 488.476 302.208 490.557 301.65C492.841 300.887 494.81 299.475 496.188 297.613C497.698 295.759 501.806 291.456 502.418 289.996C502.858 289.054 502.888 287.988 502.499 287.026Z" fill="#FFA8A7"/>
<path d="M528.233 181.889C527.118 174.273 524.615 165.386 521.324 151.714C520.14 146.776 518.603 142.32 514.822 140.949C514.822 140.949 504.444 144.935 504.444 152.095C504.444 159.255 512.836 162.924 512.836 162.924L517.624 178.335L525.214 186.929C526.312 186.608 527.236 185.907 527.798 184.97C528.359 184.033 528.515 182.93 528.233 181.889Z" fill="#FFA8A7"/>
<path d="M512.021 297.637H504.2V308.262H512.021V297.637Z" fill="#FFA8A7"/>
<path d="M517.91 189.327C521.012 201.717 517.992 218.436 516.931 228.858C515.897 239.014 514.619 250.883 514.619 250.883C514.619 250.883 517.951 261.61 517.788 269.925C517.625 278.71 512.116 299.859 512.116 299.859C510.92 300.578 509.527 300.96 508.104 300.96C506.681 300.96 505.288 300.578 504.091 299.859C504.091 299.859 502.731 282.086 501.371 272.032C500.011 261.496 499.576 253.828 498.42 247.671C496.964 240.055 494.53 207.582 494.53 207.582L490.341 239.775C492.853 243.632 494.81 247.781 496.162 252.115C497.876 258.348 501.602 283.089 501.602 283.089C499.271 285.039 496.272 286.151 493.142 286.225C493.142 286.225 476.386 249.068 474.1 245.361C471.652 241.413 471.285 198.175 475.189 187.347L517.91 189.327Z" fill="#455A64"/>
<path d="M503.588 139.234C503.588 139.234 513.49 140.39 514.823 140.948C504.445 147.765 512.837 162.922 512.837 162.922L507.818 175.833L517.897 189.289C514.999 192.412 496.57 203.253 476.793 191.371C477.193 185.102 477.969 178.859 479.119 172.672C476.263 159.977 475.964 155.928 476.793 152.945C479.119 144.553 484.437 139.196 490.544 138.879L503.588 139.234Z" fill="#FFCA05"/>
<path opacity="0.7" d="M503.588 139.234C503.588 139.234 513.49 140.39 514.823 140.948C504.445 147.765 512.837 162.922 512.837 162.922L507.818 175.833L517.897 189.289C514.999 192.412 496.57 203.253 476.793 191.371C477.193 185.102 477.969 178.859 479.119 172.672C476.263 159.977 475.964 155.928 476.793 152.945C479.119 144.553 484.437 139.196 490.544 138.879L503.588 139.234Z" fill="white"/>
<path d="M453.426 161.945L487.157 170.248L497.113 209.322L465.041 200.626L453.426 161.945Z" fill="#FFCA05"/>
<path d="M468.129 187.804C467.816 188.603 465.98 190.812 462.049 190.647L461.56 189.022L468.129 187.804Z" fill="#FFCA05"/>
<path opacity="0.2" d="M468.129 187.804C467.816 188.603 465.98 190.812 462.049 190.647L461.56 189.022L468.129 187.804Z" fill="black"/>
<path d="M475.678 188.997C475.814 190.038 478.112 191.968 481.989 193.174C486.409 194.557 493.169 193.821 493.169 193.821L492.571 191.879L475.678 188.997Z" fill="#FFCA05"/>
<path opacity="0.2" d="M475.678 188.997C475.814 190.038 478.112 191.968 481.989 193.174C486.409 194.557 493.169 193.821 493.169 193.821L492.571 191.879L475.678 188.997Z" fill="black"/>
<path d="M463.301 167.607L463.029 166.414C462.866 165.741 464.851 165.716 467.449 166.338L472.414 167.544C475.012 168.179 477.242 169.22 477.392 169.88L477.678 171.086L463.301 167.607Z" fill="#FFCA05"/>
<path opacity="0.3" d="M463.301 167.607L463.029 166.414C462.866 165.741 464.851 165.716 467.449 166.338L472.414 167.544C475.012 168.179 477.242 169.22 477.392 169.88L477.678 171.086L463.301 167.607Z" fill="black"/>
<path d="M460.961 163.075C460.866 162.668 461.668 162.554 462.756 162.833L464.728 163.341C464.728 163.341 464.13 160.802 468.51 161.653C469.673 161.805 470.774 162.236 471.706 162.903C472.638 163.57 473.369 164.452 473.828 165.461L475.922 166.02C477.092 166.324 478.139 166.908 478.275 167.289L478.52 168.038L461.151 163.773C461.151 163.773 461.056 163.494 460.961 163.075Z" fill="#455A64"/>
<path d="M463.355 164.37C464.946 164.738 465.613 164.929 465.844 165.957C466.075 166.985 466.225 167.975 466.225 167.975L473.923 169.88C473.923 169.88 473.556 168.394 473.433 167.823C473.311 167.252 473.569 166.896 474.794 167.201L474.902 166.744L462.852 163.875L463.355 164.37Z" fill="#455A64"/>
<path d="M463.138 167.722C463.138 167.722 463.015 167.189 462.852 166.452C462.689 165.716 464.675 165.767 467.273 166.452L472.251 167.658C474.849 168.293 477.066 169.334 477.229 169.994L477.501 171.2L463.138 167.722Z" fill="#455A64"/>
<path d="M525.213 186.928L517.624 178.334C517.624 178.334 500.541 185.024 497.847 185.214C495.154 185.405 493.073 182.942 492.04 180.492C491.006 178.042 488.966 178.347 488.966 178.347C488.966 178.347 489.768 181.457 490.013 182.46C490.258 183.463 484.097 184.262 480.492 183.133C476.888 182.003 471.76 183.64 474.97 188.21C478.18 192.78 484.382 193.288 488.707 193.288C490.527 193.276 492.343 193.161 494.148 192.945C495.508 192.78 496.868 192.641 498.351 192.552C507.178 191.917 521.187 188.096 525.213 186.928Z" fill="#FFA8A7"/>
<path d="M456.853 173.371L458.349 178.36C458.648 179.312 462.566 181.064 465.041 181.698C467.516 182.333 470.237 183.082 469.121 186.319C468.033 189.302 463.953 189.988 461.872 189.899C459.791 189.81 456.962 187.969 455.833 184.974C454.473 181.165 455.18 177.103 454.609 174.818C454.038 172.533 455.615 172.05 456.853 173.371Z" fill="#FFA8A7"/>
<path d="M504.199 304.671V303.617C503.232 307.071 501.303 310.224 498.608 312.757C496.133 314.865 492.774 317.289 491.917 319.625C491.06 321.961 495.888 323.027 499.085 322.735C502.178 322.371 505.027 320.978 507.109 318.813C509.136 316.642 509.095 315.157 510.047 313.963C510.999 312.77 513.176 311.424 513.692 310.041C513.845 308.756 513.692 307.455 513.244 306.232C512.876 304.963 512.482 303.528 512.019 303.693V304.493C510.907 305.32 509.525 305.768 508.102 305.763C506.96 305.699 504.185 305.483 504.199 304.671Z" fill="#263238"/>
<path d="M512.021 304.417C511.45 305.001 511.164 303.567 509.396 303.618C508.254 303.618 506.336 304.43 506.336 303.618H504.201C503.234 307.071 501.305 310.224 498.61 312.758C498.012 313.265 497.373 313.786 496.72 314.319C495.36 315.69 495.781 316.858 498.869 317.125C501.956 317.391 504.663 315.639 507.03 312.961C509.005 310.281 510.678 307.418 512.021 304.417Z" fill="#FFA8A7"/>
<path d="M496.814 132.989H494.965C490.239 132.989 485.707 131.237 482.366 128.118C479.024 125 477.147 120.77 477.147 116.359V114.671C477.147 110.924 478.742 107.33 481.581 104.68C484.42 102.03 488.27 100.542 492.285 100.542H499.576C503.59 100.542 507.441 102.03 510.28 104.68C513.119 107.33 514.714 110.924 514.714 114.671V116.27C514.714 120.702 512.829 124.953 509.472 128.088C506.116 131.223 501.563 132.986 496.814 132.989Z" fill="#263238"/>
<path d="M483.321 107.638C481.336 108.729 478.887 113.388 479.132 123.15C479.336 131.427 482.206 133.471 483.648 134.068C485.09 134.664 487.878 134.296 490.585 133.877V138.841C490.585 138.841 486.844 142.903 487.089 145.188C487.334 147.473 492.53 148.007 495.984 145.772C498.514 143.944 500.694 141.729 502.431 139.222L502.363 127.797C502.363 127.797 503.955 129.244 506.661 127.035C508.892 125.22 509.64 122.148 507.899 120.51C507.45 120.118 506.907 119.831 506.316 119.674C505.724 119.516 505.101 119.492 504.498 119.604C503.894 119.715 503.328 119.959 502.846 120.316C502.364 120.672 501.979 121.13 501.724 121.653C498.172 121.518 494.713 120.558 491.659 118.86C489.425 117.729 487.506 116.125 486.058 114.176C484.61 112.226 483.673 109.987 483.321 107.638Z" fill="#FFA8A7"/>
<path d="M488.98 121.081C488.969 121.22 488.987 121.359 489.034 121.491C489.08 121.623 489.154 121.745 489.252 121.85C489.349 121.955 489.468 122.041 489.601 122.103C489.734 122.165 489.879 122.202 490.027 122.211C490.331 122.218 490.626 122.113 490.848 121.918C491.069 121.723 491.2 121.454 491.21 121.17C491.223 120.894 491.118 120.625 490.917 120.421C490.818 120.32 490.699 120.239 490.566 120.181C490.433 120.123 490.289 120.091 490.143 120.085C489.847 120.073 489.558 120.172 489.34 120.358C489.122 120.545 488.992 120.805 488.98 121.081Z" fill="#263238"/>
<path d="M488.735 128.062L486.15 128.837C486.252 129.157 486.484 129.427 486.797 129.589C487.11 129.751 487.479 129.791 487.823 129.7C488.001 129.653 488.167 129.572 488.31 129.463C488.454 129.353 488.572 129.218 488.657 129.065C488.742 128.911 488.793 128.743 488.807 128.571C488.82 128.399 488.795 128.226 488.735 128.062Z" fill="#F28F8F"/>
<path d="M479.893 117.906L482.151 116.447C481.952 116.168 481.642 115.975 481.291 115.908C480.939 115.842 480.574 115.907 480.274 116.091C480.117 116.183 479.981 116.305 479.876 116.447C479.771 116.59 479.699 116.752 479.663 116.922C479.627 117.092 479.629 117.267 479.669 117.436C479.709 117.606 479.785 117.766 479.893 117.906Z" fill="#263238"/>
<path d="M480.411 120.319C480.409 120.523 480.471 120.724 480.589 120.895C480.708 121.067 480.878 121.202 481.079 121.284C481.279 121.366 481.501 121.391 481.716 121.356C481.932 121.321 482.132 121.228 482.291 121.088C482.45 120.948 482.562 120.768 482.612 120.569C482.662 120.37 482.649 120.162 482.573 119.97C482.497 119.779 482.363 119.612 482.186 119.491C482.01 119.37 481.799 119.301 481.581 119.291C481.432 119.286 481.283 119.308 481.143 119.357C481.003 119.406 480.875 119.481 480.766 119.577C480.657 119.672 480.57 119.787 480.509 119.915C480.448 120.042 480.415 120.18 480.411 120.319Z" fill="#263238"/>
<path d="M485.675 119.734L485.498 125.993L481.962 124.965L485.675 119.734Z" fill="#F28F8F"/>
<path d="M490.584 133.877C493.44 133.521 499.302 131.947 500.214 129.789C499.85 130.886 499.133 131.853 498.16 132.556C496.405 133.953 490.584 135.527 490.584 135.527V133.877Z" fill="#F28F8F"/>
<path d="M510.783 168.203L502.976 178.08L507.818 175.833L510.783 168.203Z" fill="#FFCA05"/>
<path opacity="0.3" d="M510.783 168.203L502.976 178.08L507.818 175.833L510.783 168.203Z" fill="white"/>
</svg>
