<svg width="434" height="388" viewBox="0 0 434 388" fill="none" xmlns="http://www.w3.org/2000/svg">
<path d="M373.706 43.7053C366.425 39.7263 363.122 43.0402 360.474 39.7263C357.825 36.4124 367.755 27.8124 347.86 19.2123C347.86 19.2123 346.541 0.681942 319.4 0.0168689C292.258 -0.648205 299.573 18.5472 292.292 23.1798C285.011 27.8124 283.027 20.5768 275.746 25.1635C268.464 29.7502 271.778 39.0613 265.827 40.38C259.875 41.6986 251.918 34.4287 244.636 39.0613C237.355 43.6939 237.355 47.6614 234.052 47.6614C230.75 47.6614 224.122 45.0125 220.155 47.6614C216.187 50.3102 211.543 53.6241 211.543 53.6241H378.958C378.958 53.6241 380.988 47.6728 373.706 43.7053Z" fill="#0C6F90"/>
<path opacity="0.5" d="M373.706 43.7053C366.425 39.7263 363.122 43.0402 360.474 39.7263C357.825 36.4124 367.755 27.8124 347.86 19.2123C347.86 19.2123 346.541 0.681942 319.4 0.0168689C292.258 -0.648205 299.573 18.5472 292.292 23.1798C285.011 27.8124 283.027 20.5768 275.746 25.1635C268.464 29.7502 271.778 39.0613 265.827 40.38C259.875 41.6986 251.918 34.4287 244.636 39.0613C237.355 43.6939 237.355 47.6614 234.052 47.6614C230.75 47.6614 224.122 45.0125 220.155 47.6614C216.187 50.3102 211.543 53.6241 211.543 53.6241H378.958C378.958 53.6241 380.988 47.6728 373.706 43.7053Z" fill="white"/>
<path d="M183.85 192.464C178.736 189.677 176.408 191.994 174.551 189.677C172.693 187.361 179.665 181.307 165.721 175.264C165.721 175.264 164.792 162.249 145.723 161.779C126.654 161.308 131.78 174.793 126.665 178.05C121.551 181.307 120.164 176.192 115.05 179.449C109.935 182.705 112.252 189.207 108.078 190.136C103.904 191.065 98.308 185.951 93.1709 189.207C88.0338 192.464 88.0567 195.25 85.7404 195.25C83.4241 195.25 78.7572 193.393 75.9707 195.25C73.1843 197.108 69.9277 199.436 69.9277 199.436H187.566C187.566 199.436 188.964 195.25 183.85 192.464Z" fill="white"/>
<path opacity="0.5" d="M183.85 192.464C178.736 189.677 176.408 191.994 174.551 189.677C172.693 187.361 179.665 181.307 165.721 175.264C165.721 175.264 164.792 162.249 145.723 161.779C126.654 161.308 131.78 174.793 126.665 178.05C121.551 181.307 120.164 176.192 115.05 179.449C109.935 182.705 112.252 189.207 108.078 190.136C103.904 191.065 98.308 185.951 93.1709 189.207C88.0338 192.464 88.0567 195.25 85.7404 195.25C83.4241 195.25 78.7572 193.393 75.9707 195.25C73.1843 197.108 69.9277 199.436 69.9277 199.436H187.566C187.566 199.436 188.964 195.25 183.85 192.464Z" fill="white"/>
<path d="M329.812 386.792H402.283C400.895 377.928 395.196 379.487 394.439 365.75C394.061 358.87 400.471 350.27 399.909 341.188C399.45 333.7 392.077 326.029 391.504 317.463C390.988 309.735 397.237 301.158 396.675 292.833C396.09 284.967 388.649 277.41 387.949 269.223C387.307 261.196 393.476 252.584 392.742 244.512C392.008 236.439 384.406 229.02 383.569 221.062C382.732 212.886 388.706 204.08 387.789 196.26C386.825 187.946 378.982 180.768 377.916 173.108C376.769 164.588 382.284 155.484 380.989 148.122C379.395 139.109 371.001 132.584 369.235 125.934C365.944 113.538 366.357 101.601 362.47 100.821C358.33 99.9959 357.379 111.703 354.237 124.787C352.654 131.358 344.456 138.02 343.102 147.044C342.013 154.348 347.815 163.235 346.864 171.721C346.015 179.323 338.367 186.627 337.621 194.895C336.922 202.669 343.125 211.235 342.518 219.365C341.921 227.266 334.491 234.799 333.998 242.826C333.505 250.853 339.88 259.247 339.445 267.17C338.997 275.289 331.716 282.96 331.338 290.769C330.948 299.036 337.472 307.373 337.151 315.033C336.796 323.529 329.618 331.304 329.354 338.734C329.033 347.747 335.649 356.061 335.443 362.929C335.007 377.836 328.184 374.729 327.943 386.723L329.812 386.792Z" fill="#0C6F90"/>
<path d="M360.922 124.638V383.443" stroke="black" stroke-miterlimit="10"/>
<path d="M372.24 151.768L360.44 161.962L350.785 149.085" stroke="black" stroke-miterlimit="10"/>
<path d="M372.24 196.821L360.44 207.003L350.785 194.138" stroke="black" stroke-miterlimit="10"/>
<path d="M372.24 239.179L360.44 249.373L350.785 236.496" stroke="black" stroke-miterlimit="10"/>
<path d="M372.24 289.599L360.44 299.782L350.785 286.916" stroke="black" stroke-miterlimit="10"/>
<path d="M372.24 340.547L360.44 350.729L350.785 337.863" stroke="black" stroke-miterlimit="10"/>
<path d="M280.448 386.791H336.394C335.316 379.911 330.924 381.15 330.34 370.554C330.041 365.211 334.984 358.606 334.559 351.588C334.204 345.855 328.516 339.881 328.069 333.241C327.668 327.279 332.53 320.628 332.06 314.23C331.612 308.152 325.845 302.327 325.329 296.009C324.813 289.691 329.594 283.155 329.032 276.928C328.47 270.702 322.588 264.968 321.969 258.833C321.327 252.515 325.936 245.727 325.225 239.672C324.48 233.263 318.426 227.724 317.611 221.819C316.694 215.237 320.983 208.208 319.974 202.532C318.747 195.571 312.268 190.526 310.915 185.4C308.369 175.837 308.69 166.606 305.686 166.01C302.487 165.368 301.753 174.404 299.333 184.517C298.118 189.586 291.777 194.734 290.733 201.717C289.896 207.359 294.368 214.216 293.634 220.764C292.981 226.635 287.087 232.23 286.502 238.652C285.963 244.649 290.756 251.265 290.286 257.538C289.827 263.638 284.105 269.452 283.704 275.644C283.303 281.836 288.291 288.326 287.912 294.438C287.534 300.55 281.95 306.627 281.663 312.659C281.353 319.034 286.387 325.467 286.147 331.384C285.871 337.943 280.333 343.997 280.126 349.731C279.874 356.68 284.988 363.112 284.828 368.399C284.484 379.865 279.221 377.515 279.037 386.745L280.448 386.791Z" fill="#0C6F90"/>
<path d="M304.471 184.438V384.212" stroke="black" stroke-miterlimit="10"/>
<path d="M313.195 205.375L304.09 213.241L296.637 203.3" stroke="black" stroke-miterlimit="10"/>
<path d="M313.195 240.143L304.09 248.009L296.637 238.079" stroke="black" stroke-miterlimit="10"/>
<path d="M313.195 272.846L304.09 280.712L296.637 270.782" stroke="black" stroke-miterlimit="10"/>
<path d="M313.195 311.765L304.09 319.631L296.637 309.689" stroke="black" stroke-miterlimit="10"/>
<path d="M313.195 351.096L304.09 358.951L296.637 349.021" stroke="black" stroke-miterlimit="10"/>
<path d="M230.006 385.679V153.844H242.241V385.679" fill="#2E353A"/>
<path d="M230.006 385.679V153.844H242.241V385.679" stroke="#2E353A" stroke-linecap="round" stroke-linejoin="round"/>
<path d="M223.893 385.679V153.844H236.128V385.679" fill="#0C6F90"/>
<path d="M223.893 385.679V153.844H236.128V385.679" stroke="#2E353A" stroke-linecap="round" stroke-linejoin="round"/>
<g style="mix-blend-mode:multiply" opacity="0.3">
<path d="M236.128 153.844H223.893V181.364H236.128V153.844Z" fill="#2E353A"/>
</g>
<path d="M276.102 63.3369H185.445L224.96 160.392H315.628V102.851C315.628 97.6614 314.605 92.5221 312.619 87.7273C310.632 82.9324 307.721 78.5758 304.05 74.9064C300.38 71.237 296.022 68.3266 291.227 66.3415C286.431 64.3564 281.292 63.3354 276.102 63.3369Z" fill="#0C6F90" stroke="#2E353A" stroke-linecap="round" stroke-linejoin="round"/>
<g style="mix-blend-mode:multiply" opacity="0.3">
<path d="M218.043 143.398L224.923 160.391H315.625V102.851C315.625 101.98 315.625 101.108 315.534 100.248H218.066L218.043 143.398Z" fill="black"/>
</g>
<path d="M275.437 100.248H265.896" stroke="#2E353A" stroke-linecap="round" stroke-linejoin="round"/>
<path d="M315.537 100.248H286.664" stroke="#2E353A" stroke-linecap="round" stroke-linejoin="round"/>
<path d="M185.446 63.3369C195.929 63.3369 205.982 67.5013 213.395 74.9138C220.808 82.3264 224.972 92.38 224.972 102.863V160.403H145.92V102.851C145.923 92.3705 150.089 82.3199 157.501 74.9098C164.913 67.4997 174.965 63.3369 185.446 63.3369Z" fill="#2E353A" stroke="#2E353A" stroke-linecap="round" stroke-linejoin="round"/>
<path d="M224.958 153.844H156.846V160.391H224.958V153.844Z" fill="#0C6F90" stroke="#2E353A" stroke-linecap="round" stroke-linejoin="round"/>
<path d="M224.959 153.844H83.998V160.391H224.959V153.844Z" fill="#0C6F90" stroke="#2E353A" stroke-linecap="round" stroke-linejoin="round"/>
<path opacity="0.3" d="M224.958 153.844H156.846V160.391H224.958V153.844Z" fill="black"/>
<path d="M281.996 39.9443H253.707V59.8163H281.996V39.9443Z" fill="#2E353A" stroke="#2E353A" stroke-linecap="round" stroke-linejoin="round"/>
<path d="M256 39.9443H249.889V101.865H256V39.9443Z" fill="white" stroke="#2E353A" stroke-linecap="round" stroke-linejoin="round"/>
<path d="M252.939 110.27C256.738 110.27 259.819 107.19 259.819 103.39C259.819 99.5901 256.738 96.5098 252.939 96.5098C249.139 96.5098 246.059 99.5901 246.059 103.39C246.059 107.19 249.139 110.27 252.939 110.27Z" fill="#2E353A" stroke="#2E353A" stroke-linecap="round" stroke-linejoin="round"/>
<path d="M152.043 79.2295C168.005 87.3365 195.754 100.328 221.348 106.864" stroke="white" stroke-linecap="round" stroke-linejoin="round" stroke-dasharray="2 4"/>
<path d="M138.648 72.1777C138.648 72.1777 143.763 75.0674 152.042 79.2757" stroke="#2E353A" stroke-linecap="round" stroke-linejoin="round" stroke-dasharray="2 4"/>
<path d="M132.904 71.7534L144.382 44.4854L61.1445 24.1777L132.904 71.7534Z" fill="white" stroke="#2E353A" stroke-width="1.2629" stroke-linecap="round" stroke-linejoin="round"/>
<path d="M138.499 47.7879L132.904 71.7534L61.1445 24.1777L138.499 47.7879Z" fill="#0C6F90" stroke="#2E353A" stroke-width="1.2629" stroke-linecap="round" stroke-linejoin="round"/>
<path d="M138.499 47.7879L125.439 58.9794L61.1445 24.1777L138.499 47.7879Z" fill="white" stroke="#2E353A" stroke-width="1.2629" stroke-linecap="round" stroke-linejoin="round"/>
<path d="M144.382 44.4854L156.009 39.7611L61.1445 24.1777L144.382 44.4854Z" fill="white" stroke="#2E353A" stroke-width="1.2629" stroke-linecap="round" stroke-linejoin="round"/>
<path d="M116.734 67.5107L119.429 69.162" stroke="#2E353A" stroke-linecap="round" stroke-linejoin="round"/>
<path d="M102.035 58.498L111.06 64.025" stroke="#2E353A" stroke-linecap="round" stroke-linejoin="round"/>
<path d="M91.8965 123.95V94.377L176.498 107.977L91.8965 123.95Z" fill="white" stroke="#2E353A" stroke-width="1.2629" stroke-linecap="round" stroke-linejoin="round"/>
<path d="M96.036 99.6982L91.8965 123.95L176.498 107.977L96.036 99.6982Z" fill="#0C6F90" stroke="#2E353A" stroke-width="1.2629" stroke-linecap="round" stroke-linejoin="round"/>
<path d="M96.0371 99.6982L103.731 115.075L176.5 107.977L96.0371 99.6982Z" fill="white" stroke="#2E353A" stroke-width="1.2629" stroke-linecap="round" stroke-linejoin="round"/>
<path d="M91.8987 94.3773L83.0234 85.502L176.501 107.977L91.8987 94.3773Z" fill="white" stroke="#2E353A" stroke-width="1.2629" stroke-linecap="round" stroke-linejoin="round"/>
<path d="M122.195 123.4L129.534 121.909" stroke="#2E353A" stroke-linecap="round" stroke-linejoin="round"/>
<path d="M96.416 128.64L114.866 124.891" stroke="#2E353A" stroke-linecap="round" stroke-linejoin="round"/>
<path d="M81.7049 122.127C81.7049 122.127 15.1975 133.594 2.58408 193.221C-10.0294 252.848 56.478 256.288 67.9448 227.621C79.4115 198.954 28.9577 187.488 17.4909 215.008C6.02411 242.528 40.4245 289.542 87.4383 291.835C126.506 293.739 236.036 248.135 304.161 236.611C304.161 236.611 354.614 222.645 432.589 225.706" stroke="#2E353A" stroke-linecap="round" stroke-linejoin="round" stroke-dasharray="2 4"/>
<path d="M410.033 309.035H429.148" stroke="#2E353A" stroke-linecap="round" stroke-linejoin="round"/>
<path d="M410.033 337.312H429.148" stroke="#2E353A" stroke-linecap="round" stroke-linejoin="round"/>
<path d="M7.55078 336.556H407.742V309.793H7.55078" fill="white"/>
<path d="M7.55078 336.556H407.742V309.793H7.55078" stroke="#2E353A" stroke-linecap="round" stroke-linejoin="round"/>
<path d="M35.3672 385.863V251.22C35.3674 250.89 35.4346 250.563 35.5647 250.26C35.6948 249.956 35.885 249.682 36.124 249.455L46.5817 239.605C47.0527 239.164 47.6786 238.928 48.323 238.947C48.9674 238.967 49.578 239.24 50.0217 239.708L59.1952 249.466C59.6114 249.92 59.8442 250.513 59.8488 251.129V385.863" fill="#2E353A"/>
<path d="M35.3672 385.863V251.22C35.3674 250.89 35.4346 250.563 35.5647 250.26C35.6948 249.956 35.885 249.682 36.124 249.455L46.5817 239.605C47.0527 239.164 47.6786 238.928 48.323 238.947C48.9674 238.967 49.578 239.24 50.0217 239.708L59.1952 249.466C59.6114 249.92 59.8442 250.513 59.8488 251.129V385.863" stroke="#2E353A" stroke-linecap="round" stroke-linejoin="round"/>
<path d="M32.3984 387.01V251.22C32.3981 250.889 32.4662 250.561 32.5984 250.257C32.7306 249.953 32.924 249.68 33.1667 249.454L43.6244 239.604C43.8569 239.385 44.1304 239.214 44.4292 239.1C44.728 238.986 45.0463 238.933 45.3658 238.942C45.6854 238.952 45.9999 239.025 46.2914 239.156C46.5828 239.287 46.8455 239.475 47.0645 239.708L56.2379 249.466C56.6589 249.917 56.8926 250.511 56.8915 251.129V387.01" fill="white"/>
<path d="M32.3984 387.01V251.22C32.3981 250.889 32.4662 250.561 32.5984 250.257C32.7306 249.953 32.924 249.68 33.1667 249.454L43.6244 239.604C43.8569 239.385 44.1304 239.214 44.4292 239.1C44.728 238.986 45.0463 238.933 45.3658 238.942C45.6854 238.952 45.9999 239.025 46.2914 239.156C46.5828 239.287 46.8455 239.475 47.0645 239.708L56.2379 249.466C56.6589 249.917 56.8926 250.511 56.8915 251.129V387.01" stroke="#2E353A" stroke-linecap="round" stroke-linejoin="round"/>
<path d="M123.549 385.863V251.22C123.549 250.89 123.616 250.563 123.746 250.26C123.876 249.956 124.067 249.682 124.306 249.454L134.775 239.604C135.007 239.385 135.281 239.214 135.58 239.1C135.878 238.986 136.197 238.933 136.516 238.942C136.836 238.952 137.15 239.025 137.442 239.156C137.733 239.287 137.996 239.475 138.215 239.708L147.388 249.466C147.809 249.917 148.043 250.511 148.042 251.129V385.863" fill="#2E353A"/>
<path d="M123.549 385.863V251.22C123.549 250.89 123.616 250.563 123.746 250.26C123.876 249.956 124.067 249.682 124.306 249.454L134.775 239.604C135.007 239.385 135.281 239.214 135.58 239.1C135.878 238.986 136.197 238.933 136.516 238.942C136.836 238.952 137.15 239.025 137.442 239.156C137.733 239.287 137.996 239.475 138.215 239.708L147.388 249.466C147.809 249.917 148.043 250.511 148.042 251.129V385.863" stroke="#2E353A" stroke-linecap="round" stroke-linejoin="round"/>
<path d="M121.074 387.01V251.22C121.074 250.889 121.142 250.561 121.274 250.257C121.406 249.954 121.6 249.68 121.842 249.455L132.3 239.605C132.771 239.164 133.397 238.928 134.041 238.947C134.686 238.967 135.297 239.24 135.74 239.708L144.914 249.466C145.338 249.916 145.576 250.51 145.579 251.129V387.01" fill="white"/>
<path d="M121.074 387.01V251.22C121.074 250.889 121.142 250.561 121.274 250.257C121.406 249.954 121.6 249.68 121.842 249.455L132.3 239.605C132.771 239.164 133.397 238.928 134.041 238.947C134.686 238.967 135.297 239.24 135.74 239.708L144.914 249.466C145.338 249.916 145.576 250.51 145.579 251.129V387.01" stroke="#2E353A" stroke-linecap="round" stroke-linejoin="round"/>
<path d="M212.223 385.863V251.22C212.222 250.889 212.29 250.561 212.423 250.257C212.555 249.954 212.748 249.68 212.991 249.455L223.449 239.605C223.92 239.164 224.545 238.928 225.19 238.947C225.834 238.967 226.445 239.24 226.889 239.708L236.062 249.466C236.486 249.916 236.724 250.51 236.727 251.129V387.01" fill="#2E353A"/>
<path d="M212.223 385.863V251.22C212.222 250.889 212.29 250.561 212.423 250.257C212.555 249.954 212.748 249.68 212.991 249.455L223.449 239.605C223.92 239.164 224.545 238.928 225.19 238.947C225.834 238.967 226.445 239.24 226.889 239.708L236.062 249.466C236.486 249.916 236.724 250.51 236.727 251.129V387.01" stroke="#2E353A" stroke-linecap="round" stroke-linejoin="round"/>
<path d="M209.754 387.01V251.22C209.754 250.89 209.821 250.563 209.951 250.26C210.081 249.956 210.272 249.682 210.511 249.454L220.98 239.604C221.212 239.385 221.486 239.214 221.785 239.1C222.083 238.986 222.402 238.933 222.721 238.942C223.041 238.952 223.355 239.025 223.647 239.156C223.938 239.287 224.201 239.475 224.42 239.708L233.593 249.466C234.014 249.917 234.248 250.511 234.247 251.129V387.01" fill="white"/>
<path d="M209.754 387.01V251.22C209.754 250.89 209.821 250.563 209.951 250.26C210.081 249.956 210.272 249.682 210.511 249.454L220.98 239.604C221.212 239.385 221.486 239.214 221.785 239.1C222.083 238.986 222.402 238.933 222.721 238.942C223.041 238.952 223.355 239.025 223.647 239.156C223.938 239.287 224.201 239.475 224.42 239.708L233.593 249.466C234.014 249.917 234.248 250.511 234.247 251.129V387.01" stroke="#2E353A" stroke-linecap="round" stroke-linejoin="round"/>
<path d="M300.904 385.863V251.22C300.905 250.89 300.972 250.563 301.102 250.26C301.232 249.956 301.422 249.682 301.661 249.455L312.119 239.605C312.59 239.164 313.216 238.928 313.86 238.947C314.505 238.967 315.115 239.24 315.559 239.708L324.732 249.466C325.148 249.92 325.381 250.513 325.386 251.129V385.863" fill="#2E353A"/>
<path d="M300.904 385.863V251.22C300.905 250.89 300.972 250.563 301.102 250.26C301.232 249.956 301.422 249.682 301.661 249.455L312.119 239.605C312.59 239.164 313.216 238.928 313.86 238.947C314.505 238.967 315.115 239.24 315.559 239.708L324.732 249.466C325.148 249.92 325.381 250.513 325.386 251.129V385.863" stroke="#2E353A" stroke-linecap="round" stroke-linejoin="round"/>
<path d="M298.43 387.01V251.22C298.429 250.889 298.497 250.561 298.63 250.257C298.762 249.953 298.955 249.68 299.198 249.454L309.656 239.604C309.888 239.385 310.162 239.214 310.46 239.1C310.759 238.986 311.078 238.933 311.397 238.942C311.717 238.952 312.031 239.025 312.323 239.156C312.614 239.287 312.877 239.475 313.096 239.708L322.269 249.466C322.69 249.917 322.924 250.511 322.923 251.129V387.01" fill="white"/>
<path d="M298.43 387.01V251.22C298.429 250.889 298.497 250.561 298.63 250.257C298.762 249.953 298.955 249.68 299.198 249.454L309.656 239.604C309.888 239.385 310.162 239.214 310.46 239.1C310.759 238.986 311.078 238.933 311.397 238.942C311.717 238.952 312.031 239.025 312.323 239.156C312.614 239.287 312.877 239.475 313.096 239.708L322.269 249.466C322.69 249.917 322.924 250.511 322.923 251.129V387.01" stroke="#2E353A" stroke-linecap="round" stroke-linejoin="round"/>
<path d="M389.578 385.863V251.22C389.578 250.89 389.646 250.563 389.776 250.26C389.906 249.956 390.096 249.682 390.335 249.454L400.804 239.604C401.037 239.385 401.31 239.214 401.609 239.1C401.908 238.986 402.226 238.933 402.546 238.942C402.865 238.952 403.18 239.025 403.471 239.156C403.763 239.287 404.025 239.475 404.244 239.708L413.418 249.466C413.839 249.917 414.072 250.511 414.071 251.129V385.863" fill="#2E353A"/>
<path d="M389.578 385.863V251.22C389.578 250.89 389.646 250.563 389.776 250.26C389.906 249.956 390.096 249.682 390.335 249.454L400.804 239.604C401.037 239.385 401.31 239.214 401.609 239.1C401.908 238.986 402.226 238.933 402.546 238.942C402.865 238.952 403.18 239.025 403.471 239.156C403.763 239.287 404.025 239.475 404.244 239.708L413.418 249.466C413.839 249.917 414.072 250.511 414.071 251.129V385.863" stroke="#2E353A" stroke-linecap="round" stroke-linejoin="round"/>
<path d="M387.102 387.01V251.22C387.101 250.889 387.169 250.561 387.302 250.257C387.434 249.954 387.627 249.68 387.87 249.455L398.328 239.605C398.798 239.164 399.424 238.928 400.069 238.947C400.713 238.967 401.324 239.24 401.768 239.708L410.941 249.466C411.365 249.916 411.603 250.51 411.606 251.129V387.01" fill="white"/>
<path d="M387.102 387.01V251.22C387.101 250.889 387.169 250.561 387.302 250.257C387.434 249.954 387.627 249.68 387.87 249.455L398.328 239.605C398.798 239.164 399.424 238.928 400.069 238.947C400.713 238.967 401.324 239.24 401.768 239.708L410.941 249.466C411.365 249.916 411.603 250.51 411.606 251.129V387.01" stroke="#2E353A" stroke-linecap="round" stroke-linejoin="round"/>
<path d="M47.0547 239.707V249.523" stroke="#2E353A" stroke-linecap="round" stroke-linejoin="round"/>
<path d="M50.9863 244.775V268.007" stroke="#2E353A" stroke-linecap="round" stroke-linejoin="round"/>
<path d="M125.898 246.68V276.069" stroke="#2E353A" stroke-linecap="round" stroke-linejoin="round"/>
<path d="M129.695 242.884V255.681" stroke="#2E353A" stroke-linecap="round" stroke-linejoin="round"/>
<path d="M220.982 239.604V268.489" stroke="#2E353A" stroke-linecap="round" stroke-linejoin="round"/>
<path d="M226.43 241.933V284.612" stroke="#2E353A" stroke-linecap="round" stroke-linejoin="round"/>
<path d="M302.764 246.68V278.913" stroke="#2E353A" stroke-linecap="round" stroke-linejoin="round"/>
<path d="M315.09 242.884V250.945" stroke="#2E353A" stroke-linecap="round" stroke-linejoin="round"/>
<path d="M395.219 242.402V259.476" stroke="#2E353A" stroke-linecap="round" stroke-linejoin="round"/>
<path d="M405.656 244.306V293.613" stroke="#2E353A" stroke-linecap="round" stroke-linejoin="round"/>
<path d="M386.689 316.375H376.254" stroke="#2E353A" stroke-linecap="round" stroke-linejoin="round"/>
<path d="M386.688 324.436H350.178" stroke="#2E353A" stroke-linecap="round" stroke-linejoin="round"/>
<path d="M250.6 324.436H234.008" stroke="#2E353A" stroke-linecap="round" stroke-linejoin="round"/>
<path d="M163.364 324.436H146.771" stroke="#2E353A" stroke-linecap="round" stroke-linejoin="round"/>
<path d="M32.0221 320.17H15.4297" stroke="#2E353A" stroke-linecap="round" stroke-linejoin="round"/>
<path d="M32.0201 327.75H25.3809" stroke="#2E353A" stroke-linecap="round" stroke-linejoin="round"/>
<path d="M242.069 320.17H234.008" stroke="#2E353A" stroke-linecap="round" stroke-linejoin="round"/>
<path d="M153.88 329.172H145.818" stroke="#2E353A" stroke-linecap="round" stroke-linejoin="round"/>
<path d="M120.213 329.172H112.152" stroke="#2E353A" stroke-linecap="round" stroke-linejoin="round"/>
<path d="M418.922 324.436H411.812" stroke="#2E353A" stroke-linecap="round" stroke-linejoin="round"/>
<path d="M428.406 324.436H424.141" stroke="#2E353A" stroke-linecap="round" stroke-linejoin="round"/>
<path d="M56.4794 275.14C56.4794 275.14 53.6127 299.782 50.1726 324.997C46.7326 350.213 53.0393 376.013 54.7593 378.306" stroke="#2E353A" stroke-linecap="round" stroke-linejoin="round"/>
<path d="M45.1387 325.021C45.6891 320.102 46.1477 316.994 46.1477 316.994" stroke="#2E353A" stroke-linecap="round" stroke-linejoin="round"/>
<path d="M53.6014 375.44C53.6014 375.44 43.2812 373.146 43.2812 354.8C43.2812 347.266 43.7629 339.549 44.3362 333.013" stroke="#2E353A" stroke-linecap="round" stroke-linejoin="round"/>
<path d="M140.186 245.899C140.186 245.899 142.479 247.619 138.466 267.113C134.452 286.607 135.026 315.273 140.186 331.327" stroke="#2E353A" stroke-linecap="round" stroke-linejoin="round"/>
<path d="M145.921 282.02C145.921 282.02 140.188 299.22 144.201 323.3" stroke="#2E353A" stroke-linecap="round" stroke-linejoin="round"/>
<path d="M211.28 292.902C211.28 292.902 214.147 309.529 217.014 326.718C219.88 343.907 217.587 367.998 215.294 374.294C213 380.589 210.707 385.76 210.707 385.76" stroke="#2E353A" stroke-linecap="round" stroke-linejoin="round"/>
<path d="M222.083 377.332C219.526 385.176 216.35 376.014 216.35 376.014" stroke="#2E353A" stroke-linecap="round" stroke-linejoin="round"/>
<path d="M221.979 318.714C221.979 318.714 227.379 346.59 224.329 367.574" stroke="#2E353A" stroke-linecap="round" stroke-linejoin="round"/>
<path d="M210.137 327.887C210.137 327.887 215.87 339.927 210.71 351.394" stroke="#2E353A" stroke-linecap="round" stroke-linejoin="round"/>
<path d="M317.119 329.584C317.887 333.089 318.894 336.537 320.135 339.904" stroke="#2E353A" stroke-linecap="round" stroke-linejoin="round"/>
<path d="M321.856 269.979C318.218 281.528 315.91 293.454 314.976 305.527C314.634 311.634 314.976 317.761 315.997 323.793" stroke="#2E353A" stroke-linecap="round" stroke-linejoin="round"/>
<path d="M310.963 322.704C310.963 322.704 316.123 342.198 318.99 349.078C321.856 355.958 320.71 372.573 317.27 380.6" stroke="#2E353A" stroke-linecap="round" stroke-linejoin="round"/>
<path d="M388.34 278.58C388.34 278.58 399.807 299.22 388.913 333.036" stroke="#2E353A" stroke-linecap="round" stroke-linejoin="round"/>
<path d="M398.878 313.829C398.947 320.273 398.373 328.438 395.793 335.318C390.633 349.078 388.34 353.665 388.34 353.665" stroke="#2E353A" stroke-linecap="round" stroke-linejoin="round"/>
<path d="M398.086 302.66C398.086 302.66 398.464 305.126 398.694 308.921" stroke="#2E353A" stroke-linecap="round" stroke-linejoin="round"/>
</svg>
