<?xml version="1.0" encoding="UTF-8"?>
<!DOCTYPE svg PUBLIC "-//W3C//DTD SVG 1.1//EN" "http://www.w3.org/Graphics/SVG/1.1/DTD/svg11.dtd">
<!-- Creator: CorelDRAW 2020 (64-Bit) -->
<svg xmlns="http://www.w3.org/2000/svg" xml:space="preserve" width="12.1516mm" height="3.7288mm" version="1.1" style="shape-rendering:geometricPrecision; text-rendering:geometricPrecision; image-rendering:optimizeQuality; fill-rule:evenodd; clip-rule:evenodd"
viewBox="0 0 152.64 46.84"
 xmlns:xlink="http://www.w3.org/1999/xlink"
 xmlns:xodm="http://www.corel.com/coreldraw/odm/2003">
 <defs>
  <style type="text/css">
   <![CDATA[
    .fil0 {fill:#5690FF;fill-rule:nonzero}
   ]]>
  </style>
 </defs>
 <g id="Layer_x0020_1">
  <metadata id="CorelCorpID_0Corel-Layer"/>
  <path class="fil0" d="M25.33 28.12l93.07 16.21c3.17,1.61 6.77,2.51 10.59,2.5 0.95,0 1.88,-0.06 2.8,-0.17l0.95 -0.13c11.18,-1.82 19.8,-11.51 19.9,-23.17 0.11,-11.66 -8.34,-21.31 -19.48,-23.08l-0.95 -0.13c-0.92,-0.11 -1.85,-0.16 -2.8,-0.16 -3.82,0.01 -7.43,0.93 -10.63,2.55l-118.77 21.16 25.33 4.41zm104.75 -14.75c5.58,1.19 9.14,6.74 7.93,12.38 -1.2,5.65 -6.71,9.26 -12.29,8.07 -5.58,-1.19 -9.13,-6.74 -7.93,-12.38 1.2,-5.65 6.71,-9.26 12.29,-8.07z"/>
 </g>
</svg>
