<?xml version="1.0" encoding="UTF-8"?>
<!DOCTYPE svg PUBLIC "-//W3C//DTD SVG 1.1//EN" "http://www.w3.org/Graphics/SVG/1.1/DTD/svg11.dtd">
<!-- Creator: CorelDRAW 2020 (64-Bit) -->
<svg xmlns="http://www.w3.org/2000/svg" xml:space="preserve" width="56.0784mm" height="28.0917mm" version="1.1" style="shape-rendering:geometricPrecision; text-rendering:geometricPrecision; image-rendering:optimizeQuality; fill-rule:evenodd; clip-rule:evenodd"
viewBox="0 0 2312.31 1158.32"
 xmlns:xlink="http://www.w3.org/1999/xlink"
 xmlns:xodm="http://www.corel.com/coreldraw/odm/2003">
 <defs>
  <style type="text/css">
   <![CDATA[
    .fil0 {fill:#5690FF;fill-rule:nonzero}
    .fil6 {fill:#BBD3FF;fill-rule:nonzero}
    .fil5 {fill:#DDE9FF;fill-rule:nonzero}
    .fil4 {fill:#5690FF;fill-rule:nonzero;fill-opacity:0.200000}
    .fil3 {fill:#5690FF;fill-rule:nonzero;fill-opacity:0.400000}
    .fil2 {fill:#5690FF;fill-rule:nonzero;fill-opacity:0.600000}
    .fil1 {fill:#5690FF;fill-rule:nonzero;fill-opacity:0.800000}
   ]]>
  </style>
 </defs>
 <g id="Layer_x0020_1">
  <metadata id="CorelCorpID_0Corel-Layer"/>
  <g id="_2036436617200">
   <path class="fil0" d="M2312.31 1155.88c0,-244.21 -77.32,-482.16 -220.86,-679.73l-421 305.87c78.95,108.67 121.47,239.53 121.47,373.85l520.39 0z"/>
   <path class="fil1" d="M2090.71 476.06c-143.57,-197.41 -345.95,-344.31 -578.12,-419.64l-160.52 494.76c127.71,41.43 239.01,122.22 317.98,230.8l420.66 -305.92z"/>
   <path class="fil2" d="M1511.54 56.08c-232.26,-75.11 -482.32,-74.76 -714.37,0.99l161.42 494.46c127.62,-41.66 265.16,-41.85 392.9,-0.54l160.05 -494.91z"/>
   <path class="fil3" d="M795.84 57.5c-231.95,76.03 -433.88,223.54 -576.85,421.38l421.59 304.65c78.63,-108.82 189.69,-189.94 317.27,-231.76l-162.01 -494.27z"/>
   <path class="fil4" d="M219.32 478.45c-143.06,197.78 -219.83,435.76 -219.31,679.87l520.14 -1.11c-0.28,-134.25 41.94,-265.15 120.62,-373.93l-421.45 -304.84z"/>
   <polygon class="fil0" points="227.74,859.83 227.74,832.08 276.09,832.08 276.09,959.5 245.02,959.5 245.02,859.83 "/>
   <path class="fil0" d="M600.08 455.56c3.95,-3.14 5.76,-4.6 5.41,-4.37 11.41,-9.43 20.37,-17.16 26.88,-23.21 6.63,-6.05 12.22,-12.39 16.76,-19.03 4.54,-6.63 6.8,-13.09 6.8,-19.38 0,-4.77 -1.11,-8.5 -3.31,-11.17 -2.21,-2.68 -5.53,-4.01 -9.95,-4.01 -4.42,0 -7.91,1.69 -10.47,5.06 -2.45,3.26 -3.67,7.91 -3.67,13.97l-28.8 0c0.23,-9.89 2.33,-18.16 6.28,-24.79 4.07,-6.63 9.37,-11.52 15.88,-14.66 6.63,-3.14 13.97,-4.71 21.99,-4.71 13.85,0 24.26,3.55 31.24,10.65 7.1,7.1 10.65,16.35 10.65,27.75 0,12.45 -4.25,24.03 -12.74,34.74 -8.49,10.59 -19.32,20.95 -32.46,31.07l47.13 0 0 24.26 -87.62 0 0 -22.17z"/>
   <path class="fil5" d="M1133.76 191.64c0.47,-12.45 4.54,-22.05 12.22,-28.8 7.68,-6.75 18.1,-10.13 31.24,-10.13 8.73,0 16.18,1.51 22.34,4.54 6.28,3.03 11,7.16 14.14,12.39 3.26,5.24 4.89,11.11 4.89,17.63 0,7.68 -1.92,13.97 -5.76,18.85 -3.84,4.77 -8.31,8.03 -13.44,9.78l0 0.7c6.63,2.21 11.87,5.88 15.71,11 3.84,5.12 5.76,11.7 5.76,19.73 0,7.22 -1.68,13.62 -5.06,19.2 -3.25,5.47 -8.09,9.77 -14.49,12.91 -6.28,3.14 -13.79,4.71 -22.52,4.71 -13.96,0 -25.14,-3.43 -33.51,-10.3 -8.26,-6.87 -12.62,-17.22 -13.09,-31.07l28.98 0c0.12,5.12 1.57,9.2 4.36,12.22 2.79,2.91 6.87,4.36 12.22,4.36 4.54,0 8.03,-1.28 10.47,-3.84 2.56,-2.68 3.84,-6.17 3.84,-10.47 0,-5.59 -1.8,-9.6 -5.41,-12.04 -3.49,-2.56 -9.13,-3.84 -16.93,-3.84l-5.59 0 0 -24.26 5.59 0c5.93,0 10.71,-0.99 14.31,-2.97 3.73,-2.09 5.59,-5.76 5.59,-11 0,-4.19 -1.16,-7.45 -3.49,-9.77 -2.32,-2.33 -5.52,-3.49 -9.6,-3.49 -4.42,0 -7.74,1.34 -9.95,4.02 -2.09,2.68 -3.32,5.99 -3.67,9.95l-29.15 0z"/>
   <path class="fil5" d="M1667.23 478.61l0 -24.09 55.16 -78.9 33.34 0 0 77.15 14.32 0 0 25.84 -14.32 0 0 22.69 -29.85 0 0 -22.69 -58.65 0zm60.75 -70.17l-29.33 44.33 29.33 0 0 -44.33z"/>
   <path class="fil6" d="M2064.02 858.08l-54.46 0 0 24.09c2.32,-2.56 5.58,-4.66 9.77,-6.28 4.19,-1.62 8.73,-2.44 13.62,-2.44 8.73,0 15.94,1.97 21.65,5.93 5.81,3.96 10.07,9.08 12.74,15.36 2.67,6.28 4.02,13.09 4.02,20.42 0,13.62 -3.84,24.44 -11.52,32.47 -7.68,7.91 -18.51,11.87 -32.47,11.87 -9.31,0 -17.4,-1.57 -24.27,-4.71 -6.86,-3.26 -12.16,-7.74 -15.88,-13.44 -3.72,-5.71 -5.76,-12.27 -6.11,-19.72l29.15 0c0.7,3.61 2.39,6.63 5.06,9.08 2.67,2.32 6.34,3.49 11,3.49 5.46,0 9.55,-1.75 12.22,-5.24 2.67,-3.49 4.02,-8.15 4.02,-13.97 0,-5.71 -1.4,-10.07 -4.19,-13.09 -2.8,-3.02 -6.86,-4.54 -12.22,-4.54 -3.96,0 -7.21,0.99 -9.77,2.97 -2.56,1.86 -4.24,4.36 -5.06,7.5l-28.8 0 0 -75.93 81.52 0 0 26.18z"/>
  </g>
 </g>
</svg>
