<svg width="100" height="64" viewBox="0 0 100 64" fill="none" xmlns="http://www.w3.org/2000/svg">
<g id="Group">
<g id="Group_2">
<path id="Vector" d="M0.0483398 45.0254H3.34994C6.20571 45.0254 9.43501 46.5075 9.43501 50.4839C9.43501 54.5567 6.25391 56.0388 3.20535 56.0388H0.0483398V45.0254ZM2.59082 53.918H2.73541C5.09714 53.918 6.72384 53.0264 6.72384 50.6164C6.72384 48.339 5.38633 47.122 3.0969 47.122H2.59082V53.918Z" fill="white"/>
<path id="Vector_2" d="M14.9053 56.2194C12.4111 56.2194 10.6157 54.5084 10.6157 51.9418C10.6157 49.3752 12.4713 47.4111 14.9174 47.4111C17.2912 47.4111 19.0504 49.0499 19.0504 51.2911C19.0504 51.6406 19.0022 52.0502 18.942 52.4358H13.1943C13.363 53.4842 14.0378 54.1951 15.0861 54.1951C16.1705 54.1951 16.6284 53.7372 17.1827 52.9901L18.8215 54.1107C17.7852 55.5205 16.7489 56.2194 14.9053 56.2194ZM16.4838 50.773C16.4356 49.8331 15.8091 49.3632 15.0017 49.3632C14.0137 49.3632 13.5076 49.9416 13.2907 50.773H16.4838Z" fill="white"/>
<path id="Vector_3" d="M25.6897 56.027L25.4487 55.3642C24.9427 56.0029 24.063 56.2077 23.2316 56.2077C21.6652 56.2077 20.183 55.2076 20.183 53.4845C20.183 51.436 22.111 50.7974 23.8341 50.7974C24.304 50.7974 24.8101 50.8577 25.28 50.9661V50.9059C25.28 49.9298 24.9065 49.3153 23.7377 49.3153C22.7978 49.3153 21.9905 49.6647 21.2434 50.0383L20.5807 48.2911C21.7254 47.7248 23.0147 47.3994 24.304 47.3994C26.6176 47.3994 27.8225 48.7731 27.8225 50.9661V56.0149H25.6897V56.027ZM25.28 52.4121C24.9186 52.3277 24.6053 52.2675 24.2799 52.2675C23.5087 52.2675 22.6773 52.5928 22.6773 53.4965C22.6773 54.1231 23.2316 54.5208 23.822 54.5208C24.4245 54.5208 24.8583 54.3039 25.28 53.9062V52.4121Z" fill="white"/>
<path id="Vector_4" d="M32.3052 56.0271H29.7628V44.2305H32.3052V56.0271Z" fill="white"/>
<path id="Vector_5" d="M34.4019 56.0267V45.0254H41.6316V47.1341H36.9443V49.3151H41.6316V51.4237H36.9443V53.918H41.6316V56.0267H34.4019Z" fill="white"/>
<path id="Vector_6" d="M48.1502 50.0982C47.7044 49.6885 47.1621 49.3752 46.4994 49.3752C46.1861 49.3752 45.8246 49.5319 45.8246 49.8331C45.8246 50.3151 46.391 50.5922 47.0657 50.8694C48.1382 51.3152 49.5239 51.8334 49.5239 53.4842C49.5239 55.3398 47.8851 56.2194 46.2223 56.2194C44.8607 56.2194 43.6798 55.6892 42.6556 54.7253L44.0413 53.2191C44.704 53.8456 45.2222 54.2553 46.0897 54.2553C46.4151 54.2553 47.0055 54.0987 47.0055 53.701C47.0055 53.1468 46.2464 52.8937 45.439 52.5202C44.463 52.0743 43.4147 51.4839 43.4147 50.0259C43.4147 48.2908 44.945 47.4111 46.5235 47.4111C47.6923 47.4111 48.7286 47.8088 49.5359 48.592L48.1502 50.0982Z" fill="white"/>
<path id="Vector_7" d="M53.8257 49.6765V52.7612C53.8257 53.0263 53.8257 53.2673 53.8739 53.5204C53.9342 53.8698 54.0908 54.0867 54.4523 54.0867C54.8138 54.0867 55.0668 54.0024 55.3681 53.8457L56.1754 55.7014C55.5729 56.0508 54.7174 56.2195 54.0065 56.2195C52.6449 56.2195 51.6809 55.4483 51.3917 54.2554C51.2953 53.8457 51.2832 53.3878 51.2832 52.954V49.6886H50.3193V47.616H51.2832L51.7532 45.8086H53.8257V47.616H55.8983V49.6886H53.8257V49.6765Z" fill="white"/>
<path id="Vector_8" d="M62.4532 56.027L62.2122 55.3642C61.7061 56.0029 60.8265 56.2077 59.995 56.2077C58.4286 56.2077 56.9465 55.2076 56.9465 53.4845C56.9465 51.436 58.8744 50.7974 60.5975 50.7974C61.0675 50.7974 61.5735 50.8577 62.0435 50.9661V50.9059C62.0435 49.9298 61.6699 49.3153 60.5011 49.3153C59.5612 49.3153 58.7539 49.6647 58.0068 50.0383L57.3441 48.2911C58.4888 47.7248 59.7781 47.3994 61.0674 47.3994C63.381 47.3994 64.5859 48.7731 64.5859 50.9661V56.0149H62.4532V56.027ZM62.0435 52.4121C61.682 52.3277 61.3687 52.2675 61.0433 52.2675C60.2722 52.2675 59.4407 52.5928 59.4407 53.4965C59.4407 54.1231 59.995 54.5208 60.5855 54.5208C61.1879 54.5208 61.6217 54.3039 62.0435 53.9062V52.4121Z" fill="white"/>
<path id="Vector_9" d="M69.2009 49.6765V52.7612C69.2009 53.0263 69.2009 53.2673 69.2491 53.5204C69.3094 53.8698 69.466 54.0867 69.8275 54.0867C70.189 54.0867 70.442 54.0024 70.7433 53.8457L71.5506 55.7014C70.9481 56.0508 70.0926 56.2195 69.3816 56.2195C68.02 56.2195 67.0561 55.4483 66.7669 54.2554C66.6705 53.8457 66.6584 53.3878 66.6584 52.954V49.6886H65.6945V47.616H66.6584L67.1284 45.8086H69.2009V47.616H71.2734V49.6886H69.2009V49.6765Z" fill="white"/>
<path id="Vector_10" d="M76.455 56.2194C73.9607 56.2194 72.1653 54.5084 72.1653 51.9418C72.1653 49.3752 74.0209 47.4111 76.467 47.4111C78.8408 47.4111 80.6 49.0499 80.6 51.2911C80.6 51.6406 80.5518 52.0502 80.4916 52.4358H74.7439C74.9126 53.4842 75.5874 54.1951 76.6357 54.1951C77.7202 54.1951 78.1781 53.7372 78.7323 52.9901L80.3711 54.1107C79.3348 55.5205 78.2986 56.2194 76.455 56.2194ZM78.0214 50.773C77.9732 49.8331 77.3466 49.3632 76.5393 49.3632C75.5512 49.3632 75.0451 49.9416 74.8283 50.773H78.0214Z" fill="white"/>
<path id="Vector_11" d="M81.7085 56.0269V53.4844H84.3956V56.0269H81.7085Z" fill="white"/>
<path id="Vector_12" d="M93.3727 56.0267L92.7341 54.0988H89.1072L88.4203 56.0267H85.6007L90.1796 45.0254H92.2039L96.3128 56.0267H93.3727ZM89.8301 52.0624H92.0352L90.9869 48.8813H90.9748L89.8301 52.0624Z" fill="white"/>
<path id="Vector_13" d="M100 44.5801H97.4576V46.5924H100V44.5801Z" fill="white"/>
<path id="Vector_14" d="M100 47.6045H97.4576V56.0272H100V47.6045Z" fill="white"/>
</g>
<g id="Group_3">
<path id="Vector_15" d="M1.28931 58.1478C1.96409 58.1478 2.79552 58.4972 2.79552 59.3889C2.79552 60.0757 2.32558 60.4372 1.83155 60.5698L3.14496 62.3652H2.21714L1.01217 60.6421H0.747078V62.3652H0V58.1357H1.28931V58.1478ZM1.15677 60.0034C1.6508 60.0034 2.01229 59.8227 2.01229 59.401C2.01229 59.0274 1.71105 58.7744 1.27726 58.7744H0.735028V59.9914H1.15677V60.0034Z" fill="white"/>
<path id="Vector_16" d="M4.0005 61.0037C4.04869 61.4737 4.36199 61.8472 4.86807 61.8472C5.27776 61.8472 5.5308 61.6906 5.7236 61.3652L6.21763 61.7026C5.86819 62.2087 5.47055 62.4497 4.81987 62.4497C3.8559 62.4497 3.25342 61.7629 3.25342 60.8471C3.25342 59.9072 3.94025 59.1963 4.81987 59.1963C5.66335 59.1963 6.28993 59.8108 6.28993 60.6422C6.28993 60.7627 6.27788 60.8953 6.25378 61.0158H4.0005V61.0037ZM4.84397 59.7747C4.39813 59.7747 4.13304 60.0759 4.03664 60.4736H5.54285C5.5308 60.0759 5.22956 59.7747 4.84397 59.7747Z" fill="white"/>
<path id="Vector_17" d="M9.59141 59.2689L8.33824 62.3777H7.72371L6.54285 59.2689H7.35017L8.07315 61.3896H8.0852L8.79613 59.2568H9.59141V59.2689Z" fill="white"/>
<path id="Vector_18" d="M13.0497 60.823C13.0497 61.7388 12.3629 62.4497 11.4351 62.4497C10.5073 62.4497 9.82043 61.7267 9.82043 60.823C9.82043 59.9193 10.5073 59.1963 11.4351 59.1963C12.3629 59.1963 13.0497 59.9072 13.0497 60.823ZM11.4351 59.8349C10.929 59.8349 10.5675 60.2808 10.5675 60.823C10.5675 61.3773 10.929 61.8111 11.4351 61.8111C11.9412 61.8111 12.3027 61.3652 12.3027 60.823C12.3027 60.2808 11.9412 59.8349 11.4351 59.8349Z" fill="white"/>
<path id="Vector_19" d="M14.4596 62.3773H13.7245V57.8467H14.4596V62.3773Z" fill="white"/>
<path id="Vector_20" d="M17.4961 62.3774L17.4599 61.9195C17.2069 62.281 16.8454 62.4497 16.4718 62.4497C16.0983 62.4497 15.8091 62.293 15.6163 62.052C15.3874 61.7508 15.3392 61.3411 15.3392 60.8832V59.2686H16.0742V60.835C16.0742 61.1001 16.0862 61.3893 16.1947 61.5821C16.2911 61.7387 16.4477 61.8231 16.6646 61.8231C16.9538 61.8231 17.2551 61.6303 17.4358 61.3411V59.2686H18.1708V62.3774H17.4961Z" fill="white"/>
<path id="Vector_21" d="M19.8214 59.8827V61.1721C19.8214 61.2685 19.8214 61.3408 19.8214 61.4372C19.8455 61.6781 19.9299 61.8227 20.1588 61.8227C20.2914 61.8227 20.3998 61.7866 20.5083 61.7384L20.7252 62.2927C20.5444 62.4011 20.2793 62.4614 20.0504 62.4614C19.5805 62.4614 19.2792 62.2204 19.1587 61.8709C19.0985 61.7022 19.0744 61.4974 19.0744 61.2926V59.8948H18.6888V59.2803H19.0744L19.1587 58.5693H19.8214V59.2803H20.6408V59.8948H19.8214V59.8827Z" fill="white"/>
<path id="Vector_22" d="M21.2555 58.762V58.0752H21.9905V58.762H21.2555ZM21.2555 62.3769V59.2681H21.9905V62.3769H21.2555Z" fill="white"/>
<path id="Vector_23" d="M25.8829 60.823C25.8829 61.7388 25.196 62.4497 24.2682 62.4497C23.3404 62.4497 22.6536 61.7267 22.6536 60.823C22.6536 59.9193 23.3404 59.1963 24.2682 59.1963C25.2081 59.1963 25.8829 59.9072 25.8829 60.823ZM24.2682 59.8349C23.7621 59.8349 23.4006 60.2808 23.4006 60.823C23.4006 61.3773 23.7621 61.8111 24.2682 61.8111C24.7743 61.8111 25.1358 61.3652 25.1358 60.823C25.1478 60.2808 24.7864 59.8349 24.2682 59.8349Z" fill="white"/>
<path id="Vector_24" d="M27.232 59.2686L27.2681 59.7265C27.5212 59.365 27.8827 59.1963 28.2562 59.1963C28.6297 59.1963 28.9189 59.3529 29.1117 59.5939C29.3407 59.8952 29.3889 60.3049 29.3889 60.7627V62.3774H28.6538V60.8109C28.6538 60.5459 28.6538 60.2567 28.5333 60.0639C28.4369 59.9072 28.2803 59.8229 28.0634 59.8229C27.7742 59.8229 27.473 60.0157 27.2922 60.3049V62.3774H26.5572V59.2686H27.232Z" fill="white"/>
<path id="Vector_25" d="M30.2689 58.762V58.0752H31.0039V58.762H30.2689ZM30.2689 62.3769V59.2681H31.0039V62.3769H30.2689Z" fill="white"/>
<path id="Vector_26" d="M33.0402 59.8831H31.7148V59.2686H34.0042V59.5939L32.739 61.7628H34.1006V62.3774H31.775V62.04L33.0402 59.8831Z" fill="white"/>
<path id="Vector_27" d="M34.7512 58.762V58.0752H35.4862V58.762H34.7512ZM34.7512 62.3769V59.2681H35.4862V62.3769H34.7512Z" fill="white"/>
<path id="Vector_28" d="M37.0527 59.2686L37.0888 59.7265C37.3419 59.365 37.7034 59.1963 38.0769 59.1963C38.4504 59.1963 38.7396 59.3529 38.9324 59.5939C39.1614 59.8952 39.2096 60.3049 39.2096 60.7627V62.3774H38.4745V60.8109C38.4745 60.5459 38.4745 60.2567 38.354 60.0639C38.2576 59.9072 38.101 59.8229 37.8841 59.8229C37.5949 59.8229 37.2937 60.0157 37.1129 60.3049V62.3774H36.39V59.2686H37.0527Z" fill="white"/>
<path id="Vector_29" d="M43.0414 62.2204C43.0414 62.5578 42.9691 62.8229 42.8486 63.0398C42.5714 63.5459 42.0413 63.7507 41.4629 63.7507C40.9809 63.7507 40.4627 63.6061 40.0531 63.329L40.3302 62.7265C40.6555 62.9795 41.1014 63.1121 41.4508 63.1121C41.9328 63.1121 42.3063 62.8711 42.3063 62.3048V61.9553C42.0774 62.2686 41.6918 62.3891 41.3544 62.3891C40.5109 62.3891 39.8723 61.6902 39.8723 60.7865C39.8723 59.943 40.4868 59.208 41.3785 59.208C41.7159 59.208 42.1015 59.3406 42.3425 59.6418L42.3786 59.2803H43.0534V62.2204H43.0414ZM42.2943 60.2322C42.0774 59.9551 41.7882 59.8346 41.499 59.8346C40.8845 59.8346 40.5953 60.3286 40.5953 60.7986C40.5953 61.3046 40.9447 61.7384 41.4749 61.7384C41.7762 61.7384 42.1135 61.5938 42.2822 61.2565V60.2322H42.2943Z" fill="white"/>
<path id="Vector_30" d="M46.7888 58.1478C47.4636 58.1478 48.295 58.4972 48.295 59.3889C48.295 60.0757 47.8251 60.4372 47.3311 60.5698L48.6445 62.3652H47.7166L46.5117 60.6421H46.2466V62.3652H45.4995V58.1357H46.7888V58.1478ZM46.6442 60.0034C47.1383 60.0034 47.4998 59.8227 47.4998 59.401C47.4998 59.0274 47.1985 58.7744 46.7647 58.7744H46.2225V59.9914H46.6442V60.0034Z" fill="white"/>
<path id="Vector_31" d="M49.4877 61.0037C49.5359 61.4737 49.8492 61.8472 50.3553 61.8472C50.765 61.8472 51.018 61.6906 51.2108 61.3652L51.7049 61.7026C51.3554 62.2087 50.9578 62.4497 50.3071 62.4497C49.3431 62.4497 48.7407 61.7629 48.7407 60.8471C48.7407 59.9072 49.4275 59.1963 50.3071 59.1963C51.1506 59.1963 51.7772 59.8108 51.7772 60.6422C51.7772 60.7627 51.7651 60.8953 51.741 61.0158H49.4877V61.0037ZM50.3312 59.7747C49.8854 59.7747 49.6203 60.0759 49.5239 60.4736H51.0301C51.018 60.0759 50.7168 59.7747 50.3312 59.7747Z" fill="white"/>
<path id="Vector_32" d="M54.3319 62.3774L54.2957 62.0882C54.0668 62.3533 53.7655 62.4497 53.4161 62.4497C52.8377 62.4497 52.2955 62.1244 52.2955 61.4737C52.2955 60.7025 53.0064 60.4615 53.6691 60.4615C53.8378 60.4615 54.0306 60.4856 54.2596 60.5338V60.4615C54.2596 60.0398 54.0668 59.7867 53.5968 59.7867C53.2474 59.7867 52.898 59.9193 52.6329 60.0639L52.428 59.5096C52.8016 59.3288 53.2715 59.1963 53.7173 59.1963C54.597 59.1963 54.9825 59.6903 54.9825 60.4976V62.3774H54.3319ZM54.2596 61.0037C54.0668 60.9555 53.9222 60.9435 53.7776 60.9435C53.4281 60.9435 53.0184 61.0519 53.0184 61.4616C53.0184 61.7749 53.2715 61.9195 53.5486 61.9195C53.8258 61.9195 54.0427 61.787 54.2596 61.6062V61.0037Z" fill="white"/>
<path id="Vector_33" d="M56.5972 62.3773H55.8621V57.8467H56.5972V62.3773Z" fill="white"/>
<path id="Vector_34" d="M59.0795 62.3769V58.1475H61.7184V58.7861H59.8266V59.8826H61.7184V60.5212H59.8266V61.7383H61.7184V62.3769H59.0795Z" fill="white"/>
<path id="Vector_35" d="M64.1404 60.0153C63.9837 59.8828 63.7548 59.7744 63.5259 59.7744C63.309 59.7744 63.1523 59.8949 63.1523 60.0756C63.1523 60.2925 63.4174 60.4009 63.6946 60.5094C64.0922 60.666 64.5983 60.8829 64.5983 61.4493C64.5983 62.1361 64.0319 62.4373 63.4295 62.4373C62.9716 62.4373 62.5498 62.2566 62.2486 61.9192L62.6944 61.4975C62.9234 61.7264 63.1282 61.8469 63.4054 61.8469C63.6343 61.8469 63.8753 61.7384 63.8753 61.4854C63.8753 61.2685 63.5741 61.148 63.2969 61.0275C62.9234 60.8709 62.4534 60.666 62.4534 60.1117C62.4534 59.4731 62.9716 59.1719 63.5259 59.1719C63.9115 59.1719 64.285 59.3044 64.5501 59.5575L64.1404 60.0153Z" fill="white"/>
<path id="Vector_36" d="M66.1044 59.8827V61.1721C66.1044 61.2685 66.1044 61.3408 66.1044 61.4372C66.1285 61.6781 66.2129 61.8227 66.4418 61.8227C66.5743 61.8227 66.6828 61.7866 66.7912 61.7384L67.0081 62.2927C66.8274 62.4011 66.5623 62.4614 66.3333 62.4614C65.8634 62.4614 65.5622 62.2204 65.4417 61.8709C65.3814 61.7022 65.3573 61.4974 65.3573 61.2926V59.8948H64.9717V59.2803H65.3573L65.4417 58.5693H66.1044V59.2803H66.9238V59.8948H66.1044V59.8827Z" fill="white"/>
<path id="Vector_37" d="M69.4061 62.3774L69.37 62.0882C69.1411 62.3533 68.8398 62.4497 68.4904 62.4497C67.912 62.4497 67.3698 62.1244 67.3698 61.4737C67.3698 60.7025 68.0807 60.4615 68.7434 60.4615C68.9121 60.4615 69.1049 60.4856 69.3338 60.5338V60.4615C69.3338 60.0398 69.1411 59.7867 68.6711 59.7867C68.3217 59.7867 67.9722 59.9193 67.7071 60.0639L67.5023 59.5096C67.8758 59.3288 68.3458 59.1963 68.7916 59.1963C69.6712 59.1963 70.0568 59.6903 70.0568 60.4976V62.3774H69.4061ZM69.3338 61.0037C69.1411 60.9555 68.9965 60.9435 68.8519 60.9435C68.5024 60.9435 68.0927 61.0519 68.0927 61.4616C68.0927 61.7749 68.3458 61.9195 68.6229 61.9195C68.9001 61.9195 69.117 61.787 69.3338 61.6062V61.0037Z" fill="white"/>
<path id="Vector_38" d="M71.6956 59.8827V61.1721C71.6956 61.2685 71.6956 61.3408 71.6956 61.4372C71.7197 61.6781 71.804 61.8227 72.033 61.8227C72.1655 61.8227 72.274 61.7866 72.3824 61.7384L72.5993 62.2927C72.4186 62.4011 72.1535 62.4614 71.9245 62.4614C71.4546 62.4614 71.1534 62.2204 71.0329 61.8709C70.9726 61.7022 70.9485 61.4974 70.9485 61.2926V59.8948H70.5629V59.2803H70.9485L71.0329 58.5693H71.6956V59.2803H72.515V59.8948H71.6956V59.8827Z" fill="white"/>
<path id="Vector_39" d="M73.6355 61.0037C73.6837 61.4737 73.997 61.8472 74.5031 61.8472C74.9128 61.8472 75.1658 61.6906 75.3586 61.3652L75.8526 61.7026C75.5032 62.2087 75.1056 62.4497 74.4549 62.4497C73.4909 62.4497 72.8884 61.7629 72.8884 60.8471C72.8884 59.9072 73.5753 59.1963 74.4549 59.1963C75.2984 59.1963 75.9249 59.8108 75.9249 60.6422C75.9249 60.7627 75.9129 60.8953 75.8888 61.0158H73.6355V61.0037ZM74.479 59.7747C74.0331 59.7747 73.7681 60.0759 73.6717 60.4736H75.1779C75.1658 60.0759 74.8646 59.7747 74.479 59.7747Z" fill="white"/>
<path id="Vector_40" d="M79.588 58.7262C79.2386 58.7262 78.9614 58.907 78.9614 59.2202C78.9614 59.5576 79.3832 59.6902 79.7206 59.7986C80.3471 60.0155 81.046 60.2927 81.046 61.1361C81.046 62.064 80.2026 62.4495 79.5037 62.4495C78.865 62.4495 78.3831 62.2206 77.9252 61.7748L78.4313 61.2807C78.8048 61.6422 79.0819 61.7989 79.5157 61.7989C79.8893 61.7989 80.2628 61.6181 80.2628 61.1723C80.2628 60.7626 79.829 60.618 79.3952 60.4614C78.8289 60.2565 78.2264 59.9794 78.2264 59.2443C78.2264 58.437 78.865 58.0635 79.5639 58.0635C80.0941 58.0635 80.5158 58.2322 80.9255 58.5334L80.4797 59.0756C80.2508 58.8949 79.9134 58.7262 79.588 58.7262Z" fill="white"/>
<path id="Vector_41" d="M83.926 62.3774L83.8898 61.9195C83.6368 62.281 83.2753 62.4497 82.9018 62.4497C82.5282 62.4497 82.239 62.293 82.0463 62.052C81.8173 61.7508 81.7691 61.3411 81.7691 60.8832V59.2686H82.5041V60.835C82.5041 61.1001 82.5041 61.3893 82.6246 61.5821C82.721 61.7387 82.8777 61.8231 83.0946 61.8231C83.3838 61.8231 83.685 61.6303 83.8657 61.3411V59.2686H84.6008V62.3774H83.926Z" fill="white"/>
<path id="Vector_42" d="M87.902 62.1003C87.6248 62.3413 87.2633 62.4497 86.8536 62.4497C85.9499 62.4497 85.2751 61.787 85.2751 60.823C85.2751 59.9193 85.9499 59.1963 86.8898 59.1963C87.2754 59.1963 87.6128 59.3168 87.8899 59.5337L87.5284 60.0759C87.3477 59.9193 87.1428 59.8349 86.9139 59.8349C86.4078 59.8349 86.0222 60.2808 86.0222 60.823C86.0222 61.4014 86.4319 61.8111 86.9139 61.8111C87.1428 61.8111 87.3597 61.7267 87.5405 61.5821L87.902 62.1003Z" fill="white"/>
<path id="Vector_43" d="M90.9023 62.1003C90.6252 62.3413 90.2637 62.4497 89.854 62.4497C88.9503 62.4497 88.2755 61.787 88.2755 60.823C88.2755 59.9193 88.9503 59.1963 89.8902 59.1963C90.2758 59.1963 90.6131 59.3168 90.8903 59.5337L90.5288 60.0759C90.3481 59.9193 90.1432 59.8349 89.9143 59.8349C89.4082 59.8349 89.0226 60.2808 89.0226 60.823C89.0226 61.4014 89.4323 61.8111 89.9143 61.8111C90.1432 61.8111 90.3601 61.7267 90.5409 61.5821L90.9023 62.1003Z" fill="white"/>
<path id="Vector_44" d="M91.9992 61.0037C92.0474 61.4737 92.3607 61.8472 92.8668 61.8472C93.2765 61.8472 93.5295 61.6906 93.7223 61.3652L94.2164 61.7026C93.8669 62.2087 93.4693 62.4497 92.8186 62.4497C91.8546 62.4497 91.2521 61.7629 91.2521 60.8471C91.2521 59.9072 91.939 59.1963 92.8186 59.1963C93.6621 59.1963 94.2886 59.8108 94.2886 60.6422C94.2886 60.7627 94.2766 60.8953 94.2525 61.0158H91.9992V61.0037ZM92.8427 59.7747C92.3969 59.7747 92.1318 60.0759 92.0354 60.4736H93.5416C93.5295 60.0759 93.2283 59.7747 92.8427 59.7747Z" fill="white"/>
<path id="Vector_45" d="M96.6021 60.0153C96.4455 59.8828 96.2165 59.7744 95.9876 59.7744C95.7707 59.7744 95.6141 59.8949 95.6141 60.0756C95.6141 60.2925 95.8791 60.4009 96.1563 60.5094C96.5539 60.666 97.06 60.8829 97.06 61.4493C97.06 62.1361 96.4937 62.4373 95.8912 62.4373C95.4333 62.4373 95.0116 62.2566 94.7103 61.9192L95.1562 61.4975C95.3851 61.7264 95.5899 61.8469 95.8671 61.8469C96.096 61.8469 96.337 61.7384 96.337 61.4854C96.337 61.2685 96.0358 61.148 95.7586 61.0275C95.3851 60.8709 94.9152 60.666 94.9152 60.1117C94.9152 59.4731 95.4333 59.1719 95.9876 59.1719C96.3732 59.1719 96.7467 59.3044 97.0118 59.5575L96.6021 60.0153Z" fill="white"/>
<path id="Vector_46" d="M99.4214 60.0153C99.2647 59.8828 99.0358 59.7744 98.8069 59.7744C98.59 59.7744 98.4333 59.8949 98.4333 60.0756C98.4333 60.2925 98.6984 60.4009 98.9756 60.5094C99.3732 60.666 99.8793 60.8829 99.8793 61.4493C99.8793 62.1361 99.3129 62.4373 98.7105 62.4373C98.2526 62.4373 97.8308 62.2566 97.5296 61.9192L97.9754 61.4975C98.2044 61.7264 98.4092 61.8469 98.6864 61.8469C98.9153 61.8469 99.1563 61.7384 99.1563 61.4854C99.1563 61.2685 98.8551 61.148 98.5779 61.0275C98.2044 60.8709 97.7344 60.666 97.7344 60.1117C97.7344 59.4731 98.2526 59.1719 98.8069 59.1719C99.1925 59.1719 99.566 59.3044 99.8311 59.5575L99.4214 60.0153Z" fill="white"/>
</g>
<g id="Group_4">
<g id="Group_5">
<path id="Vector_47" d="M73.7683 30.4092C73.7201 30.4574 71.4548 32.8553 71.4307 32.8794C72.2982 32.0961 73.0815 31.2768 73.7683 30.4092Z" fill="white"/>
<path id="Vector_48" d="M69.9968 34.0366C70.5873 33.5787 71.1897 33.0244 71.1174 32.9521C70.8764 32.9521 68.2858 34.9524 68.2858 35.1331C68.346 35.1331 68.4906 35.0608 68.7919 34.868C68.9485 34.7957 69.4064 34.5066 69.9968 34.0366Z" fill="white"/>
<path id="Vector_49" d="M66.5143 36.1332C67.3337 35.6513 67.7675 35.2898 67.6952 35.2175C67.659 35.1813 67.418 35.2054 66.2613 35.8561C66.2492 35.8681 64.4659 36.8924 64.4779 37.037C64.5382 37.0611 64.7189 37.0008 65.1286 36.8321C65.3093 36.7598 65.8516 36.5188 66.5143 36.1332Z" fill="white"/>
<path id="Vector_50" d="M76.8289 24.7939C76.8168 24.806 75.5998 27.4931 75.5637 27.7461C76.0818 26.7942 76.5035 25.8061 76.8289 24.7939Z" fill="white"/>
<path id="Vector_51" d="M74.5996 29.1679C75.0695 28.469 75.3225 27.8786 75.19 27.8424C74.9129 27.7701 73.2139 30.18 73.2982 30.5295C73.3344 30.6861 73.6597 30.3487 73.7681 30.2282C73.8766 30.1077 74.2019 29.7583 74.5996 29.1679Z" fill="white"/>
<path id="Vector_52" d="M71.9247 31.8551C72.491 31.2406 72.7079 30.7947 72.6115 30.6863C72.3585 30.3489 70.2136 32.3612 70.1414 32.9998C70.1293 33.1083 70.2016 33.2408 70.8402 32.807C70.9848 32.6986 71.4307 32.3853 71.9247 31.8551Z" fill="white"/>
<path id="Vector_53" d="M68.4663 34.2415C69.0929 33.7354 69.2978 33.3739 69.2375 33.2414C69.0447 32.8196 66.6107 34.4825 66.3697 35.1934C66.3335 35.3019 66.3456 35.4947 67.1891 35.085C67.3819 34.9765 67.9121 34.6994 68.4663 34.2415Z" fill="white"/>
<path id="Vector_54" d="M77.5281 20.3478C77.5281 19.7574 77.504 19.167 77.4317 18.5765C77.4317 18.5645 77.4196 18.5404 77.4196 18.5283C77.3353 18.6127 77.3473 21.4805 77.4317 21.7576C77.4437 21.7456 77.4558 21.7335 77.4558 21.7094V21.6974C77.504 21.2515 77.5281 20.8057 77.5281 20.3478Z" fill="white"/>
<path id="Vector_55" d="M77.0579 23.3598C77.2145 22.5645 77.2025 21.8898 77.0338 21.8536C76.6603 21.7693 76.0096 24.3238 76.2506 24.8901C76.3108 25.0227 76.4193 25.0709 76.6723 24.5889C76.7326 24.4563 76.9253 24.0466 77.0579 23.3598Z" fill="white"/>
<path id="Vector_56" d="M75.4796 26.3608C75.7086 25.7703 75.7327 25.2642 75.5519 25.1197C75.082 24.7461 73.8409 26.7705 73.9493 27.7344C73.9614 27.8429 74.0577 28.349 74.7205 27.6501C74.8289 27.5055 75.2025 27.0717 75.4796 26.3608Z" fill="white"/>
<path id="Vector_57" d="M72.7801 29.4088C73.1777 28.7702 73.2018 28.3244 73.0452 28.1677C72.5752 27.7098 70.9726 29.3004 70.828 30.3608C70.7798 30.6981 70.9485 31.0958 71.8161 30.4692C71.9607 30.3487 72.4065 29.9993 72.7801 29.4088Z" fill="white"/>
<path id="Vector_58" d="M69.4786 31.9514C69.7919 31.5417 69.9004 31.1682 69.7678 30.9874C69.3461 30.4211 67.3338 31.9032 67.141 32.9154C67.0687 33.2889 67.3217 33.5299 68.2616 33.0118C68.7677 32.6985 69.1774 32.349 69.4786 31.9514Z" fill="white"/>
<path id="Vector_59" d="M75.5277 12.7081C75.4915 12.6358 75.4554 12.5876 75.4192 12.5635C75.3349 12.6478 76.5278 15.3349 76.7206 15.5036C76.7327 15.4915 76.7447 15.4795 76.7085 15.371V15.359C76.3953 14.4432 75.9976 13.5636 75.5277 12.7081Z" fill="white"/>
<path id="Vector_60" d="M76.9978 17.0701C76.8171 16.2869 76.5279 15.6362 76.323 15.6C75.8772 15.5277 76.3471 18.251 76.8532 18.6848C76.9978 18.8053 77.0942 18.6848 77.1303 18.3233C77.1424 18.1787 77.1544 17.7569 76.9978 17.0701Z" fill="white"/>
<path id="Vector_61" d="M76.6361 20.3598C76.6241 19.5886 76.3951 18.95 76.0819 18.8295C75.4312 18.6005 75.0576 20.7454 75.5758 21.7334C75.636 21.8539 75.9855 22.4323 76.3951 21.637C76.4554 21.5045 76.6361 21.0828 76.6361 20.3598Z" fill="white"/>
<path id="Vector_62" d="M75.0697 23.6497C75.2023 22.9628 75.0456 22.3603 74.6962 22.1916C73.9612 21.8422 73.0333 23.4328 73.2743 24.6257C73.3948 25.2402 73.8648 25.5415 74.5034 24.8667C74.6118 24.7341 74.9492 24.3365 75.0697 23.6497Z" fill="white"/>
<path id="Vector_63" d="M72.5032 26.7587C72.7081 26.2164 72.6599 25.7103 72.3948 25.4814C71.7079 24.891 70.3102 26.1562 70.2499 27.4334C70.2138 28.2167 70.7801 28.5902 71.6959 27.9034C71.8284 27.7708 72.2622 27.3973 72.5032 26.7587Z" fill="white"/>
<path id="Vector_64" d="M69.1896 29.6506C69.4306 29.1927 69.4547 28.771 69.2258 28.53C68.6233 27.8672 66.9243 28.9397 66.6592 30.1446C66.5026 30.8435 67.0087 31.3978 68.1895 30.6989C68.3582 30.5784 68.8764 30.229 69.1896 29.6506Z" fill="white"/>
<path id="Vector_65" d="M71.5391 7.69576C71.4668 7.62346 71.2861 7.46681 71.2138 7.43066L71.2017 7.44271C71.2981 7.61141 73.3586 9.7924 73.5875 9.91289L73.5996 9.90084C73.5755 9.85264 73.5394 9.80444 73.4309 9.65985L73.3948 9.61165C72.8164 8.94892 72.2018 8.31029 71.5391 7.69576Z" fill="white"/>
<path id="Vector_66" d="M74.4434 11.274C73.9493 10.551 73.3709 9.96054 73.1902 9.99669C72.8167 10.081 74.3831 12.503 74.9495 12.7199C75.1784 12.8043 75.0699 12.4789 75.0338 12.3705C74.9977 12.25 74.8531 11.8764 74.4434 11.274Z" fill="white"/>
<path id="Vector_67" d="M75.2626 14.07C74.9373 13.3952 74.4674 12.853 74.142 12.8169C73.5154 12.7566 73.9613 14.6243 74.7927 15.4798C74.865 15.5521 75.4675 16.1667 75.588 15.3955C75.588 15.2509 75.6121 14.805 75.2626 14.07Z" fill="white"/>
<path id="Vector_68" d="M75.0337 17.3473C74.8891 16.6604 74.5035 16.07 74.0818 15.9134C73.2624 15.588 72.9009 17.0099 73.4914 18.2149C73.8649 18.986 74.5397 19.3234 74.9373 18.6004C74.9976 18.4679 75.1783 18.0462 75.0337 17.3473Z" fill="white"/>
<path id="Vector_69" d="M73.5876 20.4924C73.5515 19.9502 73.3105 19.4803 72.961 19.2513C72.1055 18.685 71.1536 19.7695 71.3464 21.107C71.491 22.1794 72.3827 22.7819 73.1659 21.9384C73.2864 21.7697 73.6479 21.2998 73.5876 20.4924Z" fill="white"/>
<path id="Vector_70" d="M71.1177 23.9146C71.202 23.3844 71.0574 22.9145 70.72 22.6374C69.8886 21.9626 68.539 22.8904 68.4667 24.1918C68.4065 25.3003 69.3705 25.9631 70.4429 25.1196C70.5754 24.9991 71.0092 24.6014 71.1177 23.9146Z" fill="white"/>
<path id="Vector_71" d="M67.9243 26.8669C68.0327 26.3367 67.8158 26.0234 67.6712 25.8908C66.888 25.0956 65.1649 25.9752 64.9721 27.2645C64.8155 28.2887 65.8036 28.9153 67.0206 28.1321C67.5267 27.7706 67.8279 27.3368 67.9243 26.8669Z" fill="white"/>
<path id="Vector_72" d="M65.9481 3.80387C65.8276 3.74362 65.2492 3.44238 65.1769 3.44238C65.201 3.46648 68.2977 5.29803 68.4303 5.29803C68.37 5.24983 68.2857 5.17753 68.0929 5.04499C68.0206 4.99679 67.9242 4.93654 67.8639 4.90039L67.8278 4.87629C67.2133 4.50275 66.5867 4.14126 65.9481 3.80387Z" fill="white"/>
<path id="Vector_73" d="M69.7798 6.38249C69.105 5.86435 68.2375 5.31007 68.117 5.38237C68.0808 5.59926 70.5269 7.53925 70.8884 7.58745C71.045 7.61155 70.8522 7.38261 70.78 7.28621C70.6836 7.17776 70.3944 6.86447 69.7798 6.38249Z" fill="white"/>
<path id="Vector_74" d="M71.768 8.81668C71.1655 8.166 70.3943 7.62376 70.1172 7.65991C69.587 7.72016 71.1534 9.66015 72.0813 10.0939C72.274 10.1903 72.5873 10.2747 72.4668 9.8409C72.4186 9.70835 72.2861 9.37096 71.768 8.81668Z" fill="white"/>
<path id="Vector_75" d="M72.6719 11.5271C72.2381 10.8403 71.5513 10.2739 71.1055 10.2378C70.4548 10.1896 70.6837 11.3584 71.5272 12.2983C72.1417 12.9851 72.9129 13.2984 73.0334 12.6477C73.0334 12.5152 73.0575 12.1416 72.6719 11.5271Z" fill="white"/>
<path id="Vector_76" d="M72.4309 14.4795C72.214 13.8891 71.732 13.3589 71.25 13.1661C70.3704 12.8046 69.8764 13.6601 70.3222 14.7566C70.7801 15.8532 71.9489 16.5159 72.455 15.6724C72.5152 15.5399 72.6839 15.1422 72.4309 14.4795Z" fill="white"/>
<path id="Vector_77" d="M71.0813 17.6247C70.9849 17.0946 70.6836 16.6246 70.2498 16.3475C69.2497 15.7209 68.2255 16.5041 68.4183 17.7573C68.6111 18.9984 69.9124 19.8178 70.78 18.8779C70.9005 18.7454 71.2018 18.3236 71.0813 17.6247Z" fill="white"/>
<path id="Vector_78" d="M68.7317 20.9386C68.7317 20.4566 68.5148 19.9987 68.1533 19.6975C67.1411 18.8902 65.6711 19.7095 65.6831 21.0711C65.6952 22.3002 67.0327 23.1316 68.1774 22.2038C68.3099 22.0713 68.7317 21.6495 68.7317 20.9386Z" fill="white"/>
<path id="Vector_79" d="M65.5744 24.1799C65.6347 23.6256 65.3696 23.2641 65.2009 23.0954C64.2369 22.1435 62.3692 22.9147 62.2608 24.3004C62.1644 25.4813 63.5019 26.2524 64.8394 25.3728C64.996 25.2523 65.4901 24.8547 65.5744 24.1799Z" fill="white"/>
<path id="Vector_80" d="M54.4887 0.321289C55.2117 0.417686 55.7178 0.489984 56.4407 0.610481L56.6215 0.646629C55.9226 0.514083 55.2117 0.405637 54.4887 0.321289Z" fill="white"/>
<path id="Vector_81" d="M59.6701 1.34591C58.682 1.06877 57.8626 0.900076 57.7421 0.875977C59.5857 1.35796 59.5857 1.35796 59.7303 1.39411C60.3087 1.56281 60.8389 1.7315 61.104 1.8038C61.6221 1.96044 61.6221 1.96044 61.6583 1.96044C61.5619 1.91225 61.3691 1.852 61.2245 1.8038C60.9955 1.74355 60.4533 1.56281 59.6701 1.34591Z" fill="white"/>
<path id="Vector_82" d="M63.4176 2.69459C62.538 2.32106 61.5861 1.99571 61.5017 2.01981C61.5258 2.04391 64.8154 3.58627 65.0443 3.52602C65.0202 3.47782 64.9359 3.42962 64.7431 3.32118C64.5985 3.24888 64.1767 3.01993 63.4176 2.69459Z" fill="white"/>
<path id="Vector_83" d="M66.382 4.45408C65.4904 3.91185 64.5626 3.52626 64.4541 3.59856C64.2372 3.75521 66.9604 5.44216 67.4786 5.49035C67.6955 5.5024 67.5147 5.30961 67.4424 5.22526C67.346 5.14091 67.0689 4.87582 66.382 4.45408Z" fill="white"/>
<path id="Vector_84" d="M68.3823 6.58734C67.6714 5.97281 66.7194 5.47877 66.4303 5.56312C65.9965 5.69567 67.346 7.10548 68.4064 7.62361C68.5028 7.67181 69.2981 8.04535 69.1414 7.49107C69.0932 7.39467 68.9607 7.08138 68.3823 6.58734Z" fill="white"/>
<path id="Vector_85" d="M69.298 9.03307C68.8281 8.45469 68.093 7.9486 67.5869 7.86426C66.7917 7.73171 66.9483 8.58723 67.6231 9.38251C68.3822 10.2621 69.551 10.7562 69.7197 10.0452C69.7318 9.92475 69.7559 9.5994 69.298 9.03307Z" fill="white"/>
<path id="Vector_86" d="M69.0932 11.756C68.8282 11.2499 68.3341 10.792 67.828 10.5751C66.8641 10.1775 66.2616 10.7559 66.6231 11.7319C67.0569 12.9007 68.6233 13.7562 69.2017 12.8646C69.2499 12.7441 69.4186 12.3826 69.0932 11.756Z" fill="white"/>
<path id="Vector_87" d="M67.7795 14.733C67.647 14.2871 67.3216 13.8774 66.8999 13.6124C65.7913 12.9255 64.6225 13.5401 64.8153 14.7209C65.0202 15.9741 66.6469 16.8778 67.5747 15.9379C67.6831 15.7933 67.9844 15.3957 67.7795 14.733Z" fill="white"/>
<path id="Vector_88" d="M65.4903 17.8896C65.418 17.3232 65.0565 16.9617 64.8517 16.8051C63.7431 15.9255 62.1043 16.5641 62.1284 17.8775C62.1405 19.1789 63.8274 20.1429 65.0324 19.1548C65.165 19.0222 65.5867 18.6005 65.4903 17.8896Z" fill="white"/>
<path id="Vector_89" d="M62.3933 21.2038C62.3812 20.8424 62.2246 20.4688 61.9595 20.1917C60.8991 19.1072 58.8507 19.7338 58.7302 21.1797C58.6217 22.4932 60.3087 23.433 61.7305 22.4691C61.9113 22.3245 62.4053 21.9148 62.3933 21.2038Z" fill="white"/>
<path id="Vector_90" d="M55.7782 0.514116C54.766 0.34542 53.8864 0.261073 53.7418 0.249023C54.8624 0.393619 55.0432 0.417718 55.7662 0.550265C56.3445 0.646662 56.8868 0.767158 57.176 0.815357C57.7303 0.923804 57.7303 0.923804 57.7905 0.923804C57.7182 0.899704 57.5495 0.863555 57.3688 0.815357C57.1519 0.767158 56.5976 0.646662 55.7782 0.514116Z" fill="white"/>
<path id="Vector_91" d="M59.5738 1.44228C58.7062 1.17719 57.8266 0.972341 57.5736 0.948242L57.5615 0.960292C57.5856 0.972342 60.8993 2.09296 61.2005 2.09296C61.2005 2.09296 61.2126 2.08091 61.2126 2.06886C61.1764 2.03271 61.1162 1.99656 60.9354 1.92426C60.8029 1.87606 60.3691 1.69532 59.5738 1.44228Z" fill="white"/>
<path id="Vector_92" d="M62.5623 2.83936C61.6826 2.41762 60.6223 2.06818 60.5259 2.16458C60.55 2.35737 63.0563 3.67078 63.6588 3.70693C63.8998 3.71898 63.719 3.55029 63.6588 3.49004C63.5744 3.40569 63.2853 3.17675 62.5623 2.83936Z" fill="white"/>
<path id="Vector_93" d="M64.5744 4.62324C63.8394 4.1051 62.8272 3.67131 62.526 3.75566C62.1163 3.86411 63.2008 4.87628 64.2732 5.40646C64.7793 5.65951 65.4902 5.86435 65.3576 5.41851C65.3215 5.31007 65.189 5.05702 64.5744 4.62324Z" fill="white"/>
<path id="Vector_94" d="M65.5024 6.77966C65.0445 6.30972 64.3336 5.87594 63.8034 5.76749C63.0081 5.59879 62.972 6.14103 63.4419 6.76761C64.1769 7.74363 65.7554 8.44251 65.9603 7.69543C65.9603 7.58699 65.9844 7.28574 65.5024 6.77966Z" fill="white"/>
<path id="Vector_95" d="M65.2853 9.25055C65.0202 8.82881 64.5623 8.45527 64.0683 8.23838C63.0682 7.80459 62.3452 8.25043 62.6344 9.118C63.0079 10.2386 64.8033 11.1423 65.4299 10.2868C65.4901 10.1543 65.6468 9.81688 65.2853 9.25055Z" fill="white"/>
<path id="Vector_96" d="M63.9842 11.9974C63.8637 11.6841 63.6107 11.3708 63.3094 11.1419C62.1647 10.2863 60.7308 10.696 60.8513 11.8528C60.9718 13.0698 62.8274 14.0699 63.8276 13.1301C63.936 12.9855 64.2252 12.624 63.9842 11.9974Z" fill="white"/>
<path id="Vector_97" d="M61.6948 14.9733C61.6345 14.6841 61.4779 14.3949 61.2369 14.166C60.1404 13.0935 58.2365 13.4912 58.1401 14.8166C58.0558 16.1059 59.9837 17.1784 61.2851 16.1903C61.4176 16.0457 61.8394 15.6481 61.6948 14.9733Z" fill="white"/>
<path id="Vector_98" d="M58.5978 18.1551C58.5737 17.8418 58.4291 17.5405 58.2001 17.2995C57.1277 16.1548 54.9588 16.5766 54.7298 17.9864C54.5129 19.3359 56.5011 20.4566 58.0073 19.4323C58.164 19.2877 58.6701 18.8539 58.5978 18.1551Z" fill="white"/>
<path id="Vector_99" d="M55.6095 0.574348C54.7178 0.405653 53.79 0.285156 53.6575 0.285156C53.6695 0.285156 56.9109 0.959937 56.9591 0.971986C57.2121 1.02018 57.2242 1.02018 57.2724 1.00814C57.2242 0.984036 57.1639 0.959936 56.9832 0.899688C56.8386 0.85149 56.4048 0.718943 55.6095 0.574348Z" fill="white"/>
<path id="Vector_100" d="M58.6342 1.54994C57.9112 1.28484 56.8027 0.995652 56.6701 1.0559C56.7545 1.21255 59.3572 2.26086 59.791 2.22472C59.9476 2.21267 59.791 2.10422 59.7307 2.05602C59.6464 1.98372 59.3572 1.80298 58.6342 1.54994Z" fill="white"/>
<path id="Vector_101" d="M60.6584 2.97241C59.9475 2.56272 58.9474 2.20123 58.6702 2.26148C58.3087 2.34583 59.3329 3.14111 60.2246 3.55079C60.8994 3.86408 61.5621 3.98458 61.4416 3.62309C61.3934 3.53874 61.2729 3.32185 60.6584 2.97241Z" fill="white"/>
<path id="Vector_102" d="M61.5622 4.79125C61.1163 4.38156 60.4174 4.02007 59.9114 3.92367C59.1884 3.79113 59.1281 4.20081 59.4776 4.6828C60.1162 5.56242 61.7911 6.27335 62.0201 5.58652C62.0201 5.49013 62.0442 5.22503 61.5622 4.79125Z" fill="white"/>
<path id="Vector_103" d="M61.3212 6.96028C61.1404 6.70723 60.8633 6.45419 60.55 6.2614C59.4776 5.61071 58.4654 5.86376 58.6582 6.71928C58.8872 7.75555 60.7669 8.70747 61.4537 7.87605C61.514 7.77965 61.6827 7.47841 61.3212 6.96028Z" fill="white"/>
<path id="Vector_104" d="M59.9836 9.45472C59.8631 9.16553 59.6222 8.87634 59.3089 8.6715C58.2003 7.90032 56.7664 8.27386 56.8387 9.32218C56.911 10.4307 58.8028 11.3586 59.815 10.503C59.9234 10.3705 60.2246 10.0331 59.9836 9.45472Z" fill="white"/>
<path id="Vector_105" d="M57.634 12.226C57.5737 11.9488 57.405 11.6838 57.1641 11.4669C56.0796 10.4788 54.1516 10.8523 54.0311 12.0693C53.9106 13.2743 55.8868 14.2865 57.2122 13.3587C57.3689 13.2141 57.7786 12.8526 57.634 12.226Z" fill="white"/>
<path id="Vector_106" d="M54.4769 15.2146C54.4528 14.9736 54.3444 14.7205 54.1757 14.5277C53.1756 13.3107 50.7898 13.6481 50.5126 15.0459C50.2596 16.3593 52.296 17.4317 53.8745 16.4195C54.0432 16.299 54.5613 15.8893 54.4769 15.2146Z" fill="white"/>
<path id="Vector_107" d="M54.9227 0.634758C54.2359 0.466063 53.296 0.309418 53.1996 0.333517C53.2237 0.345567 55.9349 1.18904 56.1277 1.0806C56.1277 1.0565 56.1036 1.0324 55.9831 0.972148C55.8867 0.936 55.5975 0.803453 54.9227 0.634758Z" fill="white"/>
<path id="Vector_108" d="M56.9351 1.64706C56.2603 1.32172 55.3807 1.08072 55.1759 1.11687C54.8867 1.17712 55.9712 1.86395 56.7182 2.14109C57.2846 2.35799 57.7906 2.41824 57.6701 2.15314C57.634 2.09289 57.5015 1.9242 56.9351 1.64706Z" fill="white"/>
<path id="Vector_109" d="M57.8147 3.10479C57.4773 2.82764 56.9712 2.56255 56.5374 2.44205C55.7662 2.22516 55.6216 2.53845 55.8747 2.93609C56.3928 3.76752 57.9954 4.33385 58.2244 3.76752C58.2244 3.68317 58.2485 3.46627 57.8147 3.10479Z" fill="white"/>
<path id="Vector_110" d="M57.5132 4.9487C57.3806 4.7559 57.1758 4.57516 56.9469 4.41851C55.9588 3.77988 54.9225 3.96063 55.031 4.74385C55.1635 5.65963 56.8866 6.49105 57.5975 5.75603C57.6578 5.65963 57.8265 5.39454 57.5132 4.9487Z" fill="white"/>
<path id="Vector_111" d="M56.0915 7.15325C56.0192 6.97251 55.8866 6.77971 55.7179 6.63512C54.7539 5.75549 53.1031 5.99649 53.079 7.03276C53.0549 8.03288 54.8262 8.87635 55.8746 8.09312C55.983 7.97263 56.2963 7.67139 56.0915 7.15325Z" fill="white"/>
<path id="Vector_112" d="M53.6455 9.65953C53.6094 9.46674 53.4889 9.2378 53.3443 9.0691C52.4165 8.04488 50.3921 8.33407 50.1511 9.51494C49.9222 10.6235 51.826 11.5634 53.1756 10.7079C53.3322 10.5874 53.754 10.25 53.6455 9.65953Z" fill="white"/>
<path id="Vector_113" d="M50.3681 12.4437C50.344 12.1665 50.2235 11.9014 50.0066 11.6845C48.9583 10.6362 46.717 11.1182 46.5242 12.4196C46.3435 13.6125 48.163 14.4801 49.7174 13.5763C49.8981 13.4438 50.4042 13.0823 50.3681 12.4437Z" fill="white"/>
<path id="Vector_114" d="M54.296 0.899886C53.7297 0.695042 52.9585 0.538396 52.8983 0.574545C52.838 0.622744 53.9586 1.21318 54.5973 1.34572C54.6455 1.35777 55.1034 1.44212 54.9588 1.24933C54.9226 1.21318 54.7901 1.08063 54.296 0.899886Z" fill="white"/>
<path id="Vector_115" d="M54.5372 1.75485C54.248 1.52591 53.8624 1.35722 53.5973 1.28492C52.9105 1.08007 52.778 1.32107 52.9587 1.63436C53.3202 2.29709 54.6457 2.74293 54.8746 2.28504C54.8626 2.21274 54.8987 2.032 54.5372 1.75485Z" fill="white"/>
<path id="Vector_116" d="M54.1513 3.23753C54.067 3.11703 53.9344 2.97243 53.7898 2.86399C52.9102 2.20126 51.9342 2.4784 51.9944 3.14113C52.0667 3.92436 53.5247 4.45454 54.1393 3.91231C54.2115 3.82796 54.3923 3.61107 54.1513 3.23753Z" fill="white"/>
<path id="Vector_117" d="M52.6213 5.10458C52.5852 4.94793 52.4767 4.77923 52.3442 4.64669C51.4886 3.79116 49.9463 4.20085 49.874 5.08048C49.8017 5.92395 51.2958 6.57463 52.308 5.9119C52.4165 5.82755 52.7418 5.56246 52.6213 5.10458Z" fill="white"/>
<path id="Vector_118" d="M50.0307 7.33462C50.0187 7.15387 49.9464 6.96108 49.8138 6.80443C49.0547 5.85251 47.0906 6.17785 46.8255 7.31052C46.5845 8.28654 48.1269 9.03362 49.4523 8.27449C49.621 8.16604 50.0669 7.8648 50.0307 7.33462Z" fill="white"/>
<path id="Vector_119" d="M46.6566 9.86504C46.6686 9.612 46.5843 9.37101 46.4156 9.16616C45.5841 8.16604 43.4272 8.70828 43.2104 9.97349C43.0296 11.0218 44.5238 11.7207 45.9336 10.9254C46.1264 10.7929 46.6204 10.4555 46.6566 9.86504Z" fill="white"/>
</g>
<g id="Group_6">
<path id="Vector_120" d="M26.1601 9.96041C26.2083 9.91221 28.4736 7.51433 28.4977 7.49023C27.6422 8.26141 26.859 9.09284 26.1601 9.96041Z" fill="white"/>
<path id="Vector_121" d="M29.944 6.32113C29.3536 6.77901 28.7511 7.3333 28.8234 7.4056C29.0644 7.4056 31.6551 5.40535 31.6551 5.22461C31.5948 5.22461 31.4502 5.29691 31.149 5.4897C30.9924 5.57405 30.5345 5.86324 29.944 6.32113Z" fill="white"/>
<path id="Vector_122" d="M33.426 4.23694C32.6066 4.71893 32.1729 5.08042 32.2452 5.15272C32.2813 5.18887 32.5223 5.16477 33.6791 4.51409C33.6911 4.50204 35.4745 3.47782 35.4624 3.33322C35.4022 3.30912 35.2214 3.36937 34.8117 3.53807C34.631 3.61036 34.0888 3.85136 33.426 4.23694Z" fill="white"/>
<path id="Vector_123" d="M23.1119 15.5752C23.1239 15.5632 24.3409 12.8761 24.3771 12.623C23.8469 13.575 23.4252 14.563 23.1119 15.5752Z" fill="white"/>
<path id="Vector_124" d="M25.3288 11.2021C24.8588 11.901 24.6058 12.4914 24.7383 12.5276C25.0155 12.5999 26.7145 10.19 26.6301 9.84053C26.594 9.68388 26.2686 10.0213 26.1602 10.1418C26.0638 10.2623 25.7264 10.6117 25.3288 11.2021Z" fill="white"/>
<path id="Vector_125" d="M28.0158 8.51499C27.4495 9.12952 27.2326 9.57536 27.329 9.68381C27.582 10.0212 29.7269 8.00891 29.7992 7.37028C29.8112 7.26183 29.7389 7.12928 29.1003 7.56307C28.9557 7.67152 28.5099 7.98481 28.0158 8.51499Z" fill="white"/>
<path id="Vector_126" d="M31.4623 6.1284C30.8357 6.63448 30.6309 6.99597 30.6911 7.12852C30.8839 7.55026 33.318 5.88741 33.559 5.17648C33.5951 5.06803 33.5831 4.87524 32.7396 5.28492C32.5588 5.38132 32.0287 5.67051 31.4623 6.1284Z" fill="white"/>
<path id="Vector_127" d="M22.4128 20.0221C22.4128 20.6125 22.4369 21.203 22.5092 21.7934C22.5092 21.8055 22.5213 21.8296 22.5213 21.8416C22.6056 21.7573 22.5936 18.8894 22.5092 18.6123C22.4972 18.6244 22.4851 18.6364 22.4851 18.6605V18.6726C22.4369 19.1063 22.4128 19.5642 22.4128 20.0221Z" fill="white"/>
<path id="Vector_128" d="M22.8706 16.9974C22.714 17.7927 22.726 18.4675 22.8947 18.5036C23.2683 18.588 23.919 16.0334 23.678 15.4671C23.6177 15.3346 23.5093 15.2864 23.2562 15.7683C23.196 15.9129 23.0152 16.3226 22.8706 16.9974Z" fill="white"/>
<path id="Vector_129" d="M24.461 14.0097C24.2321 14.6001 24.208 15.1062 24.3887 15.2508C24.8587 15.6243 26.0998 13.6 25.9913 12.636C25.9793 12.5276 25.8829 12.0215 25.2201 12.7204C25.0996 12.865 24.7261 13.2987 24.461 14.0097Z" fill="white"/>
<path id="Vector_130" d="M27.1603 10.9608C26.7627 11.5995 26.7386 12.0453 26.8952 12.2019C27.3652 12.6598 28.9678 11.0693 29.1123 10.0089C29.1605 9.67152 28.9919 9.27388 28.1243 9.90046C27.9676 10.021 27.5218 10.3704 27.1603 10.9608Z" fill="white"/>
<path id="Vector_131" d="M30.4499 8.41858C30.1366 8.82827 30.0281 9.20181 30.1607 9.38255C30.5824 9.94888 32.5947 8.46678 32.7875 7.45461C32.8598 7.08107 32.6068 6.84008 31.6669 7.35821C31.1728 7.65945 30.7511 8.02094 30.4499 8.41858Z" fill="white"/>
<path id="Vector_132" d="M24.4012 27.6617C24.4373 27.734 24.4735 27.7822 24.5096 27.8063C24.594 27.722 23.4011 25.0349 23.2083 24.8662C23.1962 24.8783 23.1842 24.8903 23.2203 24.9988V25.0108C23.5457 25.9266 23.9313 26.8062 24.4012 27.6617Z" fill="white"/>
<path id="Vector_133" d="M22.9311 23.2995C23.1119 24.0827 23.4011 24.7334 23.6059 24.7695C24.0517 24.8418 23.5818 22.1186 23.0757 21.6848C22.9311 21.5643 22.8347 21.6848 22.7986 22.0463C22.7986 22.1909 22.7745 22.6127 22.9311 23.2995Z" fill="white"/>
<path id="Vector_134" d="M23.3044 20.0099C23.3165 20.7811 23.5454 21.4197 23.8587 21.5402C24.5094 21.7691 24.8829 19.6243 24.3648 18.6362C24.3045 18.5157 23.9551 17.9374 23.5454 18.7326C23.4731 18.8652 23.2924 19.2869 23.3044 20.0099Z" fill="white"/>
<path id="Vector_135" d="M24.859 16.7208C24.7264 17.4076 24.8831 18.0101 25.2325 18.1788C25.9676 18.5282 26.8954 16.9377 26.6544 15.7448C26.5339 15.1302 26.064 14.829 25.4253 15.5038C25.3169 15.6363 24.9915 16.034 24.859 16.7208Z" fill="white"/>
<path id="Vector_136" d="M27.4255 13.6121C27.2207 14.1543 27.2689 14.6604 27.534 14.8893C28.2208 15.4798 29.6186 14.2145 29.6788 12.9373C29.715 12.154 29.1486 11.7805 28.2328 12.4673C28.1003 12.5999 27.6665 12.9734 27.4255 13.6121Z" fill="white"/>
<path id="Vector_137" d="M30.7512 10.7193C30.5102 11.1772 30.4861 11.5989 30.715 11.8399C31.3175 12.5027 33.0165 11.4302 33.2816 10.2253C33.4382 9.52641 32.9322 8.97212 31.7513 9.671C31.5706 9.7915 31.0645 10.1409 30.7512 10.7193Z" fill="white"/>
<path id="Vector_138" d="M28.4016 32.6742C28.4739 32.7465 28.6547 32.9031 28.727 32.9393L28.739 32.9272C28.6426 32.7585 26.5821 30.5775 26.3532 30.457L26.3411 30.4691C26.3652 30.5173 26.4014 30.5655 26.5098 30.7101L26.546 30.7583C27.1123 31.409 27.7268 32.0596 28.4016 32.6742Z" fill="white"/>
<path id="Vector_139" d="M25.4975 29.0955C25.9915 29.8185 26.5699 30.4089 26.7506 30.3728C27.1242 30.2884 25.5577 27.8664 24.9914 27.6495C24.7625 27.5652 24.8709 27.8905 24.907 27.999C24.9432 28.1195 25.0757 28.493 25.4975 29.0955Z" fill="white"/>
<path id="Vector_140" d="M24.6782 26.3C25.0035 26.9747 25.4735 27.517 25.7988 27.5531C26.4254 27.6134 25.9796 25.7457 25.1481 24.8902C25.0758 24.8179 24.4733 24.2033 24.3528 24.9745C24.3408 25.1191 24.3287 25.5649 24.6782 26.3Z" fill="white"/>
<path id="Vector_141" d="M24.895 23.0108C25.0396 23.6977 25.4252 24.2881 25.8469 24.4447C26.6663 24.7701 27.0278 23.3482 26.4374 22.1433C26.0638 21.3721 25.389 21.0347 24.9914 21.7577C24.9312 21.9023 24.7625 22.324 24.895 23.0108Z" fill="white"/>
<path id="Vector_142" d="M26.353 19.8652C26.3892 20.4074 26.6302 20.8773 26.9796 21.1063C27.8352 21.6726 28.7871 20.5882 28.5943 19.2506C28.4497 18.1782 27.558 17.5757 26.7748 18.4192C26.6422 18.5879 26.2928 19.0699 26.353 19.8652Z" fill="white"/>
<path id="Vector_143" d="M28.8114 16.4433C28.7271 16.9735 28.8717 17.4434 29.2091 17.7205C30.0405 18.3953 31.3901 17.4675 31.4624 16.1661C31.5226 15.0576 30.5586 14.3948 29.4862 15.2383C29.3537 15.3709 28.9199 15.7685 28.8114 16.4433Z" fill="white"/>
<path id="Vector_144" d="M32.0164 13.5031C31.9079 14.0333 32.1248 14.3466 32.2694 14.4791C33.0526 15.2744 34.7757 14.3948 34.9685 13.1055C35.1252 12.0812 34.1371 11.4547 32.9201 12.2379C32.414 12.5994 32.1128 13.0332 32.0164 13.5031Z" fill="white"/>
<path id="Vector_145" d="M33.9923 36.5664C34.1128 36.6267 34.6912 36.9279 34.7635 36.9279C34.7394 36.9038 31.6426 35.0723 31.5101 35.0723C31.5703 35.1205 31.6547 35.1928 31.8475 35.3253C31.9198 35.3735 32.0162 35.4338 32.0764 35.4699L32.1126 35.494C32.715 35.8675 33.3416 36.229 33.9923 36.5664Z" fill="white"/>
<path id="Vector_146" d="M30.1609 33.988C30.8357 34.5061 31.7033 35.0604 31.8238 34.9881C31.8599 34.7712 29.4138 32.8312 29.0523 32.783C28.8957 32.7589 29.0885 32.9879 29.1608 33.0843C29.2572 33.1927 29.5343 33.506 30.1609 33.988Z" fill="white"/>
<path id="Vector_147" d="M28.1607 31.5531C28.7632 32.2038 29.5344 32.746 29.8115 32.7099C30.3417 32.6496 28.7752 30.7096 27.8474 30.2759C27.6546 30.1795 27.3413 30.0951 27.4618 30.5289C27.5221 30.6615 27.6546 30.9988 28.1607 31.5531Z" fill="white"/>
<path id="Vector_148" d="M27.2567 28.8424C27.6905 29.5293 28.3773 30.0956 28.8231 30.1318C29.4738 30.18 29.2449 29.0111 28.4014 28.0713C27.7869 27.3844 27.0157 27.0711 26.8952 27.7218C26.8952 27.8544 26.8831 28.2279 27.2567 28.8424Z" fill="white"/>
<path id="Vector_149" d="M27.4976 25.8906C27.7145 26.481 28.1965 27.0112 28.6785 27.204C29.5581 27.5655 30.0522 26.71 29.6063 25.6134C29.1484 24.5169 27.9796 23.8542 27.4735 24.6977C27.4133 24.8302 27.2446 25.2279 27.4976 25.8906Z" fill="white"/>
<path id="Vector_150" d="M28.8474 22.7451C28.9438 23.2753 29.245 23.7453 29.6788 24.0224C30.6789 24.649 31.7032 23.8658 31.5104 22.6126C31.3176 21.3715 30.0162 20.5521 29.1486 21.492C29.0402 21.6245 28.7269 22.0463 28.8474 22.7451Z" fill="white"/>
<path id="Vector_151" d="M31.2089 19.4316C31.2089 19.9136 31.4258 20.3714 31.7873 20.6727C32.7995 21.48 34.2695 20.6606 34.2575 19.299C34.2454 18.07 32.9079 17.2385 31.7632 18.1664C31.6307 18.2989 31.1969 18.7206 31.2089 19.4316Z" fill="white"/>
<path id="Vector_152" d="M34.366 16.1905C34.3057 16.7448 34.5708 17.1063 34.7395 17.275C35.7035 18.2269 37.5712 17.4557 37.6796 16.07C37.776 14.8892 36.4385 14.118 35.101 14.9976C34.9444 15.1181 34.4383 15.5158 34.366 16.1905Z" fill="white"/>
<path id="Vector_153" d="M45.4396 40.049C44.7166 39.9526 44.2105 39.8803 43.4875 39.7598L43.3068 39.7236C44.0177 39.8562 44.7286 39.9646 45.4396 40.049Z" fill="white"/>
<path id="Vector_154" d="M40.2582 39.0247C41.2463 39.3018 42.0657 39.4705 42.1862 39.4946C40.3426 39.0126 40.3426 39.0126 40.198 38.9765C39.6196 38.8078 39.0894 38.6391 38.8243 38.5668C38.3062 38.4102 38.3062 38.4102 38.27 38.4102C38.3664 38.4584 38.5592 38.5186 38.7038 38.5668C38.9328 38.6271 39.487 38.8078 40.2582 39.0247Z" fill="white"/>
<path id="Vector_155" d="M36.5229 37.6749C37.4025 38.0485 38.3544 38.3738 38.4388 38.3497C38.4147 38.3256 35.1251 36.7833 34.8962 36.8435C34.9203 36.8917 35.0046 36.9399 35.1974 37.0484C35.33 37.1207 35.7517 37.3496 36.5229 37.6749Z" fill="white"/>
<path id="Vector_156" d="M33.559 35.9157C34.4506 36.458 35.3785 36.8435 35.4869 36.7712C35.7038 36.6146 32.9806 34.9276 32.4624 34.8794C32.2455 34.8674 32.4263 35.0602 32.4986 35.1445C32.5829 35.2289 32.8601 35.494 33.559 35.9157Z" fill="white"/>
<path id="Vector_157" d="M31.5463 33.7831C32.2573 34.3976 33.2092 34.8917 33.4984 34.8073C33.9322 34.6748 32.5826 33.265 31.5222 32.7468C31.4258 32.6986 30.6306 32.3251 30.7872 32.8794C30.8354 32.9758 30.968 33.2891 31.5463 33.7831Z" fill="white"/>
<path id="Vector_158" d="M30.6307 31.3362C31.1007 31.9146 31.8357 32.4206 32.3418 32.505C33.137 32.6375 32.9804 31.782 32.3056 30.9867C31.5465 30.1071 30.3777 29.6131 30.209 30.324C30.1969 30.4445 30.1849 30.7698 30.6307 31.3362Z" fill="white"/>
<path id="Vector_159" d="M30.8477 28.6015C31.1128 29.1076 31.6068 29.5655 32.1129 29.7824C33.0769 30.18 33.6793 29.6016 33.3179 28.6256C32.8841 27.4568 31.3176 26.6013 30.7392 27.493C30.679 27.6255 30.5223 27.987 30.8477 28.6015Z" fill="white"/>
<path id="Vector_160" d="M32.1491 25.6369C32.2817 26.0828 32.607 26.4925 33.0287 26.7575C34.1373 27.4444 35.3061 26.8298 35.1133 25.649C34.9085 24.3958 33.2818 23.4921 32.354 24.432C32.2576 24.5766 31.9443 24.9742 32.1491 25.6369Z" fill="white"/>
<path id="Vector_161" d="M34.4383 22.4803C34.5106 23.0467 34.8721 23.4082 35.077 23.5648C36.1855 24.4444 37.8243 23.8058 37.8002 22.4924C37.7881 21.191 36.1012 20.2271 34.8962 21.2151C34.7637 21.3477 34.354 21.7694 34.4383 22.4803Z" fill="white"/>
<path id="Vector_162" d="M37.5352 19.1668C37.5472 19.5283 37.7039 19.9018 37.969 20.1789C39.0293 21.2634 41.0778 20.6368 41.1983 19.1909C41.3067 17.8775 39.6198 16.9376 38.1979 17.9016C38.0292 18.0341 37.5231 18.4558 37.5352 19.1668Z" fill="white"/>
<path id="Vector_163" d="M44.1623 39.856C45.1744 40.0247 46.054 40.109 46.1986 40.1211C45.078 39.9765 44.8973 39.9524 44.1743 39.8198C43.5959 39.7234 43.0537 39.6029 42.7645 39.5547C42.2102 39.4463 42.2102 39.4463 42.15 39.4463C42.2223 39.4704 42.391 39.5065 42.5717 39.5547C42.7886 39.6029 43.3308 39.7234 44.1623 39.856Z" fill="white"/>
<path id="Vector_164" d="M40.367 38.9163C41.2346 39.1814 42.1142 39.3862 42.3673 39.4103L42.3793 39.3983C42.3552 39.3862 39.0416 38.2656 38.7403 38.2656C38.7403 38.2656 38.7283 38.2777 38.7283 38.2897C38.7644 38.3259 38.8247 38.362 39.0054 38.4343C39.138 38.4946 39.5597 38.6753 40.367 38.9163Z" fill="white"/>
<path id="Vector_165" d="M37.3666 37.5303C38.2463 37.952 39.3066 38.3015 39.403 38.2051C39.3789 38.0123 36.8726 36.6989 36.2701 36.6627C36.0291 36.6507 36.2099 36.8194 36.2701 36.8796C36.3665 36.964 36.6436 37.1929 37.3666 37.5303Z" fill="white"/>
<path id="Vector_166" d="M35.3541 35.7468C36.0891 36.265 37.1013 36.6988 37.4025 36.6144C37.8122 36.506 36.7277 35.4938 35.6553 34.9636C35.1492 34.7106 34.4383 34.5057 34.5709 34.9516C34.6191 35.048 34.7396 35.3131 35.3541 35.7468Z" fill="white"/>
<path id="Vector_167" d="M34.4386 33.5898C34.8965 34.0597 35.6074 34.4935 36.1376 34.602C36.9329 34.7707 36.969 34.2284 36.4991 33.6019C35.764 32.6258 34.1855 31.927 33.9807 32.674C33.9686 32.7825 33.9566 33.0837 34.4386 33.5898Z" fill="white"/>
<path id="Vector_168" d="M34.6431 31.1202C34.9081 31.5419 35.366 31.9154 35.8601 32.1323C36.8602 32.5661 37.5832 32.1203 37.294 31.2527C36.9204 30.1321 35.125 29.2284 34.4985 30.0839C34.4503 30.2164 34.2816 30.5538 34.6431 31.1202Z" fill="white"/>
<path id="Vector_169" d="M35.9567 28.3729C36.0772 28.6862 36.3302 28.9995 36.6315 29.2284C37.7762 30.084 39.2101 29.6743 39.0896 28.5175C38.9691 27.3005 37.1135 26.3004 36.1133 27.2402C36.0049 27.3848 35.7157 27.7463 35.9567 28.3729Z" fill="white"/>
<path id="Vector_170" d="M38.246 25.396C38.3062 25.6852 38.4629 25.9744 38.7039 26.2034C39.8004 27.2758 41.7042 26.8781 41.8006 25.5527C41.885 24.2634 39.957 23.1909 38.6557 24.179C38.5231 24.3236 38.1014 24.7212 38.246 25.396Z" fill="white"/>
<path id="Vector_171" d="M41.3306 22.2146C41.3547 22.5279 41.4993 22.8291 41.7282 23.0701C42.8006 24.2148 44.9696 23.7931 45.1985 22.3833C45.4154 21.0337 43.4272 19.9131 41.921 20.9373C41.7644 21.0819 41.2703 21.5037 41.3306 22.2146Z" fill="white"/>
<path id="Vector_172" d="M44.3189 39.7959C45.2106 39.9646 46.1384 40.0851 46.271 40.0851C46.2589 40.0851 43.0176 39.4104 42.9694 39.3983C42.7163 39.3501 42.7043 39.3501 42.6561 39.3622C42.7043 39.3863 42.7645 39.4104 42.9453 39.4706C43.0899 39.5188 43.5357 39.6393 44.3189 39.7959Z" fill="white"/>
<path id="Vector_173" d="M41.2945 38.8192C42.0175 39.0843 43.1261 39.3735 43.2586 39.3133C43.1743 39.1566 40.5716 38.1083 40.1378 38.1445C39.9811 38.1565 40.1378 38.265 40.198 38.3132C40.2944 38.3855 40.5716 38.5542 41.2945 38.8192Z" fill="white"/>
<path id="Vector_174" d="M39.2822 37.398C39.9932 37.8077 40.9933 38.1692 41.2704 38.109C41.6319 38.0246 40.6077 37.2293 39.716 36.8196C39.0413 36.5064 38.3785 36.3859 38.499 36.7473C38.5472 36.8196 38.6677 37.0486 39.2822 37.398Z" fill="white"/>
<path id="Vector_175" d="M38.3665 35.5783C38.8123 35.9879 39.5112 36.3494 40.0173 36.4458C40.7403 36.5784 40.8005 36.1687 40.4511 35.6867C39.8124 34.8071 38.1375 34.0961 37.9086 34.783C37.9086 34.8794 37.8845 35.1445 38.3665 35.5783Z" fill="white"/>
<path id="Vector_176" d="M38.6073 33.3967C38.7881 33.6498 39.0652 33.9028 39.3785 34.0956C40.4509 34.7463 41.4631 34.4933 41.2703 33.6377C41.0414 32.6015 39.1616 31.6495 38.4748 32.481C38.4145 32.5894 38.2458 32.8907 38.6073 33.3967Z" fill="white"/>
<path id="Vector_177" d="M39.9572 30.9151C40.0777 31.2043 40.3187 31.4935 40.632 31.6983C41.7406 32.4695 43.1745 32.096 43.1022 31.0476C43.0299 29.9391 41.1381 29.0113 40.1259 29.8668C40.0054 29.9993 39.7162 30.3367 39.9572 30.9151Z" fill="white"/>
<path id="Vector_178" d="M42.2948 28.1438C42.3551 28.4209 42.5237 28.686 42.7647 28.9029C43.8492 29.891 45.7772 29.5174 45.8976 28.3004C46.0181 27.0954 44.042 26.0833 42.7165 27.0111C42.5599 27.1557 42.1502 27.5172 42.2948 28.1438Z" fill="white"/>
<path id="Vector_179" d="M45.4518 25.1435C45.4759 25.3845 45.5844 25.6375 45.7531 25.8303C46.7532 27.0473 49.139 26.71 49.4162 25.3122C49.6692 23.9988 47.6328 22.9264 46.0543 23.9385C45.8856 24.0711 45.3795 24.4687 45.4518 25.1435Z" fill="white"/>
<path id="Vector_180" d="M45.0178 39.7348C45.7047 39.9035 46.6445 40.0601 46.7409 40.036C46.7168 40.0239 44.0057 39.1805 43.8129 39.2889C43.8129 39.313 43.837 39.3371 43.9575 39.3974C44.0418 39.4335 44.3431 39.5661 45.0178 39.7348Z" fill="white"/>
<path id="Vector_181" d="M42.9936 38.7228C43.6684 39.0482 44.548 39.2892 44.7529 39.253C45.042 39.1928 43.9576 38.5059 43.2105 38.2288C42.6442 38.0119 42.1381 37.9517 42.2586 38.2167C42.3068 38.277 42.4273 38.4457 42.9936 38.7228Z" fill="white"/>
<path id="Vector_182" d="M42.1259 37.2651C42.4633 37.5423 42.9693 37.8073 43.4031 37.9278C44.1743 38.1447 44.3189 37.8315 44.0659 37.4338C43.5477 36.6024 41.9451 36.0361 41.7162 36.6024C41.7041 36.6747 41.68 36.9036 42.1259 37.2651Z" fill="white"/>
<path id="Vector_183" d="M42.415 35.4213C42.5476 35.6141 42.7524 35.7949 42.9814 35.9515C43.9694 36.5901 45.0057 36.4094 44.8972 35.6262C44.7647 34.7104 43.0416 33.879 42.3307 34.614C42.2704 34.7104 42.1017 34.9634 42.415 35.4213Z" fill="white"/>
<path id="Vector_184" d="M43.8491 33.2163C43.9214 33.397 44.054 33.5898 44.2227 33.7344C45.1866 34.6141 46.8374 34.3731 46.8615 33.3368C46.8856 32.3367 45.1144 31.4932 44.066 32.2764C43.9455 32.3969 43.6443 32.6982 43.8491 33.2163Z" fill="white"/>
<path id="Vector_185" d="M46.2832 30.6981C46.3194 30.8908 46.4399 31.1198 46.5845 31.2885C47.5123 32.3127 49.5366 32.0235 49.7776 30.8426C50.0066 29.7341 48.1027 28.7942 46.7532 29.6497C46.5965 29.7823 46.1748 30.1197 46.2832 30.6981Z" fill="white"/>
<path id="Vector_186" d="M49.5729 27.9145C49.597 28.1916 49.7175 28.4567 49.9343 28.6736C50.9827 29.7219 53.2239 29.24 53.4167 27.9386C53.5974 26.7457 51.7779 25.8781 50.2235 26.7818C50.0307 26.9144 49.5247 27.2879 49.5729 27.9145Z" fill="white"/>
<path id="Vector_187" d="M45.6323 39.4696C46.1986 39.6745 46.9698 39.8311 47.0301 39.795C47.0903 39.7468 45.9697 39.1563 45.3311 39.0238C45.2829 39.0118 44.825 38.9274 44.9696 39.1202C45.0057 39.1563 45.1383 39.2889 45.6323 39.4696Z" fill="white"/>
<path id="Vector_188" d="M45.4033 38.6148C45.6925 38.8438 46.0781 39.0125 46.3432 39.0848C47.03 39.2896 47.1626 39.0486 46.9818 38.7353C46.6204 38.0726 45.2949 37.6268 45.066 38.0846C45.066 38.1569 45.0298 38.3377 45.4033 38.6148Z" fill="white"/>
<path id="Vector_189" d="M45.7771 37.1324C45.8614 37.2529 45.994 37.3975 46.1386 37.5059C47.0182 38.1686 47.9942 37.8915 47.934 37.2288C47.8617 36.4455 46.4037 35.9154 45.7892 36.4576C45.7169 36.5419 45.5361 36.7588 45.7771 37.1324Z" fill="white"/>
<path id="Vector_190" d="M47.3196 35.2527C47.3557 35.4094 47.4642 35.5781 47.5967 35.7106C48.4522 36.5661 49.9946 36.1565 50.0669 35.2768C50.1392 34.4334 48.645 33.7827 47.6329 34.4454C47.5124 34.5418 47.1991 34.8069 47.3196 35.2527Z" fill="white"/>
<path id="Vector_191" d="M49.898 33.0357C49.91 33.2164 49.9823 33.4092 50.1149 33.5658C50.874 34.5178 52.8381 34.1924 53.1032 33.0598C53.3442 32.0837 51.8018 31.3367 50.4764 32.0958C50.3077 32.2042 49.8739 32.5055 49.898 33.0357Z" fill="white"/>
<path id="Vector_192" d="M53.2719 30.4935C53.2599 30.7465 53.3442 30.9875 53.5129 31.1923C54.3444 32.1924 56.5013 31.6502 56.7181 30.385C56.8989 29.3367 55.4047 28.6378 53.9949 29.4331C53.8021 29.5777 53.3081 29.9151 53.2719 30.4935Z" fill="white"/>
</g>
</g>
</g>
</svg>
