<svg width="101" height="65" viewBox="0 0 101 65" fill="none" xmlns="http://www.w3.org/2000/svg">
<path d="M0.0483398 46.0088H3.37585C6.25403 46.0088 9.50868 47.5025 9.50868 51.5101C9.50868 55.6149 6.30261 57.1086 3.23012 57.1086H0.0483398V46.0088ZM2.62291 54.9712H2.76864C5.14891 54.9712 6.78838 54.0725 6.78838 51.6437C6.78838 49.3484 5.44037 48.1219 3.13297 48.1219H2.62291V54.9712Z" fill="#000066"/>
<path d="M15.0224 57.2905C12.5086 57.2905 10.6991 55.566 10.6991 52.9793C10.6991 50.3926 12.5693 48.4131 15.0346 48.4131C17.427 48.4131 19.2 50.0647 19.2 52.3235C19.2 52.6757 19.1515 53.0886 19.0907 53.4772H13.298C13.468 54.5338 14.1481 55.2503 15.2046 55.2503C16.2976 55.2503 16.7591 54.7888 17.3177 54.0359L18.9693 55.1653C17.9249 56.5861 16.8805 57.2905 15.0224 57.2905ZM16.6133 51.8013C16.5648 50.8541 15.9333 50.3805 15.1196 50.3805C14.1238 50.3805 13.6137 50.9634 13.3951 51.8013H16.6133Z" fill="#000066"/>
<path d="M25.9035 57.0966L25.6607 56.4287C25.1506 57.0723 24.2641 57.2788 23.4261 57.2788C21.8474 57.2788 20.3536 56.2708 20.3536 54.5342C20.3536 52.4697 22.2967 51.826 24.0333 51.826C24.507 51.826 25.017 51.8868 25.4906 51.9961V51.9353C25.4906 50.9517 25.1142 50.3323 23.9362 50.3323C22.9889 50.3323 22.1753 50.6845 21.4223 51.0609L20.7544 49.3C21.9081 48.7293 23.2075 48.4014 24.507 48.4014C26.8386 48.4014 28.0531 49.7858 28.0531 51.9961V57.0845H25.9035V57.0966ZM25.4906 53.4534C25.1263 53.3684 24.8106 53.3076 24.4827 53.3076C23.7054 53.3076 22.8675 53.6355 22.8675 54.5463C22.8675 55.1778 23.4261 55.5786 24.0212 55.5786C24.6284 55.5786 25.0656 55.36 25.4906 54.9592V53.4534Z" fill="#000066"/>
<path d="M32.5585 57.0962H29.9961V45.207H32.5585V57.0962Z" fill="#000066"/>
<path d="M34.6841 57.0965V46.0088H41.9706V48.134H37.2465V50.3321H41.9706V52.4574H37.2465V54.9712H41.9706V57.0965H34.6841Z" fill="#000066"/>
<path d="M48.5282 51.1212C48.0789 50.7083 47.5324 50.3926 46.8645 50.3926C46.5487 50.3926 46.1844 50.5505 46.1844 50.8541C46.1844 51.3398 46.7552 51.6192 47.4353 51.8985C48.5161 52.3478 49.9127 52.87 49.9127 54.5338C49.9127 56.404 48.2611 57.2905 46.5852 57.2905C45.2129 57.2905 44.0227 56.7562 42.9905 55.7846L44.3871 54.2666C45.055 54.8981 45.5772 55.311 46.4516 55.311C46.7795 55.311 47.3745 55.1531 47.3745 54.7524C47.3745 54.1937 46.6095 53.9387 45.7958 53.5622C44.8121 53.1129 43.7556 52.5178 43.7556 51.0484C43.7556 49.2996 45.2979 48.4131 46.8888 48.4131C48.0668 48.4131 49.1112 48.8138 49.9248 49.6032L48.5282 51.1212Z" fill="#000066"/>
<path d="M54.2483 50.6961V53.8051C54.2483 54.0722 54.2483 54.3151 54.2969 54.5701C54.3576 54.9223 54.5155 55.1409 54.8798 55.1409C55.2441 55.1409 55.4992 55.0559 55.8028 54.898L56.6164 56.7682C56.0092 57.1204 55.147 57.2905 54.4305 57.2905C53.0582 57.2905 52.0867 56.5132 51.7952 55.3109C51.698 54.898 51.6859 54.4366 51.6859 53.9994V50.7083H50.7144V48.6195H51.6859L52.1595 46.7979H54.2483V48.6195H56.3371V50.7083H54.2483V50.6961Z" fill="#000066"/>
<path d="M62.9557 57.0966L62.7128 56.4287C62.2027 57.0723 61.3162 57.2788 60.4782 57.2788C58.8995 57.2788 57.4058 56.2708 57.4058 54.5342C57.4058 52.4697 59.3488 51.826 61.0855 51.826C61.5591 51.826 62.0691 51.8868 62.5428 51.9961V51.9353C62.5428 50.9517 62.1663 50.3323 60.9883 50.3323C60.0411 50.3323 59.2274 50.6845 58.4745 51.0609L57.8065 49.3C58.9602 48.7293 60.2597 48.4014 61.5591 48.4014C63.8908 48.4014 65.1052 49.7858 65.1052 51.9961V57.0845H62.9557V57.0966ZM62.5428 53.4534C62.1784 53.3684 61.8627 53.3076 61.5348 53.3076C60.7576 53.3076 59.9196 53.6355 59.9196 54.5463C59.9196 55.1778 60.4782 55.5786 61.0733 55.5786C61.6805 55.5786 62.1177 55.36 62.5428 54.9592V53.4534Z" fill="#000066"/>
<path d="M69.7442 50.6961V53.8051C69.7442 54.0722 69.7442 54.3151 69.7927 54.5701C69.8535 54.9223 70.0113 55.1409 70.3757 55.1409C70.74 55.1409 70.995 55.0559 71.2986 54.898L72.1123 56.7682C71.5051 57.1204 70.6428 57.2905 69.9263 57.2905C68.554 57.2905 67.5825 56.5132 67.291 55.3109C67.1939 54.898 67.1817 54.4366 67.1817 53.9994V50.7083H66.2102V48.6195H67.1817L67.6554 46.7979H69.7442V48.6195H71.833V50.7083H69.7442V50.6961Z" fill="#000066"/>
<path d="M77.055 57.2905C74.5412 57.2905 72.7317 55.566 72.7317 52.9793C72.7317 50.3926 74.6019 48.4131 77.0672 48.4131C79.4596 48.4131 81.2326 50.0647 81.2326 52.3235C81.2326 52.6757 81.1841 53.0886 81.1233 53.4772H75.3305C75.5006 54.5338 76.1806 55.2503 77.2372 55.2503C78.3302 55.2503 78.7917 54.7888 79.3503 54.0359L81.0019 55.1653C79.9575 56.5861 78.9131 57.2905 77.055 57.2905ZM78.6338 51.8013C78.5852 50.8541 77.9537 50.3805 77.14 50.3805C76.1442 50.3805 75.6342 50.9634 75.4156 51.8013H78.6338Z" fill="#000066"/>
<path d="M82.3499 57.0966V54.5342H85.058V57.0966H82.3499Z" fill="#9900FF"/>
<path d="M94.1052 57.0965L93.4616 55.1534H89.8062L89.114 57.0965H86.2722L90.887 46.0088H92.9272L97.0684 57.0965H94.1052ZM90.547 53.101H92.7694L91.7128 49.8949H91.7007L90.547 53.101Z" fill="#000066"/>
<path d="M100.797 45.5596H98.2346V47.5877H100.797V45.5596Z" fill="#9900FF"/>
<path d="M100.797 48.6074H98.2346V57.0962H100.797V48.6074Z" fill="#000066"/>
<path d="M1.29943 59.2338C1.97951 59.2338 2.81746 59.586 2.81746 60.4847C2.81746 61.1769 2.34383 61.5412 1.84592 61.6748L3.16964 63.4843H2.23454L1.02011 61.7477H0.752941V63.4843H0V59.2217H1.29943V59.2338ZM1.16584 61.104C1.66376 61.104 2.02808 60.9219 2.02808 60.4968C2.02808 60.1204 1.72448 59.8653 1.28729 59.8653H0.740797V61.0919H1.16584V61.104Z" fill="#6600CC"/>
<path d="M4.03199 62.1126C4.08057 62.5863 4.39632 62.9627 4.90638 62.9627C5.31928 62.9627 5.57431 62.8049 5.76862 62.477L6.26653 62.817C5.91435 63.3271 5.51359 63.57 4.8578 63.57C3.88626 63.57 3.27905 62.8777 3.27905 61.9548C3.27905 61.0075 3.97127 60.291 4.8578 60.291C5.7079 60.291 6.33939 60.9104 6.33939 61.7483C6.33939 61.8698 6.32725 62.0034 6.30296 62.1248H4.03199V62.1126ZM4.88209 60.8739C4.43275 60.8739 4.16558 61.1775 4.06843 61.5783H5.58645C5.57431 61.1775 5.2707 60.8739 4.88209 60.8739Z" fill="#6600CC"/>
<path d="M9.66672 60.3637L8.40373 63.4969H7.78437L6.59424 60.3637H7.4079L8.13655 62.5011H8.1487L8.86521 60.3516H9.66672V60.3637Z" fill="#6600CC"/>
<path d="M13.1519 61.9305C13.1519 62.8534 12.4596 63.57 11.5245 63.57C10.5894 63.57 9.89722 62.8413 9.89722 61.9305C9.89722 61.0197 10.5894 60.291 11.5245 60.291C12.4596 60.291 13.1519 61.0075 13.1519 61.9305ZM11.5245 60.9347C11.0145 60.9347 10.6502 61.384 10.6502 61.9305C10.6502 62.4891 11.0145 62.9263 11.5245 62.9263C12.0346 62.9263 12.3989 62.477 12.3989 61.9305C12.3989 61.384 12.0346 60.9347 11.5245 60.9347Z" fill="#6600CC"/>
<path d="M14.573 63.4969H13.8322V58.9307H14.573V63.4969Z" fill="#6600CC"/>
<path d="M17.6335 63.4965L17.5971 63.035C17.3421 63.3993 16.9777 63.5694 16.6013 63.5694C16.2248 63.5694 15.9333 63.4115 15.739 63.1686C15.5083 62.865 15.4597 62.4521 15.4597 61.9906V60.3633H16.2005V61.942C16.2005 62.2092 16.2127 62.5007 16.322 62.695C16.4191 62.8528 16.577 62.9379 16.7956 62.9379C17.087 62.9379 17.3906 62.7435 17.5728 62.4521V60.3633H18.3136V63.4965H17.6335Z" fill="#6600CC"/>
<path d="M19.9771 60.9829V62.2823C19.9771 62.3795 19.9771 62.4524 19.9771 62.5495C20.0014 62.7924 20.0864 62.9381 20.3172 62.9381C20.4508 62.9381 20.56 62.9017 20.6693 62.8531L20.8879 63.4117C20.7058 63.521 20.4386 63.5818 20.2079 63.5818C19.7342 63.5818 19.4306 63.3389 19.3092 62.9867C19.2485 62.8167 19.2242 62.6102 19.2242 62.4038V60.995H18.8356V60.3757H19.2242L19.3092 59.6592H19.9771V60.3757H20.8029V60.995H19.9771V60.9829Z" fill="#6600CC"/>
<path d="M21.4226 59.8534V59.1611H22.1634V59.8534H21.4226ZM21.4226 63.4966V60.3634H22.1634V63.4966H21.4226Z" fill="#6600CC"/>
<path d="M26.0979 61.9305C26.0979 62.8534 25.4057 63.57 24.4706 63.57C23.5355 63.57 22.8433 62.8413 22.8433 61.9305C22.8433 61.0197 23.5355 60.291 24.4706 60.291C25.4057 60.291 26.0979 61.0075 26.0979 61.9305ZM24.4706 60.9347C23.9605 60.9347 23.5962 61.384 23.5962 61.9305C23.5962 62.4891 23.9605 62.9263 24.4706 62.9263C24.9806 62.9263 25.345 62.477 25.345 61.9305C25.345 61.384 24.9806 60.9347 24.4706 60.9347Z" fill="#6600CC"/>
<path d="M27.4459 60.3639L27.4824 60.8254C27.7374 60.461 28.1017 60.291 28.4782 60.291C28.8547 60.291 29.1461 60.4489 29.3404 60.6918C29.5712 60.9954 29.6198 61.4083 29.6198 61.8698V63.4971H28.879V61.9183C28.879 61.6512 28.879 61.3597 28.7575 61.1654C28.6604 61.0075 28.5025 60.9225 28.2839 60.9225C27.9924 60.9225 27.6888 61.1168 27.5067 61.4083V63.4971H26.7659V60.3639H27.4459Z" fill="#6600CC"/>
<path d="M30.5063 59.8534V59.1611H31.2471V59.8534H30.5063ZM30.5063 63.4966V60.3634H31.2471V63.4966H30.5063Z" fill="#6600CC"/>
<path d="M33.2995 60.9826H31.9636V60.3633H34.271V60.6912L32.9959 62.8771H34.3803V63.4965H32.0365V63.1565L33.2995 60.9826Z" fill="#6600CC"/>
<path d="M35.0239 59.8534V59.1611H35.7647V59.8534H35.0239ZM35.0239 63.4966V60.3634H35.7647V63.4966H35.0239Z" fill="#6600CC"/>
<path d="M37.3435 60.3639L37.3799 60.8254C37.6349 60.461 37.9993 60.291 38.3757 60.291C38.7522 60.291 39.0437 60.4489 39.238 60.6918C39.4687 60.9954 39.5173 61.4083 39.5173 61.8698V63.4971H38.7765V61.9183C38.7765 61.6512 38.7765 61.3597 38.655 61.1654C38.5579 61.0075 38.4 60.9225 38.1814 60.9225C37.89 60.9225 37.5864 61.1168 37.4042 61.4083V63.4971H36.6755V60.3639H37.3435Z" fill="#6600CC"/>
<path d="M43.3792 63.3388C43.3792 63.6788 43.3064 63.946 43.1849 64.1646C42.9056 64.6747 42.3713 64.8811 41.7883 64.8811C41.3026 64.8811 40.7804 64.7354 40.3675 64.4561L40.6468 63.8488C40.9747 64.1039 41.424 64.2375 41.7762 64.2375C42.262 64.2375 42.6384 63.9946 42.6384 63.4238V63.0716C42.4077 63.3874 42.0191 63.5088 41.679 63.5088C40.8289 63.5088 40.1853 62.8044 40.1853 61.8936C40.1853 61.0435 40.8047 60.3027 41.7033 60.3027C42.0434 60.3027 42.432 60.4363 42.6749 60.7399L42.7113 60.3756H43.3914V63.3388H43.3792ZM42.6384 61.335C42.4198 61.0557 42.1284 60.9342 41.8369 60.9342C41.2176 60.9342 40.9261 61.4321 40.9261 61.9058C40.9261 62.4158 41.2783 62.853 41.8126 62.853C42.1162 62.853 42.4563 62.7073 42.6263 62.3673V61.335H42.6384Z" fill="#6600CC"/>
<path d="M47.1561 59.2338C47.8362 59.2338 48.6741 59.586 48.6741 60.4847C48.6741 61.1769 48.2005 61.5412 47.7026 61.6748L49.0263 63.4843H48.0912L46.8768 61.7477H46.6096V63.4843H45.8567V59.2217H47.1561V59.2338ZM47.0104 61.104C47.5083 61.104 47.8726 60.9219 47.8726 60.4968C47.8726 60.1204 47.569 59.8653 47.1318 59.8653H46.5853V61.0919H47.0104V61.104Z" fill="#6600CC"/>
<path d="M49.8762 62.1126C49.9248 62.5863 50.2406 62.9627 50.7506 62.9627C51.1635 62.9627 51.4185 62.8049 51.6129 62.477L52.1108 62.817C51.7586 63.3271 51.3578 63.57 50.702 63.57C49.7305 63.57 49.1233 62.8777 49.1233 61.9548C49.1233 61.0075 49.8155 60.291 50.702 60.291C51.5521 60.291 52.1836 60.9104 52.1836 61.7483C52.1836 61.8698 52.1715 62.0034 52.1472 62.1248H49.8762V62.1126ZM50.7385 60.8739C50.2891 60.8739 50.022 61.1775 49.9248 61.5783H51.4428C51.4185 61.1775 51.1271 60.8739 50.7385 60.8739Z" fill="#6600CC"/>
<path d="M54.7701 63.4971L54.7337 63.2056C54.503 63.4728 54.1994 63.57 53.8472 63.57C53.2643 63.57 52.7178 63.2421 52.7178 62.5863C52.7178 61.809 53.4343 61.5662 54.1022 61.5662C54.2722 61.5662 54.4665 61.5905 54.6973 61.639V61.5662C54.6973 61.1411 54.503 60.8861 54.0293 60.8861C53.6772 60.8861 53.325 61.0197 53.0578 61.1654L52.8514 60.6068C53.2278 60.4246 53.7015 60.291 54.1508 60.291C55.0373 60.291 55.4259 60.7889 55.4259 61.6026V63.4971H54.7701ZM54.6851 62.1126C54.4908 62.0641 54.3451 62.0519 54.1994 62.0519C53.8472 62.0519 53.4343 62.1612 53.4343 62.5741C53.4343 62.8899 53.6893 63.0356 53.9686 63.0356C54.2479 63.0356 54.4665 62.902 54.6851 62.7199V62.1126Z" fill="#6600CC"/>
<path d="M57.0413 63.4969H56.3005V58.9307H57.0413V63.4969Z" fill="#6600CC"/>
<path d="M59.5432 63.497V59.2344H62.2028V59.878H60.2962V60.9831H62.2028V61.6268H60.2962V62.8534H62.2028V63.497H59.5432Z" fill="#6600CC"/>
<path d="M64.6437 61.1167C64.4858 60.9831 64.2551 60.8738 64.0244 60.8738C63.8058 60.8738 63.6479 60.9953 63.6479 61.1774C63.6479 61.396 63.915 61.5053 64.1944 61.6146C64.5951 61.7725 65.1052 61.9911 65.1052 62.5619C65.1052 63.2541 64.5344 63.5577 63.9272 63.5577C63.4657 63.5577 63.0407 63.3755 62.7371 63.0355L63.1864 62.6104C63.4171 62.8412 63.6236 62.9626 63.9029 62.9626C64.1336 62.9626 64.3765 62.8533 64.3765 62.5983C64.3765 62.3797 64.0729 62.2583 63.7936 62.1368C63.4171 61.9789 62.9435 61.7725 62.9435 61.2139C62.9435 60.5702 63.4657 60.2666 64.0244 60.2666C64.413 60.2666 64.7894 60.4002 65.0566 60.6552L64.6437 61.1167Z" fill="#6600CC"/>
<path d="M66.6232 60.9829V62.2823C66.6232 62.3795 66.6232 62.4524 66.6232 62.5495C66.6475 62.7924 66.7325 62.9381 66.9633 62.9381C67.0969 62.9381 67.2062 62.9017 67.3155 62.8531L67.5341 63.4117C67.3519 63.521 67.0847 63.5818 66.854 63.5818C66.3804 63.5818 66.0768 63.3389 65.9553 62.9867C65.8946 62.8167 65.8703 62.6102 65.8703 62.4038V60.995H65.4817V60.3757H65.8703L65.9553 59.6592H66.6232V60.3757H67.4491V60.995H66.6232V60.9829Z" fill="#6600CC"/>
<path d="M69.9508 63.4971L69.9144 63.2056C69.6836 63.4728 69.38 63.57 69.0279 63.57C68.4449 63.57 67.8984 63.2421 67.8984 62.5863C67.8984 61.809 68.6149 61.5662 69.2829 61.5662C69.4529 61.5662 69.6472 61.5905 69.8779 61.639V61.5662C69.8779 61.1411 69.6836 60.8861 69.21 60.8861C68.8578 60.8861 68.5057 61.0197 68.2385 61.1654L68.032 60.6068C68.4085 60.4246 68.8821 60.291 69.3315 60.291C70.218 60.291 70.6066 60.7889 70.6066 61.6026V63.4971H69.9508ZM69.8779 62.1126C69.6836 62.0641 69.5379 62.0519 69.3922 62.0519C69.04 62.0519 68.6271 62.1612 68.6271 62.5741C68.6271 62.8899 68.8821 63.0356 69.1614 63.0356C69.4408 63.0356 69.6594 62.902 69.8779 62.7199V62.1126Z" fill="#6600CC"/>
<path d="M72.258 60.9829V62.2823C72.258 62.3795 72.258 62.4524 72.258 62.5495C72.2823 62.7924 72.3673 62.9381 72.5981 62.9381C72.7316 62.9381 72.8409 62.9017 72.9502 62.8531L73.1688 63.4117C72.9867 63.521 72.7195 63.5818 72.4888 63.5818C72.0151 63.5818 71.7115 63.3389 71.5901 62.9867C71.5294 62.8167 71.5051 62.6102 71.5051 62.4038V60.995H71.1165V60.3757H71.5051L71.5901 59.6592H72.258V60.3757H73.0838V60.995H72.258V60.9829Z" fill="#6600CC"/>
<path d="M74.2131 62.1126C74.2617 62.5863 74.5775 62.9627 75.0875 62.9627C75.5004 62.9627 75.7555 62.8049 75.9498 62.477L76.4477 62.817C76.0955 63.3271 75.6947 63.57 75.039 63.57C74.0674 63.57 73.4602 62.8777 73.4602 61.9548C73.4602 61.0075 74.1524 60.291 75.039 60.291C75.889 60.291 76.5205 60.9104 76.5205 61.7483C76.5205 61.8698 76.5084 62.0034 76.4841 62.1248H74.2131V62.1126ZM75.0632 60.8739C74.6139 60.8739 74.3467 61.1775 74.2496 61.5783H75.7676C75.7555 61.1775 75.4519 60.8739 75.0632 60.8739Z" fill="#6600CC"/>
<path d="M80.2128 59.8173C79.8606 59.8173 79.5813 59.9995 79.5813 60.3153C79.5813 60.6553 80.0063 60.7889 80.3463 60.8982C80.9778 61.1168 81.6822 61.3961 81.6822 62.2462C81.6822 63.1813 80.8321 63.5699 80.1278 63.5699C79.4841 63.5699 78.9983 63.3392 78.5369 62.8898L79.0469 62.3919C79.4234 62.7562 79.7027 62.9141 80.1399 62.9141C80.5164 62.9141 80.8928 62.732 80.8928 62.2826C80.8928 61.8697 80.4557 61.724 80.0185 61.5661C79.4477 61.3597 78.8405 61.0803 78.8405 60.3395C78.8405 59.5259 79.4841 59.1494 80.1885 59.1494C80.7228 59.1494 81.1479 59.3194 81.5608 59.623L81.1114 60.1695C80.8807 59.9874 80.5407 59.8173 80.2128 59.8173Z" fill="#6600CC"/>
<path d="M84.5845 63.4965L84.548 63.035C84.293 63.3993 83.9287 63.5694 83.5522 63.5694C83.1757 63.5694 82.8843 63.4115 82.69 63.1686C82.4592 62.865 82.4106 62.4521 82.4106 61.9906V60.3633H83.1514V61.942C83.1514 62.2092 83.1514 62.5007 83.2729 62.695C83.37 62.8528 83.5279 62.9379 83.7465 62.9379C84.038 62.9379 84.3416 62.7435 84.5237 62.4521V60.3633H85.2645V63.4965H84.5845Z" fill="#6600CC"/>
<path d="M88.5918 63.2178C88.3125 63.4607 87.9481 63.57 87.5352 63.57C86.6244 63.57 85.9443 62.902 85.9443 61.9305C85.9443 61.0197 86.6244 60.291 87.5717 60.291C87.9603 60.291 88.3003 60.4125 88.5796 60.6311L88.2153 61.1775C88.0331 61.0197 87.8267 60.9347 87.5959 60.9347C87.0859 60.9347 86.6973 61.384 86.6973 61.9305C86.6973 62.5134 87.1102 62.9263 87.5959 62.9263C87.8267 62.9263 88.0453 62.8413 88.2274 62.6956L88.5918 63.2178Z" fill="#6600CC"/>
<path d="M91.6162 63.2178C91.3369 63.4607 90.9725 63.57 90.5596 63.57C89.6488 63.57 88.9688 62.902 88.9688 61.9305C88.9688 61.0197 89.6488 60.291 90.5961 60.291C90.9847 60.291 91.3247 60.4125 91.604 60.6311L91.2397 61.1775C91.0576 61.0197 90.8511 60.9347 90.6204 60.9347C90.1103 60.9347 89.7217 61.384 89.7217 61.9305C89.7217 62.5134 90.1346 62.9263 90.6204 62.9263C90.8511 62.9263 91.0697 62.8413 91.2519 62.6956L91.6162 63.2178Z" fill="#6600CC"/>
<path d="M92.7212 62.1126C92.7698 62.5863 93.0855 62.9627 93.5956 62.9627C94.0085 62.9627 94.2635 62.8049 94.4578 62.477L94.9557 62.817C94.6036 63.3271 94.2028 63.57 93.547 63.57C92.5755 63.57 91.9683 62.8777 91.9683 61.9548C91.9683 61.0075 92.6605 60.291 93.547 60.291C94.3971 60.291 95.0286 60.9104 95.0286 61.7483C95.0286 61.8698 95.0165 62.0034 94.9922 62.1248H92.7212V62.1126ZM93.5713 60.8739C93.122 60.8739 92.8548 61.1775 92.7576 61.5783H94.2757C94.2635 61.1775 93.9721 60.8739 93.5713 60.8739Z" fill="#6600CC"/>
<path d="M97.36 61.1167C97.2021 60.9831 96.9714 60.8738 96.7407 60.8738C96.5221 60.8738 96.3642 60.9953 96.3642 61.1774C96.3642 61.396 96.6314 61.5053 96.9107 61.6146C97.3114 61.7725 97.8215 61.9911 97.8215 62.5619C97.8215 63.2541 97.2507 63.5577 96.6435 63.5577C96.182 63.5577 95.757 63.3755 95.4534 63.0355L95.9027 62.6104C96.1334 62.8412 96.3399 62.9626 96.6192 62.9626C96.85 62.9626 97.0928 62.8533 97.0928 62.5983C97.0928 62.3797 96.7892 62.2583 96.5099 62.1368C96.1334 61.9789 95.6598 61.7725 95.6598 61.2139C95.6598 60.5702 96.182 60.2666 96.7407 60.2666C97.1293 60.2666 97.5057 60.4002 97.7729 60.6552L97.36 61.1167Z" fill="#6600CC"/>
<path d="M100.214 61.1167C100.056 60.9831 99.8254 60.8738 99.5947 60.8738C99.3761 60.8738 99.2182 60.9953 99.2182 61.1774C99.2182 61.396 99.4854 61.5053 99.7647 61.6146C100.165 61.7725 100.675 61.9911 100.675 62.5619C100.675 63.2541 100.105 63.5577 99.4975 63.5577C99.036 63.5577 98.611 63.3755 98.3074 63.0355L98.7567 62.6104C98.9875 62.8412 99.1939 62.9626 99.4732 62.9626C99.704 62.9626 99.9468 62.8533 99.9468 62.5983C99.9468 62.3797 99.6432 62.2583 99.3639 62.1368C98.9875 61.9789 98.5138 61.7725 98.5138 61.2139C98.5138 60.5702 99.036 60.2666 99.5947 60.2666C99.9833 60.2666 100.36 60.4002 100.627 60.6552L100.214 61.1167Z" fill="#6600CC"/>
<path d="M74.3587 31.2773C74.3101 31.3259 72.027 33.7426 72.0027 33.7669C72.8649 32.9775 73.6543 32.1517 74.3587 31.2773Z" fill="#0033FF"/>
<path d="M70.5458 34.9328C71.1408 34.4713 71.748 33.9127 71.6752 33.8398C71.4323 33.8398 68.8213 35.8558 68.8213 36.0379C68.882 36.0379 69.0277 35.9651 69.3313 35.7708C69.4892 35.6979 69.9507 35.4064 70.5458 34.9328Z" fill="#0033FF"/>
<path d="M67.0358 37.0468C67.8616 36.561 68.2988 36.1967 68.226 36.1238C68.1895 36.0874 67.9467 36.1117 66.7808 36.7674C66.7687 36.7796 64.9713 37.8118 64.9835 37.9576C65.0442 37.9819 65.2263 37.9211 65.6393 37.7511C65.8214 37.6783 66.3679 37.4354 67.0358 37.0468Z" fill="#0033FF"/>
<path d="M77.4311 25.6182C77.419 25.6303 76.1924 28.3385 76.156 28.5935C76.6782 27.6341 77.1033 26.6383 77.4311 25.6182Z" fill="#0033FF"/>
<path d="M75.1848 30.0269C75.6584 29.3226 75.9134 28.7275 75.7798 28.6911C75.5005 28.6182 73.7882 31.047 73.8732 31.3992C73.9096 31.5571 74.2375 31.2171 74.3468 31.0956C74.4561 30.9742 74.784 30.622 75.1848 30.0269Z" fill="#0033FF"/>
<path d="M72.4887 32.7347C73.0595 32.1153 73.2781 31.666 73.1809 31.5567C72.9259 31.2167 70.7642 33.2447 70.6913 33.8884C70.6792 33.9977 70.7521 34.1313 71.3957 33.6941C71.5414 33.5848 71.9908 33.269 72.4887 32.7347Z" fill="#0033FF"/>
<path d="M69.003 35.1395C69.6345 34.6295 69.841 34.2651 69.7802 34.1316C69.5859 33.7065 67.1328 35.3824 66.8899 36.0989C66.8535 36.2082 66.8656 36.4025 67.7157 35.9896C67.91 35.8803 68.4444 35.601 69.003 35.1395Z" fill="#0033FF"/>
<path d="M78.1358 21.1375C78.1358 20.5424 78.1115 19.9474 78.0387 19.3523C78.0387 19.3401 78.0265 19.3159 78.0265 19.3037C77.9415 19.3887 77.9536 22.279 78.0387 22.5584C78.0508 22.5462 78.0629 22.5341 78.0629 22.5098V22.4976C78.1115 22.0483 78.1358 21.599 78.1358 21.1375Z" fill="#0033FF"/>
<path d="M77.6741 24.1734C77.832 23.3719 77.8199 22.6918 77.6498 22.6554C77.2734 22.5704 76.6176 25.1449 76.8605 25.7157C76.9212 25.8493 77.0305 25.8979 77.2855 25.4121C77.3341 25.2785 77.5284 24.8656 77.6741 24.1734Z" fill="#0033FF"/>
<path d="M76.071 27.197C76.3018 26.602 76.326 26.0919 76.1439 25.9462C75.6703 25.5697 74.4194 27.6099 74.5287 28.5815C74.5408 28.6908 74.638 29.2008 75.3059 28.4965C75.4274 28.3507 75.7917 27.9135 76.071 27.197Z" fill="#0033FF"/>
<path d="M73.3509 30.2698C73.7516 29.6262 73.7759 29.1768 73.618 29.0189C73.1444 28.5575 71.5292 30.1605 71.3835 31.2292C71.3349 31.5692 71.5049 31.97 72.3793 31.3385C72.5251 31.217 72.9744 30.8649 73.3509 30.2698Z" fill="#0033FF"/>
<path d="M70.0232 32.832C70.3389 32.4191 70.4482 32.0426 70.3146 31.8605C69.8896 31.2897 67.8615 32.7834 67.6672 33.8035C67.5943 34.18 67.8494 34.4229 68.7966 33.9007C69.3067 33.5849 69.7196 33.2328 70.0232 32.832Z" fill="#0033FF"/>
<path d="M76.1197 13.4377C76.0833 13.3649 76.0468 13.3163 76.0104 13.292C75.9254 13.377 77.1277 16.0852 77.322 16.2552C77.3341 16.243 77.3463 16.2309 77.3098 16.1216V16.1094C76.9941 15.1865 76.5933 14.3 76.1197 13.4377Z" fill="#0033FF"/>
<path d="M77.6136 17.8346C77.4314 17.0452 77.1399 16.3894 76.9335 16.353C76.4842 16.2801 76.9578 19.0247 77.4678 19.4619C77.6136 19.5833 77.7107 19.4619 77.7472 19.0976C77.7472 18.9518 77.7593 18.5268 77.6136 17.8346Z" fill="#0033FF"/>
<path d="M77.237 21.1493C77.2248 20.372 76.9941 19.7284 76.6783 19.607C76.0225 19.3762 75.6461 21.5379 76.1683 22.5337C76.229 22.6552 76.5812 23.2381 76.9941 22.4366C77.0548 22.303 77.2491 21.8779 77.237 21.1493Z" fill="#0033FF"/>
<path d="M75.6705 24.4652C75.8041 23.773 75.6462 23.1658 75.294 22.9957C74.5532 22.6436 73.6181 24.2466 73.861 25.4489C73.9824 26.0682 74.4561 26.3718 75.0997 25.6918C75.1969 25.5582 75.5369 25.1574 75.6705 24.4652Z" fill="#0033FF"/>
<path d="M73.0717 27.598C73.2781 27.0515 73.2296 26.5414 72.9624 26.3107C72.2702 25.7156 70.8614 26.9908 70.8007 28.2781C70.7643 29.0674 71.3351 29.4439 72.258 28.7517C72.3916 28.6181 72.8409 28.2416 73.0717 27.598Z" fill="#0033FF"/>
<path d="M69.7316 30.5125C69.9745 30.051 69.9987 29.626 69.768 29.3831C69.1608 28.7152 67.4485 29.796 67.1813 31.0104C67.0234 31.7148 67.5335 32.2734 68.7236 31.5691C68.8936 31.4476 69.4158 31.0955 69.7316 30.5125Z" fill="#0033FF"/>
<path d="M72.0996 8.38631C72.0267 8.31345 71.8445 8.15557 71.7717 8.11914L71.7595 8.13129C71.8567 8.3013 73.9333 10.4994 74.1641 10.6208L74.1762 10.6087C74.1519 10.5601 74.1155 10.5116 74.0062 10.3658L73.9698 10.3172C73.399 9.64931 72.7675 9.00567 72.0996 8.38631Z" fill="#0033FF"/>
<path d="M75.0264 11.993C74.5285 11.2643 73.9456 10.6693 73.7634 10.7057C73.3869 10.7907 74.9657 13.2317 75.5365 13.4503C75.7672 13.5353 75.6579 13.2074 75.6215 13.0981C75.585 12.9767 75.4393 12.6002 75.0264 11.993Z" fill="#0033FF"/>
<path d="M75.8524 14.8103C75.5245 14.1303 75.0509 13.5838 74.723 13.5473C74.0915 13.4866 74.5409 15.369 75.3788 16.2312C75.4517 16.3041 76.0589 16.9234 76.1803 16.1462C76.1803 16.0005 76.2046 15.5511 75.8524 14.8103Z" fill="#0033FF"/>
<path d="M75.6215 18.1138C75.4757 17.4216 75.0871 16.8265 74.6621 16.6686C73.8363 16.3407 73.4719 17.7737 74.067 18.9882C74.4435 19.7654 75.1236 20.1054 75.5243 19.3768C75.585 19.2432 75.7672 18.8181 75.6215 18.1138Z" fill="#0033FF"/>
<path d="M74.1645 21.2827C74.1281 20.7362 73.8852 20.2626 73.533 20.0318C72.6708 19.4611 71.7114 20.554 71.9057 21.902C72.0514 22.9829 72.9501 23.5901 73.7395 22.74C73.8609 22.57 74.2253 22.0964 74.1645 21.2827Z" fill="#0033FF"/>
<path d="M71.6871 24.7321C71.7721 24.1977 71.6264 23.7241 71.2864 23.4448C70.4484 22.7647 69.0883 23.6998 69.0154 25.0114C68.9547 26.1287 69.9262 26.7966 71.0071 25.9465C71.1406 25.8251 71.5778 25.4243 71.6871 24.7321Z" fill="#0033FF"/>
<path d="M68.4569 27.707C68.5662 27.1726 68.3476 26.8569 68.2019 26.7233C67.4125 25.9218 65.6759 26.8083 65.4816 28.1077C65.3237 29.14 66.3196 29.7715 67.5461 28.9821C68.0562 28.6178 68.3598 28.1806 68.4569 27.707Z" fill="#0033FF"/>
<path d="M66.465 4.46296C66.3435 4.40224 65.7606 4.09863 65.6877 4.09863C65.712 4.12292 68.8331 5.96884 68.9667 5.96884C68.906 5.92026 68.8209 5.8474 68.6266 5.71381C68.5538 5.66524 68.4566 5.60452 68.3959 5.56808L68.3595 5.54379C67.7401 5.16732 67.1086 4.803 66.465 4.46296Z" fill="#0033FF"/>
<path d="M70.3267 7.06226C69.6466 6.54006 68.7722 5.98143 68.6508 6.05429C68.6144 6.27289 71.0796 8.22811 71.444 8.27668C71.6018 8.30097 71.4075 8.07023 71.3347 7.97308C71.2375 7.86378 70.946 7.54803 70.3267 7.06226Z" fill="#0033FF"/>
<path d="M72.3308 9.51522C71.7236 8.85944 70.9464 8.31295 70.6671 8.34938C70.1327 8.4101 71.7115 10.3653 72.6466 10.8025C72.8409 10.8997 73.1566 10.9847 73.0352 10.5475C72.9866 10.4139 72.853 10.0739 72.3308 9.51522Z" fill="#0033FF"/>
<path d="M73.2413 12.2482C72.8041 11.5559 72.1119 10.9852 71.6626 10.9487C71.0068 10.9001 71.2375 12.0781 72.0876 13.0254C72.707 13.7176 73.4842 14.0334 73.6056 13.3776C73.6178 13.244 73.6299 12.8675 73.2413 12.2482Z" fill="#0033FF"/>
<path d="M73.0107 15.2229C72.7922 14.6278 72.3064 14.0935 71.8206 13.8992C70.9341 13.5348 70.4362 14.3971 70.8855 15.5022C71.347 16.6073 72.525 17.2753 73.035 16.4252C73.0836 16.2916 73.2536 15.8908 73.0107 15.2229Z" fill="#0033FF"/>
<path d="M71.6385 18.3924C71.5414 17.858 71.2378 17.3844 70.8006 17.1051C69.7926 16.4736 68.7603 17.2629 68.9547 18.5259C69.149 19.7768 70.4605 20.6026 71.3349 19.6554C71.4564 19.5218 71.76 19.0967 71.6385 18.3924Z" fill="#0033FF"/>
<path d="M69.2701 21.7321C69.2701 21.2463 69.0515 20.7848 68.6871 20.4812C67.667 19.6676 66.1854 20.4934 66.1976 21.8657C66.2097 23.1044 67.5577 23.9423 68.7114 23.0072C68.845 22.8737 69.2701 22.4486 69.2701 21.7321Z" fill="#0033FF"/>
<path d="M66.0888 24.9993C66.1495 24.4407 65.8823 24.0764 65.7123 23.9064C64.7407 22.947 62.8584 23.7242 62.7491 25.1208C62.6519 26.3109 63.9999 27.0881 65.348 26.2016C65.5058 26.0802 66.0037 25.6794 66.0888 24.9993Z" fill="#0033FF"/>
<path d="M54.9158 0.954102C55.6444 1.05126 56.1545 1.12412 56.8831 1.24556L57.0653 1.282C56.3609 1.14841 55.6444 1.03911 54.9158 0.954102Z" fill="#0033FF"/>
<path d="M60.1381 1.98632C59.1423 1.707 58.3165 1.53698 58.1951 1.5127C60.0531 1.99846 60.0531 1.99846 60.1989 2.0349C60.7818 2.20492 61.3161 2.37493 61.5833 2.4478C62.1055 2.60567 62.1055 2.60567 62.1419 2.60567C62.0448 2.5571 61.8505 2.49638 61.7047 2.4478C61.4861 2.38708 60.9275 2.20492 60.1381 1.98632Z" fill="#0033FF"/>
<path d="M63.9148 3.34638C63.0283 2.96991 62.0689 2.64202 61.9839 2.66631C62.0082 2.6906 65.3235 4.24506 65.5543 4.18433C65.53 4.13576 65.445 4.08718 65.2507 3.97788C65.1171 3.90502 64.6799 3.67428 63.9148 3.34638Z" fill="#0033FF"/>
<path d="M66.9022 5.11907C66.0035 4.57258 65.0684 4.18397 64.9591 4.25683C64.7405 4.41471 67.4851 6.1149 68.0073 6.16347C68.2259 6.17562 68.0438 5.98131 67.9709 5.8963C67.8859 5.81129 67.5944 5.54412 66.9022 5.11907Z" fill="#0033FF"/>
<path d="M68.9183 7.26831C68.2018 6.64895 67.2424 6.15104 66.9509 6.23605C66.5137 6.36963 67.8739 7.79051 68.9426 8.31271C69.0397 8.36129 69.8412 8.73776 69.6834 8.17912C69.6348 8.08197 69.5012 7.76622 68.9183 7.26831Z" fill="#0033FF"/>
<path d="M69.8411 9.73376C69.3675 9.15084 68.6267 8.64078 68.1167 8.55577C67.3151 8.42218 67.473 9.28442 68.1531 10.0859C68.9182 10.9725 70.0962 11.4704 70.2662 10.7539C70.2905 10.6324 70.3026 10.3045 69.8411 9.73376Z" fill="#0033FF"/>
<path d="M69.6348 12.4782C69.3676 11.9681 68.8697 11.5066 68.3596 11.288C67.3881 10.8873 66.7809 11.4702 67.1452 12.4539C67.5824 13.6319 69.1611 14.4941 69.7441 13.5954C69.7926 13.474 69.9627 13.1097 69.6348 12.4782Z" fill="#0033FF"/>
<path d="M68.3231 15.4784C68.1895 15.0291 67.8616 14.6162 67.4366 14.349C66.3193 13.6568 65.1413 14.2761 65.3356 15.4663C65.5421 16.7293 67.1815 17.6401 68.1167 16.6928C68.2138 16.5471 68.5174 16.1463 68.3231 15.4784Z" fill="#0033FF"/>
<path d="M66.0035 18.6601C65.9306 18.0893 65.5663 17.725 65.3599 17.5671C64.2426 16.6805 62.591 17.3242 62.6153 18.6479C62.6274 19.9595 64.3276 20.931 65.542 19.9352C65.6756 19.8016 66.1006 19.3766 66.0035 18.6601Z" fill="#0033FF"/>
<path d="M62.8824 21.9993C62.8702 21.635 62.7124 21.2585 62.4452 20.9792C61.3765 19.8862 59.312 20.5177 59.1906 21.975C59.0813 23.2987 60.7814 24.246 62.2145 23.2744C62.3966 23.1287 62.8945 22.7158 62.8824 21.9993Z" fill="#0033FF"/>
<path d="M56.2152 1.14803C55.1951 0.978013 54.3086 0.893004 54.1628 0.880859C55.2923 1.02659 55.4744 1.05088 56.2031 1.18446C56.786 1.28162 57.3325 1.40306 57.6239 1.45164C58.1826 1.56094 58.1826 1.56094 58.2433 1.56094C58.1704 1.53665 58.0004 1.50021 57.8182 1.45164C57.5997 1.40306 57.041 1.28162 56.2152 1.14803Z" fill="#0033FF"/>
<path d="M60.0408 2.08287C59.1664 1.8157 58.2799 1.60925 58.0248 1.58496L58.0127 1.59711C58.037 1.60925 61.3766 2.73866 61.6802 2.73866C61.6802 2.73866 61.6924 2.72652 61.6924 2.71437C61.656 2.67794 61.5952 2.64151 61.4131 2.56864C61.2795 2.52007 60.8423 2.3379 60.0408 2.08287Z" fill="#0033FF"/>
<path d="M63.0526 3.49224C62.1661 3.06719 61.0974 2.71501 61.0002 2.81216C61.0245 3.00647 63.5505 4.33019 64.1577 4.36662C64.4006 4.37877 64.2185 4.20875 64.1577 4.14803C64.0727 4.06302 63.7813 3.83228 63.0526 3.49224Z" fill="#0033FF"/>
<path d="M65.0808 5.28931C64.34 4.76711 63.3199 4.32992 63.0163 4.41492C62.6034 4.52422 63.6964 5.54434 64.7772 6.07868C65.2873 6.33371 66.0038 6.54016 65.8702 6.09083C65.8338 5.98153 65.7002 5.7265 65.0808 5.28931Z" fill="#0033FF"/>
<path d="M66.0157 7.46265C65.5542 6.98903 64.8377 6.55184 64.3034 6.44254C63.5019 6.27252 63.4654 6.81901 63.9391 7.45051C64.6799 8.43419 66.2707 9.13855 66.4772 8.38561C66.4772 8.27631 66.5015 7.97271 66.0157 7.46265Z" fill="#0033FF"/>
<path d="M65.7971 9.9522C65.5299 9.52715 65.0684 9.15068 64.5705 8.93208C63.5625 8.49489 62.8339 8.94423 63.1254 9.81861C63.5018 10.948 65.3113 11.8588 65.9428 10.9966C66.0035 10.863 66.1614 10.523 65.7971 9.9522Z" fill="#0033FF"/>
<path d="M64.4855 12.7216C64.364 12.4058 64.109 12.0901 63.8054 11.8593C62.6517 10.9971 61.2065 11.41 61.328 12.5758C61.4494 13.8024 63.3196 14.8104 64.3276 13.8631C64.4369 13.7174 64.7284 13.3531 64.4855 12.7216Z" fill="#0033FF"/>
<path d="M62.1778 15.7208C62.117 15.4293 61.9592 15.1379 61.7163 14.9071C60.6112 13.8263 58.6924 14.227 58.5952 15.5629C58.5102 16.8623 60.4533 17.9432 61.7649 16.9473C61.8984 16.8016 62.3235 16.4009 62.1778 15.7208Z" fill="#0033FF"/>
<path d="M59.0571 18.9267C59.0328 18.611 58.8871 18.3074 58.6563 18.0645C57.5755 16.9108 55.3895 17.3358 55.1588 18.7567C54.9402 20.1169 56.944 21.2463 58.462 20.214C58.6199 20.0683 59.13 19.6311 59.0571 18.9267Z" fill="#0033FF"/>
<path d="M56.045 1.20845C55.1463 1.03843 54.2112 0.916992 54.0776 0.916992C54.0898 0.916992 57.3566 1.59707 57.4052 1.60921C57.6602 1.65779 57.6723 1.65779 57.7209 1.64564C57.6723 1.62136 57.6116 1.59707 57.4294 1.53635C57.2959 1.48777 56.8465 1.35418 56.045 1.20845Z" fill="#0033FF"/>
<path d="M59.1055 2.19255C58.3768 1.92538 57.2596 1.63391 57.126 1.69463C57.211 1.85251 59.8341 2.90906 60.2713 2.87262C60.4292 2.86048 60.2713 2.75118 60.2106 2.7026C60.1135 2.62974 59.822 2.44758 59.1055 2.19255Z" fill="#0033FF"/>
<path d="M61.1338 3.6255C60.4173 3.2126 59.4094 2.84827 59.13 2.90899C58.7657 2.994 59.798 3.79552 60.6966 4.20842C61.3767 4.52417 62.0446 4.64562 61.9232 4.28129C61.8746 4.19628 61.7532 3.97768 61.1338 3.6255Z" fill="#0033FF"/>
<path d="M62.0444 5.45939C61.5951 5.04648 60.8907 4.68216 60.3807 4.585C59.652 4.45142 59.5913 4.86432 59.9435 5.35009C60.5871 6.23662 62.2752 6.95312 62.5059 6.2609C62.5181 6.16375 62.5302 5.89658 62.0444 5.45939Z" fill="#0033FF"/>
<path d="M61.8018 7.6454C61.6197 7.39037 61.3403 7.13534 61.0246 6.94103C59.9437 6.28524 58.9236 6.54027 59.1179 7.40251C59.3487 8.44692 61.2432 9.40631 61.9354 8.56836C61.9961 8.4712 62.1661 8.1676 61.8018 7.6454Z" fill="#0033FF"/>
<path d="M60.4538 10.1594C60.3323 9.86794 60.0895 9.57648 59.7737 9.37003C58.6564 8.5928 57.2113 8.96927 57.2841 10.0258C57.357 11.1431 59.2637 12.0782 60.2838 11.2159C60.3931 11.0824 60.6967 10.7423 60.4538 10.1594Z" fill="#0033FF"/>
<path d="M58.0976 12.9522C58.0369 12.6729 57.8669 12.4057 57.624 12.1871C56.531 11.1913 54.5879 11.5678 54.4665 12.7943C54.345 14.0087 56.3367 15.0289 57.6726 14.0938C57.8304 13.948 58.2433 13.5837 58.0976 12.9522Z" fill="#0033FF"/>
<path d="M54.9038 15.9641C54.8795 15.7212 54.7702 15.4662 54.6002 15.2719C53.5922 14.0453 51.1877 14.3853 50.9084 15.7941C50.6533 17.1178 52.7057 18.1986 54.2966 17.1785C54.4666 17.0571 54.9888 16.6442 54.9038 15.9641Z" fill="#0033FF"/>
<path d="M55.3533 1.26898C54.6611 1.09896 53.7139 0.941084 53.6167 0.965372C53.641 0.977517 56.3734 1.82761 56.5677 1.71831C56.5677 1.69403 56.5435 1.66974 56.422 1.60902C56.3249 1.57258 56.0334 1.439 55.3533 1.26898Z" fill="#0033FF"/>
<path d="M57.3809 2.28992C56.7008 1.96202 55.8143 1.71914 55.6078 1.75557C55.3164 1.81629 56.4094 2.50851 57.1623 2.78783C57.7331 3.00643 58.2431 3.06715 58.1217 2.79998C58.0852 2.73925 57.9638 2.56924 57.3809 2.28992Z" fill="#0033FF"/>
<path d="M58.2674 3.75898C57.9274 3.47966 57.4173 3.21249 56.9801 3.09105C56.2029 2.87245 56.0571 3.1882 56.3122 3.58896C56.8344 4.42691 58.4496 4.99769 58.6803 4.42691C58.6803 4.3419 58.7167 4.12331 58.2674 3.75898Z" fill="#0033FF"/>
<path d="M57.9639 5.61703C57.8304 5.42272 57.6239 5.24056 57.3932 5.08269C56.3973 4.43904 55.3529 4.62121 55.4622 5.41058C55.5958 6.33354 57.3325 7.17149 58.049 6.43069C58.1097 6.33354 58.2918 6.06637 57.9639 5.61703Z" fill="#0033FF"/>
<path d="M56.5309 7.83929C56.4581 7.65712 56.3245 7.46282 56.1545 7.31708C55.1829 6.43056 53.5192 6.67344 53.4949 7.71784C53.4706 8.72581 55.2558 9.57591 56.3123 8.78653C56.4216 8.66509 56.7374 8.36149 56.5309 7.83929Z" fill="#0033FF"/>
<path d="M54.0657 10.3654C54.0293 10.1711 53.9079 9.94033 53.7621 9.77031C52.827 8.73805 50.7868 9.02951 50.5439 10.2196C50.3132 11.3369 52.232 12.2842 53.5921 11.4219C53.75 11.3005 54.175 10.9604 54.0657 10.3654Z" fill="#0033FF"/>
<path d="M50.7625 13.1709C50.7383 12.8916 50.6168 12.6244 50.3982 12.4058C49.3417 11.3493 47.0828 11.835 46.8885 13.1466C46.7064 14.3489 48.5402 15.2233 50.1068 14.3125C50.2889 14.1789 50.8111 13.8145 50.7625 13.1709Z" fill="#0033FF"/>
<path d="M54.7216 1.53627C54.1509 1.32982 53.3736 1.17194 53.3129 1.20838C53.2522 1.25695 54.3816 1.85202 55.0252 1.98561C55.0738 1.99775 55.5353 2.08276 55.3896 1.88845C55.3531 1.85202 55.2317 1.71843 54.7216 1.53627Z" fill="#0033FF"/>
<path d="M54.9645 2.39879C54.673 2.16805 54.2844 1.99803 54.0172 1.92516C53.325 1.71871 53.1914 1.9616 53.3736 2.27735C53.7379 2.94528 55.0738 3.39461 55.3045 2.93313C55.3045 2.86027 55.3288 2.6781 54.9645 2.39879Z" fill="#0033FF"/>
<path d="M54.5757 3.89285C54.4907 3.77141 54.3571 3.62568 54.2113 3.51638C53.3248 2.84845 52.3411 3.12777 52.4018 3.7957C52.4747 4.58507 53.9442 5.11942 54.5635 4.57293C54.6364 4.48792 54.8185 4.26932 54.5757 3.89285Z" fill="#0033FF"/>
<path d="M53.0336 5.77495C52.9972 5.61708 52.8879 5.44706 52.7543 5.31347C51.8921 4.45123 50.3376 4.86413 50.2648 5.75066C50.1919 6.60076 51.6978 7.25654 52.7179 6.58861C52.8393 6.5036 53.1551 6.23643 53.0336 5.77495Z" fill="#0033FF"/>
<path d="M50.4229 8.02188C50.4107 7.83972 50.3379 7.64541 50.2043 7.48753C49.4392 6.52814 47.4597 6.85603 47.1925 7.99759C46.9496 8.98127 48.5041 9.73421 49.84 8.96913C50.01 8.85983 50.4593 8.55622 50.4229 8.02188Z" fill="#0033FF"/>
<path d="M47.0222 10.5719C47.0344 10.3168 46.9494 10.074 46.7793 9.8675C45.9414 8.85953 43.7676 9.40602 43.549 10.6812C43.3668 11.7377 44.8727 12.4421 46.2936 11.6406C46.4879 11.507 46.9979 11.1669 47.0222 10.5719Z" fill="#0033FF"/>
<path d="M26.3647 10.6693C26.4133 10.6207 28.6964 8.20398 28.7207 8.17969C27.8585 8.95692 27.0691 9.79487 26.3647 10.6693Z" fill="#9900FF"/>
<path d="M30.1776 7.00161C29.5825 7.46309 28.9753 8.02172 29.0482 8.09459C29.2911 8.09459 31.9021 6.07865 31.9021 5.89648C31.8414 5.89648 31.6956 5.96935 31.392 6.16366C31.2342 6.24867 30.7727 6.54013 30.1776 7.00161Z" fill="#9900FF"/>
<path d="M33.6877 4.90033C32.8619 5.3861 32.4247 5.75042 32.4976 5.82329C32.534 5.85972 32.7769 5.83543 33.9428 5.17964C33.9549 5.1675 35.7522 4.13524 35.7401 3.98951C35.6794 3.96522 35.4972 4.02594 35.0843 4.19596C34.9022 4.26883 34.3557 4.51171 33.6877 4.90033Z" fill="#9900FF"/>
<path d="M23.292 16.3279C23.3041 16.3157 24.5307 13.6076 24.5671 13.3525C24.0449 14.3119 23.6077 15.3078 23.292 16.3279Z" fill="#9900FF"/>
<path d="M25.5389 11.9202C25.0652 12.6245 24.8102 13.2196 24.9438 13.256C25.2231 13.3289 26.9355 10.9001 26.8504 10.5479C26.814 10.39 26.4861 10.73 26.3768 10.8515C26.2675 10.9729 25.9275 11.3251 25.5389 11.9202Z" fill="#9900FF"/>
<path d="M28.235 9.21134C27.6642 9.8307 27.4456 10.28 27.5428 10.3893C27.7978 10.7294 29.9595 8.70129 30.0324 8.05764C30.0445 7.94835 29.9716 7.81476 29.328 8.25195C29.1823 8.36125 28.7329 8.677 28.235 9.21134Z" fill="#9900FF"/>
<path d="M31.708 6.8069C31.0765 7.31696 30.8701 7.68128 30.9308 7.81487C31.1251 8.23992 33.5782 6.56402 33.8211 5.84751C33.8575 5.73821 33.8454 5.5439 32.9953 5.95681C32.8131 6.05396 32.2788 6.34542 31.708 6.8069Z" fill="#9900FF"/>
<path d="M22.5876 20.8095C22.5876 21.4046 22.6119 21.9997 22.6848 22.5947C22.6848 22.6069 22.6969 22.6312 22.6969 22.6433C22.782 22.5583 22.7698 19.668 22.6848 19.3887C22.6727 19.4008 22.6605 19.413 22.6605 19.4372V19.4494C22.6119 19.8866 22.5876 20.3481 22.5876 20.8095Z" fill="#9900FF"/>
<path d="M23.0494 17.7611C22.8916 18.5626 22.9037 19.2427 23.0737 19.2791C23.4502 19.3641 24.106 16.7896 23.8631 16.2188C23.8024 16.0852 23.6931 16.0366 23.438 16.5224C23.3773 16.6681 23.1952 17.081 23.0494 17.7611Z" fill="#9900FF"/>
<path d="M24.6522 14.7492C24.4214 15.3443 24.3971 15.8543 24.5793 16.0001C25.0529 16.3765 26.3038 14.3363 26.1945 13.3648C26.1823 13.2555 26.0852 12.7454 25.4172 13.4498C25.2958 13.5955 24.9193 14.0327 24.6522 14.7492Z" fill="#9900FF"/>
<path d="M27.3727 11.6768C26.9719 12.3205 26.9476 12.7698 27.1055 12.9277C27.5791 13.3892 29.1943 11.7861 29.34 10.7174C29.3886 10.3774 29.2186 9.97663 28.3442 10.6081C28.1863 10.7296 27.7492 11.0818 27.3727 11.6768Z" fill="#9900FF"/>
<path d="M30.7001 9.11478C30.3844 9.52769 30.2751 9.90416 30.4087 10.0863C30.8337 10.6571 32.8618 9.16336 33.0561 8.14325C33.129 7.76678 32.8739 7.52389 31.9267 8.04609C31.4166 8.3497 30.9916 8.71403 30.7001 9.11478Z" fill="#9900FF"/>
<path d="M24.5916 28.5089C24.6281 28.5817 24.6645 28.6303 24.7009 28.6546C24.7859 28.5696 23.5836 25.8614 23.3893 25.6914C23.3772 25.7036 23.3651 25.7157 23.4015 25.825V25.8371C23.7294 26.7601 24.118 27.6466 24.5916 28.5089Z" fill="#9900FF"/>
<path d="M23.11 24.1123C23.2922 24.9017 23.5837 25.5575 23.7901 25.5939C24.2394 25.6668 23.7658 22.9222 23.2558 22.485C23.11 22.3636 23.0129 22.485 22.9764 22.8493C22.9764 22.9951 22.9522 23.4201 23.11 24.1123Z" fill="#9900FF"/>
<path d="M23.4864 20.7966C23.4986 21.5738 23.7293 22.2175 24.0451 22.3389C24.7008 22.5697 25.0773 20.408 24.5551 19.4122C24.4944 19.2907 24.1422 18.7078 23.7293 19.5093C23.6564 19.6429 23.4743 20.0679 23.4864 20.7966Z" fill="#9900FF"/>
<path d="M25.053 17.4814C24.9194 18.1736 25.0773 18.7808 25.4295 18.9509C26.1703 19.303 27.1054 17.7 26.8625 16.4977C26.7411 15.8784 26.2674 15.5748 25.6238 16.2548C25.5145 16.3884 25.1866 16.7892 25.053 17.4814Z" fill="#9900FF"/>
<path d="M27.6398 14.3485C27.4334 14.895 27.482 15.405 27.7491 15.6358C28.4414 16.2308 29.8501 14.9557 29.9108 13.6684C29.9472 12.879 29.3765 12.5026 28.4535 13.1948C28.3321 13.3284 27.8827 13.7048 27.6398 14.3485Z" fill="#9900FF"/>
<path d="M30.9915 11.4342C30.7486 11.8957 30.7243 12.3207 30.955 12.5636C31.5623 13.2315 33.2746 12.1507 33.5418 10.9363C33.6996 10.2319 33.1896 9.67327 31.9994 10.3776C31.8173 10.4991 31.3072 10.8513 30.9915 11.4342Z" fill="#9900FF"/>
<path d="M28.6233 33.5607C28.6962 33.6336 28.8783 33.7914 28.9512 33.8279L28.9633 33.8157C28.8662 33.6457 26.7895 31.4476 26.5588 31.3262L26.5466 31.3383C26.5709 31.3869 26.6074 31.4355 26.7166 31.5812L26.7531 31.6298C27.3239 32.2856 27.9554 32.9414 28.6233 33.5607Z" fill="#9900FF"/>
<path d="M25.6967 29.9536C26.1946 30.6823 26.7775 31.2774 26.9597 31.2409C27.3361 31.1559 25.7574 28.7149 25.1866 28.4963C24.9559 28.4113 25.0652 28.7392 25.1016 28.8485C25.138 28.97 25.2716 29.3464 25.6967 29.9536Z" fill="#9900FF"/>
<path d="M24.871 27.1366C25.1989 27.8167 25.6725 28.3632 26.0004 28.3996C26.6319 28.4603 26.1825 26.578 25.3446 25.7158C25.2717 25.6429 24.6645 25.0235 24.5431 25.8008C24.5431 25.9465 24.5188 26.3958 24.871 27.1366Z" fill="#9900FF"/>
<path d="M25.1017 23.8207C25.2474 24.5129 25.636 25.108 26.061 25.2658C26.8869 25.5937 27.2512 24.1607 26.6561 22.9463C26.2796 22.1691 25.5996 21.829 25.1988 22.5577C25.1259 22.7034 24.9559 23.1285 25.1017 23.8207Z" fill="#9900FF"/>
<path d="M26.559 20.6511C26.5955 21.1976 26.8383 21.6712 27.1905 21.902C28.0528 22.4728 29.0121 21.3798 28.8178 20.0318C28.6721 18.9509 27.7734 18.3437 26.9841 19.1938C26.8626 19.3638 26.4983 19.8496 26.559 20.6511Z" fill="#9900FF"/>
<path d="M29.0364 17.2028C28.9514 17.7371 29.0971 18.2108 29.4372 18.4901C30.2751 19.1702 31.6353 18.2351 31.7081 16.9235C31.7689 15.8062 30.7973 15.1383 29.7165 15.9884C29.5829 16.122 29.1457 16.5227 29.0364 17.2028Z" fill="#9900FF"/>
<path d="M32.2666 14.2394C32.1573 14.7738 32.3759 15.0895 32.5216 15.2231C33.311 16.0246 35.0476 15.1381 35.2419 13.8387C35.3998 12.8064 34.404 12.1749 33.1774 12.9643C32.6674 13.3286 32.3638 13.7658 32.2666 14.2394Z" fill="#9900FF"/>
<path d="M34.2585 37.4834C34.38 37.5441 34.9629 37.8477 35.0358 37.8477C35.0115 37.8235 31.8904 35.9775 31.7568 35.9775C31.8176 36.0261 31.9026 36.099 32.0969 36.2326C32.1697 36.2811 32.2669 36.3419 32.3276 36.3783L32.364 36.4026C32.9834 36.7791 33.6028 37.1434 34.2585 37.4834Z" fill="#9900FF"/>
<path d="M30.3967 34.8842C31.0768 35.4064 31.9512 35.965 32.0726 35.8921C32.109 35.6735 29.6438 33.7183 29.2794 33.6697C29.1216 33.6455 29.3159 33.8762 29.3887 33.9734C29.4859 34.0827 29.7773 34.3984 30.3967 34.8842Z" fill="#9900FF"/>
<path d="M28.3928 32.4309C29 33.0867 29.7772 33.6332 30.0565 33.5968C30.5909 33.5361 29.0121 31.5808 28.077 31.1437C27.8827 31.0465 27.567 30.9615 27.6884 31.3987C27.737 31.5323 27.8706 31.8723 28.3928 32.4309Z" fill="#9900FF"/>
<path d="M27.4696 29.6988C27.9068 30.391 28.599 30.9618 29.0483 30.9982C29.7041 31.0468 29.4734 29.8688 28.6233 28.9215C28.0039 28.2293 27.2267 27.9136 27.1053 28.5694C27.1053 28.7029 27.0931 29.0794 27.4696 29.6988Z" fill="#9900FF"/>
<path d="M27.7127 26.7233C27.9313 27.3183 28.417 27.8527 28.9028 28.047C29.7893 28.4113 30.2873 27.5491 29.8379 26.4439C29.3764 25.3388 28.1985 24.6709 27.6884 25.521C27.6398 25.6546 27.4698 26.0553 27.7127 26.7233Z" fill="#9900FF"/>
<path d="M29.0728 23.5541C29.1699 24.0884 29.4735 24.562 29.9107 24.8414C30.9187 25.4729 31.951 24.6835 31.7566 23.4205C31.5623 22.1696 30.2508 21.3438 29.3764 22.2911C29.2671 22.4247 28.9513 22.8497 29.0728 23.5541Z" fill="#9900FF"/>
<path d="M31.4529 20.2141C31.4529 20.6999 31.6715 21.1614 32.0358 21.465C33.0559 22.2787 34.5375 21.4528 34.5254 20.0806C34.5132 18.8418 33.1652 18.0039 32.0115 18.939C31.8779 19.0726 31.4529 19.4976 31.4529 20.2141Z" fill="#9900FF"/>
<path d="M34.6345 16.947C34.5738 17.5056 34.841 17.87 35.011 18.04C35.9825 18.9994 37.8649 18.2222 37.9742 16.8256C38.0714 15.6354 36.7233 14.8582 35.3753 15.7447C35.2175 15.8662 34.7074 16.2669 34.6345 16.947Z" fill="#9900FF"/>
<path d="M45.7955 40.9929C45.0669 40.8958 44.5568 40.8229 43.8282 40.7015L43.646 40.665C44.3625 40.7986 45.079 40.9079 45.7955 40.9929Z" fill="#9900FF"/>
<path d="M40.5736 39.9602C41.5694 40.2395 42.3953 40.4095 42.5167 40.4338C40.6586 39.948 40.6586 39.948 40.5129 39.9116C39.93 39.7416 39.3956 39.5716 39.1285 39.4987C38.6063 39.3408 38.6063 39.3408 38.5698 39.3408C38.667 39.3894 38.8613 39.4501 39.007 39.4987C39.2378 39.5594 39.7964 39.7416 40.5736 39.9602Z" fill="#9900FF"/>
<path d="M36.8084 38.6004C37.6949 38.9769 38.6543 39.3048 38.7393 39.2805C38.7151 39.2562 35.3997 37.7018 35.1689 37.7625C35.1932 37.8111 35.2782 37.8596 35.4726 37.9689C35.6061 38.0418 36.0312 38.2725 36.8084 38.6004Z" fill="#9900FF"/>
<path d="M33.8213 36.8272C34.72 37.3737 35.6551 37.7623 35.7644 37.6894C35.983 37.5315 33.2384 35.8313 32.7162 35.7828C32.4976 35.7706 32.6797 35.9649 32.7526 36.0499C32.8376 36.135 33.1169 36.4021 33.8213 36.8272Z" fill="#9900FF"/>
<path d="M31.8051 34.6783C32.5217 35.2976 33.481 35.7956 33.7725 35.7105C34.2097 35.577 32.8495 34.1561 31.7809 33.6339C31.6837 33.5853 30.8822 33.2088 31.0401 33.7675C31.0765 33.8646 31.2101 34.1804 31.8051 34.6783Z" fill="#9900FF"/>
<path d="M30.8704 32.213C31.344 32.7959 32.0848 33.306 32.5949 33.391C33.3964 33.5246 33.2385 32.6623 32.5584 31.8608C31.7934 30.9743 30.6154 30.4764 30.4453 31.1929C30.4332 31.3143 30.4211 31.6422 30.8704 32.213Z" fill="#9900FF"/>
<path d="M31.0886 29.4559C31.3558 29.966 31.8537 30.4274 32.3638 30.646C33.3353 31.0468 33.9425 30.4639 33.5782 29.4802C33.141 28.3022 31.5623 27.44 30.9793 28.3386C30.9186 28.4722 30.7607 28.8365 31.0886 29.4559Z" fill="#9900FF"/>
<path d="M32.4001 26.4688C32.5336 26.9181 32.8615 27.331 33.2866 27.5982C34.4039 28.2904 35.5818 27.6711 35.3875 26.4809C35.1811 25.2179 33.5416 24.3071 32.6065 25.2544C32.5094 25.4001 32.2058 25.8008 32.4001 26.4688Z" fill="#9900FF"/>
<path d="M34.7197 23.2864C34.7926 23.8572 35.1569 24.2215 35.3634 24.3794C36.4806 25.2659 38.1322 24.6223 38.1079 23.2986C38.0958 21.987 36.3956 21.0155 35.1812 22.0113C35.0355 22.1449 34.6226 22.5699 34.7197 23.2864Z" fill="#9900FF"/>
<path d="M37.8288 19.9474C37.841 20.3117 37.9988 20.6882 38.266 20.9675C39.3347 22.0605 41.3992 21.429 41.5207 19.9717C41.63 18.648 39.9298 17.7007 38.4968 18.6722C38.3267 18.8058 37.8167 19.2309 37.8288 19.9474Z" fill="#9900FF"/>
<path d="M44.5078 40.7986C45.5279 40.9687 46.4145 41.0537 46.5602 41.0658C45.4308 40.9201 45.2486 40.8958 44.52 40.7622C43.937 40.6651 43.3906 40.5436 43.0991 40.495C42.5405 40.3857 42.5405 40.3857 42.4797 40.3857C42.5526 40.41 42.7226 40.4465 42.9048 40.495C43.1234 40.5436 43.682 40.6651 44.5078 40.7986Z" fill="#9900FF"/>
<path d="M40.6824 39.8511C41.5568 40.1183 42.4433 40.3247 42.6983 40.349L42.7105 40.3369C42.6862 40.3247 39.3465 39.1953 39.0429 39.1953C39.0429 39.1953 39.0308 39.2075 39.0308 39.2196C39.0672 39.256 39.1279 39.2925 39.3101 39.3653C39.4437 39.4261 39.8687 39.6082 40.6824 39.8511Z" fill="#9900FF"/>
<path d="M37.6588 38.4551C38.5453 38.8801 39.614 39.2323 39.7112 39.1352C39.6869 38.9409 37.1609 37.6171 36.5537 37.5807C36.3108 37.5686 36.4929 37.7386 36.5537 37.7993C36.6508 37.8843 36.9301 38.115 37.6588 38.4551Z" fill="#9900FF"/>
<path d="M35.6306 36.6575C36.3714 37.1797 37.3915 37.6169 37.6951 37.5319C38.108 37.4226 37.0151 36.4025 35.9342 35.8681C35.4242 35.6131 34.7077 35.4066 34.8412 35.856C34.8898 35.9531 35.0234 36.2203 35.6306 36.6575Z" fill="#9900FF"/>
<path d="M34.7075 34.4832C35.1689 34.9569 35.8854 35.3941 36.4198 35.5034C37.2213 35.6734 37.2577 35.1269 36.7841 34.4954C36.0433 33.5117 34.4524 32.8073 34.246 33.5603C34.2338 33.6696 34.2217 33.9732 34.7075 34.4832Z" fill="#9900FF"/>
<path d="M34.9141 31.9942C35.1813 32.4193 35.6428 32.7957 36.1407 33.0143C37.1486 33.4515 37.8773 33.0022 37.5858 32.1278C37.2094 30.9984 35.3999 30.0876 34.7684 30.9498C34.7198 31.0834 34.5619 31.4234 34.9141 31.9942Z" fill="#9900FF"/>
<path d="M36.2379 29.2255C36.3593 29.5413 36.6143 29.857 36.9179 30.0878C38.0716 30.95 39.5168 30.5371 39.3954 29.3713C39.2739 28.1447 37.4037 27.1367 36.3957 28.084C36.2865 28.2297 35.995 28.594 36.2379 29.2255Z" fill="#9900FF"/>
<path d="M38.5449 26.226C38.6056 26.5175 38.7635 26.8089 39.0064 27.0397C40.1115 28.1205 42.0303 27.7197 42.1275 26.3839C42.2125 25.0844 40.2694 24.0036 38.9578 24.9994C38.8242 25.1452 38.3992 25.5459 38.5449 26.226Z" fill="#9900FF"/>
<path d="M41.6539 23.0197C41.6782 23.3355 41.8239 23.6391 42.0547 23.882C43.1355 25.0357 45.3215 24.6106 45.5522 23.1898C45.7708 21.8296 43.767 20.7002 42.249 21.7324C42.1033 21.8782 41.5932 22.3032 41.6539 23.0197Z" fill="#9900FF"/>
<path d="M44.6659 40.7379C45.5646 40.9079 46.4997 41.0293 46.6333 41.0293C46.6211 41.0293 43.3543 40.3493 43.3057 40.3371C43.0507 40.2885 43.0386 40.2885 42.99 40.3007C43.0386 40.325 43.0993 40.3493 43.2815 40.41C43.4272 40.4586 43.8765 40.58 44.6659 40.7379Z" fill="#9900FF"/>
<path d="M41.618 39.7542C42.3466 40.0214 43.4639 40.3129 43.5975 40.2521C43.5125 40.0943 40.8893 39.0377 40.4521 39.0742C40.2943 39.0863 40.4521 39.1956 40.5129 39.2442C40.61 39.317 40.8893 39.4871 41.618 39.7542Z" fill="#9900FF"/>
<path d="M39.5897 38.3209C40.3062 38.7338 41.3141 39.0981 41.5934 39.0374C41.9578 38.9524 40.9255 38.1509 40.0268 37.738C39.3468 37.4222 38.6788 37.3008 38.8003 37.6651C38.8489 37.738 38.9703 37.9687 39.5897 38.3209Z" fill="#9900FF"/>
<path d="M38.6668 36.487C39.1161 36.8999 39.8205 37.2643 40.3305 37.3614C41.0592 37.495 41.1199 37.0821 40.7677 36.5963C40.1241 35.7098 38.436 34.9933 38.2053 35.6855C38.2053 35.7827 38.181 36.0499 38.6668 36.487Z" fill="#9900FF"/>
<path d="M38.9098 34.2892C39.0919 34.5443 39.3712 34.7993 39.687 34.9936C40.7678 35.6494 41.7879 35.3944 41.5936 34.5321C41.3629 33.4877 39.4684 32.5283 38.7762 33.3663C38.7154 33.4756 38.5576 33.7792 38.9098 34.2892Z" fill="#9900FF"/>
<path d="M40.2698 31.7873C40.3912 32.0787 40.6341 32.3702 40.9499 32.5767C42.0671 33.3539 43.5123 32.9774 43.4394 31.9209C43.3666 30.8036 41.4599 29.8685 40.4398 30.7307C40.3305 30.8643 40.0269 31.2044 40.2698 31.7873Z" fill="#9900FF"/>
<path d="M42.6256 28.9944C42.6863 29.2737 42.8563 29.5408 43.0992 29.7594C44.1922 30.7553 46.1353 30.3788 46.2567 29.1522C46.3782 27.9378 44.3865 26.9177 43.0507 27.8528C42.8928 27.9985 42.4799 28.3629 42.6256 28.9944Z" fill="#9900FF"/>
<path d="M45.8076 25.9706C45.8319 26.2134 45.9412 26.4685 46.1112 26.6628C47.1192 27.8893 49.5237 27.5493 49.8031 26.1406C50.0581 24.8169 48.0057 23.736 46.4148 24.7561C46.2448 24.8897 45.7347 25.2905 45.8076 25.9706Z" fill="#9900FF"/>
<path d="M45.3702 40.6768C46.0624 40.8468 47.0097 41.0047 47.1068 40.9804C47.0825 40.9683 44.3501 40.1182 44.1558 40.2275C44.1558 40.2518 44.18 40.2761 44.3015 40.3368C44.3865 40.3732 44.6901 40.5068 45.3702 40.6768Z" fill="#9900FF"/>
<path d="M43.3299 39.6569C44.01 39.9848 44.8965 40.2277 45.103 40.1912C45.3944 40.1305 44.3014 39.4383 43.5485 39.159C42.9777 38.9404 42.4677 38.8797 42.5891 39.1468C42.6377 39.2076 42.7591 39.3776 43.3299 39.6569Z" fill="#9900FF"/>
<path d="M42.4559 38.1871C42.7959 38.4665 43.306 38.7336 43.7432 38.8551C44.5204 39.0737 44.6661 38.7579 44.4111 38.3572C43.8889 37.5192 42.2737 36.9484 42.043 37.5192C42.0309 37.5921 42.0066 37.8228 42.4559 38.1871Z" fill="#9900FF"/>
<path d="M42.7592 36.3293C42.8928 36.5236 43.0993 36.7058 43.33 36.8636C44.3258 37.5073 45.3702 37.3251 45.2609 36.5357C45.1273 35.6128 43.3907 34.7748 42.6742 35.5156C42.6135 35.6128 42.4313 35.8678 42.7592 36.3293Z" fill="#9900FF"/>
<path d="M44.1924 34.107C44.2653 34.2891 44.3988 34.4834 44.5689 34.6292C45.5404 35.5157 47.2042 35.2728 47.2284 34.2284C47.2527 33.2204 45.4675 32.3703 44.411 33.1597C44.2896 33.2811 43.9859 33.5848 44.1924 34.107Z" fill="#9900FF"/>
<path d="M46.6457 31.5692C46.6821 31.7635 46.8035 31.9943 46.9493 32.1643C47.8844 33.1966 49.9246 32.9051 50.1675 31.715C50.3982 30.5977 48.4794 29.6505 47.1193 30.5127C46.9614 30.6463 46.5364 30.9863 46.6457 31.5692Z" fill="#9900FF"/>
<path d="M49.9608 28.7632C49.9851 29.0426 50.1065 29.3097 50.3251 29.5283C51.3816 30.5849 53.6405 30.0991 53.8348 28.7875C54.0169 27.5853 52.1832 26.7109 50.6166 27.6217C50.4222 27.7553 49.9122 28.1317 49.9608 28.7632Z" fill="#9900FF"/>
<path d="M45.9895 40.4099C46.5603 40.6163 47.3375 40.7742 47.3982 40.7378C47.4589 40.6892 46.3295 40.0941 45.6859 39.9606C45.6373 39.9484 45.1758 39.8634 45.3215 40.0577C45.3701 40.0941 45.4916 40.2277 45.9895 40.4099Z" fill="#9900FF"/>
<path d="M45.7591 39.5482C46.0505 39.7789 46.4392 39.9489 46.7063 40.0218C47.3985 40.2283 47.5321 39.9854 47.35 39.6696C46.9856 39.0017 45.6498 38.5524 45.419 39.0138C45.419 39.0867 45.3947 39.2689 45.7591 39.5482Z" fill="#9900FF"/>
<path d="M46.1353 38.0544C46.2204 38.1759 46.3539 38.3216 46.4997 38.4309C47.3862 39.0988 48.3699 38.8195 48.3092 38.1516C48.2363 37.3622 46.7668 36.8279 46.1475 37.3744C46.0868 37.4594 45.9046 37.678 46.1353 38.0544Z" fill="#9900FF"/>
<path d="M47.6899 36.1596C47.7263 36.3175 47.8356 36.4875 47.9692 36.6211C48.8315 37.4834 50.3859 37.0705 50.4588 36.1839C50.5317 35.3338 49.0258 34.678 48.0057 35.346C47.8842 35.4431 47.5685 35.7103 47.6899 36.1596Z" fill="#9900FF"/>
<path d="M50.301 33.9254C50.3131 34.1075 50.386 34.3018 50.5196 34.4597C51.2847 35.4191 53.2642 35.0912 53.5313 33.9497C53.7742 32.966 52.2198 32.213 50.8839 32.9781C50.7017 33.0874 50.2645 33.391 50.301 33.9254Z" fill="#9900FF"/>
<path d="M53.6891 31.3629C53.677 31.6179 53.762 31.8608 53.932 32.0672C54.77 33.0752 56.9438 32.5287 57.1624 31.2536C57.3445 30.197 55.8387 29.4927 54.4178 30.2942C54.2356 30.4399 53.7256 30.7799 53.6891 31.3629Z" fill="#9900FF"/>
</svg>
