<svg width="694" height="735" viewBox="0 0 694 735" fill="none" xmlns="http://www.w3.org/2000/svg">
<path d="M504.272 627.36C504.272 627.36 445.781 524.706 459.284 498.525C472.787 472.343 507.266 519.418 507.266 519.418C507.266 519.418 477.279 423.674 493.777 381.846C510.274 340.018 538.764 381.846 540.261 411.448C541.759 441.051 534.258 491.533 534.258 491.533C534.258 491.533 546.264 387.135 574.754 418.413C603.244 449.691 538.764 554.199 538.764 554.199C538.764 554.199 582.254 529.83 580.743 561.163C579.232 592.497 528.269 620.354 528.269 620.354" fill="#FFCA05"/>
<path d="M504.766 608.211C504.766 608.211 450.644 557.716 477.018 535.091C503.393 512.467 517.266 559.46 517.266 559.46C517.266 559.46 488.117 414.965 535.303 409.731C582.488 404.498 547.789 535.078 547.789 535.078C547.789 535.078 588.037 479.376 585.263 524.707C582.488 570.037 522.816 608.28 522.816 608.28" stroke="#263238" stroke-miterlimit="10"/>
<path d="M531.347 599.021L494.78 559.391" stroke="#263238" stroke-miterlimit="10"/>
<path d="M523.737 602.071L533.641 486.23" stroke="#263238" stroke-miterlimit="10"/>
<path d="M522.212 593.677L554.974 550.242" stroke="#263238" stroke-miterlimit="10"/>
<path d="M569.603 585.602H468.433L478.557 704.931H559.479L569.603 585.602Z" fill="#263238"/>
<path d="M183.386 447.22C170.232 440.766 156.635 435.258 142.698 430.736C122.615 424.555 98.9196 430.214 98.3976 436.904C97.8757 443.594 101.447 440.531 106.131 447.784C110.816 455.037 108.7 471.987 115.404 487.441C122.107 502.895 142.176 510.615 142.176 510.615L183.386 447.22Z" fill="#FFCA05" stroke="#263238" stroke-linecap="round" stroke-linejoin="round"/>
<path opacity="0.3" d="M169.992 462.165C169.992 462.165 139.085 442.59 121.062 435.887C103.04 429.183 102.01 438.978 102.01 438.978C104.975 440.066 107.519 442.065 109.279 444.688C111.038 447.311 111.922 450.423 111.804 453.58C111.804 465.146 117.587 489.102 131.64 494.048C145.692 498.993 169.992 462.165 169.992 462.165Z" fill="black"/>
<path d="M390.527 484.037C398.605 480.969 402.483 471.45 399.188 462.777C395.893 454.103 386.674 449.559 378.596 452.628C370.518 455.696 366.641 465.215 369.935 473.888C373.23 482.562 382.45 487.106 390.527 484.037Z" fill="#FFCA05" stroke="#263238" stroke-linecap="round" stroke-linejoin="round"/>
<path d="M169.072 648.091L186.408 700.098C186.878 701.507 187.78 702.732 188.985 703.6C190.191 704.468 191.639 704.934 193.125 704.933H220.145C221.527 704.935 222.879 704.531 224.034 703.772C225.189 703.012 226.096 701.931 226.642 700.661L238.73 672.611" fill="#FFCA05"/>
<mask id="mask0_1619_44799" style="mask-type:luminance" maskUnits="userSpaceOnUse" x="169" y="648" width="70" height="57">
<path d="M169.072 648.089L186.408 700.096C186.878 701.505 187.78 702.73 188.986 703.598C190.191 704.466 191.639 704.932 193.125 704.931H220.145C221.527 704.933 222.88 704.529 224.035 703.77C225.19 703.01 226.096 701.929 226.642 700.659L238.73 672.609" fill="white"/>
</mask>
<g mask="url(#mask0_1619_44799)">
<path opacity="0.3" d="M177.768 648.089L192.109 700.096C192.38 701.401 193.073 702.582 194.08 703.455C195.088 704.329 196.355 704.847 197.686 704.931H220.09C221.32 704.868 222.501 704.422 223.466 703.656C224.431 702.89 225.133 701.843 225.475 700.659L235.502 672.609" fill="black"/>
</g>
<path d="M169.072 648.091L186.408 700.098C186.878 701.507 187.78 702.732 188.985 703.6C190.191 704.468 191.639 704.934 193.125 704.933H220.145C221.527 704.935 222.879 704.531 224.034 703.772C225.189 703.012 226.096 701.931 226.642 700.661L238.73 672.611" stroke="#263238" stroke-linecap="round" stroke-linejoin="round"/>
<path d="M299.459 648.091L282.137 700.098C281.667 701.507 280.765 702.732 279.56 703.6C278.354 704.468 276.906 704.934 275.42 704.933H248.428C247.046 704.935 245.693 704.531 244.538 703.772C243.383 703.012 242.476 701.931 241.93 700.661L229.842 672.611" fill="#263238"/>
<path d="M299.459 648.091L282.137 700.098C281.667 701.507 280.765 702.732 279.56 703.6C278.354 704.468 276.906 704.934 275.42 704.933H248.428C247.046 704.935 245.693 704.531 244.538 703.772C243.383 703.012 242.476 701.931 241.93 700.661L229.842 672.611" stroke="#263238" stroke-linecap="round" stroke-linejoin="round"/>
<path d="M356.865 648.091L339.529 700.098C339.059 701.507 338.157 702.732 336.951 703.6C335.746 704.468 334.298 704.934 332.812 704.933H305.792C304.41 704.935 303.057 704.531 301.902 703.772C300.747 703.012 299.841 701.931 299.295 700.661L287.207 672.611" fill="#FFCA05"/>
<mask id="mask1_1619_44799" style="mask-type:luminance" maskUnits="userSpaceOnUse" x="287" y="648" width="70" height="57">
<path d="M356.865 648.089L339.529 700.096C339.059 701.505 338.157 702.73 336.951 703.598C335.746 704.466 334.298 704.932 332.812 704.931H305.792C304.41 704.933 303.057 704.529 301.902 703.77C300.747 703.01 299.841 701.929 299.295 700.659L287.207 672.609" fill="white"/>
</mask>
<g mask="url(#mask1_1619_44799)">
<path opacity="0.3" d="M344.584 648.089L332.729 700.096C332.07 702.98 330.229 704.931 328.141 704.931H309.666C307.742 704.931 305.998 703.255 305.229 700.659L293.745 673.186" fill="black"/>
</g>
<path d="M356.865 648.091L339.529 700.098C339.059 701.507 338.157 702.732 336.951 703.6C335.746 704.468 334.298 704.934 332.812 704.933H305.792C304.41 704.935 303.057 704.531 301.902 703.772C300.747 703.012 299.841 701.931 299.295 700.661L287.207 672.611" stroke="#263238" stroke-linecap="round" stroke-linejoin="round"/>
<path d="M264.226 682.308C346.289 682.308 412.814 621.975 412.814 547.552C412.814 473.128 346.289 412.796 264.226 412.796C182.162 412.796 115.637 473.128 115.637 547.552C115.637 621.975 182.162 682.308 264.226 682.308Z" fill="#FFCA05"/>
<mask id="mask2_1619_44799" style="mask-type:luminance" maskUnits="userSpaceOnUse" x="115" y="412" width="298" height="271">
<path d="M264.226 682.31C346.289 682.31 412.814 621.977 412.814 547.554C412.814 473.13 346.289 412.798 264.226 412.798C182.162 412.798 115.637 473.13 115.637 547.554C115.637 621.977 182.162 682.31 264.226 682.31Z" fill="white"/>
</mask>
<g mask="url(#mask2_1619_44799)">
<path opacity="0.3" d="M366.563 455.477C375.276 472.757 379.816 491.839 379.819 511.192C379.819 585.617 313.293 645.948 231.23 645.948C200.692 646.103 170.759 637.43 145.033 620.975C170.94 655.742 214.801 678.669 264.541 678.669C344.214 678.669 408.776 620.137 408.776 547.924C408.693 511.783 392.566 479.131 366.563 455.477Z" fill="black"/>
</g>
<path d="M264.226 682.308C346.289 682.308 412.814 621.975 412.814 547.552C412.814 473.128 346.289 412.796 264.226 412.796C182.162 412.796 115.637 473.128 115.637 547.552C115.637 621.975 182.162 682.308 264.226 682.308Z" stroke="#263238" stroke-linecap="round" stroke-linejoin="round"/>
<path d="M400.314 559.642C397.072 586.785 384.558 611.415 365.711 630.866" stroke="#FFCA05" stroke-width="2" stroke-linecap="round" stroke-linejoin="round"/>
<path d="M397.855 517.839C400.047 526.93 401.154 536.249 401.152 545.6" stroke="#FFCA05" stroke-width="2" stroke-linecap="round" stroke-linejoin="round"/>
<path d="M227.384 421.203C239.627 418.341 252.16 416.903 264.734 416.917C272.783 416.916 280.822 417.503 288.786 418.675" stroke="#263238" stroke-width="4" stroke-linecap="round" stroke-linejoin="round"/>
<path d="M293.374 515.271C293.374 515.271 307.798 505.476 308.32 487.454C308.842 469.432 285.132 443.167 266.08 432.343C247.027 421.518 233.112 423.593 232.604 431.313C232.095 439.033 225.392 447.797 222.823 462.728C220.254 477.66 219.211 499.817 239.307 507.029" fill="#FFCA05"/>
<path d="M293.374 515.271C293.374 515.271 307.798 505.476 308.32 487.454C308.842 469.432 285.132 443.167 266.08 432.343C247.027 421.518 233.112 423.593 232.604 431.313C232.095 439.033 225.392 447.797 222.823 462.728C220.254 477.66 219.211 499.817 239.307 507.029" stroke="#263238" stroke-linecap="round" stroke-linejoin="round"/>
<path opacity="0.3" d="M262.344 509.487L265.297 509.926C277.962 511.753 282.413 503.484 282.042 491.066C281.534 473.552 258.36 436.463 248.566 431.312C238.772 426.161 235.695 433.373 235.695 433.373C235.695 433.373 237.068 434.293 232.247 450.296C230.021 457.686 221.738 483.456 229.939 494.885C237.192 504.981 250.668 507.742 262.344 509.487Z" fill="black"/>
<path opacity="0.3" d="M303.374 491.741H303.182C303.002 491.717 302.829 491.658 302.672 491.567C302.515 491.476 302.378 491.355 302.268 491.211C302.158 491.066 302.078 490.902 302.032 490.726C301.986 490.551 301.976 490.368 302.001 490.188C302.149 489.132 302.237 488.068 302.262 487.002C302.536 477.386 294.693 463.581 281.794 450.847C281.665 450.72 281.563 450.568 281.492 450.401C281.422 450.235 281.385 450.056 281.383 449.874C281.382 449.693 281.416 449.514 281.485 449.346C281.553 449.178 281.653 449.025 281.78 448.896C281.908 448.767 282.059 448.665 282.226 448.594C282.393 448.524 282.572 448.487 282.753 448.485C282.934 448.484 283.114 448.519 283.281 448.587C283.449 448.655 283.602 448.755 283.731 448.883C297.358 462.344 305.311 476.617 305.009 487.07C304.979 488.237 304.888 489.402 304.734 490.559C304.688 490.887 304.525 491.187 304.275 491.404C304.025 491.621 303.705 491.741 303.374 491.741Z" fill="black"/>
<path opacity="0.3" d="M295.984 508.306C295.724 508.307 295.469 508.234 295.249 508.096C295.029 507.958 294.853 507.76 294.741 507.526C294.628 507.291 294.585 507.03 294.615 506.772C294.646 506.513 294.749 506.269 294.913 506.067C297.177 503.294 298.985 500.178 300.27 496.836C300.399 496.496 300.659 496.22 300.991 496.071C301.323 495.922 301.701 495.91 302.042 496.04C302.383 496.169 302.658 496.428 302.807 496.761C302.957 497.093 302.968 497.471 302.839 497.812C301.451 501.428 299.494 504.799 297.042 507.798C296.914 507.956 296.753 508.083 296.57 508.171C296.387 508.259 296.187 508.305 295.984 508.306Z" fill="black"/>
<path opacity="0.3" d="M195.951 573.624C200.014 557.342 185.853 539.788 164.323 534.416C142.793 529.043 122.045 537.888 117.983 554.17C113.92 570.452 128.081 588.006 149.611 593.378C171.141 598.751 191.889 589.906 195.951 573.624Z" fill="black"/>
<path d="M194.017 570.668C198.08 554.386 183.92 536.832 162.389 531.46C140.859 526.087 120.112 534.932 116.049 551.214C111.986 567.496 126.147 585.05 147.677 590.422C169.208 595.795 189.955 586.95 194.017 570.668Z" fill="#FFCA05" stroke="#263238" stroke-linecap="round" stroke-linejoin="round"/>
<path d="M142.904 556.029C143.151 559.71 141.736 562.814 139.758 562.897C137.78 562.979 135.953 560.15 135.637 556.468C135.321 552.787 136.805 549.669 138.797 549.6C140.788 549.531 142.657 552.333 142.904 556.029Z" stroke="#263238" stroke-linecap="round" stroke-linejoin="round"/>
<path d="M170.13 562.855C170.377 566.55 168.962 569.641 166.984 569.724C165.006 569.806 163.179 566.976 162.863 563.281C162.547 559.586 164.031 556.495 166.022 556.413C168.014 556.33 169.841 559.16 170.13 562.855Z" stroke="#263238" stroke-linecap="round" stroke-linejoin="round"/>
<path d="M215.062 572.4C214.772 575.045 214.154 577.643 213.221 580.134C205.337 601.44 176.792 610.657 148.591 601.481" stroke="#263238" stroke-width="3" stroke-linecap="round" stroke-linejoin="round"/>
<path d="M210.46 570.382H219.21" stroke="#263238" stroke-width="3" stroke-linecap="round" stroke-linejoin="round"/>
<path d="M154.717 513.348C153.755 517.345 151.297 520.216 149.222 519.694C147.148 519.172 146.241 515.573 147.217 511.534C148.192 507.496 150.637 504.666 152.711 505.174C154.786 505.683 155.692 509.336 154.717 513.348Z" fill="#263238" stroke="#263238" stroke-linecap="round" stroke-linejoin="round"/>
<path d="M180.05 518.87C181.017 514.858 180.121 511.201 178.049 510.701C175.976 510.202 173.512 513.049 172.545 517.061C171.578 521.074 172.474 524.731 174.547 525.231C176.619 525.73 179.083 522.882 180.05 518.87Z" fill="#263238" stroke="#263238" stroke-linecap="round" stroke-linejoin="round"/>
<path d="M217.878 664.82L232.988 700.672C233.531 701.955 234.439 703.049 235.599 703.818C236.759 704.588 238.121 704.999 239.513 704.999H266.986C268.366 704.997 269.715 704.594 270.869 703.837C272.023 703.081 272.931 702.005 273.484 700.741L289.968 662.649H289.253" fill="#FFCA05"/>
<mask id="mask3_1619_44799" style="mask-type:luminance" maskUnits="userSpaceOnUse" x="217" y="662" width="73" height="43">
<path d="M217.878 664.821L232.988 700.673C233.531 701.956 234.439 703.05 235.599 703.819C236.759 704.589 238.121 705 239.513 705H266.986C268.366 704.998 269.715 704.594 270.869 703.838C272.023 703.082 272.931 702.006 273.484 700.742L289.968 662.65H289.253" fill="white"/>
</mask>
<g mask="url(#mask3_1619_44799)">
<path opacity="0.3" d="M249.802 660.245C241.093 660.245 230.955 661.386 222.754 659.49L236.876 700.603C237.212 701.798 237.913 702.857 238.881 703.633C239.849 704.409 241.035 704.862 242.274 704.931H264.912C266.136 704.863 267.309 704.417 268.268 703.654C269.228 702.891 269.927 701.849 270.269 700.672L283.937 658.734L278.443 659.49C261.011 661.386 261.464 660.245 249.802 660.245Z" fill="black"/>
</g>
<path d="M217.878 664.82L232.988 700.672C233.531 701.955 234.439 703.049 235.599 703.818C236.759 704.588 238.121 704.999 239.513 704.999H266.986C268.366 704.997 269.715 704.594 270.869 703.837C272.023 703.081 272.931 702.005 273.484 700.741L289.968 662.649H289.253" stroke="#263238" stroke-linecap="round" stroke-linejoin="round"/>
<path d="M629.201 1.70893L520.282 158.639C520.282 158.639 510.967 180.852 499.506 197.335C488.045 213.817 455.907 230.3 455.907 230.3C455.907 230.3 453.051 261.099 443.737 271.851C434.422 282.603 414.355 276.164 414.355 276.164C414.355 276.164 405.75 285.478 396.435 289.771C387.121 294.064 358.468 278.31 358.468 278.31C358.468 278.31 384.245 306.254 387.83 315.569C391.414 324.883 397.873 332.76 386.412 341.366C374.951 349.971 362.032 337.782 362.032 337.782C362.032 337.782 367.783 356.411 351.3 359.995C334.817 363.579 316.858 327.739 309.69 315.569C302.521 303.399 281.746 257.515 278.181 255.368C274.617 253.222 269.596 241.761 276.764 231.009C283.932 220.257 334.778 151.471 340.508 146.567C346.239 141.664 455.907 115.65 455.907 115.65L497.478 1" fill="white"/>
<mask id="mask4_1619_44799" style="mask-type:luminance" maskUnits="userSpaceOnUse" x="273" y="1" width="357" height="360">
<path d="M629.201 1.70893L520.282 158.639C520.282 158.639 510.967 180.852 499.506 197.335C488.045 213.817 455.907 230.3 455.907 230.3C455.907 230.3 453.051 261.099 443.737 271.851C434.422 282.603 414.356 276.164 414.356 276.164C414.356 276.164 405.75 285.478 396.435 289.771C387.121 294.064 358.468 278.31 358.468 278.31C358.468 278.31 384.246 306.254 387.83 315.569C391.414 324.883 397.873 332.76 386.412 341.366C374.951 349.971 362.033 337.782 362.033 337.782C362.033 337.782 367.783 356.411 351.3 359.995C334.817 363.579 316.858 327.739 309.69 315.569C302.522 303.399 281.746 257.515 278.182 255.368C274.617 253.222 269.596 241.761 276.764 231.009C283.932 220.257 334.778 151.471 340.509 146.567C346.239 141.664 455.907 115.65 455.907 115.65L497.478 1" fill="white"/>
</mask>
<g mask="url(#mask4_1619_44799)">
<path opacity="0.2" d="M509.077 160.351C509.077 160.351 497.262 195.798 484.462 202.69C471.662 209.582 398.799 228.29 370.245 224.352C341.691 220.413 325.937 209.582 325.937 209.582C325.937 209.582 310.183 230.26 303.29 237.152C298.491 241.609 292.779 244.969 286.552 246.998C286.552 246.998 320.817 333.074 345.452 359.718C347.366 360.31 349.399 360.405 351.36 359.994C367.843 356.41 362.092 337.781 362.092 337.781C362.092 337.781 374.991 349.951 386.472 341.365C397.952 332.779 391.474 324.882 387.89 315.568C384.305 306.253 358.43 278.309 358.43 278.309C358.43 278.309 387.082 294.063 396.397 289.771C405.711 285.478 414.317 276.143 414.317 276.143C414.317 276.143 434.384 282.602 443.698 271.85C453.013 261.098 455.868 230.299 455.868 230.299C455.868 230.299 488.105 213.816 499.586 197.334C511.066 180.851 520.361 158.638 520.361 158.638L565.24 93.9873L509.077 160.351Z" fill="black"/>
</g>
<path d="M629.201 1.70893L520.282 158.639C520.282 158.639 510.967 180.852 499.506 197.335C488.045 213.817 455.907 230.3 455.907 230.3C455.907 230.3 453.051 261.099 443.737 271.851C434.422 282.603 414.355 276.164 414.355 276.164C414.355 276.164 405.75 285.478 396.435 289.771C387.121 294.064 358.468 278.31 358.468 278.31C358.468 278.31 384.245 306.254 387.83 315.569C391.414 324.883 397.873 332.76 386.412 341.366C374.951 349.971 362.032 337.782 362.032 337.782C362.032 337.782 367.783 356.411 351.3 359.995C334.817 363.579 316.858 327.739 309.69 315.569C302.521 303.399 281.746 257.515 278.181 255.368C274.617 253.222 269.596 241.761 276.764 231.009C283.932 220.257 334.778 151.471 340.508 146.567C346.239 141.664 455.907 115.65 455.907 115.65L497.478 1" stroke="#263238" stroke-linecap="round" stroke-linejoin="round"/>
<path d="M256.677 420.174L259.533 430.927L303.959 420.174L345.53 311.255L318.295 301.94L256.677 420.174Z" fill="white" stroke="#263238" stroke-linecap="round" stroke-linejoin="round"/>
<path d="M270.285 275.436L331.903 298.377L301.812 434.512L229.442 412.299L270.285 275.436Z" fill="white" stroke="#263238" stroke-linecap="round" stroke-linejoin="round"/>
<path d="M231.865 404.165L296.082 423.05L324.026 301.941L267.764 283.863L231.865 404.165Z" fill="#FFCA05" stroke="#263238" stroke-linecap="round" stroke-linejoin="round"/>
<path d="M267.508 313.815C264.714 313.076 261.793 312.941 258.942 313.422L242.164 369.644C244.592 372.01 247.58 373.724 250.848 374.626C264.003 378.249 278.418 367.556 283.026 350.759C287.634 333.961 280.643 317.419 267.508 313.815Z" fill="white" stroke="#263238" stroke-linecap="round" stroke-linejoin="round"/>
<path d="M265.125 323.13C265.041 323.092 264.971 323.026 264.929 322.944C264.886 322.862 264.872 322.768 264.889 322.677L265.637 319.762C265.683 319.64 265.7 319.508 265.687 319.378C265.675 319.247 265.633 319.121 265.564 319.009C265.496 318.898 265.403 318.803 265.293 318.732C265.183 318.661 265.058 318.616 264.928 318.601L261.797 317.852C261.674 317.802 261.542 317.782 261.41 317.793C261.278 317.804 261.15 317.845 261.037 317.914C260.924 317.983 260.829 318.077 260.759 318.19C260.689 318.302 260.647 318.429 260.635 318.561L260.025 321.574C260.002 321.664 259.948 321.743 259.872 321.797C259.796 321.851 259.704 321.877 259.611 321.869C258.544 321.76 257.468 321.76 256.401 321.869L250.671 341.109C255.141 345.757 262.112 348.08 261.186 351.979C260.655 354.185 258.646 355.918 255.121 355.13C254.384 355.032 253.677 354.775 253.048 354.379C252.418 353.983 251.882 353.456 251.475 352.833C251.067 352.211 250.799 351.509 250.687 350.773C250.576 350.038 250.624 349.288 250.828 348.573L251.005 347.785C251.104 347.352 250.848 346.997 250.237 346.859L249.036 346.564L245.629 357.946C246.998 359.19 248.597 360.154 250.336 360.782C250.424 360.821 250.496 360.889 250.539 360.976C250.583 361.062 250.594 361.161 250.572 361.255L249.863 363.755C249.809 363.878 249.785 364.011 249.794 364.145C249.802 364.279 249.843 364.408 249.913 364.522C249.983 364.637 250.079 364.732 250.194 364.801C250.309 364.87 250.439 364.91 250.572 364.917L253.821 365.705C253.936 365.766 254.062 365.799 254.192 365.804C254.321 365.808 254.449 365.782 254.567 365.729C254.685 365.676 254.789 365.596 254.872 365.496C254.954 365.397 255.012 365.279 255.042 365.154L255.574 362.672C255.603 362.581 255.661 362.501 255.739 362.444C255.817 362.387 255.911 362.357 256.007 362.357C262.939 363.086 267.646 359.679 269.103 353.614C270.245 348.769 268.611 344.654 263.55 340.774C258.922 337.269 254.038 335.536 254.885 331.952C255.476 329.471 257.74 328.329 260.793 329.057C261.548 329.179 262.268 329.463 262.903 329.889C263.539 330.316 264.074 330.874 264.473 331.528C264.871 332.181 265.124 332.912 265.212 333.672C265.301 334.432 265.224 335.203 264.987 335.93L264.849 336.481C264.849 336.816 265.046 337.111 265.657 337.269L271.427 338.648C271.549 338.693 271.681 338.71 271.811 338.698C271.942 338.685 272.068 338.643 272.179 338.575C272.291 338.507 272.386 338.414 272.457 338.304C272.528 338.194 272.573 338.069 272.588 337.939L273.022 336.107C274.341 330.337 271.564 325.434 265.125 323.13Z" fill="#263238"/>
<path d="M321.15 203.773C321.15 203.773 329.756 216.672 331.194 228.153C332.415 237.938 330.126 247.84 324.734 256.096C320.441 262.536 316.149 268.266 312.564 278.31C308.98 288.353 308.272 302.669 303.25 309.818C298.228 316.966 295.373 324.134 302.521 330.593C309.67 337.052 328.319 336.324 338.362 317.695C348.405 299.066 354.844 278.999 361.284 271.831C367.723 264.663 388.519 248.2 388.519 248.2C388.519 248.2 445.115 240.323 455.867 230.299C466.619 220.276 475.934 193.041 475.934 193.041" fill="white"/>
<mask id="mask5_1619_44799" style="mask-type:luminance" maskUnits="userSpaceOnUse" x="298" y="193" width="178" height="142">
<path d="M321.15 203.772C321.15 203.772 329.756 216.671 331.194 228.152C332.415 237.937 330.126 247.839 324.734 256.096C320.441 262.535 316.149 268.265 312.564 278.309C308.98 288.352 308.272 302.668 303.25 309.817C298.228 316.965 295.373 324.133 302.521 330.592C309.67 337.052 328.319 336.323 338.362 317.694C348.405 299.065 354.844 278.998 361.284 271.83C367.723 264.662 388.519 248.199 388.519 248.199C388.519 248.199 445.115 240.322 455.867 230.298C466.619 220.275 475.934 193.04 475.934 193.04" fill="white"/>
</mask>
<g mask="url(#mask5_1619_44799)">
<path opacity="0.2" d="M471.661 202.689C471.661 202.689 441.137 222.382 417.506 228.29C393.875 234.198 379.106 234.198 370.244 246.013C361.383 257.829 352.521 295.244 340.705 302.137C328.89 309.029 326.921 284.413 310.182 289.337L309.631 289.534C307.996 297.214 306.558 305.091 303.25 309.837C298.229 317.005 295.373 324.153 302.522 330.612C309.67 337.071 328.319 336.343 338.362 317.714C348.405 299.084 354.845 279.018 361.284 271.85C367.724 264.682 388.519 248.219 388.519 248.219C388.519 248.219 445.115 240.342 455.867 230.318C462.366 224.253 468.333 211.925 472.035 203.103L471.661 202.689Z" fill="black"/>
</g>
<path d="M321.15 203.773C321.15 203.773 329.756 216.672 331.194 228.153C332.415 237.938 330.126 247.84 324.734 256.096C320.441 262.536 316.149 268.266 312.564 278.31C308.98 288.353 308.272 302.669 303.25 309.818C298.228 316.966 295.373 324.134 302.521 330.593C309.67 337.052 328.319 336.324 338.362 317.695C348.405 299.066 354.844 278.999 361.284 271.831C367.723 264.663 388.519 248.2 388.519 248.2C388.519 248.2 445.115 240.323 455.867 230.299C466.619 220.276 475.934 193.041 475.934 193.041" stroke="#263238" stroke-linecap="round" stroke-linejoin="round"/>
<path d="M298.937 239.615C298.937 239.615 317.586 249.639 331.194 238.178" stroke="#263238" stroke-linecap="round" stroke-linejoin="round"/>
<path d="M361.993 337.782L345.53 306.254" stroke="#263238" stroke-linecap="round" stroke-linejoin="round"/>
<path d="M414.316 276.163C414.316 276.163 427.215 265.41 426.486 241.76" stroke="#263238" stroke-linecap="round" stroke-linejoin="round"/>
<path d="M141.614 704.994L612.447 704.932" stroke="#263238" stroke-linecap="round" stroke-linejoin="round"/>
<path d="M100 705L121.402 704.997" stroke="#263238" stroke-linecap="round" stroke-linejoin="round"/>
</svg>
