<svg width="481" height="443" viewBox="0 0 481 443" fill="none" xmlns="http://www.w3.org/2000/svg">
<path d="M81.9802 259.364L12.5791 272.353L22.9628 327.837L92.3639 314.849L81.9802 259.364Z" fill="#F5F5F5"/>
<path d="M81.9976 259.382L81.6609 259.463L80.6409 259.657L76.877 260.392L62.6681 263.115L12.636 272.601L12.8298 272.316C15.8899 288.83 19.4803 307.762 23.2442 327.795L22.928 327.57L92.2896 314.636L92.1162 314.902C89.0561 298.194 86.4856 284.352 84.7006 274.652C83.8234 269.806 83.1298 266.002 82.6606 263.431C82.426 262.136 82.2525 261.146 82.1301 260.453C82.0077 259.759 81.9567 259.433 81.9567 259.433C81.9567 259.433 82.0384 259.759 82.1608 260.453L82.7422 263.38C83.242 265.981 83.9662 269.766 84.8944 274.601C86.7407 284.321 89.3723 298.204 92.5548 314.953L92.6058 315.167L92.3814 315.218L22.979 328.172L22.7138 328.223L22.6628 327.948C18.9295 307.915 15.39 288.983 12.3096 272.459V272.224L12.5544 272.173L62.7803 262.891L76.9484 260.3L80.6919 259.627L81.6405 259.463L81.9976 259.382Z" fill="#E0E0E0"/>
<path d="M80.1485 263.318L15.6201 275.395L24.696 323.891L89.2244 311.815L80.1485 263.318Z" fill="#EBEBEB"/>
<path d="M24.6729 323.909L41.5746 289.544L59.0578 305.793L66.6468 293.94L89.1995 311.842L24.6729 323.909Z" fill="#E0E0E0"/>
<path d="M60.7704 282.139C60.9585 283.144 60.8444 284.183 60.4425 285.123C60.0405 286.063 59.3688 286.863 58.5122 287.422C57.6557 287.981 56.6527 288.273 55.6301 288.262C54.6075 288.25 53.6112 287.936 52.7671 287.359C51.9231 286.781 51.2692 285.967 50.8881 285.018C50.507 284.069 50.4159 283.028 50.6261 282.027C50.8364 281.026 51.3387 280.11 52.0695 279.395C52.8003 278.679 53.7268 278.197 54.7318 278.008C55.3996 277.882 56.0856 277.89 56.7505 278.029C57.4155 278.169 58.0464 278.439 58.6072 278.822C59.168 279.206 59.6476 279.696 60.0188 280.265C60.39 280.834 60.6454 281.471 60.7704 282.139Z" fill="#E0E0E0"/>
<path d="M185.961 26.9051L150.43 223.201L295.767 249.509L331.299 53.2126L185.961 26.9051Z" fill="#FAFAFA"/>
<path d="M295.764 249.518C295.764 249.518 295.815 249.192 295.917 248.58L296.406 245.816C296.835 243.388 297.477 239.797 298.304 235.136C299.987 225.793 302.435 212.145 305.535 194.865L331.036 53.1842L331.24 53.4698L185.938 27.1838L186.254 26.9594C172.994 100.187 160.682 168.018 150.665 223.242L150.492 222.987L256.095 242.225L285.4 247.59L293.112 249.018C294.856 249.335 295.764 249.518 295.764 249.518L293.152 249.069L285.472 247.703L256.166 242.49L150.39 223.457H150.176V223.242C160.162 167.998 172.433 100.166 185.673 26.939V26.6738H185.948L331.342 52.9802L331.587 53.0312V53.2658C321.009 111.407 312.074 160.501 305.79 195.049L298.446 235.238C297.59 239.879 296.937 243.398 296.488 245.867C296.263 247.06 296.1 247.968 295.988 248.59L295.764 249.518Z" fill="#E0E0E0"/>
<path d="M259.946 58.8202L198.237 47.6504L188.506 101.409L250.215 112.579L259.946 58.8202Z" fill="#E0E0E0"/>
<path d="M309.164 67.7281L269.658 60.5771L268.388 67.5931L307.894 74.7441L309.164 67.7281Z" fill="#E0E0E0"/>
<path d="M300.055 132.914L187.298 112.504L186.028 119.52L298.785 139.93L300.055 132.914Z" fill="#E0E0E0"/>
<path d="M297.829 145.264L185.072 124.854L183.802 131.869L296.559 152.28L297.829 145.264Z" fill="#E0E0E0"/>
<path d="M295.595 157.612L182.838 137.202L181.568 144.218L294.325 164.628L295.595 157.612Z" fill="#E0E0E0"/>
<path d="M293.35 169.959L180.593 149.549L179.323 156.565L292.08 176.975L293.35 169.959Z" fill="#E0E0E0"/>
<path d="M291.115 182.298L178.358 161.888L177.088 168.904L289.846 189.314L291.115 182.298Z" fill="#E0E0E0"/>
<path d="M283.453 224.638L170.696 204.228L169.426 211.243L282.183 231.654L283.453 224.638Z" fill="#E0E0E0"/>
<path d="M238.03 185.446L176.131 174.241L174.861 181.257L236.76 192.461L238.03 185.446Z" fill="#E0E0E0"/>
<path d="M307.113 79.0846L267.606 71.9336L266.336 78.9495L305.843 86.1005L307.113 79.0846Z" fill="#E0E0E0"/>
<path d="M303.561 90.5851L264.216 83.3584L262.932 90.3458L302.278 97.5724L303.561 90.5851Z" fill="#E0E0E0"/>
<path d="M287.855 99.0383L263.495 94.6289L262.225 101.645L286.585 106.054L287.855 99.0383Z" fill="#E0E0E0"/>
<path d="M361.484 26.0004L348.948 26.5104L347.591 30.0193C347.204 30.9334 346.996 31.9134 346.979 32.9059C346.967 33.3448 347.076 33.7786 347.296 34.1586C347.516 34.5387 347.837 34.8502 348.224 35.0582C349.357 35.4195 350.544 35.5817 351.733 35.5376V36.5576L340.063 36.986V35.966C341.249 35.7607 342.329 35.156 343.124 34.2524C344.331 32.5798 345.283 30.7373 345.949 28.7851L357.404 0H357.904L371.868 28.5606C373.228 31.2807 374.302 32.9807 375.091 33.6608C375.821 34.2228 376.72 34.5212 377.641 34.5074V35.4662L360.474 36.1598V35.1908H361.188C362.193 35.2377 363.191 34.9971 364.065 34.4972C364.25 34.3555 364.396 34.1685 364.489 33.9543C364.582 33.74 364.619 33.5055 364.595 33.2732C364.579 32.9456 364.513 32.6224 364.401 32.3143C364.401 32.1613 364.065 31.5085 363.534 30.3865L361.484 26.0004ZM360.515 24.1031L354.742 12.0873L349.784 24.5316L360.515 24.1031Z" fill="#E0E0E0"/>
<path d="M385.223 100.117L327.89 119.267L343.201 165.106L400.533 145.956L385.223 100.117Z" fill="#F5F5F5"/>
<path d="M384.118 103.688L330.819 121.49L344.201 161.554L397.5 143.751L384.118 103.688Z" fill="#EBEBEB"/>
<path d="M344.205 161.572L354.507 130.451L371.236 142.181L376.275 131.237L397.501 143.773L344.205 161.572Z" fill="#E0E0E0"/>
<path d="M369.908 121.913C370.186 122.743 370.211 123.638 369.981 124.482C369.75 125.327 369.275 126.085 368.614 126.659C367.953 127.233 367.136 127.599 366.267 127.709C365.399 127.819 364.517 127.669 363.733 127.278C362.95 126.887 362.3 126.273 361.866 125.512C361.431 124.752 361.233 123.88 361.294 123.006C361.356 122.133 361.675 121.297 362.212 120.605C362.748 119.913 363.478 119.395 364.308 119.118C364.86 118.933 365.442 118.858 366.022 118.898C366.602 118.938 367.169 119.093 367.689 119.353C368.209 119.612 368.673 119.972 369.054 120.411C369.435 120.851 369.725 121.361 369.908 121.913Z" fill="#E0E0E0"/>
<path d="M386.813 46.8074L372.779 118.47L462.41 136.022L476.443 64.3597L386.813 46.8074Z" fill="#F5F5F5"/>
<path d="M476.46 64.3632L476.022 64.2918L474.757 64.0674L469.881 63.1392L451.521 59.6099L386.78 47.0534L387.066 46.8596C382.894 68.1883 378.12 92.6383 373.061 118.516L372.847 118.19L462.466 135.806L462.201 135.979C466.474 114.416 470.014 96.5347 472.493 84.0395C473.747 77.7867 474.726 72.8804 475.4 69.5245C475.736 67.8517 475.991 66.5767 476.175 65.6892C476.358 64.8018 476.46 64.3632 476.46 64.3632C476.46 64.3632 476.389 64.8018 476.226 65.6586C476.063 66.5155 475.828 67.8007 475.512 69.4531C474.869 72.7988 473.931 77.6949 472.737 83.9375C470.31 96.4837 466.831 114.426 462.649 136.071L462.598 136.295H462.384L372.704 118.741L372.438 118.69L372.489 118.424C377.59 92.5566 382.373 68.1067 386.556 46.778L386.607 46.5332L386.841 46.5842L451.725 59.3957L470.004 63.0474L474.828 64.0674L476.052 64.3224L476.46 64.3632Z" fill="#E0E0E0"/>
<path d="M389.029 51.9264L376.764 114.56L460.098 130.879L472.363 68.2457L389.029 51.9264Z" fill="#EBEBEB"/>
<path d="M376.764 114.569L413.495 81.3369L426.755 109.224L441.535 98.5957L460.1 130.89L376.764 114.569Z" fill="#E0E0E0"/>
<path d="M440.117 81.5915C439.864 82.8909 439.232 84.0862 438.3 85.0261C437.368 85.9661 436.178 86.6084 434.881 86.8719C433.583 87.1353 432.237 87.0081 431.012 86.5063C429.787 86.0045 428.739 85.1506 427.999 84.0527C427.259 82.9548 426.862 81.6622 426.857 80.3385C426.853 79.0147 427.241 77.7193 427.972 76.6161C428.704 75.5129 429.746 74.6515 430.968 74.1409C432.189 73.6303 433.534 73.4934 434.833 73.7475C435.696 73.9149 436.517 74.2506 437.249 74.7356C437.982 75.2205 438.611 75.8452 439.102 76.5737C439.593 77.3023 439.935 78.1205 440.109 78.9815C440.283 79.8425 440.286 80.7295 440.117 81.5915Z" fill="#E0E0E0"/>
<path d="M41.9521 7.07867L46.5831 61.1195L67.5445 66.801L108.203 62.0783L102.48 1.24414L41.9521 7.07867Z" fill="#F5F5F5"/>
<path d="M52.9781 56.2646L46.5928 61.12C49.0198 63.2242 51.8577 64.8012 54.9264 65.7509C59.0288 66.8922 63.3116 67.2384 67.544 66.7709C67.544 66.7709 57.864 65.1286 52.9781 56.2646Z" fill="#EBEBEB"/>
<path d="M97.5836 21.145C97.5836 21.247 87.3017 22.318 74.6024 23.5522C61.9032 24.7865 51.5805 25.7045 51.5703 25.5923C51.5601 25.4801 61.8522 24.3887 74.5616 23.185C87.2711 21.9814 97.5734 21.0124 97.5836 21.145Z" fill="#E0E0E0"/>
<path d="M98.1851 29.4278C98.1851 29.5298 87.9033 30.6111 75.204 31.8453C62.5047 33.0795 52.1821 33.9873 52.1719 33.8853C52.1617 33.7833 62.4537 32.7021 75.1632 31.4679C87.8727 30.2337 98.1749 29.3054 98.1851 29.4278Z" fill="#E0E0E0"/>
<path d="M99.1544 36.7617C99.1544 36.8637 88.8726 37.9449 76.1733 39.169C63.474 40.393 53.1616 41.3212 53.1514 41.209C53.1412 41.0968 63.423 40.036 76.1325 38.8018C88.842 37.5675 99.1442 36.6597 99.1544 36.7617Z" fill="#E0E0E0"/>
<path d="M99.7974 43.8505C99.7974 43.9423 89.5156 45.0235 76.8061 46.2578C64.0966 47.492 53.7944 48.41 53.7842 48.2978C53.774 48.1856 64.066 47.1146 76.7755 45.8906C89.485 44.6665 99.7872 43.7485 99.7974 43.8505Z" fill="#E0E0E0"/>
<path d="M480.207 442.313C480.207 442.455 372.696 442.578 240.113 442.578C107.531 442.578 0 442.455 0 442.313C0 442.17 107.48 442.037 240.113 442.037C372.747 442.037 480.207 442.16 480.207 442.313Z" fill="#263238"/>
<path d="M28.8955 101.063L71.8997 347.317L253.239 318.848L261.644 298.54L212.581 70.8398L42.6046 80.9789L28.8955 101.063Z" fill="#E0E0E0"/>
<path opacity="0.3" d="M71.8997 347.318L84.7826 327.581L41.7784 81.3164L28.8955 101.064L71.8997 347.318Z" fill="black"/>
<path d="M41.7793 81.3163L84.7835 327.58L261.645 298.54L216.958 56.3359L41.7793 81.3163Z" fill="#FAFAFA"/>
<path d="M41.7793 81.3264L216.927 56.1318H217.142V56.3358C229.678 123.974 245.202 207.809 261.91 298.489L261.961 298.765L261.686 298.816L258.769 299.295L84.8243 327.856H84.5795V327.611C59.2829 182.166 42.1567 83.4889 41.7793 81.3264C42.1567 83.4991 59.4869 182.135 85.0283 327.54L84.7427 327.346L258.677 298.785L261.594 298.306L261.37 298.622C244.662 207.932 229.219 124.096 216.744 56.4072L216.989 56.5806L41.7793 81.3264Z" fill="#263238"/>
<path d="M183.582 197.941C185.775 181.439 174.176 166.284 157.674 164.091C141.172 161.898 126.017 173.497 123.824 189.999C121.631 206.501 133.231 221.656 149.733 223.849C166.234 226.042 181.389 214.442 183.582 197.941Z" fill="#FFCA05"/>
<path d="M139.875 201.873L138.508 193.192L168.568 188.429L169.853 196.589C169.853 196.589 168.017 203.607 155.858 205.524C143.7 207.442 139.875 201.873 139.875 201.873Z" fill="white"/>
<path d="M133.765 193.244L155.216 197.058L173.821 186.593L152.339 183.196L133.765 193.244Z" fill="white"/>
<path d="M193.782 109.043L87.1968 125.887C85.8891 126.093 84.9966 127.321 85.2033 128.628L85.5631 130.905C85.7697 132.213 86.9973 133.106 88.3049 132.899L194.891 116.056C196.198 115.849 197.091 114.621 196.884 113.314L196.524 111.037C196.318 109.729 195.09 108.837 193.782 109.043Z" fill="#E0E0E0"/>
<path d="M176.919 126.773L109.325 137.455C108.017 137.662 107.125 138.889 107.331 140.197L107.691 142.474C107.898 143.781 109.125 144.674 110.433 144.467L178.027 133.786C179.335 133.579 180.228 132.351 180.021 131.044L179.661 128.767C179.454 127.459 178.227 126.567 176.919 126.773Z" fill="#E0E0E0"/>
<path d="M201.266 277.869L133.671 288.551C132.364 288.757 131.471 289.985 131.678 291.292L132.038 293.569C132.244 294.877 133.472 295.77 134.78 295.563L202.374 284.881C203.682 284.675 204.574 283.447 204.368 282.139L204.008 279.862C203.801 278.555 202.574 277.662 201.266 277.869Z" fill="#E0E0E0"/>
<path d="M252.537 305.385L251.68 305.548L249.15 305.987L239.368 307.619L203.045 313.576L80.3364 333.517L80.0712 333.568V333.303C78.3576 323.562 76.5521 313.362 74.7161 302.968C64.8423 247.121 55.9477 196.59 49.5113 159.981C46.3187 141.682 43.738 126.881 41.9428 116.64C41.0655 111.54 40.3821 107.552 39.9027 104.849C39.6783 103.502 39.5049 102.482 39.3825 101.789C39.2601 101.095 39.2295 100.769 39.2295 100.769C39.2295 100.769 39.3111 101.126 39.4437 101.789C39.5763 102.452 39.7599 103.512 40.0047 104.849C40.4943 107.552 41.2083 111.52 42.1366 116.62C43.9624 126.82 46.6043 141.651 49.8683 159.93C56.3455 196.528 65.3013 247.06 75.1853 302.896C77.0213 313.28 78.8166 323.491 80.5404 333.232L80.2242 333.007L202.974 313.239L239.317 307.446L249.109 305.905L251.649 305.518L252.537 305.385Z" fill="#263238"/>
<path d="M239.082 314.647L238.276 314.81L235.89 315.228L226.648 316.799L192.294 322.532L75.7051 341.83H75.4399V341.575L68.7384 305.191C58.7523 250.11 49.7149 200.282 43.1664 164.193C39.9227 146.159 37.2911 131.553 35.4754 121.454C34.588 116.416 33.8842 112.499 33.4354 109.826C33.211 108.51 33.0274 107.501 32.9152 106.766C32.803 106.032 32.752 105.746 32.752 105.746C32.752 105.746 32.8336 106.083 32.9662 106.766L33.5476 109.826C34.0372 112.488 34.7716 116.395 35.71 121.424L43.5642 164.132C50.1535 200.221 59.2522 250.049 69.2994 305.099C71.5638 317.574 73.7875 329.784 75.9193 341.524L75.6133 341.31L192.212 322.195L226.587 316.615L235.839 315.136L238.236 314.769L239.082 314.647Z" fill="#263238"/>
<path d="M46.0527 185.604L42.0645 191.234L51.7445 249.263L57.5076 251.222L46.0527 185.604Z" fill="#263238"/>
<path d="M73.6735 180.771L46.0615 185.595L57.5247 251.208L85.1367 246.384L73.6735 180.771Z" fill="#263238"/>
<path d="M74.5541 178.227L72.7554 178.541C71.7288 178.72 71.0417 179.698 71.2209 180.724L82.82 247.184C82.9992 248.211 83.9767 248.898 85.0034 248.718L86.802 248.405C87.8287 248.225 88.5157 247.248 88.3365 246.221L76.7375 179.761C76.5583 178.735 75.5807 178.048 74.5541 178.227Z" fill="#263238"/>
<path d="M41.279 233.075C38.2194 233.063 35.2676 231.943 32.9689 229.924C30.6702 227.905 29.18 225.122 28.7736 222.089C28.4228 219.498 28.8835 216.862 30.0923 214.544C31.3011 212.226 33.1986 210.339 35.5237 209.144C37.8488 207.948 40.4872 207.503 43.076 207.868C45.6648 208.234 48.0767 209.393 49.9798 211.185L67.2182 201.393C67.5482 201.206 67.9182 201.101 68.2973 201.087C68.6763 201.072 69.0532 201.15 69.3962 201.312C69.7392 201.474 70.0382 201.716 70.268 202.017C70.4979 202.319 70.6518 202.672 70.7169 203.045L74.797 226.394C74.8642 226.765 74.8411 227.147 74.7297 227.508C74.6183 227.869 74.4218 228.197 74.1569 228.466C73.8919 228.735 73.5662 228.937 73.2072 229.054C72.8482 229.17 72.4664 229.199 72.0939 229.138L52.6319 226.077C51.5782 228.186 49.9579 229.96 47.9527 231.2C45.9474 232.439 43.6365 233.096 41.279 233.095V233.075ZM41.279 209.808C40.7669 209.805 40.2552 209.842 39.749 209.92C37.0049 210.366 34.5388 211.854 32.8647 214.074C31.1905 216.293 30.4375 219.073 30.7626 221.834C31.0716 224.143 32.132 226.286 33.7802 227.933C35.4284 229.579 37.5727 230.637 39.882 230.943C42.1913 231.25 44.5373 230.787 46.5577 229.628C48.5782 228.468 50.1607 226.676 51.0611 224.527L51.3671 223.793L72.4203 227.189C72.4703 227.2 72.5221 227.197 72.5706 227.181C72.619 227.165 72.6622 227.136 72.6957 227.097C72.7319 227.062 72.7592 227.019 72.7751 226.971C72.7911 226.923 72.7954 226.872 72.7876 226.822L68.7075 203.464C68.6977 203.413 68.6759 203.365 68.644 203.324C68.6121 203.283 68.5709 203.251 68.5239 203.229C68.478 203.206 68.4274 203.194 68.3759 203.194C68.3245 203.194 68.2739 203.206 68.228 203.229L49.6126 213.756L49.0618 213.174C48.0646 212.121 46.8625 211.282 45.5294 210.71C44.1962 210.139 42.7602 209.845 41.3096 209.849L41.279 209.808Z" fill="#455A64"/>
<path d="M82.6929 246.316C82.6251 246.103 82.5773 245.884 82.5501 245.663C82.4583 245.173 82.3461 244.551 82.1931 243.786C81.8871 242.082 81.4586 239.706 80.9282 236.85C79.9082 230.944 78.4394 222.886 76.8481 213.981C75.2569 205.076 73.9003 196.997 72.8803 191.071C72.4008 188.195 72.0132 185.838 71.7378 184.125C71.6154 183.349 71.5236 182.717 71.4522 182.227C71.4045 182.01 71.3839 181.787 71.391 181.564C71.4604 181.775 71.5149 181.989 71.5542 182.207C71.6562 182.697 71.7888 183.319 71.9418 184.084C72.2682 185.787 72.7171 188.164 73.2577 191.01C74.3491 196.855 75.8077 204.943 77.3378 213.879C78.8678 222.814 80.2958 230.923 81.2546 236.789C81.7443 239.726 82.1115 242.103 82.3563 243.745C82.4685 244.571 82.5705 245.204 82.6113 245.653C82.6657 245.869 82.6931 246.092 82.6929 246.316Z" fill="#455A64"/>
<path d="M56.9566 251.446C56.8961 251.228 56.8484 251.006 56.8138 250.783C56.722 250.303 56.6098 249.681 56.467 248.906C56.1508 247.203 55.7224 244.826 55.1919 241.98C54.1719 236.064 52.7031 228.006 51.1119 219.101C49.5206 210.196 48.1742 202.118 47.144 196.201C46.6646 193.315 46.2769 190.958 46.0015 189.255C45.8791 188.47 45.7873 187.847 45.7159 187.358C45.6681 187.137 45.6475 186.911 45.6547 186.685C45.732 186.897 45.7901 187.115 45.8281 187.337C45.9199 187.827 46.0525 188.449 46.2055 189.214C46.5319 190.918 46.9808 193.294 47.5214 196.13C48.6128 201.985 50.0714 210.064 51.6015 219.009C53.1315 227.955 54.5595 236.043 55.5286 241.909C56.008 244.846 56.3854 247.223 56.62 248.875C56.7322 249.702 56.8342 250.334 56.875 250.773C56.9294 250.993 56.9568 251.219 56.9566 251.446Z" fill="#455A64"/>
<path d="M173.8 186.593C173.356 186.933 172.886 187.236 172.393 187.501L168.456 189.816C165.11 191.754 160.469 194.396 155.328 197.293L155.236 197.344H155.144H154.93C149.065 196.324 143.71 195.304 139.936 194.6L135.397 193.713C134.835 193.626 134.282 193.49 133.744 193.305C134.312 193.33 134.878 193.395 135.437 193.498L139.997 194.223C143.853 194.855 149.177 195.773 155.032 196.813H155.236H155.052C160.204 193.927 164.875 191.336 168.313 189.479L172.342 187.317C172.805 187.031 173.293 186.789 173.8 186.593Z" fill="#263238"/>
<path d="M189.286 305.517H276.253V351.153H189.286C184.511 351.153 179.932 349.256 176.555 345.88C173.179 342.504 171.282 337.924 171.282 333.149V323.51C171.282 318.735 173.179 314.156 176.555 310.78C179.932 307.404 184.511 305.507 189.286 305.507V305.517Z" fill="#FFCA05"/>
<path d="M253.516 305.517H436.967C437.759 305.517 438.52 305.831 439.08 306.392C439.641 306.952 439.955 307.713 439.955 308.505V310.107C439.955 310.899 439.641 311.66 439.08 312.22C438.52 312.78 437.759 313.095 436.967 313.095H253.516V305.517Z" fill="#FFCA05"/>
<path d="M253.516 343.584H436.967C437.359 343.584 437.748 343.661 438.11 343.812C438.473 343.962 438.803 344.182 439.08 344.459C439.358 344.737 439.578 345.066 439.728 345.429C439.878 345.792 439.955 346.18 439.955 346.573V348.174C439.955 348.967 439.641 349.727 439.08 350.287C438.52 350.848 437.759 351.163 436.967 351.163H253.516V343.584Z" fill="#FFCA05"/>
<path d="M434.376 343.584H274.324C272.322 343.584 270.34 343.19 268.49 342.423C266.64 341.657 264.96 340.533 263.545 339.117C262.13 337.701 261.007 336.02 260.242 334.17C259.477 332.32 259.084 330.337 259.085 328.335C259.085 324.293 260.691 320.417 263.548 317.559C266.406 314.701 270.282 313.096 274.324 313.096H434.376C432.255 317.898 431.16 323.09 431.16 328.34C431.16 333.59 432.255 338.782 434.376 343.584Z" fill="#F5F5F5"/>
<path opacity="0.3" d="M259.086 351.163H189.643C184.773 351.163 180.103 349.228 176.66 345.785C173.217 342.342 171.282 337.672 171.282 332.802V323.734C171.282 318.903 173.202 314.269 176.618 310.852C180.035 307.436 184.668 305.517 189.5 305.517H260.81C244.295 315.533 245.53 339.504 259.086 351.163Z" fill="black"/>
<path d="M414.935 329.753C414.935 329.906 382.08 330.028 341.565 330.028C301.049 330.028 268.194 329.906 268.194 329.753C268.194 329.6 301.039 329.478 341.565 329.478C382.09 329.478 414.935 329.6 414.935 329.753Z" fill="#263238"/>
<path d="M430.031 336.526C430.031 336.679 397.176 336.801 356.66 336.801C316.145 336.801 283.29 336.679 283.29 336.526C283.29 336.373 316.135 336.261 356.66 336.261C397.186 336.261 430.031 336.383 430.031 336.526Z" fill="#263238"/>
<path d="M425.583 320.145C425.583 320.298 392.728 320.42 352.212 320.42C311.697 320.42 278.832 320.298 278.832 320.145C278.832 319.992 311.677 319.869 352.212 319.869C392.748 319.869 425.583 320.012 425.583 320.145Z" fill="#263238"/>
<path d="M251.048 347.96C251.048 348.113 235.666 348.235 216.704 348.235C197.741 348.235 182.359 348.113 182.359 347.96C182.359 347.807 197.731 347.685 216.704 347.685C235.676 347.685 251.048 347.807 251.048 347.96Z" fill="#263238"/>
<path d="M251.048 309.312C251.048 309.465 235.666 309.587 216.704 309.587C197.741 309.587 182.359 309.465 182.359 309.312C182.359 309.159 197.731 309.036 216.704 309.036C235.676 309.036 251.048 309.159 251.048 309.312Z" fill="#263238"/>
<path d="M150.891 383.192H268.082V441.966H150.891C146.116 441.966 141.537 440.069 138.161 436.693C134.784 433.317 132.888 428.738 132.888 423.963V401.196C132.888 396.421 134.784 391.842 138.161 388.465C141.537 385.089 146.116 383.192 150.891 383.192Z" fill="#FFCA05"/>
<path d="M238.797 383.192H475.881C476.673 383.192 477.434 383.507 477.994 384.068C478.555 384.628 478.869 385.388 478.869 386.181V389.965C478.869 390.758 478.555 391.518 477.994 392.079C477.434 392.639 476.673 392.954 475.881 392.954H238.797V383.192Z" fill="#FFCA05"/>
<path d="M238.797 432.214H475.881C476.673 432.214 477.434 432.529 477.994 433.089C478.555 433.65 478.869 434.41 478.869 435.203V438.987C478.869 439.779 478.555 440.54 477.994 441.1C477.434 441.661 476.673 441.975 475.881 441.975H238.797V432.214Z" fill="#FFCA05"/>
<path d="M471.709 432.214H265.603C260.397 432.211 255.405 430.141 251.725 426.459C248.045 422.777 245.978 417.784 245.978 412.578C245.978 410.001 246.485 407.449 247.471 405.068C248.458 402.687 249.903 400.524 251.726 398.701C253.548 396.879 255.711 395.433 258.093 394.447C260.474 393.461 263.026 392.953 265.603 392.953H471.709C468.975 399.136 467.562 405.823 467.562 412.583C467.562 419.344 468.975 426.03 471.709 432.214Z" fill="#F5F5F5"/>
<path opacity="0.3" d="M245.957 441.965H150.656C148.323 441.965 146.013 441.506 143.858 440.613C141.703 439.72 139.744 438.411 138.095 436.76C136.446 435.11 135.138 433.151 134.246 430.996C133.354 428.84 132.896 426.53 132.897 424.197V401.613C132.897 396.744 134.832 392.074 138.275 388.631C141.718 385.187 146.388 383.253 151.258 383.253H248.16C226.913 396.085 228.504 426.961 245.957 441.965Z" fill="black"/>
<path d="M446.667 414.404C446.667 414.557 404.357 414.68 352.182 414.68C300.008 414.68 257.688 414.557 257.688 414.404C257.688 414.251 299.988 414.129 352.182 414.129C404.377 414.129 446.667 414.251 446.667 414.404Z" fill="#263238"/>
<path d="M466.119 423.126C466.119 423.279 423.808 423.401 371.624 423.401C319.439 423.401 277.129 423.279 277.129 423.126C277.129 422.973 319.429 422.86 371.624 422.86C423.818 422.86 466.119 423.034 466.119 423.126Z" fill="#263238"/>
<path d="M460.428 406.306C460.428 406.459 418.128 406.581 365.943 406.581C313.759 406.581 271.448 406.459 271.448 406.306C271.448 406.153 313.749 406.03 365.943 406.03C418.138 406.03 460.428 406.153 460.428 406.306Z" fill="#263238"/>
<path d="M235.604 437.844C235.604 437.997 215.805 438.12 191.376 438.12C166.946 438.12 147.147 437.997 147.147 437.844C147.147 437.691 166.946 437.579 191.376 437.579C215.805 437.579 235.604 437.701 235.604 437.844Z" fill="#263238"/>
<path d="M235.604 388.078C235.604 388.221 215.805 388.343 191.376 388.343C166.946 388.343 147.147 388.221 147.147 388.078C147.147 387.935 166.946 387.803 191.376 387.803C215.805 387.803 235.604 387.925 235.604 388.078Z" fill="#263238"/>
<path d="M206.626 349.756H303.181V383.417H206.626C203.109 383.417 199.736 382.02 197.249 379.533C194.762 377.046 193.365 373.673 193.365 370.156V363.016C193.365 359.499 194.762 356.127 197.249 353.64C199.736 351.153 203.109 349.756 206.626 349.756Z" fill="#455A64"/>
<path d="M279.394 349.756H471.321C472.152 349.756 472.948 350.086 473.535 350.673C474.123 351.26 474.453 352.057 474.453 352.887V354.56C474.453 355.391 474.123 356.187 473.535 356.774C472.948 357.362 472.152 357.692 471.321 357.692H279.394V349.766V349.756Z" fill="#455A64"/>
<path d="M279.394 375.48H471.321C472.152 375.48 472.948 375.81 473.535 376.398C474.123 376.985 474.453 377.781 474.453 378.612V380.285C474.453 381.115 474.123 381.912 473.535 382.499C472.948 383.086 472.152 383.416 471.321 383.416H279.394V375.491V375.48Z" fill="#455A64"/>
<path d="M468.589 375.48H294.165C291.805 375.48 289.541 374.543 287.872 372.876C286.202 371.208 285.262 368.945 285.26 366.585C285.26 364.224 286.198 361.959 287.868 360.289C289.538 358.619 291.803 357.681 294.165 357.681H468.589C464.128 363.617 464.128 369.55 468.589 375.48Z" fill="#F5F5F5"/>
<path opacity="0.3" d="M285.207 383.406H206.666C204.911 383.406 203.174 383.061 201.554 382.389C199.933 381.717 198.461 380.733 197.221 379.492C195.981 378.251 194.997 376.778 194.327 375.157C193.657 373.536 193.312 371.798 193.313 370.044V363.394C193.312 361.603 193.664 359.83 194.348 358.175C195.032 356.521 196.036 355.017 197.301 353.751C198.567 352.484 200.07 351.48 201.724 350.794C203.378 350.109 205.151 349.756 206.941 349.756H287.023C269.734 357.141 271.029 374.818 285.207 383.406Z" fill="black"/>
<path d="M448.279 365.178C448.279 365.331 413.904 365.454 371.512 365.454C329.12 365.454 294.745 365.331 294.745 365.178C294.745 365.025 329.11 364.913 371.512 364.913C413.914 364.913 448.279 365.035 448.279 365.178Z" fill="#263238"/>
<path d="M464.079 369.993C464.079 370.146 429.704 370.269 387.312 370.269C344.92 370.269 310.545 370.146 310.545 369.993C310.545 369.84 344.91 369.718 387.312 369.718C429.714 369.718 464.079 369.82 464.079 369.993Z" fill="#263238"/>
<path d="M276.823 380.061C276.823 380.214 260.737 380.336 240.888 380.336C221.038 380.336 204.952 380.214 204.952 380.061C204.952 379.908 221.038 379.785 240.888 379.785C260.737 379.785 276.823 379.908 276.823 380.061Z" fill="#263238"/>
<path d="M276.823 353.723C276.823 353.876 260.737 353.988 240.888 353.988C221.038 353.988 204.952 353.876 204.952 353.723C204.952 353.57 221.038 353.447 240.888 353.447C260.737 353.447 276.823 353.57 276.823 353.723Z" fill="#263238"/>
<path d="M472.157 349.755C472.157 349.908 413.129 350.03 340.34 350.03C267.551 350.03 208.481 349.908 208.481 349.755C208.481 349.602 267.49 349.479 340.309 349.479C413.129 349.479 472.157 349.592 472.157 349.755Z" fill="#263238"/>
<path d="M366.311 319.645V337.923L372.645 333.864L379.703 337.923V319.645H366.311Z" fill="#FFCA05"/>
<path d="M430.684 138.213L398.788 164.784L350.275 260.626L380.519 274.294L427.705 180.299L430.684 138.213Z" fill="#FFCA05"/>
<g opacity="0.7">
<path d="M427.705 180.269C427.336 180.36 426.95 180.365 426.578 180.282C426.207 180.2 425.859 180.033 425.563 179.794C425.266 179.555 425.029 179.25 424.87 178.905C424.711 178.559 424.634 178.181 424.645 177.8C423.639 178.972 422.291 179.798 420.791 180.163C419.29 180.529 417.713 180.414 416.281 179.837C414.849 179.259 413.634 178.247 412.807 176.944C411.98 175.64 411.583 174.109 411.67 172.568C410.326 173.291 408.814 173.644 407.288 173.591C405.763 173.538 404.279 173.08 402.988 172.264C401.698 171.448 400.648 170.303 399.946 168.948C399.243 167.593 398.914 166.075 398.992 164.55L430.612 138.183L427.705 180.269Z" fill="white"/>
</g>
<path d="M417.853 148.903C417.853 148.903 418.342 156.839 429.46 155.451L430.684 138.213L417.853 148.903Z" fill="#FFCA05"/>
<path opacity="0.3" d="M411.711 172.599L364.943 266.737L350.275 260.616L398.788 164.734L399.032 164.53C398.96 165.808 399.183 167.086 399.685 168.264C400.355 169.81 401.443 171.138 402.827 172.099C404.526 173.259 406.588 173.763 408.631 173.517C409.705 173.401 410.749 173.09 411.711 172.599Z" fill="black"/>
<path opacity="0.3" d="M424.727 177.831L376.684 272.54L380.56 274.295L427.705 180.269C427.065 180.385 426.405 180.26 425.853 179.917C425.301 179.573 424.896 179.037 424.716 178.412C424.701 178.219 424.704 178.024 424.727 177.831Z" fill="black"/>
<path d="M411.467 163.459C411.367 163.576 411.309 163.723 411.303 163.877C411.305 164.1 411.389 164.314 411.54 164.478C411.691 164.642 411.898 164.744 412.119 164.764C412.843 164.796 413.558 164.596 414.16 164.193C414.54 163.97 414.843 163.635 415.027 163.234C415.128 163.017 415.173 162.778 415.157 162.539C415.141 162.3 415.064 162.069 414.935 161.867C414.766 161.659 414.556 161.488 414.317 161.367C414.077 161.246 413.815 161.176 413.548 161.164C412.957 161.112 412.363 161.146 411.783 161.266C410.484 161.482 409.244 161.965 408.141 162.683C407.847 162.865 407.594 163.107 407.401 163.393C407.207 163.68 407.077 164.005 407.019 164.346C407.004 164.703 407.077 165.058 407.232 165.38C407.387 165.702 407.618 165.981 407.907 166.192C408.577 166.578 409.318 166.825 410.085 166.919C410.852 167.014 411.631 166.954 412.374 166.743C413.85 166.433 415.213 165.722 416.312 164.69C417.411 163.657 418.205 162.342 418.607 160.888C418.675 160.567 418.669 160.234 418.587 159.915C418.506 159.597 418.352 159.301 418.138 159.052C417.705 158.589 417.166 158.239 416.567 158.032C415.489 157.637 414.357 157.41 413.211 157.359C411.539 157.271 409.867 157.521 408.294 158.093C407.744 158.297 407.274 158.491 407.04 158.624C406.805 158.756 406.611 158.828 406.611 158.828C407.133 158.497 407.686 158.22 408.264 158.002C409.841 157.398 411.524 157.124 413.211 157.196C414.38 157.235 415.536 157.455 416.638 157.849C417.268 158.065 417.835 158.433 418.291 158.92C418.531 159.196 418.703 159.523 418.795 159.877C418.888 160.231 418.896 160.602 418.821 160.96C418.294 162.853 417.129 164.506 415.523 165.638C413.916 166.77 411.968 167.312 410.008 167.172C409.205 167.13 408.43 166.861 407.774 166.396C407.446 166.17 407.18 165.864 407.002 165.507C406.824 165.151 406.739 164.755 406.754 164.356C406.817 163.984 406.959 163.629 407.17 163.316C407.381 163.003 407.657 162.739 407.978 162.541C409.109 161.807 410.381 161.318 411.711 161.102C412.313 160.989 412.928 160.962 413.537 161.021C413.827 161.038 414.11 161.117 414.367 161.253C414.624 161.388 414.848 161.577 415.027 161.806C415.168 162.032 415.25 162.289 415.266 162.554C415.282 162.82 415.231 163.085 415.118 163.326C414.921 163.753 414.597 164.109 414.19 164.346C413.569 164.746 412.836 164.936 412.099 164.887C411.86 164.864 411.639 164.751 411.48 164.571C411.321 164.391 411.236 164.158 411.242 163.918C411.293 163.54 411.467 163.448 411.467 163.459Z" fill="white"/>
<path d="M428.582 162.929C428.582 162.929 428.113 162.857 427.277 162.929C426.085 163.007 424.92 163.319 423.849 163.847C422.273 164.655 420.795 165.64 419.443 166.784C417.797 168.233 415.922 169.398 413.894 170.232C411.803 170.951 409.546 171.036 407.406 170.477C405.665 170.017 404.063 169.134 402.745 167.906C401.852 167.059 401.11 166.066 400.552 164.969C400.34 164.584 400.162 164.181 400.021 163.765C400.08 163.86 400.131 163.959 400.174 164.061C400.266 164.265 400.419 164.561 400.623 164.928C401.221 165.959 401.974 166.892 402.857 167.692C404.166 168.883 405.745 169.737 407.457 170.181C409.56 170.709 411.771 170.617 413.822 169.916C415.824 169.093 417.677 167.949 419.31 166.529C420.676 165.38 422.176 164.4 423.778 163.612C424.868 163.083 426.056 162.788 427.266 162.745C427.711 162.75 428.153 162.812 428.582 162.929Z" fill="white"/>
<path d="M428.399 172.486C427.815 171.893 427.036 171.531 426.206 171.466C424.19 171.448 422.184 171.744 420.259 172.343C418.308 172.869 416.41 173.572 414.588 174.444C413.884 174.781 413.333 175.077 412.946 175.271C412.755 175.392 412.554 175.494 412.344 175.577C412.522 175.438 412.709 175.312 412.905 175.199C413.272 174.975 413.823 174.648 414.516 174.302C416.328 173.376 418.232 172.644 420.198 172.119C421.278 171.823 422.375 171.591 423.482 171.425C424.387 171.26 425.311 171.222 426.226 171.313C426.851 171.38 427.445 171.62 427.94 172.007C428.115 172.143 428.27 172.305 428.399 172.486Z" fill="white"/>
<path d="M415.159 179.249C415.469 178.927 415.811 178.636 416.179 178.382C417.088 177.714 418.133 177.255 419.239 177.036C419.793 176.923 420.365 176.935 420.914 177.07C421.463 177.206 421.974 177.463 422.412 177.821C422.672 178.042 422.889 178.308 423.054 178.607C423.116 178.714 423.157 178.831 423.177 178.953C422.941 178.571 422.648 178.228 422.31 177.933C421.878 177.608 421.381 177.379 420.853 177.261C420.326 177.143 419.779 177.139 419.249 177.25C418.187 177.473 417.178 177.903 416.281 178.515C415.922 178.781 415.547 179.026 415.159 179.249Z" fill="white"/>
<path d="M429.419 157.165C429.373 157.215 429.322 157.26 429.266 157.298C429.164 157.369 429.011 157.481 428.797 157.614C428.548 157.79 428.267 157.914 427.97 157.981C427.569 158.052 427.157 158.028 426.767 157.91C425.9 157.716 424.931 157.277 423.839 156.89C422.656 156.488 421.441 156.184 420.208 155.982C417.949 155.654 415.667 155.5 413.384 155.523H411.344C411.09 155.549 410.833 155.549 410.579 155.523L411.344 155.462L413.384 155.39C415.676 155.318 417.97 155.451 420.239 155.788C421.489 155.986 422.719 156.3 423.911 156.726C425.012 157.114 425.951 157.563 426.808 157.746C427.127 157.862 427.469 157.903 427.807 157.866C428.144 157.828 428.469 157.714 428.756 157.532C428.971 157.399 429.192 157.276 429.419 157.165Z" fill="white"/>
<path d="M463.224 243.786V327.336C463.244 327.496 463.322 327.644 463.443 327.751C463.564 327.858 463.72 327.917 463.882 327.917C464.043 327.917 464.199 327.858 464.32 327.751C464.442 327.644 464.519 327.496 464.539 327.336V243.786C464.519 243.626 464.442 243.478 464.32 243.371C464.199 243.264 464.043 243.205 463.882 243.205C463.72 243.205 463.564 243.264 463.443 243.371C463.322 243.478 463.244 243.626 463.224 243.786Z" fill="#FFCA05"/>
<path d="M468.589 308.924C468.589 309.856 468.313 310.768 467.795 311.543C467.277 312.318 466.541 312.922 465.68 313.278C464.819 313.635 463.871 313.728 462.957 313.546C462.043 313.365 461.203 312.916 460.544 312.257C459.885 311.598 459.436 310.758 459.255 309.844C459.073 308.93 459.166 307.982 459.523 307.121C459.879 306.26 460.483 305.524 461.258 305.006C462.033 304.488 462.945 304.212 463.877 304.212C465.126 304.212 466.325 304.708 467.209 305.592C468.093 306.476 468.589 307.675 468.589 308.924Z" fill="#FFCA05"/>
<path d="M462.571 311.363C462.571 311.363 459.133 314.8 458.103 324.868C457.073 334.936 456.849 339.964 456.849 339.964L466.11 340.535V333.334C466.11 333.671 467.946 338.71 467.946 338.71L475.27 336.302C475.27 336.302 472.669 309.537 462.571 311.363Z" fill="#FFCA05"/>
<path d="M414.396 250.62H257.108V307.323H414.396V250.62Z" fill="#263238"/>
<path d="M469.639 240.869H200.608V250.631H469.639V240.869Z" fill="#263238"/>
<path opacity="0.3" d="M257.108 291.237C257.108 291.237 304.886 274.101 335.752 267.777C366.618 261.452 414.396 263.554 414.396 263.554V250.65H257.108V291.237Z" fill="black"/>
<path opacity="0.3" d="M297.919 240.869H200.608V250.631H297.919V240.869Z" fill="black"/>
<path d="M467.691 250.651C467.691 250.804 407.867 250.926 334.068 250.926C260.27 250.926 200.445 250.804 200.445 250.651C200.445 250.498 260.249 250.386 334.068 250.386C407.887 250.386 467.691 250.478 467.691 250.651Z" fill="#455A64"/>
<path d="M297.766 250.702C297.398 247.407 297.398 244.082 297.766 240.787C298.119 244.083 298.119 247.406 297.766 250.702Z" fill="#455A64"/>
<path d="M320.196 307.333C320.053 307.333 319.931 296.266 319.931 282.618C319.931 268.97 320.053 257.913 320.196 257.913C320.339 257.913 320.471 268.97 320.471 282.618C320.471 296.266 320.349 307.333 320.196 307.333Z" fill="#455A64"/>
<path d="M92.658 376.97L110.743 369.667L124.554 333.589L142.966 343.075C142.966 343.075 141.191 346.635 137.386 355.458C135.907 358.855 131.041 368.351 129.063 372.972C127.231 377.244 124.215 380.902 120.37 383.514C116.525 386.126 112.013 387.583 107.367 387.711L90.3936 388.15L92.658 376.97Z" fill="#FFBF9D"/>
<path d="M83.6713 369.993L80.9785 367.116C80.4552 366.773 79.8393 366.599 79.2138 366.616L70.564 366.882C69.7565 366.96 68.9769 367.218 68.2829 367.639C67.589 368.059 66.9985 368.63 66.5553 369.309L63.4035 374.664C63.4035 374.664 61.292 378.326 61.5572 379.224C61.6753 379.597 61.9273 379.912 62.2645 380.11C62.6017 380.308 63.0002 380.374 63.3831 380.295C63.3831 380.295 63.6891 381.988 64.2501 382.335C64.5748 382.499 64.9294 382.595 65.2922 382.617C65.6551 382.64 66.0189 382.589 66.3615 382.468C66.5104 382.789 66.7524 383.058 67.0562 383.24C67.36 383.422 67.7115 383.508 68.065 383.488C68.2167 383.474 68.3668 383.446 68.5138 383.406C69.5338 383.09 70.003 381.101 70.003 381.101L74.3891 380.295C74.3891 380.295 80.6929 384.508 82.9165 387.262C85.1402 390.016 90.9543 387.915 90.9543 387.915L93.1269 377.51L83.6713 369.993Z" fill="#FFBF9D"/>
<path d="M77.2968 371.228C76.6815 371.418 76.0433 371.525 75.3995 371.544C74.2061 371.676 72.5231 371.728 70.6156 371.972L70.8196 371.819C70.4918 372.524 70.1169 373.205 69.6976 373.859C68.5457 375.687 67.145 377.345 65.5359 378.786C64.9038 379.421 64.1693 379.945 63.3633 380.337C63.3633 380.265 64.1283 379.653 65.2707 378.5C66.7708 377.009 68.1015 375.357 69.2386 373.574C69.6568 372.89 70.0342 372.217 70.3504 371.534L70.4116 371.401H70.5544C72.5027 371.187 74.1857 371.207 75.3792 371.166C76.0188 371.12 76.6614 371.141 77.2968 371.228Z" fill="#FF9A6C"/>
<path d="M77.4909 375.358C76.9805 375.607 76.4258 375.753 75.8588 375.786C74.45 375.981 73.0182 375.933 71.6257 375.643L71.9419 375.47C71.7585 376.004 71.5474 376.529 71.3095 377.041C70.5208 378.668 69.4145 380.121 68.0557 381.315C67.5252 381.841 66.8937 382.254 66.1992 382.529C66.7026 382.001 67.2338 381.5 67.7905 381.029C69.0479 379.806 70.0833 378.374 70.8505 376.796C71.0864 376.309 71.2942 375.808 71.4727 375.297L71.5543 375.072H71.7787C73.6612 375.424 75.5827 375.52 77.4909 375.358Z" fill="#FF9A6C"/>
<path d="M88.4869 377.49L80.7654 373.9C79.7292 373.323 78.5813 372.975 77.3993 372.88C76.135 372.991 74.915 373.4 73.8394 374.073L69.6777 376.215C69.4533 376.338 69.2085 376.481 69.1371 376.715C69.0657 376.95 69.2595 377.358 69.4941 377.592C70.5683 378.609 71.9742 379.202 73.4518 379.262C74.9294 379.322 76.3788 378.845 77.5319 377.919C78.0954 379.757 78.9756 381.483 80.1329 383.019C80.7247 383.789 81.5049 384.393 82.3983 384.774C83.2916 385.154 84.2679 385.298 85.2331 385.192" fill="#FFBF9D"/>
<path d="M85.2123 385.293C85.1482 385.325 85.0793 385.345 85.0083 385.354C84.8013 385.405 84.5891 385.433 84.3759 385.436C83.5656 385.439 82.767 385.243 82.0503 384.865C80.9402 384.284 79.9986 383.427 79.3166 382.376C78.4701 381.026 77.7854 379.581 77.2766 378.071L77.6642 378.163C77.0446 378.683 76.3281 379.076 75.556 379.317C74.7838 379.559 73.9715 379.645 73.1659 379.571C72.29 379.511 71.4359 379.271 70.6566 378.867C70.2576 378.656 69.8845 378.399 69.5448 378.102C69.3607 377.95 69.1932 377.779 69.045 377.592C68.9488 377.476 68.8797 377.339 68.8427 377.193C68.8056 377.046 68.8016 376.894 68.8308 376.745C68.864 376.624 68.9218 376.51 69.0008 376.412C69.0798 376.314 69.1781 376.233 69.2898 376.174C69.4734 376.062 69.6264 375.991 69.7896 375.899L70.7484 375.409L72.6355 374.389C73.8077 373.703 75.0575 373.158 76.3585 372.767C77.6076 372.542 78.896 372.74 80.0204 373.328C81.0404 373.797 82.0605 374.267 82.8765 374.685L86.9566 376.725C87.4692 376.956 87.9636 377.225 88.4356 377.531C87.8959 377.371 87.3704 377.166 86.8648 376.919L82.6827 375.073L79.8062 373.787C78.7693 373.256 77.5842 373.087 76.4401 373.308C75.1851 373.7 73.9802 374.238 72.8497 374.909L70.9728 375.929L70.014 376.429C69.6876 376.592 69.3408 376.756 69.3204 376.919C69.3 377.082 69.555 377.48 69.8712 377.735C70.1826 378.005 70.525 378.238 70.8912 378.428C71.6046 378.798 72.3852 379.02 73.1863 379.081C74.6765 379.226 76.1641 378.779 77.3276 377.837L77.5928 377.612L77.705 377.939C78.1804 379.423 78.8202 380.85 79.6124 382.192C80.2368 383.21 81.1065 384.056 82.1421 384.651C83.0832 385.153 84.1486 385.376 85.2123 385.293Z" fill="#FF9A6C"/>
<path d="M188.898 276.426C188.969 270.632 189.918 264.859 189.653 259.086C189.387 253.312 187.908 247.264 183.869 243.112C179.83 238.961 172.781 237.39 168.089 240.705L167.069 245.642C168.926 267.98 168.681 290.676 170.537 313.014C170.782 315.952 173.159 318.614 174.495 321.236C175.831 323.857 178.514 326.03 181.452 325.846C185.297 325.612 187.817 321.715 189.01 318.043C193.396 304.773 188.724 290.431 188.898 276.426Z" fill="#263238"/>
<path d="M174.964 246.386C174.19 244.914 173.196 243.569 172.016 242.398C171.421 241.815 170.701 241.375 169.912 241.11C169.122 240.845 168.283 240.762 167.456 240.868C167.067 240.916 166.697 241.063 166.381 241.296C166.065 241.528 165.814 241.837 165.651 242.194C165.396 242.928 165.947 243.918 166.722 243.846L166.885 243.989C168.619 245.526 170.384 247.025 172.179 248.487C172.607 248.887 173.11 249.199 173.658 249.405C173.934 249.506 174.232 249.527 174.519 249.465C174.806 249.404 175.07 249.263 175.28 249.059C175.923 248.345 175.453 247.212 174.964 246.386Z" fill="#FFCA05"/>
<path d="M178.238 252.078C172.465 245.02 164.713 240.95 155.594 240.858C150.494 240.766 148.321 241.878 144.618 242.837C140.911 243.732 137.634 245.897 135.357 248.957C132.735 252.68 130.532 256.852 130.032 261.391C129.378 266.029 129.157 270.717 129.369 275.396C129.583 280.097 131.094 284.648 133.735 288.544L145.608 290.584C152.167 290.808 158.817 291.023 165.213 289.564C171.608 288.105 177.81 284.627 181.227 279.027C185.98 271.193 184.001 259.126 178.238 252.078Z" fill="#263238"/>
<path d="M167.681 251.997L151.85 245.703L147.709 246.183C138.406 246.183 131.98 256.485 131.919 264.013C131.857 272.397 132.102 282.618 133.428 288.789C136.111 301.203 146.689 302.233 146.689 302.233C146.689 302.233 146.474 308.853 146.393 313.014L170.639 311.27L171.853 256.25C171.816 255.148 171.367 254.099 170.594 253.312C169.822 252.524 168.782 252.055 167.681 251.997Z" fill="#FFBF9D"/>
<path d="M152.043 285.882C151.945 285.248 151.619 284.671 151.125 284.261C150.676 283.874 150.113 283.645 149.521 283.61C148.929 283.575 148.343 283.736 147.851 284.067C147.341 284.46 146.945 284.982 146.703 285.579C146.461 286.175 146.382 286.826 146.474 287.463C146.747 287.846 147.098 288.166 147.504 288.402C147.911 288.637 148.363 288.784 148.83 288.83C148.976 288.84 149.123 288.84 149.269 288.83C150.026 288.846 150.758 288.564 151.309 288.045C151.586 287.763 151.796 287.422 151.923 287.047C152.05 286.673 152.091 286.275 152.043 285.882Z" fill="#FF9A6C"/>
<path d="M136.111 274.611C136.127 275.03 136.307 275.427 136.612 275.715C136.918 276.003 137.324 276.159 137.743 276.151C137.949 276.155 138.153 276.118 138.344 276.043C138.535 275.967 138.709 275.855 138.856 275.712C139.003 275.568 139.12 275.397 139.201 275.208C139.281 275.019 139.323 274.816 139.324 274.611C139.303 274.191 139.12 273.797 138.814 273.509C138.508 273.222 138.102 273.065 137.682 273.071C137.477 273.067 137.274 273.103 137.083 273.179C136.893 273.255 136.719 273.367 136.573 273.511C136.427 273.654 136.311 273.825 136.231 274.014C136.152 274.203 136.111 274.406 136.111 274.611Z" fill="#263238"/>
<path d="M134.755 268.205C134.959 268.399 136.132 267.44 137.815 267.349C139.498 267.257 140.875 268.052 141.038 267.828C141.201 267.604 140.895 267.359 140.324 266.992C139.548 266.515 138.642 266.29 137.733 266.349C136.835 266.393 135.974 266.722 135.275 267.287C134.806 267.726 134.643 268.114 134.755 268.205Z" fill="#263238"/>
<path d="M145.852 281.761C144.927 281.518 143.973 281.397 143.017 281.404C142.578 281.404 142.15 281.322 142.058 281.016C142.002 280.565 142.08 280.107 142.282 279.7C142.639 278.609 143.017 277.466 143.404 276.263C144.955 271.387 146.056 267.378 145.852 267.317C145.648 267.256 144.241 271.163 142.69 276.049L141.67 279.496C141.419 280.043 141.372 280.662 141.538 281.24C141.608 281.392 141.713 281.526 141.844 281.63C141.975 281.735 142.129 281.807 142.292 281.842C142.54 281.895 142.794 281.916 143.047 281.903C143.985 281.966 144.926 281.918 145.852 281.761Z" fill="#263238"/>
<path d="M146.668 302.222C152.569 301.989 158.29 300.12 163.192 296.826C163.192 296.826 159.204 305.751 146.606 305.272L146.668 302.222Z" fill="#FF9A6C"/>
<path d="M151.003 282.669C150.728 282.669 150.82 284.546 149.289 285.964C147.759 287.382 145.75 287.29 145.75 287.555C145.75 287.82 146.219 287.892 147.056 287.871C148.159 287.828 149.211 287.394 150.024 286.647C150.802 285.934 151.274 284.947 151.34 283.893C151.36 283.108 151.136 282.659 151.003 282.669Z" fill="#263238"/>
<path d="M135.336 262.156C135.652 262.554 136.958 262.207 138.508 262.248C140.059 262.289 141.364 262.625 141.691 262.248C141.834 262.054 141.64 261.656 141.079 261.228C140.32 260.735 139.433 260.476 138.529 260.483C137.624 260.459 136.731 260.696 135.958 261.167C135.397 261.554 135.203 261.952 135.336 262.156Z" fill="#263238"/>
<path d="M154.971 274.182C154.98 274.601 154.825 275.007 154.539 275.313C154.253 275.62 153.86 275.803 153.441 275.824C153.237 275.844 153.031 275.823 152.836 275.762C152.64 275.701 152.458 275.601 152.302 275.469C152.145 275.337 152.016 275.175 151.923 274.993C151.829 274.81 151.774 274.611 151.758 274.406C151.749 273.988 151.903 273.583 152.186 273.275C152.469 272.967 152.86 272.78 153.278 272.754C153.483 272.734 153.691 272.756 153.887 272.818C154.084 272.879 154.267 272.979 154.425 273.112C154.582 273.245 154.712 273.408 154.806 273.592C154.9 273.776 154.956 273.976 154.971 274.182Z" fill="#263238"/>
<path d="M158.134 267.531C157.94 267.746 156.706 266.868 154.972 266.899C153.238 266.93 151.994 267.827 151.8 267.613C151.606 267.399 151.902 267.144 152.453 266.726C153.19 266.194 154.074 265.906 154.982 265.899C155.882 265.879 156.765 266.148 157.502 266.665C158.042 267.062 158.236 267.44 158.134 267.531Z" fill="#263238"/>
<path d="M157.093 262.003C156.766 262.401 155.42 262.003 153.818 262.003C152.217 262.003 150.85 262.319 150.534 261.911C150.391 261.718 150.605 261.32 151.187 260.891C151.993 260.419 152.915 260.182 153.849 260.208C154.776 260.197 155.687 260.456 156.47 260.953C157.052 261.401 157.246 261.809 157.093 262.003Z" fill="#263238"/>
<path d="M169.721 277.282C169.721 276.354 170.629 274.1 171.547 273.906C173.984 273.386 178.422 273.335 178.809 279.577C179.34 288.115 170.649 286.881 170.649 286.636C170.649 286.391 169.874 280.506 169.721 277.282Z" fill="#FFBF9D"/>
<path d="M172.78 283.372C172.78 283.372 172.933 283.474 173.188 283.566C173.548 283.712 173.951 283.712 174.31 283.566C175.188 283.178 175.861 281.699 175.81 280.159C175.785 279.427 175.597 278.709 175.259 278.058C175.163 277.795 175.004 277.56 174.796 277.373C174.588 277.186 174.337 277.054 174.065 276.987C173.893 276.953 173.714 276.98 173.559 277.064C173.405 277.148 173.284 277.283 173.219 277.446C173.117 277.691 173.219 277.864 173.137 277.874C173.056 277.885 172.943 277.742 172.994 277.385C173.028 277.171 173.137 276.976 173.3 276.834C173.41 276.737 173.537 276.664 173.676 276.618C173.815 276.573 173.961 276.556 174.106 276.569C174.462 276.612 174.8 276.747 175.086 276.962C175.373 277.177 175.598 277.463 175.738 277.793C176.146 278.51 176.373 279.315 176.401 280.139C176.452 281.863 175.667 283.525 174.463 283.954C174.238 284.035 173.998 284.066 173.76 284.043C173.522 284.02 173.292 283.944 173.086 283.821C172.78 283.586 172.78 283.393 172.78 283.372Z" fill="#FF9A6C"/>
<path d="M171.874 273.927L169.721 276.15C160.358 267.184 142.058 244.744 143.089 246.08C147.357 244.494 151.955 244.006 156.461 244.662C163.428 245.846 176.627 249.334 176.423 257.545C176.219 265.756 171.874 273.927 171.874 273.927Z" fill="#263238"/>
<path d="M184.277 272.071C184.249 271.903 184.205 271.739 184.144 271.581C183.989 271.117 183.794 270.666 183.563 270.235C182.679 268.654 181.46 267.286 179.993 266.226C177.829 264.672 175.413 263.502 172.852 262.768C169.996 261.84 166.783 261.116 163.621 259.708C160.639 258.466 157.812 256.881 155.196 254.985C153.056 253.436 151.062 251.695 149.239 249.783C148.016 248.49 146.868 247.128 145.801 245.703L144.945 244.52C144.849 244.377 144.74 244.244 144.618 244.122C144.69 244.279 144.775 244.429 144.873 244.571C145.047 244.856 145.302 245.275 145.659 245.795C146.68 247.271 147.801 248.675 149.014 249.997C153.041 254.375 157.968 257.827 163.458 260.116C166.496 261.268 169.591 262.265 172.73 263.105C175.28 263.8 177.694 264.92 179.87 266.42C181.322 267.44 182.548 268.749 183.471 270.265C184.001 271.377 184.226 272.071 184.277 272.071Z" fill="#455A64"/>
<path d="M181.788 273.387C181.816 272.748 181.705 272.111 181.462 271.52C180.818 269.889 179.698 268.488 178.249 267.501C176.08 266.104 173.651 265.157 171.109 264.716C168.066 264.107 165.1 263.162 162.265 261.901C159.442 260.613 156.79 258.979 154.37 257.036C152.402 255.442 150.591 253.662 148.964 251.721C147.856 250.405 146.833 249.018 145.904 247.57L145.18 246.376C145.105 246.233 145.012 246.099 144.904 245.979C144.961 246.13 145.029 246.276 145.108 246.417L145.761 247.662C146.629 249.148 147.604 250.57 148.678 251.915C150.286 253.907 152.094 255.729 154.074 257.352C156.508 259.333 159.185 260.996 162.041 262.299C164.901 263.575 167.899 264.516 170.976 265.104C173.473 265.52 175.864 266.421 178.014 267.756C179.436 268.692 180.556 270.021 181.238 271.581C181.476 272.165 181.661 272.769 181.788 273.387Z" fill="#455A64"/>
<path d="M171.588 288.392C171.588 288.33 172.312 288.239 173.577 287.902C175.35 287.39 176.983 286.479 178.351 285.24C180.354 283.365 181.876 281.035 182.788 278.446C183.953 275.292 184.58 271.965 184.644 268.603C184.683 266.866 184.543 265.13 184.226 263.421C183.37 259.125 181.352 255.145 178.391 251.916C176.651 250.067 174.73 248.396 172.659 246.928C172.659 246.928 172.832 246.989 173.138 247.173C173.444 247.356 173.883 247.601 174.424 247.989C175.973 249.051 177.403 250.279 178.687 251.65C180.611 253.682 182.168 256.033 183.288 258.597C183.937 260.118 184.432 261.7 184.767 263.32C185.095 265.064 185.242 266.838 185.205 268.613C185.144 272.038 184.492 275.427 183.277 278.63C182.312 281.279 180.711 283.65 178.616 285.536C177.186 286.78 175.479 287.664 173.638 288.116C173.137 288.23 172.63 288.312 172.118 288.361C171.943 288.385 171.765 288.395 171.588 288.392Z" fill="#455A64"/>
<path d="M182.451 393.361L131.98 400.695C113.018 406.061 93.0459 407.631 72.166 405.795L148.127 441.231L178.626 441.7C178.626 441.7 187.908 441.7 189.53 433.601C191.152 425.502 192.957 400.838 192.957 400.838C192.957 400.838 186.929 395.616 182.451 393.361Z" fill="#263238"/>
<g opacity="0.3">
<path d="M182.297 414.609C183.131 419.664 183.432 424.792 183.195 429.91C184.745 428.208 185.887 426.175 186.534 423.966C187.181 421.756 187.315 419.428 186.928 417.159C186.489 414.67 185.449 411.927 186.754 409.754C187.632 408.295 189.947 406.622 189.611 404.96C189.611 404.96 187.57 404.96 185.745 404.888C184.266 404.827 181.195 404.735 181.195 404.735C182.516 407.908 182.802 411.417 182.011 414.762" fill="black"/>
</g>
<path d="M146.475 310.933L170.996 308.281L175.484 312.361L157.981 322.664L150.259 326.662L142.629 324.347L140.212 319.797L146.475 310.933Z" fill="#FFBF9D"/>
<path d="M113.416 340.789C113.416 340.789 121.107 326.04 123.004 322.817C126.248 317.319 132.307 314.208 132.307 314.208L146.475 310.933C146.475 310.933 145.006 318.074 153.819 318.522C165.039 319.145 172.006 308.394 172.006 308.394C172.006 308.394 184.797 309.709 188.327 311.188C191.856 312.667 201.852 316.86 203.321 330.14L206.748 351.836L179.718 353.876L180.085 382.763L168.599 392.158C168.599 392.158 135.622 403.511 133.51 404.255C132.49 404.612 132.756 390.597 130.399 378.581L125.952 367.779C124.152 363.465 123.087 358.879 122.8 354.213C122.627 351.153 122.708 348.807 122.708 348.807C122.708 348.807 115.772 346.43 113.416 340.789Z" fill="#455A64"/>
<path d="M134.713 392.933L180.033 379.336L179.716 353.897L202.789 352.143C202.789 352.143 200.953 365.321 200.678 372.074C200.29 381.795 195.578 395.381 192.518 398.258C189.458 401.134 133.54 404.276 133.54 404.276L134.713 392.933Z" fill="#FFBF9D"/>
<path d="M109.009 400.93C109.228 401.304 109.575 401.586 109.986 401.723C110.397 401.86 110.844 401.843 111.243 401.675C112.263 401.267 111.988 399.206 111.988 399.206L116.812 398.023C116.812 398.023 123.473 401.634 125.993 404.143C128.512 406.652 134.051 404.031 134.051 404.031L135.203 393.453L125.585 386.017C125.585 386.017 126.176 386.466 125.432 384.997C124.687 383.529 121.913 384.324 121.913 384.324C121.423 383.6 119.556 383.478 119.556 383.478L111.733 384.997C110.939 385.152 110.19 385.482 109.54 385.964C108.89 386.446 108.357 387.067 107.979 387.782L105.052 393.321C105.052 393.321 103.583 397.258 103.94 398.125C104.094 398.484 104.374 398.774 104.728 398.939C105.081 399.105 105.483 399.134 105.857 399.023C105.857 399.023 106.439 401.491 107.102 401.522C107.772 401.439 108.419 401.228 109.009 400.9V400.93Z" fill="#FFBF9D"/>
<path d="M125.218 392.158C125.218 392.24 124.198 392.219 122.484 392.423C120.302 392.702 118.167 393.275 116.139 394.127C115.026 394.603 113.952 395.165 112.926 395.81C112.019 396.412 111.06 396.932 110.805 397.656C110.75 397.812 110.736 397.979 110.764 398.142C110.793 398.304 110.863 398.457 110.968 398.584C111.129 398.796 111.349 398.956 111.6 399.043C112.029 399.176 112.284 399.043 112.304 399.043C112.325 399.043 112.07 399.278 111.549 399.186C111.241 399.117 110.963 398.953 110.754 398.717C110.604 398.556 110.498 398.358 110.448 398.143C110.398 397.928 110.405 397.704 110.468 397.493C110.642 397.018 110.955 396.605 111.366 396.31C111.774 395.993 112.202 395.677 112.682 395.361C115.604 393.447 118.961 392.3 122.443 392.026C123.369 391.92 124.306 391.965 125.218 392.158Z" fill="#FF9A6C"/>
<path d="M126.167 397.145C126.167 397.288 122.944 397.411 119.027 397.941C115.11 398.471 111.968 399.206 111.887 399.063C112.534 398.752 113.22 398.529 113.927 398.4C115.58 397.984 117.255 397.664 118.945 397.441C120.636 397.212 122.339 397.079 124.045 397.043C124.754 396.98 125.468 397.015 126.167 397.145Z" fill="#FF9A6C"/>
<path d="M109.04 400.726C108.957 400.457 108.902 400.18 108.876 399.9C108.771 399.132 108.71 398.359 108.693 397.584C108.684 397.045 108.718 396.506 108.795 395.973C108.889 395.344 109.108 394.741 109.437 394.198C110.116 392.94 111.038 391.831 112.151 390.934C113.251 390.034 114.474 389.296 115.782 388.741C116.866 388.338 117.997 388.074 119.148 387.955C120.168 387.843 120.902 387.813 121.453 387.782C121.734 387.741 122.019 387.741 122.3 387.782C121.291 388.013 120.269 388.183 119.24 388.292C118.13 388.455 117.042 388.742 115.996 389.149C114.741 389.709 113.568 390.436 112.508 391.311C111.45 392.161 110.558 393.199 109.876 394.371C109.332 395.338 109.06 396.435 109.091 397.544C109.009 399.512 109.152 400.726 109.04 400.726Z" fill="#FF9A6C"/>
<path d="M119.332 385.538C119.332 385.62 118.159 385.742 116.272 386.099C114.385 386.456 111.58 386.874 110.151 389.506C108.694 391.502 107.517 393.688 106.653 396.003C106.384 396.988 106.209 397.995 106.133 399.013C106.037 398.745 105.999 398.46 106.02 398.176C106.002 397.408 106.098 396.641 106.306 395.901C107.082 393.505 108.24 391.249 109.733 389.22C110.13 388.606 110.607 388.047 111.151 387.558C111.676 387.107 112.282 386.761 112.936 386.538C114.009 386.166 115.116 385.903 116.241 385.752C117.258 385.552 118.297 385.48 119.332 385.538Z" fill="#FF9A6C"/>
<path d="M124.095 402.633C123.918 402.541 123.751 402.431 123.595 402.307L122.198 401.358C120.437 400.198 118.611 399.139 116.73 398.186H116.843L112.028 399.4L112.181 399.176C112.227 399.575 112.227 399.979 112.181 400.379C112.151 400.82 111.991 401.242 111.722 401.593C111.555 401.769 111.338 401.89 111.1 401.94C110.881 402.016 110.648 402.048 110.417 402.032C109.938 401.997 109.486 401.795 109.141 401.46C109.058 401.373 108.98 401.281 108.907 401.185V401.114L109.192 401.195L109.039 401.267C108.841 401.371 108.637 401.463 108.427 401.542C108.214 401.626 107.996 401.697 107.775 401.756C107.658 401.791 107.539 401.815 107.418 401.828C107.263 401.853 107.104 401.835 106.959 401.777C106.726 401.629 106.541 401.416 106.428 401.165C106.315 400.954 106.216 400.736 106.132 400.512C105.961 400.07 105.821 399.617 105.714 399.155L106.01 399.329C105.685 399.428 105.339 399.436 105.009 399.352C104.68 399.267 104.38 399.093 104.143 398.849C103.897 398.589 103.752 398.248 103.735 397.89C103.735 397.569 103.765 397.247 103.827 396.932C104.1 395.703 104.461 394.497 104.908 393.321L106.469 390.363L107.489 388.496C107.791 387.851 108.161 387.239 108.591 386.67C109.058 386.124 109.63 385.676 110.274 385.354C110.901 385.066 111.568 384.873 112.253 384.783L119.617 383.365H119.678C120.131 383.399 120.579 383.482 121.015 383.61C121.477 383.712 121.895 383.959 122.208 384.314L121.922 384.253C122.311 384.038 122.746 383.92 123.19 383.909C123.634 383.898 124.074 383.995 124.472 384.191C125.161 384.627 125.663 385.303 125.88 386.089L125.809 385.997L132.439 391.097L134.224 392.505C134.439 392.661 134.64 392.835 134.826 393.025C134.591 392.904 134.369 392.76 134.163 392.596L132.316 391.26L125.584 386.303H125.533V386.232C125.343 385.548 124.903 384.962 124.299 384.589C123.963 384.428 123.592 384.35 123.219 384.362C122.846 384.375 122.482 384.477 122.157 384.661L121.984 384.742L121.871 384.599C121.612 384.331 121.278 384.146 120.913 384.069C120.506 383.957 120.089 383.885 119.668 383.855H119.729L112.365 385.303C111.722 385.387 111.096 385.569 110.508 385.844C109.929 386.131 109.415 386.533 108.999 387.027C108.597 387.57 108.255 388.155 107.979 388.771L106.959 390.638C106.418 391.658 105.939 392.678 105.398 393.596C104.977 394.748 104.636 395.927 104.378 397.125C104.319 397.404 104.289 397.687 104.286 397.972C104.3 398.217 104.401 398.449 104.572 398.625C104.747 398.8 104.967 398.925 105.207 398.986C105.448 399.047 105.701 399.042 105.939 398.972L106.183 398.91V399.145C106.296 399.584 106.428 400.032 106.581 400.451C106.693 400.833 106.896 401.183 107.173 401.471C107.239 401.49 107.31 401.49 107.377 401.471L107.673 401.409C107.879 401.363 108.08 401.299 108.274 401.216C108.468 401.144 108.662 401.052 108.856 400.961L108.999 400.899L109.294 400.981V401.032C109.35 401.111 109.411 401.186 109.478 401.256C109.668 401.459 109.912 401.603 110.181 401.672C110.451 401.741 110.734 401.731 110.998 401.644C111.161 401.616 111.311 401.538 111.426 401.42C111.786 400.804 111.919 400.083 111.804 399.38V399.196H111.967L116.802 398.054H116.863C118.743 399.032 120.553 400.14 122.279 401.369C122.881 401.807 123.299 402.154 123.636 402.389C123.795 402.459 123.948 402.541 124.095 402.633Z" fill="#FF9A6C"/>
<path d="M100.533 409.182C100.533 409.182 68.5551 399.134 58.518 395.921C41.1777 390.311 29.8962 395.982 26.3261 402.164C21.6952 410.191 32.8033 425.849 37.0874 429.449C49.7662 440.109 71.5029 441.547 71.5029 441.547L149.657 441.404L126.88 410.416L100.533 409.182Z" fill="#263238"/>
<path d="M105.327 423.687C92.3032 425.203 79.1079 423.407 66.9636 418.465C64.8916 417.528 62.7582 416.734 60.5782 416.088C58.4231 415.545 56.189 415.386 53.9787 415.619C53.1014 415.641 52.2377 415.84 51.4386 416.202C50.6396 416.565 49.9216 417.085 49.3274 417.73C47.7667 419.77 48.5623 422.708 49.4294 425.136C50.4494 427.992 51.4694 430.909 53.5095 433.194C55.8249 435.856 59.191 437.386 62.5673 438.447C69.1668 440.487 76.1336 441.13 83.0493 441.395L106.795 440.099L105.327 423.687Z" fill="#E0E0E0"/>
<path d="M59.4668 416.098C59.6228 416.289 59.7437 416.507 59.8238 416.74C60.0996 417.349 60.3115 417.985 60.4562 418.638C60.9689 420.808 60.8788 423.077 60.1957 425.201C59.5126 427.324 58.2624 429.22 56.5801 430.684C56.0793 431.123 55.5399 431.515 54.9685 431.857C54.5503 432.092 54.3157 432.194 54.2953 432.163C54.2749 432.132 55.1521 431.571 56.3353 430.419C57.8877 428.934 59.045 427.086 59.7023 425.041C60.3596 422.996 60.496 420.82 60.0992 418.709C59.8136 417.077 59.3852 416.128 59.4668 416.098Z" fill="#263238"/>
<path d="M182.156 407.224C180.299 401.96 179.993 394.228 168.538 390.516C157.083 386.803 148.434 393.922 142.548 396.391C136.663 398.859 104.501 416.506 104.501 416.506C104.501 416.506 98.4422 427.308 100.166 432.081C101.89 436.855 109.724 441.568 109.724 441.568H145.7C154.982 441.568 172.221 441.251 172.221 441.251C174.529 437.468 176.596 433.544 178.412 429.501L178.718 427.95C178.749 426.716 184.002 412.487 182.156 407.224Z" fill="#263238"/>
<path d="M162.224 434.55C162.177 434.733 162.086 434.901 161.958 435.04C161.61 435.444 161.212 435.804 160.775 436.111C159.169 437.218 157.461 438.171 155.675 438.957C154.455 439.525 153.202 440.019 151.921 440.436C150.44 440.902 148.921 441.243 147.382 441.456C143.871 441.805 140.342 441.941 136.815 441.864C129.338 441.986 122.535 442.272 117.638 442.211C115.18 442.211 113.191 442.098 111.824 441.956C111.297 441.909 110.773 441.834 110.254 441.731C110.07 441.709 109.888 441.668 109.713 441.609C109.713 441.558 110.468 441.69 111.835 441.762C113.201 441.833 115.19 441.884 117.638 441.864C122.545 441.864 129.318 441.486 136.815 441.364C140.325 441.44 143.836 441.317 147.331 440.997C148.843 440.811 150.337 440.504 151.799 440.079C153.071 439.686 154.318 439.216 155.532 438.671C157.306 437.925 159.013 437.027 160.632 435.988C161.073 435.694 161.48 435.352 161.846 434.968C162.132 434.724 162.193 434.54 162.224 434.55Z" fill="#263238"/>
<path d="M109.723 441.568L109.244 441.313C108.938 441.14 108.489 440.854 107.907 440.477C106.216 439.372 104.631 438.112 103.174 436.713C102.119 435.701 101.219 434.539 100.502 433.265C99.7694 431.669 99.5829 429.877 99.9715 428.165C100.846 424.064 102.313 420.113 104.327 416.435V416.384C110.223 413.14 116.985 409.458 124.37 405.49C128.063 403.511 131.908 401.461 135.907 399.37C137.947 398.35 139.987 397.33 142.027 396.31C144.067 395.29 146.158 394.27 148.27 393.168C151.187 391.57 154.315 390.392 157.562 389.669C159.157 389.351 160.781 389.204 162.407 389.231C163.998 389.279 165.579 389.504 167.12 389.904C170.107 390.64 172.912 391.98 175.361 393.841C176.5 394.785 177.509 395.875 178.36 397.085C179.143 398.277 179.79 399.553 180.288 400.889C180.798 402.195 181.155 403.511 181.522 404.796C181.943 406.045 182.284 407.319 182.542 408.611C182.703 411.079 182.496 413.558 181.93 415.965C181.471 418.26 180.91 420.403 180.329 422.392C180.043 423.412 179.758 424.36 179.492 425.288C179.227 426.217 178.921 427.135 178.778 427.951C178.656 428.532 178.564 428.971 178.462 429.491C177.48 432.643 176.091 435.653 174.331 438.447C173.708 439.445 172.972 440.369 172.138 441.201L172.271 441.017C172.383 440.885 172.526 440.721 172.699 440.497C173.24 439.817 173.744 439.109 174.209 438.375C175.908 435.565 177.248 432.553 178.197 429.409C178.778 428.92 178.666 428.44 178.493 427.859C178.671 426.928 178.903 426.009 179.186 425.105L180.013 422.218C180.564 420.178 181.114 418.077 181.563 415.802C182.106 413.433 182.299 410.996 182.134 408.57C181.866 407.304 181.526 406.054 181.114 404.827C180.737 403.542 180.37 402.236 179.87 400.961C179.383 399.656 178.75 398.41 177.983 397.248C177.155 396.078 176.174 395.025 175.066 394.117C171.397 391.367 166.978 389.801 162.397 389.628C160.808 389.602 159.221 389.749 157.664 390.067C154.456 390.779 151.365 391.943 148.484 393.525C146.444 394.545 144.404 395.769 142.211 396.677C140.018 397.585 138.131 398.666 136.091 399.737C132.102 401.777 128.247 403.817 124.554 405.857L104.48 416.679L104.551 416.598C102.544 420.234 101.07 424.14 100.176 428.195C99.7731 429.85 99.9346 431.591 100.635 433.143C101.321 434.406 102.195 435.558 103.225 436.56C104.656 437.97 106.209 439.25 107.866 440.385L109.172 441.262C109.539 441.456 109.723 441.568 109.723 441.568Z" fill="#263238"/>
<path d="M168.273 428.216C168.273 428.216 178.993 429.501 178.044 434.744C177.096 439.987 173.587 441.752 173.587 441.752L144.455 441.813C144.455 441.813 161.846 440.609 168.273 428.216Z" fill="#E0E0E0"/>
<path d="M169.313 425.676C169.311 426.186 169.2 426.691 168.987 427.155C168.592 428.328 168.006 429.427 167.253 430.409C166.237 431.84 164.816 432.934 163.173 433.55C164.526 432.535 165.767 431.38 166.876 430.103C167.811 428.698 168.626 427.217 169.313 425.676Z" fill="#263238"/>
<path d="M165.641 427.726C165.659 429.041 165.305 430.335 164.621 431.459C164.098 432.651 163.297 433.7 162.286 434.519C162.173 434.427 163.224 433.071 164.173 431.204C165.121 429.337 165.458 427.705 165.641 427.726Z" fill="#263238"/>
<path d="M179.268 440.293C179.187 440.293 179.88 438.926 180.717 436.672C182.913 430.785 183.638 424.451 182.828 418.22C182.512 415.843 182.145 414.385 182.226 414.364C182.388 414.687 182.504 415.03 182.573 415.384C182.825 416.308 183.026 417.244 183.175 418.189C184.196 424.475 183.462 430.92 181.053 436.815C180.69 437.684 180.278 438.532 179.819 439.355C179.673 439.688 179.488 440.003 179.268 440.293Z" fill="#455A64"/>
<g opacity="0.3">
<path d="M173.209 425.391C173.128 424.687 172.852 423.85 172.189 423.708C171.332 423.534 170.751 424.514 170.414 425.309C166.661 433.847 154.533 440.507 145.24 441.395C149.747 441.385 154.246 441.017 158.694 440.293C162.488 439.725 166.044 438.099 168.956 435.601C170.403 434.342 171.54 432.765 172.278 430.994C173.016 429.223 173.335 427.305 173.209 425.391Z" fill="black"/>
</g>
<path d="M102.236 413.773C100.459 413.274 98.7319 412.615 97.0745 411.804C95.3517 411.151 93.6923 410.342 92.1172 409.387C93.8913 409.888 95.6182 410.544 97.2785 411.345C99.0017 412.001 100.661 412.814 102.236 413.773Z" fill="#263238"/>
<g opacity="0.2">
<path d="M112.599 409.264C98.7267 406.612 84.8034 404.256 70.829 402.195L60.4248 405.48C63.3421 410.906 69.1052 414.364 75.0927 415.792C81.0803 417.22 87.333 416.884 93.4532 416.323C100.206 415.7 107.142 414.752 113.017 411.365C113.466 411.11 113.976 410.723 113.915 410.203C113.854 409.682 113.201 409.376 112.599 409.264Z" fill="black"/>
</g>
<path d="M44.3189 367.953L61.8021 406.611C62.1558 407.399 62.7283 408.069 63.4516 408.541C64.1749 409.013 65.0186 409.267 65.8822 409.274L116.883 409.937L123.31 406.479L113.242 405.744L97.5743 368.146C97.3304 367.561 96.92 367.061 96.3941 366.707C95.8682 366.354 95.25 366.162 94.6163 366.157L45.7674 365.79C45.5068 365.781 45.2481 365.838 45.0159 365.956C44.7836 366.075 44.5856 366.251 44.4405 366.468C44.2953 366.684 44.208 366.934 44.1867 367.194C44.1655 367.454 44.211 367.715 44.3189 367.953Z" fill="#E0E0E0"/>
<path d="M44.3196 367.953C44.2362 367.809 44.1841 367.649 44.1666 367.483C44.1343 367.239 44.161 366.99 44.2444 366.757C44.3278 366.525 44.4655 366.316 44.646 366.147C44.9248 365.888 45.2861 365.737 45.6661 365.719H50.144L70.5954 365.79L84.8145 365.862L92.7605 365.913H94.8006C95.5561 365.967 96.2728 366.268 96.8406 366.769C97.3878 367.283 97.792 367.929 98.0136 368.646L98.8501 370.686C103.308 381.366 108.234 393.178 113.457 405.663L113.212 405.489L122.933 406.203H123.28L124.3 406.275L123.433 406.744L117.006 410.202H116.935H116.864L78.2048 409.672L69.5754 409.549C68.1678 409.549 66.8213 409.549 65.4239 409.468C64.7259 409.385 64.0545 409.151 63.4571 408.781C62.8596 408.41 62.3506 407.914 61.966 407.326C59.6914 402.542 57.7941 398.145 55.9479 394.065L47.4001 374.95C46.3801 372.716 45.6457 370.972 45.1152 369.758C44.8602 369.187 44.6766 368.738 44.5338 368.412C44.391 368.085 44.3502 367.942 44.3502 367.942C44.4373 368.087 44.5157 368.237 44.5848 368.391L45.2172 369.717C45.7681 370.911 46.5637 372.645 47.5939 374.817L56.3049 393.871C58.1511 397.88 60.13 402.389 62.3536 407.04C62.6998 407.57 63.1592 408.018 63.699 408.349C64.2387 408.681 64.8452 408.889 65.4749 408.958C66.7805 409.019 68.1984 409.009 69.555 409.029L78.1844 409.131L116.843 409.6H116.7L123.127 406.132L123.249 406.673H122.902L113.181 405.969H113.008L112.937 405.816C107.745 393.31 102.828 381.498 98.3808 370.809L97.5546 368.82C97.3727 368.171 97.0206 367.583 96.5346 367.116C96.0496 366.679 95.4318 366.416 94.7802 366.372H92.7401L84.7941 366.3L70.5852 366.157L50.1134 365.913H46.9105H45.6457C45.4436 365.92 45.2452 365.969 45.0625 366.055C44.8799 366.142 44.7168 366.265 44.5831 366.417C44.4495 366.568 44.3482 366.746 44.2854 366.938C44.2225 367.13 44.1995 367.333 44.2176 367.534C44.2439 367.676 44.2779 367.815 44.3196 367.953Z" fill="#263238"/>
<path d="M111.701 409.865C111.606 409.732 111.527 409.588 111.467 409.437L110.885 408.192C110.375 407.029 109.682 405.459 108.845 403.561C107.142 399.634 104.826 394.208 102.337 388.169C99.8485 382.131 97.6453 376.653 96.1255 372.665C95.3604 370.625 94.7586 369.044 94.371 367.912C94.1874 367.391 94.0446 366.963 93.9222 366.606C93.8651 366.454 93.8241 366.297 93.7998 366.137C93.8932 366.269 93.9686 366.413 94.0242 366.565L94.5546 367.84C95.034 369.023 95.6766 370.604 96.4519 372.532C98.1043 376.551 100.338 381.978 102.796 387.986C105.255 393.994 107.519 399.4 109.172 403.419L111.079 408.111C111.273 408.631 111.436 409.049 111.569 409.396C111.639 409.544 111.684 409.702 111.701 409.865Z" fill="#263238"/>
<path d="M80.081 386.69C80.083 387.188 79.9373 387.674 79.6624 388.088C79.3874 388.503 78.9956 388.826 78.5367 389.017C78.0778 389.208 77.5724 389.259 77.0847 389.162C76.597 389.066 76.149 388.827 75.7974 388.475C75.4459 388.123 75.2067 387.675 75.1102 387.188C75.0137 386.7 75.0643 386.195 75.2555 385.736C75.4466 385.277 75.7698 384.885 76.184 384.61C76.5982 384.335 77.0848 384.189 77.5819 384.191C78.2447 384.191 78.8804 384.455 79.349 384.923C79.8177 385.392 80.081 386.028 80.081 386.69Z" fill="white"/>
<path d="M129.705 324.5C129.787 324.5 129.052 325.918 128.022 328.203C125.326 334.167 123.564 340.511 122.8 347.012C122.494 349.511 122.412 351.092 122.32 351.092C122.266 350.727 122.266 350.356 122.32 349.99C122.32 349.287 122.32 348.267 122.463 347.002C123.04 340.419 124.831 334 127.747 328.07C128.308 326.938 128.767 326.03 129.165 325.438C129.306 325.105 129.488 324.79 129.705 324.5Z" fill="#263238"/>
<path d="M206.748 351.837C206.566 351.892 206.377 351.923 206.187 351.928L204.565 352.081L198.506 352.591L177.789 354.152H177.524V353.887C177.351 351.133 177.167 348.226 176.983 345.247C176.688 340.045 176.433 335.047 176.351 330.569C176.087 326.535 177.005 322.512 178.993 318.992C180.357 316.618 182.371 314.682 184.797 313.412C185.452 313.084 186.134 312.814 186.837 312.606C187.081 312.53 187.33 312.469 187.581 312.423C187.581 312.504 186.561 312.719 184.878 313.596C182.539 314.91 180.608 316.844 179.299 319.186C177.409 322.67 176.562 326.626 176.861 330.579C176.963 335.078 177.228 340.035 177.524 345.237C177.708 348.215 177.881 351.123 178.054 353.866L177.769 353.622L198.506 352.255L204.626 351.898L206.248 351.837H206.748Z" fill="#263238"/>
<path d="M155.92 369.503C155.606 369.442 155.303 369.332 155.023 369.176C154.672 369.029 154.331 368.859 154.003 368.666C153.563 368.43 153.137 368.167 152.728 367.881C151.642 367.149 150.64 366.301 149.739 365.351C148.648 364.175 147.691 362.882 146.883 361.496C146.104 360.094 145.484 358.609 145.037 357.069C144.681 355.811 144.462 354.518 144.384 353.213C144.354 352.714 144.354 352.213 144.384 351.714C144.385 351.335 144.413 350.957 144.465 350.581C144.475 350.257 144.537 349.937 144.649 349.633C144.751 349.633 144.578 351.01 144.792 353.182C144.92 354.451 145.169 355.705 145.536 356.926C146.005 358.419 146.624 359.861 147.383 361.23C148.164 362.58 149.083 363.845 150.126 365.005C150.994 365.944 151.947 366.801 152.972 367.565C154.706 368.86 155.971 369.411 155.92 369.503Z" fill="#263238"/>
</svg>
