<svg width="362" height="418" viewBox="0 0 362 418" fill="none" xmlns="http://www.w3.org/2000/svg">
<path d="M56.752 325.034C59.4763 324.126 64.3073 319.686 64.3073 319.677C64.3073 319.667 60.4207 317.415 60.1573 317.306C57.0971 316.017 50.4227 315.327 47.9981 318.151C47.6146 318.631 47.3357 319.187 47.1793 319.781C47.023 320.376 46.9925 320.997 47.09 321.604C47.1875 322.211 47.4107 322.791 47.7453 323.306C48.08 323.822 48.5187 324.262 49.0333 324.598C51.1764 326.124 54.391 325.797 56.752 325.034Z" fill="#9C9C9C"/>
<path d="M107.069 282.228C107.133 282.228 105.072 278.205 104.908 277.96C103.092 275.236 97.8795 270.94 94.3017 271.957C93.7118 272.143 93.1675 272.45 92.7041 272.86C92.2407 273.269 91.8685 273.772 91.6116 274.334C91.3548 274.897 91.219 275.507 91.2131 276.125C91.2072 276.744 91.3313 277.356 91.5774 277.924C92.549 280.357 95.4095 281.865 97.8069 282.528C100.622 283.308 107.06 282.237 107.069 282.228Z" fill="#9C9C9C"/>
<path d="M70.9996 337.666C73.3424 336.132 76.5752 331.001 76.8295 330.592C79.7604 332.447 82.8124 334.104 85.9648 335.55C87.7809 336.404 89.6698 337.212 91.5586 337.993C90.6505 337.757 89.8241 337.566 89.7424 337.548C86.4461 337.112 79.8261 338.211 78.237 341.571C77.9879 342.139 77.8614 342.752 77.8658 343.372C77.8702 343.992 78.0054 344.604 78.2626 345.168C78.5197 345.732 78.893 346.235 79.358 346.645C79.8231 347.055 80.3694 347.362 80.9612 347.546C83.4312 348.454 86.4097 347.265 88.5256 345.903C90.6414 344.54 93.4746 340.191 94.2102 339.037L96.3896 339.946C99.8857 341.335 103.373 342.67 106.76 344.159C107.949 344.668 109.103 345.222 110.265 345.757C109.448 345.557 108.767 345.394 108.658 345.385C105.361 344.949 98.7506 346.048 97.1524 349.408C96.9033 349.975 96.7769 350.588 96.7814 351.207C96.7859 351.826 96.9211 352.438 97.1784 353.001C97.4356 353.564 97.8089 354.067 98.2739 354.476C98.7389 354.885 99.2851 355.191 99.8766 355.374C102.356 356.282 105.371 355.092 107.441 353.73C109.511 352.368 112.109 348.445 112.998 347.083C114.161 347.673 115.332 348.264 116.44 348.899C117.185 349.344 117.938 349.717 118.665 350.207L120.826 351.596C122.161 352.504 123.55 353.485 124.84 354.429C125.748 355.083 126.583 355.719 127.437 356.355C126.256 355.837 123.923 354.856 123.714 354.802C120.526 353.894 113.816 353.957 111.736 357.036C111.403 357.557 111.184 358.142 111.092 358.754C111.001 359.365 111.039 359.99 111.206 360.585C111.372 361.181 111.662 361.735 112.057 362.211C112.452 362.687 112.943 363.074 113.498 363.347C115.804 364.591 118.946 363.901 121.226 362.866C123.705 361.73 127.582 357.344 128.018 356.791C129.426 357.853 130.788 358.897 132.05 359.905C135.737 362.82 138.806 365.445 141.131 367.497L142.947 365.844C140.513 363.792 137.262 361.122 133.349 358.162C131.923 357.081 130.379 355.946 128.808 354.802C129.646 353.124 130.386 351.399 131.024 349.635C133.812 349.916 139.06 348.472 139.741 348.282C140.332 349.944 140.886 351.569 141.385 353.104C142.82 357.49 143.919 361.276 144.727 364.282L146.761 362.466C145.916 359.66 144.827 356.237 143.474 352.377C142.883 350.688 142.221 348.899 141.512 347.065C142.139 346.711 147.188 343.769 148.777 341.553C150.221 339.537 151.501 336.567 150.72 334.052C150.555 333.457 150.268 332.903 149.875 332.427C149.483 331.95 148.995 331.561 148.443 331.284C147.891 331.008 147.287 330.85 146.671 330.822C146.054 330.793 145.438 330.895 144.863 331.119C141.44 332.581 140.077 339.146 140.377 342.452C140.377 342.652 140.831 344.749 141.122 346.084C140.831 345.33 140.559 344.604 140.214 343.841C139.614 342.316 138.97 340.817 138.289 339.201C137.925 338.429 137.571 337.657 137.199 336.876C136.827 336.095 136.391 335.305 135.982 334.506C135.01 332.69 133.93 330.874 132.795 329.058C134.13 328.531 138.824 326.588 140.568 324.808C142.311 323.028 144.019 320.267 143.619 317.697C143.549 317.084 143.35 316.492 143.036 315.96C142.721 315.429 142.299 314.969 141.795 314.612C141.291 314.254 140.718 314.007 140.112 313.887C139.506 313.766 138.882 313.774 138.279 313.911C134.647 314.819 132.332 321.121 132.132 324.435C132.132 324.635 132.241 327.033 132.332 328.349C131.641 327.278 130.96 326.206 130.234 325.144C128.127 322.084 125.893 319.051 123.687 316.018C123.006 315.109 122.343 314.156 121.68 313.221C122.152 313.039 127.782 310.851 129.734 308.862C131.469 307.046 133.185 304.321 132.795 301.742C132.723 301.128 132.523 300.536 132.208 300.005C131.893 299.473 131.469 299.014 130.965 298.656C130.46 298.299 129.886 298.052 129.28 297.932C128.674 297.811 128.049 297.819 127.446 297.956C123.814 298.864 121.498 305.166 121.298 308.48C121.298 308.735 121.462 312.176 121.553 313.021C120.081 310.96 118.638 308.898 117.294 306.81C115.461 304 113.817 301.073 112.372 298.047C112.59 297.965 118.474 295.704 120.472 293.661C122.206 291.844 123.923 289.12 123.532 286.55C123.462 285.937 123.263 285.345 122.949 284.813C122.635 284.281 122.212 283.822 121.708 283.465C121.204 283.107 120.631 282.86 120.025 282.739C119.419 282.619 118.795 282.627 118.193 282.764C114.56 283.672 112.245 289.974 112.045 293.288C112.045 293.506 112.163 296.131 112.254 297.375L112.054 297.429C110.672 294.347 109.572 291.147 108.767 287.867C108.304 286.051 107.959 284.316 107.659 282.618C108.794 282.309 114.015 280.847 115.995 279.204C117.975 277.56 119.918 275.09 119.818 272.466C119.813 271.848 119.678 271.238 119.423 270.676C119.167 270.113 118.796 269.611 118.334 269.201C117.871 268.79 117.328 268.482 116.739 268.295C116.15 268.108 115.529 268.047 114.914 268.116C111.237 268.634 108.213 274.627 107.65 277.905C107.65 278.078 107.505 279.921 107.441 281.265C107.323 280.493 107.178 279.703 107.078 278.959C106.687 276.171 106.497 273.601 106.342 271.322C106.27 270.023 106.233 268.843 106.206 267.744C107.159 266.836 110.992 263.203 111.99 260.906C112.989 258.608 113.58 255.457 112.281 253.169C111.993 252.621 111.594 252.141 111.108 251.758C110.622 251.375 110.061 251.099 109.461 250.947C108.862 250.795 108.237 250.772 107.627 250.878C107.018 250.984 106.438 251.217 105.924 251.562C102.891 253.723 102.973 260.434 103.981 263.603C104.072 263.875 105.915 267.998 105.97 267.953L106.024 267.898C106.024 268.952 106.024 270.087 106.097 271.331C106.197 273.619 106.324 276.207 106.66 279.013C106.988 282.037 107.491 285.038 108.167 288.003C108.909 291.332 109.948 294.587 111.273 297.729L111.328 297.838C110.619 297.011 108.558 294.768 108.376 294.614C105.87 292.435 99.7404 289.701 96.5712 291.626C96.0509 291.96 95.6067 292.399 95.2678 292.916C94.9288 293.433 94.7027 294.016 94.6041 294.626C94.5056 295.236 94.5368 295.86 94.6958 296.457C94.8548 297.055 95.138 297.612 95.5269 298.092C97.107 300.19 100.258 300.889 102.746 300.898C105.543 300.898 111.064 298.401 111.509 298.174C112.931 301.339 114.563 304.406 116.395 307.354C117.448 309.071 118.565 310.778 119.709 312.467C119.074 311.777 118.501 311.159 118.411 311.078C115.904 308.907 109.775 306.165 106.606 308.09C106.085 308.424 105.641 308.863 105.302 309.38C104.963 309.897 104.737 310.479 104.638 311.089C104.54 311.7 104.571 312.324 104.73 312.921C104.889 313.518 105.172 314.075 105.561 314.556C107.132 316.662 110.292 317.352 112.78 317.362C115.269 317.371 120.045 315.327 121.298 314.773C121.743 315.418 122.206 316.072 122.633 316.717C124.776 319.795 126.928 322.874 128.99 325.943C129.707 327.033 130.37 328.122 131.033 329.212C130.47 328.594 129.989 328.086 129.907 328.013C127.401 325.834 121.271 323.101 118.102 325.026C117.582 325.36 117.139 325.8 116.801 326.317C116.463 326.834 116.238 327.417 116.14 328.027C116.042 328.637 116.074 329.261 116.234 329.858C116.394 330.455 116.677 331.011 117.067 331.491C118.638 333.589 121.798 334.288 124.277 334.297C126.756 334.306 131.087 332.481 132.577 331.809C133.231 332.944 133.884 334.079 134.456 335.214C134.838 335.995 135.256 336.722 135.582 337.53C135.909 338.338 136.282 339.11 136.618 339.882C137.226 341.408 137.853 342.969 138.434 344.468C138.824 345.503 139.178 346.502 139.533 347.501C138.842 346.411 137.426 344.313 137.29 344.15C135.311 341.99 132.809 340.376 130.025 339.464C129.818 339.212 129.587 338.981 129.335 338.774C128.87 338.368 128.325 338.063 127.735 337.881C127.145 337.699 126.523 337.643 125.91 337.716C125.297 337.79 124.706 337.992 124.176 338.308C123.646 338.625 123.188 339.05 122.833 339.555C120.781 342.661 123.269 348.89 125.348 351.487C125.466 351.642 126.983 353.149 127.955 354.084L125.902 352.75C124.567 351.841 123.178 350.933 121.743 349.944L119.555 348.6C118.828 348.136 118.011 347.737 117.23 347.301C115.414 346.32 113.516 345.412 111.591 344.577C112.408 343.405 115.223 339.201 115.723 336.749C116.222 334.297 116.104 331.083 114.351 329.13C113.953 328.658 113.46 328.275 112.904 328.005C112.348 327.736 111.742 327.586 111.124 327.567C110.507 327.547 109.892 327.657 109.32 327.891C108.748 328.124 108.232 328.475 107.804 328.921C105.307 331.646 106.823 338.211 108.476 341.09C108.585 341.271 110.002 343.196 110.81 344.241C109.648 343.732 108.485 343.215 107.296 342.733C103.845 341.344 100.313 340.009 96.7982 338.729C95.7176 338.329 94.6461 337.911 93.5745 337.503C93.8742 337.094 97.3612 332.163 97.8879 329.421C98.3601 326.987 98.2784 323.754 96.5167 321.802C96.1185 321.33 95.6255 320.946 95.0695 320.677C94.5135 320.408 93.9071 320.258 93.2896 320.239C92.6721 320.219 92.0574 320.329 91.4854 320.563C90.9134 320.796 90.3969 321.147 89.9694 321.593C87.4722 324.317 88.9887 330.883 90.6505 333.761C90.7685 333.979 92.8208 336.749 93.3747 337.394C91.0137 336.486 88.6709 335.578 86.3916 334.57C83.3147 333.237 80.3297 331.702 77.456 329.975C77.5923 329.784 81.2609 324.653 81.7967 321.847C82.2598 319.414 82.1781 316.181 80.4255 314.229C80.0273 313.756 79.5342 313.373 78.9782 313.104C78.4223 312.834 77.8158 312.685 77.1984 312.665C76.5809 312.645 75.9662 312.756 75.3942 312.989C74.8222 313.223 74.3056 313.574 73.8782 314.02C71.381 316.744 72.8975 323.309 74.5502 326.188C74.6591 326.379 76.221 328.495 76.9929 329.484L76.8476 329.639C73.9992 327.827 71.3187 325.763 68.8383 323.473C67.449 322.229 66.1958 320.967 65.0062 319.704C65.7872 318.796 69.3105 314.737 70.0824 312.258C70.8543 309.779 71.0813 306.664 69.5557 304.539C69.2095 304.027 68.7596 303.594 68.2351 303.267C67.7107 302.94 67.1234 302.727 66.5113 302.641C65.8992 302.555 65.276 302.599 64.6819 302.77C64.0879 302.941 63.5363 303.234 63.0629 303.631C60.2842 306.101 61.0742 312.767 62.4 315.809C62.4727 315.972 63.3989 317.57 64.089 318.724C63.5624 318.152 63.0084 317.57 62.509 317.007C60.6928 314.901 59.0673 312.857 57.6871 311.032C56.9061 309.988 56.225 309.034 55.5894 308.135C55.9072 306.864 57.1059 301.733 56.6518 299.236C56.1978 296.739 54.9628 293.788 52.6199 292.625C52.0791 292.328 51.4818 292.148 50.8667 292.097C50.2517 292.045 49.6328 292.124 49.0503 292.328C48.4677 292.532 47.9347 292.856 47.4858 293.28C47.0369 293.703 46.6823 294.217 46.445 294.787C45.1101 298.255 48.8786 303.804 51.4576 305.892C51.6846 306.074 55.4986 308.49 55.5167 308.426C55.5187 308.399 55.5187 308.371 55.5167 308.344C56.107 309.252 56.7517 310.16 57.4691 311.177C58.8131 312.994 60.3568 315.119 62.1821 317.271C64.126 319.613 66.2029 321.841 68.4024 323.945C70.859 326.293 73.5179 328.421 76.3482 330.302L76.4571 330.365C75.4128 330.066 72.4525 329.33 72.2164 329.303C68.92 328.867 62.3092 329.966 60.711 333.326C60.4619 333.893 60.3354 334.507 60.3398 335.127C60.3442 335.747 60.4794 336.359 60.7365 336.923C60.9937 337.487 61.367 337.99 61.832 338.4C62.2971 338.81 62.8434 339.117 63.4352 339.301C65.9143 340.191 68.9291 339.037 70.9996 337.666Z" fill="#9C9C9C"/>
<path d="M240.894 107.304C242.837 110.555 249.838 115.322 249.847 115.322C249.856 115.322 251.591 109.756 251.663 109.383C252.408 105.143 251.355 96.4977 247.123 94.2457C246.404 93.8909 245.618 93.6915 244.817 93.6605C244.016 93.6295 243.217 93.7675 242.473 94.0656C241.728 94.3637 241.055 94.8152 240.497 95.3907C239.938 95.9662 239.507 96.6528 239.232 97.4058C237.915 100.566 239.241 104.543 240.894 107.304Z" fill="#9C9C9C"/>
<path d="M309.554 158.646C309.554 158.728 314.094 154.959 314.339 154.687C317.309 151.554 321.195 143.79 318.88 139.531C318.476 138.838 317.93 138.238 317.279 137.77C316.627 137.302 315.885 136.977 315.099 136.815C314.313 136.653 313.503 136.658 312.719 136.831C311.936 137.003 311.198 137.338 310.553 137.815C307.747 139.749 306.666 143.799 306.512 147.013C306.339 150.791 309.554 158.637 309.554 158.646Z" fill="#9C9C9C"/>
<path d="M229.006 128.98C231.63 131.495 239.058 134.11 239.649 134.31C238.15 138.556 236.937 142.897 236.016 147.305C235.462 149.865 234.981 152.472 234.536 155.087C234.536 153.861 234.536 152.762 234.536 152.608C234.137 148.322 230.84 140.258 226.127 139.214C225.34 139.06 224.529 139.075 223.747 139.256C222.965 139.437 222.23 139.781 221.59 140.265C220.95 140.749 220.42 141.362 220.032 142.065C219.645 142.768 219.411 143.545 219.344 144.344C218.944 147.731 221.287 151.218 223.612 153.425C225.937 155.632 232.257 158.047 233.928 158.647C233.764 159.646 233.592 160.653 233.437 161.652C232.684 166.474 231.957 171.287 231.095 175.991C230.795 177.644 230.432 179.269 230.078 180.895C230.078 179.805 230.078 178.888 230.078 178.752C229.678 174.456 226.382 166.402 221.669 165.348C220.881 165.196 220.07 165.212 219.289 165.394C218.508 165.577 217.774 165.921 217.135 166.406C216.495 166.891 215.966 167.505 215.58 168.209C215.194 168.912 214.96 169.689 214.894 170.488C214.495 173.866 216.829 177.353 219.153 179.569C221.478 181.785 227.19 183.946 229.142 184.672C228.734 186.325 228.325 187.978 227.853 189.558C227.499 190.629 227.244 191.683 226.836 192.745L225.691 195.878C224.901 197.84 224.093 199.874 223.267 201.781C222.704 203.097 222.141 204.35 221.578 205.613C221.896 203.969 222.486 200.736 222.486 200.464C222.74 196.16 220.67 187.696 216.202 185.935C215.446 185.664 214.642 185.555 213.841 185.616C213.041 185.677 212.262 185.906 211.556 186.288C210.85 186.67 210.232 187.197 209.744 187.834C209.255 188.471 208.906 189.204 208.719 189.985C207.811 193.263 209.627 197.068 211.553 199.619C213.714 202.434 220.37 206.03 221.206 206.475C220.297 208.555 219.335 210.58 218.427 212.469C215.793 217.981 213.36 222.612 211.435 226.163L214.059 228.033C215.966 224.401 218.4 219.488 221.015 213.676C221.977 211.561 222.967 209.281 223.957 206.929C226.319 207.513 228.715 207.953 231.131 208.246C231.585 211.878 234.918 218.09 235.353 218.889C233.419 220.115 231.53 221.286 229.723 222.358C224.593 225.445 220.08 227.933 216.547 229.813L219.408 231.856C222.722 229.986 226.736 227.625 231.213 224.801C233.183 223.566 235.263 222.203 237.379 220.787C238.005 221.477 243.181 227.016 246.459 228.397C249.429 229.641 253.551 230.412 256.503 228.696C257.211 228.319 257.831 227.797 258.324 227.164C258.816 226.531 259.169 225.801 259.36 225.022C259.551 224.243 259.576 223.432 259.433 222.643C259.289 221.854 258.981 221.104 258.528 220.442C255.695 216.528 246.995 216.7 242.891 218.035C242.654 218.117 240.121 219.261 238.541 220.015C239.404 219.434 240.248 218.871 241.129 218.262C242.881 217.064 244.598 215.82 246.441 214.494L249.075 212.451C249.983 211.779 250.827 210.97 251.717 210.226C253.742 208.464 255.713 206.593 257.647 204.632C258.7 206.158 262.514 211.542 265.266 213.232C268.017 214.921 271.976 216.301 275.146 215.048C275.903 214.782 276.595 214.36 277.178 213.808C277.761 213.257 278.221 212.589 278.529 211.848C278.837 211.107 278.985 210.309 278.963 209.507C278.942 208.705 278.752 207.917 278.406 207.193C276.199 202.898 267.563 201.744 263.313 202.443C263.05 202.489 260.053 203.352 258.419 203.824C259.572 202.652 260.734 201.481 261.86 200.246C265.13 196.704 268.326 192.981 271.522 189.349C272.503 188.223 273.502 187.115 274.483 186.007C274.855 186.552 279.241 193.045 282.329 194.943C285.053 196.623 289.039 198.012 292.218 196.759C292.974 196.492 293.666 196.069 294.247 195.517C294.829 194.966 295.289 194.298 295.595 193.557C295.902 192.816 296.049 192.018 296.027 191.217C296.006 190.415 295.815 189.627 295.469 188.904C293.262 184.609 284.626 183.455 280.376 184.155C280.058 184.2 275.745 185.426 274.664 185.789C276.844 183.337 279.032 180.913 281.293 178.606C284.325 175.483 287.555 172.558 290.965 169.852C291.137 170.107 295.687 176.908 298.847 178.851C301.571 180.531 305.557 181.912 308.736 180.668C309.492 180.401 310.184 179.978 310.766 179.426C311.347 178.874 311.807 178.206 312.113 177.465C312.42 176.724 312.567 175.927 312.545 175.126C312.524 174.324 312.333 173.536 311.987 172.813C309.78 168.517 301.144 167.364 296.894 168.073C296.613 168.073 293.335 169.044 291.782 169.516L291.655 169.271C295.162 166.641 298.897 164.329 302.815 162.361C304.958 161.253 307.065 160.317 309.172 159.446C309.889 160.799 313.24 166.946 315.891 169.008C318.543 171.069 322.248 172.795 325.517 171.905C326.298 171.723 327.031 171.378 327.67 170.894C328.309 170.41 328.839 169.797 329.225 169.095C329.611 168.392 329.845 167.616 329.912 166.818C329.979 166.019 329.877 165.215 329.613 164.458C327.887 159.918 319.442 157.847 315.138 158.102C314.902 158.102 312.532 158.51 310.815 158.81C311.723 158.438 312.722 158.029 313.63 157.684C317.045 156.385 320.241 155.405 323.093 154.56C324.709 154.088 326.189 153.652 327.569 153.343C328.968 154.306 334.643 158.111 337.894 158.701C341.145 159.291 345.259 159.146 347.765 156.84C348.374 156.318 348.867 155.674 349.211 154.949C349.555 154.225 349.743 153.436 349.761 152.634C349.78 151.832 349.63 151.036 349.32 150.296C349.011 149.556 348.549 148.889 347.965 148.34C344.333 145.134 335.896 147.168 332.182 149.348C331.856 149.539 327.179 153.071 327.252 153.125L327.333 153.18C325.998 153.489 324.564 153.843 323.002 154.251C320.141 155.042 316.899 155.959 313.449 157.185C309.714 158.486 306.057 160.002 302.497 161.725C298.502 163.625 294.682 165.873 291.083 168.445L290.965 168.545C291.8 167.41 294.052 164.159 294.197 163.886C296.231 160.081 297.93 151.545 294.579 148.067C294.004 147.508 293.319 147.075 292.567 146.797C291.815 146.518 291.013 146.401 290.212 146.453C289.412 146.504 288.631 146.723 287.921 147.095C287.211 147.467 286.586 147.984 286.088 148.612C283.891 151.218 283.918 155.414 284.626 158.556C285.425 162.097 290.174 168.372 290.556 168.872C286.961 171.584 283.551 174.532 280.349 177.698C278.469 179.514 276.644 181.44 274.828 183.374C275.527 182.366 276.136 181.458 276.208 181.321C278.242 177.526 279.94 168.981 276.59 165.512C276.017 164.95 275.333 164.514 274.581 164.235C273.83 163.955 273.027 163.837 272.227 163.888C271.427 163.94 270.646 164.159 269.936 164.533C269.226 164.907 268.604 165.426 268.108 166.057C265.901 168.654 265.929 172.849 266.637 175.991C267.345 179.133 271.305 184.618 272.367 186.034L270.297 188.277C267.009 191.91 263.749 195.497 260.435 198.938C259.272 200.155 258.074 201.308 256.884 202.471C257.502 201.563 258.019 200.818 258.083 200.655C260.117 196.859 261.815 188.314 258.464 184.845C257.891 184.283 257.207 183.848 256.455 183.569C255.703 183.289 254.9 183.171 254.1 183.221C253.299 183.272 252.518 183.49 251.807 183.862C251.096 184.234 250.471 184.751 249.974 185.381C247.776 187.987 247.803 192.182 248.512 195.324C249.22 198.466 252.789 203.415 254.051 205.113C252.798 206.257 251.545 207.411 250.273 208.473C249.365 209.172 248.593 209.908 247.667 210.571L244.988 212.55C243.245 213.758 241.447 215.002 239.712 216.137C238.505 216.927 237.351 217.663 236.18 218.408C237.36 217.209 239.612 214.821 239.812 214.603C241.972 211.484 243.297 207.863 243.662 204.087C243.919 203.751 244.144 203.393 244.334 203.016C244.715 202.309 244.943 201.531 245.003 200.731C245.063 199.931 244.955 199.127 244.684 198.372C244.414 197.616 243.987 196.926 243.432 196.347C242.878 195.767 242.207 195.31 241.465 195.006C236.924 193.308 229.778 198.248 227.099 201.626C226.936 201.826 225.464 204.178 224.556 205.676C224.956 204.714 225.355 203.787 225.755 202.789C226.554 200.827 227.299 198.847 228.098 196.713C228.452 195.669 228.815 194.616 229.169 193.553C229.524 192.491 229.814 191.356 230.15 190.248C230.868 187.651 231.467 184.999 232.012 182.302C233.728 183.001 239.876 185.39 243.109 185.281C246.341 185.172 250.373 184.137 252.362 181.349C252.845 180.709 253.189 179.974 253.369 179.193C253.55 178.411 253.564 177.601 253.411 176.813C253.258 176.026 252.94 175.28 252.479 174.624C252.019 173.967 251.425 173.415 250.736 173.003C246.532 170.633 238.695 174.438 235.535 177.362C235.335 177.553 233.301 179.905 232.212 181.222C232.52 179.605 232.847 177.989 233.12 176.336C233.882 171.569 234.509 166.729 235.163 161.898C235.353 160.417 235.571 158.946 235.78 157.475C236.389 157.729 243.635 160.726 247.258 160.599C250.473 160.49 254.523 159.455 256.503 156.667C256.987 156.028 257.331 155.294 257.512 154.513C257.693 153.731 257.708 152.921 257.556 152.134C257.403 151.347 257.087 150.6 256.627 149.944C256.167 149.287 255.574 148.734 254.886 148.322C250.673 145.961 242.836 149.756 239.676 152.69C239.44 152.908 236.516 156.322 235.817 157.23C236.28 153.988 236.725 150.755 237.379 147.586C238.193 143.304 239.282 139.079 240.639 134.937C240.92 135.055 248.466 138.224 252.18 138.097C255.395 137.979 259.445 136.952 261.425 134.165C261.909 133.525 262.253 132.79 262.434 132.008C262.616 131.226 262.631 130.415 262.478 129.627C262.326 128.839 262.009 128.092 261.549 127.435C261.089 126.777 260.496 126.224 259.808 125.81C255.595 123.449 247.767 127.245 244.598 130.178C244.389 130.369 242.164 132.957 241.129 134.21L240.893 134.074C242.349 129.948 244.173 125.96 246.341 122.16C247.522 120.053 248.757 118.101 249.974 116.23C251.318 116.966 257.502 120.244 260.871 120.507C264.085 120.743 268.235 120.162 270.496 117.61C271.047 117.027 271.469 116.335 271.734 115.578C272 114.821 272.103 114.017 272.037 113.218C271.971 112.419 271.737 111.643 271.351 110.94C270.965 110.237 270.436 109.623 269.797 109.138C265.874 106.323 257.674 109.238 254.205 111.808C254.024 111.944 252.262 113.569 251 114.777C251.572 113.942 252.153 113.07 252.725 112.28C254.85 109.32 256.984 106.731 258.882 104.452C259.981 103.172 260.998 102.028 261.951 100.974C263.649 100.974 270.487 101.047 273.52 99.7483C276.553 98.4497 279.877 96.0524 280.73 92.747C280.951 91.9745 281.006 91.1641 280.893 90.3688C280.779 89.5734 280.498 88.8111 280.07 88.1315C279.641 87.4519 279.074 86.8703 278.406 86.4248C277.737 85.9792 276.982 85.6797 276.19 85.5459C271.413 84.8557 265.475 91.2305 263.577 95.0989C263.413 95.4349 261.461 100.965 261.543 100.965H261.652C260.744 101.964 259.699 103.045 258.628 104.252C256.675 106.486 254.478 109.038 252.271 111.962C249.864 115.096 247.642 118.368 245.615 121.76C243.332 125.549 241.39 129.533 239.812 133.665L239.758 133.82C239.839 132.403 239.912 128.453 239.885 128.144C239.485 123.849 236.189 115.794 231.476 114.75C230.689 114.598 229.879 114.613 229.098 114.795C228.318 114.977 227.584 115.321 226.945 115.805C226.306 116.289 225.776 116.902 225.39 117.604C225.003 118.306 224.769 119.082 224.702 119.881C224.348 123.268 226.681 126.755 229.006 128.98Z" fill="#9C9C9C"/>
<path d="M283.927 288.831V285.788C283.927 270.124 303.76 269.443 303.76 258.292C303.76 253.452 299.819 250.291 293.952 250.291C287.532 250.291 283.473 253.788 283.473 258.746V259.99C283.473 261.225 282.801 261.806 281.557 261.806L269.507 261.352C268.381 261.352 267.591 260.789 267.591 260.008V258.764C267.591 245.143 278.406 235.78 294.298 235.78C309.844 235.78 319.869 244.571 319.869 257.747C319.869 276.453 299.701 276.571 299.701 286.806V288.831C299.731 289.09 299.703 289.352 299.617 289.599C299.532 289.845 299.392 290.069 299.207 290.253C299.023 290.438 298.799 290.578 298.553 290.663C298.306 290.749 298.044 290.777 297.785 290.747H285.843C285.584 290.777 285.322 290.749 285.075 290.663C284.829 290.578 284.605 290.438 284.421 290.253C284.236 290.069 284.096 289.845 284.011 289.599C283.925 289.352 283.897 289.09 283.927 288.831ZM282.91 306.992C282.91 302.034 287.305 297.975 292.599 297.975C297.676 297.975 302.18 302.034 302.18 306.992C302.18 311.95 297.639 316.009 292.49 316.009C287.342 316.009 282.91 311.932 282.91 306.974V306.992Z" fill="#263238"/>
<path d="M45.827 159.792V157.15C45.827 143.528 63.0806 142.956 63.0806 133.267C63.0806 129.054 59.6572 126.32 54.5719 126.32C48.9872 126.32 45.4911 129.353 45.4911 133.658V134.738C45.4911 135.81 44.9099 136.3 43.8293 136.3L33.3591 135.91C32.3783 135.91 31.6973 135.419 31.6973 134.738V133.658C31.6973 121.852 41.0868 113.68 54.8897 113.68C68.3929 113.68 77.1105 121.317 77.1105 132.749C77.1105 148.995 59.5845 149.095 59.5845 158.003V159.765C59.6107 159.989 59.5857 160.217 59.5115 160.431C59.4372 160.644 59.3156 160.838 59.1557 160.998C58.9959 161.158 58.8019 161.279 58.5884 161.354C58.3748 161.428 58.1473 161.453 57.9227 161.427H47.4888C47.2668 161.452 47.0419 161.428 46.8306 161.355C46.6193 161.282 46.4269 161.163 46.2676 161.006C46.1082 160.85 45.986 160.659 45.9098 160.449C45.8335 160.239 45.8053 160.015 45.827 159.792ZM44.919 175.547C44.919 171.243 48.7329 167.72 53.3278 167.72C57.732 167.72 61.6549 171.243 61.6549 175.547C61.6549 179.852 57.732 183.375 53.237 183.375C51.1017 183.429 49.0316 182.636 47.4785 181.17C45.9253 179.703 45.015 177.682 44.9462 175.547H44.919Z" fill="#FFCA05"/>
<path d="M265.003 55.5892V54.2543C265.003 47.3801 273.702 47.0805 273.702 42.1859C273.702 40.061 271.968 38.6716 269.398 38.6716C266.583 38.6716 264.803 40.2063 264.803 42.3857V42.9305C264.803 43.4754 264.504 43.7206 263.959 43.7206L258.674 43.5208C258.174 43.5208 257.829 43.2756 257.829 42.9305V42.3857C257.829 36.4014 262.578 32.2969 269.552 32.2969C276.372 32.2969 280.776 36.1562 280.776 41.9407C280.776 50.1135 271.923 50.1952 271.923 54.6539V55.562C271.936 55.6757 271.923 55.791 271.885 55.899C271.847 56.0071 271.785 56.1051 271.704 56.1857C271.623 56.2662 271.524 56.3271 271.415 56.3638C271.307 56.4005 271.192 56.412 271.078 56.3974H265.838C265.728 56.4115 265.615 56.4005 265.509 56.3653C265.403 56.3301 265.307 56.2715 265.227 56.1939C265.146 56.1163 265.085 56.0217 265.046 55.917C265.007 55.8124 264.993 55.7003 265.003 55.5892ZM264.558 63.5531C264.5 62.704 264.698 61.857 265.128 61.1223C265.557 60.3875 266.198 59.799 266.966 59.4333C267.735 59.0676 268.596 58.9415 269.437 59.0716C270.278 59.2016 271.06 59.5818 271.683 60.1625C272.305 60.7433 272.738 61.4978 272.925 62.328C273.113 63.1582 273.046 64.0255 272.734 64.8174C272.422 65.6092 271.879 66.2888 271.176 66.7678C270.472 67.2468 269.641 67.5031 268.79 67.5033C268.252 67.5227 267.716 67.4358 267.212 67.2476C266.709 67.0595 266.247 66.7737 265.854 66.4067C265.461 66.0397 265.144 65.5988 264.921 65.1091C264.699 64.6194 264.576 64.0906 264.558 63.5531Z" fill="#FFCA05"/>
<path d="M9.98553 239.24V237.56C9.98553 228.897 20.9552 228.525 20.9552 222.35C20.9552 219.671 18.7758 217.927 15.5067 217.927C11.9561 217.927 9.7131 219.861 9.7131 222.604V223.285C9.7131 223.975 9.34078 224.284 8.65064 224.284L1.98531 224.039C1.35873 224.039 0.922852 223.721 0.922852 223.285V222.604C0.922852 215.067 6.90712 209.891 15.6974 209.891C24.2969 209.891 29.8362 214.749 29.8362 222.041C29.8362 232.384 18.685 232.447 18.685 238.123V239.24C18.7026 239.384 18.6872 239.53 18.6401 239.666C18.5929 239.803 18.5152 239.928 18.4128 240.03C18.3104 240.133 18.186 240.21 18.0491 240.257C17.9121 240.305 17.7663 240.32 17.6225 240.302H11.0298C10.8875 240.317 10.7437 240.299 10.6091 240.251C10.4745 240.202 10.3525 240.124 10.2522 240.022C10.1519 239.92 10.0758 239.797 10.0297 239.661C9.98351 239.526 9.96842 239.382 9.98553 239.24ZM9.42251 249.274C9.35141 248.204 9.60403 247.138 10.1475 246.214C10.691 245.289 11.5001 244.55 12.4696 244.092C13.4391 243.634 14.5239 243.479 15.583 243.646C16.6421 243.813 17.6263 244.295 18.4075 245.03C19.1887 245.764 19.7308 246.717 19.963 247.763C20.1953 248.81 20.1071 249.903 19.7098 250.898C19.3125 251.894 18.6247 252.748 17.7357 253.347C16.8468 253.947 15.7979 254.265 14.7257 254.26C13.3591 254.304 12.0309 253.803 11.033 252.868C10.0352 251.934 9.44938 250.641 9.40435 249.274H9.42251Z" stroke="#263238" stroke-miterlimit="10"/>
<path d="M93.5292 82.4865V81.3332C93.5292 75.3762 101.075 75.1129 101.075 70.8721C101.075 69.0559 99.577 67.83 97.3431 67.83C94.9004 67.83 93.3566 69.1558 93.3566 71.0446V71.5169C93.3566 71.9891 93.1024 72.1979 92.6302 72.1979L88.0897 72.0254C87.6629 72.0254 87.3633 71.8165 87.3633 71.5169V71.0446C87.3633 65.8595 91.4769 62.2998 97.5157 62.2998C103.554 62.2998 107.15 65.6416 107.15 70.6542C107.15 77.7735 99.4771 77.819 99.4771 81.7146V82.4865C99.4888 82.5847 99.478 82.6843 99.4457 82.7778C99.4133 82.8712 99.3601 82.9561 99.2902 83.0261C99.2203 83.096 99.1354 83.1491 99.0419 83.1815C98.9484 83.2139 98.8489 83.2247 98.7506 83.213H94.2102C94.1156 83.2175 94.0212 83.2015 93.9334 83.1659C93.8456 83.1304 93.7666 83.0762 93.7019 83.0071C93.6371 82.938 93.5881 82.8557 93.5583 82.7658C93.5285 82.6759 93.5185 82.5806 93.5292 82.4865ZM93.1478 89.3879C93.1078 88.6624 93.2864 87.9415 93.6605 87.3184C94.0345 86.6954 94.5868 86.1989 95.2461 85.8931C95.9053 85.5873 96.641 85.4863 97.3583 85.603C98.0755 85.7198 98.7413 86.049 99.2694 86.5481C99.7976 87.0473 100.164 87.6933 100.321 88.4028C100.478 89.1123 100.419 89.8526 100.151 90.5281C99.8827 91.2035 99.4182 91.783 98.8173 92.1917C98.2164 92.6004 97.5068 92.8194 96.7801 92.8205C95.8422 92.8524 94.93 92.5107 94.2439 91.8705C93.5577 91.2303 93.1537 90.344 93.1205 89.4061L93.1478 89.3879Z" fill="#263238"/>
<path d="M227.926 331.439V330.285C227.926 324.328 235.472 324.074 235.472 319.824C235.472 318.008 233.974 316.782 231.74 316.782C229.297 316.782 227.753 318.108 227.753 319.997V320.469C227.753 320.941 227.499 321.159 227.027 321.159L222.486 320.987C222.059 320.987 221.76 320.769 221.76 320.469V319.997C221.76 314.812 225.873 311.252 231.912 311.252C237.951 311.252 241.647 314.594 241.647 319.615C241.647 326.726 233.974 326.771 233.974 330.667V331.439C233.985 331.537 233.974 331.637 233.942 331.731C233.909 331.825 233.856 331.91 233.787 331.981C233.717 332.051 233.632 332.105 233.539 332.139C233.445 332.172 233.346 332.184 233.247 332.174H228.707C228.604 332.194 228.498 332.189 228.397 332.159C228.297 332.13 228.205 332.077 228.129 332.005C228.053 331.934 227.994 331.845 227.959 331.746C227.924 331.648 227.912 331.542 227.926 331.439ZM227.544 338.34C227.504 337.615 227.683 336.894 228.057 336.271C228.431 335.648 228.983 335.151 229.643 334.845C230.302 334.539 231.038 334.438 231.755 334.555C232.472 334.672 233.138 335.001 233.666 335.5C234.194 335.999 234.56 336.645 234.718 337.355C234.875 338.064 234.815 338.805 234.547 339.48C234.279 340.156 233.815 340.735 233.214 341.144C232.613 341.553 231.903 341.772 231.177 341.773C230.242 341.795 229.336 341.446 228.658 340.803C227.979 340.16 227.582 339.275 227.553 338.34H227.544Z" stroke="#263238" stroke-miterlimit="10"/>
<path d="M192.372 352.106C192.308 351.915 192.245 351.724 192.172 351.534C192.099 351.343 192.045 351.143 191.972 350.953C191.9 350.762 191.845 350.571 191.772 350.381C191.7 350.19 191.645 349.99 191.573 349.799C191.5 349.609 191.446 349.418 191.373 349.227C191.3 349.037 191.246 348.837 191.173 348.646L190.973 348.074C190.91 347.874 190.837 347.684 190.774 347.493L190.574 346.921C190.51 346.721 190.438 346.53 190.374 346.34L190.174 345.767C190.111 345.568 190.038 345.377 189.974 345.186L189.784 344.578C189.72 344.378 189.648 344.187 189.584 343.997L189.375 343.425C189.312 343.225 189.248 343.034 189.175 342.843C189.103 342.653 189.048 342.462 188.976 342.271C188.903 342.081 188.848 341.881 188.776 341.69C188.703 341.499 188.649 341.309 188.576 341.118C185.616 332.11 176.462 325.499 166.392 325.499C156.63 325.499 148.139 331.184 144.598 339.193C144.507 339.375 144.425 339.565 144.343 339.747L144.098 340.31C144.007 340.491 143.926 340.673 143.844 340.864C143.762 341.055 143.671 341.236 143.59 341.418L143.344 341.972C143.254 342.162 143.172 342.344 143.09 342.535C143.008 342.725 142.918 342.898 142.836 343.089C142.754 343.279 142.663 343.452 142.582 343.643L142.336 344.196C142.246 344.378 142.164 344.569 142.082 344.75C142 344.932 141.91 345.123 141.828 345.304L141.583 345.867C141.492 346.049 141.41 346.231 141.328 346.421C141.247 346.612 141.156 346.794 141.074 346.975L140.829 347.529C140.738 347.72 140.656 347.901 140.575 348.092C140.493 348.283 140.402 348.455 140.32 348.646L140.075 349.2C139.984 349.382 139.903 349.572 139.821 349.754C139.739 349.936 139.648 350.126 139.567 350.317C138.009 353.635 137.208 357.258 137.224 360.923C137.224 375.544 149.846 387.494 165.456 387.494C180.73 387.494 194.015 375.544 194.015 360.923C194.013 358.136 193.524 355.37 192.572 352.751C192.508 352.487 192.444 352.297 192.372 352.106Z" fill="#263238"/>
<path d="M170.769 150.974C123.939 150.974 92.0566 178.534 92.0566 218.726V222.358C92.0651 222.958 92.2284 223.546 92.5306 224.065C92.8329 224.583 93.2639 225.015 93.782 225.318C93.9779 225.507 94.1907 225.677 94.4176 225.827C94.6144 226.018 94.8305 226.189 95.0624 226.336C95.2592 226.527 95.4752 226.697 95.7071 226.844C95.9021 227.037 96.1184 227.208 96.3519 227.353C96.5455 227.544 96.7585 227.714 96.9875 227.861C97.1841 228.055 97.4002 228.229 97.6323 228.379C97.8314 228.567 98.0472 228.738 98.277 228.887C98.4743 229.078 98.6903 229.248 98.9218 229.396C99.1158 229.586 99.3288 229.757 99.5574 229.904C99.7707 230.11 100.005 230.293 100.257 230.449C100.442 230.618 100.639 230.773 100.847 230.912C101.046 231.101 101.262 231.271 101.492 231.421C101.688 231.609 101.9 231.78 102.127 231.929C102.326 232.118 102.542 232.288 102.772 232.438C102.969 232.629 103.185 232.799 103.417 232.946C103.611 233.137 103.824 233.307 104.052 233.455C104.25 233.646 104.466 233.816 104.697 233.963C104.891 234.154 105.104 234.324 105.333 234.472C105.532 234.661 105.748 234.831 105.978 234.98C106.172 235.171 106.385 235.341 106.613 235.489C107.662 236.412 109.031 236.888 110.427 236.815L139.631 237.904C142.637 237.904 144.271 236.542 144.271 233.537V230.54C144.271 218.526 154.097 210.072 169.698 210.072C183.891 210.072 193.444 217.709 193.444 229.45C193.444 230.788 193.317 232.123 193.063 233.437C178.406 252.652 140.258 261.124 140.258 298.419V307.391C140.258 311.023 142.246 313.03 145.906 313.03H181.067C184.699 313.03 186.715 311.042 186.715 307.391V301.407C186.715 271.186 246.168 270.85 246.168 215.72C246.168 176.872 216.6 150.974 170.769 150.974Z" fill="#263238"/>
<path d="M140.212 307.41V298.438C140.212 252.271 198.665 250.31 198.665 217.401C198.665 203.117 187.042 193.791 169.77 193.791C150.837 193.791 138.895 204.088 138.895 218.699V222.332C138.895 225.964 136.898 227.653 133.247 227.653L97.7046 226.318C94.3901 226.318 92.0654 224.656 92.0654 222.332V218.699C92.0654 178.508 123.948 150.947 170.778 150.947C216.609 150.947 246.149 176.846 246.149 215.712C246.149 270.842 186.697 271.178 186.697 301.399V307.383C186.697 311.015 184.699 313.022 181.049 313.022H145.86C142.201 313.049 140.212 311.061 140.212 307.41ZM137.224 360.923C137.224 346.312 150.174 334.353 165.784 334.353C180.731 334.353 194.016 346.312 194.016 360.923C194.016 375.535 180.703 387.449 165.457 387.449C149.829 387.449 137.224 375.498 137.224 360.923Z" fill="#FFCA05" stroke="#FFCA05" stroke-miterlimit="10"/>
<path d="M164.004 417.224C191.392 417.224 213.594 412.26 213.594 406.137C213.594 400.013 191.392 395.049 164.004 395.049C136.615 395.049 114.413 400.013 114.413 406.137C114.413 412.26 136.615 417.224 164.004 417.224Z" fill="#263238"/>
<path d="M126.103 154.651L124.205 158.792C124.205 158.792 113.181 159.982 113.181 160.808C113.181 161.635 113.299 167.328 113.898 167.564C114.354 167.742 114.859 167.742 115.315 167.564L131.551 163.414L133.095 156.068L126.103 154.651Z" fill="white" stroke="#263238" stroke-linecap="round" stroke-linejoin="round"/>
<path d="M123.015 162.053C120.999 163.705 118.824 165.153 116.522 166.376C113.898 167.556 113.798 169.345 114.633 169.345C115.469 169.345 122.879 166.239 122.879 166.239C122.879 166.239 129.608 164.478 130.579 163.942C131.551 163.406 131.66 160.428 131.66 160.428" fill="white"/>
<path d="M123.015 162.053C120.999 163.705 118.824 165.153 116.522 166.376C113.898 167.556 113.798 169.345 114.633 169.345C115.469 169.345 122.879 166.239 122.879 166.239C122.879 166.239 129.608 164.478 130.579 163.942C131.551 163.406 131.66 160.428 131.66 160.428" stroke="#263238" stroke-linecap="round" stroke-linejoin="round"/>
<path d="M135.801 75.0859L129.026 127.01L124.313 155.124L134.775 157.594L142.575 124.34L146.271 103.409L135.801 75.0859Z" fill="#7D7D7D" stroke="#263238" stroke-linecap="round" stroke-linejoin="round"/>
<path d="M190.467 37.4912L186.336 36.8374L177.872 33.6318L177.563 43.6843L190.685 44.8921L190.467 37.4912Z" fill="white" stroke="#263238" stroke-linecap="round" stroke-linejoin="round"/>
<path d="M142.167 221.622C139.087 225.213 136.21 228.972 133.549 232.883C130.053 238.222 131.288 243.961 135.601 245.405C139.915 246.849 145.445 242.935 146.889 239.857C148.332 236.778 147.915 235.144 150.167 232.065C152.419 228.987 154.271 225.909 153.454 221.804C152.637 217.7 144.382 218.753 142.167 221.622Z" fill="#7D7D7D" stroke="#263238" stroke-linecap="round" stroke-linejoin="round"/>
<path d="M146.47 240.63C146.179 240.012 145.843 239.359 145.444 238.659C142.147 232.857 136.363 233.32 132.73 234.4C130.342 239.277 131.704 244.126 135.618 245.434C139.532 246.741 144.581 243.545 146.47 240.63Z" fill="white" stroke="#263238" stroke-linecap="round" stroke-linejoin="round"/>
<path d="M145.444 238.659C144.218 240.475 142.574 245.433 136.208 243.381C134.433 242.925 132.845 241.925 131.668 240.52C131.806 241.628 132.25 242.675 132.951 243.543C133.653 244.411 134.583 245.066 135.636 245.433C139.941 246.868 145.48 242.963 146.924 239.885C148.368 236.806 147.95 235.172 150.202 232.093C152.454 229.015 154.306 225.937 153.489 221.832C153.489 226.754 151.673 227.571 149.385 230.241C147.096 232.911 146.679 236.806 145.444 238.659Z" fill="white" stroke="#263238" stroke-linecap="round" stroke-linejoin="round"/>
<path d="M202.725 221.622C205.805 225.213 208.682 228.972 211.343 232.883C214.839 238.222 213.604 243.961 209.291 245.405C204.977 246.849 199.447 242.935 198.003 239.857C196.559 236.778 196.977 235.144 194.725 232.065C192.473 228.987 190.621 225.909 191.438 221.804C192.255 217.7 200.473 218.753 202.725 221.622Z" fill="#7D7D7D" stroke="#263238" stroke-linecap="round" stroke-linejoin="round"/>
<path d="M198.432 240.63C198.713 240.012 199.049 239.359 199.449 238.659C202.745 232.857 208.53 233.32 212.162 234.4C214.55 239.277 213.188 244.126 209.274 245.434C205.36 246.741 200.311 243.545 198.432 240.63Z" fill="white" stroke="#263238" stroke-linecap="round" stroke-linejoin="round"/>
<path d="M199.448 238.659C200.674 240.475 202.318 245.433 208.684 243.381C210.459 242.925 212.047 241.925 213.224 240.52C213.086 241.628 212.642 242.675 211.941 243.543C211.239 244.411 210.309 245.066 209.256 245.433C204.951 246.868 199.412 242.963 197.968 239.885C196.524 236.806 196.942 235.172 194.69 232.093C192.438 229.015 190.585 225.937 191.403 221.832C191.403 226.754 193.219 227.571 195.507 230.241C197.796 232.911 198.213 236.806 199.448 238.659Z" fill="white" stroke="#263238" stroke-linecap="round" stroke-linejoin="round"/>
<path d="M212.352 150.819C212.352 147.123 205.995 143.019 205.995 143.019C196.415 133.275 179.125 134.565 172.741 135.436C166.385 134.528 149.077 133.275 139.496 143.019C139.496 143.019 133.14 147.123 133.14 150.819C133.14 154.515 141.149 221.214 141.149 221.214C141.149 221.214 140.94 224.701 146.688 225.11C152.436 225.518 154.861 222.24 154.861 222.24L157.122 165.803C157.122 165.803 166.357 159.228 168.019 159.028C168.618 158.947 169.399 158.82 170.271 158.711V158.82C171.897 158.48 173.576 158.48 175.202 158.82V158.711C176.11 158.82 176.846 158.947 177.454 159.028C179.098 159.228 188.351 165.803 188.351 165.803L190.612 222.24C190.612 222.24 193.073 225.518 198.785 225.11C204.497 224.701 204.324 221.214 204.324 221.214C204.324 221.214 212.352 154.515 212.352 150.819Z" fill="#263238" stroke="#263238" stroke-linecap="round" stroke-linejoin="round"/>
<path d="M188.341 165.803C188.341 165.803 187.106 152.255 193.063 147.124" stroke="#707070" stroke-linecap="round" stroke-linejoin="round"/>
<path d="M157.149 165.803C157.149 165.803 157.766 154.516 156.531 150.411C155.296 146.307 153.244 144.663 153.244 144.663" stroke="#707070" stroke-linecap="round" stroke-linejoin="round"/>
<path d="M164.74 138.915C164.74 138.915 171.306 146.507 172.541 152.872" stroke="#707070" stroke-linecap="round" stroke-linejoin="round"/>
<path d="M179.106 139.351C179.106 139.351 175.411 143.455 175.002 146.534" stroke="#707070" stroke-linecap="round" stroke-linejoin="round"/>
<path d="M169.872 59.4935C169.872 59.4935 163.924 58.6672 161.871 60.7195C159.819 62.7717 152.836 70.3361 152.836 70.3361L156.532 135.6C156.532 135.6 164.95 138.887 172.133 138.887C179.316 138.887 187.525 136.218 189.386 134.783C191.248 133.348 189.595 63.362 189.595 63.362C189.595 63.362 174.348 58.876 169.872 59.4935Z" fill="#FFCA05" stroke="#263238" stroke-linecap="round" stroke-linejoin="round"/>
<path d="M180.751 60.928C183.875 60.4536 187.027 60.1776 190.186 60.1016C194.29 60.1016 198.359 60.3105 198.359 60.3105L208.62 50.4578L187.97 45.7357L189.614 36.3007C189.614 36.3007 204.797 35.2746 212.389 36.7094C219.98 38.1442 231.885 41.8401 232.503 41.8401C233.12 41.8401 233.937 44.1012 233.32 45.7357C232.702 47.3703 213.397 68.7284 207.63 74.2677C203.858 77.9644 200.296 81.8692 196.96 85.9638L194.327 131.731C194.327 131.731 201.101 135.427 202.336 136.653C203.571 137.879 205.006 142.81 205.006 142.81C205.006 142.81 192.483 137.679 189.196 137.271C185.909 136.862 183.866 136.653 183.248 135.454C182.631 134.256 177.5 79.4256 177.5 79.4256L177.709 61.9814C177.709 61.9814 177.673 60.928 180.751 60.928Z" fill="#7D7D7D" stroke="#263238" stroke-linecap="round" stroke-linejoin="round"/>
<path d="M193.063 89.043L181.976 90.4777L183.002 94.5823L188.55 96.0171L193.881 93.5561L193.063 89.043Z" stroke="#263238" stroke-linecap="round" stroke-linejoin="round"/>
<path d="M199.421 64.416L196.96 85.9648L203.326 67.7033" stroke="#263238" stroke-linecap="round" stroke-linejoin="round"/>
<path d="M208.656 50.4575C208.656 50.4575 213.787 51.4837 221.587 48.4053" stroke="#263238" stroke-linecap="round" stroke-linejoin="round"/>
<path d="M213.996 51.8925C217.367 51.9863 220.737 51.7123 224.049 51.0752" stroke="#263238" stroke-linecap="round" stroke-linejoin="round"/>
<path d="M162.896 59.2852L163.923 74.2685C164.858 75.4989 166.069 76.4924 167.459 77.169C168.848 77.8456 170.377 78.1865 171.923 78.1642C177.054 77.9644 177.671 74.2685 177.671 74.2685V61.9549L162.896 59.2852Z" fill="white" stroke="#263238" stroke-linecap="round" stroke-linejoin="round"/>
<path d="M177.873 67.0843L177.464 79.4161L181.777 72.6418C181.777 72.6418 186.499 78.5898 187.725 78.39C188.951 78.1902 186.908 75.7202 186.499 73.4682C186.091 71.2161 182.595 63.1977 182.186 60.9457C181.777 58.6937 177.873 58.2759 177.645 59.3021C177.532 60.1883 177.532 61.0856 177.645 61.9718L177.873 67.0843Z" fill="#7D7D7D" stroke="#263238" stroke-linecap="round" stroke-linejoin="round"/>
<path d="M163.716 78.164C163.716 78.164 164.533 135.628 162.481 136.281C160.428 136.935 152.219 137.108 147.043 139.569C141.867 142.03 139.452 143.056 139.452 143.056C139.452 143.056 141.912 137.108 144.791 134.438C146.704 132.718 148.843 131.267 151.148 130.125L145.817 102.628C145.817 102.628 135.964 76.5567 135.756 75.1219C135.547 73.6871 154.435 63.0171 158.331 61.1647C162.226 59.3122 163.261 60.9649 163.261 60.9649L163.716 78.164Z" fill="#7D7D7D" stroke="#263238" stroke-linecap="round" stroke-linejoin="round"/>
<path d="M158.584 58.2592C158.584 58.2592 153.662 73.8601 153.245 75.9123C152.827 77.9646 153.245 77.9646 154.688 76.5208C156.132 75.0769 159.819 71.599 159.819 71.599L163.715 78.1644L163.506 66.0596V59.0765C163.506 59.0765 163.306 56.2069 158.584 58.2592Z" fill="#7D7D7D" stroke="#263238" stroke-linecap="round" stroke-linejoin="round"/>
<path d="M148.941 91.9219H161.046L160.846 96.8437L155.507 98.6871L148.732 96.8437L148.941 91.9219Z" stroke="#263238" stroke-linecap="round" stroke-linejoin="round"/>
<path d="M182.185 37.9442C182.185 37.9442 185.055 50.4576 185.672 52.4736C186.29 54.4895 182.394 62.5351 181.132 64.3785C180.651 65.178 179.991 65.854 179.202 66.3523C178.414 66.8505 177.52 67.1573 176.591 67.2481C175.157 67.2481 167.356 64.5874 165.504 63.3524C163.651 62.1174 161.817 60.6826 161.817 60.6826C160.944 61.0807 159.974 61.2154 159.025 61.0702C158.077 60.925 157.191 60.5063 156.477 59.8654C154.016 57.6042 150.729 54.9345 151.546 53.0911C151.944 52.1865 152.611 51.4261 153.456 50.9128C154.3 50.3996 155.282 50.1582 156.268 50.2215C158.53 50.2215 157.712 50.0127 157.712 50.0127C157.712 50.0127 153.608 44.0647 153.608 39.3427C153.608 34.6206 162.425 31.1699 167.556 31.1699C171.103 31.3178 174.588 32.1536 177.817 33.6308L182.185 37.9442Z" fill="white" stroke="#263238" stroke-linecap="round" stroke-linejoin="round"/>
<path d="M175.002 42.6572L178.698 49.6404L175.002 52.1013L173.358 50.049" stroke="#263238" stroke-linecap="round" stroke-linejoin="round"/>
<path d="M181.777 49.0234C181.777 49.0234 181.977 50.6671 179.516 53.3368" stroke="#263238" stroke-linecap="round" stroke-linejoin="round"/>
<path d="M171.108 45.2269C171.108 46.1895 170.69 46.9704 170.2 46.9704C169.71 46.9704 169.292 46.1895 169.292 45.2269C169.292 44.2643 169.71 43.4834 170.2 43.4834C170.69 43.4834 171.108 44.2643 171.108 45.2269Z" fill="#263238"/>
<path d="M177.565 43.6843C178.076 43.6843 178.491 42.9037 178.491 41.9408C178.491 40.9779 178.076 40.1973 177.565 40.1973C177.053 40.1973 176.639 40.9779 176.639 41.9408C176.639 42.9037 177.053 43.6843 177.565 43.6843Z" fill="#263238"/>
<path d="M160.019 27.2659C160.019 27.2659 147.106 31.988 146.679 37.945C146.252 43.902 158.175 52.102 158.793 53.1282C159.41 54.1543 161.254 51.8932 161.254 51.8932C160.843 51.3418 160.557 50.7081 160.414 50.0357C160.272 49.3633 160.276 48.668 160.428 47.9975C161.045 45.9452 163.715 43.4571 163.715 42.4582C163.715 41.4593 160.636 43.2754 160.636 40.197C160.636 37.1186 168.228 35.2752 172.741 35.475C177.254 35.6748 181.159 43.2754 184.446 39.5795C187.734 35.8836 183.003 34.8666 183.003 34.8666C183.003 34.8666 189.359 34.0402 189.359 30.7621C189.359 27.4839 186.072 25.2137 184.637 25.2137C183.202 25.2137 179.307 27.6836 179.307 25.0139C179.307 22.3441 183.202 21.1091 179.506 16.8411C175.81 12.5731 171.098 16.8411 171.098 18.4848C171.098 20.1284 169.863 23.1977 169.045 23.1977C168.228 23.1977 165.758 19.5109 162.888 21.5632C162.026 22.2492 161.322 23.1144 160.827 24.0991C160.331 25.0837 160.056 26.1643 160.019 27.2659Z" fill="#263238" stroke="#263238" stroke-linecap="round" stroke-linejoin="round"/>
<path d="M165.359 43.0755L171.925 40.6055" stroke="#263238" stroke-linecap="round" stroke-linejoin="round"/>
<path d="M172.951 37.7355C172.825 37.0912 172.928 36.4234 173.241 35.8467" stroke="#263238" stroke-linecap="round" stroke-linejoin="round"/>
<path d="M173.24 35.8289C173.703 34.9208 174.748 33.7494 177.054 32.7959" stroke="white" stroke-linecap="round" stroke-linejoin="round"/>
</svg>
