<?xml version="1.0" encoding="UTF-8"?>
<!DOCTYPE svg PUBLIC "-//W3C//DTD SVG 1.1//EN" "http://www.w3.org/Graphics/SVG/1.1/DTD/svg11.dtd">
<!-- Creator: CorelDRAW 2020 (64-Bit) -->
<svg xmlns="http://www.w3.org/2000/svg" xml:space="preserve" width="130.063mm" height="118.047mm" version="1.1" style="shape-rendering:geometricPrecision; text-rendering:geometricPrecision; image-rendering:optimizeQuality; fill-rule:evenodd; clip-rule:evenodd"
viewBox="0 0 15133.53 13735.36"
 xmlns:xlink="http://www.w3.org/1999/xlink"
 xmlns:xodm="http://www.corel.com/coreldraw/odm/2003">
 <defs>
  <style type="text/css">
   <![CDATA[
    .fil7 {fill:#0C6F90;fill-rule:nonzero}
    .fil19 {fill:#263238;fill-rule:nonzero}
    .fil20 {fill:#630F0F;fill-rule:nonzero}
    .fil14 {fill:#7F3E3B;fill-rule:nonzero}
    .fil3 {fill:#E6E6E6;fill-rule:nonzero}
    .fil0 {fill:#EBEBEB;fill-rule:nonzero}
    .fil5 {fill:#F0F0F0;fill-rule:nonzero}
    .fil1 {fill:whitesmoke;fill-rule:nonzero}
    .fil6 {fill:#FAFAFA;fill-rule:nonzero}
    .fil17 {fill:#FFCA05;fill-rule:nonzero}
    .fil2 {fill:white;fill-rule:nonzero}
    .fil10 {fill:#FAFAFA;fill-rule:nonzero;fill-opacity:0.078431}
    .fil11 {fill:black;fill-rule:nonzero;fill-opacity:0.121569}
    .fil9 {fill:#FFCA05;fill-rule:nonzero;fill-opacity:0.160784}
    .fil18 {fill:black;fill-rule:nonzero;fill-opacity:0.200000}
    .fil21 {fill:#FAFAFA;fill-rule:nonzero;fill-opacity:0.200000}
    .fil15 {fill:white;fill-rule:nonzero;fill-opacity:0.200000}
    .fil16 {fill:black;fill-rule:nonzero;fill-opacity:0.301961}
    .fil4 {fill:#E0E0E0;fill-rule:nonzero;fill-opacity:0.400000}
    .fil13 {fill:#FAFAFA;fill-rule:nonzero;fill-opacity:0.400000}
    .fil12 {fill:#FFCA05;fill-rule:nonzero;fill-opacity:0.400000}
    .fil8 {fill:#FAFAFA;fill-rule:nonzero;fill-opacity:0.901961}
   ]]>
  </style>
 </defs>
 <g id="Layer_x0020_1">
  <metadata id="CorelCorpID_0Corel-Layer"/>
  <polygon class="fil0" points="1261.14,12378.29 -0,12378.29 -0,12387.8 1261.14,12387.8 "/>
  <polygon class="fil0" points="6303.31,12275.06 4519.01,12275.06 4519.01,12284.58 6303.31,12284.58 "/>
  <polygon class="fil0" points="3793.3,12732.01 2546.26,12732.01 2546.26,12741.53 3793.3,12741.53 "/>
  <polygon class="fil0" points="15133.53,12668.04 14833.09,12668.04 14833.09,12677.56 15133.53,12677.56 "/>
  <polygon class="fil0" points="14494.23,12668.04 12908.68,12668.04 12908.68,12677.56 14494.23,12677.56 "/>
  <polygon class="fil0" points="10199.84,12507.34 8557.92,12507.34 8557.92,12516.86 10199.84,12516.86 "/>
  <polygon class="fil0" points="12604.81,3303.64 14663.27,3303.64 14663.27,935.22 12604.81,935.22 "/>
  <path class="fil0" d="M12829.12 1086.37c2.15,-0.09 4.25,-0.76 6.1,-1.9 5.69,-3.43 581.04,-345.75 764.19,-345.75 183.18,0 731.87,342.7 737.56,345.75 1.33,0.84 2.8,1.4 4.34,1.66 1.55,0.26 3.14,0.21 4.65,-0.15 1.54,-0.35 2.96,-1 4.25,-1.92 1.26,-0.92 2.34,-2.07 3.14,-3.41 1.59,-2.69 2.09,-5.9 1.38,-8.95 -0.71,-3.05 -2.56,-5.7 -5.18,-7.42 -22.86,-14.46 -560.51,-349.17 -750.15,-349.17 -189.6,0 -752.76,334.71 -776.38,349.17 -1.38,0.79 -2.55,1.84 -3.5,3.1 -0.95,1.26 -1.66,2.69 -2.04,4.21 -0.4,1.52 -0.49,3.12 -0.24,4.68 0.21,1.55 0.77,3.05 1.59,4.39 1.12,1.72 2.62,3.14 4.43,4.14 1.79,0.99 3.79,1.54 5.85,1.57z"/>
  <polygon class="fil1" points="12371.41,3303.64 14599.3,3303.64 14599.3,935.22 12371.41,935.22 "/>
  <polygon class="fil2" points="14412.67,3117.05 14412.67,1122.15 12558.31,1122.15 12558.31,3117.05 "/>
  <path class="fil1" d="M13376.98 2455.27c0,-45.18 -13.39,-89.36 -38.51,-126.93 -25.09,-37.56 -60.77,-66.85 -102.51,-84.14 -41.75,-17.3 -87.71,-21.82 -132.02,-13.01 -44.33,8.82 -85.02,30.58 -116.98,62.53 -31.95,31.95 -53.72,72.66 -62.52,116.97 -8.81,44.32 -4.28,90.26 12.99,132.01 17.3,41.75 46.58,77.43 84.17,102.53 37.56,25.12 81.73,38.51 126.93,38.51 60.59,0 118.67,-24.09 161.52,-66.93 42.85,-42.84 66.93,-100.95 66.93,-161.55z"/>
  <path class="fil1" d="M14047.96 1783.94c0,-45.18 -13.42,-89.35 -38.51,-126.92 -25.09,-37.57 -60.77,-66.86 -102.51,-84.15 -41.78,-17.29 -87.71,-21.82 -132.02,-13.01 -44.33,8.82 -85.02,30.58 -116.98,62.53 -31.95,31.95 -53.72,72.66 -62.53,116.98 -8.8,44.32 -4.27,90.26 13,132.01 17.3,41.74 46.58,77.42 84.17,102.52 37.56,25.11 81.73,38.51 126.92,38.51 60.59,0 118.68,-24.07 161.54,-66.92 42.85,-42.85 66.93,-100.96 66.93,-161.56z"/>
  <polygon class="fil0" points="9655.28,5245.2 11713.75,5245.2 11713.75,2876.8 9655.28,2876.8 "/>
  <path class="fil0" d="M9879.15 3027.96c2,0.52 4.1,0.52 6.1,0 5.72,-3.42 581.08,-345.76 764.22,-345.76 183.14,0 731.87,342.71 737.56,345.39 1.33,0.83 2.8,1.38 4.34,1.66 1.55,0.24 3.12,0.21 4.65,-0.16 1.5,-0.34 2.96,-1.01 4.21,-1.91 1.29,-0.92 2.34,-2.08 3.18,-3.41 1.59,-2.68 2.09,-5.91 1.38,-8.96 -0.71,-3.05 -2.58,-5.7 -5.2,-7.42 -22.84,-14.07 -560.48,-349.17 -750.13,-349.17 -189.6,0 -752.8,334.71 -776.38,349.17 -1.38,0.8 -2.58,1.85 -3.54,3.11 -0.93,1.23 -1.63,2.69 -2.04,4.22 -0.37,1.51 -0.45,3.11 -0.21,4.64 0.21,1.57 0.77,3.05 1.57,4.41 1.26,1.48 2.83,2.64 4.61,3.39 1.83,0.73 3.76,1.01 5.67,0.8z"/>
  <polygon class="fil1" points="9421.49,5245.2 11649.42,5245.2 11649.42,2876.8 9421.49,2876.8 "/>
  <polygon class="fil2" points="11462.48,5058.6 11462.48,3063.73 9608.11,3063.73 9608.11,5058.6 "/>
  <path class="fil1" d="M10359.31 4464.23c0,-45.19 -13.39,-89.37 -38.48,-126.92 -25.12,-37.59 -60.8,-66.87 -102.54,-84.17 -41.75,-17.28 -87.67,-21.79 -132.01,-13 -44.31,8.81 -85.03,30.58 -116.96,62.53 -31.95,31.95 -53.72,72.65 -62.53,116.98 -8.83,44.3 -4.31,90.27 13,132.01 17.3,41.75 46.58,77.43 84.14,102.52 37.58,25.12 81.74,38.51 126.93,38.51 60.59,0 118.71,-24.07 161.56,-66.93 42.82,-42.85 66.89,-100.95 66.89,-161.54z"/>
  <path class="fil1" d="M11165.46 3658.14c0,-45.19 -13.39,-89.37 -38.51,-126.93 -25.09,-37.56 -60.77,-66.87 -102.51,-84.14 -41.75,-17.3 -87.71,-21.83 -132.02,-13.02 -44.33,8.83 -85.02,30.6 -116.98,62.52 -31.95,31.96 -53.72,72.69 -62.53,117 -8.8,44.33 -4.27,90.26 13,132.01 17.3,41.75 46.58,77.42 84.17,102.52 37.56,25.12 81.73,38.51 126.92,38.51 60.59,0 118.72,-24.09 161.54,-66.9 42.85,-42.85 66.93,-100.97 66.93,-161.56z"/>
  <path class="fil1" d="M10711.6 4464.23c0,-45.19 13.39,-89.37 38.51,-126.92 25.09,-37.59 60.76,-66.87 102.51,-84.17 41.75,-17.28 87.71,-21.79 132.02,-13 44.33,8.81 85.02,30.58 116.98,62.53 31.95,31.95 53.72,72.65 62.52,116.98 8.81,44.3 4.28,90.27 -12.99,132.01 -17.3,41.75 -46.58,77.43 -84.17,102.52 -37.56,25.12 -81.74,38.51 -126.93,38.51 -60.59,0 -118.67,-24.07 -161.52,-66.93 -42.85,-42.85 -66.93,-100.95 -66.93,-161.54z"/>
  <path class="fil1" d="M9905.1 3658.14c0,-45.19 13.39,-89.37 38.51,-126.93 25.09,-37.56 60.77,-66.87 102.51,-84.14 41.75,-17.3 87.69,-21.83 132.02,-13.02 44.3,8.83 85.02,30.6 116.98,62.52 31.93,31.96 53.69,72.69 62.53,117 8.8,44.33 4.27,90.26 -13.03,132.01 -17.27,41.75 -46.58,77.42 -84.14,102.52 -37.56,25.12 -81.73,38.51 -126.92,38.51 -60.59,0 -118.72,-24.09 -161.57,-66.9 -42.82,-42.85 -66.89,-100.97 -66.89,-161.56z"/>
  <polygon class="fil3" points="971.36,6784.7 8389.61,6784.7 8389.61,473.73 971.36,473.73 "/>
  <polygon class="fil1" points="864.68,6784.7 8282.95,6784.7 8282.95,473.73 864.68,473.73 "/>
  <polygon class="fil2" points="8091.8,6569.94 8091.8,688.45 1056.22,688.45 1056.22,6569.94 "/>
  <polygon class="fil3" points="1136.62,6569.94 1136.62,688.45 1055.88,688.45 1055.88,6569.94 "/>
  <polygon class="fil1" points="943.96,5918.8 8203.83,5918.8 8203.83,5630.18 943.96,5630.18 "/>
  <path class="fil3" d="M656.42 118.05l7941.46 0c3.89,-0.06 7.74,0.66 11.33,2.12 3.61,1.45 6.9,3.61 9.63,6.33 2.77,2.72 4.96,5.98 6.47,9.56 1.5,3.57 2.28,7.42 2.28,11.31 0,3.87 -0.78,7.73 -2.28,11.3 -1.51,3.58 -3.7,6.84 -6.47,9.56 -2.73,2.72 -6.03,4.88 -9.63,6.33 -3.6,1.45 -7.45,2.18 -11.33,2.12l-7941.46 0c-3.89,0.06 -7.74,-0.66 -11.33,-2.12 -3.61,-1.45 -6.89,-3.61 -9.65,-6.33 -2.77,-2.72 -4.96,-5.98 -6.46,-9.56 -1.49,-3.57 -2.27,-7.42 -2.27,-11.3 0,-3.89 0.78,-7.74 2.27,-11.31 1.5,-3.58 3.69,-6.84 6.46,-9.56 2.76,-2.72 6.04,-4.88 9.65,-6.33 3.6,-1.45 7.45,-2.18 11.33,-2.12z"/>
  <path class="fil3" d="M479.77 147.38c0,29.16 8.65,57.67 24.85,81.91 16.21,24.24 39.25,43.12 66.19,54.27 26.95,11.15 56.61,14.03 85.2,8.32 28.6,-5.71 54.85,-19.79 75.44,-40.43 20.59,-20.65 34.6,-46.94 40.25,-75.55 5.64,-28.61 2.66,-58.25 -8.54,-85.17 -11.22,-26.92 -30.16,-49.9 -54.44,-66.05 -24.28,-16.15 -52.81,-24.73 -81.97,-24.66 -19.34,0 -38.48,3.82 -56.34,11.23 -17.86,7.41 -34.08,18.27 -47.73,31.96 -13.65,13.68 -24.47,29.94 -31.83,47.81 -7.37,17.87 -11.14,37.04 -11.08,56.36z"/>
  <path class="fil3" d="M8349.66 310.74c5.18,0.26 10.31,-0.54 15.15,-2.33 4.86,-1.8 9.26,-4.56 13.02,-8.13 3.72,-3.56 6.71,-7.84 8.74,-12.59 2.04,-4.75 3.08,-9.86 3.08,-15.02l0 -85.67c0,-5.17 -1.05,-10.29 -3.08,-15.03 -2.02,-4.75 -5.01,-9.03 -8.74,-12.59 -3.76,-3.56 -8.16,-6.33 -13.02,-8.13 -4.84,-1.79 -9.97,-2.58 -15.15,-2.33 -10.1,0 -19.79,4.01 -26.94,11.15 -7.14,7.14 -11.15,16.84 -11.15,26.94l0 85.67c0,10.1 4,19.78 11.15,26.92 7.14,7.13 16.84,11.15 26.94,11.15z"/>
  <path class="fil3" d="M1100.41 310.73c10.1,0 19.8,-4.01 26.95,-11.16 7.13,-7.13 11.14,-16.82 11.14,-26.92l0 -85.67c0,-10.1 -4,-19.78 -11.14,-26.92 -7.14,-7.14 -16.85,-11.15 -26.95,-11.15 -10.09,0 -19.77,4 -26.91,11.15 -7.13,7.14 -11.15,16.82 -11.15,26.92l0 85.67c0,10.1 4.01,19.79 11.15,26.92 7.14,7.14 16.82,11.16 26.91,11.16z"/>
  <polygon class="fil4" points="665.61,4987.41 8203.83,4987.41 8203.83,147.36 665.61,147.36 "/>
  <path class="fil3" d="M7728.93 147.38c0,29.15 8.66,57.64 24.84,81.87 16.19,24.24 39.21,43.12 66.12,54.28 26.94,11.15 56.55,14.07 85.15,8.39 28.57,-5.69 54.83,-19.72 75.46,-40.34 20.59,-20.61 34.63,-46.87 40.33,-75.44 5.67,-28.59 2.77,-58.21 -8.4,-85.15 -11.15,-26.92 -30.05,-49.94 -54.28,-66.12 -24.23,-16.2 -52.71,-24.84 -81.86,-24.84 -39.07,0 -76.56,15.53 -104.21,43.17 -27.61,27.63 -43.16,65.11 -43.16,104.2z"/>
  <path class="fil3" d="M12252.97 7829.93l-27.4 0c1.14,-5.14 1.88,-10.37 2.28,-15.6 0,-114.25 -139.73,-207.53 -312.62,-207.93 10.74,-23.15 16.46,-48.33 16.78,-73.85 0,-114.25 -110.06,-208.3 -246.38,-208.3 -37.15,0.15 -73.91,7.67 -108.15,22.11 1.3,-7.33 2.19,-14.68 2.69,-22.11 0,-148.52 -142.42,-269.19 -318.32,-269.19 -147.75,0 -270.36,85.28 -306.91,200.26 -46.36,-48.24 -102.17,-86.38 -163.96,-112.06 -61.8,-25.7 -128.22,-38.36 -195.13,-37.19 -76.93,-2.04 -153.22,14.72 -222.24,48.82 -68.99,34.12 -128.65,84.54 -173.75,146.88 -24.78,-24.43 -54.19,-43.77 -86.45,-56.83 -32.29,-13.08 -66.83,-19.64 -101.65,-19.3 -135.95,0 -245.98,92.91 -245.98,207.9 0.06,25.55 5.78,50.77 16.74,73.85 -172.89,0 -313,93.31 -313,208.3 0.52,10.68 2.19,21.27 4.96,31.61l-30.11 0c-228.45,0 -412.74,76.13 -412.74,174 0,97.87 184.68,173.64 412.74,173.64 84.21,0.95 168.03,-10.84 248.66,-35.03 93.68,132.9 385.74,228.49 731.47,228.49 399.08,0 726.53,-129.08 761.55,-293.6 114.7,40.27 235.63,59.84 357.18,57.88 100.64,0.8 200.93,-12.01 298.15,-38.08l1.92 0c15.98,89.86 193.79,160.7 411.23,160.7 228.45,0 413.14,-78.07 413.14,-174 0,-95.96 -186.6,-171.36 -414.69,-171.36z"/>
  <path class="fil5" d="M12842.76 7935.03c84.11,0 164.79,33.41 224.27,92.89 59.48,59.47 92.91,140.16 92.91,224.3 0,351.06 -870.47,638.56 -1934.35,638.56l-960.3 0c-1063.89,0 -1934.36,-287.5 -1934.36,-638.56 0,-84.14 33.44,-164.83 92.92,-224.3 59.47,-59.48 140.16,-92.89 224.26,-92.89l4194.64 0z"/>
  <polygon class="fil3" points="4015.2,12015.79 5698.22,12015.79 5698.22,8890.78 4015.2,8890.78 "/>
  <polygon class="fil5" points="4334.72,12015.79 4014.89,12015.79 4014.89,11723.73 4669.83,11723.73 "/>
  <polygon class="fil3" points="13145.15,12015.79 14828.17,12015.79 14828.17,8890.78 13145.15,8890.78 "/>
  <polygon class="fil5" points="4015.26,11886.7 13424.21,11886.7 13424.21,8891.15 4015.26,8891.15 "/>
  <polygon class="fil5" points="13104.37,12015.79 13423.87,12015.79 13423.87,11723.73 12769.31,11723.73 "/>
  <path class="fil6" d="M13157.3 9162.25l0 1142.32 -8872.06 0 0 -1142.32 8872.06 0zm20.19 -20.16l-8914.35 0 0 1183.05 8912.85 0 0 -1183.05 1.5 0z"/>
  <path class="fil6" d="M13157.3 10471.73l0 1142.34 -8872.06 0 0 -1142.34 8872.06 0zm20.19 -20.16l-8914.35 0 0 1183.83 8912.85 0 0 -1183.83 1.5 0z"/>
  <path class="fil6" d="M7898.8 9258.95l1641.16 0c15.55,0 30.9,-3.05 45.25,-9.03 14.35,-5.93 27.37,-14.68 38.36,-25.67 10.96,-11 19.64,-24.07 25.55,-38.42 5.91,-14.38 8.92,-29.78 8.87,-45.29l-1877.22 0c-0.07,15.51 2.96,30.9 8.87,45.29 5.91,14.35 14.59,27.42 25.57,38.42 10.96,10.98 23.98,19.73 38.33,25.67 14.35,5.98 29.74,9.03 45.26,9.03z"/>
  <path class="fil6" d="M7898.8 10569.6l1641.16 0c15.51,0 30.85,-3.05 45.16,-8.98 14.31,-5.95 27.33,-14.63 38.29,-25.59 10.96,-10.96 19.68,-23.98 25.59,-38.29 5.95,-14.32 8.99,-29.68 8.99,-45.17l-1877.22 0c0,31.31 12.44,61.33 34.57,83.46 22.13,22.13 52.15,34.57 83.46,34.57z"/>
  <path class="fil1" d="M7521.87 13735.36c4077.46,0 7382.88,-192.96 7382.88,-431.04 0,-238.06 -3305.42,-431.03 -7382.88,-431.03 -4077.44,0 -7382.85,192.96 -7382.85,431.03 0,238.07 3305.41,431.04 7382.85,431.04z"/>
  <path class="fil7" d="M3025.26 4562.09l-33.87 -17.51c295.79,-577.54 693.05,-1097.21 1172.78,-1534.14l25.89 28.17c-476.44,433.89 -870.99,949.96 -1164.8,1523.49z"/>
  <path class="fil7" d="M2548.54 5921.47l-38.05 -7.61c55.11,-269.25 130.71,-533.91 226.17,-791.65l35.78 13.32c-94.67,255.87 -169.54,518.62 -223.9,785.93z"/>
  <path class="fil8" d="M10833.84 10035.53c1681.71,-1681.68 1681.71,-4408.21 0.03,-6089.88 -1681.69,-1681.67 -4408.22,-1681.67 -6089.88,0 -1681.67,1681.67 -1681.67,4408.2 0,6089.88 1681.66,1681.67 4408.19,1681.67 6089.85,0z"/>
  <polygon class="fil9" points="4741.77,9399.1 3729.26,9399.1 3925,8918.57 4546.04,8918.57 "/>
  <polygon class="fil10" points="4741.77,9399.1 3729.26,9399.1 3925,8918.57 4546.04,8918.57 "/>
  <polygon class="fil9" points="6280.5,9399.1 4741.77,9399.1 4546.07,8918.57 6084.76,8918.57 "/>
  <polygon class="fil11" points="6280.5,9399.1 4741.77,9399.1 4546.07,8918.57 6084.76,8918.57 "/>
  <polygon class="fil12" points="6034.13,9399.1 5021.24,9399.1 5216.98,8918.57 5838.38,8918.57 "/>
  <polygon class="fil10" points="6034.13,9399.1 5021.24,9399.1 5216.98,8918.57 5838.38,8918.57 "/>
  <polygon class="fil9" points="7572.52,9399.1 6034.19,9399.1 5838.45,8918.57 7376.77,8918.57 "/>
  <polygon class="fil11" points="7572.52,9399.1 6034.19,9399.1 5838.45,8918.57 7376.77,8918.57 "/>
  <polygon class="fil9" points="7326.08,9399.1 6313.6,9399.1 6509.3,8918.57 7130.34,8918.57 "/>
  <polygon class="fil10" points="7326.08,9399.1 6313.6,9399.1 6509.3,8918.57 7130.34,8918.57 "/>
  <polygon class="fil9" points="8864.48,9399.1 7326.14,9399.1 7130.43,8918.57 8669.14,8918.57 "/>
  <polygon class="fil11" points="8864.48,9399.1 7326.14,9399.1 7130.43,8918.57 8669.14,8918.57 "/>
  <polygon class="fil9" points="8618.04,9399.1 7605.57,9399.1 7801.27,8918.57 8422.31,8918.57 "/>
  <polygon class="fil10" points="8618.04,9399.1 7605.57,9399.1 7801.27,8918.57 8422.31,8918.57 "/>
  <polygon class="fil9" points="10156.77,9399.1 8618.04,9399.1 8422.34,8918.57 9961.04,8918.57 "/>
  <polygon class="fil11" points="10156.77,9399.1 8618.04,9399.1 8422.34,8918.57 9961.04,8918.57 "/>
  <polygon class="fil9" points="9910.46,9399.1 8897.58,9399.1 9093.32,8918.57 9714.72,8918.57 "/>
  <polygon class="fil10" points="9910.46,9399.1 8897.58,9399.1 9093.32,8918.57 9714.72,8918.57 "/>
  <path class="fil9" d="M10731.39 9399.1c49.01,-159.15 93.43,-319.33 133.3,-480.52l-1149.96 0 195.73 480.52 820.93 0z"/>
  <path class="fil11" d="M10731.39 9399.1c49.01,-159.15 93.43,-319.33 133.3,-480.52l-1149.96 0 195.73 480.52 820.93 0z"/>
  <path class="fil9" d="M10864.66 8918.57l-479.02 0 -195.71 480.52 541.46 0c49.25,-159.15 93.68,-319.33 133.27,-480.52z"/>
  <path class="fil10" d="M10864.66 8918.57l-479.02 0 -195.71 480.52 541.46 0c49.25,-159.15 93.68,-319.33 133.27,-480.52z"/>
  <polygon class="fil12" points="5136.63,8918.57 4123.78,8918.57 4319.48,8437.68 4940.92,8437.68 "/>
  <polygon class="fil10" points="5136.63,8918.57 4123.78,8918.57 4319.48,8437.68 4940.92,8437.68 "/>
  <polygon class="fil9" points="6674.99,8918.55 5136.63,8918.55 4940.92,8437.64 6479.26,8437.64 "/>
  <polygon class="fil11" points="6674.99,8918.55 5136.63,8918.55 4940.92,8437.64 6479.26,8437.64 "/>
  <polygon class="fil9" points="6428.68,8918.55 5416.16,8918.55 5611.9,8437.64 6232.93,8437.64 "/>
  <polygon class="fil10" points="6428.68,8918.55 5416.16,8918.55 5611.9,8437.64 6232.93,8437.64 "/>
  <polygon class="fil12" points="7966.93,8918.55 6428.61,8918.55 6232.91,8437.64 7771.59,8437.64 "/>
  <polygon class="fil11" points="7966.93,8918.55 6428.61,8918.55 6232.91,8437.64 7771.59,8437.64 "/>
  <polygon class="fil9" points="7720.63,8918.55 6708.15,8918.55 6903.88,8437.64 7524.92,8437.64 "/>
  <polygon class="fil10" points="7720.63,8918.55 6708.15,8918.55 6903.88,8437.64 7524.92,8437.64 "/>
  <polygon class="fil12" points="9259.31,8918.55 7720.59,8918.55 7524.86,8437.64 9063.58,8437.64 "/>
  <polygon class="fil11" points="9259.31,8918.55 7720.59,8918.55 7524.86,8437.64 9063.58,8437.64 "/>
  <polygon class="fil9" points="9012.96,8918.55 8000.11,8918.55 8195.82,8437.64 8817.26,8437.64 "/>
  <polygon class="fil10" points="9012.96,8918.55 8000.11,8918.55 8195.82,8437.64 8817.26,8437.64 "/>
  <polygon class="fil12" points="10551.26,8918.55 9012.9,8918.55 8817.19,8437.64 10355.53,8437.64 "/>
  <polygon class="fil11" points="10551.26,8918.55 9012.9,8918.55 8817.19,8437.64 10355.53,8437.64 "/>
  <polygon class="fil12" points="10304.95,8918.55 9292.44,8918.55 9488.17,8437.64 10109.21,8437.64 "/>
  <polygon class="fil10" points="10304.95,8918.55 9292.44,8918.55 9488.17,8437.64 10109.21,8437.64 "/>
  <path class="fil12" d="M10864.66 8918.55c38.08,-159.53 74.26,-319.47 103.93,-480.91l-857.5 0 195.73 480.91 557.84 0z"/>
  <path class="fil11" d="M10864.66 8918.55c38.08,-159.53 74.26,-319.47 103.93,-480.91l-857.5 0 195.73 480.91 557.84 0z"/>
  <path class="fil12" d="M10968.56 8437.64l-188.46 0 -195.74 480.91 280.28 0c39.22,-159.53 74.22,-319.47 103.93,-480.91z"/>
  <path class="fil10" d="M10968.56 8437.64l-188.46 0 -195.74 480.91 280.28 0c39.22,-159.53 74.22,-319.47 103.93,-480.91z"/>
  <polygon class="fil9" points="5474.78,8437.64 4462.29,8437.64 4658,7957.11 5279.07,7957.11 "/>
  <polygon class="fil10" points="5474.78,8437.64 4462.29,8437.64 4658,7957.11 5279.07,7957.11 "/>
  <polygon class="fil9" points="7013.44,8437.64 5474.75,8437.64 5279.02,7957.11 6817.74,7957.11 "/>
  <polygon class="fil11" points="7013.44,8437.64 5474.75,8437.64 5279.02,7957.11 6817.74,7957.11 "/>
  <polygon class="fil9" points="6767.13,8437.64 5754.28,8437.64 5949.99,7957.11 6571.03,7957.11 "/>
  <polygon class="fil10" points="6767.13,8437.64 5754.28,8437.64 5949.99,7957.11 6571.03,7957.11 "/>
  <polygon class="fil9" points="8305.42,8437.64 6767.1,8437.64 6570.99,7957.11 8109.71,7957.11 "/>
  <polygon class="fil11" points="8305.42,8437.64 6767.1,8437.64 6570.99,7957.11 8109.71,7957.11 "/>
  <polygon class="fil9" points="8059.07,8437.64 7046.6,8437.64 7242.34,7957.11 7863.36,7957.11 "/>
  <polygon class="fil10" points="8059.07,8437.64 7046.6,8437.64 7242.34,7957.11 7863.36,7957.11 "/>
  <polygon class="fil12" points="9597.43,8437.64 8059.1,8437.64 7863.39,7957.11 9401.73,7957.11 "/>
  <polygon class="fil11" points="9597.43,8437.64 8059.1,8437.64 7863.39,7957.11 9401.73,7957.11 "/>
  <polygon class="fil9" points="9351.06,8437.64 8338.58,8437.64 8534.31,7957.11 9155.35,7957.11 "/>
  <polygon class="fil10" points="9351.06,8437.64 8338.58,8437.64 8534.31,7957.11 9155.35,7957.11 "/>
  <polygon class="fil12" points="10889.78,8437.64 9351.08,8437.64 9155.35,7957.11 10694.07,7957.11 "/>
  <polygon class="fil11" points="10889.78,8437.64 9351.08,8437.64 9155.35,7957.11 10694.07,7957.11 "/>
  <polygon class="fil12" points="10643.4,8437.64 9630.55,8437.64 9826.26,7957.11 10447.7,7957.11 "/>
  <polygon class="fil10" points="10643.4,8437.64 9630.55,8437.64 9826.26,7957.11 10447.7,7957.11 "/>
  <path class="fil12" d="M10968.65 8437.64c29.72,-159.16 55.08,-319.34 76.17,-480.54l-597.05 0 196.48 480.54 324.41 0z"/>
  <path class="fil11" d="M10968.65 8437.64c29.72,-159.16 55.08,-319.34 76.17,-480.54l-597.05 0 196.48 480.54 324.41 0z"/>
  <path class="fil12" d="M11002.46 8241.91l-79.59 195.73 45.72 0c12.16,-64.98 23.46,-130.22 33.87,-195.73z"/>
  <path class="fil10" d="M11002.46 8241.91l-79.59 195.73 45.72 0c12.16,-64.98 23.46,-130.22 33.87,-195.73z"/>
  <polygon class="fil9" points="5869.3,7957.11 4856.79,7957.11 5052.52,7476.57 5673.96,7476.57 "/>
  <polygon class="fil10" points="5869.3,7957.11 4856.79,7957.11 5052.52,7476.57 5673.96,7476.57 "/>
  <polygon class="fil9" points="7407.99,7957.11 5869.3,7957.11 5673.93,7476.57 7212.29,7476.57 "/>
  <polygon class="fil11" points="7407.99,7957.11 5869.3,7957.11 5673.93,7476.57 7212.29,7476.57 "/>
  <polygon class="fil12" points="7161.62,7957.11 6149.14,7957.11 6344.84,7476.57 6965.91,7476.57 "/>
  <polygon class="fil10" points="7161.62,7957.11 6149.14,7957.11 6344.84,7476.57 6965.91,7476.57 "/>
  <polygon class="fil12" points="8699.97,7957.11 7161.64,7957.11 6965.91,7476.57 8504.63,7476.57 "/>
  <polygon class="fil11" points="8699.97,7957.11 7161.64,7957.11 6965.91,7476.57 8504.63,7476.57 "/>
  <polygon class="fil12" points="8453.58,7957.11 7441.12,7957.11 7636.83,7476.57 8257.85,7476.57 "/>
  <polygon class="fil10" points="8453.58,7957.11 7441.12,7957.11 7636.83,7476.57 8257.85,7476.57 "/>
  <polygon class="fil9" points="9992.31,7957.11 8453.58,7957.11 8257.89,7476.57 9796.61,7476.57 "/>
  <polygon class="fil11" points="9992.31,7957.11 8453.58,7957.11 8257.89,7476.57 9796.61,7476.57 "/>
  <polygon class="fil9" points="9745.94,7957.11 8733.09,7957.11 8928.79,7476.57 9550.23,7476.57 "/>
  <polygon class="fil10" points="9745.94,7957.11 8733.09,7957.11 8928.79,7476.57 9550.23,7476.57 "/>
  <path class="fil9" d="M11043.25 7957.11c19.8,-159.65 34.39,-319.86 43.78,-480.54l-1536.8 0 195.71 480.54 1297.3 0z"/>
  <path class="fil11" d="M11043.25 7957.11c19.8,-159.65 34.39,-319.86 43.78,-480.54l-1536.8 0 195.71 480.54 1297.3 0z"/>
  <polygon class="fil9" points="11037.89,7957.11 10025.42,7957.11 10221.15,7476.57 10842.18,7476.57 "/>
  <polygon class="fil10" points="11037.89,7957.11 10025.42,7957.11 10221.15,7476.57 10842.18,7476.57 "/>
  <path class="fil9" d="M11043.25 7957.11c19.8,-159.65 34.39,-319.86 43.78,-480.54l-244.85 0 195.74 480.54 5.32 0z"/>
  <path class="fil11" d="M11043.25 7957.11c19.8,-159.65 34.39,-319.86 43.78,-480.54l-244.85 0 195.74 480.54 5.32 0z"/>
  <path class="fil12" d="M5645.02 11321.64l345.75 0 -195.73 -480.54 -766.87 0c217.72,144.01 423.95,304.69 616.86,480.54z"/>
  <path class="fil11" d="M5645.02 11321.64l345.75 0 -195.73 -480.54 -766.87 0c217.72,144.01 423.95,304.69 616.86,480.54z"/>
  <path class="fil12" d="M5645.02 11321.64l99.38 0 -195.71 -480.54 -520.53 0c217.72,144.01 423.95,304.69 616.86,480.54z"/>
  <path class="fil10" d="M5645.02 11321.64l99.38 0 -195.71 -480.54 -520.53 0c217.72,144.01 423.95,304.69 616.86,480.54z"/>
  <polygon class="fil12" points="7282.7,11321.64 5744.37,11321.64 5548.63,10841.1 7086.97,10841.1 "/>
  <polygon class="fil11" points="7282.7,11321.64 5744.37,11321.64 5548.63,10841.1 7086.97,10841.1 "/>
  <polygon class="fil9" points="7036.38,11321.64 6023.9,11321.64 6219.61,10841.1 6840.64,10841.1 "/>
  <polygon class="fil10" points="7036.38,11321.64 6023.9,11321.64 6219.61,10841.1 6840.64,10841.1 "/>
  <polygon class="fil12" points="8574.66,11321.64 7036.32,11321.64 6840.62,10841.1 8378.93,10841.1 "/>
  <polygon class="fil11" points="8574.66,11321.64 7036.32,11321.64 6840.62,10841.1 8378.93,10841.1 "/>
  <polygon class="fil9" points="8328.29,11321.64 7315.79,11321.64 7511.52,10841.1 8132.56,10841.1 "/>
  <polygon class="fil10" points="8328.29,11321.64 7315.79,11321.64 7511.52,10841.1 8132.56,10841.1 "/>
  <path class="fil9" d="M9858.64 11301.07l-187.33 -459.96 -1540.23 0 195.7 480.54 1509.02 0c8.77,-6.47 15.6,-13.71 22.84,-20.57z"/>
  <path class="fil11" d="M9858.64 11301.07l-187.33 -459.96 -1540.23 0 195.7 480.54 1509.02 0c8.77,-6.47 15.6,-13.71 22.84,-20.57z"/>
  <polygon class="fil12" points="9620.64,11321.64 8607.77,11321.64 8803.5,10841.1 9424.91,10841.1 "/>
  <polygon class="fil10" points="9620.64,11321.64 8607.77,11321.64 8803.5,10841.1 9424.91,10841.1 "/>
  <path class="fil12" d="M9837.32 11321.64c141.77,-139.74 259.27,-302.16 347.66,-480.54l-759.26 0 195.7 480.54 215.91 0z"/>
  <path class="fil11" d="M9837.32 11321.64c141.77,-139.74 259.27,-302.16 347.66,-480.54l-759.26 0 195.7 480.54 215.91 0z"/>
  <path class="fil12" d="M10184.94 10841.1l-89.12 0 -147.75 362.5c91.71,-112 171.11,-233.55 236.86,-362.5z"/>
  <path class="fil10" d="M10184.94 10841.1l-89.12 0 -147.75 362.5c91.71,-112 171.11,-233.55 236.86,-362.5z"/>
  <path class="fil9" d="M4449.74 10414.25c183.18,154.99 380.78,290.13 578.4,426.85l65.11 0 -195.71 -480.54 -509.87 0c20.56,17.88 41.13,36.17 62.06,53.69z"/>
  <path class="fil11" d="M4449.74 10414.25c183.18,154.99 380.78,290.13 578.4,426.85l65.11 0 -195.71 -480.54 -509.87 0c20.56,17.88 41.13,36.17 62.06,53.69z"/>
  <path class="fil9" d="M4449.74 10414.23c104.34,88.35 213.62,170.22 324.82,249.42l-123.38 -304.62 -263.5 0c20.56,19.42 41.13,37.68 62.06,55.2z"/>
  <path class="fil10" d="M4449.74 10414.23c104.34,88.35 213.62,170.22 324.82,249.42l-123.38 -304.62 -263.5 0c20.56,19.42 41.13,37.68 62.06,55.2z"/>
  <path class="fil9" d="M5028.14 10841.14l1357.09 0 -196.11 -480.54 -1538.32 0 123.36 304.59c84.16,58.64 169.44,116.93 253.98,175.94z"/>
  <path class="fil11" d="M5028.14 10841.14l1357.09 0 -196.11 -480.54 -1538.32 0 123.36 304.59c84.16,58.64 169.44,116.93 253.98,175.94z"/>
  <polygon class="fil9" points="6138.82,10841.14 5126.35,10841.14 5322.08,10360.6 5943.13,10360.6 "/>
  <polygon class="fil10" points="6138.82,10841.14 5126.35,10841.14 5322.08,10360.6 5943.13,10360.6 "/>
  <polygon class="fil9" points="7677.59,10841.14 6138.86,10841.14 5943.15,10360.6 7481.85,10360.6 "/>
  <polygon class="fil11" points="7677.59,10841.14 6138.86,10841.14 5943.15,10360.6 7481.85,10360.6 "/>
  <polygon class="fil9" points="7430.81,10841.14 6418.33,10841.14 6614.06,10360.6 7235.1,10360.6 "/>
  <polygon class="fil10" points="7430.81,10841.14 6418.33,10841.14 6614.06,10360.6 7235.1,10360.6 "/>
  <polygon class="fil9" points="8969.53,10841.14 7430.83,10841.14 7235.1,10360.6 8773.82,10360.6 "/>
  <polygon class="fil11" points="8969.53,10841.14 7430.83,10841.14 7235.1,10360.6 8773.82,10360.6 "/>
  <polygon class="fil12" points="8723.14,10841.14 7710.68,10841.14 7906.38,10360.6 8527.41,10360.6 "/>
  <polygon class="fil10" points="8723.14,10841.14 7710.68,10841.14 7906.38,10360.6 8527.41,10360.6 "/>
  <path class="fil12" d="M10227.21 10757.36l-161.44 -396.76 -1538.32 0 195.7 480.54 1461.79 0c14.87,-27.81 28.58,-55.61 42.27,-83.78z"/>
  <path class="fil11" d="M10227.21 10757.36l-161.44 -396.76 -1538.32 0 195.7 480.54 1461.79 0c14.87,-27.81 28.58,-55.61 42.27,-83.78z"/>
  <polygon class="fil9" points="10015.13,10841.1 9002.62,10841.1 9198.35,10360.57 9819.4,10360.57 "/>
  <polygon class="fil10" points="10015.13,10841.1 9002.62,10841.1 9198.35,10360.57 9819.4,10360.57 "/>
  <path class="fil12" d="M10184.97 10841.14c79.65,-155.81 149.83,-316.3 210.17,-480.54l-575.73 0 195.71 480.54 169.84 0z"/>
  <path class="fil11" d="M10184.97 10841.14c79.65,-155.81 149.83,-316.3 210.17,-480.54l-575.73 0 195.71 480.54 169.84 0z"/>
  <path class="fil12" d="M4387.71 10360.57l1043.7 0 -194.2 -480.9 -1311.01 0c140.44,172.61 294.8,333.46 461.51,480.9z"/>
  <path class="fil11" d="M4387.71 10360.57l1043.7 0 -194.2 -480.9 -1311.01 0c140.44,172.61 294.8,333.46 461.51,480.9z"/>
  <path class="fil12" d="M4387.64 10360.57l797.35 0 -195.73 -480.9 -621.03 0 -136.69 335.44c50.52,50.02 102.54,98.51 156.11,145.46z"/>
  <path class="fil10" d="M4387.64 10360.57l797.35 0 -195.73 -480.9 -621.03 0 -136.69 335.44c50.52,50.02 102.54,98.51 156.11,145.46z"/>
  <polygon class="fil12" points="6723.75,10360.53 5185.06,10360.53 4989.31,9879.63 6528.04,9879.63 "/>
  <polygon class="fil11" points="6723.75,10360.53 5185.06,10360.53 4989.31,9879.63 6528.04,9879.63 "/>
  <polygon class="fil9" points="6477.01,10360.57 5464.52,10360.57 5660.23,9879.67 6281.67,9879.67 "/>
  <polygon class="fil10" points="6477.01,10360.57 5464.52,10360.57 5660.23,9879.67 6281.67,9879.67 "/>
  <polygon class="fil12" points="8015.69,10360.53 6477.01,10360.53 6281.67,9879.63 7819.98,9879.63 "/>
  <polygon class="fil11" points="8015.69,10360.53 6477.01,10360.53 6281.67,9879.63 7819.98,9879.63 "/>
  <polygon class="fil12" points="7769.31,10360.57 6756.84,10360.57 6952.58,9879.67 7573.62,9879.67 "/>
  <polygon class="fil10" points="7769.31,10360.57 6756.84,10360.57 6952.58,9879.67 7573.62,9879.67 "/>
  <polygon class="fil9" points="9307.68,10360.53 7769.34,10360.53 7573.62,9879.63 9111.97,9879.63 "/>
  <polygon class="fil11" points="9307.68,10360.53 7769.34,10360.53 7573.62,9879.63 9111.97,9879.63 "/>
  <polygon class="fil9" points="9061.3,10360.57 8048.82,10360.57 8244.53,9879.67 8865.6,9879.67 "/>
  <polygon class="fil10" points="9061.3,10360.57 8048.82,10360.57 8244.53,9879.67 8865.6,9879.67 "/>
  <path class="fil12" d="M10491.85 10094.37l-87.22 -214.73 -1539.1 0 195.73 480.9 1332.72 0c35.4,-90.63 67.02,-180.09 97.87,-266.16z"/>
  <path class="fil11" d="M10491.85 10094.37l-87.22 -214.73 -1539.1 0 195.73 480.9 1332.72 0c35.4,-90.63 67.02,-180.09 97.87,-266.16z"/>
  <polygon class="fil12" points="10353.65,10360.53 9340.8,10360.53 9536.5,9879.63 10157.94,9879.63 "/>
  <polygon class="fil10" points="10353.65,10360.53 9340.8,10360.53 9536.5,9879.63 10157.94,9879.63 "/>
  <path class="fil12" d="M10395.15 10360.57c62.83,-166.4 117.67,-328.97 170.98,-472.93 0.71,-2.71 1.61,-5.39 2.65,-7.97l-410.84 0 195.71 480.9 41.49 0z"/>
  <path class="fil11" d="M10395.15 10360.57c62.83,-166.4 117.67,-328.97 170.98,-472.93 0.71,-2.71 1.61,-5.39 2.65,-7.97l-410.84 0 195.71 480.9 41.49 0z"/>
  <path class="fil12" d="M3926.16 9879.63l361.36 0 -195.73 -480.54 -504.92 0c101.85,167.84 215.2,328.42 339.29,480.54z"/>
  <path class="fil10" d="M3926.16 9879.63l361.36 0 -195.73 -480.54 -504.92 0c101.85,167.84 215.2,328.42 339.29,480.54z"/>
  <polygon class="fil12" points="5826.22,9879.63 4287.49,9879.63 4091.8,9399.1 5630.49,9399.1 "/>
  <polygon class="fil11" points="5826.22,9879.63 4287.49,9879.63 4091.8,9399.1 5630.49,9399.1 "/>
  <polygon class="fil12" points="5579.85,9879.63 4566.97,9879.63 4762.7,9399.1 5384.12,9399.1 "/>
  <polygon class="fil10" points="5579.85,9879.63 4566.97,9879.63 4762.7,9399.1 5384.12,9399.1 "/>
  <polygon class="fil12" points="7118.17,9879.63 5579.85,9879.63 5384.12,9399.1 6922.48,9399.1 "/>
  <polygon class="fil11" points="7118.17,9879.63 5579.85,9879.63 5384.12,9399.1 6922.48,9399.1 "/>
  <polygon class="fil12" points="6871.8,9879.63 5859.33,9879.63 6055.02,9399.1 6676.09,9399.1 "/>
  <polygon class="fil10" points="6871.8,9879.63 5859.33,9879.63 6055.02,9399.1 6676.09,9399.1 "/>
  <polygon class="fil12" points="8410.21,9879.63 6871.9,9879.63 6676.16,9399.1 8214.47,9399.1 "/>
  <polygon class="fil11" points="8410.21,9879.63 6871.9,9879.63 6676.16,9399.1 8214.47,9399.1 "/>
  <polygon class="fil12" points="8163.84,9879.63 7151.37,9879.63 7347.07,9399.1 7968.1,9399.1 "/>
  <polygon class="fil10" points="8163.84,9879.63 7151.37,9879.63 7347.07,9399.1 7968.1,9399.1 "/>
  <polygon class="fil9" points="9702.51,9879.63 8163.77,9879.63 7968.07,9399.1 9506.8,9399.1 "/>
  <polygon class="fil11" points="9702.51,9879.63 8163.77,9879.63 7968.07,9399.1 9506.8,9399.1 "/>
  <polygon class="fil12" points="9456.18,9879.63 8443.31,9879.63 8639.04,9399.1 9260.45,9399.1 "/>
  <polygon class="fil10" points="9456.18,9879.63 8443.31,9879.63 8639.04,9399.1 9260.45,9399.1 "/>
  <path class="fil12" d="M10568.04 9879.63c58.64,-158.88 112.83,-319.09 162.61,-480.54l-1470.2 0 195.73 480.54 1111.86 0z"/>
  <path class="fil11" d="M10568.04 9879.63c58.64,-158.88 112.83,-319.09 162.61,-480.54l-1470.2 0 195.73 480.54 1111.86 0z"/>
  <path class="fil12" d="M10651.8 9643.57l-99.37 -244.47 -621.07 0 -195.71 480.54 832.38 0c29.68,-78.04 57.11,-156.88 83.76,-236.06z"/>
  <path class="fil10" d="M10651.8 9643.57l-99.37 -244.47 -621.07 0 -195.71 480.54 832.38 0c29.68,-78.04 57.11,-156.88 83.76,-236.06z"/>
  <path class="fil12" d="M10731.39 9399.1l-178.95 0 99.37 244.47c27.93,-81.01 54.47,-162.46 79.59,-244.47z"/>
  <path class="fil11" d="M10731.39 9399.1l-178.95 0 99.37 244.47c27.93,-81.01 54.47,-162.46 79.59,-244.47z"/>
  <path class="fil7" d="M7795.21 1735.23c-1040.27,0 -2057.15,308.47 -2922.11,886.41 -864.95,577.95 -1539.09,1399.41 -1937.19,2360.46 -398.09,961.07 -502.24,2018.62 -299.29,3038.89 202.94,1020.27 703.88,1957.47 1439.44,2693.03 735.59,735.59 1672.77,1236.51 2693.03,1439.44 1020.26,202.97 2077.81,98.8 3038.87,-299.3 961.09,-398.09 1782.55,-1072.23 2360.49,-1937.19 577.95,-864.9 886.42,-1881.83 886.42,-2922.07 0,-1394.96 -554.14,-2732.79 -1540.54,-3719.16 -986.38,-986.38 -2324.2,-1540.52 -3719.12,-1540.52zm-6.86 9561.65c-851.65,-0.06 -1684.18,-252.69 -2392.29,-725.89 -708.1,-473.23 -1259.96,-1145.77 -1585.83,-1932.65 -325.86,-786.85 -411.08,-1652.66 -244.9,-2487.97 166.21,-835.28 576.38,-1602.55 1178.6,-2204.75 602.27,-602.21 1369.54,-1012.27 2204.87,-1178.39 835.29,-166.13 1701.11,-80.84 2487.93,245.08 786.82,325.97 1459.34,877.89 1932.51,1586.03 473.15,708.16 725.68,1540.7 725.68,2392.35 0,565.53 -111.39,1125.53 -327.81,1648.02 -216.46,522.46 -533.68,997.2 -933.58,1397.08 -399.91,399.87 -874.65,717.03 -1397.15,933.41 -522.53,216.4 -1082.51,327.75 -1648.04,327.68z"/>
  <path class="fil13" d="M7795.23 11983.77c2750.73,0 4988.17,-2238.18 4988.17,-4988.15 0,-2749.96 -2238.21,-4988.16 -4988.17,-4988.16 -2749.94,0 -4988.16,2237.83 -4988.16,4988.16 0,2750.35 2237.08,4988.15 4988.16,4988.15zm0 -9938.23c1312.34,1.71 2570.42,523.78 3498.36,1451.74 927.95,927.95 1450.04,2186.04 1451.73,3498.34 0,2729.78 -2221.06,4950.1 -4950.09,4950.1 -2729.01,0 -4950.08,-2221.09 -4950.08,-4950.1 0,-2729 2219.93,-4951.6 4950.08,-4951.6l0 1.52z"/>
  <path class="fil14" d="M6462.5 3547.34c215.54,51.02 436.39,102.06 654.57,148.48 218.18,46.46 437.53,88.73 652.24,117.67l79.59 9.13 19.42 1.92 -3.04 0c0,0 1.91,0 6.09,0 34.32,-8.75 66.93,-23.31 96.33,-43.04 85.5,-56.15 165.78,-119.88 239.91,-190.38 158.39,-146.61 313,-312.64 461.88,-477.86l174 120.68c-113.97,206.66 -247.21,402.09 -397.91,583.72 -79.61,97.6 -169.62,186.19 -268.44,264.27 -61.52,49.45 -131.61,87.13 -206.76,111.2 -24.81,7.54 -50.34,12.62 -76.15,15.24 -15.21,0.95 -30.49,0.95 -45.69,0l-23.21 0 -90.62 -4.58c-234.34,-17.37 -467.48,-48 -698.34,-91.78 -228.46,-41.86 -452.37,-91.37 -678.92,-152.3l105.07 -412.37z"/>
  <path class="fil7" d="M6135.87 3934.19c152.3,220.09 1066.18,304.59 1066.18,304.59l55.97 -585.6c-232.71,-81.52 -472.13,-142.44 -715.49,-182.04 -645.39,-92.14 -572.68,221.62 -406.65,463.05z"/>
  <path class="fil15" d="M6135.87 3934.19c152.3,220.09 1066.18,304.59 1066.18,304.59l55.97 -585.6c-232.71,-81.52 -472.13,-142.44 -715.49,-182.04 -645.39,-92.14 -572.68,221.62 -406.65,463.05z"/>
  <path class="fil14" d="M8633.69 3186.38l72.71 -269.6 250.93 107.76c0,0 -105.84,290.53 -201.43,276.05l-122.21 -114.21z"/>
  <polygon class="fil14" points="8913.58,2749.99 9121.11,2737.06 8957.37,3024.54 8706.44,2916.78 "/>
  <path class="fil7" d="M6749.68 3536.29c0,0 362.49,852.55 101.29,2440.01l-1510.16 0c-18.29,-231.87 87.95,-1362.42 -173.26,-2454.48 166.09,-32.32 334.11,-53.72 503,-63.97 213.84,-12.19 428.18,-12.19 642.01,0 147.49,15 293.63,41.19 437.12,78.45z"/>
  <path class="fil15" d="M6749.68 3536.29c0,0 362.49,852.55 101.29,2440.01l-1510.16 0c-18.29,-231.87 87.95,-1362.42 -173.26,-2454.48 166.09,-32.32 334.11,-53.72 503,-63.97 213.84,-12.19 428.18,-12.19 642.01,0 147.49,15 293.63,41.19 437.12,78.45z"/>
  <path class="fil16" d="M5214.73 3740.39c70.65,373.71 112.4,752.28 124.9,1132.43 55.33,-222.7 92.76,-449.5 111.97,-678.18 15.98,-253.21 -82.25,-413.52 -236.86,-454.25z"/>
  <path class="fil17" d="M6299.16 4745.61c-134.04,-147.34 -364.41,-440.91 -435.99,-704.81l359.46 -190.37 334.71 171.34c-3.42,224.27 -122.99,528.14 -208.67,713.19 -11.05,22.47 -33.89,28.17 -49.5,10.65z"/>
  <path class="fil14" d="M5709.37 2735.15c47.59,206.75 100.91,584.87 -38.08,723.5 0,0 60.55,170.95 444.38,170.95 421.89,0 197.62,-170.95 197.62,-170.95 -232.28,-54.83 -232.28,-225.81 -197.62,-386.11l-406.3 -337.38z"/>
  <path class="fil18" d="M5874.63 2872.58l240.25 198.78c-8.66,37.52 -13.99,75.74 -15.98,114.21 -88.36,-12.55 -212.49,-109.28 -225.05,-201.42 -6.7,-36.92 -6.46,-74.76 0.78,-111.57z"/>
  <path class="fil19" d="M6330.06 2617.09c62.44,-53.31 90.61,-372.02 -32.38,-524.72 -122.99,-152.69 -228.46,217.42 -228.46,217.42 0,0 56.36,482.43 260.85,307.29z"/>
  <path class="fil14" d="M5617.99 2519.25c86.04,266.54 122.62,427.61 296.25,536.9 56,35.99 120.8,56 187.36,57.82 66.57,1.85 132.35,-14.56 190.26,-47.41 57.9,-32.85 105.74,-80.93 138.31,-138.99 32.58,-58.1 48.65,-123.95 46.46,-190.51 -3.42,-256.26 -143.56,-650.75 -438.67,-699.87 -63.56,-12.37 -129.26,-7.8 -190.53,13.25 -61.26,21.05 -115.9,57.84 -158.45,106.67 -42.54,48.83 -71.51,108 -83.95,171.57 -12.47,63.55 -8.01,129.28 12.96,190.57z"/>
  <path class="fil19" d="M6336.87 1968.63c8.87,-16.2 13.21,-34.48 12.55,-52.93 -0.19,-22.19 -7.39,-43.74 -20.59,-61.56 -13.21,-17.83 -31.74,-30.99 -52.92,-37.59 -21.18,-6.61 -43.94,-6.32 -64.93,0.83 -20.99,7.14 -39.19,20.78 -51.94,38.93 -21.61,-24.74 -48.39,-44.39 -78.49,-57.56 -30.08,-13.16 -62.72,-19.51 -95.53,-18.59 -34.55,1.15 -68.32,10.41 -98.61,27.03 -19.58,-16.67 -44.73,-25.38 -70.44,-24.36 -24.99,0.9 -48.82,10.67 -67.23,27.55 -18.44,16.89 -30.23,39.79 -33.31,64.6 -10.68,-1.73 -21.51,-2.49 -32.36,-2.29 -44.82,1.59 -87.19,20.87 -117.79,53.64 -30.62,32.75 -47.01,76.32 -45.56,121.14 0,0 0,0 0,2.28 -6.46,-0.38 -12.95,-0.38 -19.42,0 -18.07,0.64 -35.8,4.83 -52.24,12.33 -16.44,7.5 -31.22,18.17 -43.53,31.4 -12.32,13.23 -21.89,28.75 -28.2,45.68 -6.31,16.93 -9.2,34.94 -8.53,53l0 2.28c-17.21,9.33 -31.43,23.32 -41.06,40.35 -9.61,17.03 -14.25,36.43 -13.39,55.98 0.8,20.8 7.67,40.91 19.79,57.84 12.1,16.92 28.94,29.91 48.37,37.36 2.62,32.25 16.59,62.53 39.47,85.4 22.9,22.89 53.16,36.88 85.43,39.49 14.84,133.26 62.83,339.65 218.55,233.04 59.41,-40.76 114.24,-287.87 55.22,-459.22 4.56,0 9.52,0 14.47,0 25.7,-0.95 50.86,-7.8 73.51,-20.01 22.63,-12.22 42.18,-29.47 57.07,-50.43 32.58,10.7 67.18,13.78 101.14,8.96 33.93,-4.83 66.31,-17.41 94.61,-36.76 12.22,4.27 25.12,6.33 38.07,6.09 17.77,-0.8 35.03,-6.04 50.24,-15.23 21.64,14.71 47.36,22.31 73.49,21.7 27.22,-0.83 53.35,-10.63 74.41,-27.88 21.06,-17.24 35.8,-40.96 41.96,-67.45 6.19,-26.51 3.42,-54.3 -7.84,-79.06 -11.27,-24.76 -30.42,-45.11 -54.43,-57.88l0 1.91z"/>
  <path class="fil14" d="M5571.91 2844.41c51.08,49.63 119.21,77.83 190.42,78.81 94.05,0 114.21,-89.09 63.56,-163.71 -44.91,-66.65 -147.74,-147.36 -230.73,-111.57 -83,35.78 -85.68,135.18 -23.25,196.48z"/>
  <path class="fil19" d="M6052.81 2504c5.32,22.08 21.7,38.07 38.08,34.27 16.37,-3.8 21.7,-23.98 15.98,-46.08 -5.7,-22.07 -22.07,-38.07 -38.08,-33.88 -15.98,4.19 -21.7,22.85 -15.98,45.69z"/>
  <path class="fil19" d="M6303.41 2448.81c5.69,22.08 22.07,38.08 38.08,34.28 15.98,-3.82 21.7,-23.61 15.98,-45.69 -5.7,-22.1 -22.07,-38.08 -38.08,-34.28 -15.98,3.82 -20.93,23.61 -15.98,45.69z"/>
  <path class="fil20" d="M6227.18 2477.36c44.05,61.75 96.05,117.44 154.6,165.66 -12.72,14.14 -28.38,25.31 -45.87,32.73 -17.52,7.41 -36.42,10.96 -55.42,10.27l-53.31 -208.66z"/>
  <path class="fil19" d="M6184.2 2766.34c-46.37,0.47 -91.37,-15.75 -126.8,-45.68 -1.2,-1.23 -1.87,-2.86 -1.87,-4.58 0,-1.7 0.67,-3.36 1.87,-4.56 0.62,-0.65 1.35,-1.16 2.15,-1.54 0.84,-0.37 1.72,-0.56 2.62,-0.56 0.9,0 1.78,0.19 2.58,0.56 0.84,0.37 1.57,0.88 2.15,1.54 22.33,18.13 48.43,30.94 76.39,37.56 27.95,6.59 57.05,6.77 85.09,0.52 1.69,-0.34 3.48,-0.03 4.99,0.9 1.48,0.92 2.55,2.36 3.01,4.06 0.21,0.86 0.24,1.78 0.09,2.68 -0.15,0.9 -0.5,1.76 -0.99,2.49 -0.52,0.78 -1.16,1.38 -1.94,1.88 -0.77,0.49 -1.63,0.8 -2.52,0.92 -15.38,3.08 -31.13,4.34 -46.82,3.82z"/>
  <path class="fil19" d="M5953.06 2440.41c-1.76,0.36 -3.57,0.36 -5.33,0 -1.63,-0.66 -3.11,-1.65 -4.34,-2.9 -1.22,-1.26 -2.21,-2.75 -2.86,-4.39 -0.64,-1.64 -0.92,-3.39 -0.86,-5.15 0.03,-1.76 0.47,-3.49 1.2,-5.07 8.13,-19.3 20.85,-36.31 37.04,-49.59 16.2,-13.26 35.37,-22.39 55.89,-26.58 3.5,-0.34 7.02,0.64 9.84,2.76 2.8,2.11 4.75,5.21 5.39,8.67 0.43,3.53 -0.49,7.09 -2.64,9.93 -2.13,2.84 -5.27,4.75 -8.77,5.31 -16.1,3.63 -31.1,11.1 -43.69,21.78 -12.62,10.67 -22.44,24.24 -28.66,39.53 -1.35,1.94 -3.18,3.5 -5.33,4.5 -2.12,1.01 -4.49,1.42 -6.86,1.21z"/>
  <path class="fil19" d="M6389.08 2339.51c-2,0.01 -3.94,-0.42 -5.72,-1.28 -1.78,-0.86 -3.35,-2.12 -4.56,-3.68 -10.7,-13.31 -24.28,-24.06 -39.71,-31.45 -15.42,-7.38 -32.29,-11.21 -49.4,-11.19 -3.55,0.3 -7.05,-0.8 -9.76,-3.1 -2.71,-2.28 -4.4,-5.55 -4.71,-9.09 -0.3,-3.54 0.84,-7.04 3.11,-9.76 2.28,-2.71 5.55,-4.4 9.09,-4.71 21.4,-0.43 42.63,4.05 62.03,13.09 19.4,9.04 36.49,22.41 49.9,39.08 2.25,2.79 3.29,6.35 2.93,9.9 -0.35,3.56 -2.07,6.84 -4.81,9.13 -2.37,1.94 -5.33,3.03 -8.38,3.05z"/>
  <path class="fil14" d="M5465.64 3928.1l-54.84 118.44c-18.28,40.72 -36.16,81.86 -53.69,122.99 -35.03,82.23 -68.16,165.62 -100.15,248.62 -31.99,83.03 -60.16,166.81 -87.19,250.57 -27.03,83.76 -48,167.17 -65.51,250.16l0 7.24 0 -2.28c0.19,-2.04 0.19,-4.06 0,-6.1 -0.49,-4.21 -1.66,-8.31 -3.42,-12.19 -3.05,-7.23 -6.46,-8.74 -4.96,-4.55 13.89,19.49 31.8,35.71 52.56,47.59 68.34,41.69 141.15,75.51 217.04,100.91 169.94,58.38 343.11,106.92 518.62,145.43l-17.52 211.35c-196.41,6.31 -392.94,-9.02 -586,-45.69 -106.03,-19.21 -209.1,-52.24 -306.54,-98.23 -63.26,-30.15 -120.16,-72.14 -167.54,-123.77 -32.35,-36.87 -56.7,-80.04 -71.57,-126.8 -8.1,-26.47 -12.93,-53.84 -14.47,-81.48 -0.77,-13.71 -0.77,-27.44 0,-41.13l1.91 -19.8 0 -10.27c25.34,-198.23 70.63,-393.44 135.16,-582.59 30.96,-92.91 65.14,-184.41 102.45,-274.55 19.02,-44.91 38.05,-89.45 59.02,-134.01 20.93,-44.54 41.13,-87.22 65.88,-134.81l380.76 194.96z"/>
  <path class="fil7" d="M5167.5 3521.82c-266.54,38.08 -539.54,1017.04 -539.54,1017.04l642.37 244.46c0,0 161.43,-420.74 271.86,-747.47 115.75,-342.32 -89.86,-555.93 -374.7,-514.03z"/>
  <path class="fil15" d="M5167.5 3521.82c-266.54,38.08 -539.54,1017.04 -539.54,1017.04l642.37 244.46c0,0 161.43,-420.74 271.86,-747.47 115.75,-342.32 -89.86,-555.93 -374.7,-514.03z"/>
  <polygon class="fil14" points="5572.62,13156.96 5855.16,13156.96 5891.71,12503.15 5609.56,12503.15 "/>
  <polygon class="fil18" points="5609.22,12503.15 5891.77,12503.15 5872.72,12840.13 5590.2,12840.13 "/>
  <path class="fil19" d="M5870.03 13124.22l-317.18 0c-2.64,-0.15 -5.26,0.22 -7.75,1.11 -2.5,0.87 -4.77,2.26 -6.71,4 -1.98,1.79 -3.54,3.94 -4.65,6.32 -1.11,2.4 -1.72,4.98 -1.84,7.63l-15.61 250.93c-0.03,6.53 1.2,13.02 3.67,19.12 2.47,6.06 6.1,11.58 10.68,16.25 4.58,4.68 10.06,8.38 16.1,10.94 6.03,2.55 12.53,3.91 19.06,3.93 110.42,-1.91 163.34,-8.37 304.62,-8.37 85.67,0 450.46,9.13 568.88,9.13 118.44,0 114.23,-117.29 65.11,-127.94 -225.4,-47.59 -504.14,-114.21 -584.13,-175.91 -14.31,-11.24 -32.04,-17.27 -50.24,-17.15z"/>
  <path class="fil7" d="M5969.78 13172.97c18.87,1.82 37.75,-3.48 52.92,-14.85 4.4,-4.64 7.48,-10.37 8.9,-16.59 1.38,-6.25 1.07,-12.74 -0.9,-18.8 -0.71,-4.1 -2.43,-7.91 -5.01,-11.12 -2.62,-3.2 -6,-5.65 -9.82,-7.17 -34.67,-13.7 -114.25,40.72 -123.39,47.23 -0.98,0.73 -1.76,1.72 -2.21,2.86 -0.47,1.14 -0.62,2.36 -0.43,3.6 0.34,1.18 0.95,2.25 1.82,3.12 0.86,0.86 1.93,1.5 3.11,1.84 24.6,5.91 49.75,9.24 75.03,9.89zm32.75 -58.25c2.9,-0.59 5.85,-0.59 8.74,0 1.88,0.79 3.51,2.02 4.78,3.63 1.26,1.59 2.12,3.48 2.46,5.5 1.36,4.04 1.63,8.38 0.84,12.6 -0.8,4.18 -2.65,8.09 -5.39,11.39 -13.33,12.93 -51.05,14.46 -101.69,4.55 27.04,-18.93 57.82,-31.76 90.27,-37.68z"/>
  <path class="fil7" d="M5896.29 13163.05l3.05 0c28.2,-16.76 70.07,-76.14 63.61,-106.22 -1.18,-5.47 -4.17,-10.37 -8.41,-13.94 -4.28,-3.61 -9.63,-5.67 -15.21,-5.88 -5.01,-0.65 -10.12,-0.16 -14.93,1.41 -4.81,1.61 -9.2,4.22 -12.87,7.73 -28.17,27.44 -22.07,108.52 -21.7,111.97 0.09,1.05 0.45,2.07 1.05,2.93 0.62,0.86 1.41,1.57 2.36,2 0.99,0.4 2.09,0.4 3.05,0zm38.08 -114.21l3.05 0c9.91,0 11.82,6.09 12.96,9.88 4.56,21.33 -25.52,66.28 -48.76,86.08 -3.85,-31.29 2.56,-62.96 18.29,-90.27 1.97,-1.87 4.31,-3.35 6.86,-4.34 2.55,-0.99 5.26,-1.44 8.01,-1.35l-0.41 0z"/>
  <polygon class="fil14" points="8081.18,12459.38 8359.14,12411.05 8283.38,11760.67 8005.41,11809.04 "/>
  <polygon class="fil18" points="8005.41,11809.4 8283.74,11761.04 8322.59,12096.11 8044.23,12144.48 "/>
  <path class="fil19" d="M8359.53 12377.12l-313.39 -47.96c-5.24,-1.01 -10.68,0.13 -15.11,3.11 -4.41,2.99 -7.48,7.63 -8.51,12.87l-53.29 245.61c-1.97,13.08 1.27,26.38 9.03,37.06 7.78,10.72 19.45,17.88 32.47,20.05 109.29,14.87 162.58,16.37 300.44,38.07 84.9,12.96 443.99,76.17 561.25,94.46 117.3,18.26 131.37,-98.24 83.4,-116.53 -215.54,-80.72 -481.3,-187.73 -550.98,-261.58 -11.73,-13.43 -27.74,-22.32 -45.32,-25.16z"/>
  <path class="fil19" d="M6850.89 5976.3c0,0 875.79,2047.43 1052.86,2837.15 194.56,864.73 524.31,3181.75 524.31,3181.75l-509.47 88.72c0,0 -469.1,-2164.32 -739.46,-2998.6 -293.58,-905.09 -1465.98,-3109.01 -1465.98,-3109.01l1137.75 0z"/>
  <path class="fil16" d="M6129 6428.66l-20.56 309.57c132.13,260.45 284.43,564.31 433.31,872.72 66.25,-305.37 -102.8,-1039.15 -412.75,-1182.3z"/>
  <path class="fil19" d="M6345.64 5976.3c0,0 -4.96,2157.09 -50.65,2965.49 -50.27,884.93 -301.2,3817.26 -301.2,3817.26l-517.08 0c0,0 15.61,-2860.76 -15.6,-3736.9 -33.89,-951.96 -121.49,-3046.22 -121.49,-3046.22l1006.02 0.37z"/>
  <polygon class="fil7" points="5456.12,12763.64 6014.73,12763.64 6045.58,12567.53 5429.09,12598.01 "/>
  <polygon class="fil16" points="5456.12,12763.64 6014.73,12763.64 6045.58,12567.53 5429.09,12598.01 "/>
  <polygon class="fil7" points="7898.06,12087.37 8448.29,11991.77 8445.24,11793.03 7843.23,11928.94 "/>
  <polygon class="fil16" points="7898.06,12087.37 8448.29,11991.77 8445.24,11793.03 7843.23,11928.94 "/>
  <path class="fil7" d="M8452.44 12440.36c18.35,4.68 37.75,2.36 54.47,-6.47 4.96,-4.06 8.81,-9.26 11.17,-15.21 2.41,-5.91 3.27,-12.35 2.52,-18.69 -0.15,-4.19 -1.35,-8.21 -3.48,-11.82 -2.12,-3.61 -5.11,-6.59 -8.68,-8.74 -31.99,-18.66 -119.19,23.24 -129.08,28.16 -1.07,0.52 -1.97,1.36 -2.58,2.37 -0.58,0.99 -0.9,2.15 -0.86,3.36 -0.06,1.22 0.28,2.46 0.95,3.48 0.67,1.05 1.69,1.82 2.86,2.21 23.36,9.86 47.75,17 72.71,21.34zm41.13 -52.56c2.99,0.19 5.85,1.11 8.38,2.68 1.91,0.93 3.44,2.41 4.49,4.26 1.02,1.82 1.45,3.93 1.23,6.03 0.77,4.15 0.43,8.47 -0.95,12.47 -1.42,4 -3.85,7.57 -7.05,10.37 -15.24,11.03 -52.55,6.84 -101.29,-11.05 29.55,-15.04 62.04,-23.52 95.19,-24.75z"/>
  <path class="fil7" d="M8381.27 12419.39c1.12,0.37 2.32,0.37 3.42,0 30.08,-12.19 80.72,-63.97 78.84,-95.19 -0.34,-5.63 -2.56,-10.96 -6.28,-15.17 -3.72,-4.22 -8.77,-7.05 -14.28,-8.08 -4.84,-1.38 -9.91,-1.66 -14.87,-0.79 -4.93,0.86 -9.65,2.83 -13.71,5.75 -32.36,22.85 -38.08,103.96 -38.08,107.38 -0.12,1.05 0.07,2.13 0.52,3.08 0.47,0.95 1.23,1.72 2.16,2.25 0.64,0.52 1.44,0.8 2.27,0.77zm55.2 -107.38l3.05 0c9.54,2.65 11.05,7.61 11.43,11.8 0,21.7 -35.03,61.32 -61.3,76.15 1.05,-31.52 12.25,-61.84 31.99,-86.44 4.34,-2.25 9.35,-2.8 14.1,-1.51l0.73 0z"/>
  <path class="fil14" d="M5841.86 5192.68l231.55 -63.6 31.99 292.8c0,0 -228.5,68.56 -285.23,-51.38l21.7 -177.81z"/>
  <polygon class="fil14" points="6283.55,5169.43 6269.48,5433.33 6105.36,5421.88 6073.37,5129.08 "/>
  <path class="fil7" d="M10144.64 12083.95c-1216.19,-183.14 -2139.97,-2456.39 -2139.97,-5089.04 0,-2632.7 923.78,-4905.93 2139.97,-5089.09l1133.56 -170.59 0 10519.3 -1133.56 -170.58z"/>
  <path class="fil16" d="M10144.64 12083.95c-1216.19,-183.14 -2139.97,-2456.39 -2139.97,-5089.04 0,-2632.7 923.78,-4905.93 2139.97,-5089.09l1133.56 -170.59 0 10519.3 -1133.56 -170.58z"/>
  <path class="fil7" d="M11278.24 12254.53c1097.1,0 1986.51,-2354.82 1986.51,-5259.62 0,-2904.84 -889.41,-5259.68 -1986.51,-5259.68 -1097.11,0 -1986.51,2354.83 -1986.51,5259.68 0,2904.8 889.4,5259.62 1986.51,5259.62z"/>
  <path class="fil21" d="M11646 4385.05c-609.25,0 -1100.07,1168.59 -1100.07,2610.22 0,1441.64 492.36,2609.81 1100.07,2609.81 607.74,0 1100.07,-1168.17 1100.07,-2609.81 0,-1441.63 -492.33,-2610.22 -1100.07,-2610.22zm875.79 2610.22c0,414.66 -67.02,791.62 -176.69,1074.55l-317.56 -1095.48 311.46 -1072.66c114.25,284.45 184.28,669.03 184.28,1093.23l-1.5 0.36zm-669.78 -1588.23c134.41,0 258.9,93.68 363.65,254.75l-284.47 986.59 -328.2 -1127.09c65.17,-69.67 155.18,-110.83 250.54,-114.62l-1.51 0.37zm-669.03 1588.23c0,-536.9 112.33,-1010.96 284.06,-1298.44l371.64 1277.51 -376.97 1306.82c-167.94,-287.87 -277.23,-756.61 -277.23,-1286.25l-1.5 0.36zm669.03 1588.2c-48.76,-2.64 -96.52,-15.02 -140.44,-36.33 -43.94,-21.3 -83.18,-51.16 -115.45,-87.8l336.6 -1160.21 293.58 1014.39c-106.62,170.98 -234.56,269.6 -372.78,269.6l-1.51 0.36z"/>
  <path class="fil13" d="M11331.96 12121.27c-894.85,0 -1852.86,-2060 -1852.86,-5126.36 0,-3066.42 958.01,-5126.4 1852.86,-5126.4 894.82,0 1853.24,2059.99 1853.24,5126.4 0,3066.36 -958.06,5126.36 -1853.24,5126.36zm0 -10214.68c-875.79,0 -1814.78,2044.39 -1814.78,5088.32 0,3043.89 936.71,5088.3 1814.78,5088.3 878.06,0 1815.15,-2044.78 1815.15,-5088.3 0,-3043.56 -938.63,-5088.32 -1815.15,-5088.32z"/>
 </g>
</svg>
