<?xml version="1.0" encoding="UTF-8"?>
<!DOCTYPE svg PUBLIC "-//W3C//DTD SVG 1.1//EN" "http://www.w3.org/Graphics/SVG/1.1/DTD/svg11.dtd">
<!-- Creator: CorelDRAW 2020 (64-Bit) -->
<svg xmlns="http://www.w3.org/2000/svg" xml:space="preserve" width="165.373mm" height="116.809mm" version="1.1" style="shape-rendering:geometricPrecision; text-rendering:geometricPrecision; image-rendering:optimizeQuality; fill-rule:evenodd; clip-rule:evenodd"
viewBox="0 0 19802.98 13987.54"
 xmlns:xlink="http://www.w3.org/1999/xlink"
 xmlns:xodm="http://www.corel.com/coreldraw/odm/2003">
 <defs>
  <style type="text/css">
   <![CDATA[
    .fil21 {fill:#263238;fill-rule:nonzero}
    .fil20 {fill:#CB7A63;fill-rule:nonzero}
    .fil24 {fill:#D4827D;fill-rule:nonzero}
    .fil4 {fill:#E0E0E0;fill-rule:nonzero}
    .fil3 {fill:#E6E6E6;fill-rule:nonzero}
    .fil0 {fill:#EBEBEB;fill-rule:nonzero}
    .fil5 {fill:#F0F0F0;fill-rule:nonzero}
    .fil2 {fill:whitesmoke;fill-rule:nonzero}
    .fil1 {fill:#FAFAFA;fill-rule:nonzero}
    .fil9 {fill:#FFCA05;fill-rule:nonzero}
    .fil6 {fill:white;fill-rule:nonzero}
    .fil18 {fill:white;fill-rule:nonzero;fill-opacity:0.011765}
    .fil19 {fill:white;fill-rule:nonzero;fill-opacity:0.090196}
    .fil12 {fill:black;fill-rule:nonzero;fill-opacity:0.101961}
    .fil14 {fill:#FFCA05;fill-rule:nonzero;fill-opacity:0.101961}
    .fil11 {fill:white;fill-rule:nonzero;fill-opacity:0.101961}
    .fil10 {fill:black;fill-rule:nonzero;fill-opacity:0.200000}
    .fil8 {fill:white;fill-rule:nonzero;fill-opacity:0.200000}
    .fil13 {fill:black;fill-rule:nonzero;fill-opacity:0.301961}
    .fil7 {fill:white;fill-rule:nonzero;fill-opacity:0.301961}
    .fil17 {fill:black;fill-rule:nonzero;fill-opacity:0.400000}
    .fil23 {fill:white;fill-rule:nonzero;fill-opacity:0.400000}
    .fil22 {fill:white;fill-rule:nonzero;fill-opacity:0.600000}
    .fil16 {fill:white;fill-rule:nonzero;fill-opacity:0.701961}
    .fil15 {fill:white;fill-rule:nonzero;fill-opacity:0.800000}
   ]]>
  </style>
 </defs>
 <g id="Layer_x0020_1">
  <metadata id="CorelCorpID_0Corel-Layer"/>
  <polygon class="fil0" points="17818.66,12988.66 16506.91,12988.66 16506.91,12998.55 17818.66,12998.55 "/>
  <polygon class="fil0" points="13118.24,13096.42 12774.07,13096.42 12774.07,13106.33 13118.24,13106.33 "/>
  <polygon class="fil0" points="16467.37,12621.14 15707.36,12621.14 15707.36,12631.06 16467.37,12631.06 "/>
  <polygon class="fil0" points="3788.23,12687.73 2077.66,12687.73 2077.66,12697.63 3788.23,12697.63 "/>
  <polygon class="fil0" points="4391.85,12687.73 4141.15,12687.73 4141.15,12697.63 4391.85,12697.63 "/>
  <polygon class="fil0" points="8917.17,12854.81 5206.88,12854.81 5206.88,12864.72 8917.17,12864.72 "/>
  <polygon class="fil0" points="19802.98,12351.45 -0,12351.45 -0,12361.34 19802.98,12361.34 "/>
  <path class="fil1" d="M7079.13 2889.96l-1154.12 -67.36c-40.81,-2.38 -81.45,7.26 -116.85,27.72 -381.4,330.32 -792.1,109.71 -973.91,-20.6 -68.65,-49.86 -150.15,-79.11 -234.87,-84.34l-1285.98 -73.67c-482.4,-28.13 -559.24,-710.53 -94.67,-842.42l18.21 -4.75c-479.61,-449.53 677.67,-1270.56 1807.62,25.35 -70.08,-413.88 990.17,-204.37 1283.24,372.69 137.43,-360.81 1118.06,334.67 751.33,667.38z"/>
  <path class="fil2" d="M7980.55 1397.58c148.12,-421.8 461.4,-970.35 1573.16,-850.73 1111.72,119.6 554.48,792.12 1188.17,871.33 633.69,79.21 542.98,-249.52 1058.66,277.24 515.68,526.76 455.85,68.52 894.7,329.92 438.8,261.41 -5061.62,361.21 -4714.69,-627.75z"/>
  <path class="fil2" d="M14429.58 2684.81l813.49 -15.87 67.74 28.92c183.96,78.2 383.11,114.06 582.81,105.03 199.67,-9.06 394.77,-62.83 570.9,-157.3l680.43 -13.09c0,0 633.69,-251.89 537.47,-885.58 -96.25,-633.69 -1045.61,-85.94 -1045.61,-85.94 0,0 274.86,-890.35 -651.9,-622.21 -926.8,268.13 -999.67,1148.57 -999.67,1148.57 0,0 -1226.99,-188.91 -555.65,497.47z"/>
  <polygon class="fil3" points="8494.39,3976.38 3527.79,3976.38 3527.79,12416.78 8494.39,12416.78 "/>
  <polygon class="fil3" points="4481.81,2796.87 4481.81,3976.34 4873.12,3976.34 7149.28,3976.34 7540.56,3976.34 7540.56,2796.87 "/>
  <polygon class="fil4" points="3425.46,3982.71 8597.22,3982.71 8597.22,3855.18 3425.46,3855.18 "/>
  <polygon class="fil4" points="4351.43,2796.87 7670.43,2796.87 7670.43,2669.35 4351.43,2669.35 "/>
  <polygon class="fil5" points="7458.98,3976.38 2492.39,3976.38 2492.39,12416.78 7458.98,12416.78 "/>
  <polygon class="fil5" points="3446.11,2796.87 3446.11,3976.34 3837.82,3976.34 6113.56,3976.34 6505.25,3976.34 6505.25,2796.87 "/>
  <polygon class="fil6" points="3446.09,4288.83 2810.03,4288.83 2810.03,4913.81 3446.09,4913.81 "/>
  <polygon class="fil6" points="4677.76,4288.83 4041.7,4288.83 4041.7,4913.81 4677.76,4913.81 "/>
  <polygon class="fil6" points="5909.51,4288.83 5273.45,4288.83 5273.45,4913.81 5909.51,4913.81 "/>
  <polygon class="fil6" points="7141.32,4288.83 6505.25,4288.83 6505.25,4913.81 7141.32,4913.81 "/>
  <polygon class="fil6" points="3446.09,5424.33 2810.03,5424.33 2810.03,6049.3 3446.09,6049.3 "/>
  <polygon class="fil6" points="4677.76,5424.33 4041.7,5424.33 4041.7,6049.3 4677.76,6049.3 "/>
  <polygon class="fil6" points="5909.51,5424.33 5273.45,5424.33 5273.45,6049.3 5909.51,6049.3 "/>
  <polygon class="fil6" points="7141.32,5424.33 6505.25,5424.33 6505.25,6049.3 7141.32,6049.3 "/>
  <polygon class="fil6" points="3446.09,6559.84 2810.03,6559.84 2810.03,7184.83 3446.09,7184.83 "/>
  <polygon class="fil6" points="4677.76,6559.84 4041.7,6559.84 4041.7,7184.83 4677.76,7184.83 "/>
  <polygon class="fil6" points="5909.51,6559.84 5273.45,6559.84 5273.45,7184.83 5909.51,7184.83 "/>
  <polygon class="fil6" points="4677.76,3307.41 4041.7,3307.41 4041.7,3932.4 4677.76,3932.4 "/>
  <polygon class="fil6" points="5909.51,3307.41 5273.45,3307.41 5273.45,3932.4 5909.51,3932.4 "/>
  <polygon class="fil6" points="7141.32,6559.84 6505.25,6559.84 6505.25,7184.83 7141.32,7184.83 "/>
  <polygon class="fil6" points="3446.09,7695.37 2810.03,7695.37 2810.03,8320.36 3446.09,8320.36 "/>
  <polygon class="fil6" points="4677.76,7695.37 4041.7,7695.37 4041.7,8320.36 4677.76,8320.36 "/>
  <polygon class="fil6" points="5909.51,7695.37 5273.45,7695.37 5273.45,8320.36 5909.51,8320.36 "/>
  <polygon class="fil6" points="7141.32,7695.37 6505.25,7695.37 6505.25,8320.36 7141.32,8320.36 "/>
  <polygon class="fil6" points="3446.09,8830.86 2810.03,8830.86 2810.03,9455.84 3446.09,9455.84 "/>
  <polygon class="fil6" points="4677.76,8830.86 4041.7,8830.86 4041.7,9455.84 4677.76,9455.84 "/>
  <polygon class="fil6" points="5909.51,8830.86 5273.45,8830.86 5273.45,9455.84 5909.51,9455.84 "/>
  <polygon class="fil6" points="7141.32,8830.86 6505.25,8830.86 6505.25,9455.84 7141.32,9455.84 "/>
  <polygon class="fil6" points="3446.09,9966.34 2810.03,9966.34 2810.03,10591.33 3446.09,10591.33 "/>
  <polygon class="fil6" points="4677.76,9966.34 4041.7,9966.34 4041.7,10591.33 4677.76,10591.33 "/>
  <polygon class="fil6" points="5909.51,9966.34 5273.45,9966.34 5273.45,10591.33 5909.51,10591.33 "/>
  <polygon class="fil6" points="7141.32,9966.34 6505.25,9966.34 6505.25,10591.33 7141.32,10591.33 "/>
  <polygon class="fil6" points="3446.09,11101.87 2810.03,11101.87 2810.03,11726.86 3446.09,11726.86 "/>
  <polygon class="fil6" points="4677.76,11101.87 4041.7,11101.87 4041.7,11726.86 4677.76,11726.86 "/>
  <polygon class="fil6" points="5909.51,11101.87 5273.45,11101.87 5273.45,11726.86 5909.51,11726.86 "/>
  <polygon class="fil6" points="7141.32,11101.87 6505.25,11101.87 6505.25,11726.86 7141.32,11726.86 "/>
  <polygon class="fil0" points="2389.88,3982.71 7561.63,3982.71 7561.63,3855.18 2389.88,3855.18 "/>
  <polygon class="fil0" points="3316.25,2796.87 6635.21,2796.87 6635.21,2669.35 3316.25,2669.35 "/>
  <polygon class="fil2" points="10859.58,8089.04 8079.65,8089.04 8079.65,12380.73 12516.29,12380.73 12516.29,8089.04 12516.29,6185.99 "/>
  <polygon class="fil3" points="13344.37,6185.99 12516.2,6185.99 12516.2,12380.73 13344.37,12380.73 "/>
  <polygon class="fil4" points="8946.5,8958.74 8286.25,8958.74 8286.25,9607.88 8946.5,9607.88 "/>
  <polygon class="fil7" points="8946.97,8958.74 8360.02,8958.74 8360.02,9607.88 8946.97,9607.88 "/>
  <polygon class="fil4" points="8946.5,10050.66 8286.25,10050.66 8286.25,10699.81 8946.5,10699.81 "/>
  <polygon class="fil7" points="8946.97,10050.66 8360.02,10050.66 8360.02,10699.81 8946.97,10699.81 "/>
  <polygon class="fil4" points="8946.5,11142.65 8286.25,11142.65 8286.25,11791.8 8946.5,11791.8 "/>
  <polygon class="fil7" points="8946.97,11142.65 8360.02,11142.65 8360.02,11791.8 8946.97,11791.8 "/>
  <polygon class="fil8" points="9020.26,11142.65 8360.02,11142.65 8360.02,11791.39 9020.26,11791.39 "/>
  <polygon class="fil4" points="10059.9,8958.74 9399.7,8958.74 9399.7,9607.88 10059.9,9607.88 "/>
  <polygon class="fil7" points="10059.96,8958.74 9473.01,8958.74 9473.01,9607.88 10059.96,9607.88 "/>
  <polygon class="fil4" points="10059.9,10050.66 9399.7,10050.66 9399.7,10699.81 10059.9,10699.81 "/>
  <polygon class="fil7" points="10059.96,10050.66 9473.01,10050.66 9473.01,10699.81 10059.96,10699.81 "/>
  <polygon class="fil4" points="10059.9,11142.65 9399.7,11142.65 9399.7,11791.8 10059.9,11791.8 "/>
  <polygon class="fil7" points="10059.96,11142.65 9473.01,11142.65 9473.01,11791.8 10059.96,11791.8 "/>
  <polygon class="fil8" points="10133.25,11142.65 9473.01,11142.65 9473.01,11791.39 10133.25,11791.39 "/>
  <polygon class="fil4" points="11172.83,8958.74 10512.62,8958.74 10512.62,9607.88 11172.83,9607.88 "/>
  <polygon class="fil7" points="11173.28,8958.74 10586.31,8958.74 10586.31,9607.88 11173.28,9607.88 "/>
  <polygon class="fil4" points="11172.83,10050.66 10512.62,10050.66 10512.62,10699.81 11172.83,10699.81 "/>
  <polygon class="fil7" points="11173.28,10050.66 10586.31,10050.66 10586.31,10699.81 11173.28,10699.81 "/>
  <polygon class="fil4" points="11172.83,11142.65 10512.62,11142.65 10512.62,11791.8 11172.83,11791.8 "/>
  <polygon class="fil7" points="11173.28,11142.65 10586.31,11142.65 10586.31,11791.8 11173.28,11791.8 "/>
  <polygon class="fil8" points="11246.53,11142.65 10586.31,11142.65 10586.31,11791.39 11246.53,11791.39 "/>
  <polygon class="fil4" points="12286.15,8958.74 11625.9,8958.74 11625.9,9607.88 12286.15,9607.88 "/>
  <polygon class="fil7" points="12286.08,8958.74 11699.12,8958.74 11699.12,9607.88 12286.08,9607.88 "/>
  <polygon class="fil4" points="12286.15,10050.66 11625.9,10050.66 11625.9,10699.81 12286.15,10699.81 "/>
  <polygon class="fil7" points="12286.08,10050.66 11699.12,10050.66 11699.12,10699.81 12286.08,10699.81 "/>
  <polygon class="fil4" points="12286.15,11142.65 11625.9,11142.65 11625.9,11791.8 12286.15,11791.8 "/>
  <polygon class="fil7" points="12286.08,11142.65 11699.12,11142.65 11699.12,11791.8 12286.08,11791.8 "/>
  <polygon class="fil8" points="12359.34,11142.65 11699.12,11142.65 11699.12,11791.39 12359.34,11791.39 "/>
  <polygon class="fil5" points="17257.9,5316.6 13079.87,5316.6 13079.87,12416.76 17257.9,12416.76 "/>
  <polygon class="fil0" points="13882.29,4324.1 13882.29,5316.64 14211.82,5316.64 16125.96,5316.64 16455.49,5316.64 16455.49,4324.1 "/>
  <polygon class="fil1" points="13882.29,5579.64 13347.18,5579.64 13347.18,6105.22 13882.29,6105.22 "/>
  <polygon class="fil1" points="14918.35,5579.64 14383.28,5579.64 14383.28,6105.22 14918.35,6105.22 "/>
  <polygon class="fil1" points="15954.55,5579.64 15419.48,5579.64 15419.48,6105.22 15954.55,6105.22 "/>
  <polygon class="fil1" points="16990.5,5579.64 16455.43,5579.64 16455.43,6105.22 16990.5,6105.22 "/>
  <polygon class="fil1" points="13882.29,6534.53 13347.18,6534.53 13347.18,7060.09 13882.29,7060.09 "/>
  <polygon class="fil1" points="14918.35,6534.53 14383.28,6534.53 14383.28,7060.09 14918.35,7060.09 "/>
  <polygon class="fil1" points="15954.55,6534.53 15419.48,6534.53 15419.48,7060.09 15954.55,7060.09 "/>
  <polygon class="fil1" points="16990.5,6534.53 16455.43,6534.53 16455.43,7060.09 16990.5,7060.09 "/>
  <polygon class="fil1" points="13882.29,7489.78 13347.18,7489.78 13347.18,8015.37 13882.29,8015.37 "/>
  <polygon class="fil1" points="14918.35,7489.78 14383.28,7489.78 14383.28,8015.37 14918.35,8015.37 "/>
  <polygon class="fil1" points="15954.55,7489.78 15419.48,7489.78 15419.48,8015.37 15954.55,8015.37 "/>
  <polygon class="fil1" points="14918.35,4753.85 14383.28,4753.85 14383.28,5279.41 14918.35,5279.41 "/>
  <polygon class="fil1" points="15954.55,4753.85 15419.48,4753.85 15419.48,5279.41 15954.55,5279.41 "/>
  <polygon class="fil1" points="16990.5,7489.78 16455.43,7489.78 16455.43,8015.37 16990.5,8015.37 "/>
  <polygon class="fil1" points="13882.29,8445.09 13347.18,8445.09 13347.18,8970.66 13882.29,8970.66 "/>
  <polygon class="fil1" points="14918.35,8445.09 14383.28,8445.09 14383.28,8970.66 14918.35,8970.66 "/>
  <polygon class="fil1" points="15954.55,8445.09 15419.48,8445.09 15419.48,8970.66 15954.55,8970.66 "/>
  <polygon class="fil1" points="16990.5,8445.09 16455.43,8445.09 16455.43,8970.66 16990.5,8970.66 "/>
  <polygon class="fil1" points="13882.29,9400.47 13347.18,9400.47 13347.18,9926.01 13882.29,9926.01 "/>
  <polygon class="fil1" points="14918.35,9400.47 14383.28,9400.47 14383.28,9926.01 14918.35,9926.01 "/>
  <polygon class="fil1" points="15954.55,9400.47 15419.48,9400.47 15419.48,9926.01 15954.55,9926.01 "/>
  <polygon class="fil1" points="16990.5,9400.47 16455.43,9400.47 16455.43,9926.01 16990.5,9926.01 "/>
  <polygon class="fil1" points="13882.29,10355.32 13347.18,10355.32 13347.18,10880.88 13882.29,10880.88 "/>
  <polygon class="fil1" points="14918.35,10355.32 14383.28,10355.32 14383.28,10880.88 14918.35,10880.88 "/>
  <polygon class="fil1" points="15954.55,10355.32 15419.48,10355.32 15419.48,10880.88 15954.55,10880.88 "/>
  <polygon class="fil1" points="16990.5,10355.32 16455.43,10355.32 16455.43,10880.88 16990.5,10880.88 "/>
  <polygon class="fil1" points="13882.29,11310.57 13347.18,11310.57 13347.18,11836.13 13882.29,11836.13 "/>
  <polygon class="fil1" points="14918.35,11310.57 14383.28,11310.57 14383.28,11836.13 14918.35,11836.13 "/>
  <polygon class="fil1" points="15954.55,11310.57 15419.48,11310.57 15419.48,11836.13 15954.55,11836.13 "/>
  <polygon class="fil1" points="16990.5,11310.57 16455.43,11310.57 16455.43,11836.13 16990.5,11836.13 "/>
  <polygon class="fil2" points="12993.51,5321.8 17344.23,5321.8 17344.23,5214.46 12993.51,5214.46 "/>
  <path class="fil2" d="M9710.58 13987.54c4241.09,0 7679.18,-200.74 7679.18,-448.36 0,-247.6 -3438.09,-448.35 -7679.18,-448.35 -4241.12,0 -7679.21,200.74 -7679.21,448.35 0,247.61 3438.09,448.36 7679.21,448.36z"/>
  <path class="fil9" d="M13929.51 2038l-467.35 0c46.57,-30.8 81.78,-76.02 100.22,-128.72 27.69,-84.61 47.59,-171.59 59.39,-259.82 9.76,-68.89 14.93,-138.36 15.47,-207.93 -0.71,-93.77 -14.03,-187.03 -39.61,-277.25l193.27 0c-11.57,41.64 -20.44,83.97 -26.55,126.74 -7.77,50.19 -11.6,100.91 -11.47,151.7 1.62,158.89 26.84,316.67 74.83,468.14 19.33,52.26 55.04,96.86 101.8,127.14z"/>
  <path class="fil10" d="M13792.49 1161.51c-7.92,45.54 -17.02,87.52 -26.51,126.74 -28.45,126.96 -77.12,248.51 -144.2,360.02 9.76,-68.9 14.93,-138.37 15.47,-207.94 -0.71,-93.76 -14.03,-187.02 -39.61,-277.24l194.85 -1.58z"/>
  <path class="fil9" d="M13367.18 617.72l-59.41 73.67 -31.3 -36.44c-42.37,-42.22 -98.73,-67.44 -158.43,-70.89 -4.47,-0.41 -8.99,-0.41 -13.46,0 -13.03,1.94 -25.54,6.43 -36.85,13.23 -11.28,6.79 -21.1,15.76 -28.9,26.37 -12.65,16.62 -21.81,35.61 -26.93,55.85 -1.58,5.32 -2.75,10.74 -3.58,16.24 -6.37,42.57 -1.71,86.06 13.46,126.33 29.31,79.22 89.13,131.49 151.71,131.49l43.56 0 0 103.77 -43.56 0c-97.43,0 -188.14,-76.04 -231.7,-193.68 -2.77,-7.52 -5.54,-15.44 -7.93,-23.36 -16.35,-47.55 -21.29,-98.29 -14.42,-148.1 6.87,-49.81 25.39,-97.31 54.02,-138.64 16.32,-22.28 37.52,-40.57 61.95,-53.47 24.43,-12.91 51.46,-20.08 79.05,-20.99 37.92,-0.35 75.5,7.48 110.13,22.97 42.39,18.45 80.54,45.41 112.07,79.21l30.51 36.44z"/>
  <path class="fil8" d="M13223.75 504.04c-2.35,5.29 -5.42,10.23 -9.12,14.66 -13.12,11.57 -28.3,20.57 -44.74,26.52 -24.08,10.25 -46.7,23.55 -67.36,39.61 -13.03,1.94 -25.54,6.43 -36.82,13.23 -11.27,6.79 -21.1,15.76 -28.92,26.38 -15.94,21.15 -26.39,45.91 -30.48,72.08 -14.8,25.05 -26.87,51.61 -36.06,79.21 -5.68,25.87 -19.55,49.2 -39.61,66.53 -25.95,-79.78 -21.14,-166.36 13.47,-242.78 7.41,-15.65 16.57,-30.4 27.34,-43.96 16.32,-22.3 37.48,-40.58 61.91,-53.48 24.43,-12.9 51.49,-20.07 79.08,-20.99l14.67 0c33.36,1.52 66.16,9.32 96.64,22.98z"/>
  <path class="fil7" d="M13128.28 481.11c0,0 0,2.37 0,3.56 -8.27,30.07 -28.04,55.67 -55.04,71.3 -32.48,21.28 -69.03,35.58 -107.34,41.98 -6.72,0.42 -13.46,0.42 -20.18,0 7.38,-15.65 16.56,-30.4 27.3,-43.97 16.32,-22.28 37.52,-40.57 61.95,-53.47 24.43,-12.91 51.46,-20.08 79.05,-20.99l14.26 1.59z"/>
  <path class="fil10" d="M13180.21 955.61c-7.44,9.93 -18.06,17.02 -30.06,20.12 -12.05,3.09 -24.75,2 -36.09,-3.09 -28.16,-10.6 -53.46,-27.71 -73.76,-49.95 -20.3,-22.24 -35.06,-48.95 -43.05,-77.98 -14.03,-54.29 -9.57,-111.71 12.67,-163.18 -1.58,5.33 -2.75,10.75 -3.58,16.24 -6.37,42.57 -1.71,86.06 13.47,126.35 29.3,79.21 89.12,131.49 151.7,131.49l8.71 0z"/>
  <path class="fil9" d="M14035.69 617.69l60.99 73.67 31.3 -36.44c42.33,-42.22 98.7,-67.44 158.41,-70.9 4.35,-0.41 8.72,-0.41 13.05,0 13.05,1.89 25.6,6.38 36.88,13.18 11.28,6.79 21.1,15.78 28.86,26.43 12.65,16.61 21.83,35.6 26.97,55.84 0,5.54 2.75,10.69 3.96,16.25 6.2,42.59 1.45,86.1 -13.88,126.33 -29.31,79.21 -89.13,131.49 -151.71,131.49l-43.56 0 0 103.76 43.56 0c97.43,0 188.55,-76.04 231.7,-193.67 3.08,-7.64 5.71,-15.45 7.93,-23.36 16.41,-47.55 21.35,-98.29 14.48,-148.12 -6.87,-49.81 -25.41,-97.32 -54.08,-138.63 -16.38,-22.23 -37.58,-40.46 -61.98,-53.36 -24.43,-12.9 -51.42,-20.11 -79.01,-21.1 -38.06,-0.4 -75.75,7.44 -110.51,22.97 -42.39,18.45 -80.54,45.41 -112.06,79.21l-31.3 36.44z"/>
  <path class="fil8" d="M14179.06 504.04c2.31,5.39 5.54,10.33 9.51,14.66 12.92,11.64 28.01,20.66 44.35,26.52 24.08,10.25 46.7,23.55 67.36,39.61 13.02,1.89 25.57,6.37 36.85,13.17 11.28,6.8 21.1,15.79 28.9,26.44 16.03,21.12 26.64,45.88 30.89,72.08 14.48,25.15 26.42,51.68 35.64,79.21 5.99,25.75 19.84,49 39.61,66.53 25.95,-79.78 21.12,-166.36 -13.47,-242.78 -7.41,-15.56 -16.44,-30.3 -26.93,-43.96 -16.38,-22.23 -37.58,-40.47 -62.01,-53.36 -24.39,-12.9 -51.42,-20.11 -78.99,-21.11l-15.05 0c-33.39,1.52 -66.18,9.32 -96.66,22.98z"/>
  <path class="fil7" d="M14274.48 481.11c0,0 0,2.37 0,3.56 8.3,30.07 28.07,55.67 55.07,71.3 32.48,21.28 69,35.58 107.31,41.98 6.75,0.41 13.5,0.41 20.21,0 -7.41,-15.57 -16.44,-30.3 -26.93,-43.97 -16.38,-22.23 -37.58,-40.46 -62.01,-53.35 -24.39,-12.9 -51.42,-20.11 -78.99,-21.11l-14.67 1.59z"/>
  <path class="fil10" d="M14222.62 955.61c7.47,9.93 18.06,17.02 30.1,20.12 12,3.09 24.74,2 36.06,-3.09 28.51,-10.43 54.11,-27.45 74.77,-49.68 20.66,-22.24 35.73,-49.05 44.03,-78.24 13.69,-54.35 9.1,-111.7 -13.05,-163.18 0,5.54 2.77,10.69 3.96,16.24 6.21,42.61 1.46,86.1 -13.88,126.35 -29.3,79.21 -89.13,131.49 -151.7,131.49l-10.3 0z"/>
  <path class="fil9" d="M14243.31 938.95c-1.46,14.5 -3.71,28.92 -6.72,43.17 -14.42,81.46 -59.66,154.22 -126.36,203.19 -163.96,110.1 -424.96,141.78 -638.04,79.2l-19.04 -5.54c-53.38,-16.7 -103.88,-41.55 -149.7,-73.66 -28.3,-20.88 -52.82,-46.47 -72.46,-75.66 -34.19,-50.92 -55.04,-109.62 -60.62,-170.7 -5.41,-57.16 2.04,-114.81 21.81,-168.72 1.96,-5.94 4.33,-11.88 6.72,-17.82 11.65,-27.05 26.13,-52.81 43.18,-76.83 21.39,-30.1 46.32,-56.25 66.53,-85.94 20.66,-27.58 31.15,-61.43 29.69,-95.86l368.35 32.49 367.94 -32.49c-1.52,34.5 9.15,68.41 30.09,95.86 19.81,29.7 44.77,55.84 66.16,85.94 21.76,30.38 39.1,63.72 51.48,99.01 18.82,52.63 25.99,108.71 20.98,164.37z"/>
  <path class="fil11" d="M13778.55 800.71c-212.31,90.7 -445.18,25.75 -541.44,-10.69 -15.33,-5.92 -30.28,-12.79 -44.74,-20.6 0.9,-2.83 1.94,-5.6 3.17,-8.31 11.85,-30.64 27.57,-59.66 46.74,-86.35 21.39,-30.09 46.32,-56.23 66.53,-85.94 20.66,-27.57 31.15,-61.42 29.72,-95.85l368.32 32.48 282.39 -18.61c7.54,36.83 13.46,198.42 -210.7,293.87z"/>
  <path class="fil12" d="M14243.16 938.95c-3.08,48.23 -16.57,95.24 -39.54,137.77 -22.98,42.52 -54.88,79.57 -93.53,108.59 -216.26,145.35 -594.09,153.28 -806.77,0 -38.12,-29.55 -69.61,-66.72 -92.55,-109.14 -22.91,-42.43 -36.71,-89.15 -40.52,-137.22 0,-14.25 0,-28.51 0,-42.38 142.16,166.35 417.83,219.82 637.25,109.32 117.8,-58.93 207.39,-162.2 249.12,-287.14 24.72,-72.51 28.13,-150.57 9.88,-224.97l9.93 0c-1.52,34.5 9.15,68.41 30.09,95.86 19.81,29.7 44.77,55.84 66.16,85.94 54.31,76.49 79.33,169.97 70.5,263.37z"/>
  <path class="fil12" d="M14236.44 982.06c-14.42,81.45 -59.66,154.21 -126.32,203.18 -169.13,113.66 -440.84,143.77 -657.08,73.67 -27.35,-10.69 -54.28,-22.98 -79.21,-36.04 -54.56,-27.61 -102.82,-66.17 -141.78,-113.27 -34.19,-50.93 -55.04,-109.63 -60.6,-170.71 -5.33,-57.44 2.24,-115.36 22.18,-169.5 63.26,34.16 130.98,59.36 201.19,74.85 53.13,14.79 107.46,24.74 162.4,29.7 146.53,13.47 435.64,17.82 666.55,-100.2 18.57,67.82 22.88,138.76 12.68,208.34z"/>
  <path class="fil10" d="M14243.16 938.9c-3.08,48.23 -16.57,95.24 -39.54,137.77 -22.98,42.52 -54.88,79.56 -93.53,108.59 -216.26,145.35 -594.09,153.26 -806.77,0 -38.12,-29.55 -69.61,-66.72 -92.55,-109.14 -22.91,-42.43 -36.71,-89.15 -40.52,-137.22 0,-14.25 69.7,142.98 69.7,127.14 158.41,190.11 458.24,200.41 691.9,93.47 282.39,-129.12 233.69,-428.14 173.49,-569.54 19.81,29.31 44.74,55.06 65.74,84.77 55.04,76.49 80.64,170.3 72.09,264.16z"/>
  <path class="fil13" d="M14086.77 556.78c-470.91,133.88 -772.31,-54.65 -775.1,-79.21l396.08 46.34 367.94 -32.48c-2.57,22.39 1.26,45.06 11.09,65.35z"/>
  <path class="fil9" d="M14115.72 439.51c0.6,22.18 -4.87,44.09 -15.84,63.37 -198.01,71.69 -598.43,67.33 -786.19,0 -10.96,-19.28 -16.44,-41.19 -15.84,-63.37 63.79,42.77 271.72,53.07 409.13,56.64 137.06,-2.77 344.97,-13.87 408.75,-56.64z"/>
  <path class="fil14" d="M13990.96 533l-3.56 0c-191.72,31.4 -387.38,30.06 -578.66,-3.96 -32.26,-6.1 -64.03,-14.57 -95.06,-25.35 -10.96,-19.28 -16.44,-41.19 -15.84,-63.36 39.61,26.93 138.62,39.6 240.82,48.71 58.62,4.36 118.81,6.33 168.3,7.92 90.59,-1.65 180.97,-7.87 270.93,-18.61l3.16 0c5.14,15.05 8.72,54.65 9.89,54.65z"/>
  <path class="fil9" d="M14115.72 439.51c3.17,31.29 -179.8,57.43 -408.75,57.43 -228.91,0 -412.29,-26.14 -409.13,-57.43 3.17,-31.29 186.15,-55.84 409.13,-55.84 222.98,0 405.57,24.94 408.75,55.84z"/>
  <path class="fil10" d="M14075.23 433.98c0,23.36 -161.18,39.6 -363.56,39.6 -202.4,0 -365.18,-18.21 -363.6,-39.6 1.58,-21.39 163.96,-41.98 363.6,-41.98 199.59,0 361.97,18.61 363.56,41.98z"/>
  <path class="fil7" d="M13503 668.84c-4.49,12.01 -12.63,22.3 -23.31,29.41 -10.65,7.1 -23.29,10.67 -36.09,10.2 -9.57,0.79 -19.2,-0.5 -28.22,-3.78 -9.03,-3.28 -17.23,-8.48 -24.05,-15.23 -5.96,-5.94 -23.77,-35.25 -6.75,-51.49l2 -1.98c14.29,-7.69 30.34,-11.54 46.61,-11.18 16.21,0.34 32.09,4.87 46.07,13.16 26.51,13.87 26.55,21.78 23.76,30.89z"/>
  <path class="fil7" d="M13448.23 626.85c29.71,4.35 22.58,43.56 -8.72,43.96 -3.93,0.35 -7.92,0.35 -11.88,0 -30.89,-4.75 -22.56,-43.56 9.12,-44.35 3.83,-0.43 7.7,-0.3 11.47,0.4z"/>
  <path class="fil8" d="M13534.2 493.34c-20.87,15.11 -44.8,25.51 -70.08,30.5 -18.25,3.98 -36.82,6.1 -55.44,6.33 -32.3,-6.1 -64.06,-14.57 -95.09,-25.35 -8.01,-14.17 -13.11,-29.78 -15.04,-45.94 9.53,3.42 19.58,5.17 29.71,5.15l15.05 0c0,2.37 2.38,4.36 7.14,5.94 4.65,1.46 9.4,2.51 14.25,3.17l46.35 8.31 39.6 4.75 34.07 3.57c15.84,-0.79 32.48,0.79 49.48,3.56z"/>
  <path class="fil8" d="M13763.21 496.94c-32.85,34.01 -77.49,54.14 -124.76,56.25 -23.73,2.25 -47.68,1.58 -71.29,-1.98l-20.6 -3.57c-28.42,-5.09 -56.11,-13.75 -82.37,-25.75 -21.64,-8.32 -40.18,-23.12 -53.07,-42.38 35.27,4.75 76.83,9.11 123.18,11.88 46.33,2.78 110.9,5.54 172.68,5.54l55.44 0 0.79 0z"/>
  <path class="fil7" d="M13485.17 487.85c-0.77,3.59 -2.77,6.8 -5.68,9.05 -2.89,2.25 -6.49,3.39 -10.17,3.22 0,0 -22.6,0 -18.23,-15.84l34.07 3.57z"/>
  <path class="fil9" d="M14246.82 2087.11l-1091.13 0c103.28,-57.99 219.75,-88.54 338.21,-88.72l415.08 0c118.3,0 234.64,30.42 337.83,88.33l0 0.4z"/>
  <path class="fil7" d="M14246.82 2087.11l-1091.13 0c103.28,-57.99 219.75,-88.54 338.21,-88.72l415.08 0c118.3,0 234.64,30.42 337.83,88.33l0 0.4z"/>
  <polygon class="fil15" points="13732.61,700.5 13732.61,1032.8 13670.82,1032.8 13670.82,751.99 13600.71,751.99 13600.71,700.5 "/>
  <path class="fil9" d="M14477.23 953.62c0,0 -18.6,133.47 -47.91,284.38 -17.04,88.31 -146.15,138.22 -232.49,162.77 118.81,3.96 202.78,93.87 249.92,187.74 47.11,93.86 61.78,307.34 61.78,307.34 0,0 22.56,-260.21 95.06,-364.77 44.76,-64.56 147.33,-115.26 219.02,-146.15 -234.86,-9.1 -318.44,-231.29 -345.38,-431.31z"/>
  <path class="fil16" d="M14477.23 953.62c0,0 -18.6,133.47 -47.91,284.38 -17.04,88.31 -146.15,138.22 -232.49,162.77 118.81,3.96 202.78,93.87 249.92,187.74 47.11,93.86 61.78,307.34 61.78,307.34 0,0 22.56,-260.21 95.06,-364.77 44.76,-64.56 147.33,-115.26 219.02,-146.15 -234.86,-9.1 -318.44,-231.29 -345.38,-431.31z"/>
  <path class="fil9" d="M14662.16 74.76c0,0 -13.88,100.2 -36.06,213.08 -12.68,66.14 -109.72,103.76 -174.26,122.38 89.09,2.77 152.08,70.1 187.31,140.6 35.27,70.51 46.35,230.51 46.35,230.51 0,0 17.04,-195.26 71.29,-273.68 33.67,-48.32 110.5,-86.34 164.37,-109.31 -176.24,-7.14 -238.82,-173.48 -259,-323.58z"/>
  <path class="fil16" d="M14662.16 74.76c0,0 -13.88,100.2 -36.06,213.08 -12.68,66.14 -109.72,103.76 -174.26,122.38 89.09,2.77 152.08,70.1 187.31,140.6 35.27,70.51 46.35,230.51 46.35,230.51 0,0 17.04,-195.26 71.29,-273.68 33.67,-48.32 110.5,-86.34 164.37,-109.31 -176.24,-7.14 -238.82,-173.48 -259,-323.58z"/>
  <path class="fil9" d="M12648.6 599.11c0,0 -16.63,118.81 -42.39,249.12 -15.05,79.21 -127.9,120.79 -203.57,142.58 104.18,3.56 177.43,82.37 219.03,164.75 41.56,82.39 54.25,269.32 54.25,269.32 0,0 19.79,-228.53 83.2,-319.62 39.6,-56.64 129.48,-100.99 192.06,-128.32 -205.94,-8.32 -277.23,-202.78 -302.58,-377.84z"/>
  <path class="fil16" d="M12648.6 599.11c0,0 -16.63,118.81 -42.39,249.12 -15.05,79.21 -127.9,120.79 -203.57,142.58 104.18,3.56 177.43,82.37 219.03,164.75 41.56,82.39 54.25,269.32 54.25,269.32 0,0 19.79,-228.53 83.2,-319.62 39.6,-56.64 129.48,-100.99 192.06,-128.32 -205.94,-8.32 -277.23,-202.78 -302.58,-377.84z"/>
  <path class="fil9" d="M12079.92 277.89c-3.2,-0.04 -6.33,-0.85 -9.12,-2.38l-445.56 -237.63c-2.48,-1.11 -4.69,-2.73 -6.53,-4.73 -1.84,-2.01 -3.23,-4.37 -4.12,-6.95 -0.86,-2.56 -1.21,-5.28 -0.98,-7.99 0.22,-2.71 0.98,-5.34 2.24,-7.74 1.31,-2.39 3.04,-4.5 5.17,-6.19 2.16,-1.69 4.59,-2.92 7.22,-3.62 2.63,-0.69 5.35,-0.85 8.05,-0.44 2.66,0.4 5.26,1.35 7.54,2.79l445.59 237.64c3.87,2.1 6.93,5.44 8.71,9.47 1.78,4.05 2.16,8.57 1.05,12.85 -1.08,4.27 -3.58,8.07 -7.07,10.78 -3.48,2.69 -7.8,4.16 -12.2,4.13z"/>
  <path class="fil9" d="M12382.06 437.47c-3.21,0.02 -6.35,-0.79 -9.1,-2.37l-150.12 -79.21c-2.62,-0.99 -5.01,-2.53 -6.97,-4.5 -1.99,-1.99 -3.51,-4.36 -4.49,-6.97 -1.02,-2.62 -1.44,-5.42 -1.27,-8.21 0.16,-2.79 0.91,-5.52 2.22,-8 1.29,-2.48 3.1,-4.66 5.29,-6.38 2.22,-1.74 4.75,-2.98 7.47,-3.65 2.69,-0.68 5.54,-0.78 8.3,-0.28 2.73,0.49 5.36,1.57 7.68,3.15l150.49 79.21c3.9,2.1 6.97,5.42 8.75,9.47 1.77,4.05 2.12,8.57 1.04,12.85 -1.11,4.27 -3.58,8.07 -7.1,10.77 -3.48,2.71 -7.76,4.16 -12.19,4.13z"/>
  <path class="fil9" d="M12079.92 866.43l-684.39 0c-5.26,0 -10.3,-2.08 -14,-5.8 -3.71,-3.71 -5.8,-8.75 -5.8,-14.01 0,-5.24 2.08,-10.29 5.8,-14 3.7,-3.71 8.74,-5.8 14,-5.8l684.39 0c5.26,0 10.3,2.08 14,5.8 3.71,3.71 5.81,8.75 5.81,14 0,5.26 -2.1,10.3 -5.81,14.01 -3.7,3.71 -8.74,5.8 -14,5.8z"/>
  <path class="fil9" d="M11636.2 1691.79c-3.64,0 -7.26,-0.99 -10.39,-2.87 -3.14,-1.88 -5.7,-4.59 -7.41,-7.82 -2.37,-4.62 -2.85,-10 -1.29,-14.97 1.54,-4.97 5.01,-9.12 9.59,-11.57l733.12 -389.32c2.31,-1.44 4.89,-2.39 7.58,-2.79 2.66,-0.41 5.41,-0.25 8.05,0.44 2.6,0.69 5.07,1.93 7.18,3.62 2.13,1.69 3.9,3.8 5.17,6.19 1.26,2.39 2.06,5.03 2.28,7.74 0.19,2.71 -0.13,5.42 -1.02,8 -0.89,2.56 -2.28,4.92 -4.08,6.93 -1.83,2 -4.06,3.62 -6.53,4.73l-734.31 389.32c-2.44,1.31 -5.14,2.12 -7.93,2.37z"/>
  <path class="fil9" d="M15092.84 437.51c-3.56,0.01 -7.08,-0.93 -10.14,-2.75 -3.04,-1.81 -5.58,-4.42 -7.29,-7.54 -2.41,-4.68 -2.87,-10.12 -1.33,-15.15 1.56,-5.03 5.04,-9.26 9.63,-11.77l746.21 -396.06c2.29,-1.44 4.89,-2.39 7.54,-2.8 2.69,-0.4 5.41,-0.25 8.05,0.46 2.63,0.69 5.07,1.93 7.22,3.62 2.12,1.69 3.87,3.8 5.16,6.19 1.27,2.39 2.04,5.02 2.25,7.72 0.23,2.71 -0.12,5.44 -0.98,8 -0.89,2.57 -2.28,4.93 -4.12,6.95 -1.8,2 -4.05,3.62 -6.53,4.72l-746.17 396.06c-2.95,1.53 -6.18,2.35 -9.5,2.37z"/>
  <path class="fil9" d="M16080.08 866.43l-686.76 0c-5.27,0 -10.3,-2.08 -14.01,-5.8 -3.74,-3.71 -5.8,-8.75 -5.8,-14.01 0,-5.24 2.06,-10.29 5.8,-14 3.71,-3.71 8.74,-5.8 14.01,-5.8l686.76 0c5.22,0 10.26,2.08 14,5.8 3.71,3.71 5.8,8.75 5.8,14 0,5.26 -2.08,10.3 -5.8,14.01 -3.74,3.71 -8.78,5.8 -14,5.8z"/>
  <path class="fil9" d="M15533.16 1529.02c-3.29,0.11 -6.55,-0.57 -9.5,-1.99l-426.97 -226.93c-2.47,-1.11 -4.68,-2.73 -6.53,-4.73 -1.83,-2.01 -3.23,-4.37 -4.08,-6.93 -0.89,-2.57 -1.23,-5.29 -1.02,-8 0.23,-2.71 0.98,-5.34 2.29,-7.74 1.27,-2.39 3.04,-4.5 5.16,-6.19 2.12,-1.69 4.56,-2.92 7.2,-3.62 2.62,-0.69 5.35,-0.85 8.05,-0.44 2.69,0.4 5.26,1.35 7.57,2.79l426.94 226.55c2.34,1.21 4.39,2.86 6.08,4.89 1.68,2.01 2.95,4.33 3.7,6.84 0.79,2.5 1.05,5.14 0.79,7.75 -0.25,2.61 -1.01,5.15 -2.25,7.46 -1.68,3.15 -4.18,5.78 -7.24,7.59 -3.08,1.82 -6.6,2.75 -10.18,2.71z"/>
  <path class="fil9" d="M15838.93 1691.84c-3.2,0.01 -6.33,-0.8 -9.09,-2.38l-137.45 -72.87c-2.28,-1.25 -4.31,-2.93 -5.95,-4.96 -1.65,-2.04 -2.89,-4.36 -3.62,-6.86 -0.73,-2.5 -0.95,-5.13 -0.69,-7.72 0.29,-2.6 1.08,-5.1 2.35,-7.39 2.44,-4.6 6.59,-8.05 11.57,-9.6 4.97,-1.56 10.32,-1.09 14.94,1.28l137.45 73.27c4.6,2.44 8.05,6.6 9.6,11.56 1.54,4.97 1.1,10.35 -1.27,14.98 -1.75,3.23 -4.31,5.93 -7.45,7.82 -3.14,1.88 -6.72,2.87 -10.39,2.87z"/>
  <path class="fil9" d="M3671.86 10931.99c28.2,267.08 94.92,528.7 198.01,776.68 363.18,855.07 459.85,990.13 459.85,990.13l-131.52 102.59c0,0 -681.22,-1524.06 -603.18,-1880.11 78.03,-356.06 76.83,10.71 76.83,10.71z"/>
  <path class="fil17" d="M3671.86 10931.99c28.2,267.08 94.92,528.7 198.01,776.68 363.18,855.07 459.85,990.13 459.85,990.13l-131.52 102.59c0,0 -681.22,-1524.06 -603.18,-1880.11 78.03,-356.06 76.83,10.71 76.83,10.71z"/>
  <path class="fil9" d="M3658.04 10865.83c-73.66,24.94 -72.87,37.23 -123.57,81.18 -4.37,-65.74 -29.3,-145.33 20.98,-252.3 23.7,-42.58 60.54,-76.35 104.99,-96.25 44.49,-19.93 94.19,-24.9 141.76,-14.23 3.68,0.69 7.44,0.6 11.05,-0.29 3.64,-0.89 7.03,-2.53 9.95,-4.87 3.26,-2.5 5.93,-5.74 7.76,-9.45 1.84,-3.74 2.79,-7.78 2.79,-11.94 0,-4.12 -0.95,-8.2 -2.79,-11.91 -1.83,-3.7 -4.5,-6.97 -7.76,-9.47 -31.37,-20.62 -67.61,-32.63 -105.09,-34.79 -37.48,-2.16 -74.87,5.6 -108.4,22.52 32.86,-83.99 83.55,-180.63 158.41,-232.11 79.21,-56.62 254.68,-37.23 322.41,29.72 3.08,2.62 7.01,4.08 11.09,4.08 4.06,0 7.99,-1.46 11.09,-4.08 4.25,-2.92 7.16,-7.35 8.14,-12.43 0.96,-5.03 -0.12,-10.26 -3.01,-14.5 -21.83,-32.83 -51.17,-59.95 -85.55,-79.21 -19.54,-11.85 -41.85,-18.41 -64.66,-19.02 -22.84,-0.62 -45.47,4.69 -65.65,15.44 25.35,-106.93 249.91,-198.01 246.75,-185.76 75.25,15.47 138.61,87.93 166.33,123.99 4.98,6.33 12.11,10.55 20.03,11.88 7.92,1.33 16.02,-0.38 22.78,-4.75 8.97,-5.29 15.52,-13.91 18.19,-24.02 2.66,-10.07 1.26,-20.81 -3.93,-29.84 -28.33,-46.57 -67.62,-85.45 -114.48,-113.27 26.93,-35.64 84.34,-34.06 125.94,-33.27 132.28,2.37 219.41,106.93 309.33,189.31 27.57,109.37 25.22,224.13 -6.72,332.29 -25.1,79.75 -77.21,148.22 -147.36,193.68 -9.09,-75.24 -22.18,-158.41 -32.07,-237.65 -0.41,-3.39 -1.45,-6.66 -3.14,-9.63 -1.68,-2.98 -3.89,-5.62 -6.59,-7.7 -2.69,-2.1 -5.8,-3.65 -9.06,-4.54 -3.29,-0.91 -6.74,-1.14 -10.13,-0.69 -7.58,1.4 -14.45,5.42 -19.36,11.34 -4.91,5.93 -7.6,13.41 -7.57,21.14 2.79,101.39 17.83,179.8 18.63,283.98 -52.7,56.23 -237.66,145.74 -230.12,129.52 2.75,-89.54 26.14,-240.42 0,-324.79 -1.04,-2.91 -2.73,-5.57 -4.89,-7.78 -2.18,-2.19 -4.81,-3.9 -7.72,-5.01 -2.89,-1.08 -5.99,-1.52 -9.1,-1.31 -3.07,0.23 -6.08,1.11 -8.8,2.63 -4.5,2.41 -8.2,6.11 -10.68,10.61 -2.47,4.5 -3.54,9.6 -3.16,14.73 11.34,115.62 3.41,232.31 -23.39,345.35 -94.25,67.32 -166.34,116.06 -232.87,123.57 0,-72.88 0,-183.76 0,-268.52 0,-5.76 -2.31,-11.3 -6.39,-15.4 -4.06,-4.08 -9.6,-6.39 -15.4,-6.39 -5.77,0 -11.32,2.31 -15.4,6.39 -4.08,4.1 -6.37,9.64 -6.37,15.4 -22.18,109.31 3.96,237.63 -63.78,325.55 0,0 -118.81,116.06 -177.43,76.46 53.07,-90.71 36.82,-294.66 3.96,-283.57z"/>
  <path class="fil11" d="M3658.04 10865.83c-73.66,24.94 -72.87,37.23 -123.57,81.18 -4.37,-65.74 -29.3,-145.33 20.98,-252.3 23.7,-42.58 60.54,-76.35 104.99,-96.25 44.49,-19.93 94.19,-24.9 141.76,-14.23 3.68,0.69 7.44,0.6 11.05,-0.29 3.64,-0.89 7.03,-2.53 9.95,-4.87 3.26,-2.5 5.93,-5.74 7.76,-9.45 1.84,-3.74 2.79,-7.78 2.79,-11.94 0,-4.12 -0.95,-8.2 -2.79,-11.91 -1.83,-3.7 -4.5,-6.97 -7.76,-9.47 -31.37,-20.62 -67.61,-32.63 -105.09,-34.79 -37.48,-2.16 -74.87,5.6 -108.4,22.52 32.86,-83.99 83.55,-180.63 158.41,-232.11 79.21,-56.62 254.68,-37.23 322.41,29.72 3.08,2.62 7.01,4.08 11.09,4.08 4.06,0 7.99,-1.46 11.09,-4.08 4.25,-2.92 7.16,-7.35 8.14,-12.43 0.96,-5.03 -0.12,-10.26 -3.01,-14.5 -21.83,-32.83 -51.17,-59.95 -85.55,-79.21 -19.54,-11.85 -41.85,-18.41 -64.66,-19.02 -22.84,-0.62 -45.47,4.69 -65.65,15.44 25.35,-106.93 249.91,-198.01 246.75,-185.76 75.25,15.47 138.61,87.93 166.33,123.99 4.98,6.33 12.11,10.55 20.03,11.88 7.92,1.33 16.02,-0.38 22.78,-4.75 8.97,-5.29 15.52,-13.91 18.19,-24.02 2.66,-10.07 1.26,-20.81 -3.93,-29.84 -28.33,-46.57 -67.62,-85.45 -114.48,-113.27 26.93,-35.64 84.34,-34.06 125.94,-33.27 132.28,2.37 219.41,106.93 309.33,189.31 27.57,109.37 25.22,224.13 -6.72,332.29 -25.1,79.75 -77.21,148.22 -147.36,193.68 -9.09,-75.24 -22.18,-158.41 -32.07,-237.65 -0.41,-3.39 -1.45,-6.66 -3.14,-9.63 -1.68,-2.98 -3.89,-5.62 -6.59,-7.7 -2.69,-2.1 -5.8,-3.65 -9.06,-4.54 -3.29,-0.91 -6.74,-1.14 -10.13,-0.69 -7.58,1.4 -14.45,5.42 -19.36,11.34 -4.91,5.93 -7.6,13.41 -7.57,21.14 2.79,101.39 17.83,179.8 18.63,283.98 -52.7,56.23 -237.66,145.74 -230.12,129.52 2.75,-89.54 26.14,-240.42 0,-324.79 -1.04,-2.91 -2.73,-5.57 -4.89,-7.78 -2.18,-2.19 -4.81,-3.9 -7.72,-5.01 -2.89,-1.08 -5.99,-1.52 -9.1,-1.31 -3.07,0.23 -6.08,1.11 -8.8,2.63 -4.5,2.41 -8.2,6.11 -10.68,10.61 -2.47,4.5 -3.54,9.6 -3.16,14.73 11.34,115.62 3.41,232.31 -23.39,345.35 -94.25,67.32 -166.34,116.06 -232.87,123.57 0,-72.88 0,-183.76 0,-268.52 0,-5.76 -2.31,-11.3 -6.39,-15.4 -4.06,-4.08 -9.6,-6.39 -15.4,-6.39 -5.77,0 -11.32,2.31 -15.4,6.39 -4.08,4.1 -6.37,9.64 -6.37,15.4 -22.18,109.31 3.96,237.63 -63.78,325.55 0,0 -118.81,116.06 -177.43,76.46 53.07,-90.71 36.82,-294.66 3.96,-283.57z"/>
  <path class="fil9" d="M3450.52 10790.94c143.84,226.78 254.16,473.15 327.54,731.5 247.91,895.11 256.63,1061.44 256.63,1061.44l168.75 -3.16c0,0 -417.08,-1615.94 -699.85,-1845.64 -282.77,-229.7 -53.07,55.86 -53.07,55.86z"/>
  <path class="fil10" d="M3450.52 10790.94c143.84,226.78 254.16,473.15 327.54,731.5 247.91,895.11 256.63,1061.44 256.63,1061.44l168.75 -3.16c0,0 -417.08,-1615.94 -699.85,-1845.64 -282.77,-229.7 -53.07,55.86 -53.07,55.86z"/>
  <path class="fil9" d="M3420.1 10730.76c72.87,-26.14 79.21,-16.23 146.92,-13.46 -37.23,-53.86 -67.33,-131.9 -173.47,-184.18 -45.47,-19.16 -96,-22.9 -143.78,-10.57 -47.82,12.29 -90.23,39.95 -120.79,78.7 -2.42,2.79 -5.4,5.04 -8.74,6.62 -3.34,1.56 -6.98,2.41 -10.67,2.5 -4.12,0.23 -8.24,-0.54 -12.02,-2.16 -3.8,-1.65 -7.16,-4.12 -9.83,-7.26 -2.68,-3.14 -4.6,-6.84 -5.62,-10.86 -1.02,-4 -1.1,-8.18 -0.25,-12.2 11.5,-35.61 32.2,-67.59 60.02,-92.61 27.84,-25.06 61.78,-42.29 98.4,-49.96 -79.2,-45.16 -177.82,-89.51 -267.34,-84.37 -97.43,5.54 -221.78,129.52 -233.66,223.77 -0.41,4.1 -2.35,7.89 -5.44,10.62 -3.09,2.72 -7.09,4.14 -11.21,4.02 -2.54,0.16 -5.1,-0.16 -7.52,-1.02 -2.42,-0.83 -4.65,-2.12 -6.56,-3.8 -1.9,-1.71 -3.46,-3.75 -4.59,-6.06 -1.11,-2.28 -1.77,-4.78 -1.92,-7.35 -3.76,-39.44 1.94,-79.2 16.63,-116.02 7.94,-21.47 21.3,-40.55 38.8,-55.31 17.48,-14.8 38.5,-24.81 61,-29.05 -86.34,-67.74 -316.84,0 -308.53,8.32 -49.5,59 -54.26,155.25 -53.07,200.78 -0.14,8.01 -3.2,15.69 -8.6,21.58 -5.39,5.93 -12.75,9.66 -20.7,10.51 -10.33,1.37 -20.79,-1.42 -29.1,-7.72 -8.3,-6.31 -13.78,-15.63 -15.27,-25.95 -6.69,-53.55 -0.17,-107.95 19.02,-158.41 -43.17,-11.09 -87.13,25.76 -118.81,52.27 -102.18,84.37 -104.96,220.23 -124.37,341 46.83,102.5 120.27,190.58 212.68,255.09 69.73,47.2 153.86,68.4 237.64,59.79 -39.6,-64.95 -81.58,-138.21 -121.99,-204.77 -1.84,-2.89 -3.09,-6.12 -3.65,-9.51 -0.56,-3.36 -0.44,-6.85 0.37,-10.17 0.81,-3.33 2.3,-6.47 4.36,-9.22 2.06,-2.73 4.66,-5.04 7.64,-6.75 6.56,-3.29 14.06,-4.27 21.26,-2.75 7.2,1.52 13.66,5.41 18.35,11.09 61,81.2 98.23,152.08 162.39,234.07 76.43,11.09 277.24,-32.88 260.61,-41.97 -57.83,-68.12 -169.91,-171.5 -200.41,-255.09 -1.1,-2.89 -1.53,-5.95 -1.28,-9.03 0.25,-3.08 1.19,-6.05 2.75,-8.72 1.56,-2.66 3.69,-4.93 6.25,-6.68 2.55,-1.71 5.46,-2.85 8.51,-3.29 4.98,-0.98 10.15,-0.5 14.86,1.39 4.72,1.9 8.78,5.14 11.68,9.32 63.07,97.58 141.9,184.05 233.28,255.84 115.65,-5.54 202.78,-12.67 259.42,-47.9l-166.74 -210.73c-16.64,-20.97 11.88,-45.53 32.87,-28.51 85.55,72.08 144.95,188.93 252.3,215.47 0,0 164.76,17.02 186.52,-50.72 -97.01,-36.81 -211.1,-206.73 -178.59,-218.61z"/>
  <path class="fil8" d="M3420.1 10730.76c72.87,-26.14 79.21,-16.23 146.92,-13.46 -37.23,-53.86 -67.33,-131.9 -173.47,-184.18 -45.47,-19.16 -96,-22.9 -143.78,-10.57 -47.82,12.29 -90.23,39.95 -120.79,78.7 -2.42,2.79 -5.4,5.04 -8.74,6.62 -3.34,1.56 -6.98,2.41 -10.67,2.5 -4.12,0.23 -8.24,-0.54 -12.02,-2.16 -3.8,-1.65 -7.16,-4.12 -9.83,-7.26 -2.68,-3.14 -4.6,-6.84 -5.62,-10.86 -1.02,-4 -1.1,-8.18 -0.25,-12.2 11.5,-35.61 32.2,-67.59 60.02,-92.61 27.84,-25.06 61.78,-42.29 98.4,-49.96 -79.2,-45.16 -177.82,-89.51 -267.34,-84.37 -97.43,5.54 -221.78,129.52 -233.66,223.77 -0.41,4.1 -2.35,7.89 -5.44,10.62 -3.09,2.72 -7.09,4.14 -11.21,4.02 -2.54,0.16 -5.1,-0.16 -7.52,-1.02 -2.42,-0.83 -4.65,-2.12 -6.56,-3.8 -1.9,-1.71 -3.46,-3.75 -4.59,-6.06 -1.11,-2.28 -1.77,-4.78 -1.92,-7.35 -3.76,-39.44 1.94,-79.2 16.63,-116.02 7.94,-21.47 21.3,-40.55 38.8,-55.31 17.48,-14.8 38.5,-24.81 61,-29.05 -86.34,-67.74 -316.84,0 -308.53,8.32 -49.5,59 -54.26,155.25 -53.07,200.78 -0.14,8.01 -3.2,15.69 -8.6,21.58 -5.39,5.93 -12.75,9.66 -20.7,10.51 -10.33,1.37 -20.79,-1.42 -29.1,-7.72 -8.3,-6.31 -13.78,-15.63 -15.27,-25.95 -6.69,-53.55 -0.17,-107.95 19.02,-158.41 -43.17,-11.09 -87.13,25.76 -118.81,52.27 -102.18,84.37 -104.96,220.23 -124.37,341 46.83,102.5 120.27,190.58 212.68,255.09 69.73,47.2 153.86,68.4 237.64,59.79 -39.6,-64.95 -81.58,-138.21 -121.99,-204.77 -1.84,-2.89 -3.09,-6.12 -3.65,-9.51 -0.56,-3.36 -0.44,-6.85 0.37,-10.17 0.81,-3.33 2.3,-6.47 4.36,-9.22 2.06,-2.73 4.66,-5.04 7.64,-6.75 6.56,-3.29 14.06,-4.27 21.26,-2.75 7.2,1.52 13.66,5.41 18.35,11.09 61,81.2 98.23,152.08 162.39,234.07 76.43,11.09 277.24,-32.88 260.61,-41.97 -57.83,-68.12 -169.91,-171.5 -200.41,-255.09 -1.1,-2.89 -1.53,-5.95 -1.28,-9.03 0.25,-3.08 1.19,-6.05 2.75,-8.72 1.56,-2.66 3.69,-4.93 6.25,-6.68 2.55,-1.71 5.46,-2.85 8.51,-3.29 4.98,-0.98 10.15,-0.5 14.86,1.39 4.72,1.9 8.78,5.14 11.68,9.32 63.07,97.58 141.9,184.05 233.28,255.84 115.65,-5.54 202.78,-12.67 259.42,-47.9l-166.74 -210.73c-16.64,-20.97 11.88,-45.53 32.87,-28.51 85.55,72.08 144.95,188.93 252.3,215.47 0,0 164.76,17.02 186.52,-50.72 -97.01,-36.81 -211.1,-206.73 -178.59,-218.61z"/>
  <path class="fil9" d="M3488.95 11099.12c41.98,-97.43 58.21,-93.47 122.78,-154.46 -86.74,-21.77 -190.51,-75.25 -339.04,-29.3 -131.48,49.52 -190.49,183.76 -176.64,322.79 0.46,5.03 -0.17,10.11 -1.81,14.85 -1.63,4.79 -4.25,9.16 -7.69,12.87 -3.84,4.05 -8.59,7.12 -13.84,8.99 -5.26,1.87 -10.87,2.44 -16.41,1.71 -5.53,-0.73 -10.8,-2.75 -15.39,-5.93 -4.6,-3.16 -8.36,-7.38 -11,-12.29 -24.13,-47.18 -35.96,-99.71 -34.36,-152.69 1.58,-52.98 16.54,-104.68 43.47,-150.31 -116.05,26.93 -251.51,75.25 -328.73,165.55 -84.76,99.01 -79.21,348.51 0,459.43 3.66,4.47 5.68,10.05 5.68,15.84 0,5.77 -2.01,11.38 -5.68,15.84 -2.37,2.5 -5.23,4.5 -8.39,5.86 -3.16,1.37 -6.57,2.06 -10.02,2.06 -3.45,0 -6.86,-0.69 -10.03,-2.06 -3.16,-1.35 -6.01,-3.35 -8.38,-5.86 -42.38,-38.4 -75.67,-85.76 -97.44,-138.64 -13.63,-29.09 -19.82,-61.08 -18.02,-93.19 1.8,-32.06 11.53,-63.17 28.32,-90.58 -145.35,10.3 -292.29,304.57 -277.24,302.6 11.48,109.31 100.6,215.45 145.76,262.59 7.7,8.2 12.35,18.85 13.14,30.1 0.8,11.24 -2.3,22.43 -8.79,31.67 -4.07,5.71 -9.33,10.47 -15.4,13.97 -6.07,3.48 -12.84,5.64 -19.81,6.33 -6.98,0.67 -14.02,-0.16 -20.66,-2.43 -6.63,-2.29 -12.71,-5.93 -17.79,-10.74 -47.92,-46.35 -120.8,-124.39 -137.43,-187.34 -50.7,29.69 -55.45,110.51 -59.42,169.12 -12.27,186.52 118.83,333.09 216.25,478.41 138.28,64.32 291.78,88.74 443.2,70.53 110.14,-16.73 209.52,-75.5 277.24,-163.99l0 -1.96c-99.41,-30.88 -209.52,-68.53 -310.91,-100.22 -9.39,-2.95 -17.35,-9.28 -22.33,-17.77 -4.98,-8.49 -6.62,-18.54 -4.6,-28.16 2.29,-9.97 8.35,-18.69 16.91,-24.3 8.56,-5.62 18.97,-7.7 29.04,-5.81 135.05,27.35 237.63,66.54 377.06,92.3 81.16,-60.99 222.57,-297.44 199.98,-292.69 -118.81,-17.05 -323.56,-19.42 -432.87,-79.21 -3.8,-2.16 -7.12,-5.01 -9.8,-8.45 -2.67,-3.46 -4.61,-7.42 -5.71,-11.6 -1.11,-4.22 -1.37,-8.62 -0.74,-12.92 0.62,-4.31 2.11,-8.47 4.37,-12.2 3.64,-5.74 9.02,-10.17 15.36,-12.67 6.33,-2.5 13.3,-2.92 19.88,-1.17 151.56,42.87 309.49,58.83 466.57,47.14 100.98,-116.47 174.64,-206.36 192.87,-297.86l-356.44 -63.78c-7.57,-1.1 -14.42,-5.01 -19.27,-10.9 -4.87,-5.93 -7.35,-13.4 -6.99,-21.04 0.31,-7.63 3.48,-14.86 8.84,-20.31 5.39,-5.41 12.57,-8.68 20.18,-9.12 148.94,-5.16 316.86,61.79 442.01,-12.67 0,0 168.71,-138.62 123.57,-231.32 -131.48,59.81 -401.99,-11.09 -383.37,-54.65z"/>
  <path class="fil9" d="M3562.29 11231.77c0,0 328.75,478.86 417.08,931.55 88.3,452.68 100.18,539.81 100.18,539.81l198.05 2c0,0 -356.46,-1267.39 -661.82,-1539.48 -305.37,-272.1 -53.49,66.12 -53.49,66.12z"/>
  <path class="fil12" d="M3562.29 11231.77c0,0 328.75,478.86 417.08,931.55 88.3,452.68 100.18,539.81 100.18,539.81l198.05 2c0,0 -356.46,-1267.39 -661.82,-1539.48 -305.37,-272.1 -53.49,66.12 -53.49,66.12z"/>
  <path class="fil7" d="M3488.95 11099.12c41.98,-97.43 58.21,-93.47 122.78,-154.46 -86.74,-21.77 -190.51,-75.25 -339.04,-29.3 -131.48,49.52 -190.49,183.76 -176.64,322.79 0.46,5.03 -0.17,10.11 -1.81,14.85 -1.63,4.79 -4.25,9.16 -7.69,12.87 -3.84,4.05 -8.59,7.12 -13.84,8.99 -5.26,1.87 -10.87,2.44 -16.41,1.71 -5.53,-0.73 -10.8,-2.75 -15.39,-5.93 -4.6,-3.16 -8.36,-7.38 -11,-12.29 -24.13,-47.18 -35.96,-99.71 -34.36,-152.69 1.58,-52.98 16.54,-104.68 43.47,-150.31 -116.05,26.93 -251.51,75.25 -328.73,165.55 -84.76,99.01 -79.21,348.51 0,459.43 3.66,4.47 5.68,10.05 5.68,15.84 0,5.77 -2.01,11.38 -5.68,15.84 -2.37,2.5 -5.23,4.5 -8.39,5.86 -3.16,1.37 -6.57,2.06 -10.02,2.06 -3.45,0 -6.86,-0.69 -10.03,-2.06 -3.16,-1.35 -6.01,-3.35 -8.38,-5.86 -42.38,-38.4 -75.67,-85.76 -97.44,-138.64 -13.63,-29.09 -19.82,-61.08 -18.02,-93.19 1.8,-32.06 11.53,-63.17 28.32,-90.58 -145.35,10.3 -292.29,304.57 -277.24,302.6 11.48,109.31 100.6,215.45 145.76,262.59 7.7,8.2 12.35,18.85 13.14,30.1 0.8,11.24 -2.3,22.43 -8.79,31.67 -4.07,5.71 -9.33,10.47 -15.4,13.97 -6.07,3.48 -12.84,5.64 -19.81,6.33 -6.98,0.67 -14.02,-0.16 -20.66,-2.43 -6.63,-2.29 -12.71,-5.93 -17.79,-10.74 -47.92,-46.35 -120.8,-124.39 -137.43,-187.34 -50.7,29.69 -55.45,110.51 -59.42,169.12 -12.27,186.52 118.83,333.09 216.25,478.41 138.28,64.32 291.78,88.74 443.2,70.53 110.14,-16.73 209.52,-75.5 277.24,-163.99l0 -1.96c-99.41,-30.88 -209.52,-68.53 -310.91,-100.22 -9.39,-2.95 -17.35,-9.28 -22.33,-17.77 -4.98,-8.49 -6.62,-18.54 -4.6,-28.16 2.29,-9.97 8.35,-18.69 16.91,-24.3 8.56,-5.62 18.97,-7.7 29.04,-5.81 135.05,27.35 237.63,66.54 377.06,92.3 81.16,-60.99 222.57,-297.44 199.98,-292.69 -118.81,-17.05 -323.56,-19.42 -432.87,-79.21 -3.8,-2.16 -7.12,-5.01 -9.8,-8.45 -2.67,-3.46 -4.61,-7.42 -5.71,-11.6 -1.11,-4.22 -1.37,-8.62 -0.74,-12.92 0.62,-4.31 2.11,-8.47 4.37,-12.2 3.64,-5.74 9.02,-10.17 15.36,-12.67 6.33,-2.5 13.3,-2.92 19.88,-1.17 151.56,42.87 309.49,58.83 466.57,47.14 100.98,-116.47 174.64,-206.36 192.87,-297.86l-356.44 -63.78c-7.57,-1.1 -14.42,-5.01 -19.27,-10.9 -4.87,-5.93 -7.35,-13.4 -6.99,-21.04 0.31,-7.63 3.48,-14.86 8.84,-20.31 5.39,-5.41 12.57,-8.68 20.18,-9.12 148.94,-5.16 316.86,61.79 442.01,-12.67 0,0 168.71,-138.62 123.57,-231.32 -131.48,59.81 -401.99,-11.09 -383.37,-54.65z"/>
  <path class="fil9" d="M2211.97 13539.99c-51.25,-1.69 -100.24,-21.58 -138.13,-56.15 -37.9,-34.56 -62.22,-81.49 -68.62,-132.37 -5.51,-51.3 6.8,-102.91 34.86,-146.19 28.06,-43.28 70.15,-75.56 119.22,-91.46 -83.94,-27.29 -157.19,-80.25 -209.43,-151.38 -52.22,-71.17 -80.79,-156.93 -81.67,-245.19 -0.87,-88.28 25.99,-174.58 76.79,-246.75 50.81,-72.17 122.99,-126.57 206.37,-155.54 31.52,-12.38 65.69,-16.5 99.26,-11.9 33.57,4.56 65.38,17.67 92.43,38.08 51.1,45.14 58.22,145.33 0,181.76 -23.49,-80.66 -20.14,-166.78 9.58,-245.35 29.72,-78.58 84.18,-145.36 155.18,-190.29 71.88,-38.59 155.12,-50.41 234.9,-33.36 79.78,17.04 150.93,61.84 200.77,126.42 -23.55,-35.59 -36.12,-77.31 -36.12,-119.99 0,-42.71 12.56,-84.43 36.12,-120.02 23.37,-33.96 57.12,-59.39 96.18,-72.54 39.06,-13.12 81.33,-13.24 120.47,-0.32 9.6,-53.8 39.1,-101.99 82.6,-135 43.53,-33.01 97.89,-48.47 152.26,-43.24 53.84,11.94 101.45,43.12 133.9,87.67 32.44,44.57 47.52,99.45 42.35,154.32 12.26,-93.46 158.41,-118.8 198.03,-37.6 58.6,-16.63 -17.81,13.84 -17.81,13.84 31.61,-62.32 82.47,-112.85 145.01,-144.09 62.54,-31.24 133.48,-41.54 202.33,-29.37 68.78,17.3 130.54,55.42 176.82,109.15 46.33,53.73 74.87,120.47 81.78,191.08 47.59,-34.85 104.68,-54.34 163.61,-55.89 58.96,-1.56 116.98,14.88 166.31,47.17 49.24,35.4 87.67,83.74 111.09,139.66 23.45,55.96 30.92,117.27 21.6,177.18 27.31,-20 58.46,-34.06 91.53,-41.31 33.04,-7.23 67.23,-7.48 100.37,-0.73 33.17,6.74 64.53,20.33 92.13,39.95 27.57,19.58 50.76,44.7 68.05,73.79 69.32,122.78 15.84,303.37 -107.31,361.98 43.24,5.1 83.04,26.14 111.56,59.06 28.55,32.88 43.76,75.25 42.64,118.78 -1.08,43.53 -18.41,85.1 -48.53,116.53 -30.14,31.43 -70.94,50.47 -114.38,53.4 43.6,3.35 84.66,21.73 116.21,51.98 31.59,30.26 51.67,70.53 56.84,113.98 10.3,88.71 -48.32,228.91 -130.29,252.26l-2886.89 -1.96z"/>
  <path class="fil12" d="M2211.97 13540.01c-51.25,-1.68 -100.24,-21.58 -138.13,-56.14 -37.9,-34.57 -62.22,-81.49 -68.62,-132.37 -5.51,-51.3 6.8,-102.91 34.86,-146.19 28.06,-43.29 70.15,-75.57 119.22,-91.47 -83.94,-27.28 -157.19,-80.25 -209.43,-151.41 -52.22,-71.13 -80.79,-156.89 -81.67,-245.17 -0.87,-88.27 25.99,-174.57 76.79,-246.74 50.81,-72.18 122.99,-126.58 206.37,-155.54 31.52,-12.38 65.69,-16.5 99.26,-11.91 33.57,4.56 65.38,17.69 92.43,38.06 51.1,45.18 58.22,145.36 0,181.8 -23.49,-80.67 -20.14,-166.78 9.58,-245.36 29.72,-78.57 84.18,-145.36 155.18,-190.28 71.88,-38.59 155.12,-50.41 234.9,-33.37 79.78,17.05 150.93,61.85 200.77,126.42 -23.55,-35.58 -36.12,-77.31 -36.12,-119.97 0,-42.71 12.56,-84.45 36.12,-120.02 23.37,-33.96 57.12,-59.41 96.18,-72.55 39.06,-13.11 81.33,-13.24 120.47,-0.31 9.6,-53.8 39.1,-101.99 82.6,-135 43.53,-33.01 97.89,-48.47 152.26,-43.25 53.84,11.95 101.45,43.12 133.9,87.67 32.44,44.58 47.52,99.46 42.35,154.33 12.26,-93.46 158.41,-118.81 198.03,-37.6 58.6,-16.64 -17.81,13.84 -17.81,13.84 31.61,-62.33 82.47,-112.86 145.01,-144.09 62.54,-31.24 133.48,-41.54 202.33,-29.37 68.78,17.29 130.54,55.41 176.82,109.15 46.33,53.73 74.87,120.45 81.78,191.08 47.59,-34.86 104.68,-54.34 163.61,-55.9 58.96,-1.54 116.98,14.9 166.31,47.14 49.24,35.43 87.67,83.78 111.09,139.7 23.45,55.96 30.92,117.26 21.6,177.17 27.31,-19.99 58.46,-34.06 91.53,-41.31 33.04,-7.22 67.23,-7.47 100.37,-0.73 33.17,6.75 64.53,20.35 92.13,39.96 27.57,19.58 50.76,44.7 68.05,73.79 69.32,122.78 15.84,303.37 -107.31,361.98 43.24,5.1 83.04,26.13 111.56,59.05 28.55,32.89 43.76,75.25 42.64,118.79 -1.08,43.53 -18.41,85.09 -48.53,116.53 -30.14,31.43 -70.94,50.47 -114.38,53.38 43.6,3.36 84.66,21.73 116.21,51.99 31.59,30.26 51.67,70.53 56.84,113.94 10.3,88.74 -48.32,228.93 -130.29,252.28l-2886.89 -1.96z"/>
  <path class="fil9" d="M3731.67 13262.44c19.83,-14.76 42.43,-25.37 66.47,-31.15 24.02,-5.8 48.98,-6.65 73.35,-2.53 24.43,4.33 47.08,15.65 65.24,32.57 18.12,16.94 30.95,38.77 36.94,62.88 4.85,24.21 0.57,49.4 -11.97,70.66 -12.59,21.29 -32.57,37.16 -56.15,44.57 -58.23,13.88 -118.8,-34.06 -176.24,-25.72 -20.82,5.01 -41.32,11.22 -61.41,18.6 -85.55,22.97 -170.29,-32.86 -241.17,-85.92 -26.01,-17.05 -48.7,-38.65 -66.95,-63.78 -9.03,-12.8 -14.42,-27.79 -15.67,-43.38 -1.27,-15.62 1.7,-31.27 8.55,-45.34 21.77,-37.23 73.29,-42.77 116.43,-39.6 87.01,10.11 169.35,44.58 237.63,99.43 -2.37,-13.47 -4.33,-27.35 -6.72,-39.64l31.69 48.34z"/>
  <path class="fil9" d="M2374.09 12834.27c14.44,-2.12 29.18,-0.22 42.59,5.52 13.42,5.74 25,15.08 33.46,26.96 8.36,18.23 9.5,38.98 3.17,58.02 -6.31,19.04 -19.63,34.94 -37.24,44.58 -36.04,17.54 -76,25.59 -116.05,23.34 -39.6,0 -91.88,-4.33 -106.93,-42.35 -4.56,-14.57 -4.2,-30.19 1.03,-44.51 5.22,-14.32 15.03,-26.52 27.89,-34.73 25.55,-15.63 54.21,-25.47 83.95,-28.9 0,0 39.22,-4.75 68.12,-7.93z"/>
  <path class="fil9" d="M4303.65 12554.54c32.03,13.82 60.36,34.95 82.73,61.72 22.37,26.74 38.1,58.4 45.99,92.36 3.56,9.92 4.1,20.66 1.56,30.86 -2.54,10.24 -8.05,19.46 -15.81,26.58 -14.03,5.35 -29.53,5.35 -43.56,0l-184.18 -43.98c30.01,9.6 58.05,24.5 82.79,43.98 12.36,9.92 21.83,22.97 27.41,37.83 5.57,14.82 7.03,30.89 4.27,46.51 -6.02,17.61 -17.65,32.76 -33.11,43.12 -15.46,10.39 -33.86,15.4 -52.44,14.32 -37.07,-2.54 -72.42,-16.35 -101.39,-39.6 -17.27,-9.8 -32.03,-23.45 -43.14,-39.86 -11.12,-16.41 -18.32,-35.17 -21.04,-54.81 0,-39.6 49.11,-76.04 79.24,-50.69 -70.52,-19.02 -137.43,-49.53 -198.05,-90.3 -22.81,-13.4 -42.43,-31.65 -57.41,-53.48 -7.45,-10.97 -11.88,-23.64 -12.93,-36.85 -1.04,-13.18 1.37,-26.43 6.97,-38.4 63.37,-114.47 142.99,53.48 181.8,68.53 73.67,28.9 156.83,-56.65 250.3,-17.84z"/>
  <path class="fil9" d="M4195.67 13145.49c-4.81,13.69 -5.51,28.52 -1.99,42.58 3.51,14.11 11.09,26.84 21.79,36.63 5.51,4.47 11.94,7.6 18.82,9.28 6.87,1.65 14.03,1.77 20.97,0.32 6.95,-1.42 13.47,-4.41 19.11,-8.66 5.63,-4.24 10.29,-9.72 13.59,-16 -52.47,10.71 -100.28,37.58 -136.66,76.87 -31.3,42.77 -23.76,118.81 26.93,134.24 16.35,2.95 33.11,2.57 49.3,-1.1 16.19,-3.68 31.49,-10.59 44.95,-20.29 82.48,-44.82 161.05,-96.5 234.87,-154.45 -22.58,51.9 31.69,110.89 88.34,115.64 57.28,-1.2 112.72,-20.46 158.41,-55.04 59.41,-36.06 127.52,-91.5 112.06,-158.44 -13.84,-59 -89.09,-85.14 -147.33,-67.72 -56.46,22.81 -105.72,60.42 -142.57,108.9 32.09,-46.32 -13.05,-115.23 -68.91,-122.76 -27.28,-1.46 -54.46,3.76 -79.24,15.23 -24.81,11.47 -46.39,28.8 -62.96,50.51 62.99,-34.86 79.21,-125.15 -7.51,-135.83 -55.44,-7.92 -148.94,104.14 -161.99,150.08z"/>
  <path class="fil9" d="M3751.16 12922.13c28.01,13.18 52.22,33.24 70.38,58.3 18.15,25.09 29.61,54.37 33.39,85.07 15.84,81.58 -5.54,179.42 -93.87,208.72 -24.72,7.54 -50.98,8.37 -76.11,2.38 -25.12,-5.99 -48.22,-18.57 -66.84,-36.44 -90.71,-85.55 -58.23,-224.57 24.93,-298.61 15.15,-11.72 32.86,-19.58 51.67,-22.97 18.86,-3.36 38.21,-2.16 56.46,3.54z"/>
  <path class="fil9" d="M2851.69 13173.66c17.79,-1.26 35.64,2 51.84,9.48 16.2,7.47 30.25,18.94 40.83,33.29 17.64,16.67 28.56,39.23 30.68,63.37 2.11,24.18 -4.72,48.28 -19.2,67.74 -10.25,10.86 -23.23,18.75 -37.59,22.87 -14.36,4.12 -29.55,4.27 -44,0.5 -15.46,-5.22 -29.69,-13.56 -41.78,-24.49 -12.09,-10.96 -21.81,-24.26 -28.54,-39.12 -6.72,-14.86 -10.31,-30.95 -10.55,-47.28 -0.24,-16.32 2.89,-32.51 9.18,-47.55 4.54,-9.89 11.35,-18.54 19.89,-25.29 8.54,-6.74 18.55,-11.38 29.22,-13.53z"/>
  <path class="fil9" d="M2780.72 12488.51c17.78,-13.52 38.69,-22.33 60.78,-25.57 22.09,-3.26 44.64,-0.89 65.56,6.95 57.43,17.04 113.27,62.99 102.58,129.52 -3.54,18.18 -11.87,35.1 -24.12,49.05 -12.25,13.9 -27.98,24.33 -45.59,30.15 -85.15,29.69 -163.17,-37.64 -182.97,-115.64 -2.14,-13.4 -1.1,-27.12 3.02,-40.08 4.13,-12.92 11.23,-24.72 20.74,-34.38z"/>
  <path class="fil9" d="M3089.24 12180.36c20.66,8.55 38.77,22.24 52.64,39.79 13.87,17.52 23.02,38.34 26.56,60.39 13.88,58.23 0,129.52 -61.37,153.29 -17.55,6.27 -36.46,7.76 -54.78,4.27 -18.31,-3.48 -35.36,-11.78 -49.38,-24.08 -68.12,-59.02 -49.11,-160.41 8.72,-216.65 10.62,-8.84 23.23,-15.02 36.74,-17.96 13.51,-2.98 27.53,-2.67 40.88,0.95z"/>
  <path class="fil9" d="M2290.11 13080.17c-1.69,-22.31 2.25,-44.71 11.45,-65.12 9.21,-20.43 23.39,-38.2 41.23,-51.71 45.16,-39.6 114.07,-60.99 164.37,-16.25 13.76,12.67 23.82,28.84 29.11,46.74 5.3,17.93 5.64,36.97 0.99,55.06 -20.99,87.55 -118.83,118.81 -198.03,91.88 -12.36,-5.58 -23.23,-13.94 -31.76,-24.45 -8.53,-10.53 -14.48,-22.91 -17.36,-36.15z"/>
  <path class="fil9" d="M3183.65 12744.29l-20.99 18.23c13.23,-16.67 31.33,-28.81 51.79,-34.73 20.43,-5.96 42.23,-5.35 62.32,1.64 20.12,7.01 37.54,20.09 49.87,37.46 12.32,17.36 18.94,38.12 18.94,59.41 0,21.29 -6.62,42.04 -18.94,59.41 -12.33,17.35 -29.76,30.44 -49.87,37.44 -20.08,7.03 -41.89,7.6 -62.32,1.68 -20.46,-5.95 -38.56,-18.09 -51.79,-34.75 -29.54,14.35 -62.9,18.85 -95.19,12.86 -32.28,-5.99 -61.8,-22.15 -84.23,-46.13 -10.01,-12.68 -17.34,-27.22 -21.54,-42.81 -4.19,-15.59 -5.17,-31.88 -2.87,-47.84 2.3,-15.97 7.82,-31.3 16.25,-45.08 8.42,-13.76 19.55,-25.66 32.71,-34.98 57.04,-32.09 143.39,16.21 137.43,81.58l24.55 -27.72 13.88 4.33z"/>
  <path class="fil9" d="M2534.86 12771.26c16.23,54.65 -7.14,125.15 -61.79,140.61 -54.65,15.46 -107.74,-29.3 -140.2,-75.66 -32.49,-46.32 -59.81,-97.81 -35.65,-144.16 83.18,-158.41 222.19,24.97 237.64,79.21z"/>
  <path class="fil9" d="M4771.32 12860.37c-53.06,20.23 -125.52,2.79 -144.94,-50.69 -19.4,-53.48 20.6,-109.71 64.57,-145.36 43.95,-35.64 93.06,-68.11 140.2,-47.9 163.96,70.87 -6.33,223.77 -59.83,243.95z"/>
  <path class="fil9" d="M4020.91 12271.86c-32.86,46.32 -102.56,71.67 -148.5,39.6 -45.95,-32.09 -43.56,-102.59 -26.93,-158.41 16.63,-55.85 39.6,-108.13 90.3,-118.84 175.84,-30.49 118.39,191.3 85.13,237.65z"/>
  <path class="fil9" d="M3852.99 12244.11c3.54,21.61 -1.27,43.79 -13.47,61.98 -12.23,18.18 -30.92,31.01 -52.27,35.86 -43.18,4.33 -79.24,-36.06 -95.46,-75.67 -16.25,-39.6 -32.88,-82.37 -8.72,-113.26 83.97,-108.14 164.76,47.52 169.92,91.08z"/>
  <path class="fil9" d="M4247.28 12417.55c-20.21,8.36 -42.83,8.74 -63.3,1.01 -20.44,-7.72 -37.19,-22.97 -46.8,-42.61 -13.88,-39.61 17.81,-83.55 52.28,-110.48 34.44,-26.93 72.48,-50.32 108.13,-33.68 124.74,57.44 -9.12,171.5 -50.32,185.76z"/>
  <path class="fil9" d="M3525 12568.48c6.02,-10.99 14.2,-20.66 24.02,-28.45 9.82,-7.76 21.14,-13.5 33.21,-16.81 12.07,-3.33 24.7,-4.19 37.13,-2.54 12.42,1.64 24.39,5.8 35.16,12.17 20.69,14.7 35.88,35.92 43.03,60.29 7.2,24.33 6,50.38 -3.41,73.98 -10.53,23.31 -27.06,43.41 -47.97,58.17 -20.88,14.76 -45.34,23.66 -70.84,25.78 -62.58,7.14 -135.85,-43.18 -121.99,-104.55 -14.44,16.86 -32.88,29.82 -53.63,37.71 -20.79,7.88 -43.18,10.45 -65.17,7.44 -44.14,-6.55 -86.37,-22.33 -123.99,-46.34 -52.27,-30.1 -107.72,-76.84 -102.18,-136.66 4.1,-23.95 16.19,-45.82 34.32,-62.01 18.13,-16.19 41.22,-25.72 65.49,-27.09 24.05,-0.98 48.07,2.81 70.63,11.18 22.55,8.36 43.24,21.14 60.86,37.52 28.93,24.55 52.69,55.06 83.58,76.45 14.79,11.78 32.48,19.39 51.23,22.02 18.73,2.66 37.83,0.25 55.32,-6.97l-4.79 8.71z"/>
  <polygon class="fil9" points="17375.32,5041.78 9709.59,5041.78 10729.05,2037.66 17375.32,2037.66 "/>
  <polygon class="fil7" points="17375.32,5041.78 9709.59,5041.78 10729.05,2037.66 17375.32,2037.66 "/>
  <polygon class="fil8" points="16569.99,1996.04 11216.08,1996.04 11216.08,2669.73 16569.99,2669.73 "/>
  <polygon class="fil8" points="16248.85,2781.85 10894.91,2781.85 10894.91,3455.56 16248.85,3455.56 "/>
  <polygon class="fil8" points="15927.62,3567.6 10573.67,3567.6 10573.67,4241.31 15927.62,4241.31 "/>
  <polygon class="fil8" points="15606.04,4353.81 10252.09,4353.81 10252.09,5027.5 15606.04,5027.5 "/>
  <polygon class="fil9" points="17376.36,9639.95 6213.07,9639.95 8301.46,5018.34 17376.36,5018.34 "/>
  <polygon class="fil11" points="17376.3,9640.04 6213.01,9640.04 8301.44,5018.43 17376.3,5018.43 "/>
  <polygon class="fil8" points="15350.16,5115.07 9007.68,5115.07 9007.68,5788.78 15350.16,5788.78 "/>
  <polygon class="fil8" points="14983.52,5888.52 8641.02,5888.52 8641.02,6562.23 14983.52,6562.23 "/>
  <polygon class="fil8" points="14617.1,6662.06 8274.63,6662.06 8274.63,7335.77 14617.1,7335.77 "/>
  <polygon class="fil8" points="14250.34,7435.51 7907.86,7435.51 7907.86,8109.22 14250.34,8109.22 "/>
  <polygon class="fil8" points="13883.93,8208.99 7541.45,8208.99 7541.45,8882.7 13883.93,8882.7 "/>
  <polygon class="fil8" points="13517.61,8982.5 7175.13,8982.5 7175.13,9656.16 13517.61,9656.16 "/>
  <polygon class="fil9" points="17368.92,13537.22 2477.48,13537.22 4925.11,9012.26 17368.92,8915.62 "/>
  <polygon class="fil8" points="13411.02,8988.45 5599.55,8988.45 5599.55,9662.15 13411.02,9662.15 "/>
  <polygon class="fil8" points="12959.61,9761.96 5148.13,9761.96 5148.13,10435.67 12959.61,10435.67 "/>
  <polygon class="fil8" points="12508.05,10535.47 4696.59,10535.47 4696.59,11209.18 12508.05,11209.18 "/>
  <polygon class="fil8" points="12057.01,11308.95 4245.55,11308.95 4245.55,11982.66 12057.01,11982.66 "/>
  <polygon class="fil8" points="11605.4,12082.09 3793.93,12082.09 3793.93,12755.76 11605.4,12755.76 "/>
  <polygon class="fil8" points="11153.99,12855.6 3342.51,12855.6 3342.51,13529.27 11153.99,13529.27 "/>
  <path class="fil9" d="M14638.72 13118.98c-2,2.37 2.75,11.09 -2.79,18.21 -5.54,7.12 -12.26,9.51 -31.28,9.92 -14.31,-0.16 -28.61,-1.2 -42.8,-3.16 -240.38,-31.69 -660.22,-121.22 -781.02,-366.39 -172.3,-349.3 344.96,-229.7 323.99,-409.5 -21,-179.8 -606.39,-138.24 -673.3,-401.2 -52.69,-207.56 184.15,-177.84 288.73,-218.65 10.42,-2.95 19.96,-8.37 27.82,-15.81 7.89,-7.45 13.81,-16.7 17.33,-26.97 0.41,-3.93 0.41,-7.93 0,-11.88 2.75,-129.11 -453.51,-39.61 -549.74,-324.37 -64.95,-192.1 74.46,-160.41 158.41,-158.41 39.61,0 64.95,-2.38 55.45,-36.06 0,0 0,-3.17 0,-4.75 -41.98,-118.81 -438.85,-647.16 -229.33,-712.9 184.59,-58.21 489.16,356.46 653.9,507.75 13.28,12.23 27.28,23.6 41.98,34.06 4.97,3.9 10.26,7.35 15.84,10.3 138.62,75.66 252.3,-375.85 419.04,-188.93 147.71,165.57 -29.72,709.73 74.83,917.67 7.8,16.03 18.25,30.63 30.89,43.18 7.16,7.29 15.3,13.53 24.18,18.6 158.41,93.09 108.52,-169.89 314.07,-124.36 280.81,66.16 204.77,1048.36 -136.24,1443.65z"/>
  <path class="fil18" d="M14638.65 13118.98c-1.99,2.37 2.77,11.09 -2.78,18.21 -5.54,7.12 -12.26,9.51 -31.28,9.92 -14.32,-0.16 -28.61,-1.2 -42.8,-3.16 -240.38,-31.69 -660.22,-121.22 -781.03,-366.39 -172.29,-349.3 344.97,-229.7 324,-409.5 -21.02,-179.8 -606.39,-138.24 -673.3,-401.2 -52.69,-207.56 184.15,-177.84 288.72,-218.65 10.43,-2.95 19.96,-8.37 27.82,-15.81 7.89,-7.45 13.82,-16.7 17.34,-26.97 0.44,-3.93 0.44,-7.93 0,-11.88 2.75,-129.11 -453.52,-39.61 -549.74,-324.37 -64.95,-192.1 74.46,-160.41 158.41,-158.41 39.6,0 64.95,-2.38 55.44,-36.06 0,0 0,-3.17 0,-4.75 -41.97,-118.81 -438.84,-647.16 -229.32,-712.9 184.58,-58.21 489.16,356.46 653.9,507.75 13.28,12.23 27.28,23.6 41.98,34.06 4.97,3.9 10.26,7.35 15.84,10.3 138.61,75.66 252.28,-375.85 419.04,-188.93 147.7,165.57 -29.72,709.73 74.83,917.67 7.8,16.03 18.25,30.63 30.89,43.18 7.18,7.29 15.3,13.53 24.17,18.6 158.43,93.09 108.52,-169.89 314.09,-124.36 280.81,66.16 204.77,1048.36 -136.25,1443.65z"/>
  <path class="fil9" d="M14645.84 13365.31c2.1,-0.19 4.12,-0.79 5.95,-1.77 1.88,-0.98 3.5,-2.35 4.83,-3.96 1.33,-1.62 2.31,-3.48 2.91,-5.47 0.6,-2.04 0.79,-4.12 0.57,-6.21 -166.34,-1660.67 -1105.78,-2354.18 -1115.28,-2361.31 -1.71,-1.25 -3.65,-2.16 -5.71,-2.63 -2.05,-0.5 -4.18,-0.54 -6.26,-0.19 -2.06,0.38 -4.06,1.17 -5.81,2.35 -1.77,1.17 -3.26,2.69 -4.43,4.43 -1.21,1.71 -2.1,3.62 -2.56,5.64 -0.51,2.04 -0.57,4.16 -0.25,6.21 0.35,2.06 1.07,4.02 2.18,5.8 1.08,1.77 2.54,3.33 4.22,4.53 9.51,6.75 937.06,693.13 1101.84,2336.76 0.1,2.22 0.63,4.41 1.58,6.41 0.96,2.02 2.32,3.8 3.96,5.29 1.68,1.48 3.62,2.59 5.74,3.32 2.1,0.71 4.31,0.98 6.53,0.83z"/>
  <path class="fil9" d="M13431.08 11176.33c91.82,-14.96 185.44,-14.96 277.26,0 18.91,3.13 37.58,7.63 55.83,13.46 1.83,0.73 3.52,1.83 4.87,3.29 1.37,1.42 2.41,3.14 3.04,5.01 1.4,3.42 1.4,7.26 0,10.71 -1.08,3.02 -3.07,5.68 -5.66,7.58 -2.63,1.9 -5.74,2.98 -8.97,3.1l-5.96 0 -5.92 0c-117.2,-27.22 -238.93,-28.01 -356.48,-2.37 -2.31,0.44 -4.68,0.35 -6.93,-0.29 -2.28,-0.6 -4.37,-1.75 -6.12,-3.27l55.04 -37.22z"/>
  <path class="fil9" d="M13897.36 11001.6c35.64,132.43 52.05,269.28 48.73,406.36l0 2.38c-0.1,4.08 -1.74,8.01 -4.62,10.96 -2.85,2.95 -6.72,4.69 -10.84,4.89 -4.27,-0.19 -8.3,-2.06 -11.24,-5.14 -2.95,-3.1 -4.6,-7.22 -4.6,-11.51 0,-14.25 0,-28.51 0,-42.76 -1.02,-135.67 -21.41,-270.52 -60.6,-400.41l43.18 35.23z"/>
  <path class="fil9" d="M14221.23 11840.11c-0.1,4.16 -1.81,8.14 -4.75,11.09 -2.95,2.95 -6.91,4.66 -11.09,4.75 -2.13,0.17 -4.25,-0.12 -6.25,-0.89 -1.96,-0.75 -3.76,-1.93 -5.22,-3.48l-5.54 -5.13c-33.68,-29.72 -217.44,-178.26 -457.47,-97.85 -3.42,1.4 -7.26,1.4 -10.68,0 10.43,-2.95 20,-8.36 27.85,-15.81 7.86,-7.47 13.78,-16.69 17.29,-26.97 66.06,-14.23 134.31,-14.88 200.59,-1.96 66.32,12.96 129.33,39.23 185.19,77.21 22.4,14.03 43.47,30.07 62.95,47.93l2 0c3.01,2.92 4.85,6.87 5.14,11.09z"/>
  <path class="fil9" d="M14437.9 11783.79c-4.72,122.11 -29.75,242.57 -74.06,356.44l-1.98 4.37c-1.23,2.79 -3.2,5.16 -5.72,6.84 -2.54,1.69 -5.48,2.6 -8.53,2.67l-7.12 0c-3.81,-1.9 -6.75,-5.17 -8.21,-9.12 -1.48,-4 -1.39,-8.37 0.29,-12.26 4.95,-11.12 9.32,-22.5 13.05,-34.07 38.53,-115.01 59.25,-235.21 61.41,-356.46 7.95,15.46 18.37,29.53 30.88,41.6z"/>
  <path class="fil9" d="M14877.58 11617.13c-64.39,193.97 -94.42,397.68 -88.74,602.01l617.85 710.53c248.33,-198.05 548.16,-510.14 687.97,-918.88 44.45,-131.14 72.02,-267.43 81.99,-405.54 52.28,-621.02 -216.26,-1174.34 -216.26,-1174.34 0,0 -821.42,422.59 -1082.8,1186.22z"/>
  <path class="fil11" d="M14877.51 11617.17c-64.38,193.95 -94.41,397.68 -88.74,602.01l617.86 710.53c248.33,-198.06 548.14,-510.14 687.96,-918.88 44.46,-131.14 72.02,-267.43 82,-405.55 52.28,-621.02 -216.28,-1174.33 -216.28,-1174.33 0,0 -821.41,422.59 -1082.8,1186.22z"/>
  <path class="fil9" d="M15485.92 12779.5l494.7 571.49c297.44,-35.23 645.58,-125.15 947.78,-335.04 698.64,-484.79 887.16,-1421.88 887.16,-1421.88 0,0 -677.26,-109.31 -1306.99,151.31 -117.35,48.26 -229.26,108.8 -333.88,180.6 -336.25,231.28 -553.69,567.95 -688.76,853.51z"/>
  <path class="fil13" d="M15485.92 12779.5l494.7 571.49c297.44,-35.23 645.58,-125.15 947.78,-335.04 698.64,-484.79 887.16,-1421.88 887.16,-1421.88 0,0 -677.26,-109.31 -1306.99,151.31 -117.35,48.26 -229.26,108.8 -333.88,180.6 -336.25,231.28 -553.69,567.95 -688.76,853.51z"/>
  <path class="fil9" d="M15501.39 12829.84l-26.93 -28.93c316.86,-292.28 426.54,-784.98 272.88,-1225.41 -68.53,-198.01 -198.01,-341 -334.25,-493.45 -114.89,-128.36 -233.7,-261.01 -311.32,-426.97 -85.16,-181 -106.55,-356.46 -62.2,-511.3 12.26,-48.35 34.73,-93.53 65.87,-132.46 31.13,-38.94 70.27,-70.76 114.75,-93.31 29.15,-11.91 60.7,-16.86 92.13,-14.45 31.4,2.41 61.85,12.11 88.86,28.32 32.22,16.42 58.56,42.5 75.23,74.59 16.69,32.09 22.93,68.59 17.83,104.42 -5.16,38.44 -21.51,74.49 -47.01,103.7 -25.47,29.22 -59,50.32 -96.35,60.68 -26.27,3.14 -52.84,-2.19 -75.88,-15.24 -23,-13.02 -41.25,-33.11 -52.05,-57.25 -10.36,-22.72 -13.78,-47.99 -9.86,-72.65 3.96,-24.68 15.08,-47.61 32.03,-65.96l28.51 27.31c-11.38,12.57 -18.81,28.19 -21.45,44.95 -2.6,16.73 -0.22,33.9 6.81,49.34 7.01,15.87 18.69,29.24 33.46,38.37 14.76,9.12 31.97,13.56 49.3,12.71 29.55,-8.59 55.98,-25.6 76.04,-48.95 20.02,-23.35 32.86,-52.03 36.85,-82.54 4.24,-27.84 -0.5,-56.37 -13.63,-81.3 -13.11,-24.93 -33.86,-45.03 -59.24,-57.31 -21.75,-13.47 -46.35,-21.58 -71.84,-23.64 -25.49,-2.06 -51.1,1.96 -74.7,11.76 -39.23,19.99 -73.7,48.22 -101.01,82.72 -27.35,34.5 -46.93,74.52 -57.42,117.29 -52.69,182.17 3.56,363.18 59.79,483.17 75.66,160.82 192.47,291.11 305.37,417.45 133.06,148.53 270.51,302.58 341.79,506.96 161.99,462.2 50.69,960.04 -282.39,1267.39z"/>
  <path class="fil9" d="M15737.42 11551.77c-101.8,-112.89 -264.17,-200.43 -361.6,-195.27l-2.37 -39.6c110.1,-5.54 282.77,85.95 393.27,207.94l-29.3 26.93z"/>
  <path class="fil9" d="M15809.82 11658.25l-39.61 11.88c-13.11,-44.22 -16.73,-90.77 -10.57,-136.49 6.14,-45.74 21.89,-89.65 46.22,-128.85l33.65 21.39c-21.1,34.37 -34.67,72.83 -39.79,112.85 -5.1,39.98 -1.69,80.64 10.11,119.22z"/>
  <path class="fil9" d="M15228.75 10864.98c-101.89,-84.69 -210.35,-161.11 -324.37,-228.53l20.6 -33.68c115.64,68.78 225.81,146.38 329.51,232.08l-25.73 30.13z"/>
  <polygon class="fil9" points="15288.5,10767.05 15269.33,10899.51 15308.56,10905.18 15327.7,10772.69 "/>
  <path class="fil9" d="M15597.55 10226.53c-59,9.41 -119.39,4.08 -175.85,-15.44l13.09 -37.64c50.82,17.77 105.28,22.52 158.41,13.88l4.35 39.19z"/>
  <polygon class="fil9" points="15362.93,9801.08 15355.11,9952.98 15394.67,9955 15402.47,9803.14 "/>
  <path class="fil9" d="M15384.12 10429.3c12.3,-11.44 27.89,-18.66 44.52,-20.66 16.66,-2 33.52,1.37 48.15,9.57 32.48,22.18 34.07,68.53 29.72,107.34 -11.09,97.02 -57.81,375.06 -204.77,304.16 -139.03,-66.53 2.75,-335.05 82.37,-400.41z"/>
  <path class="fil9" d="M14992.91 10572.31c13.15,10.49 22.62,24.91 27.02,41.13 4.41,16.25 3.56,33.46 -2.47,49.17 -17.04,35.27 -62.99,43.97 -102.2,45.14 -97.43,3.17 -379.41,-2.75 -330.72,-158.41 45.98,-147.33 331.92,-46.35 408.37,22.97z"/>
  <path class="fil9" d="M15454.21 11189.31c-152.08,-130.69 -417.83,-162.38 -624.2,-74.87 -97.01,39.6 -69.29,196.06 -17,269.34 52.27,73.26 151.7,116.83 255.84,131.87 109.43,19.05 222.04,-2.34 316.86,-60.2 85.92,-59.78 142.19,-202.77 68.5,-266.14z"/>
  <path class="fil9" d="M16151.23 10991.3c-118.81,15.84 -241.61,41.56 -333.5,118.81 -91.88,77.21 -140.2,217.44 -79.2,319.2 22.74,36.34 57.56,63.53 98.31,76.77 40.77,13.24 84.9,11.72 124.67,-4.27 82.79,-32.09 140.61,-106.93 186.55,-182.97 33.55,-48.4 53.63,-104.86 58.2,-163.57 2,-59.81 3.17,-171.5 -55.04,-163.96z"/>
  <path class="fil9" d="M15382.5 9890.27c-32.6,-35.67 -54.33,-79.93 -62.57,-127.52 -3.96,-23.7 -1.42,-47.99 7.28,-70.36 8.72,-22.4 23.29,-42.02 42.21,-56.78 19.73,-13.71 44.03,-19.16 67.73,-15.14 23.7,3.99 44.87,17.1 59.04,36.52 13.21,24.21 20.43,51.2 21.06,78.77 0.6,27.59 -5.39,54.9 -17.52,79.64 -10.39,22.34 -26.93,41.25 -47.72,54.5 -20.75,13.28 -44.86,20.35 -69.51,20.37z"/>
  <path class="fil9" d="M15951.66 10239.99c-24.87,38.15 -59.72,68.72 -100.76,88.43 -41.03,19.7 -86.69,27.78 -131.99,23.31 -45.31,-4.43 -88.49,-21.26 -124.93,-48.57 -36.4,-27.31 -64.63,-64.1 -81.58,-106.32 25.93,-35.17 60.33,-63.12 100.06,-81.27 39.7,-18.15 83.36,-25.91 126.88,-22.52 44.77,5.07 87.57,21.16 124.65,46.8 37.04,25.63 67.14,60.04 87.67,100.14z"/>
  <path class="fil19" d="M15501.26 12829.8l-26.93 -28.92c316.86,-292.28 426.55,-784.99 272.89,-1225.41 -68.51,-198.03 -198.03,-341 -334.26,-493.47 -114.89,-128.35 -233.7,-261.01 -311.32,-426.96 -85.16,-181.01 -106.55,-356.48 -62.16,-511.31 12.23,-48.34 34.69,-93.5 65.84,-132.46 31.15,-38.94 70.27,-70.75 114.75,-93.31 29.18,-11.91 60.71,-16.86 92.13,-14.45 31.43,2.42 61.85,12.11 88.88,28.33 32.22,16.41 58.54,42.49 75.21,74.58 16.69,32.09 22.94,68.59 17.84,104.43 -5.17,38.43 -21.52,74.48 -47.02,103.7 -25.47,29.21 -58.99,50.31 -96.35,60.66 -26.26,3.14 -52.84,-2.18 -75.88,-15.23 -22.99,-13.03 -41.24,-33.11 -52.05,-57.25 -10.36,-22.72 -13.78,-48.01 -9.84,-72.65 3.95,-24.68 15.11,-47.62 32.02,-65.97l28.52 27.31c-11.38,12.57 -18.82,28.2 -21.46,44.95 -2.59,16.73 -0.22,33.9 6.81,49.34 7.01,15.87 18.69,29.24 33.46,38.37 14.76,9.12 31.97,13.56 49.34,12.71 29.53,-8.59 55.95,-25.6 76,-48.95 20.02,-23.35 32.86,-52.02 36.85,-82.53 4.29,-27.85 -0.5,-56.37 -13.62,-81.3 -13.12,-24.94 -33.88,-45.03 -59.25,-57.32 -21.73,-13.46 -46.35,-21.58 -71.82,-23.64 -25.51,-2.06 -51.11,1.96 -74.71,11.76 -39.23,20 -73.67,48.22 -101.01,82.72 -27.34,34.54 -46.92,74.52 -57.41,117.29 -52.69,182.18 3.54,363.18 59.78,483.17 75.67,160.82 192.52,291.11 305.37,417.46 133.08,148.52 270.51,302.57 341.79,506.96 161.99,462.19 50.7,960.03 -282.39,1267.38z"/>
  <path class="fil7" d="M15737.29 11551.7c-101.8,-112.89 -264.17,-200.4 -361.59,-195.26l-2.38 -39.6c110.1,-5.54 282.77,85.95 393.29,207.93l-29.31 26.93z"/>
  <path class="fil19" d="M15809.75 11658.25l-39.6 11.88c-13.11,-44.22 -16.73,-90.77 -10.59,-136.49 6.16,-45.74 21.9,-89.65 46.23,-128.85l33.65 21.39c-21.11,34.37 -34.67,72.83 -39.8,112.85 -5.1,39.98 -1.68,80.64 10.11,119.22z"/>
  <path class="fil7" d="M15228.75 10864.98c-101.89,-84.69 -210.35,-161.11 -324.37,-228.53l20.6 -33.68c115.64,68.78 225.81,146.38 329.51,232.08l-25.73 30.13z"/>
  <polygon class="fil7" points="15288.44,10766.95 15269.31,10899.42 15308.5,10905.09 15327.64,10772.59 "/>
  <path class="fil7" d="M15597.47 10226.53c-58.99,9.41 -119.38,4.08 -175.84,-15.44l13.09 -37.64c50.82,17.77 105.28,22.52 158.41,13.88l4.33 39.19z"/>
  <polygon class="fil7" points="15362.81,9801.08 15355.01,9952.98 15394.55,9955 15402.35,9803.14 "/>
  <path class="fil7" d="M15384 10429.3c12.29,-11.44 27.88,-18.66 44.55,-20.66 16.63,-2 33.48,1.37 48.13,9.57 32.48,22.18 34.06,68.53 29.72,107.34 -11.09,97.02 -57.83,375.06 -204.77,304.16 -139.03,-66.53 2.75,-335.05 82.37,-400.41z"/>
  <path class="fil7" d="M14992.71 10572.31c13.15,10.49 22.62,24.91 27.03,41.13 4.43,16.25 3.54,33.46 -2.48,49.17 -17.04,35.27 -62.99,43.97 -102.18,45.14 -97.45,3.17 -379.43,-2.75 -330.71,-158.41 45.95,-147.33 331.88,-46.35 408.34,22.97z"/>
  <path class="fil19" d="M15454.15 11189.31c-152.08,-130.69 -417.85,-162.38 -624.2,-74.87 -97.02,39.6 -69.29,196.06 -17.02,269.34 52.28,73.26 151.7,116.83 255.84,131.87 109.44,19.05 222.04,-2.34 316.86,-60.2 85.95,-59.78 142.2,-202.77 68.51,-266.14z"/>
  <path class="fil19" d="M16151.17 10991.3c-118.81,15.84 -241.61,41.56 -333.5,118.81 -91.88,77.21 -140.2,217.44 -79.21,319.2 22.75,36.34 57.57,63.53 98.31,76.77 40.79,13.24 84.91,11.72 124.68,-4.27 82.78,-32.09 140.61,-106.93 186.54,-182.97 33.55,-48.4 53.65,-104.86 58.21,-163.57 1.99,-59.81 3.16,-171.5 -55.04,-163.96z"/>
  <path class="fil19" d="M15382.38 9890.27c-32.61,-35.67 -54.34,-79.93 -62.58,-127.52 -3.95,-23.7 -1.42,-47.99 7.29,-70.36 8.71,-22.4 23.28,-42.02 42.2,-56.78 19.73,-13.71 44.07,-19.16 67.74,-15.14 23.7,3.99 44.89,17.1 59.02,36.52 13.21,24.21 20.44,51.2 21.08,78.77 0.62,27.59 -5.39,54.9 -17.53,79.64 -10.38,22.34 -26.93,41.25 -47.71,54.5 -20.75,13.28 -44.87,20.35 -69.51,20.37z"/>
  <path class="fil19" d="M15951.54 10239.97c-24.87,38.14 -59.69,68.71 -100.76,88.42 -41.04,19.71 -86.69,27.78 -132,23.31 -45.28,-4.43 -88.49,-21.26 -124.92,-48.57 -36.4,-27.3 -64.64,-64.09 -81.58,-106.32 25.91,-35.17 60.35,-63.12 100.05,-81.27 39.7,-18.15 83.36,-25.91 126.9,-22.49 44.76,5.04 87.57,21.14 124.65,46.76 37.03,25.64 67.13,60.04 87.67,100.16z"/>
  <path class="fil9" d="M17390.49 13535.2l-4420.84 0 0 -3.96c26.97,-101.76 31.3,-211.07 79.25,-305.74 47.9,-94.67 156.03,-171.89 254.25,-133.48 114.85,-153.66 118.81,-378.23 219.41,-532.68 22.2,-35.8 50.65,-67.33 83.95,-93.09 127.15,-96.62 303.78,-82.76 462.22,-64.53 -8.74,-108.77 18.06,-217.41 76.39,-309.61 58.33,-92.21 144.99,-162.98 247,-201.7 101.99,-38.75 213.8,-43.28 318.61,-13.02 104.8,30.28 196.97,93.79 262.58,180.94 79.21,-301.81 410.34,-512.12 717.27,-458.64 306.95,53.46 546.95,360.02 529.52,671.3 212.7,-87.92 487.17,-144.95 649.53,17.84 93.88,93.87 118.81,237.61 114.06,369.13 -4.74,131.48 -39.6,262.56 -44.35,396.04 142.2,-6.72 305.77,-5.54 400.04,101.01 87.13,95.43 77.24,301.4 51.1,380.2z"/>
  <path class="fil10" d="M17390.49 13535.23l-4420.84 0 0 -3.96c26.97,-101.76 31.3,-211.08 79.25,-305.74 47.9,-94.67 156.03,-171.89 254.25,-133.48 114.85,-153.66 118.81,-378.23 219.41,-532.7 22.2,-35.79 50.65,-67.32 83.95,-93.08 127.15,-96.64 303.78,-82.76 462.22,-64.54 -8.74,-108.77 18.06,-217.4 76.39,-309.61 58.33,-92.19 144.99,-162.98 247,-201.69 101.99,-38.75 213.8,-43.31 318.61,-13.02 104.8,30.28 196.97,93.77 262.58,180.94 79.21,-301.81 410.34,-512.12 717.27,-458.64 306.95,53.44 546.95,360.01 529.52,671.3 212.7,-87.92 487.17,-144.95 649.53,17.83 93.88,93.88 118.81,237.63 114.06,369.11 -4.74,131.52 -39.6,262.59 -44.35,396.08 142.2,-6.72 305.77,-5.54 400.04,101.01 87.13,95.43 77.24,301.4 51.1,380.2z"/>
  <path class="fil9" d="M15348.35 13233.39c23.06,-17.08 49.3,-29.4 77.18,-36.19 27.91,-6.81 56.88,-7.95 85.2,-3.41 28.32,5.03 54.62,18.15 75.69,37.76 21.06,19.59 36.06,44.83 43.12,72.75 5.74,28.16 0.79,57.44 -13.84,82.16 -14.65,24.74 -37.92,43.16 -65.37,51.71 -67.71,16.23 -135.45,-39.6 -204.35,-29.72 -24.18,5.7 -47.97,12.84 -71.29,21.39 -99.43,26.55 -198.03,-39.6 -279.65,-99.39 -30.67,-19.87 -57.47,-45.08 -79.2,-74.46 -10.45,-14.79 -16.73,-32.13 -18.19,-50.15 -1.46,-18.06 1.94,-36.15 9.89,-52.44 25.34,-43.18 85.54,-49.52 135.45,-43.97 100.78,11.72 196.21,51.67 275.26,115.26 -2.38,-15.84 -5.17,-31.69 -7.54,-47.11l37.64 55.83z"/>
  <path class="fil9" d="M13774.62 12737.13c16.76,-2.6 33.94,-0.47 49.55,6.18 15.62,6.66 29.05,17.55 38.79,31.46 9.44,21.17 10.65,45.12 3.29,67.11 -7.32,22 -22.66,40.46 -42.91,51.71 -41.85,20.35 -88.21,29.6 -134.66,26.93 -47.55,0 -106.54,-4.75 -123.97,-48.69 -5.1,-16.67 -4.56,-34.54 1.52,-50.89 6.08,-16.31 17.4,-30.15 32.13,-39.41 29.66,-18.09 62.93,-29.43 97.46,-33.3 0,0 45.14,-7.51 78.79,-11.09z"/>
  <path class="fil9" d="M16011.45 12414.76c37.16,15.96 70.05,40.43 96,71.48 25.95,31.01 44.2,67.74 53.32,107.15 5.54,23.76 4.74,53.86 -16.26,66.16 -16.12,6.53 -34.19,6.53 -50.31,0l-213.87 -51.11c34.88,11.3 67.49,28.74 96.25,51.48 14.23,11.51 25.16,26.58 31.63,43.73 6.49,17.1 8.26,35.67 5.2,53.69 -7.07,20.44 -20.6,38 -38.52,50.07 -17.94,12.07 -39.29,17.99 -60.87,16.88 -43.47,-3.36 -84.88,-19.81 -118.85,-47.14 -19.96,-11.38 -37.04,-27.18 -49.93,-46.2 -12.92,-19.04 -21.28,-40.74 -24.51,-63.49 0,-45.56 57.02,-88.34 92.29,-58.62 -81.68,-22.3 -159.24,-57.6 -229.7,-104.59 -26.24,-15.9 -48.93,-37.06 -66.57,-62.16 -8.47,-12.73 -13.53,-27.43 -14.7,-42.7 -1.17,-15.24 1.56,-30.55 7.99,-44.43 73.29,-133.1 165.54,61.79 210.7,79.21 86.34,32.85 182.59,-66.16 290.72,-19.42z"/>
  <path class="fil9" d="M15886.31 13098.38c-5.33,15.78 -5.99,32.76 -1.9,48.92 4.06,16.17 12.71,30.8 24.87,42.18 6.39,5.16 13.84,8.87 21.83,10.84 7.99,1.96 16.29,2.12 24.37,0.5 8.05,-1.65 15.65,-5.01 22.24,-9.92 6.62,-4.91 12.03,-11.22 15.94,-18.48 -60.93,12.2 -116.41,43.41 -158.45,89.13 -36.81,49.52 -27.72,135.85 30.89,155.25 18.94,3.48 38.39,3.1 57.18,-1.11 18.76,-4.22 36.5,-12.2 52.15,-23.45 95.59,-52.21 186.71,-112.22 272.49,-179.39 -26.14,60.2 36.85,128.7 102.59,134.66 65.74,5.93 126.73,-30.09 182.97,-64.16 68.9,-41.97 148.12,-105.75 129.89,-184.58 -15.83,-68.51 -103.34,-98.6 -170.7,-79.21 -65.53,26.49 -122.62,70.3 -165.13,126.73 36.81,-53.85 -15.47,-133.85 -79.21,-142.57 -31.59,-1.64 -63.08,4.44 -91.79,17.69 -28.7,13.24 -53.77,33.27 -73,58.35 73.29,-39.6 89.92,-145.33 -8.3,-158.41 -65.36,-6.33 -173.5,123.57 -188.93,177.05z"/>
  <path class="fil9" d="M15370.95 12839.27c32.21,15.47 60.01,38.82 80.79,67.9 20.75,29.09 33.83,62.96 38.02,98.48 18.21,94.25 -6.35,207.52 -108.52,241.58 -28.74,8.87 -59.35,9.86 -88.59,2.89 -29.24,-6.95 -56.11,-21.64 -77.79,-42.49 -104.93,-99.43 -67.32,-260.59 29.31,-346.55 17.81,-13.59 38.62,-22.69 60.7,-26.49 22.08,-3.77 44.74,-2.19 66.06,4.68z"/>
  <path class="fil9" d="M14326.23 13130.42c20.66,-1.46 41.35,2.35 60.14,11.09 18.79,8.72 35.04,22.08 47.2,38.85 35.65,42.35 55.44,106.13 13.46,152.08 -11.9,12.55 -26.96,21.7 -43.62,26.51 -16.63,4.79 -34.25,5.08 -51.01,0.79 -79.24,-20.58 -107.34,-112.06 -82.78,-182.55 4.97,-11.78 12.71,-22.21 22.56,-30.36 9.88,-8.14 21.57,-13.75 34.06,-16.41z"/>
  <path class="fil9" d="M14245.84 12335.52c20.63,-15.78 44.97,-26.08 70.66,-29.88 25.69,-3.81 51.96,-1.05 76.29,8.07 66.53,19.81 130.69,73.29 118.81,150.12 -3.71,21.23 -12.99,41.06 -26.93,57.48 -13.91,16.44 -31.97,28.86 -52.28,35.98 -98.62,34.48 -189.31,-43.56 -212.31,-134.24 -2.91,-15.59 -2.12,-31.65 2.35,-46.89 4.47,-15.21 12.51,-29.15 23.41,-40.64z"/>
  <path class="fil9" d="M14601.49 11979.12c23.95,10.07 44.99,26.01 61.12,46.38 16.12,20.35 26.86,44.45 31.17,70.09 15.84,67.71 0,150.08 -70.9,177.8 -20.4,7.39 -42.43,9.12 -63.72,5.1 -21.33,-4.06 -41.18,-13.72 -57.47,-28.07 -79.21,-68.5 -57.04,-186.14 10.29,-251.09 12.24,-10.3 26.75,-17.5 42.31,-21.02 15.58,-3.51 31.77,-3.22 47.2,0.8z"/>
  <path class="fil9" d="M13677.1 13022.31c-2.12,-25.88 2.38,-51.9 13.05,-75.56 10.65,-23.7 27.16,-44.29 47.93,-59.89 52.28,-45.14 132.28,-70.87 190.52,-19 15.87,14.88 27.53,33.74 33.71,54.65 6.2,20.88 6.72,43.03 1.56,64.16 -24.6,101.38 -139.03,135.85 -227.75,106.55 -14.79,-6.25 -27.84,-15.97 -38.12,-28.3 -10.26,-12.32 -17.42,-26.93 -20.91,-42.62z"/>
  <path class="fil9" d="M14713.2 12632.99l-24.55 20.98c15.36,-19.27 36.33,-33.27 60.01,-40.12 23.66,-6.81 48.88,-6.11 72.14,2.04 23.25,8.14 43.41,23.28 57.67,43.37 14.25,20.12 21.93,44.13 21.93,68.78 0,24.62 -7.68,48.67 -21.93,68.75 -14.26,20.09 -34.42,35.27 -57.67,43.41 -23.25,8.11 -48.47,8.84 -72.14,2 -23.67,-6.81 -44.64,-20.85 -60.01,-40.12 -34.34,16.44 -73.07,21.45 -110.45,14.32 -37.41,-7.12 -71.57,-26.01 -97.45,-53.92 -11.85,-14.57 -20.54,-31.46 -25.54,-49.59 -5.01,-18.12 -6.2,-37.06 -3.52,-55.67 2.67,-18.6 9.16,-36.43 19.08,-52.4 9.92,-15.96 23,-29.72 38.5,-40.37 66.12,-37.64 166.34,18.61 158.41,94.27l28.9 -32.09 16.63 6.36z"/>
  <path class="fil9" d="M13961.43 12664.67c18.21,63.37 -8.33,145.34 -72.11,162.76 -63.75,17.46 -124.74,-33.65 -162.38,-87.51 -37.61,-53.86 -70.11,-114.06 -42.35,-166.34 98.22,-183 256.63,27.73 276.84,91.09z"/>
  <path class="fil9" d="M16555.2 12767.68c-61.79,23.37 -145.74,3.16 -168.3,-59 -22.6,-62.2 24.14,-127.14 74.83,-168.74 50.7,-41.58 108.14,-79.21 162.38,-55.04 189.34,81.96 -7.92,259 -68.9,282.77z"/>
  <path class="fil9" d="M15683.97 12084.84c-39.6,53.86 -118.84,83.16 -172.29,43.95 -53.48,-39.19 -50.69,-118.81 -31.3,-181.39 19.42,-62.57 46.35,-125.53 104.59,-136.24 203.94,-36.85 138.62,220.2 99.01,273.68z"/>
  <path class="fil9" d="M15489.03 12052.75c4.14,25.09 -1.37,50.78 -15.5,71.92 -14.13,21.12 -35.8,36.06 -60.58,41.76 -50.28,4.75 -89.88,-41.98 -110.89,-87.92 -20.98,-45.95 -39.61,-95.46 -9.89,-131.11 97.43,-126.73 191.31,55.07 196.85,105.35z"/>
  <path class="fil9" d="M15946.53 12256.37c-23.43,9.7 -49.73,10.05 -73.44,0.98 -23.7,-9.05 -43.05,-26.84 -54.08,-49.71 -16.23,-47.53 20.6,-97.02 60.2,-127.9 39.6,-30.89 84.76,-58.23 125.94,-39.6 144.19,64.94 -10.67,197.22 -58.62,216.23z"/>
  <path class="fil9" d="M15109.24 12429.04c7.07,-12.61 16.57,-23.66 28.01,-32.51 11.4,-8.86 24.49,-15.33 38.46,-19 13.94,-3.71 28.51,-4.56 42.83,-2.5 14.29,2.06 28.04,6.93 40.4,14.42 24.11,16.85 41.82,41.37 50.25,69.54 8.39,28.2 7.03,58.4 -3.9,85.7 -11.9,26.93 -30.76,50.16 -54.65,67.36 -23.89,17.21 -51.89,27.73 -81.2,30.49 -72.5,7.92 -158.41,-50.28 -141.4,-121.2 -16.63,19.23 -37.8,34.03 -61.6,43.1 -23.76,9.03 -49.42,12.07 -74.64,8.78 -51.07,-7.54 -99.97,-25.89 -143.37,-53.86 -60.99,-34.86 -125.56,-89.09 -118.81,-158.41 4.66,-27.6 18.51,-52.82 39.27,-71.57 20.78,-18.76 47.26,-29.97 75.18,-31.82 27.91,-1.04 55.73,3.42 81.91,13.15 26.16,9.74 50.15,24.49 70.59,43.5 30.82,31.09 63.2,60.58 97.04,88.34 17.11,13.75 37.6,22.64 59.33,25.78 21.73,3.14 43.92,0.38 64.23,-7.98l-7.93 8.71z"/>
  <polygon class="fil20" points="5034.45,13227.46 5123.99,12600.1 5436.07,12708.62 5255.47,13284.5 "/>
  <path class="fil21" d="M5245.5 13257.49l-210.7 -90.29c-4.47,-1.9 -9.47,-2.25 -14.13,-0.96 -4.68,1.31 -8.78,4.16 -11.63,8.08l-128.73 179.05c-2.81,3.7 -4.87,7.95 -6.02,12.48 -1.17,4.53 -1.39,9.22 -0.69,13.84 0.69,4.63 2.31,9.06 4.79,13.03 2.43,3.99 5.66,7.45 9.47,10.13 1.93,1.5 4.05,2.69 6.33,3.58 88.3,36.03 168.33,64.95 277.23,111.69 128.73,55.44 89.5,56.62 240.03,123.97 90.67,39.6 151.66,-56.27 115.23,-79.24 -167.51,-98.22 -195.27,-174.26 -237.63,-266.93 -9.63,-17.5 -25.03,-31.05 -43.56,-38.44z"/>
  <path class="fil21" d="M6614.3 7904.04c0,0 -262.98,2196.92 -633.69,3213.64 -370.7,1016.68 -559.63,1653.54 -559.63,1653.54l-311.69 -90.3c0,0 110.89,-1267.38 342.97,-1940.71 10.71,-30.49 21.39,-59.41 32.48,-87.13 66.12,-165.49 98.18,-342.62 94.25,-520.82l0 -5.54c-7.51,-316.83 -14.26,-786.17 2.79,-1047.18 -25.99,-396.58 53.83,-792.93 231.28,-1148.54l801.24 -26.96z"/>
  <path class="fil12" d="M6380.58 8723.87l72.48 305.37c-44.76,277.23 -98.24,579.41 -158.45,877.64 -15.58,-166.59 -71.31,-326.93 -162.37,-467.33 -183.07,-268.98 -253.06,-599.14 -194.85,-919.24l443.18 203.56z"/>
  <polygon class="fil21" points="5480.33,12695.53 5423.68,12828.22 5074.76,12733.17 5088.22,12588.61 "/>
  <polygon class="fil22" points="5480.33,12695.53 5423.68,12828.22 5074.76,12733.17 5088.22,12588.61 "/>
  <polygon class="fil20" points="7841.68,11978.64 7949.02,12739.48 7737.53,12769.16 7502.66,12015.87 "/>
  <path class="fil21" d="M7937.07 12664.61l-233.28 39.6c-4.97,0.86 -9.47,3.36 -12.86,7.1 -3.35,3.74 -5.39,8.49 -5.77,13.5l-11.88 227.33c-0.44,4.87 0.13,9.76 1.62,14.38 1.5,4.66 3.87,8.93 7.07,12.65 3.17,3.68 7.04,6.68 11.41,8.87 4.37,2.14 9.12,3.41 13.97,3.74 2.62,0.38 5.28,0.38 7.92,0 96.64,-17.84 182.21,-37.64 303.39,-57.44 142.58,-23.77 109.32,0 277.24,-26.14 101.38,-15.46 100.59,-133.48 57.02,-132.27 -200.4,7.92 -267.35,-42.39 -354.48,-100.22 -18.37,-11.22 -40.26,-15.17 -61.37,-11.09z"/>
  <path class="fil21" d="M6937.44 7965.38c0,0 756.47,1478.48 831.72,1940.67 75.24,462.2 133.06,2354.57 133.06,2354.57l-349.72 83.16c-162.4,-611.55 -262.33,-1238.02 -298.23,-1869.78 -3.16,-68.53 -20.18,-133.85 -27.31,-198.01 -29.71,-261.8 -937.47,-1053.9 -937.47,-1053.9 0,0 -652.32,-138.24 -437.68,-1246.03l1085.63 -10.68z"/>
  <polygon class="fil21" points="7922.03,12183.81 7929.15,12332.73 7572.71,12400.84 7509.36,12262.62 "/>
  <polygon class="fil22" points="7922.03,12183.81 7929.15,12332.73 7572.71,12400.84 7509.36,12262.62 "/>
  <path class="fil20" d="M5818.2 6688.16c0,0 241.21,531.89 326.75,657.46 85.54,125.53 970.73,440.01 970.73,440.01l155.66 123.97c8.37,6.68 18.03,11.63 28.36,14.48 10.33,2.85 21.14,3.58 31.78,2.16 10.61,-1.45 20.85,-5.03 30.03,-10.55 9.22,-5.51 17.21,-12.86 23.48,-21.54l79.2 -110.1c7.14,-9.82 11.91,-21.14 13.97,-33.07 2.06,-11.95 1.33,-24.21 -2.08,-35.84l-8.72 -29.3c-4.72,-15.94 -14.32,-29.97 -27.51,-40.15 -13.15,-10.17 -29.15,-15.93 -45.74,-16.5l-211.1 -7.12c0,0 -743.8,-319.21 -816.29,-443.98 -72.48,-124.78 -243.16,-565.2 -243.16,-565.2l-305.37 75.27z"/>
  <path class="fil9" d="M5671.61 6191.81c0,0 -153.67,86.76 187.75,748.17 0,0 101.39,47.53 400,-128.73 -1.59,0 -108.9,-535.44 -587.76,-619.44z"/>
  <path class="fil23" d="M5671.61 6191.81c0,0 -153.67,86.76 187.75,748.17 0,0 101.39,47.53 400,-128.73 -1.59,0 -108.9,-535.44 -587.76,-619.44z"/>
  <path class="fil21" d="M6565.23 5185.05c11.94,0.54 23.82,-1.64 34.81,-6.39 10.97,-4.72 20.73,-11.88 28.55,-20.91 -3.68,12.86 -11.65,24.11 -22.62,31.8 -10.96,7.7 -24.2,11.44 -37.58,10.55l-3.16 -15.05z"/>
  <path class="fil21" d="M6633.73 5213.19c4.75,17.42 0,33.65 -11.88,36.81 -11.89,3.17 -24.94,-9.09 -28.9,-25.72 -3.96,-16.63 0,-33.68 11.88,-36.44 11.88,-2.79 24.14,8.3 28.9,25.35z"/>
  <path class="fil24" d="M6578.54 5277.82l113.64 118.81c0,0 -4.75,43.98 -72.08,34.07l-41.56 -152.88z"/>
  <path class="fil21" d="M6521.15 5166.87c1.52,0.16 3.04,-0.1 4.44,-0.73 1.39,-0.6 2.6,-1.58 3.48,-2.83 6.87,-9.44 15.84,-17.1 26.22,-22.43 10.39,-5.29 21.9,-8.05 33.59,-8.08 2.37,0.13 4.72,-0.66 6.56,-2.22 1.83,-1.52 3.04,-3.7 3.32,-6.08 0.13,-2.5 -0.72,-4.97 -2.34,-6.87 -1.62,-1.9 -3.9,-3.14 -6.37,-3.42 -14.86,-0.02 -29.53,3.58 -42.71,10.49 -13.17,6.87 -24.45,16.88 -32.94,29.12 -1.65,1.77 -2.6,4.08 -2.6,6.53 0,2.43 0.95,4.78 2.6,6.53 1.08,0.47 2.22,0.73 3.39,0.73 1.14,0 2.28,-0.26 3.35,-0.73z"/>
  <path class="fil20" d="M5907.26 5311.79c39.61,251.88 52.7,359.64 193.68,475.28 208.73,112.85 514.89,71.29 548.16,-188.14 31.69,-232.87 -39.6,-604.8 -298.65,-682.43 -56.9,-16.98 -117.2,-19.16 -175.17,-6.33 -57.98,12.84 -111.72,40.27 -156.1,79.72 -44.39,39.41 -77.98,89.57 -97.56,145.61 -19.58,56.05 -24.52,116.19 -14.36,174.7l0 1.59z"/>
  <path class="fil20" d="M6034.4 5644.05c0,0 79.21,326.36 -42.39,450.33l435.68 21.39c0,0 -153.29,-105.75 -89.51,-407.94 -90,-57.83 -198.15,-80.54 -303.78,-63.78z"/>
  <path class="fil9" d="M6946.95 7961.86c0,0 6.33,-462.57 -3.96,-823.41 -3.96,-140.2 46.73,-181.39 39.6,-343.77 -4.33,-123.18 -79.21,-249.12 -94.64,-324.37 -42.01,-209.52 -27.76,-480.03 -342.21,-429.33l-769.93 58.6c-24.68,1.87 -48.61,9.2 -70.11,21.39 -21.52,12.2 -40.08,29.03 -54.34,49.2 -14.29,20.21 -23.89,43.31 -28.2,67.68 -4.31,24.36 -3.16,49.36 3.33,73.25 90.71,330.3 257.43,1023.8 153.66,1687.19l1166.81 -36.44z"/>
  <path class="fil17" d="M6946.95 7961.86c0,0 6.33,-462.57 -3.96,-823.41 -3.96,-140.2 46.73,-181.39 39.6,-343.77 -4.33,-123.18 -79.21,-249.12 -94.64,-324.37 -42.01,-209.52 -27.76,-480.03 -342.21,-429.33l-769.93 58.6c-24.68,1.87 -48.61,9.2 -70.11,21.39 -21.52,12.2 -40.08,29.03 -54.34,49.2 -14.29,20.21 -23.89,43.31 -28.2,67.68 -4.31,24.36 -3.16,49.36 3.33,73.25 90.71,330.3 257.43,1023.8 153.66,1687.19l1166.81 -36.44z"/>
  <path class="fil21" d="M6190.54 4859.92c47.18,-14.45 96.73,-19.23 145.8,-14.17 49.05,5.1 96.6,19.96 139.78,43.76 43.22,23.76 81.21,55.98 111.75,94.7 30.55,38.73 53.01,83.2 66.06,130.76 36.81,-91.09 -17.42,-207.52 -89.92,-274.47 -37.33,-32.16 -81.24,-55.67 -128.69,-68.88 -47.43,-13.21 -97.21,-15.81 -145.78,-7.57 -28.45,2.43 -55.73,12.26 -79.2,28.51 -9.8,7.86 -16.92,18.54 -20.48,30.57 -3.54,12.03 -3.32,24.87 0.67,36.79z"/>
  <path class="fil21" d="M6495.46 4903.52c-126.73,-144.95 -368.73,-188.52 -465.77,-61.41 -79.21,-51.07 -343.39,22.58 -394.08,141.82 -130.69,307.32 -15.05,630.9 420.62,831.71 0,0 281.6,31.28 279.61,-175.84 -3.56,-396.08 129.9,-75.27 218.23,-488.37 8.59,-43.09 7.76,-87.57 -2.35,-130.34 -10.11,-42.77 -29.3,-82.88 -56.27,-117.57z"/>
  <path class="fil21" d="M6457.85 5351.04c15.94,50.94 14.25,105.78 -4.75,155.66 11.72,-9.38 20.88,-21.54 26.7,-35.36 5.81,-13.84 8.05,-28.92 6.56,-43.85 1.77,-14.09 0.1,-28.42 -4.85,-41.72 -4.97,-13.3 -13.09,-25.22 -23.66,-34.73z"/>
  <path class="fil21" d="M6443.63 5339.16c40.46,34.19 68.34,80.89 79.2,132.68 4.63,-14.06 5.71,-29.05 3.17,-43.62 -2.56,-14.57 -8.68,-28.3 -17.81,-39.95 -16.25,-26.14 -33.27,-47.91 -64.57,-49.11z"/>
  <path class="fil20" d="M6436.02 5318.53c13.46,19.81 22.87,42.04 27.72,65.53 4.81,23.45 4.95,47.62 0.38,71.13 -12.68,62.95 -76.42,65.74 -120.81,24.14 -44.35,-41.56 -81.58,-114.85 -45.53,-166.75 7.95,-11.22 18.6,-20.25 30.95,-26.3 12.36,-6.05 26.01,-8.91 39.77,-8.33 13.75,0.6 27.11,4.62 38.91,11.72 11.82,7.07 21.64,17.02 28.61,28.86z"/>
  <path class="fil20" d="M6602.01 6723.39l-240.4 496.66c-28.1,237.63 -67.33,961.62 -67.33,961.62l97.43 240.03c5.89,14.42 6.87,30.36 2.83,45.4 -4.1,15.02 -13.03,28.3 -25.39,37.77l-24.96 19.02c-7.7,5.74 -16.45,9.88 -25.77,12.19 -9.3,2.31 -19,2.75 -28.48,1.27l-158.45 -25.76c-9.47,-1.48 -18.56,-4.91 -26.68,-10.07 -8.11,-5.14 -15.11,-11.89 -20.52,-19.81 -5.39,-7.95 -9.12,-16.92 -10.97,-26.36 -1.83,-9.41 -1.71,-19.14 0.35,-28.52l57.83 -274.46c0,0 -76.42,-823.01 -49.49,-983.01 26.93,-160.03 184.55,-535.1 184.55,-535.1l335.46 89.13z"/>
  <path class="fil9" d="M6836.09 6220.01c-13.09,133.45 -61.41,356.44 -211.9,684.78 0,0 -277.23,4.37 -466.94,-133.48 0,0 122.39,-662.21 503,-721.62 23.35,-3.16 47.12,-1.01 69.55,6.33 22.4,7.35 42.83,19.67 59.75,36.09 16.96,16.42 29.94,36.44 37.98,58.58 8.08,22.15 10.99,45.85 8.56,69.32z"/>
  <path class="fil13" d="M6836.09 6220.01c-13.09,133.45 -61.41,356.44 -211.9,684.78 0,0 -277.23,4.37 -466.94,-133.48 0,0 122.39,-662.21 503,-721.62 23.35,-3.16 47.12,-1.01 69.55,6.33 22.4,7.35 42.83,19.67 59.75,36.09 16.96,16.42 29.94,36.44 37.98,58.58 8.08,22.15 10.99,45.85 8.56,69.32z"/>
  <path class="fil12" d="M6321.1 5847.26c0,0 -9.09,-87.13 -8.3,-139.41 0,0 63.75,115.65 158.41,107.72l42.77 -10.3c-59.62,30.36 -126.03,44.8 -192.89,41.98z"/>
  <path class="fil21" d="M7937.07 12664.61l-233.28 39.6c-4.97,0.86 -9.47,3.36 -12.86,7.1 -3.35,3.74 -5.39,8.49 -5.77,13.5l-11.88 227.33c-0.44,4.87 0.13,9.76 1.62,14.38 1.5,4.66 3.87,8.93 7.07,12.65 3.17,3.68 7.04,6.68 11.41,8.87 4.37,2.14 9.12,3.41 13.97,3.74 2.62,0.38 5.28,0.38 7.92,0 96.64,-17.84 182.21,-37.64 303.39,-57.44 142.58,-23.77 109.32,0 277.24,-26.14 101.38,-15.46 100.59,-133.48 57.02,-132.27 -200.4,7.92 -267.35,-42.39 -354.48,-100.22 -18.37,-11.22 -40.26,-15.17 -61.37,-11.09z"/>
 </g>
</svg>
