<?xml version="1.0" encoding="UTF-8"?>
<!DOCTYPE svg PUBLIC "-//W3C//DTD SVG 1.1//EN" "http://www.w3.org/Graphics/SVG/1.1/DTD/svg11.dtd">
<!-- Creator: CorelDRAW 2020 (64-Bit) -->
<svg xmlns="http://www.w3.org/2000/svg" xml:space="preserve" width="148.124mm" height="109.962mm" version="1.1" style="shape-rendering:geometricPrecision; text-rendering:geometricPrecision; image-rendering:optimizeQuality; fill-rule:evenodd; clip-rule:evenodd"
viewBox="0 0 10892.03 8085.83"
 xmlns:xlink="http://www.w3.org/1999/xlink"
 xmlns:xodm="http://www.corel.com/coreldraw/odm/2003">
 <defs>
  <style type="text/css">
   <![CDATA[
    .fil17 {fill:black;fill-rule:nonzero}
    .fil8 {fill:#263238;fill-rule:nonzero}
    .fil13 {fill:#D58745;fill-rule:nonzero}
    .fil14 {fill:#DE5753;fill-rule:nonzero}
    .fil1 {fill:#E0E0E0;fill-rule:nonzero}
    .fil15 {fill:#E4897B;fill-rule:nonzero}
    .fil2 {fill:#E6E6E6;fill-rule:nonzero}
    .fil9 {fill:#EBB376;fill-rule:nonzero}
    .fil0 {fill:#EBEBEB;fill-rule:nonzero}
    .fil3 {fill:#F0F0F0;fill-rule:nonzero}
    .fil4 {fill:whitesmoke;fill-rule:nonzero}
    .fil5 {fill:#FFCA05;fill-rule:nonzero}
    .fil7 {fill:white;fill-rule:nonzero}
    .fil11 {fill:black;fill-rule:nonzero;fill-opacity:0.200000}
    .fil10 {fill:white;fill-rule:nonzero;fill-opacity:0.200000}
    .fil16 {fill:black;fill-rule:nonzero;fill-opacity:0.301961}
    .fil12 {fill:white;fill-rule:nonzero;fill-opacity:0.400000}
    .fil6 {fill:white;fill-rule:nonzero;fill-opacity:0.600000}
   ]]>
  </style>
 </defs>
 <g id="Layer_x0020_1">
  <metadata id="CorelCorpID_0Corel-Layer"/>
  <g id="_2852044085120">
   <polygon class="fil0" points="10892.03,6884.2 -0,6884.2 -0,6889.65 10892.03,6889.65 "/>
   <polygon class="fil0" points="9800.67,7234.72 9079.17,7234.72 9079.17,7240.16 9800.67,7240.16 "/>
   <polygon class="fil0" points="7215.3,7293.96 7026,7293.96 7026,7299.39 7215.3,7299.39 "/>
   <polygon class="fil0" points="9057.36,7032.56 8639.34,7032.56 8639.34,7038.01 9057.36,7038.01 "/>
   <polygon class="fil0" points="2083.64,7069.16 1142.79,7069.16 1142.79,7074.6 2083.64,7074.6 "/>
   <polygon class="fil0" points="2415.61,7069.16 2277.71,7069.16 2277.71,7074.6 2415.61,7074.6 "/>
   <polygon class="fil0" points="4904.67,7161.06 2863.93,7161.06 2863.93,7166.51 4904.67,7166.51 "/>
   <polygon class="fil1" points="8653.5,3082.03 8653.5,2221.33 8687.92,2221.33 8687.92,3105.55 "/>
   <path class="fil0" d="M8670.08 2265.99c0,0 108.92,18.29 178.19,73.85 69.27,55.55 114.81,43.56 114.81,43.56 -2.36,13.27 -7.41,25.9 -14.85,37.12 -7.46,11.25 -17.13,20.82 -28.41,28.16 -11.3,7.33 -23.99,12.26 -37.28,14.49 -13.29,2.22 -26.88,1.69 -39.94,-1.56 -31.6,-4.59 -63.82,-1.38 -93.89,9.32 -30.06,10.72 -57.06,28.6 -78.64,52.1l0 -257.04z"/>
   <path class="fil0" d="M9993.9 6875.49l-4446.58 9.8 217.85 -703.42 15.68 -50.76 462.69 -184.71 438.09 -292.79c0,0 220,98.46 250.29,16.34 3.46,-10.84 4.36,-22.32 2.61,-33.54 -10.24,-81.48 38.13,-187.79 79.51,-261.43 16.44,-29.3 34.4,-57.75 53.82,-85.18l438.93 -290.16 130.71 -170.57 73.41 -203.47 60.56 -168.6c0,0 76.91,-430.22 120.47,-448.32 43.56,-18.07 239.62,-135.06 239.62,-135.06 42.69,-2.18 83.06,-20.11 113.29,-50.3 39.91,-41.67 65.14,-95.2 71.89,-152.49 8.06,-47.5 20.47,-106.31 34.42,-168.6 46.61,-207.17 113.72,-453.34 113.72,-453.34l321.31 19.83c0,0 121.11,979.19 105.42,1072.85 -5.23,32.02 10.68,125.26 36.38,235.28 49.67,211.31 135.49,483.61 176.23,496.23 10.88,2.65 20.64,8.66 27.88,17.2 7.24,8.52 11.59,19.13 12.43,30.3 6.46,53.72 19.63,106.4 39.21,156.85 34.41,84.73 116.75,484.25 172.74,766.36 32.45,163.16 55.76,286.68 55.76,286.68l66.89 40.08 311.72 186.25 203.04 518.69z"/>
   <path class="fil1" d="M6931.93 5668.87l310.2 243.99 -24.61 443.52 -542.42 -94.11 -909.92 -81.46 15.68 -50.76 462.69 -184.73 438.09 -292.79c0,0 220.02,98.46 250.29,16.34z"/>
   <path class="fil1" d="M8007.83 5254.54l65.35 658.31 -651.34 -695.99 -407.37 157.49c16.44,-29.32 34.4,-57.74 53.82,-85.17l438.94 -290.16 130.7 -170.57 73.43 -203.47 37.45 280.57 259.01 349z"/>
   <path class="fil1" d="M8665.31 4413.9l-100.43 -348.55 -319.79 -242.66c39.9,-41.68 65.14,-95.2 71.89,-152.49 8.05,-47.5 20.49,-106.31 34.42,-168.6l188 321.1 125.92 591.21z"/>
   <path class="fil1" d="M9144.74 4919.93l-160.98 504.74 -221.33 148.35 -175.59 382.32 78.43 -530.67 253.56 -189.08 0 -419.35 9.38 -440.27c49.67,211.31 135.49,483.61 176.23,496.24 10.88,2.65 20.64,8.65 27.88,17.2 7.24,8.52 11.6,19.14 12.41,30.3l0 0.21z"/>
   <path class="fil1" d="M9479.35 6170.12l-66.86 7.41 -273.82 74.28 -81.91 375.12 -54.69 -450.28 354.66 -333.3c32.45,163.16 55.76,286.68 55.76,286.68l66.86 40.08z"/>
   <polygon class="fil2" points="3854.88,5299.41 3006.62,5299.41 3006.62,6884.2 3854.88,6884.2 "/>
   <polygon class="fil1" points="2952.18,6883.98 3095.08,6883.98 3095.08,5299.2 2952.18,5299.2 "/>
   <polygon class="fil0" points="2998.35,3944.65 2150.08,3944.65 2150.08,6884.2 2998.35,6884.2 "/>
   <polygon class="fil1" points="2022.45,6884.2 2196.29,6884.2 2196.29,3944.67 2022.45,3944.67 "/>
   <polygon class="fil2" points="2141.99,4724.3 1293.72,4724.3 1293.72,6884.2 2141.99,6884.2 "/>
   <polygon class="fil1" points="1171.08,6884.2 1340.12,6884.2 1340.12,4724.31 1171.08,4724.31 "/>
   <path class="fil0" d="M3037.61 2925.82c-43.58,-43.56 -123.53,-25.7 -189.09,0 0,-6.32 0,-10.02 0,-10.02l-687.95 0c0,0 0,3.7 0,10.02 -65.35,-26.57 -145.96,-43.56 -189.07,0 -49.25,50.33 -38.35,226.35 39.2,333.51 23.56,33.08 54.86,59.86 91.15,78.06 36.3,18.19 76.52,27.21 117.1,26.3 63.27,-1.75 125.51,-16.6 182.77,-43.58 117.63,159.03 54.46,433.73 -113.93,456.39l432.85 0c-168.6,-21.79 -231.56,-297.36 -113.93,-456.39 57.19,26.99 119.34,41.83 182.55,43.58 40.62,0.93 80.87,-8.07 117.2,-26.27 36.34,-18.19 67.69,-45 91.28,-78.09 77.32,-107.16 88.43,-283.18 39.87,-333.51zm-975.28 299.32c-73.42,-97.37 -65.35,-238.12 -47.72,-256.4 20.49,-20.71 87.14,-1.75 150.1,27 8.65,53.02 28.42,103.6 58,148.43 29.59,44.83 68.33,82.88 113.66,111.67 6.96,4.81 13.74,10.02 20.25,15.26 -130.71,52.06 -231.78,36.38 -294.29,-45.96zm883.77 0c-62.53,82.34 -163.6,97.81 -294.3,45.96 6.54,-5.24 13.29,-10.45 20.25,-15.26 45.49,-28.93 84.32,-67.19 113.91,-112.26 29.6,-45.06 49.28,-95.9 57.75,-149.15 62.32,-28.55 130.71,-47.5 150.1,-26.79 16.77,19.38 25.7,160.97 -47.71,257.49z"/>
   <polygon class="fil1" points="2764.61,3740.31 2243.74,3740.31 2243.74,3966.44 2764.61,3966.44 "/>
   <path class="fil3" d="M2653.73 993.79c0,-30.74 12.2,-60.22 33.93,-81.95 21.73,-21.73 51.21,-33.94 81.95,-33.94 11.29,0.04 22.51,1.65 33.33,4.79 -1.76,-11.76 -2.61,-23.63 -2.61,-35.51 0,-65.08 25.84,-127.48 71.83,-173.52 46,-46.03 108.39,-71.92 173.47,-71.98 15.19,0.01 30.37,1.47 45.31,4.36 24.13,-39.92 60.62,-70.87 103.95,-88.17 43.3,-17.3 91.09,-19.99 136.09,-7.67 44.98,12.32 84.73,38.97 113.2,75.93 28.46,36.95 44.11,82.18 44.53,128.82l3.49 0c26.52,-0.88 52.94,3.58 77.68,13.12 24.75,9.54 47.34,23.96 66.41,42.41 19.06,18.44 34.22,40.53 44.59,64.96 10.35,24.42 15.68,50.68 15.68,77.2 0,26.53 -5.33,52.79 -15.68,77.21 -10.37,24.43 -25.53,46.52 -44.59,64.96 -19.07,18.44 -41.66,32.87 -66.41,42.41 -24.74,9.54 -51.16,14 -77.68,13.12l-725.62 0c-30.35,-0.74 -59.19,-13.38 -80.28,-35.18 -21.11,-21.8 -32.83,-51.02 -32.57,-81.36z"/>
   <path class="fil3" d="M6883.76 754.16c0.06,-24.19 9.71,-47.37 26.81,-64.47 17.1,-17.1 40.3,-26.74 64.47,-26.8 8.91,-0.01 17.79,1.24 26.36,3.7 -1.32,-9.24 -1.96,-18.55 -1.96,-27.88 0,-28.44 6.27,-56.53 18.35,-82.28 12.08,-25.75 29.69,-48.52 51.56,-66.69 21.87,-18.18 47.49,-31.31 75.02,-38.47 27.51,-7.16 56.28,-8.17 84.25,-2.96 19.12,-31.3 47.88,-55.54 81.96,-69.08 34.11,-13.54 71.66,-15.64 107.05,-5.98 35.39,9.65 66.67,30.54 89.17,59.52 22.47,28.98 34.94,64.47 35.5,101.15l2.85 0c41.36,0 81.03,16.43 110.29,45.69 29.24,29.25 45.68,68.92 45.68,110.29 0,41.37 -16.43,81.04 -45.68,110.29 -29.27,29.25 -68.93,45.69 -110.29,45.69l-572.49 0c-23.87,-0.63 -46.54,-10.58 -63.15,-27.72 -16.62,-17.15 -25.86,-40.12 -25.74,-64z"/>
   <path class="fil3" d="M1422.46 2025.27c-0.03,-19.18 3.73,-38.19 11.05,-55.94 7.32,-17.72 18.07,-33.83 31.62,-47.41 13.56,-13.58 29.66,-24.36 47.38,-31.69 17.72,-7.36 36.72,-11.13 55.91,-11.13 14.18,-0.04 28.28,2.1 41.83,6.3 -2.08,-14.86 -3.17,-29.86 -3.26,-44.86 -0.07,-45.52 9.9,-90.49 29.19,-131.71 19.29,-41.22 47.43,-77.7 82.41,-106.81 34.99,-29.12 75.95,-50.17 119.99,-61.66 44.04,-11.49 90.07,-13.13 134.82,-4.8 30.52,-50.01 76.5,-88.74 130.93,-110.37 54.46,-21.63 114.48,-24.97 170.99,-9.54 56.52,15.43 106.51,48.81 142.42,95.11 35.89,46.3 55.8,103.01 56.69,161.6l4.57 0c33.33,-0.99 66.53,4.73 97.62,16.8 31.07,12.07 59.41,30.27 83.34,53.5 23.94,23.23 42.94,51.03 55.94,81.73 13,30.72 19.67,63.72 19.67,97.06 0,33.35 -6.67,66.36 -19.67,97.09 -12.99,30.7 -32,58.5 -55.94,81.73 -23.93,23.23 -52.27,41.42 -83.34,53.48 -31.09,12.08 -64.28,17.8 -97.62,16.81l-914.94 0c-37.85,-1.07 -73.8,-16.85 -100.23,-43.97 -26.43,-27.13 -41.26,-63.47 -41.36,-101.33z"/>
   <path class="fil3" d="M7874.95 1589.58c0,-38.76 15.39,-75.95 42.8,-103.36 27.41,-27.41 64.59,-42.81 103.37,-42.81 14.18,-0.02 28.29,2.1 41.83,6.32 -2.08,-14.87 -3.17,-29.85 -3.26,-44.87 -0.08,-45.52 9.9,-90.48 29.19,-131.71 19.28,-41.22 47.43,-77.69 82.41,-106.81 34.99,-29.12 75.94,-50.16 119.98,-61.65 44.05,-11.49 90.08,-13.13 134.83,-4.81 30.52,-50.01 76.48,-88.74 130.93,-110.37 54.46,-21.63 114.46,-24.97 171,-9.54 56.52,15.43 106.5,48.81 142.39,95.11 35.92,46.3 55.82,103.01 56.69,161.6l4.36 0c33.33,-0.99 66.52,4.73 97.61,16.8 31.09,12.07 59.44,30.27 83.35,53.5 23.93,23.23 42.96,51.02 55.94,81.74 12.99,30.71 19.68,63.72 19.68,97.06 0,33.35 -6.69,66.36 -19.68,97.07 -12.98,30.71 -32.01,58.51 -55.94,81.73 -23.91,23.23 -52.26,41.42 -83.35,53.5 -31.09,12.07 -64.28,17.78 -97.61,16.79l-914.92 0c-37.86,-1.07 -73.81,-16.83 -100.23,-43.97 -26.44,-27.12 -41.27,-63.46 -41.36,-101.34z"/>
   <path class="fil4" d="M5446 8085.83c2332.7,0 4223.71,-110.41 4223.71,-246.6 0,-136.19 -1891.01,-246.6 -4223.71,-246.6 -2332.69,0 -4223.72,110.41 -4223.72,246.6 0,136.19 1891.03,246.6 4223.72,246.6z"/>
   <path class="fil5" d="M6017.18 1786.95c172.65,151.07 390.92,239.95 619.97,252.49 -176.05,-79.32 -326.21,-206.6 -433.28,-367.28 233.31,-176.02 379.7,-428.71 379.7,-709.29 0,-531.75 -525,-962.86 -1172.63,-962.86 -647.64,0 -1172.65,431.11 -1172.65,962.86 0,280.58 146.62,533.28 379.91,709.29 -107.09,160.74 -257.34,288.04 -433.49,367.28 229.13,-12.54 447.46,-101.42 620.19,-252.49 189.03,91.26 396.23,138.66 606.14,138.66 209.91,0 417.11,-47.4 606.14,-138.66z"/>
   <path class="fil6" d="M6017.18 1786.95c172.65,151.07 390.92,239.95 619.97,252.49 -176.05,-79.32 -326.21,-206.6 -433.28,-367.28 233.31,-176.02 379.7,-428.71 379.7,-709.29 0,-531.75 -525,-962.86 -1172.63,-962.86 -647.64,0 -1172.65,431.11 -1172.65,962.86 0,280.58 146.62,533.28 379.91,709.29 -107.09,160.74 -257.34,288.04 -433.49,367.28 229.13,-12.54 447.46,-101.42 620.19,-252.49 189.03,91.26 396.23,138.66 606.14,138.66 209.91,0 417.11,-47.4 606.14,-138.66z"/>
   <path class="fil5" d="M5410.47 1555.29c234.03,-83.7 339.43,-387.4 235.38,-678.3 -104.05,-290.91 -378.12,-458.88 -612.16,-375.17 -234.05,83.7 -339.42,387.39 -235.39,678.3 104.05,290.91 378.12,458.88 612.17,375.17z"/>
   <path class="fil7" d="M5407.27 1441.98c188.95,-67.58 274.03,-312.74 190.04,-547.57 -83.99,-234.84 -305.26,-370.42 -494.21,-302.84 -188.95,67.58 -274.04,312.74 -190.05,547.57 83.99,234.84 305.26,370.42 494.22,302.84z"/>
   <path class="fil5" d="M5405.75 1346.67c151.35,-54.14 219.52,-250.45 152.27,-438.51 -67.26,-188.05 -244.48,-296.61 -395.83,-242.48 -151.35,54.14 -219.5,250.46 -152.26,438.51 67.26,188.05 244.48,296.61 395.82,242.48z"/>
   <path class="fil7" d="M5506.57 926.7c51.64,144.43 3.06,293.86 -108.91,333.73 -111.97,39.86 -243.98,-43.57 -295.61,-189.09 -51.64,-145.51 -3.05,-293.86 108.91,-333.73 111.99,-39.86 244,44.66 295.61,189.09z"/>
   <path class="fil5" d="M5467.79 950.23c36.81,103.03 5.02,208.47 -71.01,235.7 -76.03,27.23 -167.75,-34.2 -204.56,-137.02 -36.8,-102.82 -5,-208.69 71.25,-235.92 76.23,-27.23 168.16,33.33 204.33,137.24z"/>
   <path class="fil7" d="M5441.88 958.72c26.57,74.28 6.3,149.65 -45.1,167.95 -51.42,18.3 -115.02,-26.79 -141.6,-101.29 -26.57,-74.5 -6.32,-149.44 45.1,-167.96 51.41,-18.52 115.03,27.45 141.6,101.3z"/>
   <polygon class="fil5" points="6055.96,622.61 5917.41,672.27 5890.84,798.18 5991.27,878.57 6129.81,829.12 6026.99,749.38 "/>
   <path class="fil8" d="M5370.21 1006.23c-4.71,0.26 -9.4,-1.02 -13.33,-3.65 -3.93,-2.63 -6.9,-6.48 -8.44,-10.94 -1.89,-5.43 -1.56,-11.39 0.93,-16.57 2.49,-5.18 6.93,-9.17 12.35,-11.1l678.12 -242.67c5.47,-1.93 11.46,-1.62 16.7,0.88 5.23,2.49 9.26,6.96 11.18,12.41 1.95,5.46 1.63,11.47 -0.85,16.69 -2.49,5.24 -6.97,9.26 -12.43,11.19l-678.13 242.46c-1.96,0.72 -4.02,1.16 -6.1,1.31z"/>
   <path class="fil9" d="M6016.99 2945.86l-33.99 -82.78c0,0 27.01,-25.91 23.52,-46.83 -3.48,-20.92 -143.99,-136.82 -169.91,-156.64 -25.94,-19.82 -67.97,53.15 -84.3,111.32 -16.35,58.16 130.7,160.1 152.47,150.3l23.55 82.35 88.66 -57.72z"/>
   <path class="fil8" d="M6871.59 2930.59c-259.01,31.6 -547.65,412.6 -631.74,364.02 -84.09,-48.58 -239.62,-398.22 -239.62,-398.22l-89.11 52.72c0,0 81.03,641.76 279.26,666.16 198.25,24.4 565.09,-181.67 565.09,-181.67l116.11 -503.01z"/>
   <path class="fil10" d="M6871.58 2930.8l-76.67 332.44 -39.42 169.91c-108.37,59.59 -221.89,109.24 -339.19,148.35 -80.61,25.27 -161.85,41.41 -225.47,33.55 -198,-24.17 -279.05,-665.93 -279.05,-665.93l88.89 -52.72c0,0 154.65,348.55 239.62,398.22 84.96,49.67 372.52,-332.21 631.3,-363.81z"/>
   <path class="fil11" d="M6794.91 3263.26l-39.44 169.91c-108.35,59.6 -221.88,109.25 -339.17,148.35 40.52,-219.58 290.16,-297.34 378.61,-318.26z"/>
   <path class="fil8" d="M7521.61 7761.65l191.48 0c3.1,-0.01 6.11,1.04 8.54,2.98 2.41,1.95 4.08,4.67 4.74,7.71l31.15 140.51c1.23,5.99 0.04,12.26 -3.31,17.4 -3.35,5.13 -8.57,8.73 -14.55,10.05 -1.75,0.2 -3.5,0.2 -5.23,0 -61.87,0 -106.97,-4.8 -184.95,-4.8 -47.94,0 -192.36,5.02 -258.59,5.02 -66.22,0 -74.71,-65.36 -47.7,-71.25 121.56,-26.57 213.06,-63.17 251.84,-98.01 7.25,-6.54 16.79,-9.99 26.57,-9.6z"/>
   <path class="fil8" d="M6548.94 7761.65l191.48 0c3.13,-0.01 6.19,1.01 8.64,2.96 2.45,1.94 4.18,4.67 4.88,7.72l30.94 140.51c0.66,2.98 0.72,6.05 0.19,9.07 -0.54,3 -1.69,5.85 -3.35,8.43 -1.67,2.54 -3.83,4.74 -6.36,6.46 -2.53,1.71 -5.37,2.9 -8.37,3.5 -1.65,0.2 -3.35,0.2 -4.99,0 -62.08,0 -107.18,-4.8 -184.95,-4.8 -47.91,0 -192.57,5.02 -258.59,5.02 -65.99,0 -74.92,-65.36 -47.7,-71.25 121.34,-26.57 212.83,-63.17 251.84,-98.01 7.18,-6.54 16.65,-9.99 26.34,-9.6z"/>
   <path class="fil8" d="M7683.44 4324.34c50.74,526.92 31.24,1058.24 -57.94,1580.02 0,0 143.99,1209.66 100.86,1868.85l-231.35 0c0,0 -385.36,-1334.72 -431.32,-1723.56 -45.97,-388.86 -111.54,-965.04 -111.54,-965.04 0,0 -117.87,545.9 -311.95,965.04 0,0 165.78,395.17 145.29,1761.25l-291.68 -24.19c0,0 -208.47,-1273.93 -310.65,-1736.63 -102.16,-462.69 95.86,-1357.57 259.89,-1833.56l1240.38 107.82z"/>
   <path class="fil12" d="M7683.44 4324.34c50.74,526.92 31.24,1058.24 -57.94,1580.02 0,0 143.99,1209.66 100.86,1868.85l-231.35 0c0,0 -385.36,-1334.72 -431.32,-1723.56 -45.97,-388.86 -111.54,-965.04 -111.54,-965.04 0,0 -117.87,545.9 -311.95,965.04 0,0 165.78,395.17 145.29,1761.25l-291.68 -24.19c0,0 -208.47,-1273.93 -310.65,-1736.63 -102.16,-462.69 95.86,-1357.57 259.89,-1833.56l1240.38 107.82z"/>
   <polygon class="fil8" points="6698.81,4364.87 7166.53,4423.69 7180.9,4318.04 6712.55,4264.23 "/>
   <polygon class="fil8" points="7216.6,4322.14 7202.02,4428.24 7685.39,4478.12 7680.82,4375.32 "/>
   <polygon class="fil8" points="6677.02,4260.3 6451.34,4234.38 6430.44,4330.88 6663.3,4360.3 "/>
   <path class="fil7" d="M6960.88 4404.95l-147.04 -16.77c-2.33,-0.19 -4.63,-0.85 -6.73,-1.93 -2.09,-1.09 -3.96,-2.57 -5.47,-4.38 -1.51,-1.81 -2.66,-3.89 -3.38,-6.13 -0.71,-2.26 -0.96,-4.61 -0.76,-6.97l12.19 -88.44c0.43,-2.43 1.32,-4.75 2.65,-6.83 1.35,-2.08 3.07,-3.88 5.1,-5.27 2.03,-1.4 4.32,-2.38 6.74,-2.88 2.41,-0.51 4.9,-0.52 7.32,-0.04l147.26 16.77c2.34,0.19 4.63,0.83 6.71,1.93 2.08,1.09 3.93,2.57 5.43,4.38 1.5,1.81 2.63,3.89 3.31,6.13 0.68,2.26 0.91,4.61 0.68,6.95l-12.19 88.45c-0.39,2.45 -1.29,4.79 -2.59,6.87 -1.32,2.1 -3.06,3.91 -5.1,5.31 -2.04,1.4 -4.34,2.38 -6.75,2.88 -2.43,0.49 -4.92,0.49 -7.35,-0.02z"/>
   <path class="fil8" d="M6443.12 4215.62c0,0 -137.47,-248.99 152.48,-675.29 0,0 84.32,-460.73 154.67,-533.5 70.37,-72.76 286.68,-169.48 595.36,-113.93 308.69,55.55 437.85,180.83 437.85,180.83l-49.65 973.51c0,0 27.43,122.86 -42.28,307.59l-1248.43 -139.21z"/>
   <path class="fil9" d="M7539.92 2927.11c-117.42,58.39 -393.2,75.81 -393.2,75.81l-152.49 -96.73c76.03,-6.96 123.74,-21.77 152.49,-43.56 45.75,-34.2 42.26,-81.91 27.67,-128.52 0,0 0,0 0,-1.51l210 -85.42 144.63 -58.81c-46.83,94.11 -103.92,269.48 10.9,338.75z"/>
   <path class="fil11" d="M7469.57 2669.2c-24.4,142.69 -208.92,192.58 -322.85,192.58 45.75,-34.21 42.26,-81.91 27.67,-128.52 0.21,-0.57 0.21,-1.19 0,-1.76l210 -85.39c4.35,17.43 87.57,5.24 85.17,23.09z"/>
   <path class="fil9" d="M7542.31 2311.27c-9.18,-27.45 -23.71,-52.82 -42.71,-74.65 -19.01,-21.83 -42.14,-39.69 -68.06,-52.59 -25.91,-12.88 -54.12,-20.52 -83,-22.51 -28.87,-1.99 -57.86,1.75 -85.29,10.97 -32.51,10.72 -61.87,29.38 -85.39,54.25 -57.72,30.29 -93.23,125.71 -87.14,189.97 -2.48,13.5 -4.42,27 -5.88,40.52 -13.71,36.6 -68.83,73.83 -39.2,185.8 36.81,139.21 186.04,175.37 280.79,152.49 42,-5.12 81.42,-23.07 112.84,-51.4 9.59,-8.49 18.54,-17.67 26.79,-27.46 61.66,-71.89 67.32,-162.3 85.62,-303.9 4.85,-34.1 1.63,-68.87 -9.38,-101.5z"/>
   <path class="fil8" d="M7304.2 2441.55c0,13.07 -8.51,23.09 -17.22,21.79 -8.7,-1.3 -14.59,-11.75 -13.93,-24.82 0.64,-13.07 8.71,-23.1 17.2,-21.8 8.5,1.31 14.82,11.54 13.95,24.83z"/>
   <path class="fil8" d="M7156.08 2431.53c0,13.07 -8.71,23.31 -17.22,21.77 -8.48,-1.52 -14.59,-11.75 -13.71,-24.82 0.88,-13.07 8.71,-23.31 17.22,-21.8 8.48,1.54 14.59,11.99 13.71,24.85z"/>
   <path class="fil13" d="M7202.68 2440.89c-18.33,38.97 -42.01,75.2 -70.36,107.61 8.52,7.1 18.5,12.21 29.24,15 10.72,2.78 21.94,3.17 32.84,1.13l8.27 -123.73z"/>
   <path class="fil8" d="M7357.54 2391.23c-1.38,0.32 -2.82,0.29 -4.2,-0.1 -1.36,-0.39 -2.63,-1.11 -3.64,-2.08 -6.55,-7.12 -14.67,-12.6 -23.69,-16.03 -9.05,-3.44 -18.76,-4.75 -28.37,-3.79 -2.01,0.37 -4.07,-0.06 -5.74,-1.21 -1.67,-1.15 -2.82,-2.9 -3.18,-4.9 -0.39,-1.99 0.05,-4.04 1.18,-5.72 1.15,-1.67 2.92,-2.84 4.9,-3.21 12.04,-1.46 24.24,-0.02 35.6,4.18 11.36,4.2 21.57,11.07 29.74,19.99 0.74,0.71 1.3,1.56 1.69,2.49 0.41,0.93 0.6,1.95 0.6,2.96 0,1.01 -0.19,2.03 -0.6,2.96 -0.39,0.93 -0.95,1.77 -1.69,2.49 -0.74,0.8 -1.63,1.46 -2.61,1.96z"/>
   <path class="fil8" d="M7101.61 2385.57c-1.56,-0.07 -3.08,-0.6 -4.36,-1.54 -0.72,-0.7 -1.29,-1.55 -1.69,-2.49 -0.39,-0.93 -0.59,-1.93 -0.59,-2.96 0,-1.01 0.2,-2.01 0.59,-2.94 0.4,-0.93 0.97,-1.79 1.69,-2.51 8.89,-8.45 19.71,-14.63 31.49,-18.02 11.81,-3.37 24.24,-3.83 36.27,-1.36 0.98,0.25 1.89,0.7 2.68,1.3 0.8,0.6 1.49,1.38 1.99,2.24 0.51,0.88 0.84,1.85 0.98,2.84 0.13,0.99 0.06,2.01 -0.2,2.98 -0.57,1.95 -1.85,3.6 -3.6,4.61 -1.75,1.01 -3.82,1.32 -5.78,0.84 -9.54,-1.63 -19.32,-1.03 -28.58,1.77 -9.28,2.78 -17.77,7.71 -24.79,14.35 -0.89,0.57 -1.9,0.93 -2.96,1.07 -1.05,0.15 -2.12,0.08 -3.15,-0.2z"/>
   <path class="fil8" d="M7169.56 2228.7c70.36,-31.79 75.16,21.79 75.16,21.79 0,0 45.53,-53.15 94.53,-44.86 49.01,8.27 119.59,102.16 123.74,114.36 4.14,12.2 -19.4,36.15 -19.4,36.15 0,0 5.45,148.14 7.2,189.09l60.56 110.67c67.71,-105.82 104.17,-228.59 105.22,-354.21 1.95,-211.08 -413.9,-200.84 -413.9,-200.84l-33.12 127.86z"/>
   <path class="fil9" d="M7611.57 2596.01c-11.87,16.24 -26.82,29.96 -44.02,40.41 -17.2,10.43 -36.29,17.35 -56.17,20.37 -53.15,7.85 -72.97,-41.38 -52.72,-88.23 18.52,-41.38 68.41,-96.72 119.17,-82.78 50.76,13.95 62.74,69.71 33.75,110.23z"/>
   <path class="fil8" d="M7200.75 2611.9c12.59,22.71 23.5,46.31 32.69,70.59l13.29 -2.85c60.78,-12.84 84.51,-38.99 92.59,-63.81 5.65,-19.42 4.18,-40.19 -4.14,-58.6 -28.11,26.13 -83.66,42.47 -113.72,49.88 -12.63,3.26 -20.7,4.78 -20.7,4.78z"/>
   <path class="fil7" d="M7221.39 2607.12l10.02 20.68c57.3,-12.41 95.62,-28.75 110,-49.88 -1.18,-7.14 -3.31,-14.1 -6.3,-20.68 -28.11,26.79 -83.66,42.47 -113.72,49.88z"/>
   <path class="fil14" d="M7246.7 2679.65c60.78,-12.86 84.52,-38.99 92.57,-63.83 -23.25,5.29 -45.37,14.67 -65.35,27.67 -12.57,8.96 -22.08,21.59 -27.22,36.16z"/>
   <path class="fil8" d="M7202.68 2101.72c-111.97,18.3 -130.71,171.87 -46.41,186.25 84.32,14.38 14.16,-38.77 14.16,-38.77 0,0 147.05,48.58 172.33,41.4 25.27,-7.19 -8.51,-41.4 -8.51,-41.4 0,0 96.73,69.5 176.68,42.05 79.95,-27.45 17.65,-242.46 -308.25,-189.52z"/>
   <polygon class="fil5" points="7077.66,2962.4 7099.63,3076.33 6937.57,3470.85 6980.92,3619.63 7069.8,3541.87 7122.94,3092.46 7255.4,3010.11 7226,2962.4 7129.27,2940.62 "/>
   <polygon class="fil8" points="7107.09,2834.96 7183.55,2930.37 7502.02,2828.43 7572.82,2954.56 7218.18,3123.61 7160.24,2977.22 6992.95,3073.51 6978.99,2896.4 "/>
   <path class="fil11" d="M7766.89 3202.67c-10.24,94.56 -23.74,239.64 -32.67,431.54 -45.47,-110.51 -54.08,-232.73 -24.63,-348.55 13.68,-31.03 33.13,-59.18 57.3,-83z"/>
   <path class="fil9" d="M7481.52 3932.23l-84.75 19.6c0,0 -19.8,-32.02 -40.29,-32.24 -20.46,-0.21 -155.98,122.23 -179.28,144.87 -23.31,22.65 38.11,78.64 90.62,105.88 52.49,27.22 175.59,-104.78 170.14,-128.09l82.55 -9.15 -38.99 -100.86z"/>
   <path class="fil8" d="M7784.09 3073.28c145.96,85.17 395.82,613.22 326.77,812.54 -49.46,143.35 -534.15,214.36 -649.82,160.98l-35.29 -107.16c0,0 377.95,-119.59 397.77,-192.78 15.68,-58.17 -131.79,-196.08 -131.79,-196.08 0,0 -27.66,-100.2 21.79,-336.56 22.22,-99.11 70.57,-140.93 70.57,-140.93z"/>
   <path class="fil10" d="M7784.09 3073.28c145.96,85.17 395.82,613.22 326.77,812.54 -49.46,143.35 -534.15,214.36 -649.82,160.98l-35.29 -107.16c0,0 377.95,-119.59 397.77,-192.78 15.68,-58.17 -131.79,-196.08 -131.79,-196.08 0,0 -27.66,-100.2 21.79,-336.56 22.22,-99.11 70.57,-140.93 70.57,-140.93z"/>
   <polygon class="fil10" points="7107.09,2834.96 7183.55,2930.37 7502.02,2828.43 7572.82,2954.56 7218.18,3123.61 7160.24,2977.22 6992.95,3073.51 6978.99,2896.4 "/>
   <path class="fil15" d="M4465.67 2729.32c-11.1,-24.82 0,-90.62 0,-90.62 0,0 184.95,-97.17 214.58,-120.68 29.63,-23.52 62.96,83.21 43.56,105.66 -19.38,22.43 -74.06,105.65 -166.42,105.65l-26.36 72.55 -65.36 -72.55z"/>
   <path class="fil5" d="M3964.63 2810.59c69.92,16.77 271.42,283.18 340.04,275.78 68.62,-7.41 150.98,-364.89 150.98,-364.89l100.64 30.27c0,0 -50.33,449.41 -178.41,509.75 -128.09,60.33 -435.68,-196.05 -435.68,-196.05l22.43 -254.87z"/>
   <path class="fil12" d="M3964.63 2810.59c69.92,16.77 271.42,283.18 340.04,275.78 68.62,-7.41 150.98,-364.89 150.98,-364.89l100.64 30.27c0,0 -50.33,449.41 -178.41,509.75 -128.09,60.33 -435.68,-196.05 -435.68,-196.05l22.43 -254.87z"/>
   <path class="fil11" d="M3964.66 3085.07c57.51,45.04 118.15,85.95 181.46,122.42 -9.3,-44.38 -28.16,-86.21 -55.29,-122.55 -27.12,-36.35 -61.85,-66.35 -101.77,-87.89l-24.4 88.02z"/>
   <path class="fil8" d="M3289.31 7681.48l-199.09 0c-3.27,0.04 -6.44,1.17 -8.97,3.23 -2.53,2.07 -4.28,4.92 -4.98,8.11l-32.24 145.96c-0.68,3.1 -0.74,6.31 -0.15,9.42 0.56,3.13 1.73,6.11 3.46,8.79 1.71,2.66 3.93,4.96 6.55,6.77 2.61,1.81 5.54,3.09 8.66,3.77l5.43 0c65.37,-1.09 111.32,-5.02 192.14,-5.02 49.88,0 200.2,5.24 269.04,5.24 68.83,0 77.76,-67.97 49.66,-74.28 -126.34,-27.45 -221.54,-65.35 -261.4,-101.97 -7.71,-6.86 -17.78,-10.44 -28.11,-10.02z"/>
   <path class="fil8" d="M4133.7 7676.27l-199.11 0c-3.26,0.04 -6.42,1.17 -8.95,3.23 -2.55,2.06 -4.3,4.92 -5,8.11l-32.24 146.39c-0.66,3.09 -0.72,6.3 -0.15,9.43 0.56,3.13 1.75,6.11 3.46,8.77 1.71,2.67 3.95,4.98 6.55,6.79 2.61,1.82 5.54,3.08 8.66,3.76l5.45 0c65.35,-1.09 111.3,-5.02 192.12,-5.02 49.9,0 200.19,5.24 269.03,5.24 68.85,0 77.78,-67.96 49.67,-74.28 -126.34,-27.45 -221.55,-65.35 -261.41,-101.95 -7.68,-6.94 -17.74,-10.7 -28.09,-10.46z"/>
   <path class="fil8" d="M3183.67 3989.96l870.06 0c82.54,451.8 341.55,2286.02 155.73,3710.49l-294.51 0c0,0 27.9,-2163.16 -233.53,-2862.21 -29.19,374.02 -333.3,2860.69 -333.3,2860.69l-299.74 0c0,0 44.66,-935.41 89.52,-1818.97 28.33,-556.37 44.46,-1775.85 45.76,-1890z"/>
   <path class="fil16" d="M3681.46 4838.23c42.74,122.57 75.25,248.48 97.14,376.42 24.4,-332.85 -72.96,-685.96 -72.96,-685.96l-24.19 309.54z"/>
   <polygon class="fil17" points="4060.94,4000.41 3185.22,4000.41 3185.22,4104.54 4072.26,4093.88 "/>
   <polygon class="fil8" points="3466.67,4138.52 3498.03,4138.52 3498.03,3953.37 3466.67,3953.37 "/>
   <polygon class="fil8" points="3909.73,4138.52 3941.1,4138.52 3941.1,3953.37 3909.73,3953.37 "/>
   <polygon class="fil7" points="3661.65,4098.88 3823.72,4098.88 3823.72,3982.1 3661.65,3982.1 "/>
   <path class="fil16" d="M3346.88 4124.15l-150.96 0 -1.75 34.84 -8.93 -1.3c-33.54,335.47 68.83,419.35 68.83,419.35 -45.31,-47.27 -57.06,-239.63 -57.06,-239.63 42.74,-17.49 79.59,-46.87 106.17,-84.67 26.56,-37.8 41.74,-82.43 43.7,-128.58z"/>
   <path class="fil15" d="M3192.85 4040.5l94.77 124.83c0,0 14.38,-15.25 43.56,27.44 -22.71,58.62 -66.64,106.52 -123.08,134.21l12.2 -94.56 -97.59 -127.87 70.14 -64.05z"/>
   <path class="fil5" d="M3095.47 2907.75c-80.81,-15.04 -355.75,673.79 -300.84,815.6 54.9,141.8 364.01,479.25 364.01,479.25l95.42 -89.32c0,0 -253.79,-338.31 -290.38,-449.61 -36.59,-111.33 166,-464.45 166,-464.45 14.79,-54.9 20.39,-111.87 16.55,-168.6 -4.28,-45.1 -21.94,-87.89 -50.76,-122.86z"/>
   <path class="fil12" d="M3095.47 2907.75c-80.81,-15.04 -355.75,673.79 -300.84,815.6 54.9,141.8 364.01,479.25 364.01,479.25l95.42 -89.32c0,0 -253.79,-338.31 -290.38,-449.61 -36.59,-111.33 166,-464.45 166,-464.45 14.79,-54.9 20.39,-111.87 16.55,-168.6 -4.28,-45.1 -21.94,-87.89 -50.76,-122.86z"/>
   <path class="fil5" d="M4074.65 3673.23c0,14.38 0,28.55 0,42.28 0,30.05 -1.09,58.36 -1.75,84.3 -1.51,36.38 -3.03,68.61 -4.57,96.28 -4.13,65.36 -8.49,104.34 -8.49,104.34l-885.97 0c-2.18,-32.02 -4.36,-64.05 -6.3,-95.86 -1.96,-31.79 -3.93,-58.8 -5.9,-87.11 -1.94,-28.33 -3.49,-51.64 -5.21,-77.12 -1.09,-12.86 -1.75,-25.91 -2.84,-38.77 -2.4,-35.94 -5,-71.47 -7.41,-106.31 0,-7.2 0,-14.16 -1.52,-21.8 -3.26,-48.13 -6.54,-95.41 -10.02,-141.36 -1.31,-18.97 -2.85,-37.47 -4.15,-56 -5.24,-70.58 -10.02,-137.67 -14.8,-200.41 -3.06,-39.86 -5.88,-78.21 -8.72,-114.15 -4.14,-57.08 -8.05,-108.93 -11.54,-154.22l869.19 -96.73c74.28,239.63 101.28,503.43 108.91,722.58 0,7.84 0,15.68 0,23.1 0,40.74 1.31,79.72 1.09,116.96z"/>
   <path class="fil11" d="M3107.01 3061.09c2.85,36.17 5.66,74.28 8.72,114.37 4.79,62.74 9.59,129.63 14.82,200.41 17.59,-87.84 26.34,-177.24 26.13,-266.85l-49.67 -47.92z"/>
   <path class="fil12" d="M4073.59 3799.57c-1.51,36.38 -3.05,68.61 -4.57,96.28l-900.33 8.5c-2.18,-29.42 -3.93,-58.81 -5.9,-87.14l910.8 -17.65z"/>
   <path class="fil12" d="M4074.68 3673.23c0,14.38 0,28.55 0,42.26l-918.21 23.1c-1.09,-12.86 -1.73,-25.92 -2.82,-38.78l921.03 -26.57z"/>
   <path class="fil12" d="M4073.55 3556.24l-927.12 38.11c0,-7.18 0,-14.16 -1.52,-21.79l928 -39.87c0.65,8.29 0.65,16.13 0.65,23.55z"/>
   <path class="fil15" d="M3368.22 2883.11c78.2,65.36 196.05,85.82 196.05,85.82 0,0 134.19,-100.64 108.92,-135.49 -68.17,-8.06 -58.61,-28.55 -73.83,-68.41 -8.6,-24.75 -12.08,-50.97 -10.26,-77.12 0.38,-14.57 1.6,-29.13 3.72,-43.56l-235.28 -158.58c35.08,110.21 80.6,313.46 10.68,397.34z"/>
   <path class="fil11" d="M3415.27 2590.99c15.04,136.15 128.97,168.84 184.3,174.27 -8.6,-24.75 -12.08,-50.97 -10.25,-77.11l-174.05 -97.16z"/>
   <path class="fil8" d="M3647.72 2087.79c0,0 96.29,199.97 9.6,314.99 -86.72,115.03 -206.53,-276.21 -206.53,-276.21l196.93 -38.77z"/>
   <path class="fil15" d="M3384.97 2668.76c33.94,27.41 75.94,42.91 119.54,44.14 43.62,1.21 86.42,-11.93 121.84,-37.39 46.47,-32.01 78.97,-80.55 90.84,-135.73 1.77,-7.68 3.07,-15.46 3.93,-23.3 15.47,-145.08 -35.95,-374.68 -197.38,-417.15 -35.58,-9.51 -73.03,-9.77 -108.76,-0.74 -35.72,9.02 -68.54,27.02 -95.35,52.3 -26.83,25.27 -46.75,56.97 -57.88,92.08 -11.13,35.12 -13.1,72.52 -5.74,108.61 29.42,155.12 39.44,247.69 128.97,317.19z"/>
   <path class="fil8" d="M3499.35 2364.66c0,12.63 9.6,21.77 18.1,21.77 8.48,0 13.71,-12.41 12.2,-25.04 -1.54,-12.65 -10.04,-21.8 -18.31,-21.8 -8.27,0 -13.5,12.2 -11.99,25.06z"/>
   <path class="fil8" d="M3643.37 2345.92c0,12.84 9.8,21.8 18.07,21.8 8.29,0 13.74,-12.43 12.2,-25.06 -1.52,-12.65 -9.79,-21.8 -18.07,-21.8 -8.27,0 -13.72,13.07 -12.2,25.06z"/>
   <path class="fil14" d="M3598.46 2358.12c20.18,37.08 45.39,71.17 74.95,101.31 -7.98,7.34 -17.43,12.88 -27.73,16.23 -10.31,3.35 -21.2,4.41 -31.96,3.15l-15.25 -120.68z"/>
   <path class="fil8" d="M3688.42 2280.13c-1.22,0.68 -2.63,1.05 -4.02,1.05 -1.42,0 -2.8,-0.37 -4.03,-1.05 -8.17,-4.69 -17.33,-7.43 -26.75,-7.99 -9.4,-0.59 -18.82,1.04 -27.49,4.73 -1.73,0.95 -3.77,1.18 -5.68,0.62 -1.9,-0.54 -3.5,-1.83 -4.46,-3.56 -0.96,-1.73 -1.18,-3.77 -0.63,-5.68 0.54,-1.88 1.83,-3.5 3.56,-4.45 10.86,-5 22.74,-7.32 34.69,-6.79 11.93,0.53 23.56,3.91 33.93,9.85 1.79,0.93 3.13,2.53 3.76,4.46 0.6,1.9 0.43,3.99 -0.49,5.78 -0.66,1.13 -1.46,2.14 -2.4,3.05z"/>
   <path class="fil8" d="M3463.63 2311.06c-1.42,0.45 -2.93,0.45 -4.35,0 -1.38,-1.42 -2.18,-3.33 -2.18,-5.33 0,-1.99 0.8,-3.91 2.18,-5.33 7.76,-9.2 17.59,-16.38 28.69,-20.97 11.11,-4.6 23.18,-6.44 35.14,-5.39 1.99,0.33 3.77,1.42 4.96,3.05 1.19,1.64 1.68,3.66 1.37,5.66 -0.38,1.93 -1.46,3.64 -3.01,4.81 -1.58,1.16 -3.54,1.71 -5.49,1.51 -9.47,-0.58 -18.95,1.07 -27.66,4.87 -8.71,3.79 -16.4,9.59 -22.43,16.91 -1.09,0.62 -2.31,0.97 -3.56,1.01 -1.26,0.04 -2.51,-0.23 -3.64,-0.79z"/>
   <path class="fil8" d="M3345.75 2141.58l18.74 27.02c-48.36,25.91 -27.66,83.64 -12.43,108.91 32.24,53.82 15.46,148.8 -21.77,192.36 0,0 -5.9,-24.61 -25.94,-15.04 -20.04,9.59 8.93,138.56 61,193.23 0,0 -72.11,-44.88 -130.71,-174.28 -54.89,-120.45 -77.76,-224.81 -60.55,-278.18l171.66 -54.03z"/>
   <path class="fil15" d="M3204.39 2488.83c10.74,16.63 24.65,30.95 40.95,42.18 16.3,11.21 34.67,19.09 54.03,23.17 51.64,10.24 73.4,-37.02 55.76,-83.87 -15.9,-41.38 -62.08,-97.81 -112.4,-87.12 -50.33,10.66 -64.93,64.47 -38.35,105.65z"/>
   <path class="fil8" d="M3613.7 2528.71c-11.19,19.86 -20.86,40.55 -28.97,61.85 -4.14,0 -8.05,-1.51 -11.99,-2.61 -53.15,-11.77 -74.06,-34.84 -81.03,-56.85 -3.17,-10.76 -3.69,-22.12 -1.51,-33.11 0.97,-6.34 2.88,-12.51 5.66,-18.31 29.74,21.52 63.78,36.36 99.77,43.58 11.11,4.13 18.07,5.45 18.07,5.45z"/>
   <path class="fil7" d="M3595.64 2524.34l-8.93 18.07c-50.33,-11.32 -84.09,-25.92 -96.5,-43.56 0.97,-6.35 2.88,-12.52 5.66,-18.31 29.72,21.57 63.75,36.52 99.76,43.8z"/>
   <path class="fil14" d="M3572.52 2587.94c-53.15,-11.75 -74.07,-34.85 -81.03,-56.85 20.2,4.88 39.36,13.29 56.64,24.82 11.31,7.84 19.85,19.05 24.4,32.02z"/>
   <path class="fil8" d="M3167.55 2292.11c0,0 -78.85,-122.87 67.53,-253.99 146.38,-131.15 339.17,-76.25 379.91,-21.8 0,0 116.77,25.7 58.81,141.6l-76.89 -60.57c0,0 -122.22,198.68 -429.37,194.75z"/>
   <polygon class="fil5" points="3715.64,2843.25 3639.18,3432.29 3325.71,2886.39 3560.31,2928.21 "/>
   <polygon class="fil12" points="3715.64,2843.25 3655.29,3307.68 3639.18,3432.29 3579.7,3328.81 3325.71,2886.39 3560.31,2928.21 "/>
   <polygon class="fil8" points="3655.31,3307.69 3639.2,3432.29 3579.72,3328.83 3566.88,3071.99 3459.92,2963.06 3560.35,2928.21 3570.15,2924.95 3656.4,2935.62 3608.7,3055 "/>
   <polygon class="fil5" points="3395.63,2818.21 3560.75,2908.17 3615,2797.08 3715.64,2843.27 3678.6,3017.97 3571.41,2951.97 3491.48,3054.13 3325.71,2886.39 "/>
   <polygon class="fil6" points="3395.63,2818.21 3560.75,2908.17 3615,2797.08 3715.64,2843.27 3678.6,3017.97 3571.41,2951.97 3491.48,3054.13 3325.71,2886.39 "/>
  </g>
 </g>
</svg>
