<svg width="438" height="320" viewBox="0 0 438 320" fill="none" xmlns="http://www.w3.org/2000/svg">
<path d="M64.4292 285.576C149.783 330.163 288.157 330.163 373.51 285.576C458.864 240.99 458.854 168.696 373.51 124.109C288.167 79.5223 149.783 79.5223 64.4292 124.109C-20.9242 168.696 -20.914 241.02 64.4292 285.576Z" fill="#F5F5F5"/>
<path d="M318.41 209.37C333.894 216.756 359.004 216.756 374.436 209.37C389.869 201.985 389.92 190.016 374.436 182.641C358.953 175.266 333.843 175.266 318.41 182.641C302.977 190.016 302.926 201.995 318.41 209.37Z" fill="#E0E0E0"/>
<path d="M134.359 39.601C134.239 39.601 134.124 39.5541 134.038 39.4703C133.953 39.3865 133.903 39.2725 133.9 39.1527V20.8169C133.9 13.1668 138.107 4.51838 143.272 1.5439C145.432 0.301133 147.581 0.158518 149.323 1.16699C151.717 2.54218 153.082 5.863 153.082 10.2636V28.4874C153.083 28.5466 153.072 28.6055 153.05 28.6605C153.028 28.7156 152.995 28.7655 152.954 28.8074C152.912 28.8493 152.862 28.8823 152.807 28.9043C152.752 28.9264 152.693 28.937 152.634 28.9356C152.574 28.937 152.514 28.9264 152.459 28.9045C152.403 28.8825 152.353 28.8497 152.31 28.808C152.267 28.7662 152.233 28.7163 152.21 28.6613C152.187 28.6062 152.175 28.5471 152.175 28.4874V10.2942C152.175 6.21953 150.973 3.16355 148.864 1.98191C147.398 1.13643 145.625 1.26885 143.771 2.35882C138.861 5.20087 134.858 13.4927 134.858 20.8475V39.1833C134.854 39.2441 134.838 39.3035 134.811 39.3578C134.783 39.4122 134.745 39.4604 134.698 39.4995C134.651 39.5386 134.597 39.5677 134.539 39.5852C134.481 39.6026 134.419 39.608 134.359 39.601Z" fill="#455A64"/>
<path d="M187.277 104.041L185.27 17.8318L170.601 9.37695L168.859 93.4162L187.277 104.041Z" fill="#FFCA05"/>
<g opacity="0.2">
<path d="M187.279 104.041L185.272 17.8318L170.603 9.37695L168.861 93.4162L187.279 104.041Z" fill="black"/>
</g>
<path d="M119.038 39.1523L117.307 123.181L168.861 93.4162L170.603 9.37695L119.038 39.1523Z" fill="#FFCA05"/>
<g opacity="0.4">
<path d="M119.04 39.1523L117.309 123.181L168.863 93.4162L170.605 9.37695L119.04 39.1523Z" fill="black"/>
</g>
<path d="M133.719 47.5972L135.715 133.806L187.28 104.041L185.273 17.832L133.719 47.5972Z" fill="#FFCA05"/>
<path d="M119.038 39.1533L133.717 47.598L135.714 133.807L117.307 123.182L119.038 39.1533Z" fill="#FFCA05"/>
<g opacity="0.2">
<path d="M119.04 39.1523L133.719 47.597L135.716 133.806L117.309 123.181L119.04 39.1523Z" fill="black"/>
</g>
<path opacity="0.2" d="M135.714 133.807L128.267 121.002L126.933 68.8672L125.609 120.238L117.307 123.182L135.714 133.807Z" fill="black"/>
<g opacity="0.2">
<path d="M149.068 45.4377C148.532 45.7871 148.086 46.2578 147.766 46.8117C147.445 47.3656 147.26 47.9872 147.225 48.6261C147.225 49.7976 148.05 50.2865 149.068 49.7059C149.613 49.3506 150.064 48.8702 150.385 48.3049C150.705 47.7396 150.886 47.1058 150.912 46.4564C150.912 45.2849 150.087 44.796 149.068 45.4377Z" fill="black"/>
</g>
<g opacity="0.2">
<path d="M167.342 34.7524C166.806 35.1018 166.359 35.5725 166.039 36.1264C165.719 36.6804 165.533 37.3019 165.498 37.9408C165.498 39.1225 166.323 39.6012 167.342 39.0206C167.876 38.6701 168.32 38.1989 168.639 37.6451C168.957 37.0912 169.141 36.4702 169.175 35.8322C169.175 34.6506 168.36 34.1718 167.342 34.7524Z" fill="black"/>
</g>
<path d="M149.07 47.974C149.002 47.9802 148.935 47.9716 148.871 47.9488C148.808 47.9259 148.75 47.8893 148.703 47.8417C148.655 47.794 148.618 47.7364 148.596 47.673C148.573 47.6096 148.564 47.5419 148.57 47.4748V29.139C148.57 21.499 152.777 12.8404 157.932 9.87614C160.102 8.62319 162.251 8.49077 163.983 9.48905C166.377 10.8744 167.752 14.1953 167.752 18.5959V36.8808C167.761 36.946 167.757 37.0126 167.739 37.0759C167.721 37.1393 167.689 37.198 167.646 37.248C167.603 37.298 167.549 37.3381 167.489 37.3656C167.43 37.3931 167.364 37.4073 167.298 37.4073C167.232 37.4073 167.167 37.3931 167.107 37.3656C167.047 37.3381 166.994 37.298 166.951 37.248C166.908 37.198 166.876 37.1393 166.858 37.0759C166.84 37.0126 166.835 36.946 166.845 36.8808V18.6672C166.845 14.5925 165.643 11.5366 163.534 10.3447C162.068 9.49925 160.285 9.63167 158.441 10.7318C153.531 13.5637 149.528 21.8556 149.528 29.2103V47.5461C149.52 47.6623 149.468 47.7712 149.383 47.8507C149.298 47.9301 149.186 47.9742 149.07 47.974Z" fill="#455A64"/>
<path d="M69.1117 83.841C69.0614 83.8424 69.0112 83.8336 68.9643 83.8153C68.9174 83.797 68.8747 83.7694 68.8386 83.7343C68.8025 83.6992 68.7738 83.6572 68.7542 83.6108C68.7347 83.5643 68.7246 83.5145 68.7246 83.4641V68.1843C68.7246 61.7769 72.2492 54.5444 76.5683 52.0487C77.3081 51.5375 78.1734 51.238 79.071 51.1823C79.9685 51.1267 80.8642 51.317 81.6616 51.7329C83.6989 52.884 84.8194 55.665 84.8194 59.3525V74.6324C84.8046 74.723 84.758 74.8053 84.688 74.8648C84.618 74.9242 84.5292 74.9569 84.4374 74.9569C84.3456 74.9569 84.2568 74.9242 84.1868 74.8648C84.1168 74.8053 84.0702 74.723 84.0554 74.6324V59.3525C84.0554 55.94 83.0367 53.4035 81.2847 52.3849C80.6044 52.0434 79.844 51.8933 79.085 51.9507C78.326 52.0081 77.5969 52.2709 76.9757 52.7109C72.9011 55.0843 69.5192 62.0214 69.5192 68.1843V83.4641C69.5193 83.5163 69.5087 83.5679 69.4878 83.6158C69.467 83.6636 69.4365 83.7066 69.3982 83.742C69.3599 83.7775 69.3147 83.8046 69.2653 83.8216C69.216 83.8387 69.1637 83.8453 69.1117 83.841Z" fill="#455A64"/>
<path d="M113.436 137.789L111.755 65.6173L99.4704 58.5479L98.0137 128.896L113.436 137.789Z" fill="#FFCA05"/>
<g opacity="0.2">
<path d="M113.434 137.789L111.753 65.6173L99.4684 58.5479L98.0117 128.896L113.434 137.789Z" fill="black"/>
</g>
<path d="M56.3082 83.4642L54.8516 153.813L98.0121 128.896L99.4688 58.5479L56.3082 83.4642Z" fill="#FFCA05"/>
<g opacity="0.4">
<path d="M56.3082 83.4642L54.8516 153.813L98.0121 128.896L99.4688 58.5479L56.3082 83.4642Z" fill="black"/>
</g>
<path d="M68.5957 90.5336L70.2663 162.716L113.437 137.789L111.756 65.6172L68.5957 90.5336Z" fill="#FFCA05"/>
<path d="M56.3082 83.4639L68.5933 90.5334L70.2639 162.715L54.8516 153.812L56.3082 83.4639Z" fill="#FFCA05"/>
<g opacity="0.2">
<path d="M56.3082 83.4648L68.5933 90.5343L70.2639 162.716L54.8516 153.813L56.3082 83.4648Z" fill="black"/>
</g>
<path opacity="0.2" d="M70.2639 162.716L64.0297 151.99L62.9193 108.351L61.7988 151.348L54.8516 153.813L70.2639 162.716Z" fill="black"/>
<g opacity="0.2">
<path d="M81.4405 88.6799C80.9932 88.9758 80.6212 89.3721 80.3541 89.8372C80.087 90.3024 79.9323 90.8235 79.9023 91.359C79.9023 92.3776 80.595 92.7444 81.4405 92.2554C81.893 91.9665 82.2696 91.5734 82.539 91.1091C82.8084 90.6448 82.9626 90.1227 82.9889 89.5865C82.9889 88.5984 82.2962 88.2215 81.4405 88.6799Z" fill="#455A64"/>
</g>
<g opacity="0.2">
<path d="M96.7393 79.7869C96.2911 80.0794 95.9182 80.4735 95.6509 80.9373C95.3836 81.401 95.2296 81.9213 95.2012 82.4558C95.2012 83.4744 95.8939 83.8411 96.7393 83.3624C97.1887 83.0711 97.5625 82.6772 97.8299 82.2132C98.0974 81.7492 98.2508 81.2284 98.2775 80.6935C98.2775 79.6952 97.6358 79.2979 96.7393 79.7869Z" fill="#455A64"/>
</g>
<path d="M81.4394 90.8498C81.3402 90.8472 81.2459 90.8067 81.1757 90.7365C81.1056 90.6664 81.0651 90.572 81.0625 90.4729V75.1421C81.0625 68.7449 84.5769 61.5124 88.9062 59.0167C89.6455 58.505 90.5102 58.2043 91.4076 58.1468C92.3049 58.0894 93.2009 58.2774 93.9994 58.6908C96.0368 59.852 97.1471 62.633 97.1471 66.3103V81.5902C97.1485 81.6401 97.1397 81.6897 97.1213 81.7361C97.1028 81.7824 97.0751 81.8245 97.0398 81.8598C97.0046 81.8951 96.9624 81.9228 96.9161 81.9413C96.8697 81.9597 96.8201 81.9685 96.7702 81.9671C96.6702 81.9671 96.5744 81.9274 96.5037 81.8567C96.433 81.786 96.3933 81.6902 96.3933 81.5902V66.3103C96.3933 62.908 95.3746 60.3716 93.6124 59.3529C92.9351 59.0067 92.1756 58.8539 91.4172 58.9115C90.6588 58.969 89.9309 59.2345 89.3136 59.6789C85.239 62.0523 81.8571 68.9894 81.8571 75.1421V90.4729C81.8558 90.5255 81.8439 90.5774 81.8219 90.6252C81.8 90.6731 81.7685 90.716 81.7294 90.7513C81.6903 90.7866 81.6444 90.8135 81.5946 90.8304C81.5447 90.8474 81.4919 90.854 81.4394 90.8498Z" fill="#455A64"/>
<path d="M60.8448 199.327L65.9992 196.689C65.9992 196.689 65.1333 186.94 63.3812 177.202C60.967 163.806 50.21 150.655 38.3426 151.053C26.4753 151.45 29.2664 160.333 34.6551 164.876C38.0676 167.759 57.2285 181.938 60.8448 199.327Z" fill="#FFCA05"/>
<g opacity="0.1">
<path d="M60.8448 199.327L65.9992 196.689C65.9992 196.689 65.1333 186.94 63.3812 177.202C60.967 163.806 50.21 150.655 38.3426 151.053C26.4753 151.45 29.2664 160.333 34.6551 164.876C38.0676 167.759 57.2285 181.938 60.8448 199.327Z" fill="black"/>
</g>
<path d="M63.3819 198.237H63.3208C63.1513 198.219 62.9957 198.135 62.8872 198.004C62.7786 197.872 62.7259 197.704 62.7401 197.534C64.1153 183.975 50.9135 160.006 35.5012 154.231C35.3419 154.171 35.2127 154.051 35.142 153.896C35.0713 153.741 35.065 153.565 35.1243 153.406C35.1838 153.246 35.3042 153.117 35.4589 153.046C35.6136 152.976 35.79 152.969 35.9494 153.029C51.7997 158.988 65.4294 183.649 64.0236 197.707C63.999 197.858 63.9204 197.995 63.8023 198.092C63.6843 198.19 63.5349 198.241 63.3819 198.237Z" fill="white"/>
<path d="M64.44 210.776L65.9986 200.417C64.847 193.686 61.4676 187.537 56.4028 182.957C47.8461 175.113 35.8158 171.619 27.7785 174.003C19.7413 176.387 20.9026 184.281 27.9925 186.95C35.0823 189.619 44.6577 189.497 53.4589 195.629C59.4588 199.897 64.7355 207.17 64.44 210.776Z" fill="#FFCA05"/>
<path d="M65.0428 204.349C64.8939 204.347 64.7504 204.293 64.637 204.196C64.5237 204.099 64.4474 203.966 64.4214 203.82C62.1498 191.046 42.2962 177.64 27.7498 179.056C27.6665 179.066 27.5821 179.059 27.5017 179.035C27.4212 179.011 27.3464 178.972 27.2817 178.919C27.217 178.865 27.1637 178.799 27.1251 178.725C27.0865 178.651 27.0634 178.569 27.0571 178.485C27.0472 178.402 27.0542 178.317 27.0777 178.236C27.1012 178.155 27.1407 178.079 27.1939 178.014C27.2471 177.948 27.3129 177.894 27.3873 177.854C27.4618 177.815 27.5435 177.79 27.6275 177.783C42.9889 176.255 63.2805 190.007 65.654 203.595C65.6702 203.678 65.6698 203.762 65.6529 203.845C65.6359 203.927 65.6028 204.005 65.5554 204.074C65.5079 204.143 65.4472 204.202 65.3767 204.248C65.3062 204.293 65.2273 204.324 65.1447 204.339L65.0428 204.349Z" fill="white"/>
<path d="M281.076 131.648L257.463 118.018L227.647 100.803H227.576C224.897 99.3156 223.226 96.0457 223.226 91.3701C223.226 86.888 221.698 83.6996 219.223 82.1309L239.596 93.8862L242.815 95.7401L272.59 112.925L272.916 113.118C275.473 114.646 277.052 117.876 277.052 122.429C277.052 126.982 278.559 130.089 281.076 131.648Z" fill="#FFCA05"/>
<g opacity="0.1">
<path d="M281.076 131.648L257.463 118.018L227.647 100.803H227.576C224.897 99.3156 223.226 96.0457 223.226 91.3701C223.226 86.888 221.698 83.6996 219.223 82.1309L239.596 93.8862L242.815 95.7401L272.59 112.925L272.916 113.118C275.473 114.646 277.052 117.876 277.052 122.429C277.052 126.982 278.559 130.089 281.076 131.648Z" fill="black"/>
</g>
<path d="M305.98 98.4796V105.661C305.98 114.9 299.501 126.126 291.505 130.741C287.562 133.022 283.977 133.267 281.369 131.82L281.073 131.647C278.557 130.089 276.999 126.89 276.999 122.388C276.999 117.885 275.42 114.605 272.863 113.077L272.537 112.883L242.762 95.6987C248.262 90.147 252.174 81.7736 252.174 74.6023V67.4717L305.98 98.4796Z" fill="#FFCA05"/>
<path d="M272.562 112.884C269.954 111.509 266.45 111.774 262.538 114.025C260.67 115.123 258.957 116.466 257.445 118.018C251.944 123.56 248.042 131.933 248.042 139.104C248.042 148.344 241.554 159.569 233.557 164.194L219.072 172.557L165.297 141.498L179.782 133.135C187.779 128.521 194.268 117.285 194.268 108.046C194.268 98.8063 200.746 87.5807 208.753 82.9662C212.685 80.6945 216.26 80.4501 218.868 81.8864L219.214 82.0799L239.588 93.8352L242.807 95.6892L272.562 112.884Z" fill="#FFCA05"/>
<g opacity="0.4">
<path d="M272.558 112.883C269.95 111.508 266.446 111.773 262.534 114.024C260.666 115.122 258.953 116.465 257.441 118.017C251.94 123.559 248.039 131.932 248.039 139.103C248.039 148.343 241.55 159.568 233.553 164.193L219.068 172.556L165.293 141.497L179.778 133.134C187.775 128.52 194.264 117.284 194.264 108.045C194.264 98.8053 200.742 87.5797 208.749 82.9652C212.681 80.6936 216.256 80.4491 218.864 81.8854L219.211 82.079L239.584 93.8343L242.803 95.6882L272.558 112.883Z" fill="white"/>
</g>
<path d="M231.456 145.827C231.12 143.586 229.297 142.771 227.096 144.045L219.09 148.659L202.791 158.061C199.814 159.694 196.945 161.518 194.204 163.521C189.994 167.136 186.087 171.088 182.52 175.338C175.389 183.487 168.259 192.329 161.128 196.444L124.161 217.785C122.877 218.623 121.809 219.751 121.043 221.078C120.277 222.406 119.834 223.895 119.75 225.425V239.126C119.75 241.734 121.451 242.905 123.641 241.938C122.322 242.501 120.895 242.769 119.461 242.723C118.027 242.677 116.62 242.319 115.339 241.673L66.2604 213.324C64.9769 212.486 63.9087 211.358 63.1424 210.031C62.3761 208.703 61.9332 207.214 61.8496 205.684V191.983C61.9316 190.452 62.3738 188.962 63.1403 187.635C63.9067 186.307 64.9758 185.179 66.2604 184.343L103.227 162.951C110.358 158.876 117.489 149.994 124.619 141.855C128.201 137.614 132.122 133.672 136.344 130.069C139.083 128.069 141.948 126.249 144.921 124.619L161.22 115.217L169.216 110.592C170.583 109.899 172.094 109.537 173.627 109.537C175.16 109.537 176.671 109.899 178.038 110.592L227.147 138.951C228.312 139.727 229.298 140.741 230.041 141.926C230.784 143.112 231.266 144.441 231.456 145.827Z" fill="#455A64"/>
<path d="M123.916 227.493C123.916 227.493 61.8492 191.973 61.8594 191.667C61.8594 191.667 61.8594 191.871 61.8594 191.973V205.674C61.9414 207.204 62.3836 208.694 63.1501 210.022C63.9165 211.349 64.9855 212.477 66.2702 213.313L115.38 241.673C116.747 242.366 118.258 242.728 119.79 242.728C121.323 242.728 122.834 242.366 124.201 241.673L126.3 240.461L123.916 227.493Z" fill="#37474F"/>
<path d="M227.089 144.034L202.814 158.061C199.839 159.694 196.97 161.514 194.227 163.511C183.205 172.414 172.183 190.088 161.161 196.434L124.194 217.826C122.909 218.662 121.84 219.79 121.074 221.118C120.307 222.445 119.865 223.935 119.783 225.466V239.167C119.783 241.978 121.759 243.119 124.194 241.714L227.078 182.305C228.362 181.468 229.43 180.34 230.196 179.012C230.963 177.685 231.406 176.196 231.489 174.665V146.581C231.51 143.77 229.533 142.629 227.089 144.034Z" fill="#263238"/>
<path d="M194.54 153.283C191.562 154.916 188.694 156.74 185.953 158.743C183.831 160.494 181.82 162.375 179.932 164.377C179.519 164.775 178.991 165.034 178.422 165.117C177.854 165.199 177.274 165.1 176.764 164.835L138.901 142.975C138.678 142.866 138.484 142.704 138.338 142.503C138.191 142.303 138.095 142.069 138.059 141.824C138.023 141.578 138.047 141.327 138.13 141.092C138.213 140.858 138.352 140.648 138.534 140.479C140.429 138.478 142.446 136.596 144.575 134.846C147.314 132.846 150.179 131.026 153.152 129.396C157.787 126.707 162.982 123.702 167.668 121.012C168.216 120.736 168.821 120.593 169.435 120.593C170.049 120.593 170.654 120.736 171.203 121.012L209.056 142.863C209.267 142.937 209.45 143.075 209.579 143.257C209.708 143.44 209.778 143.658 209.778 143.881C209.778 144.105 209.708 144.323 209.579 144.505C209.45 144.688 209.267 144.826 209.056 144.9L194.54 153.283Z" fill="#37474F"/>
<path d="M171.203 122.856C170.655 122.58 170.05 122.436 169.436 122.436C168.822 122.436 168.217 122.58 167.669 122.856L153.153 131.25C150.179 132.88 147.314 134.701 144.576 136.7C142.449 138.45 140.432 140.327 138.535 142.323L138.352 142.557C138.503 142.75 138.69 142.912 138.902 143.036L176.765 164.896C177.275 165.162 177.855 165.26 178.423 165.178C178.992 165.096 179.52 164.837 179.933 164.438C181.821 162.437 183.831 160.555 185.953 158.805C188.695 156.801 191.563 154.977 194.541 153.345L209.057 144.961L209.23 144.839L209.057 144.717L171.203 122.856Z" fill="white"/>
<path d="M115.644 232.27C115.644 233.594 114.625 234.093 113.433 233.39L68.1944 207.272C67.5652 206.877 67.0381 206.339 66.6558 205.702C66.2735 205.064 66.0468 204.346 65.9941 203.605C65.9941 202.281 67.0128 201.782 68.1944 202.484L113.433 228.613C114.063 229.006 114.591 229.542 114.975 230.177C115.359 230.813 115.588 231.53 115.644 232.27Z" fill="#263238"/>
<path d="M131.944 185.096V183.283L129.846 183.13L125.139 180.39C124.456 180.044 123.7 179.863 122.934 179.863C122.168 179.863 121.412 180.044 120.729 180.39L117.55 182.224L115.951 182.101V183.864C115.967 184.144 116.06 184.414 116.22 184.644C116.38 184.874 116.601 185.055 116.858 185.168L122.786 188.59C123.47 188.937 124.225 189.117 124.992 189.117C125.758 189.117 126.514 188.937 127.197 188.59L131.068 186.359C131.315 186.248 131.529 186.073 131.688 185.853C131.847 185.634 131.946 185.376 131.975 185.107L131.944 185.096Z" fill="#E0E0E0"/>
<path d="M125.139 178.597L131.078 182.02C131.344 182.11 131.575 182.281 131.739 182.51C131.902 182.738 131.99 183.012 131.99 183.293C131.99 183.574 131.902 183.848 131.739 184.076C131.575 184.305 131.344 184.476 131.078 184.566L127.207 186.797C126.523 187.144 125.768 187.324 125.002 187.324C124.235 187.324 123.48 187.144 122.796 186.797L116.868 183.375C116.602 183.284 116.37 183.113 116.207 182.885C116.043 182.656 115.955 182.382 115.955 182.101C115.955 181.82 116.043 181.546 116.207 181.318C116.37 181.09 116.602 180.918 116.868 180.828L120.728 178.597C121.412 178.251 122.167 178.07 122.934 178.07C123.7 178.07 124.456 178.251 125.139 178.597Z" fill="#F5F5F5"/>
<path d="M116.43 176.112V174.299L114.332 174.146L109.585 171.406C108.901 171.059 108.146 170.879 107.379 170.879C106.613 170.879 105.858 171.059 105.174 171.406L101.996 173.239L100.396 173.127V174.879C100.416 175.158 100.512 175.426 100.674 175.654C100.836 175.883 101.057 176.062 101.313 176.173L107.242 179.596C107.924 179.947 108.68 180.13 109.447 180.13C110.214 180.13 110.971 179.947 111.653 179.596L115.513 177.365C115.764 177.256 115.98 177.083 116.141 176.863C116.303 176.642 116.402 176.383 116.43 176.112Z" fill="#E0E0E0"/>
<path d="M109.584 169.613L115.513 173.046C115.779 173.136 116.01 173.308 116.174 173.536C116.338 173.764 116.426 174.038 116.426 174.319C116.426 174.6 116.338 174.874 116.174 175.103C116.01 175.331 115.779 175.502 115.513 175.593L111.652 177.864C110.969 178.211 110.213 178.391 109.447 178.391C108.681 178.391 107.925 178.211 107.242 177.864L101.313 174.431C101.047 174.341 100.816 174.17 100.652 173.941C100.488 173.713 100.4 173.439 100.4 173.158C100.4 172.877 100.488 172.603 100.652 172.375C100.816 172.146 101.047 171.975 101.313 171.885L105.174 169.654C105.854 169.301 106.608 169.114 107.374 169.107C108.141 169.1 108.898 169.273 109.584 169.613Z" fill="#F5F5F5"/>
<path d="M147.459 194.05V192.237L145.422 192.084L140.665 189.344C139.981 188.998 139.226 188.817 138.459 188.817C137.693 188.817 136.938 188.998 136.254 189.344L133.086 191.178L131.477 191.056V192.818C131.494 193.097 131.587 193.367 131.747 193.597C131.907 193.827 132.127 194.008 132.383 194.122L138.322 197.544C139.006 197.891 139.761 198.071 140.527 198.071C141.294 198.071 142.049 197.891 142.733 197.544L146.593 195.314C146.842 195.203 147.056 195.029 147.216 194.809C147.375 194.589 147.473 194.331 147.5 194.061L147.459 194.05Z" fill="#E0E0E0"/>
<path d="M140.624 187.551L146.553 190.974C146.819 191.064 147.05 191.236 147.213 191.464C147.377 191.692 147.465 191.966 147.465 192.247C147.465 192.528 147.377 192.802 147.213 193.031C147.05 193.259 146.819 193.43 146.553 193.521L142.692 195.751C142.008 196.098 141.253 196.278 140.486 196.278C139.72 196.278 138.965 196.098 138.281 195.751L132.342 192.329C132.076 192.238 131.845 192.067 131.681 191.839C131.518 191.61 131.43 191.336 131.43 191.055C131.43 190.774 131.518 190.501 131.681 190.272C131.845 190.044 132.076 189.872 132.342 189.782L136.213 187.551C136.897 187.205 137.652 187.024 138.419 187.024C139.185 187.024 139.94 187.205 140.624 187.551Z" fill="#F5F5F5"/>
<path d="M144.362 177.935V176.122L142.263 175.969L137.516 173.229C136.833 172.883 136.077 172.702 135.311 172.702C134.545 172.702 133.789 172.883 133.106 173.229L129.927 175.063L128.328 174.94V176.703C128.345 176.982 128.439 177.252 128.599 177.482C128.759 177.712 128.979 177.893 129.235 178.007L135.174 181.429C135.857 181.776 136.613 181.956 137.379 181.956C138.145 181.956 138.901 181.776 139.584 181.429L143.445 179.198C143.693 179.086 143.907 178.912 144.068 178.692C144.229 178.473 144.33 178.215 144.362 177.945V177.935Z" fill="#E0E0E0"/>
<path d="M137.515 171.436L143.444 174.859C143.71 174.949 143.941 175.121 144.105 175.349C144.269 175.577 144.357 175.851 144.357 176.132C144.357 176.413 144.269 176.687 144.105 176.916C143.941 177.144 143.71 177.315 143.444 177.406L139.583 179.637C138.9 179.983 138.144 180.163 137.378 180.163C136.612 180.163 135.856 179.983 135.173 179.637L129.213 176.214C128.947 176.124 128.716 175.952 128.552 175.724C128.389 175.495 128.301 175.221 128.301 174.941C128.301 174.66 128.389 174.386 128.552 174.157C128.716 173.929 128.947 173.757 129.213 173.667L133.084 171.436C133.77 171.087 134.53 170.904 135.3 170.904C136.07 170.904 136.829 171.087 137.515 171.436Z" fill="#F5F5F5"/>
<path d="M128.846 168.951V167.138L126.748 166.985L122.001 164.245C121.317 163.898 120.562 163.718 119.795 163.718C119.029 163.718 118.274 163.898 117.59 164.245L114.412 166.078L112.812 165.966V167.678C112.828 167.957 112.922 168.227 113.082 168.457C113.242 168.688 113.462 168.869 113.719 168.981L119.658 172.404C120.341 172.75 121.097 172.931 121.863 172.931C122.63 172.931 123.385 172.75 124.069 172.404L127.929 170.173C128.178 170.064 128.394 169.89 128.553 169.67C128.712 169.45 128.81 169.191 128.836 168.92L128.846 168.951Z" fill="#E0E0E0"/>
<path d="M122.003 162.452L127.931 165.884C128.197 165.975 128.428 166.146 128.592 166.374C128.756 166.603 128.844 166.877 128.844 167.158C128.844 167.439 128.756 167.713 128.592 167.941C128.428 168.169 128.197 168.341 127.931 168.431L124.122 170.662C123.438 171.008 122.682 171.189 121.916 171.189C121.15 171.189 120.394 171.008 119.711 170.662L113.772 167.229C113.506 167.139 113.275 166.967 113.111 166.739C112.947 166.511 112.859 166.237 112.859 165.956C112.859 165.675 112.947 165.401 113.111 165.172C113.275 164.944 113.506 164.773 113.772 164.682L117.643 162.452C118.32 162.113 119.066 161.938 119.823 161.938C120.579 161.937 121.326 162.113 122.003 162.452Z" fill="#F5F5F5"/>
<path d="M159.875 186.889V185.076L157.777 184.923L153.03 182.183C152.347 181.837 151.591 181.656 150.825 181.656C150.058 181.656 149.303 181.837 148.619 182.183L145.441 184.017L143.842 183.894V185.657C143.862 185.937 143.958 186.206 144.12 186.436C144.281 186.665 144.502 186.847 144.759 186.961L150.687 190.383C151.371 190.73 152.126 190.91 152.893 190.91C153.659 190.91 154.414 190.73 155.098 190.383L158.969 188.152C159.216 188.041 159.43 187.866 159.589 187.646C159.748 187.427 159.846 187.169 159.875 186.899V186.889Z" fill="#E0E0E0"/>
<path d="M153.03 180.39L158.969 183.813C159.235 183.903 159.466 184.074 159.629 184.303C159.793 184.531 159.881 184.805 159.881 185.086C159.881 185.367 159.793 185.641 159.629 185.869C159.466 186.098 159.235 186.269 158.969 186.359L155.098 188.59C154.414 188.937 153.659 189.117 152.892 189.117C152.126 189.117 151.37 188.937 150.687 188.59L144.758 185.168C144.492 185.077 144.261 184.906 144.097 184.678C143.934 184.449 143.846 184.175 143.846 183.894C143.846 183.613 143.934 183.339 144.097 183.111C144.261 182.883 144.492 182.711 144.758 182.621L148.619 180.39C149.303 180.044 150.058 179.863 150.824 179.863C151.591 179.863 152.346 180.044 153.03 180.39Z" fill="#F5F5F5"/>
<path d="M119.538 192.288V190.475L117.439 190.322L112.692 187.582C112.01 187.231 111.254 187.048 110.487 187.048C109.72 187.048 108.964 187.231 108.281 187.582L105.103 189.416L103.504 189.294V191.107C103.523 191.386 103.618 191.654 103.777 191.884C103.937 192.113 104.156 192.295 104.411 192.411L110.349 195.833C111.033 196.18 111.788 196.36 112.555 196.36C113.321 196.36 114.077 196.18 114.76 195.833L118.621 193.602C118.869 193.49 119.083 193.316 119.244 193.096C119.404 192.877 119.506 192.62 119.538 192.35V192.288Z" fill="#E0E0E0"/>
<path d="M112.69 185.789L118.619 189.211C118.885 189.302 119.116 189.473 119.28 189.701C119.443 189.93 119.531 190.204 119.531 190.485C119.531 190.766 119.443 191.039 119.28 191.268C119.116 191.496 118.885 191.668 118.619 191.758L114.758 193.989C114.075 194.335 113.319 194.516 112.553 194.516C111.787 194.516 111.031 194.335 110.347 193.989L104.409 190.566C104.143 190.476 103.911 190.304 103.748 190.076C103.584 189.848 103.496 189.574 103.496 189.293C103.496 189.012 103.584 188.738 103.748 188.509C103.911 188.281 104.143 188.11 104.409 188.019L108.28 185.789C108.963 185.442 109.719 185.262 110.485 185.262C111.251 185.262 112.007 185.442 112.69 185.789Z" fill="#F5F5F5"/>
<path d="M104.012 183.303V181.49L101.975 181.337L97.2176 178.597C96.534 178.251 95.7785 178.07 95.0122 178.07C94.2459 178.07 93.4904 178.251 92.8068 178.597L89.6388 180.431L88.0293 180.308V182.071C88.0464 182.35 88.14 182.62 88.2999 182.85C88.4598 183.08 88.6798 183.261 88.9359 183.375L94.8747 186.797C95.5582 187.144 96.3138 187.324 97.0801 187.324C97.8464 187.324 98.6019 187.144 99.2855 186.797L103.146 184.566C103.394 184.456 103.609 184.282 103.768 184.062C103.928 183.842 104.026 183.584 104.053 183.314L104.012 183.303Z" fill="#E0E0E0"/>
<path d="M97.1665 176.845L103.105 180.267C103.371 180.358 103.602 180.529 103.766 180.757C103.93 180.986 104.018 181.26 104.018 181.541C104.018 181.822 103.93 182.096 103.766 182.324C103.602 182.552 103.371 182.724 103.105 182.814L99.2446 184.994C98.561 185.34 97.8055 185.521 97.0392 185.521C96.2728 185.521 95.5173 185.34 94.8338 184.994L88.895 181.571C88.6289 181.481 88.3978 181.31 88.2341 181.081C88.0704 180.853 87.9824 180.579 87.9824 180.298C87.9824 180.017 88.0704 179.743 88.2341 179.515C88.3978 179.286 88.6289 179.115 88.895 179.025L92.7557 176.794C93.4433 176.455 94.2009 176.283 94.9672 176.292C95.7335 176.301 96.4869 176.49 97.1665 176.845Z" fill="#F5F5F5"/>
<path d="M135.051 201.293V199.48L132.952 199.327L128.195 196.536C127.513 196.185 126.757 196.002 125.99 196.002C125.223 196.002 124.467 196.185 123.784 196.536L120.606 198.37L119.027 198.237V200C119.049 200.279 119.145 200.548 119.306 200.778C119.468 201.007 119.688 201.189 119.944 201.304L125.873 204.726C126.556 205.073 127.312 205.253 128.078 205.253C128.844 205.253 129.6 205.073 130.284 204.726L134.144 202.495C134.392 202.383 134.607 202.209 134.767 201.989C134.928 201.77 135.029 201.513 135.061 201.243L135.051 201.293Z" fill="#E0E0E0"/>
<path d="M128.197 194.743L134.126 198.165C134.392 198.256 134.623 198.427 134.787 198.655C134.95 198.884 135.038 199.158 135.038 199.439C135.038 199.72 134.95 199.994 134.787 200.222C134.623 200.45 134.392 200.622 134.126 200.712L130.234 202.943C129.551 203.289 128.795 203.47 128.029 203.47C127.263 203.47 126.507 203.289 125.824 202.943L119.895 199.52C119.629 199.43 119.398 199.258 119.234 199.03C119.07 198.802 118.982 198.528 118.982 198.247C118.982 197.966 119.07 197.692 119.234 197.464C119.398 197.235 119.629 197.064 119.895 196.974L123.756 194.743C124.443 194.391 125.204 194.208 125.976 194.208C126.748 194.208 127.51 194.391 128.197 194.743Z" fill="#F5F5F5"/>
<path d="M107.108 199.44V197.626L105.009 197.474L100.263 194.723C99.579 194.377 98.8234 194.196 98.0571 194.196C97.2908 194.196 96.5353 194.377 95.8517 194.723L92.6735 196.557L91.0742 196.445V198.238C91.0941 198.516 91.19 198.784 91.3517 199.013C91.5133 199.241 91.7345 199.42 91.991 199.531L97.9196 202.964C98.6032 203.31 99.3587 203.491 100.125 203.491C100.891 203.491 101.647 203.31 102.33 202.964L106.201 200.733C106.45 200.62 106.664 200.444 106.823 200.223C106.982 200.001 107.081 199.742 107.108 199.47V199.44Z" fill="#E0E0E0"/>
<path d="M100.264 192.93L106.203 196.363C106.469 196.453 106.7 196.625 106.864 196.853C107.027 197.081 107.115 197.355 107.115 197.636C107.115 197.917 107.027 198.191 106.864 198.42C106.7 198.648 106.469 198.819 106.203 198.91L102.332 201.141C101.648 201.487 100.893 201.667 100.127 201.667C99.3603 201.667 98.6048 201.487 97.9212 201.141L91.9927 197.718C91.7266 197.628 91.4955 197.456 91.3318 197.228C91.1681 196.999 91.0801 196.726 91.0801 196.445C91.0801 196.164 91.1681 195.89 91.3318 195.661C91.4955 195.433 91.7266 195.261 91.9927 195.171L95.8534 192.93C96.5369 192.584 97.2924 192.403 98.0587 192.403C98.825 192.403 99.5806 192.584 100.264 192.93Z" fill="#F5F5F5"/>
<path d="M91.5942 190.455V188.641L89.4958 188.489L84.7488 185.749C84.0653 185.402 83.3097 185.222 82.5434 185.222C81.7771 185.222 81.0216 185.402 80.338 185.749L77.1598 187.582L75.5605 187.46V189.222C75.5777 189.502 75.6713 189.771 75.8312 190.001C75.991 190.231 76.2111 190.413 76.4672 190.526L82.4059 193.949C83.0895 194.295 83.845 194.476 84.6113 194.476C85.3776 194.476 86.1331 194.295 86.8167 193.949L90.6774 191.718C90.9252 191.606 91.1398 191.431 91.3005 191.212C91.4611 190.992 91.5623 190.735 91.5942 190.465V190.455Z" fill="#E0E0E0"/>
<path d="M84.7489 183.975L90.6775 187.398C90.9436 187.488 91.1747 187.66 91.3384 187.888C91.5021 188.116 91.5901 188.39 91.5901 188.671C91.5901 188.952 91.5021 189.226 91.3384 189.455C91.1747 189.683 90.9436 189.854 90.6775 189.945L86.8168 192.125C86.1333 192.471 85.3777 192.651 84.6114 192.651C83.8451 192.651 83.0896 192.471 82.406 192.125L76.4673 188.702C76.2012 188.612 75.9701 188.44 75.8064 188.212C75.6427 187.984 75.5547 187.71 75.5547 187.429C75.5547 187.148 75.6427 186.874 75.8064 186.645C75.9701 186.417 76.2012 186.246 76.4673 186.155L80.3178 183.975C81.004 183.626 81.7632 183.443 82.5334 183.443C83.3035 183.443 84.0628 183.626 84.7489 183.975Z" fill="#F5F5F5"/>
<path d="M122.624 208.424V206.611L120.535 206.458L115.778 203.707C115.095 203.361 114.339 203.181 113.573 203.181C112.806 203.181 112.051 203.361 111.367 203.707L108.189 205.541L106.59 205.429V207.191C106.608 207.469 106.702 207.737 106.862 207.965C107.021 208.194 107.241 208.373 107.496 208.485L113.425 211.918C114.109 212.264 114.864 212.445 115.63 212.445C116.397 212.445 117.152 212.264 117.836 211.918L121.707 209.687C121.956 209.576 122.172 209.4 122.331 209.178C122.491 208.956 122.588 208.696 122.613 208.424H122.624Z" fill="#E0E0E0"/>
<path d="M115.776 201.883L121.715 205.316C121.981 205.406 122.212 205.578 122.376 205.806C122.539 206.035 122.627 206.309 122.627 206.59C122.627 206.87 122.539 207.144 122.376 207.373C122.212 207.601 121.981 207.773 121.715 207.863L117.844 210.094C117.16 210.44 116.405 210.621 115.638 210.621C114.872 210.621 114.117 210.44 113.433 210.094L107.504 206.671C107.238 206.581 107.007 206.409 106.843 206.181C106.68 205.953 106.592 205.679 106.592 205.398C106.592 205.117 106.68 204.843 106.843 204.614C107.007 204.386 107.238 204.215 107.504 204.124L111.365 201.883C112.049 201.537 112.804 201.356 113.57 201.356C114.337 201.356 115.092 201.537 115.776 201.883Z" fill="#F5F5F5"/>
<path d="M139.013 156.594L138.636 155.035L137.067 154.903L131.974 151.939C129.539 150.533 126.31 150.828 124.741 152.56C124.408 152.924 124.164 153.36 124.028 153.833H123.58L123.977 155.484C124.154 156.069 124.445 156.613 124.836 157.084C125.226 157.554 125.706 157.942 126.249 158.224L132.504 161.83C133.011 162.101 133.593 162.203 134.163 162.121C134.733 162.038 135.261 161.776 135.672 161.371C136.656 160.319 137.644 159.232 138.636 158.112C138.821 157.911 138.952 157.666 139.018 157.401C139.084 157.136 139.082 156.858 139.013 156.594Z" fill="#E0E0E0"/>
<path d="M132.106 160.251L125.852 156.645C123.417 155.24 122.796 152.734 124.334 151.002C125.872 149.27 129.132 148.965 131.567 150.381L137.821 153.987C138.044 154.102 138.236 154.268 138.383 154.47C138.531 154.673 138.628 154.908 138.669 155.155C138.709 155.402 138.692 155.656 138.617 155.895C138.542 156.134 138.413 156.353 138.239 156.533C137.247 157.654 136.259 158.74 135.275 159.793C134.865 160.199 134.337 160.462 133.766 160.545C133.196 160.627 132.614 160.524 132.106 160.251Z" fill="#F5F5F5"/>
<path d="M170.981 176.051L170.604 174.472H170.155C169.729 173.963 169.215 173.535 168.638 173.208L162.393 169.602C161.89 169.333 161.312 169.237 160.748 169.329C160.185 169.421 159.668 169.696 159.276 170.112C158.257 171.202 157.331 172.282 156.363 173.321L155.477 173.249L155.874 174.889C155.927 175.104 156.024 175.306 156.159 175.481C156.294 175.656 156.464 175.802 156.658 175.908L162.903 179.514C165.337 180.92 168.638 180.696 170.217 178.964C170.585 178.586 170.848 178.118 170.982 177.608C171.116 177.097 171.116 176.561 170.981 176.051Z" fill="#E0E0E0"/>
<path d="M162.554 177.864L156.309 174.258C156.088 174.147 155.896 173.985 155.751 173.784C155.606 173.583 155.511 173.351 155.475 173.106C155.439 172.861 155.463 172.61 155.544 172.377C155.626 172.143 155.762 171.932 155.943 171.762C156.927 170.703 157.915 169.616 158.907 168.502C159.298 168.087 159.816 167.812 160.379 167.72C160.943 167.627 161.521 167.724 162.024 167.993L168.268 171.599C170.713 173.005 171.436 175.582 169.868 177.314C168.299 179.045 164.999 179.249 162.554 177.864Z" fill="#F5F5F5"/>
<path d="M155.333 166.17L154.956 164.632L153.764 164.55L146.277 160.231C145.648 159.896 144.927 159.776 144.224 159.89C143.521 160.004 142.875 160.346 142.385 160.863C141.621 161.719 140.868 162.554 140.104 163.379C140.033 163.463 139.969 163.551 139.91 163.644H139.156L139.543 165.253C139.611 165.528 139.738 165.784 139.913 166.006C140.089 166.227 140.31 166.408 140.562 166.537L148.579 171.162C149.212 171.501 149.938 171.629 150.649 171.527C151.36 171.424 152.02 171.096 152.531 170.591C153.295 169.776 154.059 168.931 154.813 168.085C155.056 167.837 155.231 167.53 155.322 167.195C155.413 166.86 155.416 166.507 155.333 166.17Z" fill="#E0E0E0"/>
<path d="M154.447 166.476C153.693 167.322 152.929 168.167 152.176 168.982C151.662 169.487 151 169.814 150.288 169.916C149.575 170.019 148.848 169.892 148.213 169.552L140.196 164.928C139.92 164.789 139.682 164.585 139.501 164.335C139.32 164.084 139.202 163.794 139.157 163.488C139.112 163.183 139.142 162.871 139.243 162.579C139.344 162.287 139.513 162.023 139.738 161.811C140.502 160.985 141.256 160.15 142.02 159.295C142.509 158.777 143.155 158.435 143.858 158.321C144.562 158.207 145.283 158.327 145.911 158.663L153.928 163.288C154.203 163.436 154.44 163.645 154.621 163.899C154.802 164.153 154.923 164.446 154.973 164.754C155.023 165.062 155.002 165.378 154.911 165.676C154.819 165.975 154.661 166.248 154.447 166.476Z" fill="#F5F5F5"/>
<path d="M385.867 123.784L362.04 110.021L360.309 150.228L385.867 165.049V123.784Z" fill="#FFCA05"/>
<path d="M385.865 165.048L397.773 158.172L390.633 121.032L385.865 123.783V165.048Z" fill="#37474F"/>
<path d="M397.773 158.173L390.001 157.164L385.865 165.048L397.773 158.173Z" fill="#37474F"/>
<path d="M397.773 158.173L390.001 157.164L385.865 165.048L397.773 158.173Z" fill="#37474F"/>
<path d="M397.773 158.173L390.001 157.164L385.865 165.048L397.773 158.173Z" fill="#FFCA05"/>
<path opacity="0.1" d="M397.773 158.173L390.001 157.164L385.865 165.048L397.773 158.173Z" fill="black"/>
<path d="M390.001 157.164L385.865 121.032V123.783V165.048L390.001 157.164Z" fill="#FFCA05"/>
<path opacity="0.2" d="M390.001 157.164L385.865 121.032V123.783V165.048L390.001 157.164Z" fill="black"/>
<path d="M362.039 110.021L366.205 109.715L366.806 107.271L390.633 121.033H385.865V123.783L362.039 110.021Z" fill="#FFCA05"/>
<path opacity="0.2" d="M362.039 110.021L366.205 109.715L366.806 107.271L390.633 121.033H385.865V123.783L362.039 110.021Z" fill="black"/>
<path d="M378.083 122.071C378.083 122.418 377.828 122.571 377.523 122.387C377.362 122.282 377.229 122.141 377.133 121.974C377.038 121.808 376.983 121.621 376.973 121.43C376.973 121.073 377.217 120.931 377.523 121.104C377.686 121.209 377.822 121.352 377.919 121.52C378.016 121.689 378.073 121.877 378.083 122.071Z" fill="#FFCA05"/>
<path opacity="0.3" d="M378.083 122.071C378.083 122.418 377.828 122.571 377.523 122.387C377.362 122.282 377.229 122.141 377.133 121.974C377.038 121.808 376.983 121.621 376.973 121.43C376.973 121.073 377.217 120.931 377.523 121.104C377.686 121.209 377.822 121.352 377.919 121.52C378.016 121.689 378.073 121.877 378.083 122.071Z" fill="black"/>
<path d="M371.013 117.875C371.013 118.231 370.758 118.374 370.452 118.201C370.284 118.09 370.145 117.938 370.049 117.761C369.953 117.583 369.903 117.384 369.902 117.182C369.902 116.836 370.147 116.683 370.452 116.866C370.621 116.976 370.76 117.125 370.858 117.301C370.955 117.477 371.009 117.674 371.013 117.875Z" fill="#FFCA05"/>
<path opacity="0.3" d="M371.013 117.875C371.013 118.231 370.758 118.374 370.452 118.201C370.284 118.09 370.145 117.938 370.049 117.761C369.953 117.583 369.903 117.384 369.902 117.182C369.902 116.836 370.147 116.683 370.452 116.866C370.621 116.976 370.76 117.125 370.858 117.301C370.955 117.477 371.009 117.674 371.013 117.875Z" fill="black"/>
<g style="mix-blend-mode:multiply">
<path d="M382.86 119.25C382.86 119.607 382.606 119.749 382.3 119.576C382.138 119.47 382.004 119.327 381.908 119.158C381.813 118.99 381.759 118.802 381.75 118.608C381.75 118.262 381.994 118.119 382.3 118.292C382.462 118.397 382.597 118.538 382.694 118.705C382.791 118.871 382.848 119.058 382.86 119.25Z" fill="#FFCA05"/>
</g>
<g style="mix-blend-mode:multiply" opacity="0.2">
<path d="M382.86 119.25C382.86 119.607 382.606 119.749 382.3 119.576C382.138 119.47 382.004 119.327 381.908 119.158C381.813 118.99 381.759 118.802 381.75 118.608C381.75 118.262 381.994 118.119 382.3 118.292C382.462 118.397 382.597 118.538 382.694 118.705C382.791 118.871 382.848 119.058 382.86 119.25Z" fill="black"/>
</g>
<g style="mix-blend-mode:multiply">
<path d="M375.731 115.063C375.731 115.42 375.477 115.562 375.171 115.389C375.009 115.283 374.875 115.14 374.78 114.971C374.684 114.803 374.63 114.615 374.621 114.421C374.621 114.075 374.866 113.922 375.171 114.106C375.333 114.21 375.468 114.351 375.565 114.518C375.662 114.684 375.719 114.871 375.731 115.063Z" fill="#FFCA05"/>
</g>
<g style="mix-blend-mode:multiply" opacity="0.2">
<path d="M375.731 115.063C375.731 115.42 375.477 115.562 375.171 115.389C375.009 115.283 374.875 115.14 374.78 114.971C374.684 114.803 374.63 114.615 374.621 114.421C374.621 114.075 374.866 113.922 375.171 114.106C375.333 114.21 375.468 114.351 375.565 114.518C375.662 114.684 375.719 114.871 375.731 115.063Z" fill="black"/>
</g>
<path d="M390.633 121.032H385.865L390.001 157.164L397.773 158.172L390.633 121.032Z" fill="#FFCA05"/>
<path d="M366.804 107.271L366.203 109.715L366.804 112.771L368.006 113.474L366.804 107.271Z" fill="#FFCA05"/>
<path d="M358.789 40.498C362.1 40.498 368.762 41.5778 372.215 56.7151C372.999 60.148 373.651 63.8966 374.252 68.7149C375.179 75.8455 376.29 81.7333 377.166 88.4768C377.288 89.414 377.736 92.1746 377.848 93.0302C378.48 97.604 379.753 100.466 379.753 103.94C379.234 106.038 378.021 108.361 373.335 108.84C368.935 107.424 369.791 106.741 369.689 102.799C369.587 98.857 370.819 97.9504 370.422 93.2543C368.731 82.1204 365.4 63.1428 365.4 63.1428L358.789 40.498Z" fill="#FFA8A7"/>
<path d="M382.254 119.25C382.179 119.249 382.106 119.222 382.049 119.174C381.991 119.125 381.952 119.059 381.938 118.985C381.938 118.985 381.113 114.085 380.094 110.398C379.279 107.474 377.201 106.71 375.368 106.038C374.96 105.895 374.573 105.753 374.237 105.6C374.199 105.583 374.164 105.559 374.135 105.529C374.106 105.499 374.084 105.464 374.068 105.425C374.053 105.386 374.046 105.345 374.047 105.303C374.048 105.261 374.057 105.22 374.074 105.182C374.091 105.144 374.115 105.109 374.145 105.081C374.175 105.052 374.21 105.029 374.249 105.014C374.288 104.999 374.329 104.991 374.371 104.992C374.412 104.993 374.454 105.002 374.492 105.019C374.828 105.172 375.195 105.305 375.582 105.447C377.466 106.13 379.799 106.985 380.675 110.225C381.694 113.953 382.539 118.832 382.549 118.883C382.561 118.967 382.54 119.052 382.491 119.12C382.441 119.188 382.367 119.235 382.284 119.25H382.254Z" fill="#455A64"/>
<path d="M377.522 99.7837C376.716 101.114 376.092 102.546 375.668 104.042C375.505 104.846 374.211 104.133 373.966 103.023C373.843 101.327 373.843 99.6252 373.966 97.9297C373.551 99.4972 373.366 101.117 373.416 102.738C373.681 104.306 374.099 104.653 375.179 105.04C376.258 105.427 376.197 104.439 376.503 103.145C376.809 101.852 377.522 99.7837 377.522 99.7837Z" fill="#F28F8F"/>
<path d="M377.246 121.409V111.875C377.246 109.756 377.246 107.362 373.813 105.345C372.591 104.632 371.664 104.408 371.206 104.703C370.747 104.999 370.808 105.793 370.808 105.804V117.498C370.808 117.581 370.775 117.662 370.716 117.721C370.657 117.78 370.576 117.814 370.493 117.814C370.409 117.814 370.329 117.78 370.269 117.721C370.21 117.662 370.177 117.581 370.177 117.498V105.834C370.147 105.52 370.194 105.204 370.315 104.912C370.436 104.621 370.626 104.364 370.87 104.163C371.562 103.725 372.652 103.939 374.129 104.795C377.898 107.006 377.888 109.705 377.878 111.875V121.409C377.878 121.493 377.845 121.573 377.785 121.633C377.726 121.692 377.646 121.725 377.562 121.725C377.478 121.725 377.398 121.692 377.339 121.633C377.28 121.573 377.246 121.493 377.246 121.409Z" fill="#455A64"/>
<path d="M375.178 115.063C375.102 115.064 375.029 115.038 374.971 114.989C374.913 114.941 374.874 114.873 374.862 114.798L373.691 107.576C373.676 107.494 373.694 107.409 373.742 107.34C373.79 107.271 373.863 107.224 373.945 107.209C374.029 107.197 374.114 107.218 374.182 107.268C374.25 107.317 374.297 107.391 374.312 107.474L375.494 114.666C375.508 114.748 375.49 114.833 375.442 114.902C375.394 114.971 375.321 115.018 375.239 115.033L375.178 115.063Z" fill="#455A64"/>
<path d="M373.028 104.897C371.296 104.194 369.473 102.859 368.831 103.583C368.518 103.964 368.303 104.416 368.202 104.899C368.102 105.382 368.12 105.882 368.256 106.356C368.391 106.831 368.639 107.266 368.978 107.623C369.318 107.981 369.739 108.251 370.206 108.411C372.18 109.079 374.329 109.01 376.257 108.217L373.028 104.897Z" fill="#FFA8A7"/>
<path d="M356.285 40.1406C361.45 40.1406 367.684 41.7705 370.169 46.548C372.828 51.6413 374.58 65.3015 374.58 65.3015C374.58 65.3015 372.624 69.5085 365.412 69.0399L356.285 40.1406Z" fill="#37474F"/>
<path d="M315.028 167.371C313.745 166.698 312.92 168.338 311.758 169.653C310.933 170.569 309.66 172.026 309.466 173.075C309.191 174.634 310.587 177.079 312.135 178.423C313.684 179.768 315.487 180.736 316.047 183.69C316.189 185.044 316.714 186.331 317.56 187.399C318.406 188.466 319.538 189.272 320.825 189.72C324.176 191.167 328.668 190.739 330.196 189.72C331.999 188.549 330.349 187.275 327.823 183.608C324.522 178.882 321.945 175.51 321.945 171.099L315.028 167.371Z" fill="#263238"/>
<path d="M317.666 163.501L314.957 167.474C314.383 168.3 314.158 169.319 314.33 170.31C314.501 171.301 315.056 172.185 315.873 172.771L315.955 172.822C316.776 173.323 317.749 173.517 318.7 173.369C319.65 173.222 320.518 172.743 321.15 172.017L325.377 167.402L317.666 163.501Z" fill="#FFA8A7"/>
<path d="M367.476 85.9395C367.649 91.0327 366.212 111.477 362.718 120.574C359.224 129.67 357.187 135.253 356.087 137.137C354.987 139.022 323.266 169.907 323.266 169.907C323.266 169.907 317.877 169.51 317.021 164.295C317.021 164.295 330.02 142.2 332.841 137.667C335.663 133.134 345.625 126.187 345.625 126.187L344.719 86.5507L367.476 85.9395Z" fill="#37474F"/>
<path d="M360.485 193.857L367.189 192.332L364.969 182.568L358.264 184.092L360.485 193.857Z" fill="#FFA8A7"/>
<path d="M367.477 85.9395H335.307C335.022 89.5048 334.289 91.5013 334.095 100.119C333.851 114.065 346.818 139.399 346.818 139.399C346.655 141.293 345.851 149.239 347.654 156.278C350.506 167.391 358.258 186.186 358.258 186.186C358.258 186.186 363.107 186.878 365.521 184.077C365.521 184.077 361.232 145.898 360.071 136.119C358.818 125.535 355.609 106.211 355.609 106.211C357.732 104.091 359.659 101.782 361.365 99.3144C364.34 95.3475 366.425 90.7854 367.477 85.9395Z" fill="#37474F"/>
<path d="M323.423 78.0354C324.869 63.1223 329.382 52.6403 330.044 48.8916L334.424 67.3497C333.045 72.3011 331.953 77.3281 331.154 82.4054C330.971 83.6788 328.893 94.7618 329.219 99.4883C329.274 100.323 329.637 101.107 330.237 101.689C331.847 103.268 332.326 104.633 333.405 106.405C334.251 107.801 335.127 108.29 334.903 108.626C334.603 108.982 334.179 109.213 333.717 109.272C333.254 109.33 332.787 109.212 332.407 108.941C331.551 108.358 330.768 107.674 330.074 106.904C330.35 108.732 330.917 110.503 331.755 112.15C333.66 115.929 333.344 117.916 328.058 116.806C324.747 116.103 322.557 113.485 321.681 105.651C321.521 102.828 321.538 99.9972 321.732 97.176C321.986 90.6056 322.985 82.5073 323.423 78.0354Z" fill="#FFA8A7"/>
<path d="M345.66 40.4465C339.497 41.9337 331.083 43.8692 328.648 50.5516C326.213 57.234 323.555 69.9061 323.555 69.9061C325.48 72.1573 331.47 73.339 334.057 71.9434L335.269 67.9401V85.8888C340.088 91.1349 356.906 93.5797 367.438 85.8888V52.4055C367.438 47.0474 364.464 40.6197 356.233 40.1816L345.66 40.4465Z" fill="#455A64"/>
<path d="M335.309 67.9811L338.395 58.2529L335.309 72.341V67.9811Z" fill="#37474F"/>
<path d="M343.348 13.0343C342.795 12.9603 342.232 13.0136 341.702 13.1901C341.173 13.3667 340.69 13.6618 340.292 14.053C338.988 15.3874 339.274 17.8526 340.292 23.5163L344.316 23.9849L343.348 13.0343Z" fill="#263238"/>
<path d="M366.815 11.3946C367.68 11.3988 368.536 11.2255 369.331 10.8853C370.564 10.1722 370.89 11.5779 370.217 12.7901C369.767 13.6629 369.101 14.4062 368.282 14.9499C367.464 15.4935 366.521 15.8195 365.542 15.897C365.542 15.7239 364.391 12.7494 364.391 12.7494L366.815 11.3946Z" fill="#263238"/>
<path d="M345.234 24.0463C344.633 24.4028 343.787 23.2517 343.044 22.4776C342.754 22.1459 342.384 21.8937 341.97 21.7448C341.555 21.5959 341.11 21.5552 340.675 21.6266C340.241 21.698 339.832 21.8791 339.487 22.1528C339.142 22.4265 338.872 22.7837 338.704 23.1906C337.482 25.7678 340.263 29.1905 341.892 30.3212C342.347 30.7157 342.915 30.9566 343.515 31.0096C344.115 31.0626 344.716 30.9251 345.234 30.6166L345.661 40.4671C346.382 42.0471 347.484 43.4239 348.866 44.4745C350.249 45.525 351.871 46.2166 353.587 46.4873C359.373 47.2717 358.181 42.4942 356.286 40.1615V36.5758C357.731 36.8872 359.217 36.9629 360.687 36.7999C361.44 36.5962 363.243 34.4264 364.405 31.9816C365.709 29.2516 367.878 24.3926 365.943 16.1823C363.906 7.36067 354.391 7.09582 348.738 10.6509C343.084 14.2061 345.234 24.0463 345.234 24.0463Z" fill="#FFA8A7"/>
<path d="M345.23 25.0649C344.934 25.0649 343.783 23.1702 343.039 22.4877C342.021 21.5505 343.345 13.0651 343.345 13.0651C343.345 13.0651 342.326 9.83593 344.364 7.70693C346.401 5.57794 350.353 5.92428 353.236 5.82242C356.779 5.85497 360.291 5.16162 363.555 3.7851C367.63 2.00245 367.966 1.74778 368.475 3.59155C368.985 5.43532 369.178 9.52014 366.733 12.2807L365.399 14.4504C365.399 14.4504 364.156 15.4691 360.306 15.9682C356.455 16.4674 349.966 14.3791 349.1 14.2671C348 14.1143 347.756 15.1941 347.165 18.1278C346.676 20.6439 346.238 25.0649 345.23 25.0649Z" fill="#263238"/>
<path d="M343.348 13.6866L339.742 11.7511C339.985 11.2695 340.408 10.9037 340.92 10.7337C341.432 10.5638 341.99 10.6036 342.472 10.8445C342.956 11.114 343.318 11.56 343.481 12.0896C343.644 12.6191 343.597 13.1913 343.348 13.6866Z" fill="#263238"/>
<path d="M356.273 36.5551C356.273 36.5551 350.915 35.4753 349.041 34.5178C347.939 33.9438 347.035 33.0533 346.443 31.9609C346.724 33.069 347.227 34.1086 347.92 35.0169C349.285 36.769 356.273 38.0729 356.273 38.0729V36.5551Z" fill="#F28F8F"/>
<path d="M356.448 23.8324C356.44 24.0441 356.37 24.2487 356.246 24.4208C356.123 24.593 355.952 24.725 355.754 24.8005C355.556 24.876 355.34 24.8917 355.134 24.8455C354.927 24.7994 354.738 24.6934 354.591 24.5409C354.444 24.3884 354.345 24.1961 354.307 23.9878C354.269 23.7795 354.292 23.5646 354.375 23.3696C354.458 23.1747 354.596 23.0084 354.773 22.8914C354.949 22.7745 355.156 22.7121 355.368 22.7119C355.513 22.7146 355.655 22.7457 355.788 22.8034C355.92 22.8612 356.04 22.9444 356.14 23.0485C356.24 23.1525 356.319 23.2753 356.372 23.4098C356.425 23.5444 356.451 23.688 356.448 23.8324Z" fill="#263238"/>
<path d="M355.359 19.7777L353.056 21.0409C352.892 20.7264 352.856 20.3601 352.957 20.0197C353.057 19.6792 353.287 19.3915 353.596 19.2175C353.748 19.1337 353.915 19.0818 354.087 19.0648C354.259 19.0477 354.433 19.066 354.598 19.1184C354.763 19.1709 354.915 19.2564 355.046 19.3697C355.177 19.4831 355.283 19.6219 355.359 19.7777Z" fill="#263238"/>
<path d="M355.785 31.0137L358.24 31.9305C358.186 32.0953 358.1 32.2476 357.986 32.3784C357.872 32.5092 357.733 32.6158 357.577 32.6918C357.421 32.7678 357.252 32.8118 357.079 32.821C356.905 32.8302 356.732 32.8045 356.569 32.7454C356.241 32.6133 355.976 32.3595 355.83 32.0369C355.683 31.7143 355.667 31.3478 355.785 31.0137Z" fill="#F28F8F"/>
<path d="M366.022 20.6642L363.924 19.0548C364.022 18.9124 364.148 18.7916 364.295 18.7C364.441 18.6083 364.605 18.5477 364.776 18.5219C364.947 18.4962 365.121 18.5057 365.288 18.5501C365.455 18.5944 365.612 18.6726 365.747 18.7797C366.027 18.9976 366.212 19.3154 366.264 19.6667C366.315 20.0179 366.228 20.3753 366.022 20.6642Z" fill="#263238"/>
<path d="M365.372 23.5268C365.364 23.7389 365.293 23.9439 365.169 24.1162C365.046 24.2886 364.874 24.4206 364.675 24.4958C364.477 24.5709 364.261 24.586 364.054 24.539C363.847 24.492 363.658 24.3851 363.512 24.2316C363.365 24.0781 363.267 23.8848 363.23 23.6759C363.192 23.4669 363.217 23.2517 363.302 23.0569C363.386 22.8622 363.526 22.6966 363.704 22.5809C363.882 22.4652 364.09 22.4044 364.302 22.4063C364.446 22.4089 364.588 22.4401 364.72 22.498C364.852 22.5558 364.971 22.6393 365.071 22.7435C365.17 22.8477 365.248 22.9706 365.3 23.105C365.351 23.2395 365.376 23.3828 365.372 23.5268Z" fill="#263238"/>
<path d="M360.316 23.3945L359.297 29.7815L362.842 29.3639L360.316 23.3945Z" fill="#F28F8F"/>
<path d="M366.429 189.069L366.215 188.111C366.918 188.244 369.923 193.205 372.918 195.415C376.188 197.799 379.03 199.205 380.487 200.274C382.443 201.71 379.611 204.644 374.803 204.909C372.409 205.041 368.059 204.308 366.725 203.045C365.39 201.782 364.412 199.663 363.353 198.746C362.294 197.829 360.134 197.035 359.411 195.863C359.011 194.706 358.868 193.475 358.993 192.257C358.993 190.994 359.075 189.619 359.502 189.639C359.502 189.782 359.676 190.373 359.676 190.373C360.936 191.013 362.338 191.321 363.75 191.269C364.881 191.167 366.99 190.902 366.429 189.069Z" fill="#263238"/>
<path d="M359.23 129.64C359.23 129.64 356.377 109.348 355.613 106.211C355.613 106.211 360.218 103.654 361.96 101.657C360.637 103.563 359.187 105.377 357.62 107.087L359.23 129.64Z" fill="#263238"/>
<path d="M342.002 128.968C342.002 128.968 345.435 137.514 346.82 139.399C346.82 139.399 346.474 145.908 346.525 147.222L344.722 148.801C344.669 145.854 344.939 142.909 345.526 140.02C343.951 136.476 342.769 132.77 342.002 128.968Z" fill="#263238"/>
<path d="M117.405 255.149L242.15 183.12C242.696 182.843 243.3 182.699 243.912 182.699C244.524 182.699 245.128 182.843 245.674 183.12L324.905 228.868C325.42 229.202 325.848 229.653 326.154 230.184C326.46 230.715 326.636 231.311 326.668 231.924V232.627C326.635 233.239 326.459 233.835 326.153 234.366C325.847 234.897 325.419 235.348 324.905 235.683L200.161 307.702C199.617 307.981 199.015 308.126 198.403 308.126C197.792 308.126 197.19 307.981 196.646 307.702L117.395 261.19C116.883 260.854 116.458 260.402 116.154 259.871C115.85 259.34 115.675 258.745 115.643 258.134C115.683 257.533 115.864 256.951 116.17 256.433C116.476 255.914 116.899 255.475 117.405 255.149Z" fill="#FFCA05"/>
<g opacity="0.2">
<path d="M117.405 255.149L242.15 183.12C242.696 182.843 243.3 182.699 243.912 182.699C244.524 182.699 245.128 182.843 245.674 183.12L324.905 228.868C325.42 229.202 325.848 229.653 326.154 230.184C326.46 230.715 326.636 231.311 326.668 231.924V232.627C326.635 233.239 326.459 233.835 326.153 234.366C325.847 234.897 325.419 235.348 324.905 235.683L200.161 307.702C199.617 307.981 199.015 308.126 198.403 308.126C197.792 308.126 197.19 307.981 196.646 307.702L117.395 261.19C116.883 260.854 116.458 260.402 116.154 259.871C115.85 259.34 115.675 258.745 115.643 258.134C115.683 257.533 115.864 256.951 116.17 256.433C116.476 255.914 116.899 255.475 117.405 255.149Z" fill="white"/>
</g>
<path d="M115.643 258.165C115.675 258.776 115.85 259.371 116.154 259.902C116.458 260.432 116.883 260.884 117.395 261.221L196.646 307.722C197.207 307.948 197.797 308.092 198.398 308.15V294.388L194.263 239.442L148.749 237.048L117.405 255.149C116.895 255.478 116.469 255.922 116.163 256.446C115.857 256.97 115.679 257.559 115.643 258.165Z" fill="#FFCA05"/>
<path d="M115.643 258.165C115.675 258.776 115.85 259.371 116.154 259.902C116.458 260.432 116.883 260.884 117.395 261.221L196.646 307.722C197.207 307.948 197.797 308.092 198.398 308.15V294.388L194.263 239.442L148.749 237.048L117.405 255.149C116.895 255.478 116.469 255.922 116.163 256.446C115.857 256.97 115.679 257.559 115.643 258.165Z" fill="#FFCA05"/>
<g opacity="0.2">
<path d="M115.643 258.165C115.675 258.776 115.85 259.371 116.154 259.902C116.458 260.432 116.883 260.884 117.395 261.221L196.646 307.722C197.207 307.948 197.797 308.092 198.398 308.15V294.388L194.263 239.442L148.749 237.048L117.405 255.149C116.895 255.478 116.469 255.922 116.163 256.446C115.857 256.97 115.679 257.559 115.643 258.165Z" fill="black"/>
</g>
<path d="M245.677 183.12L324.908 228.868C325.124 228.937 325.312 229.073 325.446 229.256C325.579 229.439 325.651 229.66 325.651 229.887C325.651 230.113 325.579 230.334 325.446 230.517C325.312 230.7 325.124 230.836 324.908 230.905L200.163 302.924C199.617 303.201 199.013 303.345 198.401 303.345C197.788 303.345 197.185 303.201 196.638 302.924L117.407 257.187C117.196 257.112 117.014 256.975 116.884 256.792C116.755 256.61 116.686 256.391 116.686 256.168C116.686 255.944 116.755 255.726 116.884 255.544C117.014 255.361 117.196 255.223 117.407 255.149L242.152 183.12C242.698 182.843 243.302 182.699 243.914 182.699C244.527 182.699 245.13 182.843 245.677 183.12Z" fill="#FFCA05"/>
<path d="M186.634 234.909C186.407 234.888 186.187 234.815 185.992 234.695L178.251 230.223C178.016 230.091 177.894 229.958 177.874 229.846C177.853 229.734 177.955 229.602 178.169 229.479L181.622 227.493C182.412 227.004 183.322 226.745 184.25 226.745C185.179 226.745 186.089 227.004 186.879 227.493C187.225 227.666 187.515 227.935 187.714 228.267C187.787 228.387 187.825 228.524 187.825 228.664C187.825 228.805 187.787 228.942 187.714 229.062C188.228 228.93 188.763 228.902 189.288 228.981C189.813 229.06 190.317 229.243 190.77 229.52C191.575 229.989 191.992 230.539 192.023 231.089C192.053 231.639 191.585 232.24 190.637 232.79L187.276 234.675C187.091 234.816 186.867 234.898 186.634 234.909ZM184.739 229.816C184.974 229.673 185.096 229.53 185.086 229.378C185.076 229.225 184.943 229.062 184.678 228.909C184.436 228.758 184.159 228.674 183.874 228.664C183.608 228.67 183.348 228.744 183.12 228.878L181.846 229.622L183.466 230.549L184.739 229.816ZM188.529 231.782C188.783 231.639 188.885 231.476 188.855 231.303C188.821 231.195 188.765 231.095 188.689 231.01C188.614 230.926 188.521 230.859 188.417 230.814C188.143 230.648 187.83 230.557 187.51 230.549C187.221 230.542 186.935 230.616 186.685 230.763L185.259 231.588L187.062 232.607L188.529 231.782Z" fill="white"/>
<path d="M193.112 231.027C193.035 230.974 192.966 230.909 192.909 230.834L187.713 224.447C187.632 224.355 187.579 224.242 187.561 224.121C187.561 224.039 187.642 223.958 187.795 223.876L188.813 223.265C188.946 223.186 189.097 223.14 189.252 223.133C189.438 223.135 189.624 223.166 189.802 223.224L200.874 226.219C200.985 226.239 201.092 226.277 201.19 226.331C201.272 226.331 201.312 226.423 201.312 226.474C201.312 226.525 201.312 226.576 201.2 226.617L199.408 227.635C199.304 227.692 199.189 227.727 199.071 227.737C198.936 227.743 198.801 227.723 198.674 227.676L196.983 227.177L194.559 228.572L195.445 229.54C195.478 229.57 195.504 229.606 195.522 229.646C195.539 229.687 195.548 229.73 195.547 229.774C195.508 229.86 195.439 229.929 195.353 229.968L193.571 230.987C193.505 231.034 193.428 231.063 193.347 231.07C193.266 231.078 193.185 231.063 193.112 231.027ZM194.691 226.433L191.706 225.537L193.275 227.258L194.691 226.433Z" fill="white"/>
<path d="M202.209 225.863C201.981 225.842 201.762 225.769 201.567 225.649L193.815 221.167C193.584 221.038 193.462 220.916 193.448 220.801C193.435 220.685 193.537 220.563 193.754 220.434L194.671 219.904C194.793 219.83 194.928 219.779 195.068 219.751C195.237 219.722 195.409 219.722 195.577 219.751L202.708 220.77L198.633 218.407C198.409 218.274 198.277 218.142 198.257 218.03C198.236 217.918 198.338 217.785 198.552 217.663L199.683 217.011C199.876 216.895 200.099 216.835 200.324 216.838C200.555 216.857 200.779 216.931 200.976 217.052L208.728 221.534C208.959 221.663 209.081 221.785 209.095 221.901C209.095 222.013 208.993 222.135 208.769 222.267L207.862 222.787C207.741 222.864 207.606 222.92 207.465 222.95C207.3 222.979 207.131 222.979 206.966 222.95L199.835 221.931L203.91 224.305C204.141 224.441 204.263 224.563 204.277 224.671C204.277 224.784 204.175 224.906 203.951 225.038L202.83 225.69C202.643 225.803 202.428 225.863 202.209 225.863Z" fill="white"/>
<path d="M217.134 217.143C217.206 217.143 217.257 217.235 217.257 217.286C217.257 217.337 217.257 217.388 217.145 217.429L215.352 218.447C215.262 218.5 215.166 218.541 215.067 218.57C214.973 218.59 214.875 218.59 214.781 218.57L208.741 217.704L212.011 219.598C212.245 219.731 212.367 219.853 212.388 219.975C212.408 220.098 212.296 220.21 212.072 220.342L210.941 220.984C210.757 221.106 210.541 221.17 210.32 221.167C210.09 221.148 209.869 221.071 209.678 220.943L201.936 216.481C201.702 216.349 201.58 216.216 201.559 216.104C201.539 215.992 201.641 215.86 201.855 215.738L202.975 215.086C203.169 214.97 203.391 214.91 203.617 214.913C203.848 214.931 204.072 215.004 204.269 215.126L207.478 216.98L205.95 213.588C205.934 213.562 205.926 213.532 205.926 213.502C205.926 213.471 205.934 213.441 205.95 213.415C206.013 213.344 206.089 213.285 206.174 213.242L207.956 212.223C208.031 212.183 208.116 212.162 208.201 212.162C208.291 212.16 208.379 212.185 208.455 212.233C208.536 212.273 208.598 212.342 208.629 212.427L210.146 216.166L216.798 217.031C216.918 217.042 217.033 217.08 217.134 217.143Z" fill="white"/>
<path d="M221.686 213.639C220.035 213.583 218.425 213.106 217.01 212.253C215.452 211.347 214.647 210.46 214.576 209.564C214.504 208.667 215.166 207.842 216.531 207.048C217.106 206.717 217.714 206.447 218.345 206.243C218.926 206.052 219.528 205.929 220.137 205.876C220.264 205.861 220.392 205.886 220.504 205.948C220.583 206 220.65 206.07 220.698 206.151L221.176 207.007C221.248 207.099 221.248 207.17 221.176 207.211C221.074 207.26 220.964 207.288 220.85 207.292C220.132 207.386 219.44 207.621 218.813 207.985C218.09 208.392 217.794 208.851 217.866 209.35C217.937 209.849 218.457 210.369 219.384 210.909C220.213 211.413 221.154 211.707 222.124 211.764C222.969 211.813 223.81 211.618 224.548 211.204C225.082 210.938 225.514 210.505 225.781 209.971C225.813 209.899 225.861 209.836 225.923 209.788C226.036 209.75 226.157 209.75 226.27 209.788L227.818 210.073C227.925 210.091 228.028 210.125 228.124 210.175C228.163 210.197 228.194 210.23 228.214 210.27C228.234 210.31 228.241 210.355 228.236 210.399C228.103 211.072 227.4 211.774 226.137 212.498C224.79 213.288 223.247 213.683 221.686 213.639Z" fill="white"/>
<path d="M228.899 210.369C228.818 210.316 228.746 210.251 228.685 210.176L223.5 203.789C223.409 203.704 223.354 203.587 223.348 203.463C223.348 203.381 223.429 203.3 223.572 203.218L224.59 202.607C224.719 202.527 224.867 202.481 225.018 202.475C225.209 202.477 225.397 202.508 225.579 202.566L236.651 205.561C236.759 205.58 236.863 205.618 236.957 205.673C237.038 205.673 237.079 205.765 237.079 205.816C237.079 205.867 237.079 205.918 236.967 205.958L235.174 206.977C235.075 207.035 234.963 207.07 234.848 207.079C234.713 207.085 234.578 207.064 234.451 207.018L232.76 206.519L230.325 207.924L231.222 208.943C231.293 209.025 231.334 209.106 231.314 209.167C231.293 209.228 231.242 209.3 231.12 209.361L229.337 210.379C229.27 210.417 229.194 210.436 229.117 210.435C229.04 210.433 228.965 210.41 228.899 210.369ZM230.468 205.775L227.494 204.879L229.062 206.6L230.468 205.775Z" fill="white"/>
<path d="M237.996 205.205C237.765 205.185 237.541 205.112 237.344 204.991L229.602 200.519C229.378 200.386 229.256 200.264 229.235 200.142C229.215 200.02 229.306 199.908 229.531 199.775L232.373 198.135C233.303 197.54 234.385 197.224 235.49 197.224C236.594 197.224 237.676 197.54 238.607 198.135C239.88 198.868 240.328 199.622 239.962 200.396L243.985 201.415C244.075 201.431 244.161 201.462 244.24 201.507C244.273 201.522 244.302 201.545 244.325 201.573C244.348 201.602 244.364 201.634 244.372 201.67C244.372 201.731 244.372 201.782 244.25 201.833L242.631 202.77C242.528 202.825 242.418 202.866 242.305 202.892C242.191 202.922 242.072 202.922 241.958 202.892L238.281 201.874L237.384 202.393L239.687 203.717C239.921 203.85 240.043 203.982 240.053 204.094C240.064 204.206 239.972 204.328 239.748 204.461L238.617 205.113C238.422 205.199 238.207 205.231 237.996 205.205ZM236.335 200.712C237.038 200.305 237.008 199.887 236.264 199.459C235.951 199.251 235.587 199.132 235.211 199.118C234.835 199.104 234.463 199.194 234.135 199.378L233.218 199.908L235.48 201.211L236.335 200.712Z" fill="white"/>
<path d="M245.337 200.956C245.11 200.935 244.89 200.862 244.695 200.742L236.954 196.271C236.73 196.138 236.597 196.016 236.577 195.894C236.556 195.771 236.658 195.659 236.872 195.537L239.429 194.06C240.676 193.318 242.104 192.934 243.555 192.95C245.142 193.026 246.683 193.503 248.037 194.335C249.554 195.221 250.349 196.077 250.41 196.912C250.471 197.748 249.84 198.552 248.515 199.316L245.969 200.783C245.781 200.904 245.56 200.964 245.337 200.956ZM246.682 198.135C247.242 197.809 247.456 197.462 247.334 197.116C247.212 196.77 246.672 196.27 245.704 195.71C244.971 195.24 244.149 194.924 243.29 194.783C242.664 194.705 242.029 194.838 241.487 195.16L240.57 195.69L245.765 198.695L246.682 198.135Z" fill="white"/>
<path d="M142.231 259.927L163.532 247.622C164.08 247.346 164.685 247.202 165.299 247.202C165.913 247.202 166.518 247.346 167.066 247.622L184.22 257.533C184.436 257.602 184.625 257.738 184.758 257.921C184.892 258.104 184.964 258.325 184.964 258.552C184.964 258.779 184.892 258.999 184.758 259.183C184.625 259.366 184.436 259.501 184.22 259.571L162.92 271.866C162.374 272.142 161.77 272.287 161.158 272.287C160.546 272.287 159.942 272.142 159.396 271.866L142.231 261.964C142.02 261.89 141.838 261.752 141.708 261.57C141.579 261.388 141.51 261.169 141.51 260.946C141.51 260.722 141.579 260.504 141.708 260.322C141.838 260.139 142.02 260.001 142.231 259.927Z" fill="#E0E0E0"/>
<mask id="mask0_1639_44854" style="mask-type:luminance" maskUnits="userSpaceOnUse" x="141" y="247" width="44" height="26">
<path d="M142.229 259.927L163.53 247.622C164.078 247.346 164.683 247.202 165.297 247.202C165.911 247.202 166.516 247.346 167.064 247.622L184.219 257.533C184.434 257.602 184.623 257.738 184.756 257.921C184.89 258.104 184.962 258.325 184.962 258.552C184.962 258.779 184.89 258.999 184.756 259.183C184.623 259.366 184.434 259.501 184.219 259.571L162.918 271.866C162.372 272.142 161.768 272.287 161.156 272.287C160.544 272.287 159.94 272.142 159.394 271.866L142.229 261.964C142.019 261.89 141.836 261.752 141.707 261.57C141.577 261.388 141.508 261.169 141.508 260.946C141.508 260.722 141.577 260.504 141.707 260.322C141.836 260.139 142.019 260.001 142.229 259.927Z" fill="white"/>
</mask>
<g mask="url(#mask0_1639_44854)">
<path d="M173.663 270.939L158.811 262.535C158.267 262.227 157.653 262.065 157.028 262.065C156.403 262.065 155.789 262.227 155.245 262.535L144.855 268.524L144.346 267.648L154.736 261.648C155.433 261.253 156.221 261.045 157.023 261.045C157.825 261.045 158.613 261.253 159.31 261.648L174.162 270.052L173.663 270.939Z" fill="white"/>
<path d="M169.436 258.419C168.618 258.421 167.813 258.206 167.104 257.798L152.639 249.435L153.148 248.559L167.623 256.912C168.176 257.232 168.803 257.4 169.441 257.4C170.08 257.4 170.707 257.232 171.26 256.912L181.599 250.942L182.108 251.828L171.769 257.798C171.06 258.208 170.255 258.423 169.436 258.419Z" fill="white"/>
<path d="M165.544 256.606L165.034 255.72L176.688 248.997L173.571 247.194L161.408 254.212L160.898 253.336L173.571 246.022L178.725 248.997L165.544 256.606Z" fill="white"/>
<path d="M152.881 273.475L147.717 270.501L160.99 262.892L161.499 263.768L149.764 270.501L152.881 272.294L165.126 265.235L165.635 266.111L152.881 273.475Z" fill="white"/>
</g>
<path d="M172.067 276.144L191.605 264.868C192.426 264.451 193.333 264.233 194.253 264.233C195.174 264.233 196.081 264.451 196.902 264.868L199.876 266.589C201.343 267.424 201.343 268.8 199.876 269.645L180.349 280.922C179.528 281.339 178.621 281.556 177.7 281.556C176.78 281.556 175.872 281.339 175.052 280.922L172.067 279.2C170.61 278.355 170.61 276.979 172.067 276.144Z" fill="#FFCA05"/>
<g opacity="0.7">
<path d="M173.089 276.144L192.626 264.868C193.447 264.451 194.355 264.233 195.275 264.233C196.195 264.233 197.103 264.451 197.923 264.868L200.898 266.589C202.365 267.424 202.365 268.8 200.898 269.645L181.37 280.922C180.55 281.339 179.642 281.556 178.722 281.556C177.801 281.556 176.894 281.339 176.073 280.922L173.089 279.2C171.632 278.355 171.632 276.979 173.089 276.144Z" fill="white"/>
</g>
<path d="M201.038 259.417L220.565 248.151C221.386 247.734 222.293 247.517 223.214 247.517C224.134 247.517 225.042 247.734 225.862 248.151L228.847 249.872C230.304 250.718 230.304 252.083 228.847 252.928L209.309 264.205C208.49 264.622 207.585 264.839 206.666 264.839C205.747 264.839 204.841 264.622 204.022 264.205L201.038 262.483C199.571 261.628 199.571 260.263 201.038 259.417Z" fill="#FFCA05"/>
<path d="M201.038 259.417L220.565 248.151C221.386 247.734 222.293 247.517 223.214 247.517C224.134 247.517 225.042 247.734 225.862 248.151L228.847 249.872C230.304 250.718 230.304 252.083 228.847 252.928L209.309 264.205C208.49 264.622 207.585 264.839 206.666 264.839C205.747 264.839 204.841 264.622 204.022 264.205L201.038 262.483C199.571 261.628 199.571 260.263 201.038 259.417Z" fill="#FFCA05"/>
<path opacity="0.7" d="M201.038 259.417L220.565 248.151C221.386 247.734 222.293 247.517 223.214 247.517C224.134 247.517 225.042 247.734 225.862 248.151L228.847 249.872C230.304 250.718 230.304 252.083 228.847 252.928L209.309 264.205C208.49 264.622 207.585 264.839 206.666 264.839C205.747 264.839 204.841 264.622 204.022 264.205L201.038 262.483C199.571 261.628 199.571 260.263 201.038 259.417Z" fill="white"/>
<path d="M229.999 242.691L249.537 231.414C250.355 230.998 251.261 230.78 252.18 230.78C253.099 230.78 254.005 230.998 254.823 231.414L257.808 233.136C259.275 233.981 259.275 235.346 257.808 236.192L238.28 247.468C237.46 247.885 236.552 248.103 235.632 248.103C234.711 248.103 233.804 247.885 232.983 247.468L229.999 245.747C228.542 244.901 228.542 243.536 229.999 242.691Z" fill="#FFCA05"/>
<path opacity="0.7" d="M229.999 242.691L249.537 231.414C250.355 230.998 251.261 230.78 252.18 230.78C253.099 230.78 254.005 230.998 254.823 231.414L257.808 233.136C259.275 233.981 259.275 235.346 257.808 236.192L238.28 247.468C237.46 247.885 236.552 248.103 235.632 248.103C234.711 248.103 233.804 247.885 232.983 247.468L229.999 245.747C228.542 244.901 228.542 243.536 229.999 242.691Z" fill="white"/>
<path d="M258.967 225.975L278.495 214.699C279.316 214.282 280.223 214.064 281.144 214.064C282.064 214.064 282.971 214.282 283.792 214.699L286.777 216.42C288.233 217.256 288.233 218.631 286.777 219.476L267.239 230.753C266.418 231.17 265.511 231.387 264.59 231.387C263.67 231.387 262.762 231.17 261.942 230.753L258.967 229.031C257.5 228.186 257.5 226.811 258.967 225.975Z" fill="#FFCA05"/>
<path opacity="0.7" d="M258.967 225.975L278.495 214.699C279.316 214.282 280.223 214.064 281.144 214.064C282.064 214.064 282.971 214.282 283.792 214.699L286.777 216.42C288.233 217.256 288.233 218.631 286.777 219.476L267.239 230.753C266.418 231.17 265.511 231.387 264.59 231.387C263.67 231.387 262.762 231.17 261.942 230.753L258.967 229.031C257.5 228.186 257.5 226.811 258.967 225.975Z" fill="white"/>
<path d="M300.254 224.202C301.109 224.701 301.018 225.557 300.04 226.127L249.779 255.139C249.275 255.42 248.711 255.578 248.134 255.599C247.556 255.62 246.982 255.504 246.458 255.261C245.603 254.762 245.694 253.906 246.672 253.346L296.933 224.324C297.439 224.048 298.003 223.893 298.579 223.872C299.155 223.85 299.729 223.964 300.254 224.202Z" fill="#FFCA05"/>
<g opacity="0.1">
<path d="M300.256 224.203C301.111 224.702 301.02 225.558 300.042 226.128L249.781 255.14C249.277 255.421 248.713 255.579 248.135 255.6C247.558 255.621 246.984 255.505 246.46 255.262C245.605 254.763 245.696 253.907 246.674 253.347L296.935 224.325C297.441 224.049 298.005 223.894 298.581 223.873C299.157 223.851 299.731 223.965 300.256 224.203Z" fill="black"/>
</g>
<path d="M308.567 228.991C309.433 229.49 309.341 230.346 308.363 230.906L276.174 249.476C275.669 249.757 275.105 249.915 274.528 249.936C273.951 249.957 273.377 249.842 272.853 249.598C271.997 249.109 272.089 248.243 273.067 247.683L305.246 229.113C305.751 228.832 306.315 228.674 306.892 228.653C307.469 228.632 308.043 228.747 308.567 228.991Z" fill="#FFCA05"/>
<g opacity="0.1">
<path d="M308.569 228.99C309.435 229.489 309.343 230.345 308.365 230.905L276.176 249.475C275.671 249.756 275.107 249.914 274.53 249.935C273.953 249.956 273.379 249.841 272.855 249.597C271.999 249.108 272.091 248.242 273.069 247.682L305.248 229.112C305.753 228.831 306.317 228.673 306.894 228.652C307.471 228.631 308.045 228.746 308.569 228.99Z" fill="black"/>
</g>
</svg>
