<svg width="406" height="398" viewBox="0 0 406 398" fill="none" xmlns="http://www.w3.org/2000/svg">
<g clip-path="url(#clip0_347_42103)">
<path d="M372.335 324.155C370.857 326.589 369.328 328.981 367.734 331.316C346.505 362.359 311.971 383.093 278.692 392.023C264.116 395.944 249.208 397.805 234.366 397.988C137.027 399.176 103.507 313.821 72.7437 291.234C41.989 268.647 -5.11906 230.211 2.94545 152.266C9.07481 92.9957 42.6368 37.0479 101.896 12.7416C108.424 10.0585 115.267 7.75741 122.426 5.88003C135.732 2.39939 150.108 0.364172 165.548 0.0485056C209.899 -0.873573 245.578 11.3045 280.021 40.5369C288.027 47.332 295.967 54.9662 306.565 56.0544C314.264 56.8436 321.656 54.1189 313.799 46.0611C304.563 36.5828 315.966 18.7227 339.703 31.9557C379.336 54.0607 394.685 99.9321 401.271 146.335C409.352 203.296 402.882 273.698 372.343 324.147L372.335 324.155Z" fill="#FFCA05"/>
<path opacity="0.7" d="M372.335 324.155C370.857 326.589 369.328 328.981 367.734 331.316C346.505 362.359 311.971 383.093 278.692 392.023C264.116 395.944 249.208 397.805 234.366 397.988C137.027 399.176 103.507 313.821 72.7437 291.234C41.989 268.647 -5.11906 230.211 2.94545 152.266C9.07481 92.9957 42.6368 37.0479 101.896 12.7416C108.424 10.0585 115.267 7.75741 122.426 5.88003C135.732 2.39939 150.108 0.364172 165.548 0.0485056C209.899 -0.873573 245.578 11.3045 280.021 40.5369C288.027 47.332 295.967 54.9662 306.565 56.0544C314.264 56.8436 321.656 54.1189 313.799 46.0611C304.563 36.5828 315.966 18.7227 339.703 31.9557C379.336 54.0607 394.685 99.9321 401.271 146.335C409.352 203.296 402.882 273.698 372.343 324.147L372.335 324.155Z" fill="white"/>
<path d="M405.4 389.323H2.0332" stroke="#0C6F90" stroke-linecap="round" stroke-linejoin="round"/>
<path d="M359.932 34.0241C359.932 34.0241 354.002 20.7162 345.165 20.2677C331.361 19.5699 330.007 30.369 322.657 34.0241C315.307 37.6792 316.353 29.1562 307.433 30.9837C298.505 32.8112 296.62 39.083 291.894 39.6895C287.168 40.2959 283.805 37.0644 280.125 37.6792C276.446 38.2856 272.252 42.5471 272.252 42.5471H390.52C390.52 42.5471 384.947 27.5612 377.074 26.9548C369.2 26.3484 363.096 34.0241 359.948 34.0241H359.932Z" stroke="#0C6F90" stroke-linecap="round" stroke-linejoin="round"/>
<path d="M132.506 238.128C132.506 238.128 126.576 224.82 117.739 224.371C103.935 223.673 102.582 234.472 95.2314 238.128C87.8812 241.783 88.9277 233.26 80.0077 235.087C71.0794 236.915 69.1941 243.187 64.4684 243.793C59.7426 244.399 56.3789 241.168 52.6997 241.783C49.0204 242.389 44.8262 246.651 44.8262 246.651H163.086C163.086 246.651 157.513 231.665 149.64 231.058C141.766 230.452 135.662 238.128 132.514 238.128H132.506Z" stroke="#0C6F90" stroke-linecap="round" stroke-linejoin="round"/>
<path d="M92.4739 36.2089C92.4739 36.2089 88.5538 27.4118 82.7068 27.1128C73.5792 26.6559 72.6822 33.7916 67.8236 36.2089C62.9649 38.6263 63.6543 32.9858 57.7575 34.1986C51.8524 35.4032 50.6066 39.5567 47.4837 39.9554C44.3609 40.3541 42.1351 38.2192 39.7016 38.6263C37.2681 39.0333 34.4941 41.8494 34.4941 41.8494H112.689C112.689 41.8494 109.002 31.9391 103.794 31.5404C98.5866 31.1417 94.5502 36.2173 92.4656 36.2173L92.4739 36.2089Z" stroke="#0C6F90" stroke-linecap="round" stroke-linejoin="round"/>
<g opacity="0.2">
<path d="M372.049 94.3574H351.883C348.681 94.3574 346.086 96.9534 346.086 100.156V120.325C346.086 123.527 348.681 126.123 351.883 126.123H372.049C375.25 126.123 377.846 123.527 377.846 120.325V100.156C377.846 96.9534 375.25 94.3574 372.049 94.3574Z" stroke="black" stroke-linecap="round" stroke-linejoin="round"/>
<path d="M373.517 106.552H365.561V98.5938H358.186V106.552H350.221V113.928H358.186V121.887H365.561V113.928H373.517V106.552Z" stroke="black" stroke-linecap="round" stroke-linejoin="round"/>
</g>
<g opacity="0.2">
<path d="M207.747 283.425C210.571 283.425 213.154 285.112 215.172 287.911C217.614 283.99 221.069 281.54 224.906 281.54C228.743 281.54 232.522 284.223 234.981 288.476C237.04 285.336 239.781 283.425 242.796 283.425C244.947 283.425 246.957 284.406 248.676 286.1C248.56 274.462 237.954 265.059 224.881 265.059C211.809 265.059 201.078 274.57 201.078 286.3C201.078 286.516 201.086 286.732 201.095 286.939C202.98 284.73 205.281 283.425 207.756 283.425H207.747Z" stroke="black" stroke-linecap="round" stroke-linejoin="round"/>
<path d="M224.908 281.54V301.768C224.908 304.102 223.014 305.996 220.681 305.996C218.347 305.996 216.453 304.102 216.453 301.768" stroke="black" stroke-linecap="round" stroke-linejoin="round"/>
<path d="M224.904 265.059V262.334" stroke="black" stroke-linecap="round" stroke-linejoin="round"/>
<path d="M215.055 287.92C215.03 287.288 215.014 286.64 215.014 285.993C215.014 274.57 219.482 265.316 224.997 265.316C230.511 265.316 234.98 274.57 234.98 285.993C234.98 286.707 234.963 287.405 234.93 288.103" stroke="black" stroke-linecap="round" stroke-linejoin="round"/>
</g>
<g opacity="0.2">
<path d="M92.89 290.836L80.5527 277.412L54.4192 301.439L66.7565 314.864L92.89 290.836Z" stroke="black" stroke-linecap="round" stroke-linejoin="round"/>
<path d="M76.3149 299.035C77.9178 297.565 78.0258 295.064 76.5474 293.461C75.0774 291.858 72.5774 291.75 70.9745 293.228C69.3716 294.699 69.2636 297.199 70.742 298.803C72.212 300.406 74.7119 300.514 76.3149 299.035Z" stroke="black" stroke-linecap="round" stroke-linejoin="round"/>
<path d="M87.8913 292.647C86.9445 291.617 87.011 290.022 88.0242 289.066L81.8949 282.396C80.8567 283.326 79.2621 283.251 78.3152 282.221C78.282 282.18 78.2571 282.138 78.2239 282.097L59.8939 298.952C59.8939 298.952 59.977 299.018 60.0102 299.06C60.9653 300.098 60.8989 301.71 59.8607 302.665C59.6531 302.856 59.4205 302.997 59.1797 303.105L65.4918 309.975C65.6246 309.742 65.7824 309.518 65.9818 309.327C67.0199 308.372 68.6312 308.438 69.5863 309.477C69.6195 309.518 69.6444 309.56 69.6777 309.601L88.0076 292.746C88.0076 292.746 87.9246 292.68 87.8913 292.638V292.647Z" stroke="black" stroke-linecap="round" stroke-linejoin="round"/>
</g>
<path d="M264.623 353.436C262.879 348.261 258.045 344.78 252.58 344.78H231.194C227.315 344.78 223.702 346.691 221.518 349.897L217.913 356.011C217.399 356.767 217.59 357.806 218.354 358.321C219.109 358.836 220.148 358.645 220.663 357.88L224.267 351.766C225.829 349.474 228.42 348.095 231.202 348.095H252.588C256.616 348.095 260.196 350.662 261.483 354.483C262.497 357.49 261.932 360.771 259.972 363.263C259.972 363.263 255.603 367.342 254.191 367.89C252.779 368.43 251.26 366.802 251.26 366.802L248.328 369.195L249.673 376.405L248.61 377.759C248.045 378.482 248.17 379.529 248.893 380.093C249.2 380.334 249.557 380.451 249.914 380.451C250.404 380.451 250.894 380.235 251.226 379.811L262.588 365.315C265.237 361.934 266.002 357.49 264.631 353.42L264.623 353.436Z" fill="#FFCA05" stroke="#0C6F90" stroke-linecap="round" stroke-linejoin="round"/>
<path d="M218.32 362.492C218.32 362.492 216.626 365.366 213.42 364.859C210.746 364.436 188.056 347.439 188.056 347.439L186.195 349.466L217.814 382.279" fill="#FFCA05"/>
<path d="M218.32 362.492C218.32 362.492 216.626 365.366 213.42 364.859C210.746 364.436 188.056 347.439 188.056 347.439L186.195 349.466L217.814 382.279" stroke="#0C6F90" stroke-linecap="round" stroke-linejoin="round"/>
<path d="M188.045 347.439L187.032 339.655C183.021 341.342 180.114 344.93 179.3 349.208L179.25 349.458H186.185L188.045 347.431V347.439Z" fill="#0C6F90" stroke="#0C6F90" stroke-linecap="round" stroke-linejoin="round"/>
<path d="M191.879 350.279C189.578 348.585 188.05 347.438 188.05 347.438L186.189 349.465L189.453 352.855L191.879 350.279Z" fill="#0C6F90" stroke="#0C6F90" stroke-linecap="round" stroke-linejoin="round"/>
<path d="M249.53 355.073H218.841C217.846 355.073 217.039 355.88 217.039 356.876V387.52C217.039 388.516 217.846 389.323 218.841 389.323H249.53C250.525 389.323 251.332 388.516 251.332 387.52V356.876C251.332 355.88 250.525 355.073 249.53 355.073Z" fill="#FFCA05" stroke="#0C6F90" stroke-linecap="round" stroke-linejoin="round"/>
<path d="M83.9777 353.222C83.9777 353.222 84.7501 351.369 84.7833 351.253C85.1736 349.824 85.0823 346.842 83.6953 345.936C82.6986 345.288 81.4279 345.754 80.9047 346.767C80.3648 347.805 80.697 349.209 81.1788 350.206C81.7435 351.377 83.986 353.222 83.986 353.23L83.9777 353.222Z" fill="#0C6F90"/>
<path d="M54.8982 348.86C56.0112 349.525 58.9014 349.832 58.9014 349.832C58.9346 349.832 58.5194 347.863 58.4862 347.747C58.0211 346.343 56.3018 343.901 54.6491 343.909C53.4531 343.918 52.6558 345.006 52.7804 346.144C52.905 347.307 53.9597 348.295 54.9065 348.86H54.8982Z" fill="#0C6F90"/>
<path d="M54.8299 357.333C56.0259 357.666 58.7002 357.25 58.9079 357.217C59.1321 358.712 59.4809 360.224 59.9128 361.736C60.162 362.6 60.436 363.464 60.7267 364.328C60.5357 363.954 60.3613 363.622 60.3364 363.58C59.5224 362.351 57.2136 360.449 55.6189 360.897C54.4728 361.221 53.9828 362.484 54.4063 363.547C54.8382 364.635 56.1089 365.308 57.172 365.607C58.2517 365.906 60.5357 365.599 61.1337 365.507C61.25 365.84 61.3579 366.164 61.4742 366.496C62.0307 368.074 62.5871 369.653 63.0938 371.206C63.2682 371.754 63.426 372.303 63.5838 372.851C63.4177 372.519 63.2682 372.244 63.2433 372.203C62.4293 370.973 60.1204 369.071 58.5258 369.52C57.3797 369.844 56.8896 371.106 57.3132 372.17C57.7451 373.258 59.0158 373.931 60.0789 374.23C61.1088 374.521 63.2183 374.246 63.9326 374.147C64.0738 374.712 64.2233 375.277 64.3313 375.833C64.3977 376.215 64.4891 376.572 64.5389 376.963C64.597 377.345 64.6469 377.719 64.705 378.093C64.7797 378.815 64.8711 379.563 64.9292 380.269C64.9708 380.759 65.004 381.233 65.0455 381.706C64.8794 381.158 64.5223 380.086 64.4808 380.003C63.8579 378.657 61.8729 376.431 60.2284 376.639C59.0407 376.788 58.3763 377.96 58.6255 379.073C58.8829 380.211 60.0374 381.075 61.0506 381.523C62.1552 382.022 64.7548 382.03 65.0787 382.03C65.1369 382.811 65.1784 383.575 65.2116 384.298C65.303 386.275 65.3279 387.978 65.3196 389.332H66.4076C66.3827 387.961 66.3245 386.233 66.1834 384.24C66.1335 383.442 66.0588 382.595 65.9757 381.723C66.175 381.673 67.3212 381.374 68.3594 380.95C69.0819 381.972 71.1001 383.309 71.3659 383.484C70.9839 384.165 70.6018 384.83 70.2281 385.444C69.3311 386.956 68.4922 388.26 67.7946 389.324H69.0653C69.6633 388.352 70.3443 387.214 71.0752 385.934C71.4656 385.245 71.8808 384.497 72.2878 383.725C72.5868 383.833 75.0535 384.663 76.2661 384.547C77.3624 384.439 78.7328 384.007 79.3474 383.01C79.9453 382.038 79.6962 380.709 78.6165 380.186C77.1298 379.463 74.5219 380.925 73.5004 381.997C73.4422 382.063 72.8609 382.819 72.5037 383.301C72.6698 382.985 72.8359 382.678 73.0021 382.354C73.3343 381.706 73.6499 381.058 73.9904 380.352C74.1399 380.003 74.2977 379.654 74.4555 379.305C74.6216 378.957 74.7462 378.574 74.8957 378.209C75.2196 377.345 75.5103 376.456 75.7761 375.551C76.3408 375.841 78.3673 376.855 79.4719 376.913C80.5765 376.979 81.9968 376.747 82.7526 375.858C83.4917 374.986 83.4419 373.632 82.4619 372.959C81.0998 372.02 78.3009 373.075 77.1298 373.972C77.0551 374.03 76.291 374.77 75.8757 375.185C76.0335 374.645 76.1913 374.097 76.3325 373.54C76.7395 371.937 77.1049 370.301 77.4786 368.672C77.5949 368.174 77.7112 367.676 77.8275 367.177C78.0268 367.285 80.4104 368.531 81.6479 368.606C82.7526 368.672 84.1728 368.44 84.9286 367.551C85.6677 366.679 85.6179 365.325 84.6379 364.652C83.2758 363.713 80.4769 364.768 79.3058 365.665C79.2145 365.732 78.1099 366.803 77.8441 367.086C78.1015 365.989 78.3756 364.901 78.6829 363.838C79.1065 362.367 79.6048 360.955 80.1862 359.618C80.2776 359.668 82.7609 360.98 84.0316 361.055C85.1362 361.121 86.5564 360.889 87.3122 360C88.0514 359.128 88.0015 357.774 87.0215 357.101C85.6594 356.162 82.8605 357.217 81.6895 358.114C81.6147 358.172 80.7676 358.986 80.3772 359.385L80.3025 359.335C80.942 357.915 81.7393 356.611 82.5532 355.439C83.0183 354.758 83.5083 354.127 83.9901 353.529C84.4302 353.819 86.4401 355.14 87.5697 355.331C88.6577 355.514 90.0945 355.448 90.9499 354.642C91.7805 353.853 91.8801 352.507 90.9749 351.726C89.7208 350.638 86.8305 351.386 85.5681 352.15C85.5016 352.191 84.8455 352.69 84.3804 353.064C84.6047 352.798 84.8289 352.515 85.0448 352.266C85.8671 351.319 86.6727 350.505 87.3953 349.782C87.8105 349.375 88.1926 349.018 88.5497 348.686C89.1311 348.752 91.4649 348.977 92.5363 348.628C93.5911 348.287 94.8286 347.564 95.2189 346.46C95.5926 345.38 95.0611 344.134 93.8984 343.859C92.2871 343.477 90.0613 345.463 89.2889 346.725C89.2224 346.833 88.3836 348.661 88.4085 348.669H88.4417C88.0846 348.985 87.7109 349.325 87.3122 349.699C86.573 350.405 85.7425 351.203 84.9036 352.133C84.0565 353.064 83.1678 354.094 82.329 355.273C81.4818 356.453 80.6596 357.732 79.9703 359.161C79.9703 359.178 79.9536 359.194 79.9453 359.211C80.0118 358.729 80.1696 357.383 80.1696 357.275C80.1696 355.797 79.2975 352.939 77.7195 352.432C76.5817 352.067 75.4854 352.856 75.2445 353.977C75.0037 355.124 75.693 356.386 76.4156 357.217C77.2295 358.156 79.6879 359.286 79.8789 359.369C79.2394 360.739 78.6995 362.193 78.2261 363.697C77.9604 364.552 77.7112 365.433 77.4786 366.305C77.5285 365.89 77.5617 365.516 77.5617 365.466C77.5617 363.987 76.6813 361.13 75.1116 360.623C73.9738 360.257 72.8775 361.047 72.6366 362.168C72.3958 363.314 73.0851 364.577 73.8077 365.408C74.5385 366.255 76.6149 367.252 77.1714 367.509C77.0883 367.85 76.9969 368.182 76.9139 368.523C76.5069 370.143 76.1083 371.771 75.6681 373.349C75.5103 373.906 75.3359 374.446 75.1698 374.994C75.2113 374.62 75.2445 374.313 75.2445 374.263C75.2445 372.784 74.3641 369.927 72.7944 369.42C71.6566 369.055 70.5603 369.844 70.3194 370.965C70.0786 372.112 70.7679 373.374 71.4905 374.205C72.1881 375.011 74.0984 375.958 74.7545 376.265C74.5635 376.813 74.3724 377.37 74.1565 377.893C74.007 378.25 73.8824 378.599 73.708 378.948C73.5419 379.297 73.3841 379.638 73.218 379.987C72.8858 380.635 72.5453 381.299 72.2047 381.922C71.9722 382.354 71.7396 382.769 71.5071 383.185C71.6649 382.637 71.9639 381.548 71.9722 381.449C72.1217 380.477 71.9722 378.849 71.4323 377.644C71.4573 377.503 71.4656 377.353 71.4573 377.212C71.424 376.066 70.4772 375.102 69.2896 375.26C67.6451 375.476 66.283 378.134 66.0256 379.596C66.0089 379.679 65.9425 380.635 65.9176 381.233C65.8844 380.875 65.8511 380.535 65.8096 380.169C65.7349 379.447 65.6352 378.724 65.5355 377.951C65.4691 377.578 65.411 377.204 65.3445 376.822C65.2864 376.44 65.1867 376.049 65.1037 375.659C64.896 374.761 64.6469 373.856 64.3728 372.959C65.004 372.892 67.2547 372.618 68.2099 372.053C69.165 371.497 70.2281 370.525 70.3693 369.362C70.5104 368.224 69.7214 367.127 68.5255 367.102C66.8727 367.069 65.1203 369.495 64.6386 370.89C64.6053 370.982 64.3728 372.02 64.2648 372.593C64.0987 372.053 63.9326 371.513 63.7416 370.973C63.2017 369.412 62.6037 367.842 62.0141 366.28C61.8313 365.798 61.6569 365.325 61.4825 364.843C61.7068 364.818 64.3811 364.552 65.4608 363.929C66.4159 363.373 67.479 362.401 67.6202 361.238C67.7614 360.1 66.9724 359.003 65.7764 358.978C64.1236 358.945 62.3712 361.371 61.8895 362.766C61.8563 362.874 61.524 364.369 61.4576 364.76C61.0673 363.705 60.6935 362.65 60.3613 361.595C59.9045 360.141 59.5391 358.687 59.2899 357.25C59.3979 357.242 62.1885 356.968 63.2848 356.328C64.2399 355.772 65.303 354.8 65.4442 353.637C65.5854 352.499 64.7964 351.402 63.6004 351.377C61.9476 351.344 60.1952 353.77 59.7135 355.165C59.6803 355.257 59.4311 356.403 59.3231 356.943H59.2318C58.9826 355.398 58.9328 353.878 58.9577 352.449C58.9743 351.618 59.0324 350.829 59.1072 350.065C59.6304 350.065 62.0307 350.056 63.0855 349.591C64.0987 349.143 65.2531 348.295 65.5272 347.157C65.7847 346.044 65.1286 344.865 63.9409 344.707C62.2964 344.491 60.2948 346.709 59.6636 348.046C59.6304 348.121 59.3647 348.893 59.1736 349.467C59.2152 349.118 59.2484 348.761 59.2899 348.428C59.4477 347.182 59.6719 346.061 59.8796 345.064C60.0042 344.499 60.1204 343.992 60.245 343.51C60.7599 343.245 62.8363 342.148 63.5422 341.259C64.2316 340.395 64.8711 339.108 64.5804 337.97C64.298 336.857 63.1685 336.117 62.0473 336.524C60.4942 337.089 59.7301 339.98 59.7882 341.459C59.7882 341.583 60.0955 343.577 60.1287 343.56L60.162 343.544C60.0374 344.001 59.9128 344.491 59.7799 345.022C59.5474 346.019 59.2982 347.141 59.1155 348.387C58.9245 349.633 58.7501 350.987 58.7002 352.424C58.6421 353.869 58.6587 355.398 58.8746 356.968C58.8746 356.984 58.8746 357.001 58.8829 357.018C58.6753 356.577 58.0607 355.373 58.0026 355.282C57.1886 354.052 54.8798 352.15 53.2851 352.598C52.139 352.922 51.649 354.185 52.0725 355.248C52.5044 356.337 53.7751 357.009 54.8382 357.308L54.8299 357.333Z" fill="#0C6F90"/>
<path opacity="0.3" d="M54.8982 348.86C56.0112 349.525 58.9014 349.832 58.9014 349.832C58.9346 349.832 58.5194 347.863 58.4862 347.747C58.0211 346.343 56.3018 343.901 54.6491 343.909C53.4531 343.918 52.6558 345.006 52.7804 346.144C52.905 347.307 53.9597 348.295 54.9065 348.86H54.8982Z" fill="#0C6F90"/>
<path opacity="0.3" d="M83.9777 353.222C83.9777 353.222 84.7501 351.369 84.7833 351.253C85.1736 349.824 85.0823 346.842 83.6953 345.936C82.6986 345.288 81.4279 345.754 80.9047 346.767C80.3648 347.805 80.697 349.209 81.1788 350.206C81.7435 351.377 83.986 353.222 83.986 353.23L83.9777 353.222Z" fill="#0C6F90"/>
<path opacity="0.3" d="M54.8299 357.333C56.0259 357.666 58.7002 357.25 58.9079 357.217C59.1321 358.712 59.4809 360.224 59.9128 361.736C60.162 362.6 60.436 363.464 60.7267 364.328C60.5357 363.954 60.3613 363.622 60.3364 363.58C59.5224 362.351 57.2136 360.449 55.6189 360.897C54.4728 361.221 53.9828 362.484 54.4063 363.547C54.8382 364.635 56.1089 365.308 57.172 365.607C58.2517 365.906 60.5357 365.599 61.1337 365.507C61.25 365.84 61.3579 366.164 61.4742 366.496C62.0307 368.074 62.5871 369.653 63.0938 371.206C63.2682 371.754 63.426 372.303 63.5838 372.851C63.4177 372.519 63.2682 372.244 63.2433 372.203C62.4293 370.973 60.1204 369.071 58.5258 369.52C57.3797 369.844 56.8896 371.106 57.3132 372.17C57.7451 373.258 59.0158 373.931 60.0789 374.23C61.1088 374.521 63.2183 374.246 63.9326 374.147C64.0738 374.712 64.2233 375.277 64.3313 375.833C64.3977 376.215 64.4891 376.572 64.5389 376.963C64.597 377.345 64.6469 377.719 64.705 378.093C64.7797 378.815 64.8711 379.563 64.9292 380.269C64.9708 380.759 65.004 381.233 65.0455 381.706C64.8794 381.158 64.5223 380.086 64.4808 380.003C63.8579 378.657 61.8729 376.431 60.2284 376.639C59.0407 376.788 58.3763 377.96 58.6255 379.073C58.8829 380.211 60.0374 381.075 61.0506 381.523C62.1552 382.022 64.7548 382.03 65.0787 382.03C65.1369 382.811 65.1784 383.575 65.2116 384.298C65.303 386.275 65.3279 387.978 65.3196 389.332H66.4076C66.3827 387.961 66.3245 386.233 66.1834 384.24C66.1335 383.442 66.0588 382.595 65.9757 381.723C66.175 381.673 67.3212 381.374 68.3594 380.95C69.0819 381.972 71.1001 383.309 71.3659 383.484C70.9839 384.165 70.6018 384.83 70.2281 385.444C69.3311 386.956 68.4922 388.26 67.7946 389.324H69.0653C69.6633 388.352 70.3443 387.214 71.0752 385.934C71.4656 385.245 71.8808 384.497 72.2878 383.725C72.5868 383.833 75.0535 384.663 76.2661 384.547C77.3624 384.439 78.7328 384.007 79.3474 383.01C79.9453 382.038 79.6962 380.709 78.6165 380.186C77.1298 379.463 74.5219 380.925 73.5004 381.997C73.4422 382.063 72.8609 382.819 72.5037 383.301C72.6698 382.985 72.8359 382.678 73.0021 382.354C73.3343 381.706 73.6499 381.058 73.9904 380.352C74.1399 380.003 74.2977 379.654 74.4555 379.305C74.6216 378.957 74.7462 378.574 74.8957 378.209C75.2196 377.345 75.5103 376.456 75.7761 375.551C76.3408 375.841 78.3673 376.855 79.4719 376.913C80.5765 376.979 81.9968 376.747 82.7526 375.858C83.4917 374.986 83.4419 373.632 82.4619 372.959C81.0998 372.02 78.3009 373.075 77.1298 373.972C77.0551 374.03 76.291 374.77 75.8757 375.185C76.0335 374.645 76.1913 374.097 76.3325 373.54C76.7395 371.937 77.1049 370.301 77.4786 368.672C77.5949 368.174 77.7112 367.676 77.8275 367.177C78.0268 367.285 80.4104 368.531 81.6479 368.606C82.7526 368.672 84.1728 368.44 84.9286 367.551C85.6677 366.679 85.6179 365.325 84.6379 364.652C83.2758 363.713 80.4769 364.768 79.3058 365.665C79.2145 365.732 78.1099 366.803 77.8441 367.086C78.1015 365.989 78.3756 364.901 78.6829 363.838C79.1065 362.367 79.6048 360.955 80.1862 359.618C80.2776 359.668 82.7609 360.98 84.0316 361.055C85.1362 361.121 86.5564 360.889 87.3122 360C88.0514 359.128 88.0015 357.774 87.0215 357.101C85.6594 356.162 82.8605 357.217 81.6895 358.114C81.6147 358.172 80.7676 358.986 80.3772 359.385L80.3025 359.335C80.942 357.915 81.7393 356.611 82.5532 355.439C83.0183 354.758 83.5083 354.127 83.9901 353.529C84.4302 353.819 86.4401 355.14 87.5697 355.331C88.6577 355.514 90.0945 355.448 90.9499 354.642C91.7805 353.853 91.8801 352.507 90.9749 351.726C89.7208 350.638 86.8305 351.386 85.5681 352.15C85.5016 352.191 84.8455 352.69 84.3804 353.064C84.6047 352.798 84.8289 352.515 85.0448 352.266C85.8671 351.319 86.6727 350.505 87.3953 349.782C87.8105 349.375 88.1926 349.018 88.5497 348.686C89.1311 348.752 91.4649 348.977 92.5363 348.628C93.5911 348.287 94.8286 347.564 95.2189 346.46C95.5926 345.38 95.0611 344.134 93.8984 343.859C92.2871 343.477 90.0613 345.463 89.2889 346.725C89.2224 346.833 88.3836 348.661 88.4085 348.669H88.4417C88.0846 348.985 87.7109 349.325 87.3122 349.699C86.573 350.405 85.7425 351.203 84.9036 352.133C84.0565 353.064 83.1678 354.094 82.329 355.273C81.4818 356.453 80.6596 357.732 79.9703 359.161C79.9703 359.178 79.9536 359.194 79.9453 359.211C80.0118 358.729 80.1696 357.383 80.1696 357.275C80.1696 355.797 79.2975 352.939 77.7195 352.432C76.5817 352.067 75.4854 352.856 75.2445 353.977C75.0037 355.124 75.693 356.386 76.4156 357.217C77.2295 358.156 79.6879 359.286 79.8789 359.369C79.2394 360.739 78.6995 362.193 78.2261 363.697C77.9604 364.552 77.7112 365.433 77.4786 366.305C77.5285 365.89 77.5617 365.516 77.5617 365.466C77.5617 363.987 76.6813 361.13 75.1116 360.623C73.9738 360.257 72.8775 361.047 72.6366 362.168C72.3958 363.314 73.0851 364.577 73.8077 365.408C74.5385 366.255 76.6149 367.252 77.1714 367.509C77.0883 367.85 76.9969 368.182 76.9139 368.523C76.5069 370.143 76.1083 371.771 75.6681 373.349C75.5103 373.906 75.3359 374.446 75.1698 374.994C75.2113 374.62 75.2445 374.313 75.2445 374.263C75.2445 372.784 74.3641 369.927 72.7944 369.42C71.6566 369.055 70.5603 369.844 70.3194 370.965C70.0786 372.112 70.7679 373.374 71.4905 374.205C72.1881 375.011 74.0984 375.958 74.7545 376.265C74.5635 376.813 74.3724 377.37 74.1565 377.893C74.007 378.25 73.8824 378.599 73.708 378.948C73.5419 379.297 73.3841 379.638 73.218 379.987C72.8858 380.635 72.5453 381.299 72.2047 381.922C71.9722 382.354 71.7396 382.769 71.5071 383.185C71.6649 382.637 71.9639 381.548 71.9722 381.449C72.1217 380.477 71.9722 378.849 71.4323 377.644C71.4573 377.503 71.4656 377.353 71.4573 377.212C71.424 376.066 70.4772 375.102 69.2896 375.26C67.6451 375.476 66.283 378.134 66.0256 379.596C66.0089 379.679 65.9425 380.635 65.9176 381.233C65.8844 380.875 65.8511 380.535 65.8096 380.169C65.7349 379.447 65.6352 378.724 65.5355 377.951C65.4691 377.578 65.411 377.204 65.3445 376.822C65.2864 376.44 65.1867 376.049 65.1037 375.659C64.896 374.761 64.6469 373.856 64.3728 372.959C65.004 372.892 67.2547 372.618 68.2099 372.053C69.165 371.497 70.2281 370.525 70.3693 369.362C70.5104 368.224 69.7214 367.127 68.5255 367.102C66.8727 367.069 65.1203 369.495 64.6386 370.89C64.6053 370.982 64.3728 372.02 64.2648 372.593C64.0987 372.053 63.9326 371.513 63.7416 370.973C63.2017 369.412 62.6037 367.842 62.0141 366.28C61.8313 365.798 61.6569 365.325 61.4825 364.843C61.7068 364.818 64.3811 364.552 65.4608 363.929C66.4159 363.373 67.479 362.401 67.6202 361.238C67.7614 360.1 66.9724 359.003 65.7764 358.978C64.1236 358.945 62.3712 361.371 61.8895 362.766C61.8563 362.874 61.524 364.369 61.4576 364.76C61.0673 363.705 60.6935 362.65 60.3613 361.595C59.9045 360.141 59.5391 358.687 59.2899 357.25C59.3979 357.242 62.1885 356.968 63.2848 356.328C64.2399 355.772 65.303 354.8 65.4442 353.637C65.5854 352.499 64.7964 351.402 63.6004 351.377C61.9476 351.344 60.1952 353.77 59.7135 355.165C59.6803 355.257 59.4311 356.403 59.3231 356.943H59.2318C58.9826 355.398 58.9328 353.878 58.9577 352.449C58.9743 351.618 59.0324 350.829 59.1072 350.065C59.6304 350.065 62.0307 350.056 63.0855 349.591C64.0987 349.143 65.2531 348.295 65.5272 347.157C65.7847 346.044 65.1286 344.865 63.9409 344.707C62.2964 344.491 60.2948 346.709 59.6636 348.046C59.6304 348.121 59.3647 348.893 59.1736 349.467C59.2152 349.118 59.2484 348.761 59.2899 348.428C59.4477 347.182 59.6719 346.061 59.8796 345.064C60.0042 344.499 60.1204 343.992 60.245 343.51C60.7599 343.245 62.8363 342.148 63.5422 341.259C64.2316 340.395 64.8711 339.108 64.5804 337.97C64.298 336.857 63.1685 336.117 62.0473 336.524C60.4942 337.089 59.7301 339.98 59.7882 341.459C59.7882 341.583 60.0955 343.577 60.1287 343.56L60.162 343.544C60.0374 344.001 59.9128 344.491 59.7799 345.022C59.5474 346.019 59.2982 347.141 59.1155 348.387C58.9245 349.633 58.7501 350.987 58.7002 352.424C58.6421 353.869 58.6587 355.398 58.8746 356.968C58.8746 356.984 58.8746 357.001 58.8829 357.018C58.6753 356.577 58.0607 355.373 58.0026 355.282C57.1886 354.052 54.8798 352.15 53.2851 352.598C52.139 352.922 51.649 354.185 52.0725 355.248C52.5044 356.337 53.7751 357.009 54.8382 357.308L54.8299 357.333Z" fill="#0C6F90"/>
<path d="M101.475 367.967C101.475 367.967 101.018 366.871 101.001 366.796C100.769 365.949 100.827 364.188 101.649 363.648C102.239 363.266 102.995 363.54 103.302 364.138C103.617 364.753 103.426 365.583 103.144 366.173C102.812 366.863 101.483 367.959 101.483 367.959L101.475 367.967Z" fill="#0C6F90"/>
<path d="M118.682 365.384C118.026 365.774 116.315 365.957 116.315 365.957C116.299 365.957 116.54 364.794 116.564 364.719C116.839 363.888 117.86 362.443 118.84 362.451C119.546 362.451 120.019 363.099 119.945 363.772C119.87 364.462 119.247 365.043 118.691 365.375L118.682 365.384Z" fill="#0C6F90"/>
<path d="M118.724 370.401C118.018 370.601 116.432 370.351 116.307 370.335C116.175 371.215 115.967 372.112 115.709 373.01C115.56 373.525 115.394 374.031 115.228 374.546C115.344 374.322 115.444 374.131 115.46 374.106C115.942 373.375 117.304 372.254 118.251 372.519C118.932 372.711 119.214 373.458 118.973 374.089C118.716 374.729 117.968 375.128 117.337 375.311C116.698 375.485 115.344 375.311 114.995 375.252C114.929 375.444 114.862 375.643 114.796 375.834C114.464 376.764 114.131 377.703 113.841 378.625C113.733 378.949 113.641 379.273 113.55 379.597C113.65 379.398 113.733 379.24 113.749 379.215C114.231 378.484 115.593 377.362 116.54 377.628C117.221 377.819 117.503 378.567 117.263 379.198C117.005 379.838 116.258 380.237 115.626 380.419C115.02 380.586 113.766 380.428 113.342 380.37C113.259 380.702 113.168 381.042 113.102 381.366C113.06 381.591 113.002 381.807 112.977 382.031C112.944 382.255 112.911 382.48 112.877 382.704C112.827 383.136 112.778 383.576 112.744 383.991C112.719 384.282 112.695 384.556 112.678 384.839C112.778 384.515 112.985 383.883 113.01 383.834C113.376 383.036 114.555 381.724 115.527 381.84C116.224 381.923 116.623 382.621 116.474 383.285C116.324 383.958 115.635 384.465 115.037 384.739C114.381 385.038 112.844 385.038 112.653 385.038C112.62 385.503 112.595 385.952 112.57 386.376C112.512 387.547 112.504 388.552 112.504 389.358H111.856C111.872 388.552 111.906 387.522 111.989 386.342C112.022 385.869 112.063 385.37 112.113 384.855C111.997 384.822 111.316 384.648 110.701 384.398C110.269 385.005 109.082 385.794 108.924 385.894C109.148 386.301 109.381 386.691 109.597 387.057C110.128 387.954 110.618 388.726 111.034 389.349H110.278C109.921 388.776 109.522 388.103 109.09 387.347C108.858 386.94 108.617 386.492 108.376 386.035C108.201 386.093 106.74 386.592 106.025 386.525C105.378 386.467 104.564 386.201 104.198 385.611C103.841 385.038 103.991 384.249 104.63 383.942C105.51 383.518 107.055 384.382 107.653 385.013C107.686 385.046 108.027 385.495 108.243 385.786C108.143 385.595 108.044 385.42 107.944 385.221C107.745 384.839 107.562 384.448 107.354 384.033C107.263 383.825 107.172 383.626 107.08 383.418C106.98 383.211 106.906 382.986 106.823 382.77C106.632 382.264 106.457 381.732 106.299 381.2C105.967 381.375 104.763 381.973 104.107 382.006C103.451 382.039 102.612 381.906 102.163 381.383C101.723 380.868 101.756 380.071 102.338 379.663C103.143 379.107 104.796 379.73 105.494 380.262C105.535 380.295 105.992 380.735 106.233 380.976C106.142 380.652 106.042 380.336 105.959 380.004C105.718 379.057 105.502 378.085 105.278 377.122C105.211 376.822 105.137 376.532 105.07 376.241C104.954 376.307 103.542 377.047 102.811 377.088C102.155 377.13 101.316 376.989 100.868 376.465C100.428 375.95 100.461 375.144 101.042 374.746C101.848 374.189 103.501 374.812 104.198 375.344C104.248 375.385 104.904 376.017 105.062 376.183C104.912 375.535 104.746 374.887 104.564 374.264C104.314 373.4 104.015 372.561 103.675 371.772C103.617 371.805 102.155 372.578 101.399 372.627C100.743 372.661 99.9043 372.528 99.4558 372.004C99.0157 371.489 99.0489 370.692 99.6303 370.285C100.436 369.728 102.089 370.351 102.786 370.883C102.828 370.916 103.326 371.398 103.559 371.631L103.609 371.597C103.226 370.758 102.753 369.986 102.28 369.288C102.006 368.881 101.715 368.515 101.433 368.158C101.175 368.333 99.9874 369.114 99.3146 369.222C98.6668 369.33 97.8197 369.288 97.3131 368.815C96.823 368.349 96.7649 367.552 97.2964 367.087C98.0356 366.447 99.7465 366.879 100.494 367.336C100.536 367.361 100.918 367.66 101.2 367.876C101.067 367.718 100.934 367.552 100.801 367.402C100.32 366.846 99.8379 366.356 99.4143 365.932C99.1651 365.691 98.9409 365.483 98.7333 365.284C98.3927 365.326 97.0141 365.458 96.3745 365.251C95.7516 365.051 95.0125 364.619 94.7882 363.972C94.564 363.332 94.8796 362.593 95.5689 362.435C96.524 362.21 97.8363 363.382 98.2931 364.129C98.3346 364.196 98.8329 365.276 98.8163 365.276H98.7997C99.0073 365.458 99.2316 365.666 99.4724 365.882C99.9126 366.298 100.403 366.771 100.901 367.328C101.399 367.876 101.931 368.491 102.429 369.188C102.927 369.886 103.417 370.642 103.824 371.489C103.824 371.498 103.824 371.506 103.841 371.523C103.8 371.24 103.708 370.443 103.708 370.376C103.708 369.504 104.223 367.809 105.162 367.51C105.834 367.294 106.482 367.76 106.623 368.424C106.765 369.097 106.358 369.853 105.934 370.343C105.452 370.9 103.999 371.564 103.883 371.614C104.256 372.42 104.58 373.284 104.863 374.173C105.02 374.679 105.17 375.194 105.303 375.718C105.278 375.468 105.253 375.252 105.253 375.219C105.253 374.347 105.768 372.652 106.706 372.353C107.379 372.137 108.027 372.603 108.168 373.267C108.309 373.94 107.902 374.696 107.479 375.186C107.047 375.684 105.818 376.283 105.494 376.432C105.544 376.631 105.602 376.831 105.652 377.03C105.892 377.994 106.133 378.949 106.391 379.888C106.482 380.22 106.582 380.536 106.69 380.86C106.665 380.644 106.648 380.453 106.648 380.428C106.648 379.555 107.163 377.861 108.102 377.562C108.774 377.346 109.422 377.811 109.563 378.476C109.705 379.148 109.298 379.904 108.874 380.395C108.459 380.876 107.329 381.433 106.947 381.616C107.064 381.94 107.172 382.272 107.296 382.579C107.387 382.787 107.462 382.995 107.562 383.202C107.662 383.41 107.753 383.609 107.853 383.817C108.052 384.199 108.251 384.598 108.451 384.963C108.592 385.221 108.725 385.462 108.866 385.711C108.774 385.387 108.6 384.739 108.592 384.689C108.509 384.116 108.592 383.152 108.916 382.438C108.899 382.355 108.899 382.264 108.899 382.181C108.924 381.508 109.48 380.934 110.178 381.026C111.15 381.159 111.955 382.729 112.113 383.593C112.122 383.643 112.163 384.207 112.18 384.565C112.205 384.357 112.221 384.149 112.246 383.933C112.288 383.501 112.346 383.078 112.412 382.621C112.445 382.396 112.487 382.18 112.528 381.956C112.562 381.732 112.628 381.499 112.67 381.267C112.794 380.735 112.935 380.203 113.102 379.672C112.728 379.63 111.399 379.464 110.834 379.14C110.269 378.808 109.638 378.235 109.555 377.545C109.472 376.872 109.937 376.224 110.643 376.208C111.623 376.191 112.661 377.62 112.944 378.451C112.96 378.5 113.102 379.115 113.168 379.456C113.268 379.132 113.367 378.816 113.475 378.492C113.799 377.57 114.148 376.64 114.497 375.718C114.605 375.435 114.704 375.153 114.812 374.87C114.68 374.854 113.093 374.696 112.462 374.33C111.897 373.998 111.266 373.425 111.183 372.735C111.1 372.063 111.565 371.415 112.271 371.398C113.251 371.381 114.289 372.81 114.572 373.641C114.597 373.707 114.788 374.588 114.829 374.82C115.062 374.197 115.278 373.574 115.477 372.943C115.743 372.079 115.967 371.224 116.108 370.368C116.05 370.368 114.389 370.202 113.741 369.82C113.176 369.487 112.545 368.914 112.462 368.225C112.379 367.552 112.844 366.904 113.55 366.887C114.53 366.871 115.568 368.299 115.851 369.13C115.867 369.188 116.017 369.861 116.083 370.185H116.141C116.291 369.271 116.316 368.374 116.307 367.527C116.307 367.037 116.266 366.572 116.224 366.115C115.917 366.115 114.489 366.115 113.866 365.832C113.268 365.566 112.578 365.068 112.421 364.387C112.263 363.731 112.661 363.033 113.359 362.941C114.331 362.817 115.518 364.121 115.892 364.919C115.909 364.96 116.067 365.425 116.183 365.758C116.158 365.55 116.141 365.342 116.116 365.143C116.025 364.412 115.892 363.739 115.768 363.149C115.693 362.817 115.626 362.509 115.552 362.235C115.244 362.078 114.023 361.43 113.6 360.906C113.193 360.4 112.811 359.635 112.985 358.962C113.151 358.306 113.824 357.866 114.489 358.107C115.41 358.439 115.859 360.15 115.826 361.023C115.826 361.097 115.643 362.277 115.626 362.269H115.61C115.685 362.526 115.759 362.817 115.834 363.133C115.967 363.722 116.116 364.387 116.233 365.126C116.349 365.857 116.449 366.663 116.482 367.519C116.515 368.374 116.507 369.28 116.374 370.202V370.235C116.49 369.978 116.856 369.263 116.889 369.205C117.371 368.474 118.733 367.352 119.679 367.618C120.36 367.809 120.643 368.557 120.402 369.188C120.144 369.828 119.397 370.227 118.766 370.409L118.724 370.401Z" fill="#0C6F90"/>
<path opacity="0.3" d="M118.682 365.384C118.026 365.774 116.315 365.957 116.315 365.957C116.299 365.957 116.54 364.794 116.564 364.719C116.839 363.888 117.86 362.443 118.84 362.451C119.546 362.451 120.019 363.099 119.945 363.772C119.87 364.462 119.247 365.043 118.691 365.375L118.682 365.384Z" fill="#0C6F90"/>
<path opacity="0.3" d="M101.475 367.967C101.475 367.967 101.018 366.871 101.001 366.796C100.769 365.949 100.827 364.188 101.649 363.648C102.239 363.266 102.995 363.54 103.302 364.138C103.617 364.753 103.426 365.583 103.144 366.173C102.812 366.863 101.483 367.959 101.483 367.959L101.475 367.967Z" fill="#0C6F90"/>
<path opacity="0.3" d="M118.724 370.401C118.018 370.601 116.432 370.351 116.307 370.335C116.175 371.215 115.967 372.112 115.709 373.01C115.56 373.525 115.394 374.031 115.228 374.546C115.344 374.322 115.444 374.131 115.46 374.106C115.942 373.375 117.304 372.254 118.251 372.519C118.932 372.711 119.214 373.458 118.973 374.089C118.716 374.729 117.968 375.128 117.337 375.311C116.698 375.485 115.344 375.311 114.995 375.252C114.929 375.444 114.862 375.643 114.796 375.834C114.464 376.764 114.131 377.703 113.841 378.625C113.733 378.949 113.641 379.273 113.55 379.597C113.65 379.398 113.733 379.24 113.749 379.215C114.231 378.484 115.593 377.362 116.54 377.628C117.221 377.819 117.503 378.567 117.263 379.198C117.005 379.838 116.258 380.237 115.626 380.419C115.02 380.586 113.766 380.428 113.342 380.37C113.259 380.702 113.168 381.042 113.102 381.366C113.06 381.591 113.002 381.807 112.977 382.031C112.944 382.255 112.911 382.48 112.877 382.704C112.827 383.136 112.778 383.576 112.744 383.991C112.719 384.282 112.695 384.556 112.678 384.839C112.778 384.515 112.985 383.883 113.01 383.834C113.376 383.036 114.555 381.724 115.527 381.84C116.224 381.923 116.623 382.621 116.474 383.285C116.324 383.958 115.635 384.465 115.037 384.739C114.381 385.038 112.844 385.038 112.653 385.038C112.62 385.503 112.595 385.952 112.57 386.376C112.512 387.547 112.504 388.552 112.504 389.358H111.856C111.872 388.552 111.906 387.522 111.989 386.342C112.022 385.869 112.063 385.37 112.113 384.855C111.997 384.822 111.316 384.648 110.701 384.398C110.269 385.005 109.082 385.794 108.924 385.894C109.148 386.301 109.381 386.691 109.597 387.057C110.128 387.954 110.618 388.726 111.034 389.349H110.278C109.921 388.776 109.522 388.103 109.09 387.347C108.858 386.94 108.617 386.492 108.376 386.035C108.201 386.093 106.74 386.592 106.025 386.525C105.378 386.467 104.564 386.201 104.198 385.611C103.841 385.038 103.991 384.249 104.63 383.942C105.51 383.518 107.055 384.382 107.653 385.013C107.686 385.046 108.027 385.495 108.243 385.786C108.143 385.595 108.044 385.42 107.944 385.221C107.745 384.839 107.562 384.448 107.354 384.033C107.263 383.825 107.172 383.626 107.08 383.418C106.98 383.211 106.906 382.986 106.823 382.77C106.632 382.264 106.457 381.732 106.299 381.2C105.967 381.375 104.763 381.973 104.107 382.006C103.451 382.039 102.612 381.906 102.163 381.383C101.723 380.868 101.756 380.071 102.338 379.663C103.143 379.107 104.796 379.73 105.494 380.262C105.535 380.295 105.992 380.735 106.233 380.976C106.142 380.652 106.042 380.336 105.959 380.004C105.718 379.057 105.502 378.085 105.278 377.122C105.211 376.822 105.137 376.532 105.07 376.241C104.954 376.307 103.542 377.047 102.811 377.088C102.155 377.13 101.316 376.989 100.868 376.465C100.428 375.95 100.461 375.144 101.042 374.746C101.848 374.189 103.501 374.812 104.198 375.344C104.248 375.385 104.904 376.017 105.062 376.183C104.912 375.535 104.746 374.887 104.564 374.264C104.314 373.4 104.015 372.561 103.675 371.772C103.617 371.805 102.155 372.578 101.399 372.627C100.743 372.661 99.9043 372.528 99.4558 372.004C99.0157 371.489 99.0489 370.692 99.6303 370.285C100.436 369.728 102.089 370.351 102.786 370.883C102.828 370.916 103.326 371.398 103.559 371.631L103.609 371.597C103.226 370.758 102.753 369.986 102.28 369.288C102.006 368.881 101.715 368.515 101.433 368.158C101.175 368.333 99.9874 369.114 99.3146 369.222C98.6668 369.33 97.8197 369.288 97.3131 368.815C96.823 368.349 96.7649 367.552 97.2964 367.087C98.0356 366.447 99.7465 366.879 100.494 367.336C100.536 367.361 100.918 367.66 101.2 367.876C101.067 367.718 100.934 367.552 100.801 367.402C100.32 366.846 99.8379 366.356 99.4143 365.932C99.1651 365.691 98.9409 365.483 98.7333 365.284C98.3927 365.326 97.0141 365.458 96.3745 365.251C95.7516 365.051 95.0125 364.619 94.7882 363.972C94.564 363.332 94.8796 362.593 95.5689 362.435C96.524 362.21 97.8363 363.382 98.2931 364.129C98.3346 364.196 98.8329 365.276 98.8163 365.276H98.7997C99.0073 365.458 99.2316 365.666 99.4724 365.882C99.9126 366.298 100.403 366.771 100.901 367.328C101.399 367.876 101.931 368.491 102.429 369.188C102.927 369.886 103.417 370.642 103.824 371.489C103.824 371.498 103.824 371.506 103.841 371.523C103.8 371.24 103.708 370.443 103.708 370.376C103.708 369.504 104.223 367.809 105.162 367.51C105.834 367.294 106.482 367.76 106.623 368.424C106.765 369.097 106.358 369.853 105.934 370.343C105.452 370.9 103.999 371.564 103.883 371.614C104.256 372.42 104.58 373.284 104.863 374.173C105.02 374.679 105.17 375.194 105.303 375.718C105.278 375.468 105.253 375.252 105.253 375.219C105.253 374.347 105.768 372.652 106.706 372.353C107.379 372.137 108.027 372.603 108.168 373.267C108.309 373.94 107.902 374.696 107.479 375.186C107.047 375.684 105.818 376.283 105.494 376.432C105.544 376.631 105.602 376.831 105.652 377.03C105.892 377.994 106.133 378.949 106.391 379.888C106.482 380.22 106.582 380.536 106.69 380.86C106.665 380.644 106.648 380.453 106.648 380.428C106.648 379.555 107.163 377.861 108.102 377.562C108.774 377.346 109.422 377.811 109.563 378.476C109.705 379.148 109.298 379.904 108.874 380.395C108.459 380.876 107.329 381.433 106.947 381.616C107.064 381.94 107.172 382.272 107.296 382.579C107.387 382.787 107.462 382.995 107.562 383.202C107.662 383.41 107.753 383.609 107.853 383.817C108.052 384.199 108.251 384.598 108.451 384.963C108.592 385.221 108.725 385.462 108.866 385.711C108.774 385.387 108.6 384.739 108.592 384.689C108.509 384.116 108.592 383.152 108.916 382.438C108.899 382.355 108.899 382.264 108.899 382.181C108.924 381.508 109.48 380.934 110.178 381.026C111.15 381.159 111.955 382.729 112.113 383.593C112.122 383.643 112.163 384.207 112.18 384.565C112.205 384.357 112.221 384.149 112.246 383.933C112.288 383.501 112.346 383.078 112.412 382.621C112.445 382.396 112.487 382.18 112.528 381.956C112.562 381.732 112.628 381.499 112.67 381.267C112.794 380.735 112.935 380.203 113.102 379.672C112.728 379.63 111.399 379.464 110.834 379.14C110.269 378.808 109.638 378.235 109.555 377.545C109.472 376.872 109.937 376.224 110.643 376.208C111.623 376.191 112.661 377.62 112.944 378.451C112.96 378.5 113.102 379.115 113.168 379.456C113.268 379.132 113.367 378.816 113.475 378.492C113.799 377.57 114.148 376.64 114.497 375.718C114.605 375.435 114.704 375.153 114.812 374.87C114.68 374.854 113.093 374.696 112.462 374.33C111.897 373.998 111.266 373.425 111.183 372.735C111.1 372.063 111.565 371.415 112.271 371.398C113.251 371.381 114.289 372.81 114.572 373.641C114.597 373.707 114.788 374.588 114.829 374.82C115.062 374.197 115.278 373.574 115.477 372.943C115.743 372.079 115.967 371.224 116.108 370.368C116.05 370.368 114.389 370.202 113.741 369.82C113.176 369.487 112.545 368.914 112.462 368.225C112.379 367.552 112.844 366.904 113.55 366.887C114.53 366.871 115.568 368.299 115.851 369.13C115.867 369.188 116.017 369.861 116.083 370.185H116.141C116.291 369.271 116.316 368.374 116.307 367.527C116.307 367.037 116.266 366.572 116.224 366.115C115.917 366.115 114.489 366.115 113.866 365.832C113.268 365.566 112.578 365.068 112.421 364.387C112.263 363.731 112.661 363.033 113.359 362.941C114.331 362.817 115.518 364.121 115.892 364.919C115.909 364.96 116.067 365.425 116.183 365.758C116.158 365.55 116.141 365.342 116.116 365.143C116.025 364.412 115.892 363.739 115.768 363.149C115.693 362.817 115.626 362.509 115.552 362.235C115.244 362.078 114.023 361.43 113.6 360.906C113.193 360.4 112.811 359.635 112.985 358.962C113.151 358.306 113.824 357.866 114.489 358.107C115.41 358.439 115.859 360.15 115.826 361.023C115.826 361.097 115.643 362.277 115.626 362.269H115.61C115.685 362.526 115.759 362.817 115.834 363.133C115.967 363.722 116.116 364.387 116.233 365.126C116.349 365.857 116.449 366.663 116.482 367.519C116.515 368.374 116.507 369.28 116.374 370.202V370.235C116.49 369.978 116.856 369.263 116.889 369.205C117.371 368.474 118.733 367.352 119.679 367.618C120.36 367.809 120.643 368.557 120.402 369.188C120.144 369.828 119.397 370.227 118.766 370.409L118.724 370.401Z" fill="#0C6F90"/>
<path d="M237.192 28.9816C237.192 28.9816 197.484 13.2315 136.165 16.6789C74.8551 20.1263 47.9873 62.1515 47.9873 70.4253C47.9873 78.699 59.6978 80.0697 50.7447 86.275C41.7915 92.4804 10.0982 112.459 1.83438 142.771C-6.42945 173.092 39.7234 188.244 36.2767 197.896C32.83 207.541 34.2087 220.633 50.0553 220.633C65.902 220.633 92.0805 184.115 96.2082 195.138C100.336 206.162 106.54 210.299 114.812 201.344C123.076 192.389 174.054 182.055 189.901 183.426C205.748 184.805 209.875 214.436 216.769 219.943C223.662 225.451 225.722 211.678 237.433 212.367C249.143 213.057 266.369 213.746 273.254 203.412C280.139 193.078 293.984 192.704 307.04 189.448C320.096 186.192 327.131 155.298 318.103 131.814C309.075 108.33 300.811 104.883 300.811 98.6857C300.811 92.4887 315.279 90.4202 298.053 69.0546C280.828 47.6973 237.183 28.9982 237.183 28.9982L237.192 28.9816Z" fill="#FFCA05"/>
<path d="M305.399 115.025C298.248 118.381 242.701 144.673 242.701 144.673C242.701 144.673 246.555 137.404 251.505 125.093C256.455 112.791 258.108 107.192 253.158 107.757C248.208 108.322 243.258 144.116 225.659 150.272C208.06 156.427 171.757 165.931 171.757 161.461C171.757 156.992 197.612 112.799 198.708 108.878C199.804 104.965 200.909 102.166 211.357 92.6545C221.805 83.143 243.258 62.4502 242.162 56.2947C241.065 50.1392 206.963 88.177 205.311 86.499C203.658 84.821 216.307 47.9046 218.508 43.4271C220.709 38.9496 213.558 37.8365 211.905 46.7832C210.252 55.7298 192.105 103.279 187.703 112.234C183.301 121.181 160.204 158.105 158.552 159.219C156.899 160.34 156.899 156.419 155.254 151.385C153.602 146.351 138.752 114.469 137.107 104.401C135.454 94.3325 143.153 92.0979 147.555 85.9424C151.957 79.7869 159.656 63.0068 158.552 56.2947C157.455 49.5826 145.902 75.3178 142.049 80.3518C138.195 85.3859 139.3 78.6738 136.002 67.4842C132.705 56.2947 131.052 34.4805 126.651 34.4805C122.249 34.4805 132.149 69.7188 132.149 78.6738C132.149 87.6287 124.998 82.0298 120.596 79.7952C116.194 77.5606 105.198 65.8145 95.2979 56.8596C85.3979 47.9129 87.0506 54.625 87.0506 54.625C87.0506 54.625 103.553 73.0832 109.052 77.0041C114.55 80.9167 124.45 87.6287 125.554 94.3408C126.651 101.053 147.007 157.549 148.103 179.363C148.211 181.448 148.195 183.583 148.087 185.776C135.512 178.333 117.432 167.119 115.654 163.14C112.905 156.984 105.754 102.723 103.553 106.087C101.352 109.443 109.6 155.871 108.503 157.549C107.407 159.227 85.9543 148.602 81.5525 145.803C77.1507 143.003 53.5053 98.2534 53.5053 103.287C53.5053 108.322 72.7571 139.091 71.1043 143.003C69.4516 146.916 39.7516 148.037 41.4044 150.272C43.0571 152.507 44.1534 151.95 48.5553 151.393C52.9571 150.837 70.008 150.272 71.6525 150.272C73.297 150.272 103.005 164.253 103.005 164.253C103.005 164.253 55.7062 191.101 51.8525 193.344C47.9988 195.578 43.6053 198.934 46.3544 200.612C49.1034 202.29 78.2553 184.954 79.908 184.389C81.5608 183.824 76.6108 200.048 78.2553 202.29C79.908 204.525 81.5525 197.813 83.2053 193.344C84.858 188.866 88.7034 180.476 88.7034 180.476L109.608 170.408C109.608 170.408 139.856 198.378 143.71 204.533C144.183 205.289 144.632 206.078 145.055 206.868C141.65 223.739 137.132 244.183 134.358 270.541C128.735 324.055 130.504 389.34 130.504 389.34H178.352C178.352 389.34 168.468 364.85 166.815 337.437C165.163 310.024 161.093 259.933 163.842 238.675C166.591 217.418 164.83 184.256 185.494 181.041C188.758 180.534 217.943 192.787 220.692 196.7C223.441 200.612 219.039 220.192 222.345 221.314C225.642 222.435 231.697 202.299 231.697 202.299C231.697 202.299 258.1 221.878 262.501 225.791C266.903 229.704 268.548 234.181 273.498 230.825C278.448 227.469 216.299 183.276 216.299 183.276C216.299 183.276 245.451 185.51 252.053 187.188C258.656 188.866 288.356 197.813 292.201 195.578C296.047 193.344 251.497 182.154 251.497 182.154C251.497 182.154 266.895 174.886 271.845 170.965C276.795 167.052 249.296 177.677 242.693 178.798C236.09 179.92 197.595 173.208 200.892 169.852C204.189 166.496 223.989 163.14 233.889 158.105C243.789 153.071 298.788 125.102 305.939 121.189C313.089 117.276 312.541 111.678 305.39 115.034L305.399 115.025Z" fill="#0C6F90" stroke="#0C6F90" stroke-linecap="round" stroke-linejoin="round"/>
<path d="M135.08 384.63C135.08 384.63 133.386 359.634 132.962 348.619C132.539 337.604 133.386 310.913 133.386 310.913" stroke="#CCCCCC" stroke-linecap="round" stroke-linejoin="round"/>
<path d="M137.006 324.554C137.014 331.041 137.064 336.84 137.189 340.146" stroke="#CCCCCC" stroke-linecap="round" stroke-linejoin="round"/>
<path d="M137.197 290.578C137.197 290.578 137.022 306.669 137.006 321.023" stroke="#CCCCCC" stroke-linecap="round" stroke-linejoin="round"/>
<path d="M146.619 236.573C144.559 249.075 142.092 265.814 141.852 275.749" stroke="#CCCCCC" stroke-linecap="round" stroke-linejoin="round"/>
<path d="M149.482 220.251C149.482 220.251 148.685 224.454 147.613 230.71" stroke="#CCCCCC" stroke-linecap="round" stroke-linejoin="round"/>
<path d="M145.678 315.482C145.678 317.368 145.67 319.113 145.67 320.658" stroke="#CCCCCC" stroke-linecap="round" stroke-linejoin="round"/>
<path d="M146.092 267.276C146.092 267.276 145.785 294.241 145.693 312.209" stroke="#CCCCCC" stroke-linecap="round" stroke-linejoin="round"/>
<path d="M144.824 347.348C144.824 347.348 146.095 377.427 149.06 385.053" stroke="#CCCCCC" stroke-linecap="round" stroke-linejoin="round"/>
<path d="M129.998 186.781C129.998 186.781 147.788 199.491 148.212 204.151C148.635 208.811 147.788 213.895 147.788 213.895" stroke="#CCCCCC" stroke-linecap="round" stroke-linejoin="round"/>
<path d="M151.4 186.674C151.4 186.674 154.1 186.483 154.681 183.974C155.262 181.465 154.299 178.192 154.299 178.192" stroke="#CCCCCC" stroke-linecap="round" stroke-linejoin="round"/>
<path d="M157.566 161.221C157.566 161.221 159.493 162.766 160.075 161.802C160.656 160.839 165.855 152.357 165.855 152.357" stroke="#CCCCCC" stroke-linecap="round" stroke-linejoin="round"/>
<path d="M150.236 199.4C150.236 199.4 151.972 202.682 151.972 206.345C151.972 210.008 151.009 214.827 151.009 214.827" stroke="#CCCCCC" stroke-linecap="round" stroke-linejoin="round"/>
<path d="M138.097 268.622C138.097 268.622 137.515 281.348 137.324 283.276" stroke="#CCCCCC" stroke-linecap="round" stroke-linejoin="round"/>
<path d="M178.865 179.587C178.865 179.587 183.234 177.403 186.722 178.275C190.219 179.147 196.331 181.772 196.331 181.772" stroke="#CCCCCC" stroke-linecap="round" stroke-linejoin="round"/>
<path d="M179.74 174.346C179.74 174.346 174.5 175.658 173.188 182.644" stroke="#CCCCCC" stroke-linecap="round" stroke-linejoin="round"/>
<path d="M162.273 206.669C162.273 206.669 159.657 222.826 160.089 225.451" stroke="#CCCCCC" stroke-linecap="round" stroke-linejoin="round"/>
<path d="M166.636 197.489C166.636 197.489 163.58 213.214 163.58 216.271" stroke="#CCCCCC" stroke-linecap="round" stroke-linejoin="round"/>
<path d="M275.613 243.584C282.619 241.918 286.949 234.887 285.284 227.88C283.618 220.872 276.589 216.541 269.582 218.207C262.576 219.872 258.246 226.903 259.912 233.911C261.577 240.919 268.607 245.249 275.613 243.584Z" fill="white" stroke="#0C6F90" stroke-linecap="round" stroke-linejoin="round"/>
<path d="M272.605 221.571C267.472 221.571 263.303 225.741 263.303 230.875C263.303 236.009 267.48 240.179 272.605 240.179C277.729 240.179 281.907 236.001 281.907 230.875C281.907 225.75 277.737 221.571 272.605 221.571ZM273.552 236.565V237.463H271.974V236.565C270.587 236.283 269.889 235.211 269.889 233.55V232.711H271.716V233.675C271.716 234.555 272.098 234.871 272.713 234.871C273.327 234.871 273.709 234.555 273.709 233.675C273.709 231.149 269.939 231.025 269.939 227.519C269.939 225.874 270.62 224.819 271.974 224.52V223.606H273.552V224.52C274.922 224.803 275.62 225.849 275.62 227.519V227.901H273.792V227.394C273.792 226.514 273.444 226.182 272.829 226.182C272.214 226.182 271.866 226.514 271.866 227.394C271.866 229.92 275.636 230.044 275.636 233.55C275.636 235.22 274.914 236.283 273.552 236.565Z" fill="#FFCA05"/>
<path d="M224.843 235.305C231.85 233.639 236.179 226.608 234.514 219.6C232.849 212.593 225.819 208.262 218.813 209.928C211.807 211.593 207.477 218.624 209.142 225.632C210.807 232.64 217.837 236.97 224.843 235.305Z" fill="white" stroke="#0C6F90" stroke-linecap="round" stroke-linejoin="round"/>
<path d="M221.843 213.298C216.71 213.298 212.541 217.468 212.541 222.602C212.541 227.735 216.719 231.906 221.843 231.906C226.967 231.906 231.145 227.727 231.145 222.602C231.145 217.476 226.976 213.298 221.843 213.298ZM222.79 228.292V229.189H221.212V228.292C219.825 228.01 219.127 226.938 219.127 225.277V224.438H220.954V225.401C220.954 226.282 221.336 226.597 221.951 226.597C222.566 226.597 222.948 226.282 222.948 225.401C222.948 222.876 219.177 222.751 219.177 219.246C219.177 217.601 219.858 216.546 221.212 216.247V215.333H222.79V216.247C224.16 216.529 224.858 217.576 224.858 219.246V219.628H223.031V219.121C223.031 218.241 222.682 217.908 222.067 217.908C221.453 217.908 221.104 218.241 221.104 219.121C221.104 221.646 224.874 221.771 224.874 225.277C224.874 226.946 224.152 228.01 222.79 228.292Z" fill="#FFCA05"/>
<path d="M254.199 120.958C261.308 119.81 266.141 113.115 264.993 106.005C263.846 98.8938 257.152 94.0598 250.043 95.2077C242.933 96.3556 238.1 103.051 239.248 110.161C240.396 117.272 247.089 122.106 254.199 120.958Z" fill="white" stroke="#0C6F90" stroke-linecap="round" stroke-linejoin="round"/>
<path d="M252.124 98.7695C246.992 98.7695 242.822 102.94 242.822 108.073C242.822 113.207 246.992 117.377 252.124 117.377C257.257 117.377 261.426 113.207 261.426 108.073C261.426 102.94 257.257 98.7695 252.124 98.7695ZM253.071 113.764V114.661H251.493V113.764C250.106 113.481 249.408 112.41 249.408 110.748V109.909H251.236V110.873C251.236 111.753 251.618 112.069 252.232 112.069C252.847 112.069 253.229 111.753 253.229 110.873C253.229 108.348 249.458 108.223 249.458 104.717C249.458 103.073 250.139 102.018 251.493 101.719V100.805H253.071V101.719C254.441 102.001 255.139 103.048 255.139 104.717V105.099H253.312V104.593C253.312 103.712 252.963 103.38 252.349 103.38C251.734 103.38 251.385 103.712 251.385 104.593C251.385 107.118 255.156 107.243 255.156 110.748C255.156 112.418 254.433 113.481 253.071 113.764Z" fill="#FFCA05"/>
<path d="M281.685 178.865C288.669 177.107 292.905 170.019 291.147 163.034C289.389 156.049 282.302 151.812 275.319 153.57C268.335 155.328 264.099 162.416 265.857 169.401C267.615 176.386 274.702 180.623 281.685 178.865Z" fill="white" stroke="#0C6F90" stroke-linecap="round" stroke-linejoin="round"/>
<path d="M278.493 156.934C273.361 156.934 269.191 161.104 269.191 166.237C269.191 171.371 273.361 175.541 278.493 175.541C283.626 175.541 287.795 171.363 287.795 166.237C287.795 161.112 283.618 156.934 278.493 156.934ZM279.44 171.928V172.825H277.862V171.928C276.475 171.645 275.778 170.574 275.778 168.912V168.073H277.605V169.037C277.605 169.917 277.987 170.233 278.601 170.233C279.216 170.233 279.598 169.917 279.598 169.037C279.598 166.512 275.827 166.387 275.827 162.881C275.827 161.237 276.508 160.182 277.862 159.883V158.969H279.44V159.883C280.811 160.165 281.508 161.212 281.508 162.881V163.264H279.681V162.757C279.681 161.876 279.332 161.544 278.718 161.544C278.103 161.544 277.754 161.876 277.754 162.757C277.754 165.282 281.525 165.407 281.525 168.912C281.525 170.582 280.802 171.645 279.44 171.928Z" fill="#FFCA05"/>
<path d="M223.888 49.0598C228.723 43.7221 228.317 35.4744 222.98 30.6379C217.644 25.8014 209.398 26.2077 204.562 31.5453C199.727 36.883 200.133 45.1307 205.469 49.9672C210.806 54.8037 219.052 54.3974 223.888 49.0598Z" fill="white" stroke="#0C6F90" stroke-linecap="round" stroke-linejoin="round"/>
<path d="M214.236 31.0176C209.103 31.0176 204.934 35.1877 204.934 40.3214C204.934 45.4552 209.103 49.6253 214.236 49.6253C219.368 49.6253 223.538 45.4469 223.538 40.3214C223.538 35.196 219.368 31.0176 214.236 31.0176ZM215.182 46.0117V46.9089H213.604V46.0117C212.217 45.7293 211.52 44.6577 211.52 42.9963V42.1573H213.347V43.1209C213.347 44.0014 213.729 44.3171 214.344 44.3171C214.958 44.3171 215.34 44.0014 215.34 43.1209C215.34 40.5956 211.57 40.471 211.57 36.9654C211.57 35.3123 212.251 34.2656 213.604 33.9666V33.0528H215.182V33.9666C216.553 34.249 217.25 35.2957 217.25 36.9654V37.3475H215.423V36.8408C215.423 35.9603 215.074 35.628 214.46 35.628C213.845 35.628 213.496 35.9603 213.496 36.8408C213.496 39.3661 217.267 39.4907 217.267 42.9963C217.267 44.666 216.545 45.7293 215.182 46.0117Z" fill="#FFCA05"/>
<path d="M315.343 127.693C322.35 126.028 326.679 118.997 325.014 111.989C323.349 104.981 316.319 100.651 309.313 102.316C302.307 103.982 297.977 111.013 299.642 118.021C301.307 125.028 308.337 129.359 315.343 127.693Z" fill="white" stroke="#0C6F90" stroke-linecap="round" stroke-linejoin="round"/>
<path d="M312.335 105.68C307.203 105.68 303.033 109.858 303.033 114.984C303.033 120.109 307.203 124.287 312.335 124.287C317.468 124.287 321.637 120.109 321.637 114.984C321.637 109.858 317.468 105.68 312.335 105.68ZM313.282 120.674V121.571H311.704V120.674C310.317 120.391 309.619 119.32 309.619 117.658V116.819H311.447V117.783C311.447 118.664 311.829 118.979 312.443 118.979C313.058 118.979 313.44 118.664 313.44 117.783C313.44 115.258 309.669 115.133 309.669 111.628C309.669 109.983 310.35 108.928 311.704 108.629V107.715H313.282V108.629C314.652 108.911 315.35 109.958 315.35 111.628V112.01H313.523V111.503C313.523 110.622 313.174 110.29 312.559 110.29C311.945 110.29 311.596 110.622 311.596 111.503C311.596 114.028 315.367 114.153 315.367 117.658C315.367 119.328 314.644 120.391 313.282 120.674Z" fill="#FFCA05"/>
<path d="M92.3708 205.523C95.1267 198.869 91.9672 191.24 85.3139 188.483C78.6606 185.727 71.033 188.887 68.2771 195.542C65.5212 202.196 68.6807 209.825 75.334 212.582C81.9873 215.338 89.6149 212.178 92.3708 205.523Z" fill="white" stroke="#0C6F90" stroke-linecap="round" stroke-linejoin="round"/>
<path d="M80.3215 191.226C75.1888 191.226 71.0195 195.404 71.0195 200.529C71.0195 205.655 75.1971 209.833 80.3215 209.833C85.446 209.833 89.6235 205.655 89.6235 200.529C89.6235 195.404 85.4543 191.226 80.3215 191.226ZM81.2684 206.22V207.117H79.6903V206.22C78.3033 205.937 77.6057 204.866 77.6057 203.204V202.365H79.4329V203.329C79.4329 204.209 79.8149 204.525 80.4295 204.525C81.0441 204.525 81.4262 204.209 81.4262 203.329C81.4262 200.804 77.6555 200.679 77.6555 197.173C77.6555 195.529 78.3366 194.474 79.6903 194.175V193.261H81.2684V194.175C82.6387 194.457 83.3364 195.504 83.3364 197.173V197.556H81.5092V197.049C81.5092 196.168 81.1604 195.836 80.5458 195.836C79.9312 195.836 79.5824 196.168 79.5824 197.049C79.5824 199.574 83.353 199.699 83.353 203.204C83.353 204.874 82.6304 205.937 81.2684 206.22Z" fill="#FFCA05"/>
<path d="M42.5368 164.151C49.6227 162.866 54.3251 156.078 53.0399 148.991C51.7548 141.904 44.9687 137.201 37.8828 138.486C30.797 139.771 26.0946 146.559 27.3797 153.646C28.6649 160.733 35.451 165.437 42.5368 164.151Z" fill="white" stroke="#0C6F90" stroke-linecap="round" stroke-linejoin="round"/>
<path d="M40.2044 142.016C35.0716 142.016 30.9023 146.186 30.9023 151.319C30.9023 156.453 35.0799 160.623 40.2044 160.623C45.3288 160.623 49.5064 156.445 49.5064 151.319C49.5064 146.194 45.3288 142.016 40.2044 142.016ZM41.1512 157.01V157.907H39.5731V157.01C38.1862 156.727 37.4885 155.656 37.4885 153.994V153.155H39.3157V154.119C39.3157 154.999 39.6977 155.315 40.3123 155.315C40.9269 155.315 41.309 154.999 41.309 154.119C41.309 151.594 37.5383 151.469 37.5383 147.963C37.5383 146.319 38.2194 145.264 39.5731 144.965V144.051H41.1512V144.965C42.5215 145.247 43.2192 146.294 43.2192 147.963V148.346H41.392V147.839C41.392 146.958 41.0432 146.626 40.4286 146.626C39.814 146.626 39.4652 146.958 39.4652 147.839C39.4652 150.364 43.2358 150.489 43.2358 153.994C43.2358 155.664 42.5132 156.727 41.1512 157.01Z" fill="#FFCA05"/>
<path d="M115.42 108.651C118.175 101.997 115.016 94.3677 108.363 91.6112C101.709 88.8548 94.0818 92.0149 91.3259 98.6695C88.57 105.324 91.7295 112.953 98.3828 115.71C105.036 118.466 112.664 115.306 115.42 108.651Z" fill="white" stroke="#0C6F90" stroke-linecap="round" stroke-linejoin="round"/>
<path d="M103.376 94.3496C98.2435 94.3496 94.0742 98.5197 94.0742 103.653C94.0742 108.787 98.2435 112.957 103.376 112.957C108.509 112.957 112.678 108.779 112.678 103.653C112.678 98.528 108.501 94.3496 103.376 94.3496ZM104.323 109.344V110.241H102.745V109.344C101.358 109.061 100.66 107.99 100.66 106.328V105.489H102.488V106.453C102.488 107.333 102.87 107.649 103.484 107.649C104.099 107.649 104.481 107.333 104.481 106.453C104.481 103.928 100.71 103.803 100.71 100.297C100.71 98.6526 101.391 97.5976 102.745 97.2986V96.3848H104.323V97.2986C105.693 97.581 106.391 98.6277 106.391 100.297V100.68H104.564V100.173C104.564 99.2923 104.215 98.96 103.6 98.96C102.986 98.96 102.637 99.2923 102.637 100.173C102.637 102.698 106.408 102.823 106.408 106.328C106.408 107.998 105.685 109.061 104.323 109.344Z" fill="#FFCA05"/>
<path d="M94.4037 66.878C101.057 64.1216 104.217 56.4924 101.461 49.8378C98.7047 43.1832 91.0771 40.0231 84.4238 42.7795C77.7705 45.536 74.611 53.1651 77.3669 59.8198C80.1228 66.4744 87.7505 69.6345 94.4037 66.878Z" fill="white" stroke="#0C6F90" stroke-linecap="round" stroke-linejoin="round"/>
<path d="M89.4114 45.5205C84.2787 45.5205 80.1094 49.6989 80.1094 54.8244C80.1094 59.9498 84.287 64.1282 89.4114 64.1282C94.5358 64.1282 98.7134 59.9498 98.7134 54.8244C98.7134 49.6989 94.5358 45.5205 89.4114 45.5205ZM90.3582 60.5147V61.4118H88.7802V60.5147C87.3932 60.2322 86.6955 59.1606 86.6955 57.4992V56.6602H88.5227V57.6238C88.5227 58.5044 88.9048 58.82 89.5193 58.82C90.1339 58.82 90.516 58.5044 90.516 57.6238C90.516 55.0985 86.7454 54.9739 86.7454 51.4683C86.7454 49.8235 87.4264 48.7685 88.7802 48.4695V47.5557H90.3582V48.4695C91.7286 48.7519 92.4262 49.7986 92.4262 51.4683V51.8505H90.599V51.3437C90.599 50.4632 90.2502 50.1309 89.6356 50.1309C89.021 50.1309 88.6722 50.4632 88.6722 51.3437C88.6722 53.8691 92.4428 53.9937 92.4428 57.4992C92.4428 59.1689 91.7203 60.2322 90.3582 60.5147Z" fill="#FFCA05"/>
<path d="M51.3537 208.135C55.7854 202.457 54.7764 194.262 49.1 189.829C43.4236 185.396 35.2294 186.406 30.7977 192.083C26.366 197.761 27.3751 205.957 33.0514 210.389C38.7278 214.822 46.922 213.813 51.3537 208.135Z" fill="white" stroke="#0C6F90" stroke-linecap="round" stroke-linejoin="round"/>
<path d="M41.0715 190.811C35.9388 190.811 31.7695 194.989 31.7695 200.114C31.7695 205.24 35.9471 209.418 41.0715 209.418C46.1959 209.418 50.3735 205.24 50.3735 200.114C50.3735 194.989 46.1959 190.811 41.0715 190.811ZM42.0184 205.805V206.702H40.4403V205.805C39.0533 205.522 38.3557 204.451 38.3557 202.789V201.95H40.1829V202.914C40.1829 203.794 40.5649 204.11 41.1795 204.11C41.7941 204.11 42.1762 203.794 42.1762 202.914C42.1762 200.389 38.4055 200.264 38.4055 196.758C38.4055 195.114 39.0866 194.059 40.4403 193.76V192.846H42.0184V193.76C43.3887 194.042 44.0864 195.089 44.0864 196.758V197.141H42.2592V196.634C42.2592 195.753 41.9104 195.421 41.2958 195.421C40.6812 195.421 40.3324 195.753 40.3324 196.634C40.3324 199.159 44.103 199.284 44.103 202.789C44.103 204.459 43.3804 205.522 42.0184 205.805Z" fill="#FFCA05"/>
<path d="M169.511 62.2319C172.24 55.5663 169.05 47.9499 162.385 45.2202C155.721 42.4905 148.106 45.6812 145.377 52.3468C142.648 59.0125 145.838 66.6289 152.502 69.3586C159.167 72.0883 166.782 68.8976 169.511 62.2319Z" fill="white" stroke="#0C6F90" stroke-linecap="round" stroke-linejoin="round"/>
<path d="M157.448 47.9961C152.316 47.9961 148.146 52.1662 148.146 57.3C148.146 62.4337 152.324 66.6038 157.448 66.6038C162.573 66.6038 166.75 62.4337 166.75 57.3C166.75 52.1662 162.581 47.9961 157.448 47.9961ZM158.395 62.9903V63.8874H156.817V62.9903C155.43 62.7078 154.733 61.6362 154.733 59.9748V59.1358H156.56V60.0994C156.56 60.98 156.942 61.2956 157.556 61.2956C158.171 61.2956 158.553 60.98 158.553 60.0994C158.553 57.5741 154.782 57.4495 154.782 53.9439C154.782 52.2991 155.464 51.2441 156.817 50.9451V50.0313H158.395V50.9451C159.766 51.2275 160.463 52.2742 160.463 53.9439V54.326H158.636V53.8193C158.636 52.9388 158.287 52.6065 157.673 52.6065C157.058 52.6065 156.709 52.9388 156.709 53.8193C156.709 56.3446 160.48 56.4692 160.48 59.9748C160.48 61.6445 159.757 62.7078 158.395 62.9903Z" fill="#FFCA05"/>
<path d="M326.789 193.586C326.789 193.586 324.522 186.051 324.157 184.955C323.791 183.867 322.429 182.321 321.524 181.865C320.618 181.408 314.805 190.944 314.805 190.944C314.805 190.944 316.624 193.121 317.529 193.76C318.434 194.4 320.976 195.937 320.976 195.937L321.698 197.116L326.781 193.577L326.789 193.586Z" fill="#CCCCCC" stroke="#0C6F90" stroke-linecap="round" stroke-linejoin="round"/>
<path d="M326.788 193.585L321.705 197.124L323.067 201.577C323.067 201.577 322.519 203.662 323.341 207.932C324.163 212.201 327.884 225.459 333.416 232.72C338.955 239.988 345.583 243.801 347.219 244.067C348.855 244.341 349.669 226.265 349.669 226.265C349.669 226.265 339.595 216.006 334.504 207.923C329.421 199.841 326.788 193.577 326.788 193.577V193.585Z" fill="white" stroke="#0C6F90" stroke-linecap="round" stroke-linejoin="round"/>
<path d="M323.975 200.854L328.974 198.403" stroke="#0C6F90" stroke-linecap="round" stroke-linejoin="round"/>
<path d="M310.958 192.945C318.047 191.676 322.765 184.899 321.496 177.809C320.227 170.718 313.451 166 306.363 167.269C299.274 168.538 294.556 175.315 295.825 182.405C297.094 189.495 303.87 194.214 310.958 192.945Z" fill="white" stroke="#0C6F90" stroke-linecap="round" stroke-linejoin="round"/>
<path d="M308.669 170.775C303.536 170.775 299.367 174.946 299.367 180.079C299.367 185.213 303.536 189.383 308.669 189.383C313.802 189.383 317.971 185.205 317.971 180.079C317.971 174.954 313.802 170.775 308.669 170.775ZM309.616 185.77V186.667H308.038V185.77C306.651 185.487 305.953 184.416 305.953 182.754V181.915H307.781V182.879C307.781 183.759 308.163 184.075 308.777 184.075C309.392 184.075 309.774 183.759 309.774 182.879C309.774 180.353 306.003 180.229 306.003 176.723C306.003 175.078 306.684 174.023 308.038 173.724V172.811H309.616V173.724C310.986 174.007 311.684 175.054 311.684 176.723V177.105H309.857V176.599C309.857 175.718 309.508 175.386 308.893 175.386C308.279 175.386 307.93 175.718 307.93 176.599C307.93 179.124 311.701 179.249 311.701 182.754C311.701 184.424 310.978 185.487 309.616 185.77Z" fill="#FFCA05"/>
<path d="M370.202 366.114L373.441 374.87C373.441 374.87 368.765 380.145 367.328 381.582C365.891 383.019 362.295 383.982 361.456 385.062C360.617 386.142 360.26 387.463 361.34 388.302C362.42 389.141 370.094 389.382 371.174 389.257C372.253 389.141 376.929 386.857 381.605 385.777C386.281 384.697 386.879 384.58 386.638 381.582C386.397 378.583 382.56 372.469 382.56 372.469L379.687 363.231L370.218 366.106L370.202 366.114Z" fill="white" stroke="#0C6F90" stroke-linecap="round" stroke-linejoin="round"/>
<path d="M383.265 373.665C380.732 376.373 375.956 378.109 375.956 378.109C375.956 378.109 375.474 377.029 375.233 375.949C374.993 374.87 373.431 374.87 373.431 374.87C373.431 374.87 368.755 380.145 367.318 381.582C365.882 383.019 362.285 383.982 361.447 385.062C360.608 386.142 360.251 387.463 361.33 388.302C362.41 389.141 370.084 389.382 371.164 389.257C372.244 389.141 376.919 386.857 381.595 385.777C386.271 384.697 386.869 384.58 386.628 381.582C386.454 379.405 384.386 375.592 383.265 373.665Z" fill="#0C6F90" stroke="#0C6F90" stroke-linecap="round" stroke-linejoin="round"/>
<path d="M360.709 386.583C360.584 387.222 360.734 387.829 361.331 388.294C362.411 389.133 370.085 389.374 371.165 389.249C372.245 389.133 376.921 386.848 381.597 385.768C386.272 384.689 386.87 384.572 386.63 381.573C386.605 381.308 386.555 381.025 386.488 380.718C381.746 382.77 372.951 386.566 371.647 387.089C370.293 387.629 363.806 386.948 360.717 386.574L360.709 386.583Z" fill="white" stroke="#0C6F90" stroke-linecap="round" stroke-linejoin="round"/>
<path d="M357.611 339.731L368.641 368.149L380.75 364.669C380.75 364.669 374.754 342.123 372.362 334.207C369.961 326.29 366.606 315.259 366.606 315.259C366.606 315.259 366.249 312.858 366.124 310.225C366.008 307.583 358.932 324.371 357.611 339.723V339.731Z" fill="#FFCA05" stroke="#0C6F90" stroke-linecap="round" stroke-linejoin="round"/>
<path d="M346.578 368.873L346.096 376.665C346.096 376.665 340.465 382.065 337.467 383.618C334.469 385.18 329.436 386.974 329.552 388.179C329.668 389.375 328.83 390.338 330.391 390.82C331.952 391.302 338.663 391.177 348.131 391.302C357.599 391.418 358.563 389.865 359.045 389.142C359.526 388.419 359.045 384.706 358.563 382.43C358.081 380.154 356.163 375.236 356.163 375.236L355.805 370.917V370.078L346.57 368.881L346.578 368.873Z" fill="white" stroke="#0C6F90" stroke-linecap="round" stroke-linejoin="round"/>
<path d="M329.552 388.178C329.668 389.375 328.83 390.338 330.391 390.82C331.952 391.302 338.663 391.177 348.131 391.302C357.599 391.418 358.563 389.865 359.045 389.142C359.526 388.419 359.045 384.706 358.563 382.43C358.43 381.815 358.197 381.001 357.923 380.137C354.178 380.976 349.211 381.226 349.211 381.226C349.211 381.226 349.327 379.664 348.488 378.11C347.65 376.549 346.088 376.673 346.088 376.673C346.088 376.673 340.457 382.073 337.459 383.626C334.461 385.188 329.428 386.982 329.544 388.187L329.552 388.178Z" fill="#0C6F90" stroke="#0C6F90" stroke-linecap="round" stroke-linejoin="round"/>
<path d="M359.046 389.134C359.195 388.91 359.253 388.378 359.245 387.688C355.815 388.353 350.117 389.25 344.179 389.25C337.427 389.25 332.078 388.702 329.562 388.386C329.578 389.483 328.922 390.355 330.392 390.812C331.953 391.294 338.664 391.169 348.132 391.294C357.6 391.41 358.564 389.857 359.046 389.134Z" fill="white" stroke="#0C6F90" stroke-linecap="round" stroke-linejoin="round"/>
<path d="M343.657 277.936C343.657 277.936 343.615 278.434 343.532 279.331C343.001 285.487 340.966 310.474 341.73 322.104C342.602 335.428 342.785 369.429 342.785 369.429L356.979 371.531C356.979 371.531 359.603 358.912 358.906 351.021C358.208 343.137 361.713 325.61 363.989 319.296C366.264 312.983 372.576 292.656 372.576 288.976V281.79L343.665 277.936H343.657Z" fill="#FFCA05" stroke="#0C6F90" stroke-linecap="round" stroke-linejoin="round"/>
<path d="M353.115 284.771C353.115 284.771 352.767 291.957 354.868 294.233L356.969 296.509" stroke="#0C6F90" stroke-linecap="round" stroke-linejoin="round"/>
<path d="M358.375 284.771C358.375 284.771 354.87 307.907 354.521 311.935" stroke="#0C6F90" stroke-linecap="round" stroke-linejoin="round"/>
<path d="M363.631 289.847L369.943 289.498" stroke="#0C6F90" stroke-linecap="round" stroke-linejoin="round"/>
<path d="M349.395 186.408C349.395 186.408 344.088 188.775 343.764 190.902C343.44 193.029 343.598 194.084 342.543 196.044C341.48 198.005 337.809 200.538 337.643 202.98C337.477 205.431 339.279 204.858 339.603 205.597C339.927 206.328 339.362 210.656 339.362 210.656C339.362 210.656 336.671 213.921 337.892 216.371C339.113 218.822 342.626 218.415 344.337 217.925L346.048 217.435L347.684 223.233L361.155 215.723C361.155 215.723 360.424 213.107 360.831 212.135C361.238 211.155 367.035 208.056 368.746 203.728C370.457 199.4 369.236 192.788 365.316 189.357C361.396 185.926 356.579 184.788 353.074 185.029C349.561 185.27 349.403 186.416 349.403 186.416L349.395 186.408Z" fill="#CCCCCC" stroke="#0C6F90" stroke-linecap="round" stroke-linejoin="round"/>
<path d="M353.064 211.147C353.878 205.922 355.265 202.981 356.245 201.677C357.225 200.373 360.166 199.06 360.813 200.53C361.469 202.001 361.793 204.609 360.73 205.996C359.667 207.384 357.873 207.301 358.197 208.364C358.521 209.427 359.75 211.305 360.481 211.546C360.589 211.579 360.921 211.546 361.42 211.454C363.031 210.075 367.3 207.317 368.728 203.704C370.439 199.376 369.218 192.763 365.298 189.333C361.378 185.902 356.561 184.764 353.056 185.005C349.543 185.246 349.385 186.392 349.385 186.392C349.385 186.392 353.305 185.088 355.423 186.309C357.549 187.53 356.079 190.72 354.526 191.293C352.973 191.866 350.523 191.376 350.523 192.846C350.523 194.317 352.159 196.111 352.159 197.748C352.159 199.384 352.242 200.605 351.993 201.752C351.752 202.898 349.792 205.589 348.895 206.08C347.998 206.57 347.425 204.933 344.817 204.858C342.201 204.775 339.593 205.589 339.593 205.589C339.917 206.32 339.352 210.648 339.352 210.648C339.352 210.648 336.661 213.913 337.882 216.364C339.103 218.814 342.616 218.407 344.327 217.917L346.038 217.427C346.038 217.427 352.242 216.364 353.056 211.138L353.064 211.147Z" fill="white" stroke="#0C6F90" stroke-linecap="round" stroke-linejoin="round"/>
<path d="M344.741 197.266C344.06 199.077 343.171 200.431 342.764 200.273C342.357 200.115 342.573 198.52 343.254 196.709C343.935 194.898 344.824 193.544 345.231 193.702C345.638 193.86 345.422 195.455 344.741 197.266Z" stroke="#0C6F90" stroke-linecap="round" stroke-linejoin="round"/>
<path d="M344.319 196.983C344.045 197.714 343.588 198.229 343.306 198.121C343.023 198.013 343.015 197.332 343.298 196.601C343.572 195.87 344.028 195.355 344.311 195.463C344.593 195.571 344.601 196.252 344.319 196.983Z" fill="#0C6F90"/>
<path d="M344.744 197.266L356.986 200.854" stroke="#0C6F90" stroke-linecap="round" stroke-linejoin="round"/>
<path d="M361.311 202.574C361.311 202.574 362.457 202.815 362.614 204.211C362.781 205.598 361.468 206.578 361.468 206.578" stroke="#0C6F90" stroke-linecap="round" stroke-linejoin="round"/>
<path d="M343.3 196.602L341.639 195.879" stroke="#0C6F90" stroke-linecap="round" stroke-linejoin="round"/>
<path d="M344.577 191.958C344.577 191.958 345.798 191.958 346.371 192.614C346.944 193.27 347.924 193.104 347.102 191.883C346.288 190.662 345.466 190.172 344.735 190.736C344.004 191.31 344.245 191.393 344.569 191.958H344.577Z" fill="white" stroke="#0C6F90" stroke-linecap="round" stroke-linejoin="round"/>
<path d="M341.146 208.779C341.146 208.779 343.68 208.613 345.067 206.652" stroke="#0C6F90" stroke-linecap="round" stroke-linejoin="round"/>
<path d="M357.961 207.632C357.961 207.632 356.981 208.696 356.408 208.613C355.835 208.53 355.188 207.392 355.188 207.392" stroke="#0C6F90" stroke-linecap="round" stroke-linejoin="round"/>
<path d="M342.209 201.021C342.209 201.021 342.45 203.637 344.825 204.858" stroke="#0C6F90" stroke-width="0.5" stroke-linecap="round" stroke-linejoin="round"/>
<path d="M339.029 205.1C339.029 205.1 342.21 205.017 342.127 203.712C342.044 202.408 340.906 202.408 340.906 202.408" stroke="#0C6F90" stroke-width="0.5" stroke-linecap="round" stroke-linejoin="round"/>
<path d="M344.736 228.942C344.736 228.942 341.713 239.716 342.045 247.151C342.369 254.577 344.005 267.32 344.005 267.32C344.005 267.32 342.369 278.501 342.369 279.482C342.369 280.462 343.266 281.608 344.329 282.015C345.392 282.422 364.901 284.466 368.655 284.142C372.409 283.818 375.1 282.995 376.163 281.45C377.227 279.897 377.144 276.308 376.82 274.589C376.496 272.877 376.413 271.241 376.413 270.917C376.413 270.593 374.619 246.993 372.742 239.807C370.865 232.622 368.332 226.092 366.621 222.579C364.91 219.065 362.21 216.863 361.803 216.863C361.397 216.863 344.744 228.95 344.744 228.95L344.736 228.942Z" fill="#0C6F90" stroke="#0C6F90" stroke-linecap="round" stroke-linejoin="round"/>
<path d="M342.434 245.364L350.365 253.646L344.676 264.686C344.676 264.686 342.434 247.607 342.434 245.364Z" fill="#A3A3A3"/>
<path d="M364.51 249.509L367.79 238.81L373.654 247.607L371.926 260.375L364.51 249.509Z" fill="#A3A3A3"/>
<path d="M361.952 214.163L343.506 225.51L344.976 230.985L363.422 216.614L361.952 214.163Z" fill="white" stroke="#0C6F90" stroke-linecap="round" stroke-linejoin="round"/>
<path d="M343.503 225.511L342.523 230.578L344.733 229.922L343.503 225.511Z" fill="white" stroke="#0C6F90" stroke-linecap="round" stroke-linejoin="round"/>
<path d="M340.982 301.603C340.982 301.603 332.12 307.401 331.132 307.966C315.501 316.863 314.596 316.555 308.076 320.111C301.556 323.666 295.169 326.615 294.812 329.805C294.447 332.995 295.659 334.59 295.659 334.59C295.659 334.59 294.571 335.936 295.053 336.924C295.535 337.904 297.345 341.219 297.345 341.219L296.739 344.159C296.739 344.159 288.774 356.304 287.329 360.225C285.884 364.154 283.467 372.985 285.402 378.26C287.337 383.535 289.596 387.181 297.437 389.757C305.277 392.332 317.253 391.875 319.911 391.875C322.569 391.875 347.086 392.448 356.953 390.646C367.509 388.727 366.371 376.764 366.728 370.509C367.094 364.254 362.617 348.197 361.056 343.536C359.486 338.876 357.435 329.921 357.318 329.307C357.202 328.692 354.785 319.496 354.785 319.496L351.53 311.156C351.53 311.156 352.975 307.725 352.136 306.13C351.289 304.535 348.398 302.575 348.398 302.575C348.398 302.575 348.764 299.509 348.033 299.144C345.957 298.089 345.458 297.582 345.458 297.582L340.99 301.611L340.982 301.603Z" fill="white" stroke="#0C6F90" stroke-linecap="round" stroke-linejoin="round"/>
<path d="M313.228 333.659C313.428 333.75 313.627 333.825 313.826 333.908C317.722 332.513 325.122 327.071 331.65 319.678C330.952 315.633 328.377 311.969 324.382 310.084C317.871 307.002 310.097 309.785 307.016 316.297C303.935 322.81 306.717 330.585 313.228 333.667V333.659Z" fill="white" stroke="#0C6F90" stroke-linecap="round" stroke-linejoin="round"/>
<path d="M314.822 330.278C316.118 330.893 317.488 331.167 318.834 331.159C321.566 329.315 324.755 326.723 327.928 323.599C328.7 319.537 326.682 315.301 322.779 313.457C318.144 311.264 312.588 313.249 310.387 317.884C308.194 322.52 310.179 328.077 314.814 330.278H314.822ZM312.629 317.901L313.452 318.291C314.291 317.178 315.545 316.987 317.048 317.701L317.397 317.868L316.616 319.512L316.159 319.296C315.37 318.923 314.913 319.097 314.656 319.654C314.39 320.21 314.548 320.667 315.337 321.041C317.621 322.121 319.34 318.765 322.513 320.268C324.016 320.983 324.681 322.088 324.348 323.442L325.154 323.824L324.481 325.253L323.676 324.87C322.828 326 321.566 326.183 320.054 325.469L319.29 325.111L320.071 323.458L320.943 323.874C321.732 324.247 322.189 324.031 322.446 323.483C322.712 322.927 322.588 322.445 321.799 322.071C319.515 320.991 317.795 324.347 314.623 322.844C313.136 322.137 312.472 321.066 312.779 319.72L311.957 319.33L312.629 317.901Z" fill="#FFCA05"/>
<path d="M312.564 334.232C314.931 333.933 319.881 330.893 325.172 326.183C322.788 323.159 319.092 321.207 314.94 321.207C308.478 321.207 303.129 325.909 302.1 332.073C304.948 333.319 309.666 334.598 312.573 334.232H312.564Z" fill="white" stroke="#0C6F90" stroke-linecap="round" stroke-linejoin="round"/>
<path d="M312.564 334.233C312.896 334.191 313.286 334.091 313.71 333.942C312.938 333.236 312.265 332.355 312.265 330.885C312.265 329.24 312.946 328.185 314.3 327.886V326.972H315.878V327.886C317.248 328.168 317.946 329.215 317.946 330.885V331.267H316.119V330.76C316.119 329.88 315.77 329.547 315.155 329.547C314.541 329.547 314.192 329.88 314.192 330.76C314.192 331.815 314.856 332.455 315.62 333.094C317.489 332.131 319.806 330.586 322.298 328.6C320.595 326.382 317.929 324.945 314.923 324.945C310.097 324.945 306.127 328.634 305.662 333.344C308.054 334.025 310.67 334.473 312.547 334.241L312.564 334.233Z" fill="#FFCA05"/>
<path d="M335.005 315.592C335.736 314.628 338.045 310.815 339.88 307.75C334.839 305.083 328.452 305.955 324.341 310.3C319.781 315.11 319.615 322.47 323.685 327.479C327.447 324.314 331.5 320.219 335.005 315.592Z" fill="white" stroke="#0C6F90" stroke-linecap="round" stroke-linejoin="round"/>
<path d="M326.474 324.996C328.135 323.442 329.821 321.731 331.449 319.904C330.81 319.787 330.162 319.497 329.522 318.89C328.326 317.752 328.036 316.531 328.75 315.351L328.086 314.72L329.174 313.574L329.838 314.205C330.984 313.408 332.23 313.624 333.434 314.77L333.717 315.036L332.463 316.357L332.097 316.008C331.458 315.401 330.976 315.426 330.552 315.875C330.129 316.323 330.129 316.805 330.768 317.412C331.441 318.051 332.23 318.093 333.077 318.018C333.733 317.229 334.381 316.423 335.004 315.592C335.486 314.953 336.673 313.05 337.952 310.949C334.389 309.171 329.929 309.836 327.047 312.868C323.842 316.249 323.684 321.424 326.474 324.996Z" fill="#FFCA05"/>
<path d="M342.328 303.604C342.328 303.604 336.265 313.905 334.994 315.575C327.104 325.992 316.415 333.726 312.553 334.224C308.691 334.714 301.64 332.289 300.004 330.91C296.175 327.695 301.681 325.975 304.214 324.139" stroke="#0C6F90" stroke-linecap="round" stroke-linejoin="round"/>
<path d="M348.38 302.566C348.38 302.566 346.088 311.771 341.022 319.496C335.955 327.222 331.969 330.661 331.969 330.661" stroke="#0C6F90" stroke-linecap="round" stroke-linejoin="round"/>
<path d="M335.842 323.301C335.842 323.301 325.585 334.956 320.76 338.76" stroke="#0C6F90" stroke-linecap="round" stroke-linejoin="round"/>
<path d="M312.555 334.216C312.555 334.216 315.246 334.623 320.918 331.558" stroke="#0C6F90" stroke-linecap="round" stroke-linejoin="round"/>
<path d="M351.521 311.155C351.521 311.155 349.345 318.266 347.053 321.946" stroke="#0C6F90" stroke-linecap="round" stroke-linejoin="round"/>
<path d="M296.695 335.146C296.695 335.146 302.916 341.152 311.213 345.04C319.51 348.936 326.852 346.178 330.041 342.93" stroke="#0C6F90" stroke-linecap="round" stroke-linejoin="round"/>
<path d="M298.449 341.634C298.449 341.634 301.796 348.122 306.746 351.851" stroke="#0C6F90" stroke-linecap="round" stroke-linejoin="round"/>
<path d="M362.549 233.676C361.76 230.635 359.518 228.127 356.503 227.254C354.983 226.814 353.297 226.814 351.711 227.852C347.284 230.768 347.068 241.019 348.148 245.231C349.227 249.442 351.387 261.853 351.387 261.853C351.387 261.853 348.256 271.024 347.176 275.128C346.096 279.231 343.289 284.839 343.289 284.839L349.111 287.538L351.055 284.191C351.055 284.191 353.754 281.599 358.388 273.616C363.023 265.633 365.29 256.246 364.966 251.278C364.7 247.224 364.011 239.366 362.533 233.684L362.549 233.676Z" fill="white" stroke="#0C6F90" stroke-linecap="round" stroke-linejoin="round"/>
<path d="M352.475 260.989C352.475 260.989 355.174 259.693 357.549 253.762" stroke="#0C6F90" stroke-linecap="round" stroke-linejoin="round"/>
<path d="M345.023 281.49L351.07 284.19" stroke="#0C6F90" stroke-linecap="round" stroke-linejoin="round"/>
<path d="M343.31 284.838C343.31 284.838 340.071 296.061 339.639 297.249C339.207 298.436 339.473 299.226 340.071 300.056C340.419 300.546 340.893 300.895 341.001 301.543C341.109 302.191 342.014 303.296 342.338 303.512C342.662 303.728 345.253 299.192 345.253 299.192L345.469 297.573C345.469 297.573 347.413 297.357 347.952 294.225C348.492 291.093 347.736 288.294 347.736 288.294L348.06 287.106L343.31 284.838Z" fill="#CCCCCC" stroke="#0C6F90" stroke-linecap="round" stroke-linejoin="round"/>
<path d="M341.647 297.863C341.647 297.863 341.224 299.242 341.415 299.658C341.606 300.081 343.134 301.07 343.325 302.108" stroke="#0C6F90" stroke-linecap="round" stroke-linejoin="round"/>
<path d="M343.367 297.298C343.367 297.298 342.453 299.034 343.092 299.674C343.732 300.313 344.28 300.953 344.28 300.953" stroke="#0C6F90" stroke-linecap="round" stroke-linejoin="round"/>
<path d="M323.883 188.867C323.883 188.867 321.068 185.96 320.162 185.237C319.257 184.515 315.528 182.695 314.988 182.695C314.448 182.695 314.266 183.335 314.805 184.515C315.354 185.694 317.621 186.782 317.621 186.782C317.621 186.782 317.804 191.052 319.166 191.958C320.528 192.863 321.799 193.046 321.799 193.046" fill="#CCCCCC"/>
<path d="M323.883 188.867C323.883 188.867 321.068 185.96 320.162 185.237C319.257 184.515 315.528 182.695 314.988 182.695C314.448 182.695 314.266 183.335 314.805 184.515C315.354 185.694 317.621 186.782 317.621 186.782C317.621 186.782 317.804 191.052 319.166 191.958C320.528 192.863 321.799 193.046 321.799 193.046" stroke="#0C6F90" stroke-linecap="round" stroke-linejoin="round"/>
</g>
<defs>
<clipPath id="clip0_347_42103">
<rect width="404.559" height="398" fill="white" transform="translate(0.841797)"/>
</clipPath>
</defs>
</svg>
