<svg width="107" height="155" viewBox="0 0 107 155" fill="none" xmlns="http://www.w3.org/2000/svg">
<path d="M88.2801 52.5066C90.8594 42.1055 91.3109 31.6814 89.298 21.2344C87.974 14.3539 81.9736 7.7948 75.9886 4.56502C68.2509 0.378545 59.1968 -0.662334 50.5483 0.370891C44.479 1.09032 38.2338 1.92455 32.8227 5.03954C28.4602 7.54989 24.7865 11.5833 23.5773 16.4662C18.7632 15.8846 17.8754 19.5889 17.332 23.3774C15.9085 33.3346 16.8269 43.6209 20.0031 53.1648" fill="#0C6F90"/>
<path d="M72.7846 106.379C68.667 104.688 65.8888 102.491 64.0137 100.371C61.5493 97.5931 60.2482 93.1464 60.2482 89.4345V78.7119H46.6096V89.4345C46.6096 93.1464 45.3009 97.5931 42.8441 100.371C40.969 102.484 38.1831 104.688 34.0731 106.379C22.8225 110.994 0.642578 118.066 0.642578 135.424C0.642578 135.424 53.6279 153.609 106.223 135.424C106.223 118.066 84.0429 110.987 72.7923 106.379H72.7846Z" fill="#FFBDA7"/>
<path d="M106.213 135.432C106.213 118.074 84.0332 110.995 72.7825 106.387C68.6649 104.696 65.8867 102.499 64.0116 100.379C62.8406 99.0628 61.9451 97.3637 61.3099 95.5498C55.9142 96.6443 50.4113 97.157 44.9084 97.0958C44.3497 98.3127 43.6609 99.4454 42.8343 100.379C40.9592 102.492 38.1733 104.696 34.0634 106.387C22.8127 111.002 0.632812 118.074 0.632812 135.432C15 148.5 59 171 106.213 135.432Z" fill="#0C6F90"/>
<path d="M23.441 135.96C23.3797 130.978 23.1118 126.945 22.8516 126.952C22.5914 126.952 22.423 130.993 22.4843 135.976C22.5072 137.69 22.5531 139.29 22.6144 140.66C22.8822 140.706 23.1501 140.751 23.4256 140.797C23.4563 139.397 23.4639 137.744 23.441 135.96Z" fill="black"/>
<path d="M84.3638 135.96C84.3026 130.978 84.0347 126.945 83.7745 126.952C83.5143 126.952 83.3459 130.993 83.4071 135.976C83.4301 137.92 83.4836 139.718 83.5602 141.195C83.8204 141.149 84.0806 141.111 84.3409 141.065C84.3791 139.611 84.3868 137.858 84.3638 135.968V135.96Z" fill="black"/>
<path d="M62.3979 91.7686H44.6953C42.4889 91.7686 40.7002 93.5572 40.7002 95.7637V98.6567C40.7002 100.863 42.4889 102.652 44.6953 102.652H62.3979C64.6044 102.652 66.3931 100.863 66.3931 98.6567V95.7637C66.3931 93.5572 64.6044 91.7686 62.3979 91.7686Z" fill="#0D617D"/>
<path d="M43.3308 92.1143C43.1777 92.1831 43.0399 92.2673 42.8945 92.3515C42.9022 93.6067 42.9175 94.9767 42.9405 96.4155C42.9711 98.5279 43.017 100.495 43.0706 102.171C43.2007 102.24 43.3384 102.309 43.4762 102.362C43.4762 100.648 43.4532 98.6044 43.4226 96.4155C43.3997 94.8925 43.3691 93.446 43.3384 92.1219L43.3308 92.1143Z" fill="black"/>
<path d="M47.5699 96.4076C47.547 94.7467 47.5087 93.1854 47.4704 91.7695H47.0342C47.0418 93.1778 47.0571 94.7467 47.0878 96.4152C47.126 98.7342 47.172 100.885 47.2332 102.653H47.6235C47.6235 100.877 47.6005 98.7266 47.5623 96.4076H47.5699Z" fill="black"/>
<path d="M51.7115 96.4076C51.6886 94.7467 51.6503 93.1854 51.612 91.7695H51.1758C51.1834 93.1778 51.1987 94.7467 51.2294 96.4152C51.2676 98.7342 51.3136 100.885 51.3748 102.653H51.7651C51.7651 100.877 51.7421 98.7266 51.7039 96.4076H51.7115Z" fill="black"/>
<path d="M55.86 96.4076C55.837 94.7467 55.7987 93.1854 55.7605 91.7695H55.3242C55.3319 93.1778 55.3472 94.7467 55.3778 96.4152C55.416 98.7342 55.462 100.885 55.5232 102.653H55.9135C55.9135 100.877 55.8906 98.7266 55.8523 96.4076H55.86Z" fill="black"/>
<path d="M60.0084 96.4076C59.9855 94.7467 59.9472 93.1854 59.9089 91.7695H59.4727C59.4803 93.1778 59.4956 94.7467 59.5262 96.4152C59.5645 98.7342 59.6104 100.885 59.6717 102.653H60.062C60.062 100.877 60.039 98.7266 60.0008 96.4076H60.0084Z" fill="black"/>
<path d="M64.0718 92.2827C63.9264 92.2061 63.781 92.1296 63.6279 92.0684C63.6356 93.4001 63.6509 94.8695 63.6815 96.4079C63.7198 98.5738 63.7657 100.579 63.8116 102.278C63.9494 102.217 64.0795 102.133 64.2173 102.056C64.2173 100.403 64.1943 98.4667 64.1637 96.3926C64.1407 94.9308 64.1101 93.5455 64.0795 92.2674L64.0718 92.2827Z" fill="black"/>
<g style="mix-blend-mode:multiply" opacity="0.35">
<path d="M60.239 89.4423V78.7197H55.8153C54.277 78.7963 52.7386 78.7963 51.2002 78.7197H46.6005V89.4423C46.6005 90.1158 46.5393 90.8123 46.4551 91.5164C47.3276 91.6236 48.223 91.6542 49.0879 91.6465C52.8457 91.6082 56.573 91.1184 60.2773 90.4755C60.2544 90.1311 60.2314 89.7791 60.2314 89.45L60.239 89.4423Z" fill="#FFBDA7"/>
</g>
<path d="M92.7143 62.6176C95.8354 57.5402 95.5603 51.6997 92.0998 49.5725C88.6393 47.4452 83.3038 49.8367 80.1826 54.9141C77.0615 59.9914 77.3366 65.8319 80.7971 67.9592C84.2576 70.0864 89.5931 67.6949 92.7143 62.6176Z" fill="#FFBDA7"/>
<g style="mix-blend-mode:multiply" opacity="0.36">
<path d="M82.9639 66.5278C83.6374 64.094 84.4869 61.7061 85.5125 59.3947C85.8263 58.6906 86.1554 57.9941 86.6146 57.3818C87.135 56.6854 87.8085 56.119 88.4667 55.5526C89.3086 54.8409 90.1735 54.1138 91.2067 53.7541C91.6124 53.6087 92.0792 53.5321 92.4695 53.7235C92.8828 53.9301 93.0971 54.3893 93.2272 54.8256C93.7936 56.7695 93.1354 58.5834 92.4007 60.3667C91.597 62.303 89.8597 64.048 88.2677 65.3798C86.9284 66.4972 85.2982 67.8825 83.4307 67.0406" fill="#FFBDA7"/>
</g>
<path d="M87.4866 58.9737C86.8054 59.0426 86.2084 59.2569 85.7339 59.4942C85.8487 59.2799 85.9559 59.0579 86.0783 58.8436C87.2034 56.8843 88.6729 55.4302 89.8898 54.6036C91.0837 53.7158 92.0098 53.6392 92.0098 53.5244C92.0098 53.4709 91.7649 53.3943 91.321 53.4479C90.8771 53.4938 90.2495 53.7005 89.5683 54.0908C88.1907 54.8332 86.5299 56.3486 85.3359 58.415C84.1267 60.4815 83.6292 62.5938 83.3537 64.0863C83.0858 65.594 83.0322 66.5354 83.0322 66.5354L83.7746 64.1858C84.142 63.0837 84.6471 61.6601 85.3742 60.183H85.4125C85.9788 60.0376 86.7442 59.9075 87.5784 59.8233C89.2622 59.6396 90.6398 60.0146 90.7317 59.7774C90.8388 59.5784 89.4229 58.7671 87.4942 58.9737H87.4866Z" fill="#F98D61"/>
<path d="M26.0646 67.9217C29.5252 65.7944 29.8003 59.9539 26.6791 54.8766C23.5579 49.7992 18.2224 47.4077 14.7619 49.535C11.3014 51.6622 11.0263 57.5027 14.1475 62.5801C17.2686 67.6574 22.6041 70.0489 26.0646 67.9217Z" fill="#FFBDA7"/>
<g style="mix-blend-mode:multiply" opacity="0.36">
<path d="M23.8881 66.5278C23.2146 64.094 22.3651 61.7061 21.3395 59.3947C21.0257 58.6906 20.6966 57.9941 20.2374 57.3818C19.717 56.6854 19.0435 56.119 18.3853 55.5526C17.5434 54.8409 16.6785 54.1138 15.6453 53.7541C15.2397 53.6087 14.7728 53.5321 14.3825 53.7235C13.9692 53.9301 13.7549 54.3893 13.6248 54.8256C13.0584 56.7695 13.7166 58.5834 14.4514 60.3667C15.255 62.303 16.9923 64.048 18.5843 65.3798C19.9236 66.4972 21.5538 67.8825 23.4213 67.0406" fill="#FFBDA7"/>
</g>
<path d="M19.3621 58.9737C20.0433 59.0426 20.6402 59.2569 21.1148 59.4942C21 59.2799 20.8928 59.0579 20.7703 58.8436C19.6453 56.8843 18.1758 55.4302 16.9589 54.6036C15.765 53.7158 14.8389 53.6392 14.8389 53.5244C14.8389 53.4709 15.0838 53.3943 15.5277 53.4479C15.9716 53.4938 16.5992 53.7005 17.2803 54.0908C18.658 54.8332 20.3188 56.3486 21.5127 58.415C22.722 60.4815 23.2195 62.5938 23.495 64.0863C23.7629 65.594 23.8165 66.5354 23.8165 66.5354L23.0741 64.1858C22.7067 63.0837 22.2016 61.6601 21.4745 60.183H21.4362C20.8699 60.0376 20.1045 59.9075 19.2703 59.8233C17.5865 59.6396 16.2089 60.0146 16.117 59.7774C16.0099 59.5784 17.4258 58.7671 19.3545 58.9737H19.3621Z" fill="#F98D61"/>
<path d="M53.4279 86.8863C36.8198 86.8863 23.2654 73.6993 22.921 57.2059L22.4847 36.4113C22.1556 20.6221 34.9446 7.64941 50.841 7.64941H56.0224C71.9188 7.64941 84.7078 20.6221 84.3787 36.4113L83.9425 57.2059C83.598 73.6993 70.036 86.8863 53.4355 86.8863H53.4279Z" fill="#FFBDA7"/>
<g style="mix-blend-mode:multiply" opacity="0.35">
<path d="M81.8149 27.2813C77.4907 19.1609 67.8932 15.0969 58.7166 14.4081C49.5401 13.7192 40.4094 15.7551 31.2558 16.7194C30.5517 16.796 29.8323 16.8648 29.1205 16.9567C29.4266 19.3522 27.873 21.4263 25.5999 22.23C25.5157 22.2606 25.4545 22.2835 25.4009 22.2988C25.3397 22.3371 25.2708 22.3754 25.1713 22.4289C24.9034 22.5744 24.6355 22.7274 24.3753 22.8882C23.9773 23.1407 23.587 23.3933 23.2043 23.6688C23.0436 23.7913 22.9518 23.8525 22.8905 23.8984C22.7298 24.0285 22.5767 24.174 22.416 24.3117L23.962 26.4088C29.6333 34.797 40.6161 38.2641 50.7187 37.6135C52.0275 37.5293 53.7036 36.9936 53.6959 35.6848C57.0252 36.6874 60.7678 36.1976 63.7297 34.3837C64.1812 34.1082 64.6328 33.7944 65.1532 33.7102C65.6507 33.626 66.1558 33.7638 66.6457 33.8863C69.73 34.6593 72.9216 35.019 76.0978 34.9578C78.7306 34.9118 81.9144 34.1312 82.6568 31.6055C83.0778 30.1667 82.5191 28.6283 81.8149 27.3042V27.2813Z" fill="#FFBDA7"/>
</g>
<g style="mix-blend-mode:multiply" opacity="0.2">
<path d="M53.1896 52.1005C52.6156 53.8302 51.7354 55.4528 51.3145 57.2207C50.8936 58.9887 51.0007 61.0322 52.21 62.3945C52.4855 62.7083 52.8299 62.9762 53.2202 63.1139C54.108 63.4124 55.0571 62.9609 55.8683 62.4863C56.075 62.3715 56.2816 62.2414 56.4041 62.0348C56.5648 61.7669 56.5265 61.4225 56.4806 61.1087C56.1133 58.5754 55.5775 56.0115 54.3223 53.7766C53.8708 52.973 53.3121 52.1771 53.2585 51.251" fill="#FFBDA7"/>
</g>
<path d="M28.0855 37.8652C28.2616 31.6659 26.8533 25.5125 24.7715 19.7188C22.7893 21.5709 21.404 24.0353 20.4243 26.6299C18.6258 31.3674 18.1359 36.4953 18.4268 41.5313C18.6258 45.0136 18.266 50.9145 20.608 53.7539C22.9577 56.6087 25.3991 50.019 26.0497 48.3352C27.3431 45.006 27.9937 41.4318 28.0932 37.8652H28.0855Z" fill="#0C6F90"/>
<path d="M85.189 21.9229C82.7169 27.1961 81.5077 33.0358 81.5613 38.8524C81.5842 41.7148 81.9133 44.5696 82.5486 47.3631C82.9695 49.2229 83.1073 51.9859 84.3931 53.486C85.6406 54.9478 85.8166 53.5778 86.1916 52.1542C86.7044 50.2256 87.0641 48.2586 87.3091 46.2763C88.281 38.2325 87.2402 30.0892 85.7324 22.1831" fill="#0C6F90"/>
<path d="M30.3135 54.5188C30.3135 54.5188 36.2756 65.1648 46.6384 57.6644C45.2761 52.5442 41.0667 42.2808 30.3135 54.5188Z" fill="#F5F5F5"/>
<path d="M76.656 54.5188C76.656 54.5188 70.6939 65.1648 60.3311 57.6644C61.6934 52.5442 65.9028 42.2808 76.656 54.5188Z" fill="#F5F5F5"/>
<g style="mix-blend-mode:multiply" opacity="0.09">
<path d="M46.5923 57.5041C45.1917 52.3609 40.9975 42.5262 30.4893 54.3279C35.7549 51.3354 42.7196 52.912 46.5923 57.5041Z" fill="#0C6F90"/>
</g>
<path d="M52.9998 63.3519C53.1299 63.2448 52.1809 62.3876 51.7523 60.5584C51.5457 59.6553 51.5227 58.5302 51.913 57.3898C52.288 56.2418 53.1453 55.0402 53.5586 53.4942C54.0025 51.9864 54.033 50.471 53.8494 49.1393C53.658 47.8076 53.2447 46.6519 52.7779 45.7565C51.8288 43.9579 50.7803 43.2002 50.7191 43.2767C50.5966 43.3839 51.4309 44.287 52.1656 46.0473C52.5253 46.9198 52.8468 48.0143 52.9769 49.2541C53.0917 50.4863 53.0381 51.8716 52.6401 53.2416C52.2881 54.6039 51.4768 55.7979 51.0788 57.1296C50.6655 58.469 50.788 59.7701 51.1018 60.7421C51.4155 61.7294 51.9054 62.4258 52.2881 62.8391C52.6784 63.2524 52.9616 63.4055 52.9998 63.3672V63.3519Z" fill="#F98D61"/>
<path d="M56.8866 61.4915C56.7182 61.2848 56.3202 61.3308 55.9376 61.5145C55.5625 61.7058 55.2794 62.0043 55.3483 62.2568C55.4171 62.5094 55.8916 62.6089 56.3662 62.364C56.8407 62.1267 57.055 61.6905 56.8866 61.4838V61.4915Z" fill="#F98D61"/>
<path d="M48.905 40.7812C49.0504 40.5899 48.2774 39.6485 46.5554 38.7684C44.8639 37.8882 42.1393 37.1841 39.1697 37.6586C36.1925 38.1331 33.8276 39.6562 32.4959 41.0185C31.1335 42.3885 30.6973 43.5212 30.8963 43.659C31.1259 43.8273 31.9295 43.0314 33.3607 42.0517C34.7843 41.0721 36.9196 39.9546 39.4682 39.5414C42.0168 39.1357 44.3971 39.5261 46.0503 40.0159C47.7187 40.498 48.7366 41.0032 48.8973 40.7659L48.905 40.7812Z" fill="#F98D61"/>
<path d="M58.6072 65.0202C62.1508 66.4284 65.4877 71.717 63.3065 75.3448C62.0743 77.3959 60.0614 76.9061 58.1863 76.1561C56.1887 75.3524 53.9692 75.3371 52.0176 76.2249C51.367 76.5234 50.77 76.9367 50.1042 77.2046C48.5199 77.8322 47.0963 77.0209 46.3386 75.5821C44.8079 72.6508 46.4841 69.1225 48.673 67.0178C51.2292 64.561 55.3086 63.7038 58.6149 65.0202H58.6072Z" fill="#F98D61"/>
<path d="M61.2501 76.6763C60.6608 73.4312 57.8213 70.9668 54.4079 70.9668C50.8107 70.9668 47.8565 73.6914 47.4814 77.1814C48.1167 77.4646 48.8591 77.5106 49.6321 77.2044C50.2979 76.9365 50.8949 76.5232 51.5455 76.2248C53.4971 75.3293 55.7166 75.3523 57.7142 76.1559C58.9158 76.6381 60.171 77.0054 61.2501 76.6763Z" fill="#F05F24"/>
<path d="M41.9543 56.9985C43.0913 56.9985 44.0131 56.0767 44.0131 54.9397C44.0131 53.8026 43.0913 52.8809 41.9543 52.8809C40.8173 52.8809 39.8955 53.8026 39.8955 54.9397C39.8955 56.0767 40.8173 56.9985 41.9543 56.9985Z" fill="black"/>
<path d="M58.0585 40.7815C58.2193 41.0188 59.2372 40.506 60.9056 40.0315C62.5588 39.5417 64.9467 39.1513 67.4877 39.557C70.0363 39.9626 72.1716 41.08 73.5952 42.0673C75.034 43.047 75.8377 43.843 76.0596 43.6746C76.2586 43.5368 75.8147 42.4041 74.46 41.0341C73.1283 39.6718 70.7634 38.1564 67.7862 37.6742C64.8089 37.1997 62.092 37.9038 60.4005 38.784C58.6785 39.6641 57.9131 40.6055 58.0509 40.7969L58.0585 40.7815Z" fill="#F98D61"/>
<g style="mix-blend-mode:multiply" opacity="0.09">
<path d="M60.4375 57.5041C61.8381 52.3609 66.0322 42.5262 76.5405 54.3279C71.2749 51.3354 64.3102 52.912 60.4375 57.5041Z" fill="#0C6F90"/>
</g>
<path d="M65.0149 56.9994C66.1519 56.9994 67.0736 56.0777 67.0736 54.9406C67.0736 53.8036 66.1519 52.8818 65.0149 52.8818C63.8778 52.8818 62.9561 53.8036 62.9561 54.9406C62.9561 56.0777 63.8778 56.9994 65.0149 56.9994Z" fill="black"/>
<path d="M46.6393 57.6643C46.8077 57.6336 46.8536 56.2866 46.2566 54.1513C45.9352 53.0951 45.3994 51.8246 44.4045 50.6613C43.907 50.0796 43.2947 49.5286 42.5523 49.1C41.81 48.6637 40.9528 48.3729 40.065 48.2504C38.2817 47.9979 36.575 48.3959 35.2126 49.0617C33.8503 49.7276 32.8324 50.646 32.0976 51.4649C30.6358 53.1487 30.1689 54.4421 30.3144 54.5263C30.498 54.6488 31.2787 53.562 32.8094 52.1843C33.5824 51.5108 34.5621 50.7761 35.7637 50.2633C36.95 49.7505 38.4041 49.4673 39.8583 49.674C41.3125 49.873 42.5294 50.6001 43.4172 51.5491C44.3127 52.4905 44.8867 53.5696 45.3 54.5034C46.0959 56.4091 46.4174 57.7178 46.6393 57.6719V57.6643Z" fill="#F98D61"/>
<path d="M60.331 57.6641C60.5453 57.71 60.8668 56.4013 61.6704 54.4955C62.0837 53.5542 62.6577 52.4827 63.5532 51.5413C64.4333 50.5923 65.6503 49.8575 67.1121 49.6662C68.5662 49.4595 70.0204 49.7504 71.2067 50.2555C72.416 50.7683 73.388 51.503 74.161 52.1765C75.6917 53.5542 76.4723 54.641 76.656 54.5185C76.8014 54.4343 76.3346 53.1409 74.8727 51.4571C74.1303 50.6382 73.1201 49.7198 71.7578 49.0539C70.3954 48.388 68.6964 47.9901 66.9054 48.2426C66.0176 48.3727 65.1604 48.6636 64.418 49.0922C63.6757 49.5208 63.0634 50.0718 62.5659 50.6535C61.5709 51.8245 61.0352 53.0873 60.7137 54.1435C60.1167 56.2788 60.1627 57.6258 60.331 57.6565V57.6641Z" fill="#F98D61"/>
<path d="M55.3731 3.8916C55.6869 10.2593 57.4243 16.673 61.1592 21.8391C62.6287 23.8749 64.389 25.6888 66.1416 27.495C67.4351 28.8344 68.7515 30.1814 70.3511 31.1305C74.8284 33.7786 80.4843 32.7836 85.5969 33.748C86.2704 32.2096 85.6581 30.434 84.9999 28.888C82.5048 23.0101 79.2674 17.3541 74.7288 12.8615C70.1903 8.36891 64.2435 5.10851 57.8835 4.58807C55.5492 4.39673 53.1612 4.58807 50.957 5.37638" fill="#0C6F90"/>
<path d="M50.8113 27.9007C56.1228 30.3498 64.0365 33.9317 69.7001 30.4417C68.8353 29.7146 67.8327 29.0947 66.9985 28.314C63.8452 25.3598 63.4702 21.4412 64.0519 17.3618C64.4881 14.3234 66.1948 10.3206 65.1463 7.2745C63.6768 2.99618 56.7657 4.00645 53.3675 4.26667C46.5712 4.79476 39.882 6.80763 33.9506 10.1828C30.3304 12.2416 24.2765 16.4358 25.1184 21.2192C25.9297 25.8343 30.185 30.1662 34.0577 32.424C38.7799 35.1716 44.4971 35.9981 49.8928 35.1716C46.8774 35.2175 43.8619 34.0006 41.7342 31.8576C47.3519 34.123 53.7273 34.4521 59.5516 32.7684C56.2529 32.026 53.1839 30.3116 50.8189 27.8931L50.8113 27.9007Z" fill="#0C6F90"/>
<path d="M26.1209 24.0055C26.2893 23.8831 25.3785 22.4672 24.7203 20.5308C24.0468 18.6022 23.8937 16.926 23.6794 16.9337C23.4958 16.9184 23.3274 18.7093 24.0392 20.7681C24.7433 22.8269 25.9755 24.128 26.1133 24.0055H26.1209Z" fill="black"/>
<path d="M18.9414 32.3784C19.1557 32.3784 19.0332 29.0109 19.921 25.0234C20.342 23.0335 21.0002 21.3114 21.7196 20.2093C22.4237 19.0919 23.0743 18.5562 22.9977 18.4643C22.9595 18.3955 22.1635 18.8087 21.3063 19.9185C20.4338 21.013 19.6532 22.8192 19.2169 24.8703C18.3138 28.9803 18.7654 32.409 18.9414 32.3784Z" fill="black"/>
<path d="M23.2649 49.147C23.3874 49.1087 22.9205 47.578 22.5532 45.037C22.3542 43.7742 22.2394 42.2512 22.1782 40.5597C22.1475 38.8683 22.1934 37.0008 22.3542 35.0492C22.6909 31.1459 23.3185 27.6406 23.7548 25.092C24.1987 22.551 24.4589 20.9744 24.3594 20.9514C24.2675 20.9285 23.8313 22.4745 23.2573 24.9925C22.6909 27.5181 21.9792 31.0311 21.6424 34.988C21.4817 36.9626 21.4511 38.8607 21.5199 40.5827C21.6194 42.3047 21.7878 43.8507 22.0557 45.1212C22.1628 45.7641 22.3236 46.3305 22.446 46.8356C22.5685 47.3407 22.6986 47.7617 22.8287 48.1061C23.0659 48.7949 23.219 49.1623 23.2649 49.147Z" fill="black"/>
<path d="M25.7602 43.3074C25.9516 43.3151 26.2424 40.468 26.1812 36.9474C26.1199 33.4191 25.7296 30.5873 25.5383 30.6026C25.3393 30.6179 25.4082 33.4574 25.4694 36.9627C25.5306 40.4603 25.5612 43.3074 25.7679 43.3151L25.7602 43.3074Z" fill="black"/>
<path d="M59.5354 4.55003C59.5431 4.50411 59.0226 4.38165 58.0583 4.19797C57.5761 4.09847 56.9868 3.99898 56.298 3.9454C55.6091 3.88418 54.8208 3.77703 53.9407 3.78468L52.563 3.76172C52.0809 3.76172 51.5911 3.80764 51.0706 3.82295C50.0374 3.84591 48.9429 4.00663 47.7949 4.15205C45.5065 4.51942 43.0115 5.11639 40.4935 6.04247C37.9908 6.99916 35.7177 8.18545 33.7507 9.41001C32.7864 10.0606 31.8603 10.6575 31.0643 11.3157C30.6587 11.6372 30.2607 11.928 29.901 12.2495L28.8831 13.1755C28.2172 13.7496 27.6968 14.3465 27.2146 14.844C26.7248 15.3415 26.3498 15.8007 26.0513 16.191C25.4466 16.9564 25.1328 17.3926 25.1711 17.4232C25.2782 17.5151 26.6176 15.816 29.2275 13.5506L30.2607 12.6781C30.6204 12.3796 31.0261 12.1041 31.4317 11.7903C32.2277 11.1627 33.1537 10.5963 34.1104 9.96872C36.0621 8.79008 38.2969 7.64971 40.7613 6.71598C43.2334 5.80521 45.6672 5.20058 47.9097 4.8026C49.0348 4.64187 50.1063 4.46584 51.1242 4.41227C51.6293 4.38165 52.1191 4.32043 52.586 4.30512L53.9407 4.28216C57.4001 4.28216 59.5201 4.68014 59.543 4.54238L59.5354 4.55003Z" fill="black"/>
<path d="M86.6973 22.9037C86.6973 22.9037 86.6437 22.6817 86.483 22.2837C86.3988 22.0847 86.2993 21.8322 86.1692 21.549L85.6564 20.5847C84.8604 19.1458 83.4751 17.1635 81.2709 15.1889C79.0744 13.222 76.0742 11.2703 72.3852 9.93861C68.7038 8.59925 64.3949 7.95635 59.9023 8.00993C55.402 8.07881 51.162 8.77528 47.3811 9.64013C43.6003 10.505 40.2557 11.5612 37.5311 12.6556C34.8064 13.7501 32.7017 14.8828 31.3011 15.7247C30.6046 16.1533 30.0689 16.4977 29.7168 16.7579C29.3648 17.0105 29.1887 17.1482 29.204 17.1712C29.2347 17.2171 30.0077 16.7426 31.4389 15.9696C32.8777 15.2042 34.9901 14.148 37.7148 13.1301C40.4394 12.1046 43.761 11.1019 47.5266 10.283C51.2844 9.4641 55.4786 8.79059 59.9099 8.72936C64.3337 8.68344 68.5584 9.29572 72.1632 10.5662C75.7757 11.829 78.7376 13.6965 80.9342 15.5716C83.1384 17.4544 84.5543 19.3601 85.4115 20.7301L85.9702 21.6561L86.3452 22.3526C86.5518 22.7276 86.6666 22.9266 86.6896 22.9113L86.6973 22.9037Z" fill="black"/>
<path d="M42.8444 32.9979C42.9286 32.8066 38.4819 31.207 34.104 27.4951C31.9228 25.6582 30.1242 23.7831 29.0527 22.2677C27.9659 20.7523 27.5756 19.6502 27.4608 19.6885C27.3843 19.7038 27.6139 20.9054 28.6241 22.5432C29.6267 24.1887 31.41 26.1633 33.6372 28.0385C35.872 29.9059 38.1757 31.2453 39.9131 32.0183C41.6504 32.8066 42.8061 33.0745 42.8367 32.9903L42.8444 32.9979Z" fill="black"/>
<path d="M80.7594 23.9133C80.7594 23.9133 80.2543 23.4235 79.221 22.6964C78.1955 21.9693 76.6342 21.005 74.5983 20.01C70.5573 18.0048 64.4574 16.1297 57.5463 15.8465C50.6352 15.5557 44.4281 16.7649 40.1039 17.9895C37.938 18.6017 36.2083 19.1987 35.0373 19.6579C33.8663 20.1095 33.2311 20.408 33.2464 20.4462C33.2617 20.4922 33.9275 20.2932 35.1291 19.9182C36.3231 19.5431 38.0604 19.0227 40.234 18.4793C44.5583 17.3848 50.704 16.2751 57.5157 16.5583C64.3273 16.8414 70.343 18.6094 74.384 20.4692C78.4557 22.3137 80.6752 24.0281 80.7518 23.9056L80.7594 23.9133Z" fill="black"/>
<path d="M73.1052 26.7765C73.1205 26.7305 72.6537 26.5622 71.7965 26.3019C70.9393 26.057 69.6918 25.7126 68.1228 25.3759C65.0002 24.6947 60.6224 23.9829 55.7318 23.761C50.8412 23.4931 46.4327 23.9447 43.2718 23.8452C40.1033 23.7992 38.1822 23.3018 38.1593 23.4166C38.1516 23.4548 38.6108 23.6462 39.491 23.8452C40.3635 24.0518 41.6569 24.2584 43.2565 24.3503C46.471 24.5799 50.8718 24.2049 55.7011 24.4727C60.5458 24.687 64.893 25.3146 68.0233 25.8657C71.1536 26.4167 73.0746 26.876 73.1052 26.7688V26.7765Z" fill="black"/>
<path d="M87.9534 44.762C88.0452 44.762 88.1753 43.637 88.2442 41.8078C88.3131 39.9786 88.3131 37.4453 88.1524 34.6594C87.9916 31.8735 87.7161 29.3555 87.4406 27.5493C87.1651 25.743 86.9125 24.6333 86.8206 24.6486C86.614 24.6792 87.1344 29.1565 87.4406 34.7053C87.762 40.2465 87.7467 44.762 87.9534 44.7697V44.762Z" fill="black"/>
<path d="M84.6705 42.0218C84.8619 42.0218 84.9384 38.8686 84.4333 35.0189C83.9435 31.1691 83.0633 28.146 82.8796 28.1919C82.6806 28.2378 83.2317 31.3069 83.7215 35.1107C84.219 38.9145 84.4639 42.0218 84.6705 42.0142V42.0218Z" fill="black"/>
<path d="M92.6672 48.825L80.544 45.3657C80.4598 45.3427 80.3756 45.335 80.2991 45.3427C77.9801 41.493 73.7706 38.9061 68.9489 38.9061C63.0557 38.9061 58.0503 42.7788 56.3359 48.1056C54.2465 46.6591 52.0729 47.1566 50.6034 47.9985C48.8584 42.7252 43.8836 38.8984 38.0287 38.8984C33.1917 38.8984 28.9593 41.5159 26.6479 45.3963L14.6625 48.8174C14.3105 48.9169 14.1038 49.2843 14.211 49.6363C14.2951 49.9272 14.5554 50.1185 14.8462 50.1185C14.9074 50.1185 14.9686 50.1108 15.0299 50.0955L25.8137 47.0188C25.1478 48.6031 24.7728 50.3404 24.7728 52.162C24.7728 59.4711 30.7196 65.4179 38.0287 65.4179C45.3378 65.4179 51.2846 59.4711 51.2846 52.162C51.2846 51.19 51.1698 50.2486 50.9708 49.3378C51.9581 48.6873 53.971 47.8071 55.9685 49.4986C55.7925 50.3558 55.7007 51.2512 55.7007 52.162C55.7007 59.4711 61.6475 65.4179 68.9566 65.4179C76.2657 65.4179 82.2125 59.4711 82.2125 52.162C82.2125 50.2945 81.8221 48.5189 81.118 46.904L92.3074 50.0955C92.3687 50.1108 92.4299 50.1185 92.4911 50.1185C92.782 50.1185 93.0422 49.9272 93.1264 49.6363C93.2259 49.2843 93.0269 48.9169 92.6748 48.8174L92.6672 48.825ZM38.0287 64.0862C31.4543 64.0862 26.0969 58.7364 26.0969 52.1543C26.0969 45.5723 31.4467 40.2225 38.0287 40.2225C43.4474 40.2225 48.0242 43.8579 49.4707 48.8097C49.463 48.8174 49.4478 48.825 49.4401 48.8327L49.486 48.8863C49.7845 49.9272 49.9529 51.0216 49.9529 52.1543C49.9529 58.7287 44.6031 64.0862 38.021 64.0862H38.0287ZM68.9566 64.0862C62.3822 64.0862 57.0247 58.7364 57.0247 52.1543C57.0247 45.5723 62.3745 40.2225 68.9566 40.2225C75.5386 40.2225 80.8884 45.5723 80.8884 52.1543C80.8884 58.7364 75.5386 64.0862 68.9566 64.0862Z" fill="#FFCA05"/>
<g style="mix-blend-mode:overlay" opacity="0.21">
<path d="M75.9954 4.57283C68.2577 0.386357 59.2036 -0.654521 50.5551 0.378703C44.4859 1.09813 38.2406 1.93237 32.8296 5.04735C28.4671 7.5577 24.7934 11.5911 23.5841 16.474C18.7701 15.8924 17.8823 19.5967 17.3389 23.3852C15.9153 33.3424 16.8337 43.6287 20.0099 53.1727H20.6605C20.5763 52.5068 20.5151 51.8409 20.4615 51.1827C20.0329 45.963 19.6502 40.6974 20.2319 35.493C20.6605 31.7275 20.7064 23.3316 25.8802 23.2857C26.3011 18.0889 30.2503 13.6882 34.9343 11.3921C39.6182 9.09606 44.9527 8.57562 50.1571 8.36132C58.4153 8.02457 66.8265 8.39959 74.679 10.9865C79.891 12.7009 84.8505 15.4867 88.7844 19.2752C86.8098 13.1371 81.3988 7.49647 75.9954 4.58048V4.57283Z" fill="#FFCA05"/>
</g>
</svg>
