<svg width="106" height="155" viewBox="0 0 106 155" fill="none" xmlns="http://www.w3.org/2000/svg">
<path d="M87.704 52.5066C90.2832 42.1055 90.7347 31.6814 88.7218 21.2344C87.3978 14.3539 81.3975 7.7948 75.4124 4.56502C67.6747 0.378545 58.6206 -0.662334 49.9721 0.370891C43.9028 1.09032 37.6576 1.92455 32.2466 5.03954C27.8841 7.54989 24.2104 11.5833 23.0011 16.4662C18.187 15.8846 17.2992 19.5889 16.7559 23.3774C15.3323 33.3346 16.2507 43.6209 19.4269 53.1649" fill="#0C6F90"/>
<path d="M72.2065 106.379C68.0889 104.688 65.3107 102.491 63.4356 100.371C60.9711 97.5931 59.67 93.1464 59.67 89.4345V78.7119H46.0315V89.4345C46.0315 93.1464 44.7227 97.5931 42.266 100.371C40.3908 102.484 37.6049 104.688 33.495 106.379C22.2443 110.994 0.0644531 118.066 0.0644531 135.424C0.0644531 135.424 53.0498 153.609 105.645 135.424C105.645 118.066 83.4648 110.987 72.2142 106.379H72.2065Z" fill="#FFBDA7"/>
<path d="M105.637 135.432C105.637 118.074 83.457 110.995 72.2064 106.387C68.0888 104.696 65.3105 102.499 63.4354 100.379C62.2644 99.0628 61.369 97.3637 60.7337 95.5498C55.338 96.6443 49.8351 97.157 44.3322 97.0958C43.7735 98.3127 43.0847 99.4454 42.2581 100.379C40.383 102.492 37.5971 104.696 33.4872 106.387C22.2365 111.002 0.0566406 118.074 0.0566406 135.432C2.99951 138 5.49951 139.664 7.49951 141C26.4995 153.691 70.7866 165.519 105.637 135.432Z" fill="#0C6F90"/>
<path d="M22.856 135.96C22.7948 130.978 22.5269 126.945 22.2667 126.952C22.0065 126.952 21.8381 130.993 21.8993 135.976C21.9223 137.69 21.9682 139.29 22.0295 140.66C22.2973 140.706 22.5652 140.751 22.8407 140.797C22.8713 139.397 22.879 137.744 22.856 135.96Z" fill="black"/>
<path d="M83.7857 135.96C83.7245 130.978 83.4566 126.945 83.1964 126.952C82.9361 126.952 82.7678 130.993 82.829 135.976C82.852 137.92 82.9055 139.718 82.982 141.195C83.2423 141.149 83.5025 141.111 83.7627 141.065C83.801 139.611 83.8087 137.858 83.7857 135.968V135.96Z" fill="black"/>
<path d="M61.8208 91.7686H44.1182C41.9118 91.7686 40.123 93.5572 40.123 95.7637V98.6567C40.123 100.863 41.9118 102.652 44.1182 102.652H61.8208C64.0272 102.652 65.8159 100.863 65.8159 98.6567V95.7637C65.8159 93.5572 64.0272 91.7686 61.8208 91.7686Z" fill="#0D617D"/>
<path d="M42.7556 92.1133C42.6025 92.1822 42.4648 92.2664 42.3193 92.3505C42.327 93.6057 42.3423 94.9757 42.3653 96.4146C42.3959 98.5269 42.4418 100.494 42.4954 102.17C42.6255 102.239 42.7632 102.308 42.901 102.361C42.901 100.647 42.878 98.6035 42.8474 96.4146C42.8245 94.8915 42.7939 93.445 42.7633 92.1209L42.7556 92.1133Z" fill="black"/>
<path d="M46.9879 96.4066C46.9649 94.7458 46.9267 93.1845 46.8884 91.7686H46.4521C46.4598 93.1768 46.4751 94.7458 46.5057 96.4142C46.544 98.7333 46.5899 100.884 46.6511 102.652H47.0415C47.0415 100.876 47.0185 98.7256 46.9802 96.4066H46.9879Z" fill="black"/>
<path d="M51.1363 96.4066C51.1134 94.7458 51.0751 93.1845 51.0368 91.7686H50.6006C50.6082 93.1768 50.6236 94.7458 50.6542 96.4142C50.6924 98.7333 50.7384 100.884 50.7996 102.652H51.1899C51.1899 100.876 51.1669 98.7256 51.1287 96.4066H51.1363Z" fill="black"/>
<path d="M55.2847 96.4066C55.2618 94.7458 55.2235 93.1845 55.1853 91.7686H54.749C54.7567 93.1768 54.772 94.7458 54.8026 96.4142C54.8409 98.7333 54.8867 100.884 54.948 102.652H55.3383C55.3383 100.876 55.3154 98.7256 55.2771 96.4066H55.2847Z" fill="black"/>
<path d="M59.4244 96.4066C59.4015 94.7458 59.3632 93.1845 59.3249 91.7686H58.8887C58.8963 93.1768 58.9116 94.7458 58.9423 96.4142C58.9805 98.7333 59.0264 100.884 59.0877 102.652H59.478C59.478 100.876 59.455 98.7256 59.4168 96.4066H59.4244Z" fill="black"/>
<path d="M63.4888 92.2817C63.3434 92.2051 63.198 92.1286 63.0449 92.0674C63.0526 93.3991 63.0679 94.8686 63.0985 96.4069C63.1368 98.5729 63.1827 100.578 63.2286 102.277C63.3664 102.216 63.4965 102.132 63.6343 102.055C63.6343 100.402 63.6113 98.4657 63.5807 96.3916C63.5577 94.9298 63.5271 93.5445 63.4965 92.2664L63.4888 92.2817Z" fill="black"/>
<g style="mix-blend-mode:multiply" opacity="0.35">
<path d="M59.6629 89.4423V78.7197H55.2391C53.7008 78.7963 52.1625 78.7963 50.6241 78.7197H46.0243V89.4423C46.0243 90.1158 45.9631 90.8123 45.8789 91.5164C46.7514 91.6236 47.6469 91.6542 48.5117 91.6465C52.2696 91.6082 55.9969 91.1184 59.7012 90.4755C59.6782 90.1311 59.6552 89.7791 59.6552 89.45L59.6629 89.4423Z" fill="#FFBDA7"/>
</g>
<path d="M92.141 62.6341C95.2622 57.5568 94.9871 51.7163 91.5266 49.5891C88.066 47.4618 82.7305 49.8533 79.6094 54.9306C76.4882 60.008 76.7633 65.8485 80.2238 67.9758C83.6843 70.103 89.0199 67.7115 92.141 62.6341Z" fill="#FFBDA7"/>
<g style="mix-blend-mode:multiply" opacity="0.36">
<path d="M82.3857 66.5278C83.0593 64.094 83.9088 61.7061 84.9344 59.3947C85.2482 58.6906 85.5773 57.9941 86.0365 57.3818C86.5569 56.6854 87.2304 56.119 87.8886 55.5526C88.7305 54.8409 89.5954 54.1138 90.6286 53.7541C91.0342 53.6087 91.5011 53.5321 91.8914 53.7235C92.3047 53.9301 92.519 54.3893 92.6491 54.8256C93.2154 56.7695 92.5573 58.5834 91.8225 60.3667C91.0189 62.303 89.2816 64.048 87.6896 65.3798C86.3503 66.4972 84.7201 67.8825 82.8526 67.0406" fill="#FFBDA7"/>
</g>
<path d="M86.9006 58.9737C86.2194 59.0426 85.6225 59.2569 85.148 59.4942C85.2628 59.2799 85.3699 59.0579 85.4924 58.8436C86.6174 56.8843 88.0869 55.4302 89.3038 54.6036C90.4978 53.7158 91.4238 53.6392 91.4238 53.5244C91.4238 53.4709 91.1789 53.3943 90.735 53.4479C90.2911 53.4938 89.6635 53.7005 88.9824 54.0908C87.6047 54.8332 85.9439 56.3486 84.75 58.415C83.5407 60.4815 83.0433 62.5938 82.7677 64.0863C82.4999 65.594 82.4463 66.5354 82.4463 66.5354L83.1887 64.1858C83.556 63.0837 84.0612 61.6601 84.7883 60.183H84.8265C85.3929 60.0376 86.1582 59.9075 86.9925 59.8233C88.6763 59.6396 90.0539 60.0146 90.1457 59.7774C90.2529 59.5784 88.8369 58.7671 86.9083 58.9737H86.9006Z" fill="#F98D61"/>
<path d="M25.4758 67.9139C28.9363 65.7866 29.2114 59.9461 26.0903 54.8688C22.9691 49.7914 17.6336 47.3999 14.173 49.5272C10.7125 51.6544 10.4374 57.4949 13.5586 62.5723C16.6798 67.6496 22.0152 70.0411 25.4758 67.9139Z" fill="#FFBDA7"/>
<g style="mix-blend-mode:multiply" opacity="0.36">
<path d="M23.3081 66.5278C22.6346 64.094 21.785 61.7061 20.7594 59.3947C20.4457 58.6906 20.1166 57.9941 19.6573 57.3818C19.1369 56.6854 18.4634 56.119 17.8052 55.5526C16.9633 54.8409 16.0985 54.1138 15.0652 53.7541C14.6596 53.6087 14.1928 53.5321 13.8024 53.7235C13.3891 53.9301 13.1748 54.3893 13.0447 54.8256C12.4783 56.7695 13.1365 58.5834 13.8713 60.3667C14.6749 62.303 16.4123 64.048 18.0042 65.3798C19.3436 66.4972 20.9738 67.8825 22.8412 67.0406" fill="#FFBDA7"/>
</g>
<path d="M18.7849 58.9737C19.4661 59.0426 20.0631 59.2569 20.5376 59.4942C20.4228 59.2799 20.3157 59.0579 20.1932 58.8436C19.0681 56.8843 17.5987 55.4302 16.3818 54.6036C15.1878 53.7158 14.2617 53.6392 14.2617 53.5244C14.2617 53.4709 14.5066 53.3943 14.9506 53.4479C15.3945 53.4938 16.022 53.7005 16.7032 54.0908C18.0808 54.8332 19.7417 56.3486 20.9356 58.415C22.1449 60.4815 22.6423 62.5938 22.9178 64.0863C23.1857 65.594 23.2393 66.5354 23.2393 66.5354L22.4969 64.1858C22.1295 63.0837 21.6244 61.6601 20.8973 60.183H20.859C20.2927 60.0376 19.5273 59.9075 18.6931 59.8233C17.0093 59.6396 15.6317 60.0146 15.5398 59.7774C15.4327 59.5784 16.8486 58.7671 18.7773 58.9737H18.7849Z" fill="#F98D61"/>
<path d="M52.8429 86.8863C36.2348 86.8863 22.6804 73.6993 22.336 57.2059L21.8998 36.4113C21.5707 20.6221 34.3597 7.64941 50.2561 7.64941H55.4375C71.3338 7.64941 84.1228 20.6221 83.7937 36.4113L83.3575 57.2059C83.0131 73.6993 69.4511 86.8863 52.8506 86.8863H52.8429Z" fill="#FFBDA7"/>
<g style="mix-blend-mode:multiply" opacity="0.35">
<path d="M81.23 27.2803C76.9057 19.1599 67.3082 15.0959 58.1317 14.4071C48.9551 13.7183 39.8245 15.7541 30.6709 16.7185C29.9667 16.795 29.2473 16.8639 28.5355 16.9557C28.8417 19.3513 27.288 21.4254 25.0149 22.229C24.9307 22.2596 24.8695 22.2826 24.8159 22.2979C24.7547 22.3361 24.6858 22.3744 24.5863 22.428C24.3184 22.5734 24.0506 22.7265 23.7904 22.8872C23.3924 23.1398 23.002 23.3923 22.6193 23.6678C22.4586 23.7903 22.3668 23.8515 22.3056 23.8974C22.1448 24.0276 21.9918 24.173 21.8311 24.3107L23.377 26.4078C29.0483 34.7961 40.0311 38.2631 50.1337 37.6126C51.4425 37.5284 53.1186 36.9926 53.111 35.6839C56.4403 36.6865 60.1828 36.1966 63.1447 34.3828C63.5963 34.1072 64.0478 33.7934 64.5683 33.7093C65.0657 33.6251 65.5709 33.7628 66.0607 33.8853C69.1451 34.6583 72.3366 35.018 75.5128 34.9568C78.1456 34.9109 81.3295 34.1302 82.0719 31.6045C82.4928 30.1657 81.9341 28.6273 81.23 27.3033V27.2803Z" fill="#FFBDA7"/>
</g>
<g style="mix-blend-mode:multiply" opacity="0.2">
<path d="M52.6125 52.1015C52.0385 53.8312 51.1583 55.4537 50.7373 57.2217C50.3164 58.9897 50.4236 61.0331 51.6328 62.3955C51.9084 62.7093 52.2528 62.9771 52.6431 63.1149C53.5309 63.4134 54.4799 62.9618 55.2912 62.4873C55.4978 62.3725 55.7045 62.2424 55.827 62.0358C55.9877 61.7679 55.9494 61.4235 55.9035 61.1097C55.5361 58.5764 55.0004 56.0124 53.7452 53.7776C53.2937 52.974 52.7349 52.178 52.6814 51.252" fill="#FFBDA7"/>
</g>
<path d="M27.5015 37.8652C27.6775 31.6659 26.2693 25.5125 24.1876 19.7188C22.2053 21.5709 20.82 24.0353 19.8403 26.6299C18.0418 31.3674 17.552 36.4953 17.8428 41.5313C18.0418 45.0136 17.6821 50.9145 20.0241 53.7539C22.3737 56.6087 24.8152 50.019 25.4657 48.3352C26.7591 45.006 27.4097 41.4318 27.5092 37.8652H27.5015Z" fill="#0C6F90"/>
<path d="M84.6129 21.9229C82.1408 27.1961 80.9315 33.0358 80.9851 38.8524C81.0081 41.7148 81.3372 44.5696 81.9724 47.3631C82.3934 49.2229 82.5311 51.9859 83.8169 53.486C85.1027 54.986 85.2404 53.5778 85.6155 52.1542C86.1283 50.2256 86.488 48.2586 86.7329 46.2763C87.7049 38.2325 86.664 30.0892 85.1563 22.1831" fill="#0C6F90"/>
<path d="M29.7373 54.5188C29.7373 54.5188 35.6994 65.1648 46.0622 57.6644C44.6999 52.5442 40.4905 42.2808 29.7373 54.5188Z" fill="#F5F5F5"/>
<path d="M76.0711 54.5188C76.0711 54.5188 70.109 65.1648 59.7461 57.6644C61.1084 52.5442 65.3179 42.2808 76.0711 54.5188Z" fill="#F5F5F5"/>
<path d="M34.1377 50.3247C34.3443 50.9599 34.6198 51.5722 35.0102 52.1233C36.3648 54.0749 38.9594 55.0163 41.2937 54.5494C42.3652 54.3351 43.3525 53.83 44.202 53.1488C42.3958 49.6741 39.2962 46.873 34.1377 50.3247Z" fill="black"/>
<path d="M71.41 50.3247C71.2034 50.9599 70.9279 51.5722 70.5376 52.1233C69.1829 54.0749 66.5884 55.0163 64.254 54.5494C63.1825 54.3351 62.1952 53.83 61.3457 53.1488C63.1519 49.6741 66.2516 46.873 71.41 50.3247Z" fill="black"/>
<g style="mix-blend-mode:multiply" opacity="0.09">
<path d="M46.0083 57.5041C44.6077 52.3609 40.4136 42.5262 29.9053 54.3279C35.1709 51.3354 42.1356 52.912 46.0083 57.5041Z" fill="#0C6F90"/>
</g>
<path d="M52.4139 63.3519C52.544 63.2448 51.595 62.3876 51.1664 60.5584C50.9597 59.6553 50.9368 58.5302 51.3271 57.3898C51.7021 56.2418 52.5593 55.0402 52.9726 53.4942C53.4165 51.9864 53.4471 50.471 53.2635 49.1393C53.0721 47.8076 52.6588 46.6519 52.1919 45.7565C51.2429 43.9579 50.1944 43.2002 50.1331 43.2767C50.0107 43.3839 50.8449 44.287 51.5797 46.0473C51.9394 46.9198 52.2608 48.0143 52.3909 49.2541C52.5057 50.4863 52.4522 51.8716 52.0542 53.2416C51.7021 54.6039 50.8909 55.7979 50.4929 57.1296C50.0796 58.469 50.202 59.7701 50.5158 60.7421C50.8296 61.7294 51.3194 62.4258 51.7021 62.8391C52.0924 63.2524 52.3756 63.4055 52.4139 63.3672V63.3519Z" fill="#F98D61"/>
<path d="M56.3104 61.4915C56.1421 61.2848 55.7441 61.3308 55.3614 61.5145C54.9864 61.7058 54.7032 62.0043 54.7721 62.2568C54.841 62.5094 55.3155 62.6089 55.79 62.364C56.2645 62.1267 56.4788 61.6905 56.3104 61.4838V61.4915Z" fill="#F98D61"/>
<g style="mix-blend-mode:multiply" opacity="0.09">
<path d="M59.8604 57.5041C61.2609 52.3609 65.4551 42.5262 75.9633 54.3279C70.6977 51.3354 63.733 52.912 59.8604 57.5041Z" fill="#0C6F90"/>
</g>
<path d="M46.0543 57.6652C46.2227 57.6346 46.2686 56.2876 45.6716 54.1523C45.3502 53.0961 44.8145 51.8256 43.8195 50.6623C43.322 50.0806 42.7098 49.5296 41.9674 49.101C41.225 48.6647 40.3678 48.3739 39.48 48.2514C37.6967 47.9989 35.9899 48.3968 34.6276 49.0627C33.2653 49.7285 32.2474 50.647 31.5126 51.4659C30.0508 53.1497 29.584 54.4431 29.7294 54.5273C29.9131 54.6498 30.6937 53.563 32.2245 52.1853C32.9975 51.5118 33.9771 50.7771 35.1787 50.2643C36.365 49.7515 37.8191 49.4683 39.2733 49.675C40.7275 49.874 41.9444 50.601 42.8322 51.5501C43.7277 52.4915 44.3017 53.5706 44.7149 54.5043C45.5109 56.4101 45.8324 57.7188 46.0543 57.6729V57.6652Z" fill="#F98D61"/>
<path d="M59.7539 57.6651C59.9682 57.711 60.2896 56.4023 61.0933 54.4965C61.5066 53.5551 62.0806 52.4837 62.976 51.5423C63.8562 50.5932 65.0731 49.8585 66.5349 49.6672C67.9891 49.4605 69.4433 49.7514 70.6296 50.2565C71.8388 50.7693 72.8108 51.504 73.5838 52.1775C75.1145 53.5551 75.8952 54.6419 76.0789 54.5195C76.2243 54.4353 75.7574 53.1419 74.2956 51.4581C73.5532 50.6392 72.5429 49.7207 71.1806 49.0549C69.8183 48.389 68.1192 47.991 66.3283 48.2436C65.4405 48.3737 64.5833 48.6645 63.8409 49.0931C63.0985 49.5217 62.4862 50.0728 61.9887 50.6545C60.9938 51.8255 60.458 53.0883 60.1366 54.1445C59.5396 56.2798 59.5855 57.6268 59.7539 57.6574V57.6651Z" fill="#F98D61"/>
<path d="M43.8192 37.3372C43.8575 37.0923 42.985 36.6714 41.4696 36.4571C39.9618 36.2428 37.773 36.2581 35.4769 37.0311C34.3365 37.4291 33.3109 37.9954 32.469 38.6383C31.6348 39.2889 30.9919 40.016 30.5633 40.6895C29.7138 42.0518 29.6296 43.0544 29.8439 43.1386C30.1118 43.2611 30.6322 42.4957 31.6119 41.539C32.1017 41.0645 32.7216 40.5517 33.4717 40.0772C34.2293 39.618 35.1095 39.1817 36.0968 38.8373C38.0715 38.1715 40.0078 37.9419 41.4313 37.8118C42.8549 37.6816 43.7733 37.6204 43.8192 37.3449V37.3372Z" fill="#F98D61"/>
<path d="M62.6472 37.3371C62.6932 37.6126 63.6116 37.6738 65.0351 37.8039C66.451 37.9341 68.395 38.1637 70.3696 38.8295C71.3493 39.1739 72.2294 39.6025 72.9948 40.0694C73.7448 40.5439 74.3647 41.0567 74.8546 41.5312C75.8342 42.4879 76.3546 43.2456 76.6225 43.1308C76.8368 43.0466 76.7526 42.044 75.9031 40.6817C75.4745 40.0082 74.8393 39.2811 73.9974 38.6305C73.1555 37.9876 72.1223 37.4289 70.9895 37.0233C68.6935 36.2503 66.5122 36.235 64.9968 36.4493C63.4738 36.6712 62.6013 37.0845 62.6472 37.3294V37.3371Z" fill="#F98D61"/>
<path d="M60.603 68.127C60.9321 68.7928 61.3913 69.8873 61.0163 70.6144C60.5494 71.5328 59.6157 71.8619 58.6972 71.3568C58.3146 71.1501 57.9931 70.8363 57.5951 70.668C56.5007 70.2241 55.7966 71.6553 54.771 71.3644C54.2199 71.2037 54.0363 70.3695 54.0056 69.8567C53.9291 68.3566 55.0542 67.0172 56.4854 66.6422C57.6487 66.3437 59.1641 66.359 60.0902 67.331C60.2739 67.5224 60.4499 67.7979 60.6106 68.127H60.603Z" fill="#F98D61"/>
<path d="M54.794 3.8916C55.1078 10.2593 56.8452 16.673 60.5801 21.8391C62.0496 23.8749 63.8099 25.6888 65.5625 27.495C66.856 28.8344 68.1724 30.1814 69.772 31.1305C74.2493 33.7786 79.9052 32.7836 85.0178 33.748C85.6913 32.2096 85.079 30.434 84.4208 28.888C81.9257 23.0101 78.6883 17.3541 74.1497 12.8615C69.6112 8.36891 63.6644 5.10851 57.3044 4.58807C54.97 4.39673 52.5821 4.58807 50.3779 5.37638" fill="#0C6F90"/>
<path d="M50.2253 27.9007C55.5369 30.3498 63.4506 33.9317 69.1142 30.4417C68.2494 29.7146 67.2468 29.0947 66.4125 28.314C63.2593 25.3598 62.8842 21.4412 63.4659 17.3618C63.9022 14.3234 65.6089 10.3206 64.5604 7.2745C63.0909 2.99618 56.1798 4.00645 52.7816 4.26666C45.9853 4.79476 39.2961 6.80763 33.3647 10.1828C29.7446 12.2416 23.6906 16.4358 24.5325 21.2192C25.3438 25.8343 29.5991 30.1662 33.4718 32.424C38.194 35.1716 43.9112 35.9981 49.3069 35.1716C46.2914 35.2175 43.276 34.0006 41.1483 31.8576C46.766 34.123 53.1413 34.4521 58.9656 32.7684C55.667 32.026 52.5979 30.3116 50.233 27.8931L50.2253 27.9007Z" fill="#0C6F90"/>
<path d="M25.5428 24.0055C25.7112 23.8831 24.8004 22.4672 24.1422 20.5308C23.4687 18.6022 23.3156 16.926 23.1013 16.9337C22.9176 16.9184 22.7493 18.7093 23.4611 20.7681C24.1652 22.8269 25.3974 24.128 25.5351 24.0055H25.5428Z" fill="black"/>
<path d="M18.3564 32.3784C18.5707 32.3784 18.4483 29.0109 19.3361 25.0234C19.757 23.0335 20.4152 21.3114 21.1346 20.2093C21.8388 19.0919 22.4893 18.5562 22.4128 18.4643C22.3745 18.3955 21.5786 18.8087 20.7214 19.9185C19.8489 21.013 19.0682 22.8192 18.632 24.8703C17.7288 28.9803 18.1804 32.409 18.3564 32.3784Z" fill="black"/>
<path d="M22.6809 49.147C22.8034 49.1087 22.3365 47.578 21.9692 45.037C21.7702 43.7742 21.6554 42.2512 21.5942 40.5597C21.5635 38.8683 21.6094 37.0008 21.7702 35.0492C22.1069 31.1459 22.7345 27.6406 23.1708 25.092C23.6147 22.551 23.8749 20.9744 23.7754 20.9514C23.6835 20.9285 23.2473 22.4745 22.6733 24.9925C22.1069 27.5181 21.3952 31.0311 21.0584 34.988C20.8977 36.9626 20.8671 38.8607 20.936 40.5827C21.0355 42.3047 21.2038 43.8507 21.4717 45.1212C21.5788 45.7641 21.7395 46.3305 21.862 46.8356C21.9845 47.3407 22.1146 47.7617 22.2447 48.1061C22.4819 48.7949 22.635 49.1623 22.6809 49.147Z" fill="black"/>
<path d="M25.1831 43.3074C25.3744 43.3151 25.6653 40.468 25.604 36.9474C25.5428 33.4191 25.1524 30.5873 24.9611 30.6026C24.7621 30.6179 24.831 33.4574 24.8923 36.9627C24.9535 40.4603 24.9841 43.3074 25.1908 43.3151L25.1831 43.3074Z" fill="black"/>
<path d="M58.9583 4.55003C58.9659 4.50411 58.4455 4.38165 57.4811 4.19797C56.999 4.09847 56.4096 3.99898 55.7208 3.9454C55.032 3.88418 54.2437 3.77703 53.3635 3.78468L51.9859 3.76172C51.5037 3.76172 51.0139 3.80764 50.4935 3.82295C49.4602 3.84591 48.3658 4.00663 47.2177 4.15205C44.9293 4.51942 42.4343 5.11639 39.9163 6.04247C37.4136 6.99916 35.1405 8.18545 33.1736 9.41001C32.2092 10.0606 31.2831 10.6575 30.4872 11.3157C30.0815 11.6372 29.6835 11.928 29.3238 12.2495L28.3059 13.1755C27.64 13.7496 27.1196 14.3465 26.6374 14.844C26.1476 15.3415 25.7726 15.8007 25.4741 16.191C24.8695 16.9564 24.5557 17.3926 24.5939 17.4232C24.7011 17.5151 26.0405 15.816 28.6503 13.5506L29.6836 12.6781C30.0433 12.3796 30.4489 12.1041 30.8545 11.7903C31.6505 11.1627 32.5766 10.5963 33.5333 9.96872C35.4849 8.79008 37.7197 7.64971 40.1842 6.71598C42.6562 5.80521 45.0901 5.20058 47.3326 4.8026C48.4576 4.64187 49.5291 4.46584 50.547 4.41227C51.0521 4.38165 51.542 4.32043 52.0089 4.30512L53.3635 4.28216C56.8229 4.28216 58.9429 4.68014 58.9659 4.54238L58.9583 4.55003Z" fill="black"/>
<path d="M86.1211 22.9027C86.1211 22.9027 86.0675 22.6807 85.9068 22.2828C85.8226 22.0838 85.7231 21.8312 85.593 21.548L85.0802 20.5837C84.2842 19.1448 82.8989 17.1626 80.6947 15.1879C78.4982 13.221 75.498 11.2693 71.809 9.93764C68.1277 8.59827 63.8187 7.95538 59.3261 8.00895C54.8258 8.07783 50.5858 8.7743 46.805 9.63915C43.0241 10.504 39.6796 11.5602 36.9549 12.6546C34.2303 13.7491 32.1255 14.8818 30.7249 15.7237C30.0285 16.1523 29.4927 16.4967 29.1406 16.7569C28.7886 17.0095 28.6126 17.1472 28.6279 17.1702C28.6585 17.2161 29.4315 16.7416 30.8627 15.9686C32.3015 15.2033 34.4139 14.1471 37.1386 13.1292C39.8632 12.1036 43.1849 11.101 46.9504 10.282C50.7083 9.46312 54.9024 8.78961 59.3338 8.72838C63.7575 8.68246 67.9823 9.29474 71.5871 10.5652C75.1995 11.8281 78.1614 13.6955 80.358 15.5706C82.5622 17.4534 83.9781 19.3591 84.8353 20.7291L85.394 21.6552L85.769 22.3516C85.9756 22.7267 86.0905 22.9257 86.1134 22.9103L86.1211 22.9027Z" fill="black"/>
<path d="M42.2663 32.9979C42.3505 32.8066 37.9037 31.207 33.5259 27.4951C31.3447 25.6582 29.5461 23.7831 28.4746 22.2677C27.3878 20.7523 26.9975 19.6502 26.8827 19.6885C26.8061 19.7038 27.0358 20.9054 28.046 22.5432C29.0486 24.1887 30.8319 26.1633 33.0591 28.0385C35.2939 29.9059 37.5976 31.2453 39.335 32.0183C41.0723 32.8066 42.228 33.0745 42.2586 32.9903L42.2663 32.9979Z" fill="black"/>
<path d="M80.1744 23.9133C80.1744 23.9133 79.6693 23.4235 78.6361 22.6964C77.6105 21.9693 76.0492 21.005 74.0134 20.01C69.9723 18.0048 63.8724 16.1297 56.9613 15.8465C50.0502 15.5557 43.8432 16.7649 39.519 17.9895C37.353 18.6017 35.6233 19.1987 34.4523 19.6579C33.2814 20.1095 32.6461 20.408 32.6614 20.4462C32.6767 20.4922 33.3426 20.2932 34.5442 19.9182C35.7381 19.5431 37.4755 19.0227 39.6491 18.4793C43.9733 17.3848 50.1191 16.2751 56.9307 16.5583C63.7424 16.8414 69.758 18.6094 73.7991 20.4692C77.8707 22.3137 80.0903 24.0281 80.1668 23.9056L80.1744 23.9133Z" fill="black"/>
<path d="M72.5281 26.7755C72.5434 26.7296 72.0765 26.5612 71.2193 26.301C70.3621 26.0561 69.1146 25.7116 67.5456 25.3749C64.423 24.6937 60.0452 23.9819 55.1546 23.76C50.264 23.4921 45.8556 23.9437 42.6947 23.8442C39.5261 23.7983 37.6051 23.3008 37.5821 23.4156C37.5745 23.4539 38.0337 23.6452 38.9138 23.8442C39.7863 24.0508 41.0798 24.2575 42.6793 24.3493C45.8938 24.5789 50.2946 24.2039 55.124 24.4718C59.9686 24.6861 64.3158 25.3137 67.4461 25.8647C70.5764 26.4158 72.4974 26.875 72.5281 26.7678V26.7755Z" fill="black"/>
<path d="M87.3753 44.762C87.4671 44.762 87.5972 43.637 87.6661 41.8078C87.7349 39.9786 87.735 37.4453 87.5742 34.6594C87.4135 31.8735 87.138 29.3555 86.8625 27.5493C86.5869 25.743 86.3344 24.6333 86.2425 24.6486C86.0359 24.6792 86.5563 29.1565 86.8625 34.7053C87.1839 40.2465 87.1686 44.762 87.3753 44.7697V44.762Z" fill="black"/>
<path d="M84.0856 42.0218C84.2769 42.0218 84.3534 38.8686 83.8483 35.0189C83.3585 31.1691 82.4783 28.146 82.2947 28.1919C82.0957 28.2378 82.6467 31.3069 83.1365 35.1107C83.634 38.9145 83.8789 42.0218 84.0856 42.0142V42.0218Z" fill="black"/>
<path d="M92.0822 48.825L79.9591 45.3657C79.8749 45.3427 79.7907 45.335 79.7141 45.3427C77.3951 41.493 73.1857 38.9061 68.364 38.9061C62.4707 38.9061 57.4654 42.7788 55.751 48.1056C53.6616 46.6591 51.488 47.1566 50.0185 47.9985C48.2735 42.7252 43.2987 38.8984 37.4437 38.8984C32.6067 38.8984 28.3743 41.5159 26.063 45.3963L14.0776 48.8174C13.7255 48.9169 13.5188 49.2843 13.626 49.6363C13.7102 49.9272 13.9704 50.1185 14.2613 50.1185C14.3225 50.1185 14.3837 50.1108 14.4449 50.0955L25.2288 47.0188C24.5629 48.6031 24.1879 50.3404 24.1879 52.162C24.1879 59.4711 30.1346 65.4179 37.4437 65.4179C44.7528 65.4179 50.6996 59.4711 50.6996 52.162C50.6996 51.19 50.5848 50.2486 50.3859 49.3378C51.3732 48.6873 53.386 47.8071 55.3836 49.4986C55.2075 50.3558 55.1157 51.2512 55.1157 52.162C55.1157 59.4711 61.0625 65.4179 68.3716 65.4179C75.6807 65.4179 81.6275 59.4711 81.6275 52.162C81.6275 50.2945 81.2372 48.5189 80.5331 46.904L91.7225 50.0955C91.7837 50.1108 91.8449 50.1185 91.9062 50.1185C92.197 50.1185 92.4572 49.9272 92.5414 49.6363C92.6409 49.2843 92.4419 48.9169 92.0899 48.8174L92.0822 48.825ZM37.4437 64.0862C30.8694 64.0862 25.5119 58.7364 25.5119 52.1543C25.5119 45.5723 30.8617 40.2225 37.4437 40.2225C42.8624 40.2225 47.4392 43.8579 48.8857 48.8097C48.8781 48.8174 48.8628 48.825 48.8552 48.8327L48.9011 48.8863C49.1996 49.9272 49.3679 51.0216 49.3679 52.1543C49.3679 58.7287 44.0181 64.0862 37.4361 64.0862H37.4437ZM68.3716 64.0862C61.7972 64.0862 56.4398 58.7364 56.4398 52.1543C56.4398 45.5723 61.7896 40.2225 68.3716 40.2225C74.9536 40.2225 80.3034 45.5723 80.3034 52.1543C80.3034 58.7364 74.9536 64.0862 68.3716 64.0862Z" fill="#FFCA05"/>
<g style="mix-blend-mode:overlay" opacity="0.21">
<path d="M75.4124 4.57283C67.6747 0.386357 58.6206 -0.654521 49.9721 0.378703C43.9028 1.09813 37.6576 1.93237 32.2466 5.04735C27.8841 7.5577 24.2104 11.5911 23.0011 16.4741C18.187 15.8924 17.2992 19.5967 16.7559 23.3852C15.3323 33.3424 16.2507 43.6287 19.4269 53.1727H20.0775C19.9933 52.5068 19.9321 51.841 19.8785 51.1828C19.4499 45.9631 19.0672 40.6974 19.6489 35.493C20.0775 31.7275 20.1234 23.3316 25.2972 23.2857C25.7181 18.0889 29.6673 13.6882 34.3513 11.3921C39.0352 9.09606 44.3697 8.57562 49.5741 8.36132C57.8323 8.02457 66.2435 8.39959 74.096 10.9865C79.308 12.7009 84.2675 15.4867 88.2014 19.2752C86.2268 13.1371 80.8158 7.49647 75.4124 4.58048V4.57283Z" fill="#FFCA05"/>
</g>
</svg>
