<svg width="106" height="155" viewBox="0 0 106 155" fill="none" xmlns="http://www.w3.org/2000/svg">
<path d="M87.8343 52.5021C90.4136 42.101 90.8651 31.677 88.8523 21.2301C87.5282 14.3496 81.5279 7.79061 75.5429 4.56086C67.8129 0.382074 58.7589 -0.658795 50.1105 0.366767C44.0413 1.08619 37.7961 1.92042 32.3851 5.03537C28.0226 7.5457 24.349 11.5791 23.1397 16.462C18.3257 15.8803 17.4379 19.5846 16.8945 23.373C15.471 33.3302 16.3894 43.6164 19.5656 53.1603" fill="#0C6F90"/>
<path d="M72.3446 106.374C68.227 104.683 65.4488 102.486 63.5737 100.366C61.1093 97.5881 59.8082 93.1414 59.8082 89.4295V78.707H46.1698V89.4295C46.1698 93.1414 44.861 97.5881 42.4043 100.366C40.5292 102.479 37.7433 104.683 33.6334 106.374C22.3828 110.989 0.203125 118.061 0.203125 135.419C0.203125 135.419 53.188 153.604 105.782 135.419C105.782 118.061 83.6028 110.982 72.3522 106.374H72.3446Z" fill="#FFBDA7"/>
<path d="M105.767 135.427C105.767 118.069 83.5871 110.99 72.3366 106.382C68.219 104.691 65.4408 102.494 63.5657 100.374C62.3947 99.0579 61.4993 97.3588 60.864 95.5449C55.4684 96.6394 49.9655 97.1521 44.4627 97.0909C43.904 98.3078 43.2152 99.4405 42.3886 100.374C40.5135 102.487 37.7277 104.691 33.6178 106.382C22.3672 110.997 0.1875 118.069 0.1875 135.427C3.49951 138.5 5.63787 139.896 9.99951 142.5C29.9995 155 71.1959 164.032 105.767 135.427Z" fill="#0C6F90"/>
<path d="M22.9947 135.955C22.9334 130.973 22.6656 126.94 22.4053 126.947C22.1451 126.947 21.9768 130.988 22.038 135.971C22.0609 137.685 22.1069 139.285 22.1681 140.655C22.436 140.701 22.7038 140.746 22.9794 140.792C23.01 139.392 23.0176 137.739 22.9947 135.955Z" fill="black"/>
<path d="M83.9244 135.955C83.8631 130.973 83.5952 126.94 83.335 126.947C83.0748 126.947 82.9064 130.988 82.9677 135.971C82.9906 137.915 83.0442 139.713 83.1207 141.19C83.3809 141.144 83.6412 141.106 83.9014 141.06C83.9397 139.606 83.9473 137.853 83.9244 135.963V135.955Z" fill="black"/>
<path d="M61.9583 91.7646H44.2558C42.0494 91.7646 40.2607 93.5533 40.2607 95.7597V98.6527C40.2607 100.859 42.0494 102.648 44.2558 102.648H61.9583C64.1647 102.648 65.9534 100.859 65.9534 98.6527V95.7597C65.9534 93.5533 64.1647 91.7646 61.9583 91.7646Z" fill="#0D617D"/>
<path d="M42.8933 92.1094C42.7402 92.1783 42.6024 92.2624 42.457 92.3466C42.4647 93.6018 42.48 94.9718 42.503 96.4106C42.5336 98.523 42.5795 100.49 42.6331 102.166C42.7632 102.235 42.9009 102.304 43.0387 102.357C43.0387 100.643 43.0157 98.5995 42.9851 96.4106C42.9622 94.8876 42.9315 93.4411 42.9009 92.117L42.8933 92.1094Z" fill="black"/>
<path d="M47.1246 96.4026C47.1017 94.7418 47.0634 93.1805 47.0251 91.7646H46.5889C46.5965 93.1729 46.6118 94.7418 46.6424 96.4103C46.6807 98.7293 46.7266 100.88 46.7879 102.648H47.1782C47.1782 100.872 47.1552 98.7216 47.117 96.4026H47.1246Z" fill="black"/>
<path d="M51.273 96.4026C51.2501 94.7418 51.2118 93.1805 51.1735 91.7646H50.7373C50.745 93.1729 50.7603 94.7418 50.7909 96.4103C50.8291 98.7293 50.8751 100.88 50.9363 102.648H51.3266C51.3266 100.872 51.3037 98.7216 51.2654 96.4026H51.273Z" fill="black"/>
<path d="M55.4137 96.4026C55.3907 94.7418 55.3524 93.1805 55.3142 91.7646H54.8779C54.8856 93.1729 54.9009 94.7418 54.9315 96.4103C54.9698 98.7293 55.0157 100.88 55.0769 102.648H55.4672C55.4672 100.872 55.4443 98.7216 55.406 96.4026H55.4137Z" fill="black"/>
<path d="M59.5621 96.4026C59.5392 94.7418 59.5009 93.1805 59.4626 91.7646H59.0264C59.034 93.1729 59.0493 94.7418 59.0799 96.4103C59.1182 98.7293 59.1641 100.88 59.2254 102.648H59.6157C59.6157 100.872 59.5927 98.7216 59.5545 96.4026H59.5621Z" fill="black"/>
<path d="M63.6265 92.2768C63.4811 92.2003 63.3357 92.1237 63.1826 92.0625C63.1903 93.3942 63.2056 94.8637 63.2362 96.402C63.2745 98.5679 63.3204 100.573 63.3663 102.272C63.5041 102.211 63.6342 102.127 63.7719 102.05C63.7719 100.397 63.749 98.4608 63.7184 96.3867C63.6954 94.9249 63.6648 93.5396 63.6342 92.2615L63.6265 92.2768Z" fill="black"/>
<g style="mix-blend-mode:multiply" opacity="0.35">
<path d="M59.8005 89.4373V78.7148H55.3768C53.8384 78.7914 52.3001 78.7914 50.7617 78.7148H46.162V89.4373C46.162 90.1108 46.1008 90.8073 46.0166 91.5114C46.8891 91.6186 47.7846 91.6492 48.6494 91.6415C52.4072 91.6033 56.1345 91.1134 59.8387 90.4705C59.8158 90.1261 59.7928 89.7741 59.7928 89.445L59.8005 89.4373Z" fill="#FFBDA7"/>
</g>
<path d="M92.259 62.6098C95.3802 57.5325 95.105 51.692 91.6446 49.5648C88.1841 47.4376 82.8486 49.829 79.7275 54.9063C76.6064 59.9836 76.8815 65.8241 80.3419 67.9513C83.8024 70.0786 89.1379 67.6871 92.259 62.6098Z" fill="#FFBDA7"/>
<g style="mix-blend-mode:multiply" opacity="0.36">
<path d="M82.5146 66.5228C83.1882 64.089 84.0377 61.7011 85.0632 59.3898C85.377 58.6857 85.7061 57.9892 86.1653 57.3769C86.6858 56.6805 87.3593 56.1141 88.0175 55.5477C88.8594 54.836 89.7242 54.1089 90.7574 53.7492C91.163 53.6038 91.6299 53.5272 92.0202 53.7186C92.4335 53.9252 92.6478 54.3844 92.7779 54.8207C93.3443 56.7646 92.6861 58.5785 91.9513 60.3618C91.1477 62.2981 89.4104 64.0431 87.8185 65.3748C86.4791 66.4922 84.8489 67.8774 82.9815 67.0356" fill="#FFBDA7"/>
</g>
<path d="M87.0373 58.9678C86.3562 59.0367 85.7592 59.251 85.2847 59.4883C85.3995 59.274 85.5066 59.052 85.6291 58.8377C86.7541 56.8784 88.2236 55.4243 89.4405 54.5977C90.6344 53.7099 91.5605 53.6334 91.5605 53.5186C91.5605 53.465 91.3156 53.3885 90.8717 53.442C90.4278 53.488 89.8002 53.6946 89.119 54.0849C87.7414 54.8273 86.0806 56.3427 84.8867 58.4091C83.6774 60.4756 83.18 62.5879 82.9044 64.0803C82.6366 65.5881 82.583 66.5294 82.583 66.5294L83.3254 64.1798C83.6928 63.0777 84.1979 61.6542 84.925 60.1771H84.9632C85.5296 60.0317 86.2949 59.9015 87.1292 59.8174C88.8129 59.6337 90.1905 60.0087 90.2824 59.7714C90.3895 59.5724 88.9736 58.7612 87.045 58.9678H87.0373Z" fill="#F98D61"/>
<path d="M25.625 67.9264C29.0855 65.7992 29.3606 59.9588 26.2395 54.8814C23.1184 49.8041 17.7829 47.4126 14.3224 49.5399C10.8619 51.6671 10.5868 57.5076 13.708 62.5849C16.8291 67.6622 22.1645 70.0537 25.625 67.9264Z" fill="#FFBDA7"/>
<g style="mix-blend-mode:multiply" opacity="0.36">
<path d="M23.4388 66.5228C22.7653 64.089 21.9158 61.7011 20.8902 59.3898C20.5764 58.6857 20.2473 57.9892 19.7881 57.3769C19.2677 56.6805 18.5942 56.1141 17.936 55.5477C17.0941 54.836 16.2293 54.1089 15.1961 53.7492C14.7904 53.6038 14.3236 53.5272 13.9332 53.7186C13.5199 53.9252 13.3057 54.3844 13.1756 54.8207C12.6092 56.7646 13.2674 58.5785 14.0021 60.3618C14.8057 62.2981 16.5431 64.0431 18.135 65.3748C19.4743 66.4922 21.1045 67.8774 22.972 67.0356" fill="#FFBDA7"/>
</g>
<path d="M18.9236 58.9688C19.6047 59.0377 20.2017 59.252 20.6762 59.4892C20.5614 59.2749 20.4543 59.053 20.3318 58.8387C19.2068 56.8794 17.7373 55.4253 16.5204 54.5987C15.3265 53.7109 14.4004 53.6343 14.4004 53.5195C14.4004 53.466 14.6453 53.3894 15.0892 53.443C15.5331 53.4889 16.1607 53.6956 16.8418 54.0859C18.2195 54.8283 19.8803 56.3437 21.0742 58.4101C22.2834 60.4765 22.7809 62.5889 23.0564 64.0813C23.3243 65.589 23.3779 66.5304 23.3779 66.5304L22.6355 64.1808C22.2681 63.0787 21.763 61.6552 21.0359 60.178H20.9977C20.4313 60.0326 19.666 59.9025 18.8317 59.8183C17.148 59.6347 15.7704 60.0097 15.6785 59.7724C15.5714 59.5734 16.9873 58.7622 18.9159 58.9688H18.9236Z" fill="#F98D61"/>
<path d="M52.9804 86.8817C36.3724 86.8817 22.8181 73.6948 22.4737 57.2016L22.0375 36.4072C21.7084 20.6181 34.4973 7.64551 50.3935 7.64551H55.5749C71.4711 7.64551 84.26 20.6181 83.9309 36.4072L83.4947 57.2016C83.1503 73.6948 69.5883 86.8817 52.988 86.8817H52.9804Z" fill="#FFBDA7"/>
<g style="mix-blend-mode:multiply" opacity="0.35">
<path d="M81.3682 27.2763C77.044 19.156 67.4465 15.092 58.27 14.4032C49.0936 13.7144 39.963 15.7502 30.8095 16.7145C30.1053 16.7911 29.3859 16.8599 28.6742 16.9518C28.9803 19.3473 27.4266 21.4214 25.1536 22.225C25.0694 22.2556 25.0082 22.2786 24.9546 22.2939C24.8934 22.3322 24.8245 22.3704 24.725 22.424C24.4571 22.5694 24.1892 22.7225 23.929 22.8832C23.531 23.1358 23.1407 23.3883 22.758 23.6639C22.5973 23.7863 22.5055 23.8475 22.4442 23.8935C22.2835 24.0236 22.1304 24.169 21.9697 24.3067L23.5157 26.4038C29.1869 34.792 40.1696 38.259 50.2722 37.6084C51.5809 37.5243 53.257 36.9885 53.2494 35.6798C56.5786 36.6824 60.3212 36.1925 63.2831 34.3787C63.7346 34.1032 64.1861 33.7894 64.7066 33.7052C65.2041 33.621 65.7092 33.7588 66.199 33.8812C69.2834 34.6542 72.4748 35.0139 75.651 34.9527C78.2838 34.9068 81.4676 34.1261 82.21 31.6005C82.631 30.1616 82.0723 28.6233 81.3682 27.2992V27.2763Z" fill="#FFBDA7"/>
</g>
<g style="mix-blend-mode:multiply" opacity="0.2">
<path d="M52.7443 52.0966C52.1703 53.8263 51.2901 55.4488 50.8692 57.2168C50.4482 58.9847 50.5554 61.0282 51.7646 62.3905C52.0402 62.7043 52.3846 62.9722 52.7749 63.1099C53.6627 63.4084 54.6117 62.9568 55.423 62.4823C55.6296 62.3675 55.8363 62.2374 55.9587 62.0308C56.1194 61.7629 56.0812 61.4185 56.0353 61.1047C55.6679 58.5714 55.1322 56.0075 53.877 53.7727C53.4254 52.9691 52.8667 52.1731 52.8132 51.2471" fill="#FFBDA7"/>
</g>
<path d="M27.6401 37.8612C27.8161 31.6619 26.4079 25.5085 24.3262 19.7148C22.3439 21.567 20.9586 24.0314 19.979 26.6259C18.1804 31.3634 17.6906 36.4912 17.9815 41.5272C18.1804 45.0095 17.8207 50.9103 20.1627 53.7497C22.5123 56.6045 24.9537 50.0149 25.6043 48.3311C26.8977 45.0018 27.5483 41.4277 27.6478 37.8612H27.6401Z" fill="#0C6F90"/>
<path d="M84.7427 21.9189C82.2707 27.1922 81.0614 33.0318 81.115 38.8484C81.1379 41.7108 81.4671 44.5655 82.1023 47.359C82.5232 49.2188 82.661 51.9817 83.9468 53.4818C85.2326 54.9818 85.3703 53.5736 85.7453 52.1501C86.2581 50.2214 86.6178 48.2545 86.8627 46.2722C87.8347 38.2284 86.7939 30.0852 85.2861 22.1792" fill="#0C6F90"/>
<path d="M52.5525 63.3468C52.6826 63.2397 51.7336 62.3825 51.305 60.5533C51.0984 59.6502 51.0754 58.5252 51.4658 57.3848C51.8408 56.2368 52.698 55.0352 53.1112 53.4892C53.5551 51.9815 53.5858 50.4661 53.4021 49.1344C53.2107 47.8027 52.7974 46.647 52.3306 45.7516C51.3816 43.953 50.333 43.1953 50.2718 43.2718C50.1494 43.379 50.9836 44.2821 51.7183 46.0424C52.078 46.9149 52.3995 48.0093 52.5296 49.2492C52.6444 50.4814 52.5908 51.8667 52.1928 53.2366C51.8408 54.599 51.0295 55.7929 50.6315 57.1246C50.2182 58.4639 50.3407 59.765 50.6545 60.737C50.9683 61.7243 51.4581 62.4208 51.8408 62.8341C52.2311 63.2473 52.5143 63.4004 52.5525 63.3622V63.3468Z" fill="#F98D61"/>
<path d="M56.4403 61.4866C56.2719 61.28 55.874 61.3259 55.4913 61.5096C55.1163 61.7009 54.8331 61.9994 54.902 62.252C54.9708 62.5045 55.4454 62.604 55.9199 62.3591C56.3944 62.1218 56.6087 61.6856 56.4403 61.479V61.4866Z" fill="#F98D61"/>
<path d="M47.8301 72.171C49.1785 72.171 50.2716 71.0779 50.2716 69.7295C50.2716 68.3812 49.1785 67.2881 47.8301 67.2881C46.4817 67.2881 45.3887 68.3812 45.3887 69.7295C45.3887 71.0779 46.4817 72.171 47.8301 72.171Z" fill="#F98D61"/>
<path d="M40.8576 57.5687C42.5399 57.5687 43.9037 56.2049 43.9037 54.5226C43.9037 52.8403 42.5399 51.4766 40.8576 51.4766C39.1753 51.4766 37.8115 52.8403 37.8115 54.5226C37.8115 56.2049 39.1753 57.5687 40.8576 57.5687Z" fill="#F98D61"/>
<path d="M64.2853 57.5687C65.9676 57.5687 67.3314 56.2049 67.3314 54.5226C67.3314 52.8403 65.9676 51.4766 64.2853 51.4766C62.603 51.4766 61.2393 52.8403 61.2393 54.5226C61.2393 56.2049 62.603 57.5687 64.2853 57.5687Z" fill="#F98D61"/>
<path d="M44.6927 38.382C44.7692 38.2213 43.9503 37.5707 42.3507 37.0962C40.7741 36.614 38.3556 36.4227 35.8835 37.211C33.4115 38.007 31.567 39.5683 30.5567 40.877C29.5312 42.2011 29.248 43.2037 29.4011 43.2879C29.5848 43.395 30.1741 42.599 31.2991 41.5658C32.4089 40.525 34.1386 39.2774 36.3121 38.5733C38.4857 37.8769 40.621 37.8845 42.1288 38.0835C43.6441 38.2748 44.5855 38.5733 44.6773 38.382H44.6927Z" fill="#F98D61"/>
<path d="M61.6609 38.381C61.7527 38.58 62.6941 38.2739 64.2095 38.0826C65.7172 37.8836 67.8525 37.8759 70.0261 38.5724C72.1997 39.2688 73.9293 40.524 75.0391 41.5649C76.1641 42.6057 76.7535 43.4017 76.9371 43.2869C77.0979 43.2027 76.807 42.2001 75.7815 40.8761C74.7789 39.5673 72.9267 37.9984 70.4547 37.2101C67.9826 36.4141 65.5718 36.6131 63.9875 37.0953C62.3879 37.5698 61.569 38.228 61.6455 38.381H61.6609Z" fill="#F98D61"/>
<path d="M54.9326 3.8877C55.2464 10.2554 56.9838 16.669 60.7187 21.835C62.1881 23.8709 63.9484 25.6847 65.7011 27.4909C66.9945 28.8303 68.3109 30.1773 69.9105 31.1263C74.3877 33.7744 80.0436 32.7795 85.1561 33.7438C85.8296 32.2055 85.2173 30.4299 84.5591 28.8839C82.0641 23.006 78.8267 17.3501 74.2882 12.8575C69.7497 8.36496 63.803 5.10459 57.443 4.58416C55.1087 4.39282 52.7208 4.58416 50.5166 5.37246" fill="#0C6F90"/>
<path d="M50.3638 27.8966C55.6753 30.3457 63.5889 33.9275 69.2525 30.4376C68.3877 29.7105 67.3851 29.0905 66.5508 28.3099C63.3976 25.3557 63.0226 21.4371 63.6042 17.3578C64.0405 14.3194 65.7472 10.3166 64.6987 7.27056C63.2292 2.99228 56.3182 4.00254 52.92 4.26276C46.1238 4.79084 39.4347 6.8037 33.5032 10.1789C29.8832 12.2376 23.8293 16.4317 24.6711 21.2151C25.513 25.9985 29.7377 30.162 33.6104 32.4198C38.3326 35.1674 44.0497 35.994 49.4454 35.1674C46.4299 35.2133 43.4145 33.9964 41.2868 31.8534C46.9044 34.1189 53.2797 34.448 59.104 32.7642C55.8054 32.0218 52.7363 30.3074 50.3714 27.889L50.3638 27.8966Z" fill="#0C6F90"/>
<path d="M25.6736 24.0006C25.842 23.8781 24.9312 22.4623 24.273 20.5259C23.5995 18.5973 23.4465 16.9212 23.2322 16.9288C23.0485 16.9135 22.8801 18.7044 23.5919 20.7632C24.296 22.822 25.5282 24.1231 25.666 24.0006H25.6736Z" fill="black"/>
<path d="M18.4951 32.3734C18.7094 32.3734 18.5869 29.0059 19.4747 25.0185C19.8957 23.0286 20.5539 21.3065 21.2733 20.2044C21.9774 19.087 22.628 18.5513 22.5514 18.4595C22.5132 18.3906 21.7172 18.8039 20.86 19.9136C19.9875 21.0081 19.2069 22.8143 18.7706 24.8654C17.8675 28.9753 18.3191 32.404 18.4951 32.3734Z" fill="black"/>
<path d="M22.8186 49.1418C22.9411 49.1036 22.4742 47.5729 22.1069 45.0319C21.9079 43.7691 21.7931 42.2461 21.7318 40.5547C21.7012 38.8633 21.7471 36.9958 21.9079 35.0442C22.2446 31.1409 22.8722 27.6357 23.3085 25.0871C23.7524 22.5461 24.0126 20.9695 23.9131 20.9465C23.8212 20.9236 23.385 22.4696 22.811 24.9876C22.2446 27.5132 21.5329 31.0261 21.1961 34.983C21.0354 36.9576 21.0048 38.8556 21.0736 40.5776C21.1731 42.2997 21.3415 43.8457 21.6094 45.1161C21.7165 45.759 21.8773 46.3254 21.9997 46.8305C22.1222 47.3356 22.2523 47.7566 22.3824 48.101C22.6197 48.7898 22.7727 49.1572 22.8186 49.1418Z" fill="black"/>
<path d="M25.3208 43.3024C25.5121 43.3101 25.8029 40.463 25.7417 36.9424C25.6805 33.4142 25.2902 30.5824 25.0988 30.5977C24.8998 30.613 24.9687 33.4525 25.0299 36.9577C25.0912 40.4554 25.1218 43.3024 25.3284 43.3101L25.3208 43.3024Z" fill="black"/>
<path d="M59.0966 4.54514C59.1043 4.49922 58.5838 4.37677 57.6195 4.19308C57.1373 4.09359 56.548 3.99409 55.8592 3.94052C55.1704 3.87929 54.3821 3.77214 53.5019 3.7798L52.1243 3.75684C51.6422 3.75684 51.1523 3.80276 50.6319 3.81806C49.5987 3.84102 48.5042 4.00175 47.3562 4.14716C45.0678 4.51453 42.5728 5.1115 40.0548 6.03756C37.5522 6.99425 35.2791 8.18053 33.3121 9.40508C32.3478 10.0556 31.4217 10.6526 30.6258 11.3108C30.2201 11.6322 29.8222 11.9231 29.4625 12.2445L28.4445 13.1706C27.7787 13.7446 27.2583 14.3416 26.7761 14.839C26.2863 15.3365 25.9113 15.7957 25.6128 16.186C25.0082 16.9514 24.6944 17.3876 24.7326 17.4182C24.8398 17.5101 26.1791 15.811 28.789 13.5456L29.8222 12.6731C30.1819 12.3746 30.5875 12.0991 30.9931 11.7853C31.7891 11.1577 32.7152 10.5914 33.6719 9.96378C35.6235 8.78515 37.8583 7.64479 40.3227 6.71107C42.7948 5.80031 45.2286 5.19568 47.471 4.79771C48.5961 4.63698 49.6676 4.46095 50.6855 4.40738C51.1906 4.37677 51.6804 4.31554 52.1473 4.30023L53.5019 4.27727C56.9613 4.27727 59.0813 4.67525 59.1043 4.53749L59.0966 4.54514Z" fill="black"/>
<path d="M86.2514 22.8987C86.2514 22.8987 86.1978 22.6767 86.0371 22.2787C85.9529 22.0797 85.8535 21.8272 85.7234 21.544L85.2106 20.5797C84.4146 19.1408 83.0293 17.1586 80.8251 15.184C78.6286 13.217 75.6285 11.2654 71.9395 9.93371C68.2582 8.59436 63.9493 7.95147 59.4567 8.00504C54.9565 8.07392 50.7165 8.77039 46.9357 9.63523C43.1549 10.5001 39.8103 11.5562 37.0857 12.6507C34.361 13.7451 32.2564 14.8778 30.8558 15.7197C30.1593 16.1483 29.6236 16.4927 29.2715 16.7529C28.9195 17.0055 28.7434 17.1433 28.7587 17.1662C28.7893 17.2121 29.5623 16.7376 30.9935 15.9646C32.4324 15.1993 34.5447 14.1431 37.2694 13.1252C39.994 12.0996 43.3156 11.097 47.0811 10.2781C50.8389 9.4592 55.033 8.7857 59.4644 8.72447C63.8881 8.67855 68.1128 9.29082 71.7175 10.5613C75.33 11.8241 78.2918 13.6916 80.4884 15.5667C82.6926 17.4494 84.1085 19.3551 84.9656 20.7251L85.5244 21.6511L85.8994 22.3476C86.106 22.7226 86.2208 22.9216 86.2438 22.9063L86.2514 22.8987Z" fill="black"/>
<path d="M42.4048 32.9929C42.489 32.8016 38.0423 31.202 33.6645 27.4901C31.4833 25.6533 29.6848 23.7782 28.6133 22.2628C27.5265 20.7474 27.1362 19.6453 27.0213 19.6836C26.9448 19.6989 27.1744 20.9005 28.1847 22.5383C29.1873 24.1838 30.9705 26.1584 33.1977 28.0335C35.4325 29.9009 37.7362 31.2403 39.4735 32.0133C41.2108 32.8016 42.3665 33.0695 42.3971 32.9853L42.4048 32.9929Z" fill="black"/>
<path d="M80.3117 23.9083C80.3117 23.9083 79.8066 23.4185 78.7734 22.6914C77.7478 21.9644 76.1865 21 74.1507 20.0051C70.1097 17.9999 64.0099 16.1248 57.0988 15.8416C50.1877 15.5508 43.9808 16.76 39.6566 17.9846C37.4907 18.5968 35.761 19.1938 34.59 19.653C33.419 20.1046 32.7838 20.4031 32.7991 20.4413C32.8144 20.4872 33.4802 20.2883 34.6818 19.9132C35.8758 19.5382 37.6131 19.0178 39.7867 18.4744C44.1109 17.3799 50.2566 16.2702 57.0682 16.5534C63.8797 16.8365 69.8954 18.6045 73.9364 20.4643C78.008 22.3088 80.2275 24.0231 80.3041 23.9007L80.3117 23.9083Z" fill="black"/>
<path d="M72.6655 26.7706C72.6808 26.7246 72.2139 26.5563 71.3567 26.2961C70.4995 26.0511 69.252 25.7067 67.6831 25.37C64.5605 24.6888 60.1827 23.9771 55.2921 23.7551C50.4016 23.4872 45.9932 23.9388 42.8323 23.8393C39.6638 23.7934 37.7428 23.2959 37.7198 23.4107C37.7122 23.449 38.1714 23.6403 39.0515 23.8393C39.924 24.0459 41.2174 24.2526 42.817 24.3444C46.0315 24.574 50.4322 24.199 55.2615 24.4669C60.1062 24.6812 64.4533 25.3088 67.5836 25.8598C70.7138 26.4109 72.6348 26.8701 72.6655 26.7629V26.7706Z" fill="black"/>
<path d="M87.5139 44.757C87.6058 44.757 87.7359 43.6319 87.8047 41.8027C87.8736 39.9736 87.8736 37.4403 87.7129 34.6544C87.5522 31.8686 87.2766 29.3506 87.0011 27.5444C86.7256 25.7382 86.473 24.6284 86.3812 24.6437C86.1746 24.6743 86.695 29.1516 87.0011 34.7003C87.3226 40.2414 87.3073 44.757 87.5139 44.7646V44.757Z" fill="black"/>
<path d="M84.2223 42.0168C84.4136 42.0168 84.4902 38.8636 83.985 35.0139C83.4952 31.1642 82.6151 28.1411 82.4314 28.187C82.2324 28.233 82.7834 31.302 83.2733 35.1058C83.7707 38.9095 84.0156 42.0168 84.2223 42.0092V42.0168Z" fill="black"/>
<path d="M92.2202 48.8211L80.0971 45.3617C80.0129 45.3387 79.9288 45.3311 79.8522 45.3387C77.5332 41.4891 73.3238 38.9022 68.5022 38.9022C62.609 38.9022 57.6036 42.7748 55.8893 48.1016C53.7999 46.6551 51.6263 47.1526 50.1568 47.9945C48.4118 42.7213 43.4371 38.8945 37.5822 38.8945C32.7452 38.8945 28.5129 41.512 26.2015 45.3923L14.2162 48.8134C13.8642 48.9129 13.6575 49.2803 13.7647 49.6323C13.8489 49.9232 14.1091 50.1145 14.3999 50.1145C14.4611 50.1145 14.5224 50.1068 14.5836 50.0915L25.3673 47.0148C24.7015 48.5991 24.3264 50.3364 24.3264 52.158C24.3264 59.467 30.2732 65.4137 37.5822 65.4137C44.8913 65.4137 50.838 59.467 50.838 52.158C50.838 51.186 50.7232 50.2446 50.5242 49.3338C51.5115 48.6833 53.5244 47.8031 55.5219 49.4946C55.3459 50.3517 55.254 51.2472 55.254 52.158C55.254 59.467 61.2008 65.4137 68.5098 65.4137C75.8188 65.4137 81.7656 59.467 81.7656 52.158C81.7656 50.2905 81.3753 48.5149 80.6711 46.9L91.8605 50.0915C91.9217 50.1068 91.9829 50.1145 92.0442 50.1145C92.335 50.1145 92.5952 49.9232 92.6794 49.6323C92.7789 49.2803 92.5799 48.9129 92.2279 48.8134L92.2202 48.8211ZM37.5822 64.082C31.0079 64.082 25.6505 58.7323 25.6505 52.1503C25.6505 45.5683 31.0002 40.2186 37.5822 40.2186C43.0009 40.2186 47.5776 43.854 49.0241 48.8057C49.0165 48.8134 49.0012 48.8211 48.9935 48.8287L49.0394 48.8823C49.3379 49.9232 49.5063 51.0176 49.5063 52.1503C49.5063 58.7246 44.1565 64.082 37.5746 64.082H37.5822ZM68.5098 64.082C61.9355 64.082 56.5781 58.7323 56.5781 52.1503C56.5781 45.5683 61.9278 40.2186 68.5098 40.2186C75.0918 40.2186 80.4415 45.5683 80.4415 52.1503C80.4415 58.7323 75.0918 64.082 68.5098 64.082Z" fill="#FFCA05"/>
<g style="mix-blend-mode:overlay" opacity="0.21">
<path d="M75.5505 4.56841C67.8129 0.381976 58.7589 -0.658893 50.1105 0.366669C44.0413 1.08609 37.7961 1.92032 32.3851 5.03527C28.0226 7.5456 24.349 11.579 23.1397 16.4619C18.3257 15.8802 17.4379 19.5845 16.8945 23.3729C15.471 33.3301 16.3894 43.6163 19.5656 53.1602H20.2161C20.1319 52.4943 20.0707 51.8285 20.0171 51.1703C19.5885 45.9506 19.2059 40.685 19.7875 35.4807C20.2161 31.7152 20.262 23.3194 25.4358 23.2734C25.8567 18.0767 29.8059 13.676 34.4898 11.38C39.1737 9.08395 44.5081 8.56351 49.7125 8.34922C57.9706 8.01246 66.3817 8.38748 74.2342 10.9743C79.4462 12.6887 84.4056 15.4746 88.3395 19.263C86.3649 13.125 80.9539 7.48438 75.5505 4.56841Z" fill="#FFCA05"/>
</g>
</svg>
