<svg width="104" height="155" viewBox="0 0 104 155" fill="none" xmlns="http://www.w3.org/2000/svg">
<path d="M85.7399 52.6868C88.237 42.25 88.6742 31.7901 86.7254 21.3072C85.4435 14.4031 79.6342 7.82154 73.8397 4.58068C66.3483 0.37984 57.5825 -0.664606 49.2093 0.372164C43.3333 1.09406 37.2869 1.93116 32.0481 5.05683C27.8245 7.5758 24.2677 11.623 23.097 16.5227C18.4362 15.9391 17.5766 19.6561 17.0505 23.4576C15.6723 33.4489 16.5615 43.7706 19.6366 53.3473" fill="#0C6F90"/>
<path d="M70.7438 106.746C66.7573 105.049 64.0675 102.844 62.2521 100.717C59.8661 97.9294 58.6064 93.4674 58.6064 89.7427V78.9834H45.402V89.7427C45.402 93.4674 44.135 97.9294 41.7564 100.717C39.941 102.837 37.2438 105.049 33.2647 106.746C22.3722 111.377 0.898438 118.473 0.898438 135.89C0.898438 135.89 52.1969 154.138 103.117 135.89C103.117 118.473 81.6437 111.369 70.7512 106.746H70.7438Z" fill="#FFBDA7"/>
<path d="M103.102 135.889C103.102 118.472 81.628 111.368 70.7355 106.745C66.749 105.047 64.0592 102.843 62.2438 100.716C61.1101 99.3951 60.2432 97.6902 59.6282 95.8701C54.4042 96.9683 49.0765 97.4829 43.7488 97.4214C43.2079 98.6425 42.541 99.7791 41.7408 100.716C39.9254 102.836 37.2282 105.047 33.2491 106.745C22.3566 111.376 0.882812 118.472 0.882812 135.889C7.75763 146.961 62.6531 171.001 103.102 135.889Z" fill="#0C6F90"/>
<path d="M22.9648 136.428C22.9055 131.428 22.6462 127.381 22.3942 127.389C22.1423 127.389 21.9793 131.444 22.0386 136.443C22.0608 138.163 22.1052 139.768 22.1645 141.143C22.4239 141.189 22.6832 141.235 22.95 141.281C22.9796 139.876 22.987 138.217 22.9648 136.428Z" fill="black"/>
<path d="M81.9541 136.428C81.8948 131.428 81.6354 127.381 81.3835 127.389C81.1315 127.389 80.9685 131.444 81.0278 136.443C81.05 138.394 81.1019 140.199 81.176 141.681C81.4279 141.635 81.6799 141.596 81.9318 141.55C81.9689 140.091 81.9763 138.332 81.9541 136.435V136.428Z" fill="black"/>
<path d="M60.6866 92.083H43.5476C41.4114 92.083 39.6797 93.8778 39.6797 96.0919V98.9948C39.6797 101.209 41.4114 103.004 43.5476 103.004H60.6866C62.8228 103.004 64.5546 101.209 64.5546 98.9948V96.0919C64.5546 93.8778 62.8228 92.083 60.6866 92.083Z" fill="#0D617D"/>
<path d="M42.23 92.4287C42.0818 92.4978 41.9484 92.5823 41.8076 92.6668C41.815 93.9263 41.8298 95.3009 41.8521 96.7447C41.8817 98.8644 41.9262 100.838 41.978 102.52C42.104 102.589 42.2374 102.658 42.3708 102.712C42.3708 100.992 42.3485 98.9412 42.3189 96.7447C42.2967 95.2165 42.267 93.765 42.2374 92.4364L42.23 92.4287Z" fill="black"/>
<path d="M46.3273 96.7369C46.3051 95.0704 46.268 93.5038 46.231 92.083H45.8086C45.816 93.4961 45.8308 95.0704 45.8605 96.7446C45.8975 99.0716 45.942 101.23 46.0013 103.004H46.3792C46.3792 101.222 46.3569 99.0639 46.3199 96.7369H46.3273Z" fill="black"/>
<path d="M50.3439 96.7369C50.3217 95.0704 50.2846 93.5038 50.2476 92.083H49.8252C49.8326 93.4961 49.8474 95.0704 49.8771 96.7446C49.9141 99.0716 49.9586 101.23 50.0178 103.004H50.3957C50.3957 101.222 50.3735 99.0639 50.3365 96.7369H50.3439Z" fill="black"/>
<path d="M54.3527 96.7369C54.3305 95.0704 54.2934 93.5038 54.2564 92.083H53.834C53.8414 93.4961 53.8562 95.0704 53.8859 96.7446C53.9229 99.0716 53.9674 101.23 54.0266 103.004H54.4045C54.4045 101.222 54.3823 99.0639 54.3453 96.7369H54.3527Z" fill="black"/>
<path d="M58.3683 96.7369C58.3461 95.0704 58.309 93.5038 58.272 92.083H57.8496C57.857 93.4961 57.8718 95.0704 57.9015 96.7446C57.9385 99.0716 57.983 101.23 58.0423 103.004H58.4202C58.4202 101.222 58.3979 99.0639 58.3609 96.7369H58.3683Z" fill="black"/>
<path d="M62.3028 92.5978C62.162 92.521 62.0212 92.4443 61.873 92.3828C61.8805 93.7191 61.8953 95.1936 61.9249 96.7373C61.962 98.9106 62.0064 100.923 62.0509 102.628C62.1843 102.566 62.3102 102.482 62.4436 102.405C62.4436 100.746 62.4214 98.8031 62.3917 96.7219C62.3695 95.255 62.3399 93.865 62.3102 92.5825L62.3028 92.5978Z" fill="black"/>
<g style="mix-blend-mode:multiply" opacity="0.35">
<path d="M58.5981 89.7427V78.9834H54.3152C52.8258 79.0602 51.3364 79.0602 49.8471 78.9834H45.3937V89.7427C45.3937 90.4186 45.3344 91.1174 45.2529 91.824C46.0977 91.9315 46.9646 91.9622 47.8019 91.9545C51.4402 91.9161 55.0488 91.4246 58.6351 90.7795C58.6129 90.4339 58.5907 90.0807 58.5907 89.7504L58.5981 89.7427Z" fill="#FFBDA7"/>
</g>
<path d="M90.0231 62.8419C93.0449 57.7472 92.7785 51.8867 89.4282 49.7521C86.0778 47.6175 80.9122 50.0173 77.8904 55.112C74.8686 60.2068 75.1349 66.0673 78.4853 68.2019C81.8356 70.3364 87.0013 67.9367 90.0231 62.8419Z" fill="#FFBDA7"/>
<g style="mix-blend-mode:multiply" opacity="0.36">
<path d="M80.5908 66.7567C81.2429 64.3145 82.0654 61.9184 83.0583 59.5991C83.3621 58.8926 83.6807 58.1937 84.1253 57.5793C84.6292 56.8805 85.2813 56.3122 85.9185 55.7439C86.7336 55.0297 87.5709 54.3001 88.5712 53.9391C88.964 53.7932 89.4159 53.7164 89.7938 53.9084C90.194 54.1158 90.4015 54.5766 90.5274 55.0143C91.0758 56.965 90.4385 58.7851 89.7272 60.5745C88.9491 62.5175 87.2671 64.2684 85.7258 65.6047C84.4291 66.726 82.8508 68.116 81.0428 67.2712" fill="#FFBDA7"/>
</g>
<path d="M84.9707 59.1773C84.3113 59.2464 83.7333 59.4615 83.2739 59.6995C83.385 59.4845 83.4888 59.2618 83.6073 59.0468C84.6966 57.0807 86.1193 55.6216 87.2974 54.7922C88.4534 53.9013 89.35 53.8245 89.35 53.7093C89.35 53.6556 89.1128 53.5788 88.6831 53.6325C88.2533 53.6786 87.6457 53.886 86.9862 54.2776C85.6524 55.0226 84.0445 56.5432 82.8886 58.6167C81.7178 60.6902 81.2362 62.8099 80.9694 64.3074C80.7101 65.8203 80.6582 66.7649 80.6582 66.7649L81.377 64.4073C81.7326 63.3014 82.2217 61.8729 82.9256 60.3907H82.9627C83.511 60.2448 84.252 60.1142 85.0597 60.0298C86.6898 59.8455 88.0236 60.2218 88.1125 59.9837C88.2163 59.784 86.8454 58.97 84.9781 59.1773H84.9707Z" fill="#F98D61"/>
<path d="M25.5288 68.1561C28.8791 66.0216 29.1455 60.161 26.1237 55.0663C23.1019 49.9715 17.9362 47.5718 14.5859 49.7063C11.2355 51.8409 10.9692 57.7014 13.991 62.7962C17.0128 67.8909 22.1784 70.2907 25.5288 68.1561Z" fill="#FFBDA7"/>
<g style="mix-blend-mode:multiply" opacity="0.36">
<path d="M23.3925 66.7557C22.7404 64.3135 21.9179 61.9174 20.925 59.5982C20.6212 58.8916 20.3026 58.1927 19.858 57.5784C19.3541 56.8795 18.702 56.3112 18.0648 55.7429C17.2497 55.0287 16.4124 54.2991 15.4121 53.9382C15.0193 53.7922 14.5673 53.7154 14.1894 53.9074C13.7893 54.1148 13.5818 54.5756 13.4559 55.0133C12.9075 56.964 13.5448 58.7841 14.2561 60.5735C15.0342 62.5165 16.7162 64.2675 18.2574 65.6037C19.5542 66.725 21.1325 68.115 22.9405 67.2703" fill="#FFBDA7"/>
</g>
<path d="M19.0228 59.1763C19.6823 59.2455 20.2602 59.4605 20.7196 59.6986C20.6085 59.4835 20.5048 59.2608 20.3862 59.0458C19.2969 57.0798 17.8743 55.6206 16.6961 54.7912C15.5402 53.9003 14.6436 53.8235 14.6436 53.7084C14.6436 53.6546 14.8807 53.5778 15.3104 53.6315C15.7402 53.6776 16.3478 53.885 17.0073 54.2766C18.3411 55.0216 19.949 56.5422 21.105 58.6157C22.2757 60.6893 22.7573 62.8089 23.0241 64.3064C23.2834 65.8193 23.3353 66.764 23.3353 66.764L22.6166 64.4063C22.2609 63.3004 21.7718 61.8719 21.0679 60.3897H21.0309C20.4825 60.2438 19.7415 60.1133 18.9339 60.0288C17.3037 59.8445 15.9699 60.2208 15.881 59.9827C15.7773 59.783 17.1481 58.969 19.0154 59.1763H19.0228Z" fill="#F98D61"/>
<path d="M51.9953 87.1835C35.9159 87.1835 22.7931 73.9513 22.4596 57.4014L22.0373 36.5354C21.7186 20.692 34.1005 7.6748 49.4908 7.6748H54.5073C69.8975 7.6748 82.2794 20.692 81.9608 36.5354L81.5384 57.4014C81.205 73.9513 68.0747 87.1835 52.0027 87.1835H51.9953Z" fill="#FFBDA7"/>
<g style="mix-blend-mode:multiply" opacity="0.35">
<path d="M79.4786 27.3748C75.292 19.2265 66.0001 15.1486 57.1157 14.4574C48.2312 13.7662 39.3913 15.809 30.5291 16.7767C29.8474 16.8535 29.1509 16.9226 28.4617 17.0147C28.7581 19.4185 27.2539 21.4997 25.0532 22.3061C24.9717 22.3368 24.9124 22.3599 24.8606 22.3752C24.8013 22.4136 24.7346 22.452 24.6383 22.5058C24.3789 22.6517 24.1196 22.8053 23.8676 22.9666C23.4823 23.22 23.1044 23.4734 22.7339 23.7499C22.5783 23.8728 22.4894 23.9342 22.4301 23.9803C22.2745 24.1109 22.1263 24.2568 21.9707 24.395L23.4675 26.4993C28.9582 34.9163 39.5914 38.3952 49.3724 37.7425C50.6394 37.658 52.2622 37.1204 52.2548 35.8072C55.4781 36.8132 59.1015 36.3217 61.9691 34.5016C62.4063 34.2251 62.8435 33.9102 63.3473 33.8258C63.829 33.7413 64.318 33.8795 64.7923 34.0024C67.7784 34.7781 70.8684 35.139 73.9435 35.0776C76.4924 35.0315 79.5749 34.2481 80.2937 31.7138C80.7012 30.27 80.1603 28.7264 79.4786 27.3978V27.3748Z" fill="#FFBDA7"/>
</g>
<g style="mix-blend-mode:multiply" opacity="0.2">
<path d="M51.7654 52.2792C51.2096 54.0148 50.3575 55.6429 49.95 57.417C49.5424 59.191 49.6462 61.2415 50.8169 62.6085C51.0837 62.9234 51.4171 63.1922 51.795 63.3304C52.6545 63.6299 53.5734 63.1768 54.3588 62.7007C54.5589 62.5855 54.759 62.4549 54.8775 62.2476C55.0331 61.9788 54.9961 61.6332 54.9516 61.3183C54.5959 58.7763 54.0772 56.2036 52.862 53.9611C52.4248 53.1547 51.8839 52.356 51.8321 51.4268" fill="#FFBDA7"/>
</g>
<path d="M27.462 37.9958C27.6325 31.7752 26.2691 25.6007 24.2536 19.7871C22.3344 21.6456 20.9932 24.1185 20.0448 26.7219C18.3035 31.4757 17.8292 36.6212 18.1108 41.6745C18.3035 45.1688 17.9552 51.0899 20.2226 53.9391C22.4974 56.8036 24.8612 50.1913 25.491 48.5018C26.7433 45.1611 27.3731 41.5746 27.4694 37.9958H27.462Z" fill="#0C6F90"/>
<path d="M82.7464 21.999C80.353 27.2904 79.1822 33.1501 79.2341 38.9867C79.2563 41.8589 79.5749 44.7235 80.19 47.5266C80.5975 49.3928 80.7309 52.1652 81.9757 53.6704C83.2206 55.1756 83.354 53.7626 83.717 52.3341C84.2135 50.3988 84.5618 48.4251 84.7989 46.4361C85.7399 38.3646 84.7322 30.1933 83.2725 22.2601" fill="#0C6F90"/>
<path d="M45.2828 65.3669C45.3495 65.9736 45.5421 66.5649 45.7496 67.1409C46.298 68.6692 46.9871 70.1668 48.0022 71.4109C49.0174 72.655 50.3956 73.638 51.9443 73.9145C54.3525 74.3522 56.8199 73.0313 58.3834 71.0883C59.2652 69.9978 60.0136 68.6538 60.436 67.2945C60.5026 67.0795 60.7175 66.0888 60.9102 65.2363C55.7011 65.2363 50.5067 65.3746 45.2754 65.3669H45.2828Z" fill="#F98D61"/>
<path d="M74.4859 54.7075C74.4859 54.7075 68.7136 65.3901 58.6807 57.8639C59.9996 52.7261 64.075 42.4275 74.4859 54.7075Z" fill="#F5F5F5"/>
<path d="M29.6191 54.7075C29.6191 54.7075 35.3914 65.3901 45.4244 57.8639C44.1054 52.7261 40.03 42.4275 29.6191 54.7075Z" fill="#F5F5F5"/>
<path d="M74.4859 54.7073C71.5146 51.2053 69.0619 49.5465 67.039 49.0703C66.1128 52.7336 66.4759 56.7578 68.0468 60.1829C72.2111 58.9081 74.4859 54.7073 74.4859 54.7073Z" fill="black"/>
<path d="M45.4238 57.8632C44.6976 55.0293 43.1341 50.6442 40.1331 49.3232C39.2069 50.959 38.6363 52.8406 38.4807 54.7298C38.3177 56.6805 38.54 58.6311 39.0216 60.5281C40.9038 60.4052 43.0378 59.6525 45.4238 57.8708V57.8632Z" fill="black"/>
<g style="mix-blend-mode:multiply" opacity="0.09">
<path d="M45.3794 57.703C44.0234 52.5422 39.9628 42.6737 29.7891 54.5159C34.887 51.5131 41.63 53.0952 45.3794 57.703Z" fill="#0C6F90"/>
</g>
<path d="M51.5811 63.5692C51.7071 63.4617 50.7883 62.6016 50.3733 60.7661C50.1733 59.8599 50.151 58.731 50.5289 57.5867C50.892 56.4347 51.7219 55.229 52.122 53.6777C52.5518 52.1648 52.5815 50.6442 52.4036 49.3079C52.2184 47.9716 51.8182 46.812 51.3662 45.9134C50.4474 44.1087 49.4323 43.3484 49.373 43.4252C49.2544 43.5327 50.0621 44.4389 50.7735 46.2053C51.1217 47.0808 51.4329 48.179 51.5589 49.4231C51.67 50.6595 51.6182 52.0496 51.2329 53.4243C50.892 54.7913 50.1066 55.9893 49.7213 57.3256C49.3211 58.6695 49.4397 59.9751 49.7435 60.9504C50.0473 61.9411 50.5215 62.64 50.892 63.0547C51.2699 63.4694 51.5441 63.623 51.5811 63.5846V63.5692Z" fill="#F98D61"/>
<path d="M55.3451 61.7029C55.1821 61.4955 54.7968 61.5416 54.4263 61.7259C54.0632 61.9179 53.789 62.2174 53.8557 62.4709C53.9224 62.7243 54.3818 62.8241 54.8413 62.5784C55.3007 62.3403 55.5081 61.9026 55.3451 61.6952V61.7029Z" fill="#F98D61"/>
<g style="mix-blend-mode:multiply" opacity="0.09">
<path d="M58.7168 57.703C60.0728 52.5422 64.1334 42.6737 74.3071 54.5159C69.2091 51.5131 62.4662 53.0952 58.7168 57.703Z" fill="#0C6F90"/>
</g>
<path d="M45.4235 57.8629C45.5865 57.8321 45.6309 56.4805 45.053 54.3378C44.7418 53.278 44.2231 52.0032 43.2598 50.8358C42.7781 50.2522 42.1854 49.6993 41.4666 49.2692C40.7478 48.8314 39.9179 48.5396 39.0584 48.4167C37.3319 48.1633 35.6795 48.5626 34.3605 49.2308C33.0416 49.8989 32.0561 50.8205 31.3447 51.6422C29.9295 53.3318 29.4775 54.6297 29.6182 54.7141C29.7961 54.837 30.5519 53.7465 32.0338 52.3641C32.7822 51.6883 33.7307 50.951 34.8941 50.4365C36.0426 49.922 37.4505 49.6378 38.8583 49.8452C40.2662 50.0448 41.4444 50.7744 42.3039 51.7267C43.1709 52.6713 43.7266 53.7542 44.1267 54.6911C44.8974 56.6034 45.2086 57.9166 45.4235 57.8705V57.8629Z" fill="#F98D61"/>
<path d="M58.6801 57.8627C58.8875 57.9088 59.1988 56.5956 59.9768 54.6833C60.3769 53.7387 60.9327 52.6635 61.7996 51.7189C62.6518 50.7666 63.8299 50.0293 65.2452 49.8374C66.6531 49.63 68.0609 49.9218 69.2095 50.4287C70.3802 50.9432 71.3213 51.6805 72.0697 52.3563C73.5517 53.7387 74.3075 54.8292 74.4853 54.7063C74.6261 54.6218 74.1741 53.324 72.7588 51.6344C72.04 50.8127 71.0619 49.8911 69.743 49.223C68.424 48.5548 66.779 48.1555 65.0451 48.4089C64.1856 48.5395 63.3557 48.8313 62.6369 49.2614C61.9182 49.6914 61.3254 50.2444 60.8437 50.8281C59.8805 52.0031 59.3618 53.2702 59.0506 54.33C58.4726 56.4727 58.5171 57.8243 58.6801 57.855V57.8627Z" fill="#F98D61"/>
<path d="M45.409 41.4211C45.5572 41.2367 44.9051 40.3152 43.3564 39.5011C41.8374 38.6871 39.3329 38.0957 36.6875 38.8023C34.0422 39.5088 32.1231 41.2828 31.1746 42.7573C30.1965 44.2472 30.0557 45.3838 30.2706 45.4683C30.5226 45.5912 31.0783 44.7234 32.1749 43.6252C33.2568 42.5346 34.9759 41.2444 37.147 40.6607C39.3181 40.0848 41.4224 40.3536 42.8822 40.7683C44.3493 41.1753 45.2459 41.6591 45.409 41.4287V41.4211Z" fill="#F98D61"/>
<path d="M58.4795 40.9209C58.6425 41.1513 59.5391 40.6675 61.0062 40.2605C62.4586 39.8458 64.5704 39.577 66.7415 40.1529C68.9126 40.7366 70.6317 42.0268 71.7135 43.1173C72.8102 44.2079 73.3659 45.0757 73.6178 44.9605C73.8327 44.8683 73.6919 43.7394 72.7138 42.2495C71.7654 40.775 69.8462 39.0087 67.2009 38.2944C64.5556 37.5879 62.051 38.1793 60.532 38.9933C58.9834 39.815 58.3313 40.7289 58.4795 40.9133V40.9209Z" fill="#F98D61"/>
<path d="M58.2942 71.1949C57.1012 69.8433 55.2191 68.9678 53.0999 68.9678C50.9807 68.9678 49.069 69.8586 47.876 71.2333C47.9204 71.2871 47.9575 71.3562 48.0019 71.4099C49.0171 72.6541 50.3953 73.6371 51.944 73.9136C54.3077 74.3436 56.7233 73.0764 58.2942 71.1949Z" fill="#F05F24"/>
<path d="M53.8849 3.90527C54.1887 10.2948 55.8707 16.7305 59.4867 21.9143C60.9094 23.9572 62.6137 25.7773 64.3105 27.5897C65.5628 28.9337 66.8373 30.2853 68.386 31.2376C72.7207 33.8948 78.1966 32.8964 83.1464 33.8641C83.7985 32.3204 83.2057 30.5387 82.5684 28.9874C80.1528 23.0894 77.0184 17.414 72.6244 12.906C68.2304 8.39794 62.4729 5.12636 56.3153 4.60414C54.0553 4.41214 51.7434 4.60413 49.6094 5.39515" fill="#0C6F90"/>
<path d="M49.4625 27.9887C54.6049 30.4462 62.2667 34.0403 67.75 30.5384C66.9127 29.8088 65.942 29.1867 65.1343 28.4034C62.0815 25.439 61.7184 21.5069 62.2815 17.4136C62.7039 14.3647 64.3563 10.3482 63.3411 7.29168C61.9184 2.99868 55.2273 4.01241 51.9374 4.27352C45.3574 4.80343 38.8812 6.8232 33.1386 10.21C29.6337 12.2758 23.7725 16.4844 24.5876 21.2842C25.373 25.9151 29.4929 30.2619 33.2423 32.5274C37.8142 35.2844 43.3493 36.1139 48.5733 35.2844C45.6538 35.3305 42.7343 34.1094 40.6744 31.9591C46.1132 34.2323 52.2856 34.5626 57.9245 32.873C54.7309 32.1281 51.7595 30.4078 49.4699 27.981L49.4625 27.9887Z" fill="#0C6F90"/>
<path d="M25.5576 24.0864C25.7207 23.9636 24.8389 22.5428 24.2016 20.5998C23.5496 18.6645 23.4014 16.9827 23.1939 16.9903C23.0161 16.975 22.853 18.772 23.5422 20.8379C24.2239 22.9038 25.4168 24.2093 25.5502 24.0864H25.5576Z" fill="black"/>
<path d="M18.6066 32.4887C18.8141 32.4887 18.6955 29.1096 19.5551 25.1084C19.9626 23.1117 20.5999 21.3837 21.2964 20.2778C21.9781 19.1566 22.608 18.619 22.5339 18.5269C22.4968 18.4577 21.7262 18.8725 20.8963 19.986C20.0515 21.0842 19.2957 22.8967 18.8734 24.9548C17.999 29.0789 18.4362 32.5194 18.6066 32.4887Z" fill="black"/>
<path d="M22.7942 49.315C22.9128 49.2766 22.4608 47.7407 22.1051 45.191C21.9125 43.9238 21.8013 42.3955 21.742 40.6983C21.7124 39.0011 21.7568 37.1272 21.9124 35.1689C22.2385 31.2522 22.8461 27.7348 23.2685 25.1775C23.6982 22.6278 23.9502 21.0458 23.8538 21.0227C23.7649 20.9997 23.3426 22.551 22.7868 25.0776C22.2385 27.612 21.5494 31.137 21.2233 35.1074C21.0677 37.0888 21.0381 38.9934 21.1048 40.7213C21.2011 42.4493 21.3641 44.0006 21.6235 45.2754C21.7272 45.9205 21.8828 46.4888 22.0014 46.9957C22.1199 47.5026 22.2459 47.925 22.3719 48.2705C22.6016 48.9617 22.7498 49.3304 22.7942 49.315Z" fill="black"/>
<path d="M25.2167 43.4545C25.402 43.4622 25.6836 40.6054 25.6243 37.0727C25.565 33.5323 25.1871 30.6908 25.0018 30.7061C24.8092 30.7215 24.8759 33.5707 24.9352 37.088C24.9944 40.5977 25.0241 43.4546 25.2241 43.4622L25.2167 43.4545Z" fill="black"/>
<path d="M57.9159 4.56445C57.9233 4.51837 57.4194 4.39549 56.4858 4.21118C56.0189 4.11134 55.4484 4.0115 54.7815 3.95774C54.1146 3.89631 53.3514 3.7888 52.4993 3.79648L51.1655 3.77344C50.6987 3.77344 50.2244 3.81952 49.7206 3.83488C48.7202 3.85792 47.6606 4.01919 46.5491 4.1651C44.3336 4.53373 41.918 5.13275 39.4801 6.06201C37.0571 7.02198 34.8564 8.21234 32.9521 9.4411C32.0184 10.0939 31.1218 10.6929 30.3512 11.3534C29.9585 11.6759 29.5732 11.9678 29.2249 12.2903L28.2394 13.2196C27.5947 13.7955 27.0909 14.3946 26.624 14.8937C26.1498 15.3929 25.7867 15.8537 25.4977 16.2454C24.9124 17.0134 24.6086 17.4511 24.6456 17.4818C24.7493 17.574 26.0461 15.8691 28.5728 13.5959L29.5732 12.7204C29.9214 12.4209 30.3142 12.1444 30.7069 11.8295C31.4775 11.1998 32.3741 10.6315 33.3003 10.0017C35.1898 8.81905 37.3535 7.67476 39.7395 6.73783C42.1329 5.82394 44.4892 5.21724 46.6603 4.81789C47.7496 4.65661 48.7869 4.47997 49.7724 4.42621C50.2615 4.39549 50.7357 4.33405 51.1877 4.3187L52.4993 4.29566C55.8485 4.29566 57.9011 4.695 57.9233 4.55677L57.9159 4.56445Z" fill="black"/>
<path d="M84.2057 22.9821C84.2057 22.9821 84.1538 22.7594 83.9982 22.3601C83.9167 22.1604 83.8204 21.907 83.6945 21.6228L83.198 20.6552C82.4274 19.2114 81.0862 17.2223 78.9521 15.2409C76.8255 13.2672 73.9208 11.3089 70.3493 9.97259C66.7852 8.62863 62.6134 7.98352 58.2638 8.03728C53.9068 8.1064 49.8018 8.80526 46.1413 9.67308C42.4808 10.5409 39.2427 11.6007 36.6048 12.6989C33.9669 13.7971 31.9292 14.9337 30.5732 15.7785C29.8989 16.2086 29.3802 16.5542 29.0393 16.8153C28.6985 17.0687 28.5281 17.2069 28.5429 17.23C28.5725 17.2761 29.3209 16.7999 30.7066 16.0243C32.0996 15.2563 34.1447 14.1965 36.7826 13.1751C39.4205 12.146 42.6364 11.1399 46.2821 10.3182C49.9203 9.49644 53.9809 8.82062 58.2712 8.75918C62.5541 8.7131 66.6444 9.32749 70.1344 10.6023C73.6319 11.8695 76.4995 13.7434 78.6261 15.6249C80.7601 17.5141 82.131 19.4264 82.9609 20.8011L83.5018 21.7303L83.8649 22.4292C84.0649 22.8055 84.1761 23.0052 84.1983 22.9898L84.2057 22.9821Z" fill="black"/>
<path d="M41.7546 33.111C41.8361 32.919 37.531 31.3139 33.2925 27.5892C31.1807 25.7461 29.4394 23.8645 28.402 22.3439C27.3498 20.8233 26.9719 19.7175 26.8608 19.7559C26.7867 19.7712 27.009 20.9769 27.9871 22.6204C28.9578 24.2716 30.6842 26.2529 32.8405 28.1345C35.0042 30.0083 37.2346 31.3523 38.9166 32.128C40.5986 32.919 41.7175 33.1878 41.7472 33.1033L41.7546 33.111Z" fill="black"/>
<path d="M78.4567 23.9948C78.4567 23.9948 77.9677 23.5033 76.9673 22.7737C75.9744 22.0442 74.4628 21.0765 72.4918 20.0781C68.5794 18.066 62.6737 16.1845 55.9826 15.9003C49.2915 15.6085 43.2821 16.8219 39.0955 18.0507C36.9986 18.6651 35.3239 19.2641 34.1902 19.7249C33.0565 20.178 32.4415 20.4775 32.4563 20.5159C32.4711 20.562 33.1158 20.3623 34.2791 19.986C35.4351 19.6097 37.1171 19.0875 39.2215 18.5422C43.4081 17.444 49.3582 16.3304 55.953 16.6146C62.5477 16.8987 68.3719 18.6728 72.2843 20.5389C76.2263 22.3898 78.3752 24.11 78.4493 23.9871L78.4567 23.9948Z" fill="black"/>
<path d="M71.0532 26.8671C71.068 26.8211 70.616 26.6521 69.7861 26.391C68.9562 26.1452 67.7484 25.7997 66.2294 25.4617C63.2062 24.7782 58.9678 24.064 54.2329 23.8413C49.498 23.5725 45.2299 24.0256 42.1696 23.9258C39.1019 23.8797 37.242 23.3805 37.2198 23.4957C37.2124 23.5341 37.657 23.7261 38.5091 23.9258C39.3539 24.1331 40.6061 24.3405 42.1548 24.4327C45.2669 24.6631 49.5276 24.2867 54.2032 24.5555C58.8937 24.7706 63.1025 25.4003 66.1331 25.9532C69.1637 26.5062 71.0236 26.967 71.0532 26.8595V26.8671Z" fill="black"/>
<path d="M85.4295 44.9062C85.5184 44.9062 85.6444 43.7773 85.7111 41.9418C85.7778 40.1064 85.7777 37.5644 85.6221 34.7689C85.4665 31.9735 85.1998 29.4468 84.933 27.6344C84.6663 25.822 84.4217 24.7084 84.3328 24.7238C84.1328 24.7545 84.6366 29.2472 84.933 34.815C85.2442 40.3752 85.2294 44.9062 85.4295 44.9139V44.9062Z" fill="black"/>
<path d="M82.2431 42.166C82.4283 42.166 82.5024 39.0019 82.0133 35.139C81.5391 31.276 80.687 28.2425 80.5091 28.2886C80.3165 28.3347 80.85 31.4143 81.3242 35.2311C81.8059 39.048 82.043 42.166 82.2431 42.1583V42.166Z" fill="black"/>
<path d="M89.9869 48.9929L78.2496 45.5216C78.1681 45.4986 78.0866 45.4909 78.0125 45.4986C75.7673 41.6357 71.6919 39.0399 67.0237 39.0399C61.3181 39.0399 56.4721 42.9259 54.8123 48.271C52.7894 46.8195 50.685 47.3187 49.2623 48.1635C47.5728 42.8721 42.7564 39.0322 37.0879 39.0322C32.4049 39.0322 28.3072 41.6587 26.0694 45.5524L14.4656 48.9852C14.1248 49.085 13.9247 49.4537 14.0284 49.807C14.1099 50.0988 14.3619 50.2908 14.6434 50.2908C14.7027 50.2908 14.762 50.2831 14.8213 50.2677L25.2618 47.1805C24.6171 48.7702 24.254 50.5135 24.254 52.3413C24.254 59.6755 30.0115 65.6426 37.0879 65.6426C44.1643 65.6426 49.9218 59.6755 49.9218 52.3413C49.9218 51.366 49.8106 50.4213 49.618 49.5075C50.5738 48.8547 52.5226 47.9715 54.4566 49.6687C54.2862 50.5289 54.1973 51.4274 54.1973 52.3413C54.1973 59.6755 59.9547 65.6426 67.0311 65.6426C74.1075 65.6426 79.865 59.6755 79.865 52.3413C79.865 50.4674 79.4871 48.6857 78.8054 47.0653L89.6386 50.2677C89.6979 50.2831 89.7571 50.2908 89.8164 50.2908C90.098 50.2908 90.35 50.0988 90.4315 49.807C90.5278 49.4537 90.3351 49.085 89.9943 48.9852L89.9869 48.9929ZM37.0879 64.3064C30.7228 64.3064 25.5359 58.9382 25.5359 52.3336C25.5359 45.729 30.7154 40.3608 37.0879 40.3608C42.3341 40.3608 46.7652 44.0087 48.1656 48.9775C48.1582 48.9852 48.1434 48.9929 48.136 49.0006L48.1805 49.0543C48.4694 50.0988 48.6325 51.197 48.6325 52.3336C48.6325 58.9305 43.453 64.3064 37.0805 64.3064H37.0879ZM67.0311 64.3064C60.6661 64.3064 55.4792 58.9382 55.4792 52.3336C55.4792 45.729 60.6586 40.3608 67.0311 40.3608C73.4036 40.3608 78.5831 45.729 78.5831 52.3336C78.5831 58.9382 73.4036 64.3064 67.0311 64.3064Z" fill="#FFCA05"/>
<g style="mix-blend-mode:overlay" opacity="0.21">
<path d="M73.8475 4.58068C66.3561 0.37984 57.5903 -0.664606 49.2171 0.372164C43.3411 1.09406 37.2947 1.93116 32.0559 5.05683C27.8323 7.5758 24.2755 11.623 23.1048 16.5227C18.444 15.9391 17.5845 19.6561 17.0584 23.4576C15.6801 33.4489 16.5693 43.7706 19.6444 53.3473H20.2742C20.1927 52.6791 20.1334 52.011 20.0816 51.3505C19.6666 46.1129 19.2961 40.8292 19.8593 35.607C20.2742 31.8285 20.3187 23.4038 25.3277 23.3577C25.7353 18.1432 29.5588 13.7273 34.0936 11.4234C38.6284 9.11943 43.7931 8.59721 48.8318 8.38217C56.8271 8.04426 64.9705 8.42057 72.573 11.0163C77.6191 12.7366 82.4207 15.532 86.2294 19.3335C84.3176 13.1743 79.0789 7.51436 73.8475 4.58836V4.58068Z" fill="#FFCA05"/>
</g>
</svg>
