<svg width="106" height="155" viewBox="0 0 106 155" fill="none" xmlns="http://www.w3.org/2000/svg">
<path d="M87.706 52.5418C90.2869 42.1337 90.7388 31.7026 88.7246 21.2486C87.3996 14.3635 81.3952 7.80002 75.4062 4.56807C67.6633 0.378795 58.6031 -0.662777 49.9489 0.37114C43.8756 1.09105 37.6261 1.92585 32.2115 5.04291C27.846 7.55495 24.1699 11.591 22.9598 16.4773C18.1426 15.8952 17.2541 19.602 16.7104 23.393C15.2859 33.3569 16.2049 43.6501 19.3833 53.2004" fill="#0C6F90"/>
<path d="M72.1981 106.451C68.0778 104.758 65.2977 102.56 63.4213 100.439C60.9553 97.6585 59.6533 93.2088 59.6533 89.4944V78.7646H46.0056V89.4944C46.0056 93.2088 44.696 97.6585 42.2375 100.439C40.3612 102.552 37.5734 104.758 33.4607 106.451C22.2025 111.069 0 117.13 0 134.5C0 134.5 52.8698 153.196 105.5 135C105.5 117.63 83.464 111.061 72.2058 106.451H72.1981Z" fill="#FFBDA7"/>
<path d="M105.5 135C105.5 117.63 83.4562 111.062 72.198 106.451C68.0776 104.759 65.2975 102.56 63.4212 100.439C62.2494 99.1218 61.3534 97.4215 60.7177 95.6064C55.3183 96.7016 49.8118 97.2148 44.3052 97.1535C43.7461 98.3712 43.0569 99.5047 42.2297 100.439C40.3534 102.553 37.5656 104.759 33.4529 106.451C22.1947 111.069 0 117.13 0 134.5C7.77579 147.473 64.3115 170.889 105.5 135Z" fill="#0C6F90"/>
<path d="M22.8225 136.051C22.7612 131.066 22.4932 127.029 22.2328 127.037C21.9724 127.037 21.8039 131.081 21.8651 136.067C21.8881 137.782 21.9341 139.383 21.9953 140.754C22.2634 140.8 22.5314 140.846 22.8072 140.892C22.8378 139.49 22.8454 137.836 22.8225 136.051Z" fill="black"/>
<path d="M83.7854 136.051C83.7241 131.066 83.456 127.029 83.1956 127.037C82.9352 127.037 82.7668 131.081 82.828 136.067C82.851 138.012 82.9046 139.812 82.9812 141.29C83.2416 141.244 83.502 141.206 83.7624 141.16C83.8007 139.705 83.8083 137.951 83.7854 136.059V136.051Z" fill="black"/>
<path d="M61.805 91.8301H44.0906C41.8827 91.8301 40.0928 93.62 40.0928 95.8279V98.7229C40.0928 100.931 41.8827 102.721 44.0906 102.721H61.805C64.0129 102.721 65.8028 100.931 65.8028 98.7229V95.8279C65.8028 93.62 64.0129 91.8301 61.805 91.8301Z" fill="#0D617D"/>
<path d="M42.7276 92.1748C42.5744 92.2437 42.4365 92.328 42.291 92.4122C42.2987 93.6682 42.314 95.0391 42.337 96.479C42.3676 98.5927 42.4136 100.561 42.4672 102.238C42.5974 102.307 42.7352 102.376 42.8731 102.43C42.8731 100.714 42.8501 98.6693 42.8195 96.479C42.7965 94.9549 42.7658 93.5074 42.7352 92.1825L42.7276 92.1748Z" fill="black"/>
<path d="M46.9707 96.4712C46.9477 94.8093 46.9094 93.2469 46.8711 91.8301H46.4346C46.4422 93.2393 46.4575 94.8093 46.4882 96.4789C46.5265 98.7994 46.5724 100.952 46.6337 102.721H47.0243C47.0243 100.944 47.0013 98.7918 46.963 96.4712H46.9707Z" fill="black"/>
<path d="M51.1133 96.4712C51.0903 94.8093 51.052 93.2469 51.0137 91.8301H50.5771C50.5848 93.2393 50.6001 94.8093 50.6308 96.4789C50.6691 98.7994 50.715 100.952 50.7763 102.721H51.1669C51.1669 100.944 51.1439 98.7918 51.1056 96.4712H51.1133Z" fill="black"/>
<path d="M55.2646 96.4712C55.2416 94.8093 55.2034 93.2469 55.1651 91.8301H54.7285C54.7362 93.2393 54.7515 94.8093 54.7821 96.4789C54.8204 98.7994 54.8664 100.952 54.9276 102.721H55.3182C55.3182 100.944 55.2953 98.7918 55.257 96.4712H55.2646Z" fill="black"/>
<path d="M59.415 96.4712C59.392 94.8093 59.3537 93.2469 59.3154 91.8301H58.8789C58.8866 93.2393 58.9019 94.8093 58.9325 96.4789C58.9708 98.7994 59.0168 100.952 59.078 102.721H59.4686C59.4686 100.944 59.4456 98.7918 59.4074 96.4712H59.415Z" fill="black"/>
<path d="M63.4823 92.3433C63.3368 92.2668 63.1913 92.1902 63.0381 92.1289C63.0457 93.4615 63.0611 94.932 63.0917 96.4714C63.13 98.6388 63.1759 100.645 63.2219 102.346C63.3598 102.284 63.4899 102.2 63.6278 102.123C63.6278 100.469 63.6048 98.5315 63.5742 96.456C63.5512 94.9932 63.5206 93.607 63.4899 92.328L63.4823 92.3433Z" fill="black"/>
<g style="mix-blend-mode:multiply" opacity="0.35">
<path d="M59.6457 89.4944V78.7646H55.2191C53.6797 78.8412 52.1403 78.8412 50.6009 78.7646H45.9981V89.4944C45.9981 90.1683 45.9368 90.8653 45.8525 91.5699C46.7256 91.6771 47.6217 91.7077 48.4871 91.7001C52.2475 91.6618 55.9773 91.1716 59.684 90.5283C59.6611 90.1837 59.6381 89.8314 59.6381 89.5021L59.6457 89.4944Z" fill="#FFBDA7"/>
</g>
<path d="M92.12 62.6625C95.2432 57.5817 94.9679 51.7373 91.5051 49.6086C88.0423 47.48 82.7032 49.8731 79.5799 54.9538C76.4567 60.0346 76.732 65.879 80.1948 68.0076C83.6576 70.1363 88.9967 67.7432 92.12 62.6625Z" fill="#FFBDA7"/>
<g style="mix-blend-mode:multiply" opacity="0.36">
<path d="M82.3828 66.5726C83.0568 64.1371 83.9069 61.7476 84.9331 59.4347C85.2471 58.7301 85.5765 58.0332 86.036 57.4205C86.5568 56.7236 87.2307 56.1568 87.8894 55.5901C88.7318 54.8778 89.5972 54.1503 90.6312 53.7903C91.0371 53.6448 91.5042 53.5682 91.8948 53.7597C92.3084 53.9664 92.5229 54.426 92.653 54.8625C93.2198 56.8078 92.5611 58.6229 91.8259 60.4074C91.0218 62.345 89.2832 64.0912 87.6902 65.4238C86.35 66.5419 84.7187 67.9282 82.85 67.0857" fill="#FFBDA7"/>
</g>
<path d="M86.9095 59.0136C86.2279 59.0825 85.6305 59.2969 85.1556 59.5344C85.2705 59.3199 85.3777 59.0978 85.5003 58.8834C86.6261 56.9228 88.0966 55.4676 89.3143 54.6405C90.509 53.7521 91.4357 53.6755 91.4357 53.5606C91.4357 53.507 91.1906 53.4304 90.7464 53.484C90.3022 53.53 89.6742 53.7368 88.9926 54.1274C87.6141 54.8702 85.9521 56.3867 84.7574 58.4545C83.5473 60.5223 83.0495 62.6361 82.7738 64.1295C82.5058 65.6383 82.4521 66.5803 82.4521 66.5803L83.195 64.2291C83.5626 63.1263 84.0681 61.7017 84.7957 60.2236H84.834C85.4007 60.0781 86.1666 59.9479 87.0014 59.8637C88.6863 59.6799 90.0648 60.0551 90.1567 59.8177C90.264 59.6186 88.8471 58.8068 86.9171 59.0136H86.9095Z" fill="#F98D61"/>
<path d="M25.4709 67.9773C28.9338 65.8486 29.2091 60.0042 26.0858 54.9235C22.9626 49.8427 17.6235 47.4496 14.1606 49.5783C10.6978 51.707 10.4225 57.5514 13.5458 62.6321C16.669 67.7129 22.0081 70.106 25.4709 67.9773Z" fill="#FFBDA7"/>
<g style="mix-blend-mode:multiply" opacity="0.36">
<path d="M23.2672 66.5726C22.5933 64.1371 21.7431 61.7476 20.7169 59.4347C20.4029 58.7301 20.0736 58.0332 19.614 57.4205C19.0933 56.7236 18.4193 56.1568 17.7607 55.5901C16.9182 54.8778 16.0528 54.1503 15.0189 53.7903C14.613 53.6448 14.1458 53.5682 13.7552 53.7597C13.3416 53.9664 13.1272 54.426 12.997 54.8625C12.4302 56.8078 13.0889 58.6229 13.8241 60.4074C14.6283 62.345 16.3668 64.0912 17.9598 65.4238C19.3 66.5419 20.9313 67.9282 22.8 67.0857" fill="#FFBDA7"/>
</g>
<path d="M18.7411 59.0136C19.4227 59.0825 20.0201 59.2969 20.4949 59.5344C20.38 59.3199 20.2728 59.0978 20.1503 58.8834C19.0245 56.9228 17.554 55.4676 16.3363 54.6405C15.1415 53.7521 14.2148 53.6755 14.2148 53.5606C14.2148 53.507 14.4599 53.4304 14.9041 53.484C15.3483 53.53 15.9763 53.7368 16.6579 54.1274C18.0365 54.8702 19.6984 56.3867 20.8932 58.4545C22.1032 60.5223 22.6011 62.6361 22.8768 64.1295C23.1448 65.6383 23.1984 66.5803 23.1984 66.5803L22.4555 64.2291C22.0879 63.1263 21.5825 61.7017 20.8549 60.2236H20.8166C20.2499 60.0781 19.484 59.9479 18.6492 59.8637C16.9643 59.6799 15.5857 60.0551 15.4938 59.8177C15.3866 59.6186 16.8035 58.8068 18.7334 59.0136H18.7411Z" fill="#F98D61"/>
<path d="M52.8285 86.9442C36.2092 86.9442 22.6458 73.7484 22.3012 57.244L21.8646 36.4355C21.5353 20.6357 34.3329 7.6543 50.2399 7.6543H55.4248C71.3318 7.6543 84.1293 20.6357 83.8 36.4355L83.3635 57.244C83.0188 73.7484 69.4477 86.9442 52.8361 86.9442H52.8285Z" fill="#FFBDA7"/>
<g style="mix-blend-mode:multiply" opacity="0.35">
<path d="M81.2356 27.2988C76.9084 19.173 67.3045 15.1062 58.1218 14.4169C48.9391 13.7277 39.8023 15.7649 30.6426 16.7299C29.938 16.8064 29.2181 16.8754 28.5058 16.9673C28.8122 19.3644 27.2575 21.4399 24.9829 22.2441C24.8986 22.2747 24.8374 22.2977 24.7837 22.313C24.7225 22.3513 24.6535 22.3896 24.554 22.4432C24.2859 22.5887 24.0179 22.7419 23.7575 22.9027C23.3592 23.1555 22.9686 23.4082 22.5857 23.6839C22.4249 23.8064 22.333 23.8677 22.2717 23.9137C22.1109 24.0439 21.9577 24.1894 21.7969 24.3272L23.3439 26.4257C29.019 34.8196 40.0091 38.2889 50.1185 37.6379C51.4281 37.5537 53.1054 37.0176 53.0977 35.708C56.4292 36.7113 60.1743 36.2211 63.1382 34.406C63.5901 34.1303 64.0419 33.8163 64.5627 33.732C65.0605 33.6478 65.566 33.7857 66.0561 33.9082C69.1426 34.6817 72.3362 35.0417 75.5146 34.9804C78.1491 34.9344 81.3351 34.1533 82.078 31.6259C82.4992 30.1861 81.9402 28.6467 81.2356 27.3218V27.2988Z" fill="#FFBDA7"/>
</g>
<g style="mix-blend-mode:multiply" opacity="0.2">
<path d="M52.5914 52.1353C52.017 53.8661 51.1363 55.4897 50.715 57.2589C50.2938 59.028 50.401 61.0729 51.6111 62.4361C51.8868 62.7501 52.2314 63.0182 52.622 63.156C53.5104 63.4547 54.4601 63.0029 55.2719 62.528C55.4787 62.4132 55.6855 62.283 55.808 62.0762C55.9689 61.8081 55.9306 61.4635 55.8846 61.1495C55.517 58.6145 54.9809 56.0488 53.7249 53.8125C53.273 53.0083 52.7139 52.2119 52.6603 51.2852" fill="#FFBDA7"/>
</g>
<path d="M27.4719 37.891C27.6481 31.6875 26.2389 25.53 24.1557 19.7324C22.1721 21.5858 20.7859 24.0519 19.8056 26.6482C18.0058 31.3889 17.5157 36.5202 17.8067 41.5595C18.0058 45.0442 17.6459 50.949 19.9894 53.7904C22.333 56.6317 24.7837 50.053 25.4347 48.3681C26.729 45.0366 27.38 41.46 27.4796 37.891H27.4719Z" fill="#0C6F90"/>
<path d="M84.6124 21.9375C82.1386 27.2143 80.9286 33.0578 80.9822 38.8784C81.0052 41.7427 81.3345 44.5994 81.9701 47.3948C82.3914 49.2559 82.5292 52.0206 83.8159 53.5217C85.1025 55.0228 85.2404 53.6136 85.6157 52.1891C86.1288 50.2591 86.4887 48.2909 86.7338 46.3073C87.7065 38.2581 86.6649 30.1093 85.1561 22.1979" fill="#0C6F90"/>
<path d="M52.4008 63.3937C52.531 63.2864 51.5813 62.4287 51.1524 60.5983C50.9456 59.6946 50.9227 58.5687 51.3132 57.4276C51.6885 56.2788 52.5463 55.0764 52.9599 53.5293C53.4041 52.0206 53.4347 50.5042 53.2509 49.1716C53.0594 47.839 52.6458 46.6825 52.1787 45.7864C51.229 43.9867 50.1798 43.2285 50.1185 43.3051C49.996 43.4123 50.8308 44.316 51.566 46.0775C51.9259 46.9506 52.2476 48.0457 52.3778 49.2864C52.4927 50.5195 52.4391 51.9057 52.0408 53.2766C51.6885 54.6399 50.8767 55.8346 50.4785 57.1672C50.0649 58.5075 50.1874 59.8094 50.5014 60.7821C50.8154 61.77 51.3056 62.467 51.6885 62.8805C52.0791 63.2941 52.3625 63.4473 52.4008 63.409V63.3937Z" fill="#F98D61"/>
<path d="M56.2919 61.5326C56.1235 61.3258 55.7252 61.3718 55.3423 61.5556C54.967 61.747 54.6836 62.0457 54.7526 62.2985C54.8215 62.5512 55.2963 62.6507 55.7712 62.4057C56.246 62.1683 56.4604 61.7317 56.2919 61.5249V61.5326Z" fill="#F98D61"/>
<path d="M45.4847 37.5687C45.5077 37.316 44.5504 36.9714 42.9497 36.8029C41.3491 36.6344 39.0591 36.6727 36.6237 37.4232C34.1882 38.1738 32.2429 39.5676 31.1631 40.8313C30.0602 42.095 29.7615 43.1212 29.9683 43.2438C30.2057 43.397 30.8797 42.7 32.0821 41.8193C33.2692 40.9309 35.046 39.9123 37.1981 39.246C39.3502 38.5797 41.4333 38.3346 42.9574 38.1508C44.4891 37.9746 45.4694 37.8368 45.4847 37.5687Z" fill="#F98D61"/>
<path d="M47.1087 56.9291C46.9785 56.753 46.1131 57.2814 44.6197 57.7103C43.1492 58.1392 40.9589 58.3996 38.7608 57.7027C36.5628 57.0287 34.9775 55.497 34.181 54.2256C33.3692 52.939 33.2543 51.9204 33.0245 51.9357C32.8637 51.9204 32.588 53.0462 33.2772 54.6928C33.9435 56.3011 35.7127 58.2618 38.3243 59.0659C40.9129 59.8854 43.4326 59.3876 44.972 58.6523C46.542 57.9171 47.216 57.0517 47.1011 56.9215L47.1087 56.9291Z" fill="#F98D61"/>
<path d="M60.0903 37.5683C60.1132 37.8363 61.0935 37.9742 62.6176 38.1504C64.1417 38.3265 66.2248 38.5716 68.3769 39.2455C70.529 39.9118 72.2981 40.9304 73.4929 41.8188C74.6953 42.6996 75.3692 43.3965 75.6067 43.2433C75.8134 43.1131 75.5148 42.0945 74.4119 40.8309C73.332 39.5672 71.3867 38.1733 68.9513 37.4228C66.5235 36.6722 64.2259 36.6416 62.6253 36.8024C61.0169 36.9709 60.0673 37.3156 60.0903 37.5683Z" fill="#F98D61"/>
<path d="M58.4656 56.9293C58.3508 57.0595 59.0247 57.9173 60.5947 58.6602C62.1265 59.3877 64.6462 59.8855 67.2424 59.0737C69.854 58.2696 71.6232 56.3013 72.2895 54.7006C72.9788 53.054 72.703 51.9282 72.5422 51.9435C72.3125 51.9282 72.1976 52.9468 71.3858 54.2335C70.5893 55.5048 69.0039 57.0289 66.8059 57.7105C64.6079 58.4074 62.4175 58.147 60.947 57.7181C59.4536 57.2893 58.5882 56.7608 58.458 56.937L58.4656 56.9293Z" fill="#F98D61"/>
<path d="M58.7046 63.2403C58.5591 63.2403 58.5744 64.0751 57.8392 65.0477C57.1423 66.0127 55.6259 67.0083 53.7725 67.0543C51.9191 67.1232 50.418 66.1199 49.6215 65.2009C48.802 64.2742 48.5416 63.493 48.3961 63.539C48.2889 63.5543 48.3042 64.4503 49.0854 65.6145C49.476 66.1812 50.0657 66.8015 50.8775 67.2687C51.6817 67.7436 52.7156 68.0422 53.7954 68.0039C55.9858 67.958 57.7473 66.656 58.3983 65.4077C58.7429 64.7873 58.8578 64.2129 58.8501 63.8223C58.8501 63.4317 58.7506 63.225 58.6893 63.2326L58.7046 63.2403Z" fill="#F98D61"/>
<path d="M54.7745 3.89453C55.0885 10.2665 56.827 16.6845 60.5644 21.854C62.0349 23.8912 63.7964 25.7063 65.5502 27.5138C66.8445 28.854 68.1618 30.202 69.7625 31.1516C74.2428 33.8015 79.9025 32.8059 85.0185 33.7709C85.6924 32.2315 85.0797 30.4547 84.4211 28.9076C81.9244 23.0258 78.6848 17.3661 74.1432 12.8705C69.6016 8.37484 63.6509 5.11226 57.2865 4.59147C54.9507 4.4 52.5612 4.59147 50.3555 5.38031" fill="#0C6F90"/>
<path d="M50.2094 27.9118C55.5245 30.3626 63.4435 33.9469 69.1109 30.4545C68.2455 29.7269 67.2422 29.1066 66.4074 28.3254C63.252 25.3692 62.8768 21.448 63.4588 17.3659C63.8954 14.3254 65.6032 10.32 64.554 7.27183C63.0836 2.99065 56.1678 4.00158 52.7674 4.26198C45.9665 4.79042 39.2728 6.80464 33.3374 10.1821C29.7149 12.2423 23.6569 16.4392 24.4993 21.2259C25.3418 26.0125 29.5693 30.1788 33.4446 32.4381C38.17 35.1876 43.891 36.0147 49.2903 35.1875C46.2728 35.2335 43.2553 34.0158 41.1262 31.8714C46.7477 34.1383 53.1273 34.4676 58.9555 32.7827C55.6547 32.0399 52.5836 30.3243 50.217 27.9042L50.2094 27.9118Z" fill="#0C6F90"/>
<path d="M25.5035 24.021C25.672 23.8985 24.7606 22.4816 24.102 20.544C23.428 18.614 23.2749 16.9368 23.0604 16.9444C22.8766 16.9291 22.7081 18.7212 23.4204 20.7814C24.125 22.8416 25.358 24.1436 25.4959 24.021H25.5035Z" fill="black"/>
<path d="M18.3195 32.3995C18.5339 32.3995 18.4114 29.0297 19.2998 25.0395C19.721 23.0483 20.3797 21.3251 21.0996 20.2222C21.8042 19.1041 22.4552 18.568 22.3786 18.4761C22.3403 18.4071 21.5438 18.8207 20.686 19.9312C19.8129 21.0264 19.0317 22.8338 18.5952 24.8863C17.6915 28.999 18.1433 32.4301 18.3195 32.3995Z" fill="black"/>
<path d="M22.646 49.1795C22.7686 49.1412 22.3014 47.6095 21.9338 45.0668C21.7346 43.8032 21.6198 42.2791 21.5585 40.5865C21.5279 38.894 21.5738 37.0253 21.7346 35.0723C22.0716 31.1664 22.6996 27.6587 23.1362 25.1084C23.5804 22.5658 23.8408 20.9881 23.7412 20.9651C23.6493 20.9421 23.2128 22.4892 22.6384 25.0089C22.0716 27.5362 21.3594 31.0515 21.0224 35.011C20.8616 36.987 20.8309 38.8863 20.8998 40.6095C20.9994 42.3327 21.1679 43.8797 21.4359 45.1511C21.5432 45.7944 21.704 46.3611 21.8265 46.8666C21.9491 47.3721 22.0793 47.7933 22.2095 48.1379C22.4469 48.8272 22.6001 49.1948 22.646 49.1795Z" fill="black"/>
<path d="M25.1433 43.3355C25.3347 43.3431 25.6258 40.4941 25.5645 36.9711C25.5032 33.4405 25.1126 30.6068 24.9212 30.6221C24.722 30.6374 24.791 33.4788 24.8522 36.9865C24.9135 40.4865 24.9441 43.3355 25.1509 43.3431L25.1433 43.3355Z" fill="black"/>
<path d="M58.9402 4.55251C58.9479 4.50656 58.4271 4.38402 57.4621 4.20021C56.9796 4.10065 56.3899 4.00108 55.7006 3.94747C55.0113 3.8862 54.2225 3.77899 53.3418 3.78665L51.9632 3.76367C51.4807 3.76367 50.9906 3.80963 50.4698 3.82494C49.4359 3.84792 48.3407 4.00874 47.1919 4.15426C44.9019 4.52187 42.4052 5.11925 39.8855 6.04594C37.3812 7.00327 35.1065 8.19036 33.1383 9.41574C32.1733 10.0667 31.2466 10.6641 30.4501 11.3227C30.0442 11.6444 29.6459 11.9354 29.286 12.2571L28.2674 13.1838C27.6011 13.7582 27.0803 14.3556 26.5978 14.8534C26.1076 15.3512 25.7324 15.8107 25.4337 16.2013C24.8286 16.9672 24.5146 17.4037 24.5529 17.4343C24.6602 17.5262 26.0004 15.826 28.612 13.5591L29.6459 12.686C30.0059 12.3873 30.4118 12.1116 30.8177 11.7976C31.6142 11.1696 32.5409 10.6028 33.4982 9.97483C35.4512 8.7954 37.6875 7.65426 40.1536 6.71991C42.6273 5.80853 45.0628 5.2035 47.3067 4.80525C48.4326 4.64442 49.5048 4.46826 50.5234 4.41465C51.0288 4.38401 51.519 4.32275 51.9862 4.30743L53.3418 4.28445C56.8035 4.28445 58.9249 4.6827 58.9479 4.54484L58.9402 4.55251Z" fill="black"/>
<path d="M86.1215 22.9176C86.1215 22.9176 86.0679 22.6955 85.907 22.2972C85.8228 22.0981 85.7232 21.8453 85.593 21.562L85.0799 20.597C84.2834 19.1572 82.8972 17.1736 80.6915 15.1976C78.4935 13.2294 75.4913 11.2764 71.7998 9.94382C68.116 8.60355 63.8042 7.96022 59.3086 8.01384C54.8053 8.08276 50.5624 8.7797 46.7791 9.64513C42.9957 10.5106 39.6489 11.5674 36.9224 12.6626C34.1959 13.7578 32.0898 14.8913 30.6883 15.7337C29.9913 16.1626 29.4552 16.5073 29.1029 16.7677C28.7506 17.0204 28.5745 17.1583 28.5898 17.1812C28.6204 17.2272 29.3939 16.7523 30.8261 15.9788C32.2659 15.213 34.3797 14.1561 37.1062 13.1375C39.8327 12.1112 43.1565 11.1079 46.9246 10.2885C50.685 9.46898 54.8819 8.79502 59.3162 8.73375C63.7429 8.6878 67.9705 9.3005 71.5777 10.5718C75.1926 11.8355 78.1565 13.7042 80.3545 15.5806C82.5602 17.4646 83.977 19.3716 84.8348 20.7425L85.3939 21.6692L85.7692 22.3661C85.976 22.7414 86.0908 22.9405 86.1138 22.9252L86.1215 22.9176Z" fill="black"/>
<path d="M42.2375 33.0195C42.3217 32.8281 37.8721 31.2274 33.4913 27.513C31.3086 25.6749 29.5088 23.7985 28.4366 22.2821C27.3491 20.7657 26.9585 19.6629 26.8436 19.7012C26.767 19.7165 26.9968 20.9189 28.0077 22.5578C29.011 24.2044 30.7955 26.1804 33.0241 28.0567C35.2605 29.9254 37.5657 31.2657 39.3042 32.0392C41.0427 32.8281 42.1992 33.0961 42.2298 33.0119L42.2375 33.0195Z" fill="black"/>
<path d="M80.1789 23.9285C80.1789 23.9285 79.6734 23.4383 78.6395 22.7108C77.6132 21.9832 76.0509 21.0182 74.0137 20.0226C69.9699 18.016 63.866 16.1396 56.9502 15.8563C50.0345 15.5653 43.8233 16.7753 39.4962 18.0007C37.3288 18.6134 35.598 19.2108 34.4262 19.6703C33.2544 20.1221 32.6187 20.4208 32.6341 20.4591C32.6494 20.5051 33.3157 20.306 34.5181 19.9307C35.7128 19.5554 37.4513 19.0346 39.6264 18.4909C43.9535 17.3957 50.1034 16.2852 56.9196 16.5685C63.7358 16.8519 69.7555 18.6211 73.7992 20.4821C77.8736 22.3278 80.0946 24.0434 80.1712 23.9208L80.1789 23.9285Z" fill="black"/>
<path d="M72.5192 26.7934C72.5346 26.7474 72.0674 26.5789 71.2096 26.3185C70.3518 26.0735 69.1035 25.7288 67.5335 25.3918C64.4087 24.7102 60.028 23.998 55.1341 23.7759C50.2403 23.5078 45.8289 23.9597 42.6659 23.8601C39.4952 23.8142 37.5729 23.3163 37.5499 23.4312C37.5422 23.4695 38.0018 23.661 38.8825 23.8601C39.7556 24.0669 41.0499 24.2737 42.6506 24.3656C45.8672 24.5953 50.2709 24.2201 55.1035 24.4881C59.9514 24.7026 64.3015 25.3306 67.4339 25.882C70.5663 26.4334 72.4886 26.8929 72.5192 26.7857V26.7934Z" fill="black"/>
<path d="M87.377 44.7833C87.4689 44.7833 87.5991 43.6575 87.668 41.8271C87.737 39.9967 87.737 37.4616 87.5761 34.6739C87.4153 31.8862 87.1396 29.3665 86.8639 27.559C86.5882 25.7516 86.3354 24.6411 86.2435 24.6564C86.0367 24.687 86.5575 29.1673 86.8639 34.7199C87.1855 40.2647 87.1702 44.7833 87.377 44.791V44.7833Z" fill="black"/>
<path d="M84.0917 42.0496C84.2832 42.0496 84.3597 38.8943 83.8543 35.042C83.3641 31.1897 82.4834 28.1645 82.2996 28.2105C82.1004 28.2564 82.6519 31.3275 83.142 35.1339C83.6398 38.9402 83.8849 42.0496 84.0917 42.042V42.0496Z" fill="black"/>
<path d="M92.0957 48.8581L79.9644 45.3964C79.8801 45.3734 79.7959 45.3657 79.7193 45.3734C77.3987 41.5211 73.1865 38.9325 68.3615 38.9325C62.4644 38.9325 57.4556 42.8077 55.7401 48.1381C53.6493 46.6907 51.4742 47.1885 50.0038 48.0309C48.2576 42.7541 43.2795 38.9248 37.4206 38.9248C32.5804 38.9248 28.3452 41.5441 26.0322 45.427L14.0388 48.8504C13.6865 48.95 13.4797 49.3176 13.587 49.6699C13.6712 49.9609 13.9316 50.1524 14.2226 50.1524C14.2839 50.1524 14.3452 50.1447 14.4064 50.1294L25.1975 47.0506C24.5311 48.636 24.1559 50.3745 24.1559 52.1972C24.1559 59.5112 30.1066 65.462 37.4206 65.462C44.7346 65.462 50.6854 59.5112 50.6854 52.1972C50.6854 51.2246 50.5705 50.2826 50.3714 49.3712C51.3594 48.7202 53.3736 47.8395 55.3725 49.532C55.1963 50.3898 55.1044 51.2859 55.1044 52.1972C55.1044 59.5112 61.0552 65.462 68.3692 65.462C75.6832 65.462 81.634 59.5112 81.634 52.1972C81.634 50.3285 81.2434 48.5517 80.5388 46.9357L91.7357 50.1294C91.797 50.1447 91.8582 50.1524 91.9195 50.1524C92.2105 50.1524 92.4709 49.9609 92.5552 49.6699C92.6547 49.3176 92.4556 48.95 92.1033 48.8504L92.0957 48.8581ZM37.4206 64.1294C30.8419 64.1294 25.4808 58.776 25.4808 52.1896C25.4808 45.6031 30.8342 40.2498 37.4206 40.2498C42.843 40.2498 47.4228 43.8876 48.8703 48.8427C48.8626 48.8504 48.8473 48.8581 48.8397 48.8657L48.8856 48.9193C49.1843 49.9609 49.3528 51.0561 49.3528 52.1896C49.3528 58.7683 43.9994 64.1294 37.413 64.1294H37.4206ZM68.3692 64.1294C61.7904 64.1294 56.4294 58.776 56.4294 52.1896C56.4294 45.6031 61.7828 40.2498 68.3692 40.2498C74.9556 40.2498 80.309 45.6031 80.309 52.1896C80.309 58.776 74.9556 64.1294 68.3692 64.1294Z" fill="#FFCA05"/>
<g style="mix-blend-mode:overlay" opacity="0.21">
<path d="M75.415 4.56807C67.6721 0.378795 58.6119 -0.662777 49.9577 0.37114C43.8844 1.09105 37.6349 1.92585 32.2203 5.04291C27.8548 7.55495 24.1787 11.591 22.9686 16.4773C18.1513 15.8952 17.2629 19.602 16.7192 23.393C15.2947 33.3569 16.2137 43.6501 19.392 53.2004H20.043C19.9588 52.5341 19.8975 51.8678 19.8439 51.2092C19.415 45.986 19.0321 40.7169 19.6141 35.509C20.043 31.7409 20.089 23.3394 25.2662 23.2934C25.6874 18.0932 29.6393 13.6895 34.3264 11.3919C39.0135 9.09433 44.3515 8.57355 49.5594 8.35911C57.8231 8.02213 66.2399 8.39739 74.0977 10.986C79.3132 12.7015 84.276 15.4893 88.2126 19.2803C86.2366 13.1381 80.822 7.49368 75.415 4.57574V4.56807Z" fill="#FFCA05"/>
</g>
</svg>
