<svg width="483" height="451" viewBox="0 0 483 451" fill="none" xmlns="http://www.w3.org/2000/svg">
<path d="M1 431.261H474.329" stroke="#263238" stroke-linecap="round" stroke-linejoin="round"/>
<path d="M405.705 363.925C407.983 364.878 413.539 364.735 413.549 364.735C413.559 364.735 412.354 361.341 412.242 361.132C411.026 358.748 407.135 354.812 404.071 355.212C403.546 355.281 403.043 355.454 402.595 355.718C402.147 355.983 401.764 356.333 401.472 356.745C401.179 357.158 400.984 357.624 400.899 358.112C400.813 358.6 400.84 359.1 400.976 359.578C401.538 361.627 403.765 363.133 405.705 363.925Z" fill="#263238"/>
<path d="M407.625 378.967C409.984 379.281 414.948 377.947 415.346 377.832C416.158 380.487 417.165 383.086 418.359 385.611C419.033 387.088 419.779 388.547 420.535 390.015C420.085 389.395 419.667 388.842 419.605 388.776C417.757 386.774 412.915 383.933 410.005 385.087C409.526 385.292 409.099 385.589 408.751 385.958C408.404 386.327 408.143 386.76 407.986 387.229C407.829 387.698 407.779 388.193 407.84 388.681C407.901 389.169 408.071 389.64 408.34 390.063C409.412 391.893 411.996 392.798 414.09 393.075C416.184 393.351 420.463 392.303 421.587 392.007L422.475 393.675C423.915 396.354 425.366 399.014 426.693 401.664C427.163 402.617 427.592 403.57 428.021 404.466C427.623 403.913 427.276 403.456 427.214 403.389C425.366 401.397 420.524 398.547 417.614 399.71C417.135 399.914 416.709 400.209 416.361 400.578C416.013 400.946 415.752 401.378 415.595 401.846C415.438 402.315 415.389 402.809 415.45 403.296C415.51 403.784 415.681 404.254 415.949 404.676C416.97 406.506 419.605 407.412 421.699 407.698C423.793 407.984 427.664 407.021 429.002 406.678C429.41 407.631 429.819 408.584 430.166 409.538C430.391 410.195 430.656 410.815 430.84 411.444C431.024 412.073 431.238 412.769 431.432 413.417C431.759 414.676 432.096 415.981 432.382 417.23C432.586 418.088 432.76 418.917 432.944 419.747C432.484 418.794 431.555 417.001 431.453 416.887C429.951 414.647 425.631 411.168 422.557 411.882C422.051 412.018 421.582 412.251 421.179 412.566C420.776 412.882 420.448 413.273 420.218 413.715C419.988 414.156 419.86 414.638 419.842 415.129C419.825 415.619 419.918 416.108 420.116 416.563C420.882 418.527 423.282 419.785 425.304 420.376C427.531 421.005 432.454 420.424 433.077 420.376C433.363 421.749 433.638 423.093 433.873 424.361C434.364 426.934 434.741 429.26 435.027 431.262H437.07C436.713 429.184 436.263 426.744 435.691 424.036C435.395 422.645 435.058 421.177 434.67 419.632C436.151 419.074 437.597 418.437 439 417.726C440.624 419.366 444.781 421.291 445.312 421.539C444.751 422.835 444.189 424.094 443.637 425.276C442.616 427.516 441.595 429.527 440.696 431.272H442.922C443.688 429.689 444.505 427.907 445.363 425.962C445.946 424.637 446.538 423.226 447.13 421.768C447.723 421.882 452.605 422.807 454.872 422.33C456.915 421.892 459.437 420.805 460.357 418.898C460.592 418.46 460.725 417.98 460.748 417.491C460.772 417.001 460.684 416.512 460.491 416.056C460.299 415.6 460.005 415.187 459.63 414.844C459.255 414.501 458.806 414.236 458.314 414.065C455.311 413.112 450.725 416.306 449.05 418.431C448.948 418.555 448.029 420.033 447.478 420.967C447.712 420.366 447.958 419.794 448.193 419.175C448.673 417.955 449.112 416.725 449.592 415.362C449.796 414.714 450.01 414.065 450.215 413.408C450.419 412.75 450.593 412.045 450.787 411.358C451.195 409.757 451.522 408.117 451.808 406.449C452.952 406.84 457.037 408.174 459.162 408.031C461.286 407.888 463.911 407.173 465.137 405.419C465.438 405.017 465.646 404.56 465.745 404.077C465.845 403.595 465.835 403.099 465.715 402.62C465.596 402.142 465.37 401.692 465.052 401.301C464.734 400.909 464.331 400.585 463.87 400.348C461.051 398.985 456.006 401.492 454.004 403.351C453.871 403.465 452.594 404.952 451.91 405.782C452.084 404.828 452.257 403.789 452.39 402.769C452.778 399.843 453.075 396.859 453.412 393.895L453.718 391.168C454.127 391.311 458.947 392.989 461.317 392.827C463.431 392.694 466.076 391.969 467.292 390.215C467.594 389.813 467.802 389.356 467.902 388.875C468.003 388.393 467.993 387.896 467.875 387.418C467.756 386.94 467.531 386.49 467.214 386.098C466.897 385.706 466.496 385.381 466.035 385.144C463.216 383.79 458.171 386.288 456.159 388.147C456.016 388.29 454.178 390.434 453.738 391.006C453.963 389.014 454.208 387.022 454.535 385.068C454.962 382.431 455.572 379.823 456.363 377.26C456.547 377.327 461.572 379.1 464.003 378.938C466.117 378.805 468.762 378.08 469.978 376.326C470.281 375.925 470.491 375.468 470.592 374.986C470.693 374.504 470.685 374.007 470.566 373.528C470.447 373.049 470.222 372.599 469.904 372.208C469.586 371.816 469.183 371.491 468.721 371.255C465.903 369.901 460.857 372.399 458.845 374.258C458.692 374.41 456.721 376.717 456.394 377.118C456.394 376.965 456.465 376.812 456.516 376.66C457.385 374.11 458.496 371.638 459.836 369.272C460.551 367.957 461.327 366.737 462.093 365.564C463.002 365.984 467.128 367.852 469.334 367.938C471.54 368.024 474.165 367.566 475.585 365.955C475.933 365.586 476.194 365.152 476.35 364.682C476.506 364.212 476.555 363.717 476.492 363.228C476.43 362.74 476.257 362.269 475.987 361.847C475.716 361.425 475.353 361.061 474.921 360.779C472.286 359.149 466.975 361.112 464.759 362.762C464.636 362.847 463.523 363.886 462.716 364.668C463.073 364.144 463.431 363.6 463.788 363.105C465.116 361.198 466.444 359.606 467.649 358.176C468.333 357.366 468.967 356.642 469.579 355.974C470.693 355.974 475.176 355.831 477.137 354.974C479.098 354.116 481.223 352.571 481.703 350.522C481.825 350.048 481.839 349.556 481.746 349.077C481.653 348.598 481.455 348.142 481.163 347.739C480.87 347.335 480.492 346.993 480.05 346.734C479.608 346.474 479.114 346.303 478.598 346.232C475.452 345.918 471.704 349.95 470.56 352.362C470.458 352.571 469.304 356.003 469.365 355.994H469.406C468.813 356.632 468.18 357.309 467.506 358.072C466.27 359.482 464.891 361.093 463.523 362.943C462.017 364.912 460.636 366.962 459.386 369.082C457.979 371.451 456.8 373.933 455.863 376.498C455.858 376.53 455.858 376.562 455.863 376.593C455.863 375.726 455.863 373.305 455.812 373.114C455.444 370.502 453.095 365.64 449.98 365.097C449.46 365.022 448.929 365.049 448.421 365.177C447.913 365.306 447.439 365.532 447.031 365.842C446.623 366.152 446.289 366.539 446.051 366.977C445.813 367.415 445.676 367.895 445.649 368.386C445.466 370.473 447.089 372.551 448.662 373.867C450.439 375.354 455.373 376.784 455.812 376.898C454.938 379.531 454.256 382.216 453.769 384.934C453.463 386.517 453.207 388.118 452.983 389.7C452.983 388.947 452.983 388.28 452.983 388.185C452.615 385.563 450.266 380.702 447.151 380.168C446.631 380.093 446.099 380.12 445.591 380.248C445.083 380.377 444.61 380.603 444.202 380.913C443.794 381.223 443.46 381.61 443.222 382.048C442.984 382.486 442.847 382.966 442.82 383.457C442.636 385.544 444.25 387.622 445.833 388.938C447.416 390.253 451.614 391.578 452.727 391.902C452.646 392.522 452.554 393.142 452.472 393.809C452.094 396.774 451.726 399.738 451.277 402.636C451.114 403.656 450.919 404.657 450.725 405.658C450.725 404.991 450.725 404.428 450.725 404.342C450.358 401.73 448.009 396.869 444.894 396.325C444.373 396.25 443.842 396.278 443.334 396.407C442.825 396.536 442.352 396.763 441.945 397.074C441.537 397.386 441.204 397.773 440.968 398.213C440.732 398.652 440.597 399.133 440.573 399.624C440.389 401.702 442.003 403.78 443.576 405.095C445.149 406.411 448.948 407.602 450.276 408.003C450.041 409.023 449.806 410.043 449.541 411.025C449.336 411.692 449.183 412.34 448.948 412.998C448.713 413.656 448.499 414.304 448.274 414.904C447.794 416.124 447.314 417.383 446.814 418.565C446.477 419.394 446.14 420.166 445.792 420.957C445.966 419.937 446.252 417.945 446.252 417.783C446.222 415.458 445.55 413.18 444.301 411.168C444.31 410.909 444.293 410.651 444.25 410.395C444.184 409.908 444.009 409.439 443.736 409.019C443.463 408.598 443.099 408.236 442.666 407.956C442.234 407.676 441.743 407.483 441.226 407.391C440.709 407.299 440.177 407.309 439.664 407.421C436.6 408.184 434.66 413.198 434.558 415.838C434.558 415.991 434.66 417.697 434.741 418.765C434.588 418.145 434.445 417.535 434.282 416.858C433.965 415.6 433.598 414.342 433.261 412.998C433.046 412.35 432.842 411.701 432.627 411.034C432.413 410.367 432.127 409.709 431.882 409.042C431.279 407.498 430.585 405.953 429.839 404.419C431.024 404.152 435.222 403.16 436.907 401.95C438.592 400.739 440.359 398.785 440.338 396.697C440.355 396.203 440.259 395.71 440.056 395.253C439.854 394.795 439.549 394.384 439.162 394.045C438.776 393.706 438.317 393.447 437.815 393.287C437.314 393.126 436.781 393.067 436.253 393.113C433.097 393.428 430.37 398.118 429.798 400.739C429.798 400.901 429.574 402.798 429.492 403.847C429.042 402.893 428.593 402.007 428.113 401.092C426.704 398.442 425.192 395.801 423.691 393.17C423.231 392.36 422.782 391.55 422.332 390.739C422.751 390.644 427.766 389.567 429.655 388.213C431.33 387.012 433.107 385.049 433.097 382.961C433.111 382.467 433.012 381.976 432.808 381.52C432.605 381.064 432.3 380.654 431.914 380.315C431.528 379.977 431.071 379.718 430.57 379.557C430.07 379.395 429.539 379.334 429.012 379.377C425.866 379.691 423.129 384.381 422.557 387.003C422.557 387.193 422.251 389.929 422.22 390.625C421.199 388.842 420.259 387.06 419.37 385.268C418.177 382.848 417.153 380.358 416.306 377.813C416.5 377.766 421.74 376.66 423.67 375.268C425.345 374.067 427.122 372.103 427.112 370.016C427.126 369.522 427.027 369.031 426.823 368.575C426.619 368.119 426.315 367.709 425.929 367.37C425.543 367.032 425.085 366.773 424.585 366.612C424.085 366.45 423.554 366.388 423.027 366.432C419.881 366.756 417.144 371.436 416.572 374.058C416.572 374.258 416.245 377.194 416.235 377.737C416.184 377.585 416.112 377.442 416.071 377.289C415.284 374.715 414.747 372.08 414.468 369.415C414.294 367.947 414.213 366.555 414.162 365.164C415.183 365.049 419.718 364.477 421.607 363.41C423.497 362.342 425.417 360.617 425.692 358.548C425.764 358.061 425.726 357.565 425.579 357.093C425.432 356.621 425.181 356.182 424.841 355.807C424.501 355.431 424.08 355.126 423.605 354.912C423.131 354.698 422.614 354.579 422.087 354.564C418.921 354.564 415.653 358.939 414.774 361.446C414.774 361.589 414.417 363.028 414.192 364.077C414.192 363.457 414.192 362.809 414.192 362.218C414.192 359.978 414.356 357.929 414.499 356.117C414.601 355.088 414.703 354.211 414.815 353.258C415.734 352.667 419.401 350.245 420.524 348.491C421.648 346.737 422.567 344.383 421.699 342.438C421.522 341.982 421.245 341.564 420.886 341.213C420.527 340.862 420.094 340.584 419.614 340.397C419.133 340.211 418.616 340.12 418.096 340.13C417.576 340.14 417.064 340.251 416.592 340.456C413.773 341.819 413.038 347.128 413.528 349.712C413.528 349.94 414.631 353.391 414.682 353.363H414.744C414.611 354.192 414.488 355.088 414.376 356.07C414.192 357.89 413.988 359.94 413.927 362.18C413.837 364.6 413.902 367.022 414.121 369.434C414.347 372.137 414.825 374.816 415.551 377.442V377.527C415.05 376.803 413.579 374.801 413.447 374.668C411.598 372.666 406.767 369.825 403.846 370.979C403.367 371.184 402.94 371.48 402.593 371.849C402.245 372.219 401.984 372.652 401.827 373.121C401.67 373.59 401.621 374.085 401.682 374.573C401.743 375.061 401.913 375.532 402.181 375.955C402.957 377.775 405.531 378.643 407.625 378.967Z" fill="#263238"/>
<path d="M461.97 365.068C461.97 365.068 462.992 361.617 462.992 361.389C463.38 358.777 462.491 353.505 459.642 352.218C459.161 352.018 458.641 351.913 458.115 351.912C457.589 351.911 457.068 352.013 456.586 352.212C456.105 352.41 455.674 352.701 455.32 353.065C454.967 353.429 454.699 353.858 454.535 354.325C453.769 356.289 454.739 358.7 455.883 360.359C457.262 362.304 461.97 365.068 461.97 365.068Z" fill="#263238"/>
<path d="M364.208 273.785C365.832 274.452 369.815 274.366 369.815 274.366C369.815 274.366 368.957 271.936 368.886 271.793C368.007 270.086 365.25 267.274 363.013 267.56C362.641 267.616 362.285 267.744 361.97 267.937C361.655 268.129 361.387 268.382 361.183 268.678C360.98 268.974 360.846 269.307 360.79 269.655C360.733 270.003 360.757 270.358 360.858 270.696C361.246 272.098 362.839 273.175 364.208 273.785Z" fill="#263238"/>
<path d="M365.597 284.48C367.282 284.709 370.826 283.756 371.112 283.68C371.689 285.573 372.406 287.427 373.257 289.227C373.747 290.286 374.278 291.334 374.82 292.383C374.493 291.935 374.197 291.544 374.156 291.496C372.828 290.066 369.376 288.036 367.292 288.856C366.951 289.003 366.647 289.215 366.398 289.479C366.15 289.743 365.964 290.052 365.851 290.387C365.739 290.721 365.703 291.075 365.745 291.423C365.787 291.772 365.907 292.108 366.097 292.411C366.874 293.717 368.712 294.318 370.183 294.566C371.653 294.813 374.738 294.013 375.545 293.803C375.749 294.203 375.963 294.604 376.178 294.995C377.199 296.901 378.221 298.808 379.191 300.714C379.528 301.381 379.824 302.049 380.141 302.716L379.559 301.944C378.241 300.523 374.779 298.493 372.695 299.313C372.354 299.46 372.049 299.672 371.801 299.936C371.553 300.2 371.367 300.51 371.256 300.845C371.144 301.18 371.109 301.533 371.153 301.882C371.197 302.23 371.318 302.567 371.51 302.868C372.276 304.174 374.125 304.823 375.596 305.023C377.365 305.036 379.126 304.792 380.815 304.298C381.111 304.985 381.397 305.681 381.652 306.367C381.816 306.834 382 307.32 382.132 307.759C382.265 308.197 382.408 308.712 382.551 309.169C382.786 310.065 383.031 311 383.235 311.886C383.378 312.496 383.501 313.087 383.634 313.678C383.307 313.011 382.612 311.772 382.612 311.619C381.591 310.018 378.455 307.52 376.26 308.045C375.898 308.141 375.561 308.307 375.273 308.532C374.984 308.758 374.749 309.037 374.583 309.353C374.418 309.668 374.325 310.012 374.311 310.364C374.297 310.715 374.363 311.065 374.503 311.391C375.054 312.792 376.77 313.688 378.221 314.107C379.671 314.527 383.327 314.107 383.766 314.107C383.981 315.06 384.175 316.014 384.338 316.967C384.686 318.807 384.961 320.465 385.166 321.905H386.677C386.422 320.418 386.105 318.673 385.656 316.738C385.452 315.737 385.207 314.679 384.941 313.593C385.991 313.196 387.014 312.741 388.005 312.229C389.37 313.323 390.889 314.237 392.519 314.946C392.121 315.899 391.712 316.776 391.314 317.615C390.569 319.217 389.864 320.656 389.22 321.905H390.814C391.355 320.77 391.947 319.503 392.56 318.092C392.969 317.139 393.398 316.138 393.816 315.099C394.245 315.184 397.728 315.842 399.352 315.499C400.976 315.156 402.61 314.412 403.274 313.049C403.44 312.735 403.534 312.391 403.548 312.041C403.563 311.69 403.498 311.341 403.358 311.015C403.219 310.69 403.007 310.395 402.737 310.151C402.468 309.907 402.146 309.719 401.793 309.598C399.648 308.922 396.37 311.2 395.165 312.716C395.093 312.811 394.439 313.859 394.041 314.527C394.215 314.098 394.388 313.688 394.552 313.249C394.899 312.372 395.216 311.495 395.573 310.552C395.726 310.085 395.869 309.598 396.023 309.15C396.176 308.702 396.288 308.197 396.431 307.692C396.717 306.548 396.952 305.376 397.166 304.184C397.983 304.46 400.905 305.414 402.416 305.309C403.928 305.204 405.817 304.699 406.685 303.45C406.901 303.162 407.05 302.835 407.122 302.49C407.194 302.145 407.187 301.79 407.103 301.447C407.018 301.105 406.857 300.783 406.63 300.502C406.403 300.221 406.116 299.988 405.786 299.818C403.744 298.865 400.169 300.638 398.729 301.972C398.647 302.049 397.708 303.116 397.238 303.707C397.36 302.992 397.483 302.277 397.585 301.553C397.861 299.465 398.075 297.33 398.29 295.204L398.504 293.298C398.801 293.403 402.242 294.604 403.938 294.489C405.449 294.394 407.339 293.87 408.207 292.583C408.423 292.296 408.572 291.969 408.644 291.625C408.715 291.281 408.709 290.926 408.624 290.584C408.539 290.243 408.378 289.922 408.151 289.642C407.925 289.362 407.637 289.13 407.308 288.961C405.266 288.007 401.691 289.78 400.251 291.105C400.149 291.21 398.831 292.735 398.525 293.145C398.688 291.715 398.862 290.286 399.097 288.903C399.401 287.017 399.834 285.151 400.394 283.317C400.537 283.365 404.122 284.633 405.858 284.518C407.37 284.423 409.259 283.899 410.127 282.612C410.343 282.325 410.492 281.998 410.564 281.654C410.635 281.31 410.629 280.955 410.544 280.614C410.459 280.272 410.298 279.951 410.072 279.671C409.845 279.391 409.558 279.159 409.228 278.99C407.186 278.036 403.611 279.8 402.171 281.134C402.059 281.239 400.649 282.888 400.424 283.203C400.424 283.098 400.424 282.984 400.506 282.879C401.129 281.057 401.922 279.29 402.876 277.598C403.397 276.645 403.897 275.787 404.5 274.948C405.143 275.243 408.095 276.587 409.668 276.645C411.24 276.702 413.12 276.378 414.131 275.224C414.378 274.961 414.564 274.652 414.675 274.317C414.787 273.983 414.821 273.63 414.777 273.282C414.733 272.934 414.61 272.599 414.418 272.298C414.226 271.997 413.968 271.737 413.661 271.535C411.782 270.363 407.982 271.764 406.399 272.946C406.318 273.013 405.521 273.747 404.939 274.3C405.204 273.918 405.46 273.527 405.715 273.175C406.655 271.85 407.615 270.677 408.473 269.657C408.963 269.076 409.412 268.561 409.851 268.084C410.648 268.084 413.845 267.98 415.244 267.369C416.643 266.759 418.175 265.654 418.512 264.186C418.602 263.844 418.613 263.49 418.546 263.144C418.479 262.798 418.335 262.47 418.123 262.179C417.911 261.889 417.636 261.644 417.316 261.459C416.996 261.274 416.638 261.154 416.265 261.107C414.018 260.887 411.343 263.766 410.515 265.492C410.444 265.635 409.627 268.084 409.668 268.084L408.309 269.571C407.431 270.582 406.45 271.726 405.47 273.041C404.391 274.451 403.402 275.918 402.508 277.436C401.505 279.131 400.661 280.905 399.985 282.736C399.99 282.758 399.99 282.78 399.985 282.803C399.985 282.183 399.985 280.448 399.985 280.315C399.72 278.408 398.045 274.976 395.818 274.595C395.449 274.546 395.072 274.569 394.712 274.663C394.353 274.757 394.018 274.92 393.73 275.141C393.441 275.363 393.206 275.638 393.038 275.949C392.87 276.261 392.773 276.601 392.754 276.95C392.621 278.437 393.776 279.924 394.909 280.867C396.043 281.811 399.699 282.946 400.016 283.031C399.382 284.905 398.884 286.815 398.525 288.751C398.31 289.885 398.126 291.029 397.963 292.183C397.963 291.649 397.963 291.163 397.963 291.096C397.708 289.189 396.023 285.748 393.796 285.376C393.426 285.325 393.049 285.347 392.688 285.441C392.328 285.534 391.993 285.697 391.704 285.919C391.415 286.141 391.18 286.417 391.012 286.729C390.845 287.041 390.749 287.382 390.732 287.731C390.599 289.218 391.753 290.705 392.877 291.649C394 292.592 396.962 293.555 397.8 293.765C397.749 294.203 397.677 294.651 397.626 295.09C397.35 297.206 397.095 299.332 396.768 301.4C396.656 302.125 396.513 302.84 396.38 303.555C396.38 303.078 396.38 302.678 396.38 302.602C396.114 300.695 394.439 297.254 392.213 296.882C391.843 296.833 391.467 296.856 391.107 296.95C390.747 297.044 390.413 297.207 390.124 297.428C389.836 297.65 389.6 297.925 389.432 298.236C389.264 298.548 389.168 298.888 389.149 299.237C389.016 300.724 390.17 302.211 391.304 303.145C392.772 304.065 394.384 304.766 396.084 305.223C395.92 305.957 395.757 306.681 395.563 307.387C395.41 307.854 395.308 308.34 395.134 308.788C394.96 309.236 394.817 309.741 394.654 310.18C394.317 311.057 393.97 311.953 393.633 312.801C393.398 313.392 393.153 313.945 392.907 314.508C393.03 313.783 393.244 312.363 393.244 312.239C393.225 310.564 392.743 308.923 391.845 307.473C391.866 307.289 391.866 307.104 391.845 306.92C391.798 306.571 391.673 306.236 391.478 305.936C391.283 305.636 391.022 305.378 390.712 305.178C390.403 304.978 390.052 304.842 389.682 304.777C389.313 304.713 388.933 304.722 388.567 304.804C386.371 305.347 384.992 308.931 384.88 310.809C384.88 310.923 384.951 312.134 385.023 312.906C384.91 312.458 384.808 312.029 384.686 311.572C384.461 310.666 384.206 309.77 383.93 308.807C383.773 308.35 383.62 307.883 383.47 307.406C383.337 306.939 383.123 306.453 382.949 305.986C382.51 304.88 382.02 303.774 381.489 302.678C382.337 302.487 385.339 301.782 386.534 300.914C387.729 300.047 389.006 298.655 388.996 297.158C389.007 296.808 388.939 296.459 388.796 296.134C388.652 295.81 388.437 295.518 388.164 295.276C387.891 295.035 387.567 294.85 387.212 294.735C386.857 294.619 386.48 294.574 386.105 294.604C383.848 294.833 381.897 298.178 381.489 300.028C381.489 300.142 381.325 301.496 381.274 302.239C380.948 301.582 380.631 300.924 380.253 300.276C379.232 298.369 378.21 296.463 377.097 294.613C376.77 294.032 376.443 293.46 376.127 292.878C376.423 292.812 380.008 292.04 381.356 291.067C382.704 290.095 383.828 288.808 383.818 287.321C383.827 286.969 383.758 286.62 383.613 286.295C383.469 285.97 383.253 285.677 382.979 285.436C382.706 285.194 382.381 285.008 382.026 284.891C381.67 284.774 381.292 284.729 380.917 284.757C378.67 284.986 376.719 288.331 376.311 290.181C376.311 290.324 376.086 292.268 376.066 292.774C375.361 291.496 374.666 290.219 374.023 288.961C373.164 287.231 372.427 285.451 371.817 283.632C371.95 283.632 375.698 282.803 377.077 281.821C378.272 280.963 379.548 279.552 379.538 278.065C379.548 277.713 379.478 277.364 379.334 277.039C379.19 276.714 378.974 276.421 378.7 276.179C378.427 275.938 378.102 275.752 377.746 275.635C377.391 275.518 377.013 275.472 376.638 275.501C374.391 275.729 372.44 279.075 372.031 280.925C372.031 281.068 371.796 283.174 371.786 283.556C371.786 283.451 371.704 283.346 371.674 283.241C371.108 281.403 370.722 279.52 370.52 277.617C370.397 276.559 370.336 275.558 370.305 274.566C371.02 274.49 374.278 274.08 375.626 273.318C376.975 272.555 378.343 271.325 378.507 269.838C378.562 269.489 378.537 269.133 378.433 268.794C378.33 268.454 378.151 268.139 377.908 267.869C377.665 267.599 377.363 267.38 377.023 267.226C376.682 267.073 376.311 266.988 375.933 266.979C373.665 266.979 371.337 270.105 370.714 271.897C370.714 272.002 370.448 273.022 370.295 273.804C370.295 273.365 370.295 272.851 370.295 272.479C370.295 270.877 370.407 269.419 370.509 268.123C370.581 267.389 370.652 266.721 370.734 266.102C371.388 265.682 374.013 263.957 374.82 262.718C375.626 261.478 376.249 259.782 375.667 258.39C375.541 258.059 375.342 257.757 375.082 257.503C374.823 257.249 374.509 257.049 374.161 256.916C373.813 256.783 373.439 256.72 373.064 256.731C372.688 256.742 372.319 256.826 371.98 256.979C369.938 257.932 369.437 261.745 369.774 263.585C369.774 263.747 370.561 266.216 370.591 266.197C370.499 266.798 370.418 267.436 370.336 268.103C370.193 269.4 370.05 270.868 370.009 272.469C369.949 274.199 369.993 275.93 370.142 277.655C370.303 279.586 370.645 281.499 371.163 283.375C371.168 283.397 371.168 283.419 371.163 283.441C370.806 282.917 369.764 281.535 369.672 281.392C368.344 279.962 364.892 277.931 362.809 278.751C362.467 278.899 362.163 279.111 361.915 279.375C361.667 279.638 361.48 279.947 361.368 280.282C361.255 280.617 361.219 280.97 361.261 281.319C361.304 281.667 361.424 282.004 361.614 282.307C362.257 283.632 364.095 284.271 365.597 284.48Z" fill="#263238"/>
<path d="M404.429 274.557C404.429 274.557 405.154 272.088 405.174 271.926C405.45 270.02 404.817 266.292 402.774 265.377C402.431 265.233 402.06 265.158 401.683 265.156C401.307 265.155 400.935 265.228 400.591 265.37C400.246 265.512 399.938 265.72 399.686 265.981C399.434 266.242 399.244 266.549 399.128 266.883C398.577 268.285 399.271 270.001 400.098 271.183C401.058 272.574 404.429 274.557 404.429 274.557Z" fill="#263238"/>
<path d="M80.4284 363.925C78.161 364.878 72.5947 364.735 72.5947 364.735C72.5947 364.735 73.7897 361.341 73.8918 361.132C75.1174 358.748 78.9985 354.812 82.0625 355.212C82.5868 355.285 83.0887 355.46 83.5349 355.727C83.9811 355.994 84.3616 356.347 84.6511 356.761C84.9407 357.176 85.1328 357.643 85.2147 358.131C85.2967 358.62 85.2666 359.12 85.1265 359.597C84.6057 361.627 82.3689 363.133 80.4284 363.925Z" fill="#263238"/>
<path d="M78.5088 378.967C76.1597 379.281 71.1858 377.947 70.7977 377.832C69.9601 380.485 68.9366 383.084 67.7337 385.611C67.0494 387.088 66.314 388.547 65.5582 390.015C66.0076 389.395 66.4162 388.842 66.4877 388.776C68.3363 386.774 73.1672 383.933 76.0882 385.087C76.5739 385.287 77.0087 385.581 77.3638 385.949C77.7189 386.318 77.9863 386.752 78.1484 387.224C78.3105 387.696 78.3636 388.195 78.3043 388.687C78.2449 389.18 78.0745 389.655 77.8041 390.082C76.7215 391.912 74.1477 392.818 72.0539 393.094C69.9602 393.37 65.6706 392.322 64.5471 392.026C64.2509 392.579 63.9649 393.142 63.6585 393.695C62.2287 396.373 60.7784 399.033 59.4404 401.683C58.9706 402.636 58.5518 403.589 58.1229 404.485C58.5212 403.932 58.8685 403.475 58.9297 403.408C60.7784 401.416 65.6093 398.566 68.5303 399.729C69.0085 399.933 69.4354 400.228 69.7831 400.597C70.1308 400.965 70.3917 401.397 70.5487 401.865C70.7057 402.334 70.7554 402.828 70.6945 403.315C70.6335 403.803 70.4634 404.273 70.1951 404.695C69.1125 406.525 66.5285 407.431 64.445 407.717C62.3614 408.003 58.4804 407.04 57.1424 406.697C56.7339 407.65 56.3151 408.603 55.9679 409.557C55.7432 410.214 55.4776 410.834 55.2938 411.463L54.7423 413.493C54.4154 414.752 54.0682 416.058 53.7924 417.306C53.5882 418.164 53.4043 418.994 53.2205 419.823C53.6801 418.87 54.6197 417.078 54.7116 416.963C56.2232 414.723 60.5332 411.244 63.6075 411.959C64.1141 412.093 64.5849 412.325 64.9889 412.64C65.393 412.955 65.7214 413.347 65.9527 413.788C66.1839 414.23 66.3129 414.712 66.3312 415.203C66.3494 415.694 66.2566 416.184 66.0587 416.639C65.2927 418.603 62.8823 419.861 60.8703 420.452C58.6438 421.081 53.7209 420.5 53.0979 420.452C52.8017 421.825 52.526 423.169 52.291 424.437C51.811 427.011 51.4331 429.336 51.1369 431.338H49.0943C49.4415 429.26 49.8909 426.82 50.4629 424.113C50.759 422.721 51.1063 421.253 51.4842 419.709C50.0033 419.15 48.5575 418.513 47.1537 417.802C45.5298 419.442 41.3729 421.367 40.8316 421.615C41.4036 422.912 41.9653 424.17 42.5168 425.352C43.5382 427.592 44.5595 429.603 45.4481 431.348H43.1603C42.4045 429.765 41.5772 427.983 40.7295 426.038C40.1473 424.713 39.555 423.302 38.9626 421.844C38.36 421.958 33.4882 422.883 31.2106 422.406C29.168 421.968 26.6555 420.881 25.726 418.975C25.4926 418.536 25.3604 418.057 25.338 417.567C25.3156 417.078 25.4035 416.59 25.5961 416.134C25.7886 415.679 26.0815 415.266 26.4557 414.923C26.83 414.579 27.2773 414.313 27.7687 414.142C30.7715 413.188 35.3573 416.382 37.0425 418.508C37.1344 418.632 38.0638 420.109 38.6153 421.043C38.3702 420.443 38.1353 419.871 37.8902 419.251C37.4102 418.031 36.971 416.801 36.5012 415.438C36.2867 414.79 36.0824 414.142 35.8679 413.484C35.6535 412.826 35.5003 412.121 35.3062 411.434C34.8977 409.833 34.5606 408.193 34.2849 406.525C33.141 406.916 29.0454 408.251 26.9312 408.108C24.8171 407.965 22.1718 407.25 20.9564 405.496C20.6543 405.094 20.4463 404.637 20.3458 404.155C20.2453 403.673 20.2546 403.177 20.3731 402.699C20.4916 402.22 20.7166 401.771 21.0335 401.379C21.3505 400.987 21.7522 400.662 22.2126 400.424C25.0315 399.061 30.0872 401.568 32.089 403.427C32.2115 403.542 33.4882 405.029 34.1317 405.858C33.9682 404.905 33.7946 403.866 33.6618 402.846C33.2737 399.919 32.9673 396.936 32.6405 393.971C32.5486 393.018 32.4362 392.15 32.3341 391.245C31.9358 391.388 27.1048 393.065 24.7353 392.903C22.6314 392.77 19.9861 392.045 18.7605 390.291C18.4589 389.889 18.2514 389.432 18.1516 388.949C18.0519 388.467 18.0621 387.97 18.1815 387.492C18.301 387.014 18.5271 386.564 18.845 386.173C19.163 385.781 19.5657 385.457 20.027 385.22C22.8357 383.867 27.8913 386.364 29.8931 388.223C30.0463 388.366 31.9358 390.511 32.3239 391.083C32.089 389.09 31.8541 387.098 31.517 385.144C31.0938 382.507 30.4865 379.899 29.699 377.337C29.505 377.403 24.48 379.177 22.0492 379.014C19.9453 378.881 17.3 378.157 16.0744 376.403C15.7727 376 15.5653 375.543 15.4655 375.06C15.3658 374.578 15.376 374.082 15.4954 373.603C15.6149 373.125 15.841 372.675 16.1589 372.284C16.4769 371.892 16.8796 371.568 17.3409 371.331C20.1495 369.978 25.2052 372.475 27.207 374.334C27.3704 374.487 29.3416 376.793 29.6684 377.194C29.6173 377.041 29.5867 376.889 29.5356 376.736C28.6702 374.187 27.5628 371.714 26.2265 369.349C25.5014 368.033 24.7353 366.813 23.9591 365.64C23.0604 366.06 18.9239 367.928 16.7178 368.014C14.5118 368.1 11.8971 367.642 10.4775 366.031C10.1303 365.662 9.87017 365.228 9.71391 364.759C9.55764 364.29 9.50874 363.795 9.57036 363.307C9.63199 362.819 9.80277 362.349 10.0716 361.927C10.3405 361.504 10.7015 361.139 11.1311 360.855C13.7764 359.225 19.0873 361.189 21.3445 362.838C21.4671 362.924 22.5803 363.963 23.3872 364.744C23.0297 364.22 22.662 363.677 22.3658 363.181C21.0381 361.275 19.7001 359.683 18.5052 358.253C17.8209 357.442 17.1774 356.718 16.5749 356.051C15.4616 356.051 10.9779 355.908 9.01695 355.05C7.05598 354.192 4.9316 352.648 4.45157 350.598C4.3166 350.119 4.29198 349.618 4.37933 349.129C4.46667 348.641 4.664 348.175 4.95832 347.762C5.25263 347.35 5.63725 347 6.08684 346.736C6.53642 346.473 7.04077 346.301 7.56665 346.232C10.7226 345.918 14.4607 349.95 15.6148 352.362C15.7169 352.571 16.871 356.003 16.8098 355.994H16.7383C17.3409 356.632 17.9741 357.309 18.6482 358.072C19.8738 359.482 21.2526 361.093 22.6314 362.943C24.1232 364.911 25.4874 366.961 26.7167 369.082C28.1275 371.451 29.3101 373.933 30.2506 376.498V376.593C30.2506 375.726 30.2506 373.305 30.2506 373.114C30.608 370.502 32.9673 365.64 36.0824 365.097C36.6022 365.02 37.1335 365.046 37.6416 365.174C38.1497 365.302 38.6232 365.529 39.031 365.839C39.4388 366.15 39.7718 366.537 40.0082 366.976C40.2446 367.415 40.379 367.895 40.4027 368.386C40.5865 370.473 38.9728 372.551 37.3999 373.867C35.6228 375.354 30.6795 376.784 30.2506 376.898C31.1191 379.532 31.8014 382.217 32.2932 384.934C32.5997 386.517 32.8448 388.118 33.0797 389.7C33.0797 388.947 33.0797 388.28 33.0797 388.185C33.4474 385.563 35.7964 380.702 38.9115 380.168C39.4551 380.048 40.0205 380.044 40.5663 380.155C41.112 380.266 41.6241 380.49 42.065 380.81C42.5058 381.13 42.8643 381.538 43.1139 382.004C43.3635 382.47 43.4981 382.983 43.5075 383.504C43.6914 385.592 42.0777 387.67 40.5048 388.985C38.9319 390.301 34.724 391.626 33.6108 391.95C33.6925 392.57 33.7844 393.189 33.8559 393.857C34.244 396.821 34.6015 399.786 35.0611 402.684C35.2143 403.704 35.4185 404.705 35.6126 405.705C35.6126 405.038 35.6126 404.476 35.6126 404.39C35.9803 401.778 38.3294 396.917 41.4547 396.373C41.9699 396.299 42.496 396.327 42.9994 396.453C43.5028 396.579 43.9726 396.802 44.3789 397.106C44.7852 397.411 45.1191 397.792 45.3595 398.223C45.5998 398.655 45.7413 399.129 45.7749 399.614C45.9588 401.692 44.345 403.77 42.762 405.086C41.1789 406.401 37.3897 407.593 36.0722 407.993C36.3071 409.013 36.5318 410.033 36.8076 411.015C37.0118 411.682 37.1548 412.331 37.3999 412.988C37.6451 413.646 37.8493 414.294 38.074 414.895C38.5438 416.115 39.0341 417.373 39.5243 418.555C39.8614 419.385 40.2086 420.157 40.5457 420.948C40.372 419.928 40.0861 417.936 40.0758 417.774C40.1111 415.449 40.7826 413.172 42.0266 411.158C42.0233 410.9 42.0403 410.642 42.0777 410.386C42.1439 409.898 42.3191 409.429 42.592 409.009C42.8648 408.589 43.2292 408.227 43.6616 407.947C44.0939 407.666 44.5845 407.474 45.1017 407.382C45.6188 407.289 46.1509 407.3 46.6635 407.412C49.7275 408.174 51.668 413.188 51.7702 415.829C51.7702 415.981 51.668 417.688 51.5761 418.755C51.7293 418.136 51.8723 417.526 52.0459 416.849C52.3625 415.591 52.72 414.332 53.0673 412.988C53.2715 412.34 53.486 411.692 53.7005 411.025C53.915 410.357 54.1907 409.7 54.4359 409.032C55.0487 407.488 55.7296 405.947 56.4785 404.409C55.2836 404.142 51.0961 403.151 49.4109 401.94C47.7257 400.729 45.9588 398.775 45.969 396.688C45.9538 396.193 46.0511 395.702 46.2544 395.245C46.4577 394.788 46.7624 394.377 47.1485 394.039C47.5345 393.7 47.9931 393.441 48.494 393.28C48.9949 393.119 49.5267 393.059 50.0543 393.104C53.2 393.418 55.9372 398.108 56.5092 400.73C56.5092 400.892 56.7339 402.789 56.8156 403.837C57.265 402.884 57.7041 401.997 58.1944 401.082C59.6038 398.432 61.1154 395.792 62.6168 393.161C63.0764 392.35 63.5156 391.54 63.9752 390.73C63.5462 390.635 58.5314 389.557 56.6522 388.204C54.967 387.003 53.1898 385.039 53.2103 382.951C53.1934 382.457 53.2896 381.964 53.4924 381.507C53.6951 381.05 53.9998 380.638 54.3862 380.299C54.7726 379.96 55.2319 379.701 55.7335 379.541C56.2351 379.38 56.7676 379.321 57.2956 379.367C60.4515 379.682 63.1785 384.372 63.7505 386.993C63.7505 387.184 64.0671 389.92 64.0977 390.616C65.1191 388.833 66.0587 387.05 66.937 385.258C68.1259 382.836 69.1493 380.347 70.0011 377.804C69.807 377.756 64.5675 376.65 62.6372 375.259C60.952 374.058 59.1749 372.094 59.1953 370.006C59.1801 369.512 59.2774 369.02 59.4807 368.564C59.6841 368.107 59.9888 367.696 60.3748 367.357C60.7609 367.018 61.2194 366.76 61.7203 366.599C62.2212 366.438 62.753 366.377 63.2806 366.422C66.4366 366.746 69.1738 371.427 69.7457 374.048C69.7457 374.248 70.0725 377.184 70.0828 377.728C70.0828 377.575 70.1951 377.432 70.2462 377.28C71.0239 374.703 71.5604 372.069 71.8497 369.406C72.0233 367.938 72.105 366.546 72.1459 365.154C71.1245 365.04 66.5898 364.468 64.7105 363.4C62.8313 362.333 60.9009 360.607 60.6252 358.539C60.5534 358.052 60.5918 357.557 60.738 357.085C60.8841 356.614 61.1347 356.176 61.4736 355.8C61.8125 355.425 62.2321 355.12 62.7052 354.905C63.1783 354.69 63.6945 354.571 64.2203 354.554C67.3966 354.554 70.6649 358.93 71.5331 361.437C71.5331 361.58 71.9007 363.019 72.1152 364.068C72.1152 363.448 72.1152 362.8 72.1152 362.209C72.1152 359.969 71.962 357.919 71.8088 356.108C71.7169 355.078 71.6046 354.201 71.5024 353.248C70.5832 352.657 66.9166 350.236 65.7931 348.482C64.6697 346.728 63.7505 344.373 64.6084 342.429C64.7911 341.96 65.0787 341.533 65.4521 341.176C65.8255 340.82 66.2762 340.541 66.7739 340.36C67.2717 340.179 67.8051 340.099 68.3387 340.125C68.8723 340.151 69.3938 340.283 69.8683 340.513C72.677 341.876 73.4225 347.185 72.9323 349.769C72.9323 349.998 71.8292 353.448 71.7782 353.42C71.9007 354.249 72.0233 355.145 72.1357 356.127C72.3297 357.948 72.534 359.997 72.585 362.237C72.6731 364.657 72.6117 367.079 72.4012 369.492C72.1763 372.195 71.6944 374.875 70.9611 377.499V377.585C71.4616 376.86 72.9221 374.858 73.0549 374.725C74.9137 372.723 79.7446 369.882 82.6656 371.036C83.1433 371.242 83.5693 371.539 83.916 371.909C84.2628 372.278 84.5225 372.711 84.6785 373.18C84.8345 373.649 84.8832 374.144 84.8214 374.632C84.7597 375.119 84.589 375.589 84.3202 376.012C83.1865 377.775 80.6025 378.643 78.5088 378.967Z" fill="#263238"/>
<path d="M24.1734 365.068C24.1734 365.068 23.152 361.617 23.152 361.389C22.7639 358.777 23.6627 353.505 26.5122 352.218C26.9926 352.018 27.5128 351.913 28.0392 351.912C28.5655 351.911 29.0863 352.013 29.5677 352.212C30.0491 352.41 30.4804 352.701 30.8338 353.065C31.1872 353.429 31.4546 353.858 31.6189 354.325C32.3747 356.289 31.4147 358.7 30.2606 360.359C28.8817 362.304 24.1734 365.068 24.1734 365.068Z" fill="#263238"/>
<path d="M121.916 273.785C120.292 274.452 116.319 274.366 116.319 274.366C116.319 274.366 117.167 271.936 117.249 271.793C118.117 270.086 120.875 267.274 123.121 267.56C123.493 267.617 123.847 267.746 124.161 267.939C124.475 268.132 124.742 268.385 124.944 268.681C125.147 268.977 125.28 269.31 125.336 269.657C125.391 270.004 125.367 270.358 125.266 270.696C124.899 272.098 123.305 273.175 121.916 273.785Z" fill="#263238"/>
<path d="M120.549 284.48C118.863 284.709 115.319 283.756 115.033 283.68C114.448 285.572 113.728 287.425 112.878 289.227C112.398 290.286 111.857 291.334 111.326 292.383C111.653 291.935 111.939 291.544 111.99 291.496C113.307 290.066 116.77 288.036 118.853 288.856C119.195 289.003 119.499 289.215 119.747 289.479C119.995 289.743 120.181 290.052 120.293 290.388C120.404 290.723 120.439 291.076 120.396 291.425C120.352 291.773 120.23 292.109 120.038 292.411C119.272 293.717 117.423 294.318 115.953 294.566C114.482 294.813 111.397 294.013 110.591 293.803C110.376 294.203 110.172 294.604 109.957 294.995C108.936 296.901 107.915 298.808 106.893 300.714C106.556 301.381 106.25 302.049 105.943 302.716L106.515 301.944C107.843 300.523 111.295 298.493 113.379 299.313C113.72 299.46 114.025 299.672 114.273 299.936C114.521 300.2 114.707 300.509 114.82 300.844C114.932 301.179 114.968 301.532 114.926 301.88C114.884 302.229 114.764 302.566 114.574 302.868C113.798 304.174 111.959 304.823 110.488 305.023C108.722 305.036 106.965 304.792 105.28 304.298C104.983 304.985 104.687 305.681 104.442 306.367C104.279 306.834 104.095 307.32 103.962 307.759L103.533 309.169C103.308 310.065 103.063 311 102.859 311.886C102.716 312.496 102.583 313.087 102.451 313.678C102.777 313.011 103.472 311.772 103.523 311.619C104.544 310.018 107.68 307.52 109.876 308.045C110.238 308.141 110.574 308.307 110.862 308.532C111.151 308.758 111.385 309.037 111.55 309.353C111.715 309.669 111.807 310.014 111.819 310.365C111.831 310.716 111.764 311.065 111.622 311.391C111.081 312.792 109.355 313.688 107.915 314.107C106.321 314.555 102.808 314.107 102.369 314.107C102.154 315.06 101.96 316.014 101.787 316.967C101.439 318.807 101.174 320.465 100.97 321.905H99.4886C99.7338 320.418 100.061 318.673 100.51 316.738C100.724 315.737 100.97 314.679 101.235 313.593C100.186 313.194 99.163 312.739 98.1711 312.229C96.8094 313.327 95.2899 314.241 93.6568 314.946C94.0653 315.899 94.4637 316.776 94.862 317.615C95.6076 319.217 96.3225 320.656 96.9659 321.905H95.2909C94.7394 320.767 94.1573 319.496 93.5445 318.092C93.1257 317.139 92.707 316.138 92.278 315.099C91.8592 315.184 88.3765 315.842 86.7423 315.499C85.2716 315.194 83.4945 314.412 82.8306 313.049C82.6584 312.73 82.5616 312.38 82.5467 312.023C82.5319 311.666 82.5994 311.31 82.7446 310.979C82.8898 310.648 83.1094 310.35 83.3886 310.106C83.6677 309.861 83.9999 309.675 84.3626 309.56C86.5074 308.883 89.7859 311.162 90.9809 312.677C91.0524 312.773 91.706 313.821 92.1044 314.489C91.941 314.06 91.7673 313.65 91.5937 313.211C91.2567 312.334 90.94 311.457 90.5724 310.514C90.4294 310.046 90.2762 309.56 90.123 309.112C89.9698 308.664 89.8574 308.159 89.7246 307.654C89.4285 306.51 89.1936 305.337 88.9893 304.146C88.1722 304.422 85.2512 305.375 83.7294 305.271C82.2076 305.166 80.3385 304.661 79.4602 303.412C79.2461 303.123 79.0991 302.795 79.0289 302.45C78.9586 302.105 78.9665 301.75 79.0521 301.408C79.1378 301.066 79.2992 300.744 79.526 300.464C79.7529 300.183 80.0401 299.95 80.3692 299.78C82.4119 298.827 85.9865 300.6 87.4164 301.934C87.5083 302.011 88.4378 303.078 88.9076 303.669C88.7952 302.954 88.6625 302.239 88.5705 301.515C88.2948 299.427 88.0803 297.292 87.8556 295.166C87.7943 294.518 87.7126 293.87 87.6411 293.26C87.3551 293.365 83.903 294.566 82.2076 294.451C80.7062 294.356 78.8168 293.832 77.9384 292.545C77.7225 292.258 77.5738 291.931 77.502 291.587C77.4302 291.243 77.4369 290.888 77.5217 290.546C77.6064 290.205 77.7674 289.883 77.9941 289.604C78.2207 289.324 78.508 289.092 78.8372 288.922C80.8799 287.969 84.4648 289.742 85.8946 291.067C86.007 291.172 87.3143 292.697 87.6309 293.107C87.4675 291.677 87.2939 290.247 87.059 288.865C86.7449 286.99 86.298 285.137 85.721 283.317C85.5882 283.365 81.9931 284.633 80.2568 284.518C78.7555 284.423 76.866 283.899 75.9877 282.612C75.7717 282.325 75.623 281.998 75.5512 281.654C75.4794 281.31 75.4861 280.955 75.5709 280.614C75.6557 280.272 75.8167 279.951 76.0433 279.671C76.27 279.391 76.5573 279.159 76.8864 278.99C78.9291 278.036 82.514 279.8 83.9439 281.134C84.0562 281.239 85.4657 282.888 85.7006 283.203C85.7006 283.098 85.7006 282.984 85.6087 282.879C84.9861 281.057 84.1933 279.29 83.2392 277.598C82.7285 276.645 82.2178 275.787 81.6254 274.948C80.982 275.243 78.0303 276.587 76.4473 276.645C74.8642 276.702 73.0053 276.378 71.984 275.224C71.7364 274.961 71.5509 274.652 71.4396 274.317C71.3283 273.983 71.2936 273.63 71.3379 273.282C71.3823 272.934 71.5045 272.599 71.6967 272.298C71.889 271.997 72.1469 271.737 72.4538 271.535C74.3433 270.363 78.1427 271.764 79.7257 272.946C79.8075 273.013 80.6041 273.747 81.176 274.3C80.9207 273.918 80.6654 273.527 80.41 273.175C79.4602 271.85 78.5104 270.677 77.6524 269.657C77.1622 269.076 76.7026 268.561 76.2736 268.084C75.477 268.084 72.27 267.98 70.8707 267.369C69.4715 266.759 67.9395 265.654 67.6127 264.186C67.5217 263.845 67.5087 263.49 67.5744 263.145C67.6402 262.799 67.7832 262.47 67.9943 262.18C68.2053 261.889 68.4796 261.644 68.7993 261.459C69.1189 261.274 69.4767 261.154 69.8494 261.107C72.1066 260.887 74.7825 263.766 75.5995 265.492C75.671 265.635 76.4983 268.084 76.4575 268.084H76.4064C76.8354 268.542 77.2847 269.038 77.7648 269.571C78.6431 270.582 79.6338 271.726 80.6143 273.041C81.6857 274.453 82.6712 275.92 83.566 277.436C84.573 279.129 85.4173 280.903 86.0887 282.736C86.0887 282.736 86.0887 282.783 86.0887 282.803C86.0887 282.183 86.0887 280.448 86.0887 280.315C86.344 278.408 88.0292 274.976 90.2557 274.595C90.6257 274.544 91.003 274.566 91.3633 274.659C91.7236 274.753 92.0589 274.916 92.3476 275.138C92.6363 275.36 92.872 275.635 93.0394 275.947C93.2069 276.26 93.3024 276.601 93.3198 276.95C93.4525 278.437 92.2984 279.924 91.1749 280.867C89.8983 281.926 86.3747 282.946 86.0683 283.031C86.6986 284.905 87.1933 286.816 87.5492 288.751C87.7739 289.885 87.9475 291.029 88.1109 292.183C88.1109 291.649 88.1109 291.163 88.1109 291.096C88.3765 289.189 90.0515 285.748 92.278 285.376C92.6477 285.327 93.0244 285.35 93.384 285.444C93.7437 285.538 94.0784 285.701 94.3667 285.923C94.655 286.144 94.8907 286.419 95.0586 286.731C95.2266 287.042 95.3231 287.383 95.342 287.731C95.4748 289.218 94.3207 290.705 93.187 291.649C92.0533 292.592 89.1016 293.555 88.2641 293.765L88.448 295.09C88.7135 297.206 88.9791 299.332 89.3059 301.4C89.4182 302.125 89.5612 302.84 89.694 303.555C89.694 303.078 89.694 302.678 89.694 302.602C89.9493 300.695 91.6346 297.254 93.8611 296.882C94.231 296.831 94.6083 296.853 94.9686 296.946C95.3289 297.04 95.6642 297.203 95.9529 297.425C96.2416 297.646 96.4773 297.922 96.6447 298.234C96.8122 298.547 96.9077 298.888 96.9251 299.237C97.0579 300.724 95.9037 302.211 94.7803 303.145C93.3124 304.065 91.6998 304.766 90.0004 305.223C90.1638 305.957 90.3272 306.681 90.5213 307.387C90.6643 307.854 90.7664 308.34 90.94 308.788C91.1137 309.236 91.2669 309.741 91.4201 310.18C91.7673 311.057 92.1044 311.953 92.4414 312.801C92.6865 313.392 92.9317 313.945 93.1666 314.508C93.044 313.783 92.8397 312.363 92.8397 312.239C92.855 310.565 93.3335 308.923 94.2288 307.473C94.2135 307.289 94.2135 307.104 94.2288 306.92C94.2743 306.571 94.3985 306.235 94.5933 305.934C94.788 305.633 95.0489 305.374 95.3586 305.174C95.6684 304.974 96.02 304.838 96.3904 304.774C96.7607 304.71 97.1414 304.72 97.5072 304.804C99.6929 305.347 101.082 308.931 101.184 310.809C101.184 310.923 101.113 312.134 101.051 312.906C101.164 312.458 101.266 312.029 101.378 311.572C101.613 310.666 101.868 309.77 102.144 308.807C102.287 308.35 102.44 307.854 102.594 307.406C102.747 306.958 102.951 306.453 103.125 305.986C103.554 304.88 104.054 303.774 104.575 302.678C103.727 302.487 100.735 301.782 99.5295 300.914C98.3243 300.047 97.0579 298.655 97.0681 297.158C97.0581 296.807 97.1276 296.458 97.2721 296.134C97.4166 295.809 97.6328 295.517 97.9065 295.276C98.1803 295.035 98.5054 294.85 98.8608 294.735C99.2161 294.619 99.5936 294.574 99.9687 294.604C102.216 294.833 104.177 298.178 104.585 300.028C104.585 300.142 104.738 301.496 104.8 302.239C105.116 301.582 105.433 300.924 105.821 300.276C106.842 298.369 107.864 296.463 108.977 294.613L109.998 292.878C109.692 292.812 106.107 292.04 104.759 291.067C103.411 290.095 102.297 288.808 102.308 287.321C102.296 286.97 102.364 286.621 102.508 286.296C102.651 285.971 102.866 285.678 103.139 285.436C103.411 285.194 103.736 285.008 104.091 284.891C104.446 284.774 104.823 284.728 105.198 284.757C107.455 284.986 109.406 288.331 109.814 290.181C109.814 290.324 110.029 292.268 110.049 292.774C110.764 291.496 111.459 290.219 112.092 288.961C112.954 287.231 113.694 285.451 114.308 283.632C114.165 283.632 110.427 282.803 109.038 281.821C107.843 280.963 106.577 279.552 106.587 278.065C106.576 277.714 106.644 277.364 106.787 277.04C106.93 276.715 107.145 276.422 107.418 276.18C107.691 275.938 108.015 275.752 108.37 275.635C108.725 275.518 109.102 275.472 109.477 275.501C111.734 275.729 113.685 279.075 114.094 280.925C114.094 281.068 114.329 283.174 114.339 283.556C114.339 283.451 114.421 283.346 114.451 283.241C115.009 281.401 115.392 279.519 115.595 277.617C115.728 276.559 115.779 275.558 115.81 274.566C115.105 274.49 111.847 274.08 110.499 273.318C109.15 272.555 107.772 271.325 107.608 269.838C107.557 269.489 107.584 269.133 107.689 268.794C107.794 268.456 107.974 268.141 108.218 267.871C108.462 267.602 108.763 267.383 109.103 267.229C109.444 267.075 109.815 266.99 110.192 266.979C112.449 266.979 114.788 270.105 115.411 271.897C115.411 272.002 115.677 273.022 115.83 273.804C115.83 273.365 115.83 272.851 115.83 272.479C115.83 270.877 115.718 269.419 115.605 268.123C115.544 267.389 115.462 266.721 115.391 266.102C114.727 265.682 112.112 263.957 111.306 262.718C110.499 261.478 109.876 259.782 110.468 258.39C110.594 258.059 110.793 257.757 111.053 257.503C111.312 257.249 111.626 257.049 111.974 256.916C112.322 256.783 112.696 256.72 113.072 256.731C113.448 256.742 113.817 256.826 114.155 256.979C116.198 257.932 116.698 261.745 116.361 263.585C116.361 263.747 115.575 266.216 115.534 266.197C115.616 266.798 115.707 267.436 115.789 268.103C115.922 269.4 116.065 270.868 116.106 272.469C116.166 274.199 116.122 275.93 115.973 277.655C115.817 279.586 115.475 281.5 114.952 283.375C114.956 283.397 114.956 283.419 114.952 283.441C115.309 282.917 116.361 281.535 116.453 281.392C117.771 279.962 121.233 277.931 123.316 278.751C123.658 278.898 123.963 279.111 124.211 279.375C124.459 279.638 124.644 279.948 124.756 280.283C124.868 280.618 124.903 280.972 124.859 281.32C124.815 281.669 124.693 282.005 124.501 282.307C123.888 283.632 122.04 284.271 120.549 284.48Z" fill="#263238"/>
<path d="M81.7162 274.557C81.7162 274.557 80.9911 272.088 80.9707 271.926C80.6847 270.02 81.3281 266.293 83.3606 265.378C83.7043 265.233 84.0767 265.158 84.4537 265.156C84.8307 265.155 85.2037 265.228 85.5486 265.37C85.8935 265.512 86.2025 265.72 86.4554 265.981C86.7084 266.242 86.8998 266.549 87.017 266.884C87.5583 268.285 86.8638 270.001 86.0467 271.183C85.0764 272.575 81.7162 274.557 81.7162 274.557Z" fill="#263238"/>
<path d="M277.559 94.832H208.241L197.17 141.818H288.631L277.559 94.832Z" fill="#F0F0F0" stroke="#263238" stroke-linecap="round" stroke-linejoin="round"/>
<path d="M299.671 140.96H186.129L168 211.071H317.8L299.671 140.96Z" fill="#E3E3E3" stroke="#263238" stroke-linecap="round" stroke-linejoin="round"/>
<path d="M277.487 141.083H208.322V149.596H277.487V141.083Z" fill="white" stroke="#263238" stroke-linecap="round" stroke-linejoin="round"/>
<path d="M279.347 148.805H206.454V157.498H279.347V148.805Z" fill="white" stroke="#263238" stroke-linecap="round" stroke-linejoin="round"/>
<path d="M281.216 156.975H204.595V165.84H281.216V156.975Z" fill="white" stroke="#263238" stroke-linecap="round" stroke-linejoin="round"/>
<path d="M283.074 165.371H202.726V174.417H283.074V165.371Z" fill="white" stroke="#263238" stroke-linecap="round" stroke-linejoin="round"/>
<path d="M284.944 173.989H200.867V183.207H284.944V173.989Z" fill="white" stroke="#263238" stroke-linecap="round" stroke-linejoin="round"/>
<path d="M286.802 182.826H198.998V192.225H286.802V182.826Z" fill="white" stroke="#263238" stroke-linecap="round" stroke-linejoin="round"/>
<path d="M288.661 192.111H197.129V201.691H288.661V192.111Z" fill="white" stroke="#263238" stroke-linecap="round" stroke-linejoin="round"/>
<path d="M290.531 201.176H195.271V210.928H290.531V201.176Z" fill="white" stroke="#263238" stroke-linecap="round" stroke-linejoin="round"/>
<path d="M259.063 94.9463H226.737V100.57H259.063V94.9463Z" fill="white" stroke="#263238" stroke-linecap="round" stroke-linejoin="round"/>
<path d="M259.941 100.055H225.869V105.793H259.941V100.055Z" fill="white" stroke="#263238" stroke-linecap="round" stroke-linejoin="round"/>
<path d="M260.798 105.451H224.99V111.304H260.798V105.451Z" fill="white" stroke="#263238" stroke-linecap="round" stroke-linejoin="round"/>
<path d="M261.678 110.99H224.123V116.967H261.678V110.99Z" fill="white" stroke="#263238" stroke-linecap="round" stroke-linejoin="round"/>
<path d="M262.556 116.681H223.255V122.772H262.556V116.681Z" fill="white" stroke="#263238" stroke-linecap="round" stroke-linejoin="round"/>
<path d="M263.414 122.524H222.377V128.73H263.414V122.524Z" fill="white" stroke="#263238" stroke-linecap="round" stroke-linejoin="round"/>
<path d="M264.292 128.653H221.508V134.983H264.292V128.653Z" fill="white" stroke="#263238" stroke-linecap="round" stroke-linejoin="round"/>
<path d="M265.16 134.64H220.64V141.084H265.16V134.64Z" fill="white" stroke="#263238" stroke-linecap="round" stroke-linejoin="round"/>
<path d="M338.614 210.585H147.184L116.626 315.843H369.172L338.614 210.585Z" fill="#C7C7C7" stroke="#263238" stroke-linecap="round" stroke-linejoin="round"/>
<path d="M409.945 312.544H75.8549L43.5908 431.262H442.209L409.945 312.544Z" fill="#C7C7C7" stroke="#263238" stroke-linecap="round" stroke-linejoin="round"/>
<path d="M368.631 324.45H117.167L118.025 312.725H367.773L368.631 324.45Z" fill="white" stroke="#263238" stroke-linecap="round" stroke-linejoin="round"/>
<path d="M371.828 336.691H113.971L114.869 324.575H370.929L371.828 336.691Z" fill="white" stroke="#263238" stroke-linecap="round" stroke-linejoin="round"/>
<path d="M375.078 349.101H110.725L111.674 336.595H374.128L375.078 349.101Z" fill="white" stroke="#263238" stroke-linecap="round" stroke-linejoin="round"/>
<path d="M378.366 361.693H107.436L108.426 348.786H377.375L378.366 361.693Z" fill="white" stroke="#263238" stroke-linecap="round" stroke-linejoin="round"/>
<path d="M381.706 374.468H104.096L105.137 361.151H380.664L381.706 374.468Z" fill="white" stroke="#263238" stroke-linecap="round" stroke-linejoin="round"/>
<path d="M385.167 388.337H100.633L101.726 374.582H384.075L385.167 388.337Z" fill="white" stroke="#263238" stroke-linecap="round" stroke-linejoin="round"/>
<path d="M388.681 402.417H97.1191L98.263 388.223H387.537L388.681 402.417Z" fill="white" stroke="#263238" stroke-linecap="round" stroke-linejoin="round"/>
<path d="M392.256 416.724H93.5449L94.7501 402.063H391.051L392.256 416.724Z" fill="white" stroke="#263238" stroke-linecap="round" stroke-linejoin="round"/>
<path d="M395.882 431.262H89.9199L91.1864 416.134H394.616L395.882 431.262Z" fill="white" stroke="#263238" stroke-linecap="round" stroke-linejoin="round"/>
<path d="M309.251 210.547H176.549V223.006H309.251V210.547Z" fill="white" stroke="#263238" stroke-linecap="round" stroke-linejoin="round"/>
<path d="M312.826 221.843H172.975V234.559H312.826V221.843Z" fill="white" stroke="#263238" stroke-linecap="round" stroke-linejoin="round"/>
<path d="M316.41 233.795H169.398V246.769H316.41V233.795Z" fill="white" stroke="#263238" stroke-linecap="round" stroke-linejoin="round"/>
<path d="M319.975 246.083H165.814V259.314H319.975V246.083Z" fill="white" stroke="#263238" stroke-linecap="round" stroke-linejoin="round"/>
<path d="M323.561 258.686H162.24V272.174H323.561V258.686Z" fill="white" stroke="#263238" stroke-linecap="round" stroke-linejoin="round"/>
<path d="M327.136 271.621H158.666V285.376H327.136V271.621Z" fill="white" stroke="#263238" stroke-linecap="round" stroke-linejoin="round"/>
<path d="M330.721 285.206H155.092V299.219H330.721V285.206Z" fill="white" stroke="#263238" stroke-linecap="round" stroke-linejoin="round"/>
<path d="M334.285 298.474H151.506V312.744H334.285V298.474Z" fill="white" stroke="#263238" stroke-linecap="round" stroke-linejoin="round"/>
<path d="M144.386 141.577L135.245 149.07" stroke="#41BDC9" stroke-linecap="round" stroke-linejoin="round"/>
<path d="M225.737 74.8213L150.015 136.954" stroke="#41BDC9" stroke-linecap="round" stroke-linejoin="round"/>
<path d="M217.781 72.9727L166.07 90.5982" stroke="#41BDC9" stroke-linecap="round" stroke-linejoin="round"/>
<path d="M170.42 65.7471L137.236 68.3304" stroke="#41BDC9" stroke-linecap="round" stroke-linejoin="round"/>
<path d="M208.823 62.7637L174.128 65.4614" stroke="#41BDC9" stroke-linecap="round" stroke-linejoin="round"/>
<path d="M119.977 21.6782L111.377 19.1426" stroke="#41BDC9" stroke-linecap="round" stroke-linejoin="round"/>
<path d="M194.114 43.5273L122.457 22.4033" stroke="#41BDC9" stroke-linecap="round" stroke-linejoin="round"/>
<path d="M205.84 46.9872L198.926 44.9473" stroke="#41BDC9" stroke-linecap="round" stroke-linejoin="round"/>
<path d="M344.865 141.577L354.006 149.07" stroke="#41BDC9" stroke-linecap="round" stroke-linejoin="round"/>
<path d="M263.516 74.8213L339.238 136.954" stroke="#41BDC9" stroke-linecap="round" stroke-linejoin="round"/>
<path d="M271.472 72.9727L323.182 90.5982" stroke="#41BDC9" stroke-linecap="round" stroke-linejoin="round"/>
<path d="M318.832 65.7471L352.015 68.3304" stroke="#41BDC9" stroke-linecap="round" stroke-linejoin="round"/>
<path d="M280.419 62.7637L315.124 65.4614" stroke="#41BDC9" stroke-linecap="round" stroke-linejoin="round"/>
<path d="M369.274 21.6782L377.874 19.1426" stroke="#41BDC9" stroke-linecap="round" stroke-linejoin="round"/>
<path d="M295.136 43.5273L366.793 22.4033" stroke="#41BDC9" stroke-linecap="round" stroke-linejoin="round"/>
<path d="M283.4 46.9872L290.325 44.9473" stroke="#41BDC9" stroke-linecap="round" stroke-linejoin="round"/>
<path d="M232.292 193.635C232.292 193.635 228.206 192.51 228.441 195.885C228.676 199.259 233.007 201.499 233.007 201.499L232.292 193.635Z" fill="white" stroke="#263238" stroke-linecap="round" stroke-linejoin="round"/>
<path d="M257.314 193.636C257.314 193.636 260.684 192.063 260.684 194.99C260.684 197.916 257.079 200.823 257.079 200.823L257.314 193.636Z" fill="white" stroke="#263238" stroke-linecap="round" stroke-linejoin="round"/>
<path d="M231.811 184.427C231.811 184.427 232.046 200.375 233.006 203.301C233.966 206.228 236.857 210.041 239.512 210.041C242.168 210.041 251.064 209.364 252.79 208.468C254.091 207.593 255.158 206.449 255.909 205.127C256.66 203.804 257.074 202.338 257.12 200.842C257.12 197.248 257.6 188.268 257.6 188.268C258.659 187.502 259.489 186.494 260.01 185.342C260.971 183.321 257.6 180.404 256.875 180.175C256.15 179.947 253.505 179.279 253.505 179.279C253.505 179.279 255.19 177.935 254.71 176.81C254.23 175.686 249.654 175.009 247.734 175.009C246.201 175.157 244.723 175.619 243.404 176.362C243.404 176.362 235.703 176.134 233.292 178.831C232.589 179.588 232.088 180.49 231.831 181.463C231.574 182.436 231.567 183.451 231.811 184.427Z" fill="#263238" stroke="#263238" stroke-linecap="round" stroke-linejoin="round"/>
<path d="M258.765 213.177L227.951 213.635C227.951 213.635 229.401 209.364 231.087 208.868C232.772 208.373 250.094 207.963 253.709 208.42C257.325 208.878 258.765 213.177 258.765 213.177Z" fill="#FFD129" stroke="#263238" stroke-linecap="round" stroke-linejoin="round"/>
<path d="M248.03 402.902C248.03 402.902 246.722 415.961 247.836 416.371C248.949 416.781 252.279 418.278 260.276 416.371C262.4 415.876 258.499 402.482 258.499 402.482C258.499 402.482 253.331 405.399 248.03 402.902Z" fill="#263238" stroke="#263238" stroke-linecap="round" stroke-linejoin="round"/>
<path d="M211.007 301.782L215.092 358.624C215.092 358.624 212.641 369.109 214.888 378.394C217.135 387.679 220.791 420.404 220.791 420.404C220.791 420.404 222.619 417.172 228.737 416.591C234.855 416.009 236.06 418.297 236.06 418.297C236.06 418.297 235.662 393.589 235.662 390.739C235.662 387.889 238.103 369.834 237.899 364.315C237.668 360.355 237.121 356.417 236.265 352.532L237.694 318.13L240.952 317.748C240.952 317.748 238.716 346.069 240.135 352.532C241.555 358.996 245.028 379.147 245.242 380.854C245.457 382.56 248.092 402.902 248.092 402.902C248.092 402.902 253.382 404.237 255.833 404.046C257.39 403.871 258.834 403.197 259.919 402.14C259.919 402.14 264.392 371.531 264.004 366.784C263.616 362.036 258.897 350.626 258.897 349.673C258.897 348.719 257.672 342.256 257.672 342.256C257.672 342.256 266.231 320.017 267.65 312.038C269.07 304.06 269.223 300.476 269.223 300.476C269.223 300.476 244.987 304.088 232.966 304.088C225.579 304.054 218.217 303.281 211.007 301.782Z" fill="#FFD129" stroke="#263238" stroke-linecap="round" stroke-linejoin="round"/>
<path d="M221.924 358.319C225.134 355.818 228.549 353.555 232.137 351.551" stroke="#263238" stroke-linecap="round" stroke-linejoin="round"/>
<path d="M217.023 362.351C217.023 362.351 218.045 361.398 219.842 359.978" stroke="#263238" stroke-linecap="round" stroke-linejoin="round"/>
<path d="M221.466 354.601L234.222 346.574" stroke="#263238" stroke-linecap="round" stroke-linejoin="round"/>
<path d="M269.223 300.476C269.223 300.476 244.987 304.088 232.966 304.088C225.579 304.054 218.217 303.281 211.007 301.782L211.252 305.166C214.776 307.644 221.047 312.181 226.194 316.605C232.261 321.79 236.101 323.973 237.429 324.64L237.694 318.149L240.952 317.768C240.952 317.768 238.716 346.089 240.135 352.552C240.799 355.526 241.882 361.407 242.883 367.06C244.384 362.646 247.254 357.365 252.524 356.86C255.867 356.58 259.213 357.359 262.023 359.072C260.572 354.649 258.877 350.273 258.877 349.701C258.877 348.748 257.651 342.285 257.651 342.285C257.651 342.285 266.21 320.046 267.63 312.067C269.049 304.088 269.223 300.476 269.223 300.476Z" fill="#263238" stroke="#263238" stroke-linecap="round" stroke-linejoin="round"/>
<path d="M203.857 290.629C203.857 290.629 205.358 293.279 206.359 293.593C207.36 293.908 208.197 296.711 208.197 299.513C208.197 302.316 207.176 302.63 207.176 302.63C207.61 303.155 207.909 303.765 208.053 304.414C208.196 305.063 208.179 305.734 208.003 306.377C207.339 308.397 202.999 309.799 201.16 310.428C199.322 311.057 196.483 308.245 195.318 306.844C194.154 305.442 194.981 294.213 194.981 294.213C194.981 294.213 203.193 292.192 203.857 290.629Z" fill="white" stroke="#263238" stroke-linecap="round" stroke-linejoin="round"/>
<path d="M207.208 302.63C207.208 302.63 203.868 303.879 203.368 304.193C202.867 304.508 201.029 302.477 201.693 301.858C202.705 301.073 203.765 300.344 204.869 299.675" stroke="#263238" stroke-linecap="round" stroke-linejoin="round"/>
<path d="M200.354 297.024C200.354 297.024 203.868 297.797 202.693 300.761" stroke="#263238" stroke-linecap="round" stroke-linejoin="round"/>
<path d="M202.357 303.727C202.357 303.727 198.854 304.975 198.854 306.215C198.854 307.454 200.529 309.074 201.529 308.865C202.53 308.655 201.356 307.463 201.356 307.463" stroke="#263238" stroke-linecap="round" stroke-linejoin="round"/>
<path d="M285.861 297.024C284.474 298.523 283.243 300.141 282.185 301.857C281.357 303.564 279.682 305.127 280.019 306.214C280.356 307.3 280.52 308.12 280.52 308.12C280.52 308.12 279.018 311.39 280.52 312.324C281.491 312.993 282.654 313.375 283.86 313.42C284.523 313.42 287.199 315.441 289.038 315.127C290.876 314.812 293.542 314.04 293.716 308.74C293.889 303.44 294.543 297.358 294.543 297.358C294.543 297.358 288.537 297.024 285.861 297.024Z" stroke="#263238" stroke-linecap="round" stroke-linejoin="round"/>
<path d="M280.52 308.101C280.52 308.101 285.024 310.751 286.362 310.751C287.7 310.751 288.7 308.845 287.7 307.939C286.487 306.974 285.203 306.089 283.859 305.289" stroke="#263238" stroke-linecap="round" stroke-linejoin="round"/>
<path d="M289.365 302.011C289.365 302.011 286.699 304.813 287.7 307.93" stroke="#263238" stroke-linecap="round" stroke-linejoin="round"/>
<path d="M288.2 308.863C288.2 308.863 291.377 309.645 291.54 310.579C291.703 311.513 291.377 313.077 290.702 313.077C290.028 313.077 289.681 311.98 289.681 311.98" stroke="#263238" stroke-linecap="round" stroke-linejoin="round"/>
<path d="M297.034 295.852C296.175 297.575 294.742 298.993 292.949 299.894C290.048 301.238 285.003 297.644 285.003 297.644L279.702 268.665L268.151 252.46L267.18 276.081C267.18 276.081 271.756 302.134 271.041 302.591C270.326 303.049 259.725 307.529 241.913 309.331C224.1 311.132 208.464 303.268 208.464 303.268L215.919 276.301L212.549 256.283L204.246 268.427L205.328 289.303C205.328 289.303 203.408 294.022 200.038 294.698C197.889 295.091 195.68 295.091 193.532 294.698C193.534 294.673 193.534 294.648 193.532 294.622C193.532 294.489 193.46 294.184 193.379 293.736C193.379 293.535 193.307 293.297 193.256 293.03C193.195 292.62 193.103 292.134 193.011 291.6C192.919 291.067 192.868 290.752 192.786 290.285C192.704 289.818 192.623 289.332 192.531 288.817C191.234 281.267 189.14 269.056 188.977 267.969V267.922C188.977 265.815 204.623 228.2 205.573 227.313C206.523 226.427 206.595 223.5 209.914 221.47C213.233 219.439 231.362 212.49 231.362 212.49C238.328 210.46 257.59 213.158 257.59 213.158C257.59 213.158 265.056 217.199 266.016 217.657C266.976 218.114 277.322 223.939 279.733 225.283C282.143 226.627 282.378 229.096 283.338 232.022C284.298 234.949 291.284 256.511 293.449 260.324C295.615 264.137 297.034 295.852 297.034 295.852Z" fill="#FFD129" stroke="#263238" stroke-linecap="round" stroke-linejoin="round"/>
<path d="M204.246 268.456L205.328 289.332C205.328 289.332 203.408 294.051 200.038 294.728C197.889 295.12 195.68 295.12 193.532 294.728C193.534 294.702 193.534 294.677 193.532 294.651C193.532 294.518 193.46 294.213 193.379 293.765C193.379 293.565 193.307 293.317 193.256 293.059C193.195 292.649 193.103 292.163 193.011 291.629C192.919 291.096 192.868 290.781 192.786 290.314C192.704 289.847 192.623 289.361 192.531 288.846C191.234 281.296 189.14 269.085 188.977 267.998V267.951C190.366 268.685 192.95 269.857 194.604 269.6C195.86 269.381 197.382 267.817 198.495 266.445C198.72 265.816 198.904 265.348 199.006 265.072C200.211 262.05 207.269 243.738 207.269 243.738L212.559 256.321L204.246 268.456Z" fill="#263238" stroke="#263238" stroke-linecap="round" stroke-linejoin="round"/>
<path d="M208.22 235.416L212.55 256.311" stroke="#263238" stroke-linecap="round" stroke-linejoin="round"/>
<path d="M271.602 237.999L268.15 252.488L275.371 238.113" stroke="#263238" stroke-linecap="round" stroke-linejoin="round"/>
<path d="M272.962 232.281L272.41 234.588" stroke="#263238" stroke-linecap="round" stroke-linejoin="round"/>
<path d="M240.229 240.135C240.229 240.135 254.19 263.966 256.835 265.52" stroke="#263238" stroke-linecap="round" stroke-linejoin="round"/>
<path d="M255.18 267.54L257.079 269.113" stroke="#263238" stroke-linecap="round" stroke-linejoin="round"/>
<path d="M244.324 258.562L253.21 265.921" stroke="#263238" stroke-linecap="round" stroke-linejoin="round"/>
<path d="M297.034 295.852C297.034 295.852 296.646 287.33 295.962 278.589C291.795 277.254 287.005 275.386 285.238 273.384C281.867 269.571 269.591 254.062 269.591 254.062V254.548L279.671 268.665L284.962 297.644C284.962 297.644 290.018 301.238 292.908 299.894C294.717 299 296.165 297.581 297.034 295.852Z" fill="#263238" stroke="#263238" stroke-linecap="round" stroke-linejoin="round"/>
<path d="M220.739 420.394L220.29 427.153C220.29 427.153 216.735 431.719 217.624 434.207C218.513 436.695 222.067 436.276 227.398 436.276C232.73 436.276 236.509 432.758 236.509 429.603C236.509 426.448 236.008 418.259 236.008 418.259C236.008 418.259 233.741 416.353 228.685 416.553C227.149 416.651 225.652 417.043 224.285 417.703C222.918 418.364 221.711 419.28 220.739 420.394Z" fill="#263238" stroke="#263238" stroke-linecap="round" stroke-linejoin="round"/>
<path d="M235.213 432.891C234.286 432.196 233.19 431.725 232.021 431.521C230.852 431.316 229.647 431.384 228.513 431.719C224.612 432.929 222.263 435.151 219.393 435.846C221.108 436.456 223.856 436.275 227.4 436.275C228.893 436.307 230.374 436.019 231.728 435.432C233.083 434.845 234.275 433.976 235.213 432.891Z" fill="white" stroke="#263238" stroke-linecap="round" stroke-linejoin="round"/>
<path d="M245.62 66.7881H240.146V88.5412H245.62V66.7881Z" fill="#41BDC9" stroke="#41BDC9" stroke-linecap="round" stroke-linejoin="round"/>
<path d="M250.974 93.2029H234.796L236.706 84.7666H249.064L250.974 93.2029Z" fill="#41BDC9" stroke="#41BDC9" stroke-linecap="round" stroke-linejoin="round"/>
<path d="M260.727 96.7573H225.052L228.851 88.9883H256.918L260.727 96.7573Z" fill="#41BDC9" stroke="#41BDC9" stroke-linecap="round" stroke-linejoin="round"/>
<path d="M224.806 43.7665C222.258 43.7249 219.754 44.3921 217.613 45.6831C215.473 46.9742 213.792 48.8307 212.786 51.0162C211.78 53.2017 211.493 55.6173 211.963 57.9553C212.433 60.2932 213.637 62.4479 215.424 64.1447C217.21 65.8415 219.497 67.0037 221.993 67.4833C224.489 67.9629 227.082 67.7381 229.441 66.8377C231.8 65.9373 233.819 64.4019 235.239 62.4271C236.66 60.4524 237.419 58.1276 237.42 55.7488C237.434 54.189 237.12 52.6418 236.494 51.1955C235.868 49.7491 234.943 48.432 233.772 47.3193C232.601 46.2067 231.206 45.3202 229.668 44.7106C228.129 44.101 226.477 43.7802 224.806 43.7665ZM224.806 64.738C222.904 64.7701 221.035 64.2732 219.437 63.3105C217.839 62.3477 216.584 60.9628 215.832 59.332C215.081 57.7013 214.866 55.8986 215.216 54.1536C215.566 52.4085 216.464 50.8002 217.797 49.5335C219.129 48.2667 220.836 47.3989 222.699 47.0405C224.562 46.6822 226.497 46.8495 228.257 47.5213C230.018 48.193 231.525 49.3387 232.585 50.8124C233.646 52.2862 234.212 54.0212 234.213 55.7965C234.224 58.1386 233.24 60.3894 231.477 62.0562C229.714 63.723 227.315 64.6702 224.806 64.6903V64.738Z" fill="#41BDC9" stroke="#41BDC9" stroke-linecap="round" stroke-linejoin="round"/>
<path d="M262.86 43.7667C260.312 43.7231 257.807 44.3887 255.665 45.6786C253.523 46.9685 251.841 48.8243 250.833 51.0096C249.825 53.1949 249.537 55.6107 250.006 57.9493C250.474 60.2879 251.678 62.4434 253.464 64.1412C255.25 65.839 257.537 67.0021 260.033 67.4825C262.53 67.9629 265.123 67.7388 267.483 66.8387C269.842 65.9385 271.861 64.4032 273.283 62.4283C274.704 60.4533 275.463 58.1281 275.464 55.749C275.493 52.6005 274.183 49.5697 271.819 47.3228C269.456 45.076 266.234 43.7969 262.86 43.7667ZM262.86 64.7381C260.961 64.7664 259.096 64.2674 257.502 63.3044C255.908 62.3414 254.656 60.9578 253.906 59.3295C253.156 57.7012 252.941 55.9015 253.289 54.159C253.637 52.4166 254.532 50.81 255.861 49.5433C257.189 48.2767 258.891 47.407 260.75 47.0449C262.609 46.6828 264.541 46.8445 266.302 47.5095C268.062 48.1746 269.571 49.3129 270.637 50.7799C271.702 52.247 272.277 53.9766 272.287 55.749C272.299 56.9143 272.065 58.0705 271.597 59.1511C271.13 60.2317 270.438 61.2155 269.562 62.0462C268.687 62.8769 267.644 63.5381 266.494 63.9918C265.344 64.4456 264.109 64.683 262.86 64.6905V64.7381Z" fill="#41BDC9" stroke="#41BDC9" stroke-linecap="round" stroke-linejoin="round"/>
<path d="M242.883 72.7831C238.657 72.7831 234.605 71.2164 231.617 68.4276C228.629 65.6388 226.95 61.8564 226.95 57.9125V42.5938H258.816V57.9125C258.816 61.8564 257.137 65.6388 254.149 68.4276C251.161 71.2164 247.109 72.7831 242.883 72.7831Z" fill="#41BDC9" stroke="#41BDC9" stroke-linecap="round" stroke-linejoin="round"/>
<path d="M231.782 50.7635L238.523 61.888L240.31 58.1608L244.682 58.828L235.541 48.123L231.782 50.7635Z" fill="#41BDC9" stroke="#41BDC9" stroke-linecap="round" stroke-linejoin="round"/>
<path d="M231.424 49.4482L229.075 62.0407L232.987 60.2104L235.918 63.318L236.112 49.6294L231.424 49.4482Z" fill="#41BDC9" stroke="#41BDC9" stroke-linecap="round" stroke-linejoin="round"/>
<path d="M241.392 46.1592C241.392 44.896 240.991 43.6612 240.239 42.6109C239.487 41.5606 238.418 40.742 237.168 40.2586C235.917 39.7752 234.541 39.6487 233.214 39.8952C231.887 40.1416 230.667 40.7499 229.71 41.6431C228.753 42.5363 228.102 43.6743 227.838 44.9132C227.574 46.1521 227.709 47.4363 228.227 48.6033C228.745 49.7704 229.622 50.7678 230.747 51.4696C231.873 52.1714 233.196 52.546 234.549 52.546C235.448 52.5473 236.338 52.3829 237.169 52.0624C238 51.7419 238.755 51.2715 239.391 50.6782C240.026 50.0848 240.53 49.3803 240.874 48.6048C241.217 47.8294 241.393 46.9983 241.392 46.1592Z" fill="white" stroke="#41BDC9" stroke-linecap="round" stroke-linejoin="round"/>
<path d="M239.828 46.1588C239.828 45.184 239.519 44.2312 238.938 43.4208C238.358 42.6103 237.533 41.9786 236.569 41.6056C235.604 41.2326 234.542 41.135 233.518 41.3252C232.493 41.5153 231.553 41.9847 230.814 42.6739C230.076 43.3632 229.573 44.2413 229.369 45.1973C229.165 46.1533 229.27 47.1442 229.67 48.0447C230.069 48.9453 230.746 49.715 231.614 50.2565C232.483 50.798 233.504 51.0871 234.548 51.0871C235.242 51.0883 235.929 50.9617 236.57 50.7145C237.211 50.4673 237.794 50.1043 238.285 49.6464C238.775 49.1885 239.164 48.6447 239.429 48.0462C239.694 47.4477 239.83 46.8063 239.828 46.1588Z" fill="white" stroke="#41BDC9" stroke-linecap="round" stroke-linejoin="round"/>
<path d="M233.008 43.6806C233.142 43.7023 233.28 43.6987 233.413 43.67C233.545 43.6413 233.671 43.588 233.781 43.5134C233.892 43.4388 233.985 43.3443 234.055 43.2355C234.126 43.1267 234.173 43.0058 234.193 42.8799H234.918V49.2952H233.896V44.3955H233.059L233.008 43.6806Z" fill="#41BDC9"/>
<path d="M291.123 200.118C290.306 195.79 289.08 185.037 296.127 179.766C305.023 173.093 311.335 185.123 319.087 175.753C326.839 166.382 329.127 146.021 352.076 146.288C375.026 146.555 376.752 158.613 376.752 162.626C376.752 166.64 383.635 169.585 385.076 169.585C386.516 169.585 394.543 166.106 397.413 173.875C400.283 181.644 398.332 186.134 402.898 186.267C407.463 186.4 413.111 180.624 419.321 183.531C425.531 186.439 425.531 192.587 428.115 194.732C430.699 196.877 434.999 193.13 440.738 195.266C444.211 196.562 445.263 198.65 445.549 200.089L291.123 200.118Z" fill="white" stroke="black" stroke-miterlimit="10"/>
<path d="M301.826 57.2444C301.56 55.824 301.172 52.2875 303.47 50.5716C306.401 48.3696 308.474 52.3256 311.018 49.2466C313.561 46.1676 314.317 39.4853 321.854 39.5711C329.391 39.6569 329.963 43.6129 329.963 44.9379C329.963 46.2629 332.231 47.2257 332.701 47.2257C333.17 47.2257 335.816 46.0818 336.786 48.6365C337.756 51.1912 337.092 52.6592 338.584 52.7164C340.075 52.7736 341.944 50.8099 343.986 51.7632C346.029 52.7164 346.029 54.7469 346.877 55.4523C347.724 56.1577 349.134 54.9184 351.023 55.6238C351.412 55.7355 351.763 55.9403 352.041 56.218C352.319 56.4956 352.514 56.8364 352.607 57.2062L301.826 57.2444Z" fill="white" stroke="black" stroke-miterlimit="10"/>
<path d="M289.653 117.576C289.152 114.926 288.437 108.377 292.717 105.183C298.14 101.104 301.99 108.453 306.719 102.734C311.448 97.0141 312.847 84.6219 326.85 84.7649C340.852 84.9079 341.904 92.2765 341.904 94.7264C341.904 97.1762 346.102 98.9778 347.011 98.9778C347.92 98.9778 352.781 96.8521 354.528 101.59C356.274 106.327 355.1 109.073 357.878 109.216C360.656 109.359 364.108 105.775 367.897 107.548C371.686 109.321 371.686 113.076 373.259 114.382C374.832 115.688 377.457 113.429 380.96 114.706C381.686 114.91 382.341 115.29 382.858 115.808C383.375 116.325 383.735 116.962 383.902 117.652L289.653 117.576Z" fill="white" stroke="black" stroke-miterlimit="10"/>
<path d="M211.541 38.2084C211.898 36.3019 212.419 31.5356 209.335 29.2478C205.413 26.2928 202.635 31.6024 199.223 27.4748C195.812 23.3472 194.801 14.3867 184.69 14.5011C174.578 14.6155 173.823 19.9251 173.823 21.6981C173.823 23.4712 170.759 24.7676 170.156 24.7676C169.553 24.7676 165.989 23.2328 164.723 26.6741C163.456 30.1153 164.314 32.0695 162.312 32.1362C160.31 32.2029 157.808 29.6577 155.071 30.9351C152.334 32.2125 152.334 34.9292 151.2 35.8729C150.066 36.8166 148.136 35.158 145.644 36.1017C145.119 36.2465 144.644 36.52 144.271 36.8939C143.897 37.2677 143.638 37.7282 143.52 38.2275L211.541 38.2084Z" fill="white" stroke="black" stroke-miterlimit="10"/>
<path d="M228.944 170.243C229.965 164.914 231.405 151.683 222.816 145.192C211.867 136.946 204.095 151.779 194.555 140.244C185.016 128.71 182.187 103.64 153.926 104.021C125.666 104.402 123.542 119.187 123.542 124.134C123.542 129.082 115.065 132.714 113.328 132.714C111.592 132.714 101.675 128.424 98.141 137.995C94.6071 147.565 96.9971 153.085 91.3899 153.247C85.7828 153.409 78.7253 146.288 71.0857 149.863C63.4461 153.437 63.4461 161.025 60.2698 163.666C57.0934 166.306 51.7824 161.683 44.725 164.323C40.4354 165.915 39.1485 168.48 38.791 170.253L228.944 170.243Z" fill="white" stroke="black" stroke-miterlimit="10"/>
<path d="M157.778 116.231C158.094 114.544 158.554 110.35 155.827 108.3C152.354 105.688 149.893 110.388 146.87 106.727C143.847 103.067 142.958 95.1358 134.011 95.2883C125.064 95.4408 124.39 100.055 124.39 101.666C124.39 103.277 121.704 104.373 121.142 104.373C120.581 104.373 117.455 103.019 116.332 106.05C115.208 109.082 115.974 110.817 114.197 110.893C112.42 110.969 110.214 108.691 107.793 109.825C105.373 110.96 105.373 113.352 104.362 114.191C103.351 115.03 101.676 113.562 99.4388 114.401C98.9709 114.532 98.5494 114.778 98.2186 115.113C97.8879 115.449 97.6602 115.861 97.5596 116.307L157.778 116.231Z" fill="white" stroke="black" stroke-miterlimit="10"/>
</svg>
