<svg width="737" height="766" viewBox="0 0 737 766" fill="none" xmlns="http://www.w3.org/2000/svg">
<path d="M502.943 154.671L496.164 160.022C495.508 160.574 494.737 160.994 493.899 161.257C493.061 161.521 492.174 161.622 491.291 161.554C490.409 161.487 489.55 161.252 488.767 160.865C487.984 160.477 487.293 159.945 486.737 159.301C485.588 158.039 485.021 156.405 485.16 154.757C485.3 153.11 486.134 151.583 487.48 150.512L498.285 141.932C498.391 141.838 498.477 141.95 498.598 141.87C498.719 141.79 498.498 141.688 498.65 141.553C500.017 140.524 501.757 140.025 503.512 140.159C505.266 140.293 506.9 141.05 508.077 142.274C509.362 143.771 510.955 145.013 512.762 145.926C514.568 146.839 516.552 147.405 518.596 147.59C520.639 147.776 522.7 147.577 524.657 147.005C526.613 146.433 528.425 145.5 529.985 144.261C531.546 143.022 532.822 141.503 533.739 139.794C534.656 138.084 535.195 136.219 535.324 134.309C535.453 132.4 535.169 130.484 534.489 128.676C533.81 126.868 532.748 125.204 531.367 123.784C529.648 121.891 527.426 120.453 524.925 119.614C522.424 118.774 519.732 118.563 517.121 119.002C516.236 119.193 515.319 119.214 514.425 119.065C513.53 118.915 512.676 118.598 511.916 118.133C511.155 117.668 510.503 117.064 509.999 116.357C509.495 115.651 509.149 114.857 508.983 114.024C508.817 113.191 508.833 112.335 509.032 111.509C509.23 110.683 509.606 109.903 510.137 109.218C510.668 108.532 511.344 107.955 512.122 107.52C512.9 107.085 513.765 106.803 514.665 106.689C519.348 105.9 524.172 106.209 528.703 107.588C533.235 108.968 537.331 111.375 540.624 114.593C543.918 117.81 546.305 121.738 547.571 126.023C548.837 130.309 548.943 134.816 547.879 139.142C546.815 143.467 544.614 147.475 541.474 150.804C538.334 154.134 534.354 156.681 529.891 158.216C525.429 159.752 520.623 160.228 515.906 159.601C511.19 158.975 506.71 157.266 502.87 154.628L502.943 154.671ZM480.183 172.745L478.307 174.224C477.649 174.772 476.877 175.19 476.04 175.452C475.202 175.714 474.316 175.814 473.434 175.747C472.553 175.679 471.694 175.446 470.912 175.06C470.129 174.674 469.437 174.144 468.88 173.502C467.739 172.233 467.178 170.598 467.32 168.95C467.462 167.302 468.294 165.775 469.637 164.699L471.513 163.22C472.872 162.172 474.617 161.661 476.378 161.796C478.138 161.931 479.775 162.701 480.941 163.942C481.521 164.563 481.963 165.287 482.24 166.069C482.517 166.852 482.624 167.678 482.553 168.498C482.482 169.319 482.236 170.117 481.829 170.846C481.422 171.576 480.863 172.221 480.183 172.745Z" fill="#41BDC9"/>
<path d="M713.279 39.1554L716.557 44.3872C716.9 44.8987 717.13 45.4677 717.232 46.0594C717.334 46.6512 717.307 47.2533 717.153 47.8289C716.998 48.4045 716.719 48.9415 716.332 49.4071C715.946 49.8727 715.46 50.257 714.905 50.5365C713.81 51.1241 712.5 51.2745 711.263 50.955C710.026 50.6354 708.961 49.8719 708.304 48.8318L703.041 40.4858C702.981 40.4024 703.077 40.3606 703.03 40.2695C702.983 40.1785 702.88 40.3104 702.795 40.1913C702.172 39.1431 701.996 37.9206 702.303 36.7763C702.611 35.6319 703.378 34.6531 704.447 34.0419C705.737 33.3969 706.868 32.5123 707.774 31.4406C708.681 30.3689 709.344 29.132 709.724 27.8031C710.104 26.4742 710.194 25.0806 709.988 23.7047C709.782 22.3289 709.284 20.999 708.524 19.7939C707.764 18.5888 706.758 17.533 705.564 16.6893C704.371 15.8455 703.015 15.231 701.577 14.882C700.139 14.5331 698.648 14.4569 697.192 14.658C695.737 14.8591 694.347 15.3334 693.104 16.0527C691.463 16.9312 690.109 18.2056 689.177 19.7475C688.246 21.2895 687.77 23.0446 687.798 24.8363C687.84 25.4488 687.748 26.0597 687.53 26.6321C687.312 27.2045 686.971 27.7265 686.527 28.1666C686.084 28.6066 685.548 28.9555 684.952 29.1922C684.355 29.4289 683.711 29.5484 683.057 29.5436C682.404 29.5388 681.755 29.4098 681.149 29.1643C680.544 28.9188 679.995 28.5619 679.535 28.1153C679.076 27.6686 678.715 27.1415 678.476 26.5657C678.236 25.99 678.122 25.3775 678.141 24.7655C678.089 21.5521 678.889 18.3971 680.469 15.5838C682.049 12.7705 684.36 10.3873 687.194 8.64822C690.029 6.90916 693.297 5.86881 696.706 5.62067C700.114 5.37252 703.557 5.92438 706.724 7.22661C709.89 8.52885 712.682 10.5406 714.848 13.0812C717.014 15.6218 718.486 18.6115 719.132 21.7816C719.778 24.9517 719.577 28.2029 718.548 31.2429C717.52 34.2829 715.695 37.0165 713.238 39.198L713.279 39.1554ZM724.367 56.7361L725.273 58.1838C725.613 58.6958 725.841 59.2647 725.942 59.856C726.043 60.4474 726.016 61.0488 725.861 61.6238C725.707 62.1988 725.428 62.7355 725.043 63.2012C724.658 63.667 724.174 64.0521 723.62 64.3332C722.521 64.9145 721.211 65.0603 719.974 64.739C718.736 64.4177 717.672 63.6551 717.011 62.6165L716.105 61.1687C715.466 60.1236 715.282 58.8963 715.591 57.7479C715.899 56.5995 716.677 55.6206 717.757 55.0194C718.298 54.7201 718.901 54.527 719.529 54.4514C720.156 54.3758 720.797 54.4193 721.413 54.5792C722.029 54.7392 722.608 55.0125 723.115 55.3829C723.623 55.7533 724.048 56.2134 724.367 56.7361Z" fill="#41BDC9"/>
<path d="M635.414 669.09L641.261 657.695C641.811 656.546 642.607 655.515 643.599 654.665C644.592 653.814 645.761 653.16 647.035 652.745C648.309 652.329 649.662 652.16 651.011 652.247C652.36 652.334 653.678 652.675 654.883 653.251C657.327 654.348 659.209 656.302 660.116 658.684C661.023 661.066 660.882 663.682 659.722 665.958L650.362 684.222C650.241 684.352 650.079 684.297 649.988 684.482C650.096 684.737 650.096 684.737 650.005 684.922C648.782 687.147 646.689 688.848 644.156 689.675C641.622 690.501 638.841 690.391 636.383 689.366C633.594 687.978 630.536 687.13 627.392 686.871C624.248 686.613 621.083 686.95 618.088 687.863C615.094 688.776 612.331 690.245 609.967 692.182C607.603 694.119 605.686 696.483 604.332 699.133C602.978 701.783 602.216 704.664 602.089 707.601C601.963 710.538 602.477 713.472 603.599 716.225C604.721 718.978 606.428 721.493 608.618 723.619C610.808 725.745 613.435 727.438 616.341 728.596C619.992 730.248 624.041 730.976 628.081 730.705C632.12 730.434 636.007 729.175 639.348 727.054C640.469 726.33 641.735 725.822 643.072 725.56C644.408 725.297 645.789 725.285 647.133 725.525C648.477 725.764 649.757 726.251 650.9 726.955C652.043 727.659 653.025 728.568 653.789 729.628C654.536 730.668 655.056 731.834 655.319 733.06C655.583 734.285 655.584 735.546 655.322 736.77C655.061 737.994 654.542 739.156 653.796 740.19C653.05 741.224 652.092 742.11 650.975 742.796C644.985 746.601 638.068 748.954 630.845 749.645C623.621 750.336 616.319 749.342 609.594 746.755C602.868 744.167 596.93 740.065 592.313 734.818C587.696 729.572 584.545 723.344 583.143 716.695C581.741 710.047 582.132 703.185 584.28 696.727C586.429 690.269 590.267 684.417 595.452 679.697C600.636 674.977 607.004 671.537 613.982 669.685C620.96 667.833 628.331 667.629 635.431 669.089L635.414 669.09ZM655.06 630.725L656.668 627.574C657.221 626.423 658.02 625.391 659.016 624.539C660.012 623.688 661.185 623.035 662.463 622.62C663.741 622.206 665.097 622.039 666.449 622.129C667.801 622.218 669.12 622.564 670.327 623.144C672.767 624.247 674.645 626.203 675.55 628.586C676.455 630.968 676.314 633.582 675.158 635.859L673.551 639.027C672.354 641.276 670.262 642.997 667.719 643.827C665.176 644.656 662.382 644.529 659.928 643.472C658.701 642.942 657.599 642.189 656.687 641.257C655.775 640.325 655.071 639.233 654.618 638.046C654.165 636.858 653.972 635.599 654.049 634.343C654.127 633.087 654.473 631.86 655.069 630.733L655.06 630.725Z" fill="#EBEBEB"/>
<path d="M104.497 133.245L110.454 152.972C111.102 154.922 111.316 156.973 111.083 159.001C110.85 161.03 110.175 162.993 109.099 164.772C108.023 166.551 106.569 168.108 104.825 169.349C103.081 170.59 101.083 171.489 98.9526 171.991C94.7133 173.093 90.176 172.591 86.3354 170.593C82.4948 168.596 79.6642 165.266 78.464 161.334L68.9038 129.726C68.9021 129.446 69.1623 129.352 69.0601 129.036C68.6376 128.833 68.6376 128.833 68.5353 128.517C67.4702 124.583 68.0687 120.42 70.2079 116.883C72.347 113.346 75.8643 110.703 80.0371 109.499C85.0291 108.406 89.7311 106.386 93.8599 103.562C97.9887 100.737 101.459 97.1662 104.061 93.0637C106.663 88.9612 108.344 84.4123 109.002 79.6909C109.66 74.9695 109.281 70.1734 107.889 65.5916C106.496 61.0097 104.119 56.737 100.9 53.0309C97.681 49.3247 93.6871 46.2618 89.1588 44.0267C84.6304 41.7916 79.6615 40.4305 74.5512 40.0256C69.441 39.6206 64.2953 40.18 59.4241 41.6702C53.0771 43.3015 47.3058 46.458 42.6929 50.8211C38.08 55.1843 34.7886 60.5997 33.1509 66.5208C32.6152 68.523 31.6555 70.4062 30.3279 72.0608C29.0003 73.7153 27.3313 75.1082 25.4181 76.1582C23.5049 77.2082 21.3857 77.8943 19.1841 78.1766C16.9824 78.4589 14.7423 78.3317 12.5941 77.8025C10.4893 77.2815 8.51619 76.3795 6.78818 75.1484C5.06018 73.9173 3.61136 72.3813 2.525 70.6287C1.43864 68.8761 0.736169 66.9415 0.457957 64.936C0.179745 62.9306 0.331279 60.8939 0.903852 58.9429C3.83764 48.3249 9.56741 38.5496 17.5783 30.4954C25.5892 22.4412 35.6303 16.3605 46.7993 12.7996C57.9683 9.23868 69.9152 8.30918 81.5667 10.0946C93.2181 11.88 104.209 16.3245 113.552 23.0285C122.895 29.7325 130.296 38.4862 135.092 48.5028C139.888 58.5195 141.928 69.4854 141.028 80.4151C140.129 91.3449 136.317 101.896 129.938 111.121C123.558 120.345 114.809 127.954 104.477 133.263L104.497 133.245ZM124.6 199.623L126.258 205.071C126.905 207.025 127.116 209.081 126.88 211.114C126.643 213.147 125.963 215.113 124.882 216.894C123.8 218.675 122.339 220.234 120.588 221.474C118.837 222.714 116.832 223.61 114.696 224.108C110.454 225.2 105.919 224.69 102.081 222.69C98.2427 220.691 95.4122 217.363 94.2071 213.433L92.5289 207.967C91.407 204.031 91.9803 199.844 94.1274 196.294C96.2744 192.744 99.8265 190.109 104.031 188.948C106.135 188.368 108.343 188.186 110.525 188.411C112.706 188.636 114.817 189.265 116.733 190.26C118.648 191.255 120.329 192.596 121.677 194.204C123.025 195.813 124.012 197.655 124.58 199.623L124.6 199.623Z" fill="#EBEBEB"/>
<path d="M340.883 659.946L343.357 668.138C343.626 668.947 343.714 669.799 343.618 670.641C343.521 671.483 343.241 672.298 342.794 673.037C342.347 673.776 341.744 674.422 341.019 674.938C340.295 675.453 339.465 675.826 338.581 676.035C336.821 676.492 334.937 676.284 333.342 675.454C331.747 674.625 330.572 673.242 330.074 671.61L326.104 658.485C326.103 658.369 326.211 658.33 326.169 658.199C325.994 658.114 325.994 658.114 325.951 657.983C325.509 656.35 325.757 654.621 326.646 653.152C327.534 651.684 328.994 650.587 330.727 650.086C332.8 649.633 334.752 648.794 336.466 647.621C338.181 646.448 339.622 644.966 340.702 643.262C341.783 641.559 342.481 639.67 342.754 637.709C343.027 635.749 342.87 633.758 342.291 631.855C341.713 629.953 340.726 628.179 339.39 626.64C338.053 625.101 336.395 623.829 334.514 622.901C332.634 621.973 330.571 621.408 328.449 621.24C326.327 621.071 324.191 621.304 322.168 621.922C319.532 622.6 317.136 623.91 315.221 625.722C313.305 627.534 311.939 629.782 311.259 632.241C311.036 633.072 310.638 633.854 310.086 634.541C309.535 635.228 308.842 635.807 308.048 636.243C307.253 636.679 306.373 636.963 305.459 637.081C304.545 637.198 303.615 637.145 302.723 636.925C301.849 636.709 301.03 636.335 300.312 635.823C299.595 635.312 298.993 634.674 298.542 633.947C298.091 633.219 297.799 632.416 297.684 631.583C297.568 630.75 297.631 629.905 297.869 629.094C299.087 624.686 301.466 620.627 304.793 617.282C308.119 613.938 312.288 611.413 316.926 609.935C321.563 608.456 326.524 608.07 331.362 608.812C336.2 609.553 340.764 611.398 344.643 614.182C348.522 616.966 351.596 620.6 353.587 624.76C355.578 628.919 356.425 633.472 356.052 638.01C355.678 642.548 354.096 646.93 351.447 650.76C348.798 654.59 345.165 657.749 340.875 659.954L340.883 659.946ZM349.23 687.508L349.919 689.77C350.187 690.582 350.275 691.435 350.177 692.279C350.079 693.123 349.796 693.94 349.347 694.679C348.898 695.419 348.292 696.066 347.564 696.581C346.837 697.096 346.005 697.468 345.118 697.675C343.357 698.128 341.474 697.917 339.88 697.086C338.286 696.256 337.111 694.874 336.611 693.242L335.914 690.973C335.448 689.338 335.686 687.6 336.577 686.126C337.469 684.652 338.944 683.558 340.69 683.076C341.563 682.835 342.48 682.759 343.386 682.852C344.292 682.946 345.168 683.207 345.964 683.62C346.759 684.033 347.457 684.59 348.017 685.258C348.576 685.926 348.986 686.691 349.222 687.508L349.23 687.508Z" fill="#EBEBEB"/>
</svg>
