<svg width="1094" height="763" viewBox="0 0 1094 763" fill="none" xmlns="http://www.w3.org/2000/svg">
<path d="M932.5 123.457L927.939 127.061C927.497 127.432 926.978 127.715 926.415 127.893C925.851 128.07 925.254 128.138 924.66 128.093C924.067 128.047 923.489 127.889 922.962 127.629C922.435 127.368 921.971 127.009 921.597 126.575C920.824 125.725 920.442 124.625 920.536 123.515C920.63 122.405 921.191 121.377 922.097 120.655L929.366 114.877C929.437 114.813 929.495 114.889 929.577 114.835C929.658 114.781 929.51 114.712 929.612 114.621C930.531 113.928 931.702 113.592 932.882 113.682C934.063 113.773 935.162 114.282 935.954 115.107C936.818 116.115 937.889 116.951 939.105 117.566C940.321 118.181 941.655 118.563 943.03 118.687C944.404 118.812 945.791 118.678 947.107 118.293C948.424 117.907 949.643 117.279 950.692 116.445C951.742 115.61 952.601 114.587 953.218 113.436C953.835 112.284 954.197 111.028 954.284 109.742C954.371 108.455 954.18 107.165 953.723 105.947C953.265 104.73 952.551 103.609 951.622 102.653C950.466 101.378 948.971 100.409 947.289 99.8439C945.606 99.2786 943.795 99.1365 942.038 99.4321C941.443 99.5605 940.826 99.5749 940.224 99.4743C939.622 99.3737 939.048 99.1602 938.537 98.8468C938.025 98.5334 937.586 98.1265 937.247 97.6508C936.908 97.1751 936.675 96.6405 936.564 96.0792C936.452 95.5179 936.463 94.9417 936.596 94.3853C936.73 93.8289 936.983 93.3039 937.34 92.8421C937.698 92.3803 938.152 91.9912 938.675 91.6985C939.199 91.4057 939.781 91.2153 940.386 91.1388C943.537 90.6071 946.782 90.8151 949.831 91.7442C952.879 92.6733 955.635 94.2943 957.85 96.4616C960.066 98.6289 961.672 101.275 962.524 104.161C963.375 107.047 963.446 110.083 962.73 112.996C962.014 115.91 960.534 118.609 958.421 120.852C956.309 123.094 953.631 124.81 950.629 125.844C947.627 126.878 944.394 127.199 941.22 126.777C938.047 126.355 935.034 125.204 932.45 123.428L932.5 123.457ZM917.187 135.63L915.925 136.626C915.482 136.996 914.963 137.278 914.4 137.454C913.836 137.63 913.24 137.698 912.647 137.652C912.054 137.607 911.476 137.45 910.95 137.19C910.423 136.93 909.958 136.573 909.583 136.141C908.815 135.286 908.438 134.184 908.534 133.075C908.629 131.965 909.189 130.936 910.093 130.212L911.355 129.216C912.269 128.51 913.443 128.165 914.627 128.256C915.812 128.347 916.913 128.865 917.697 129.701C918.088 130.12 918.385 130.607 918.571 131.134C918.758 131.661 918.829 132.218 918.782 132.77C918.734 133.323 918.569 133.861 918.295 134.352C918.021 134.843 917.644 135.278 917.187 135.63Z" fill="#41BDC9"/>
<path d="M1074.01 27.719L1076.21 31.2425C1076.44 31.5869 1076.59 31.9701 1076.66 32.3687C1076.73 32.7673 1076.71 33.1728 1076.61 33.5606C1076.51 33.9483 1076.32 34.31 1076.06 34.6236C1075.8 34.9373 1075.47 35.1962 1075.1 35.3846C1074.36 35.7804 1073.48 35.882 1072.65 35.6669C1071.81 35.4518 1071.1 34.9377 1070.66 34.2372L1067.12 28.6164C1067.08 28.5602 1067.14 28.5321 1067.11 28.4708C1067.08 28.4094 1067.01 28.4983 1066.95 28.4181C1066.53 27.7122 1066.41 26.8888 1066.62 26.118C1066.83 25.3472 1067.34 24.6878 1068.06 24.276C1068.93 23.8414 1069.69 23.2454 1070.3 22.5234C1070.91 21.8015 1071.36 20.9682 1071.61 20.0731C1071.87 19.178 1071.93 18.2393 1071.79 17.3126C1071.65 16.386 1071.32 15.4903 1070.81 14.6787C1070.3 13.8671 1069.62 13.1561 1068.82 12.5879C1068.01 12.0198 1067.1 11.606 1066.13 11.3712C1065.17 11.1363 1064.16 11.0852 1063.18 11.2209C1062.21 11.3565 1061.27 11.6761 1060.43 12.1608C1059.33 12.7527 1058.42 13.6112 1057.79 14.6499C1057.16 15.6887 1056.84 16.8709 1056.86 18.0777C1056.89 18.4902 1056.83 18.9017 1056.68 19.2873C1056.54 19.6729 1056.31 20.0245 1056.01 20.321C1055.71 20.6174 1055.35 20.8525 1054.95 21.012C1054.55 21.1715 1054.11 21.2521 1053.67 21.2489C1053.23 21.2458 1052.8 21.1589 1052.39 20.9937C1051.98 20.8284 1051.61 20.5881 1051.3 20.2873C1050.99 19.9866 1050.75 19.6316 1050.59 19.2438C1050.43 18.856 1050.35 18.4435 1050.37 18.0312C1050.33 15.8669 1050.87 13.7417 1051.93 11.8466C1053 9.95154 1054.55 8.34599 1056.46 7.17427C1058.37 6.00255 1060.57 5.3014 1062.86 5.13381C1065.15 4.96623 1067.47 5.33748 1069.6 6.21419C1071.73 7.0909 1073.61 8.44558 1075.06 10.1565C1076.52 11.8674 1077.51 13.8809 1077.95 16.0161C1078.38 18.1512 1078.24 20.3411 1077.55 22.3888C1076.86 24.4366 1075.63 26.278 1073.98 27.7477L1074.01 27.719ZM1081.46 39.559L1082.07 40.534C1082.3 40.8788 1082.45 41.262 1082.52 41.6603C1082.59 42.0586 1082.57 42.4636 1082.47 42.851C1082.36 43.2383 1082.18 43.5998 1081.92 43.9136C1081.66 44.2273 1081.33 44.4868 1080.96 44.6762C1080.22 45.0679 1079.34 45.1663 1078.51 44.95C1077.67 44.7337 1076.96 44.2202 1076.51 43.5208L1075.9 42.5457C1075.47 41.8419 1075.35 41.0152 1075.56 40.2417C1075.77 39.4681 1076.29 38.8087 1077.02 38.4036C1077.38 38.202 1077.79 38.0718 1078.21 38.0208C1078.63 37.9698 1079.06 37.999 1079.48 38.1067C1079.89 38.2144 1080.28 38.3983 1080.62 38.6478C1080.96 38.8972 1081.25 39.207 1081.46 39.559Z" fill="#41BDC9"/>
<path d="M1021.62 452.007L1025.55 444.331C1025.92 443.558 1026.46 442.863 1027.13 442.29C1027.8 441.717 1028.58 441.277 1029.44 440.997C1030.3 440.717 1031.21 440.603 1032.11 440.662C1033.02 440.72 1033.91 440.95 1034.72 441.338C1036.36 442.077 1037.63 443.393 1038.24 444.998C1038.85 446.602 1038.75 448.364 1037.97 449.897L1031.68 462.199C1031.6 462.286 1031.49 462.249 1031.43 462.374C1031.5 462.545 1031.5 462.545 1031.44 462.67C1030.61 464.169 1029.21 465.314 1027.5 465.871C1025.8 466.428 1023.93 466.353 1022.27 465.663C1020.4 464.728 1018.34 464.157 1016.22 463.983C1014.11 463.809 1011.98 464.036 1009.96 464.651C1007.95 465.265 1006.09 466.255 1004.5 467.56C1002.91 468.864 1001.62 470.457 1000.71 472.242C999.799 474.027 999.286 475.967 999.201 477.945C999.117 479.924 999.462 481.899 1000.22 483.754C1000.97 485.608 1002.12 487.302 1003.59 488.734C1005.07 490.166 1006.83 491.306 1008.79 492.086C1011.25 493.199 1013.97 493.689 1016.69 493.507C1019.4 493.324 1022.02 492.476 1024.27 491.048C1025.02 490.56 1025.87 490.218 1026.77 490.041C1027.67 489.864 1028.6 489.856 1029.5 490.018C1030.41 490.179 1031.27 490.506 1032.04 490.981C1032.81 491.455 1033.47 492.067 1033.98 492.781C1034.49 493.482 1034.84 494.267 1035.01 495.093C1035.19 495.918 1035.19 496.767 1035.01 497.592C1034.84 498.416 1034.49 499.199 1033.99 499.895C1033.49 500.592 1032.84 501.188 1032.09 501.651C1028.06 504.213 1023.41 505.798 1018.55 506.263C1013.69 506.729 1008.77 506.06 1004.25 504.317C999.725 502.574 995.73 499.811 992.624 496.277C989.518 492.743 987.399 488.549 986.455 484.071C985.512 479.592 985.775 474.971 987.22 470.621C988.665 466.271 991.248 462.33 994.736 459.151C998.224 455.971 1002.51 453.654 1007.2 452.407C1011.9 451.16 1016.86 451.022 1021.63 452.006L1021.62 452.007ZM1034.84 426.166L1035.92 424.043C1036.29 423.268 1036.83 422.573 1037.5 422C1038.17 421.426 1038.96 420.986 1039.82 420.707C1040.68 420.428 1041.59 420.315 1042.5 420.376C1043.41 420.436 1044.3 420.669 1045.11 421.059C1046.75 421.803 1048.01 423.12 1048.62 424.725C1049.23 426.329 1049.14 428.091 1048.36 429.624L1047.28 431.758C1046.47 433.272 1045.06 434.432 1043.35 434.99C1041.64 435.549 1039.76 435.463 1038.11 434.751C1037.29 434.394 1036.55 433.887 1035.93 433.26C1035.32 432.632 1034.85 431.897 1034.54 431.097C1034.24 430.297 1034.11 429.449 1034.16 428.603C1034.21 427.757 1034.44 426.93 1034.84 426.171L1034.84 426.166Z" fill="#EBEBEB"/>
<path d="M664.443 91.0932L668.451 104.381C668.887 105.694 669.03 107.075 668.874 108.441C668.717 109.808 668.263 111.13 667.539 112.328C666.815 113.526 665.837 114.575 664.664 115.411C663.49 116.247 662.146 116.852 660.713 117.19C657.861 117.933 654.809 117.594 652.225 116.249C649.641 114.904 647.737 112.661 646.929 110.013L640.498 88.7229C640.496 88.5347 640.671 88.4711 640.603 88.2582C640.318 88.1217 640.318 88.1217 640.25 87.9089C639.533 85.2592 639.936 82.4552 641.375 80.0728C642.814 77.6903 645.18 75.9106 647.988 75.0991C651.346 74.3631 654.509 73.0029 657.287 71.1004C660.065 69.198 662.399 66.7928 664.15 64.0296C665.901 61.2664 667.031 58.2024 667.474 55.0224C667.916 51.8423 667.662 48.6119 666.725 45.5259C665.788 42.4399 664.189 39.562 662.023 37.0658C659.858 34.5695 657.171 32.5065 654.124 31.0011C651.078 29.4956 647.735 28.5789 644.297 28.3061C640.859 28.0334 637.397 28.4102 634.12 29.4139C629.85 30.5126 625.967 32.6386 622.864 35.5774C619.761 38.5162 617.546 42.1637 616.445 46.1518C616.084 47.5003 615.439 48.7688 614.545 49.8832C613.652 50.9976 612.529 51.9358 611.242 52.643C609.955 53.3502 608.529 53.8123 607.048 54.0024C605.567 54.1926 604.06 54.1069 602.615 53.7505C601.199 53.3996 599.871 52.7921 598.709 51.9628C597.546 51.1336 596.572 50.0991 595.841 48.9186C595.11 47.7382 594.637 46.4351 594.45 45.0844C594.263 43.7336 594.365 42.3618 594.75 41.0478C596.724 33.8961 600.579 27.312 605.968 21.8872C611.357 16.4623 618.113 12.3667 625.627 9.96829C633.141 7.56988 641.178 6.94382 649.017 8.14638C656.855 9.34894 664.249 12.3424 670.535 16.8579C676.82 21.3734 681.8 27.2693 685.026 34.0159C688.253 40.7626 689.625 48.1486 689.02 55.5102C688.414 62.8718 685.85 69.9785 681.558 76.1916C677.266 82.4047 671.38 87.5296 664.43 91.1058L664.443 91.0932ZM677.967 135.802L679.083 139.471C679.518 140.787 679.66 142.172 679.501 143.541C679.342 144.91 678.885 146.235 678.157 147.435C677.429 148.634 676.446 149.684 675.268 150.519C674.09 151.354 672.742 151.958 671.304 152.294C668.451 153.029 665.4 152.686 662.818 151.339C660.235 149.992 658.331 147.75 657.52 145.104L656.391 141.422C655.637 138.771 656.022 135.951 657.467 133.56C658.911 131.168 661.301 129.394 664.129 128.612C665.545 128.221 667.031 128.098 668.498 128.25C669.966 128.402 671.386 128.825 672.675 129.495C673.963 130.165 675.094 131.069 676.001 132.152C676.908 133.235 677.572 134.476 677.954 135.802L677.967 135.802Z" fill="#EBEBEB"/>
<path d="M823.473 445.848L825.137 451.365C825.318 451.91 825.378 452.484 825.313 453.051C825.248 453.618 825.059 454.168 824.759 454.665C824.458 455.162 824.052 455.598 823.565 455.945C823.078 456.292 822.52 456.544 821.924 456.684C820.74 456.992 819.473 456.852 818.4 456.293C817.327 455.734 816.536 454.803 816.201 453.704L813.531 444.864C813.53 444.785 813.603 444.759 813.574 444.671C813.456 444.614 813.456 444.614 813.428 444.526C813.13 443.425 813.297 442.261 813.895 441.272C814.492 440.283 815.475 439.544 816.641 439.207C818.035 438.901 819.349 438.336 820.502 437.546C821.655 436.756 822.625 435.758 823.352 434.61C824.078 433.463 824.548 432.191 824.732 430.87C824.915 429.55 824.81 428.209 824.421 426.927C824.032 425.646 823.368 424.451 822.468 423.414C821.569 422.378 820.454 421.521 819.189 420.896C817.924 420.271 816.536 419.89 815.108 419.777C813.681 419.664 812.243 419.82 810.882 420.237C809.109 420.693 807.497 421.576 806.209 422.796C804.92 424.017 804.001 425.531 803.543 427.187C803.394 427.747 803.125 428.274 802.755 428.737C802.384 429.199 801.918 429.589 801.383 429.882C800.849 430.176 800.257 430.368 799.642 430.447C799.027 430.526 798.401 430.49 797.801 430.342C797.213 430.197 796.662 429.944 796.179 429.6C795.696 429.256 795.292 428.826 794.988 428.336C794.685 427.846 794.488 427.305 794.411 426.744C794.333 426.183 794.375 425.613 794.535 425.068C795.355 422.098 796.955 419.364 799.193 417.112C801.431 414.859 804.236 413.159 807.356 412.163C810.476 411.167 813.813 410.907 817.068 411.406C820.323 411.906 823.393 413.149 826.003 415.024C828.613 416.899 830.68 419.347 832.02 422.148C833.36 424.949 833.929 428.016 833.678 431.073C833.427 434.13 832.362 437.081 830.58 439.66C828.798 442.24 826.354 444.368 823.468 445.853L823.473 445.848ZM829.089 464.412L829.552 465.935C829.733 466.482 829.792 467.057 829.726 467.625C829.66 468.194 829.47 468.744 829.168 469.242C828.865 469.74 828.457 470.176 827.968 470.523C827.479 470.87 826.919 471.12 826.322 471.26C825.137 471.565 823.871 471.422 822.798 470.863C821.726 470.304 820.935 469.373 820.599 468.274L820.13 466.745C819.817 465.645 819.977 464.474 820.577 463.481C821.176 462.488 822.169 461.751 823.343 461.426C823.931 461.264 824.548 461.213 825.157 461.276C825.767 461.339 826.356 461.515 826.891 461.793C827.426 462.072 827.896 462.447 828.272 462.896C828.649 463.346 828.925 463.861 829.083 464.412L829.089 464.412Z" fill="#EBEBEB"/>
<path d="M479.863 736.281L482.068 732.758C482.298 732.413 482.453 732.03 482.521 731.631C482.59 731.233 482.572 730.827 482.468 730.439C482.364 730.052 482.176 729.69 481.916 729.376C481.656 729.063 481.329 728.804 480.955 728.615C480.218 728.22 479.337 728.118 478.505 728.333C477.672 728.548 476.956 729.062 476.514 729.763L472.974 735.384C472.934 735.44 472.998 735.468 472.967 735.529C472.935 735.591 472.866 735.502 472.809 735.582C472.39 736.288 472.271 737.111 472.478 737.882C472.685 738.653 473.202 739.312 473.921 739.724C474.789 740.159 475.55 740.755 476.16 741.477C476.77 742.199 477.217 743.032 477.473 743.927C477.729 744.822 477.789 745.761 477.651 746.687C477.512 747.614 477.178 748.51 476.666 749.321C476.155 750.133 475.478 750.844 474.676 751.412C473.873 751.98 472.96 752.394 471.993 752.629C471.025 752.864 470.022 752.915 469.043 752.779C468.064 752.643 467.128 752.324 466.292 751.839C465.188 751.247 464.276 750.389 463.649 749.35C463.022 748.311 462.702 747.129 462.721 745.922C462.748 745.51 462.687 745.098 462.54 744.713C462.393 744.327 462.163 743.975 461.865 743.679C461.567 743.383 461.206 743.148 460.805 742.988C460.404 742.829 459.97 742.748 459.53 742.751C459.09 742.754 458.654 742.841 458.247 743.006C457.839 743.172 457.47 743.412 457.161 743.713C456.852 744.013 456.609 744.368 456.448 744.756C456.287 745.144 456.21 745.557 456.223 745.969C456.189 748.133 456.727 750.258 457.791 752.153C458.854 754.048 460.41 755.654 462.317 756.826C464.224 757.997 466.423 758.699 468.717 758.866C471.01 759.034 473.327 758.663 475.457 757.786C477.588 756.909 479.466 755.554 480.922 753.844C482.379 752.133 483.369 750.119 483.803 747.984C484.237 745.849 484.102 743.659 483.409 741.611C482.717 739.563 481.489 737.722 479.835 736.252L479.863 736.281ZM487.321 724.441L487.93 723.466C488.159 723.121 488.312 722.738 488.38 722.34C488.448 721.941 488.429 721.536 488.325 721.149C488.221 720.762 488.034 720.4 487.775 720.086C487.515 719.773 487.189 719.513 486.817 719.324C486.077 718.932 485.196 718.834 484.363 719.05C483.531 719.266 482.815 719.78 482.37 720.479L481.761 721.454C481.332 722.158 481.208 722.985 481.415 723.758C481.623 724.532 482.146 725.191 482.874 725.596C483.238 725.798 483.643 725.928 484.065 725.979C484.488 726.03 484.919 726.001 485.334 725.893C485.748 725.786 486.137 725.602 486.479 725.352C486.82 725.103 487.106 724.793 487.321 724.441Z" fill="#41BDC9"/>
<path d="M427.479 311.993L431.412 319.669C431.782 320.442 432.318 321.137 432.985 321.71C433.653 322.283 434.44 322.723 435.297 323.003C436.154 323.283 437.064 323.397 437.972 323.338C438.879 323.28 439.765 323.05 440.576 322.662C442.221 321.923 443.487 320.607 444.097 319.002C444.707 317.398 444.612 315.636 443.832 314.103L437.535 301.801C437.453 301.714 437.344 301.751 437.284 301.626C437.356 301.455 437.356 301.455 437.295 301.33C436.472 299.831 435.064 298.686 433.36 298.129C431.655 297.572 429.784 297.647 428.13 298.337C426.254 299.272 424.197 299.843 422.082 300.017C419.966 300.191 417.837 299.964 415.823 299.349C413.808 298.735 411.949 297.745 410.359 296.44C408.768 295.136 407.479 293.543 406.568 291.758C405.657 289.973 405.144 288.033 405.059 286.055C404.975 284.076 405.32 282.101 406.075 280.246C406.83 278.392 407.978 276.698 409.452 275.266C410.925 273.834 412.692 272.694 414.647 271.914C417.103 270.801 419.827 270.311 422.545 270.493C425.263 270.676 427.877 271.524 430.125 272.952C430.88 273.44 431.731 273.782 432.63 273.959C433.53 274.136 434.458 274.144 435.362 273.982C436.267 273.821 437.128 273.494 437.897 273.019C438.666 272.545 439.326 271.933 439.84 271.219C440.343 270.518 440.693 269.733 440.87 268.907C441.047 268.082 441.048 267.233 440.872 266.408C440.696 265.584 440.347 264.801 439.845 264.105C439.343 263.408 438.699 262.812 437.948 262.349C433.918 259.787 429.264 258.202 424.404 257.737C419.545 257.271 414.632 257.94 410.108 259.683C405.583 261.426 401.588 264.189 398.482 267.723C395.376 271.257 393.256 275.451 392.313 279.929C391.37 284.408 391.633 289.029 393.078 293.379C394.523 297.729 397.106 301.67 400.594 304.849C404.082 308.029 408.365 310.346 413.06 311.593C417.755 312.84 422.713 312.978 427.49 311.994L427.479 311.993ZM440.695 337.834L441.777 339.957C442.149 340.732 442.687 341.427 443.357 342C444.027 342.574 444.816 343.014 445.676 343.293C446.536 343.572 447.448 343.685 448.357 343.624C449.267 343.564 450.155 343.331 450.966 342.941C452.608 342.197 453.871 340.88 454.48 339.275C455.089 337.671 454.994 335.909 454.217 334.376L453.135 332.242C452.33 330.728 450.923 329.568 449.212 329.01C447.501 328.451 445.621 328.537 443.971 329.249C443.145 329.606 442.403 330.113 441.79 330.74C441.176 331.368 440.703 332.103 440.398 332.903C440.094 333.703 439.964 334.551 440.016 335.397C440.068 336.243 440.301 337.07 440.702 337.829L440.695 337.834Z" fill="#EBEBEB"/>
<path d="M70.301 672.907L74.3089 659.619C74.7445 658.306 74.8883 656.925 74.7316 655.559C74.5748 654.192 74.1208 652.87 73.397 651.672C72.6733 650.474 71.695 649.425 70.5215 648.589C69.3481 647.753 68.004 647.148 66.571 646.81C63.7189 646.067 60.6664 646.406 58.0826 647.751C55.4988 649.096 53.5945 651.339 52.7871 653.987L46.3554 675.277C46.3543 675.465 46.5294 675.529 46.4606 675.742C46.1763 675.878 46.1763 675.878 46.1076 676.091C45.391 678.741 45.7936 681.545 47.2327 683.927C48.6719 686.31 51.0382 688.089 53.8454 688.901C57.2038 689.637 60.3671 690.997 63.1448 692.9C65.9225 694.802 68.257 697.207 70.0077 699.97C71.7585 702.734 72.8892 705.798 73.3317 708.978C73.7742 712.158 73.5194 715.388 72.5827 718.474C71.6459 721.56 70.0466 724.438 67.881 726.934C65.7155 729.431 63.0285 731.494 59.9821 732.999C56.9356 734.504 53.5927 735.421 50.1548 735.694C46.7169 735.967 43.255 735.59 39.9779 734.586C35.7079 733.487 31.8253 731.361 28.7219 728.423C25.6185 725.484 23.4042 721.836 22.3025 717.848C21.942 716.5 21.2964 715.231 20.4033 714.117C19.5101 713.002 18.3873 712.064 17.1002 711.357C15.813 710.65 14.3874 710.188 12.9062 709.998C11.425 709.807 9.91794 709.893 8.47277 710.25C7.05674 710.6 5.72932 711.208 4.56679 712.037C3.40426 712.866 2.42956 713.901 1.69871 715.081C0.967854 716.262 0.495262 717.565 0.308093 718.916C0.120924 720.266 0.22287 721.638 0.608072 722.952C2.58179 730.104 6.43653 736.688 11.8259 742.113C17.2153 747.538 23.9705 751.633 31.4845 754.032C38.9985 756.43 47.0359 757.056 54.8745 755.854C62.7131 754.651 70.1072 751.658 76.3926 747.142C82.678 742.627 87.6577 736.731 90.8842 729.984C94.1107 723.237 95.483 715.851 94.8776 708.49C94.2723 701.128 91.7084 694.022 87.4163 687.808C83.1241 681.595 77.2383 676.47 70.2875 672.894L70.301 672.907ZM83.8251 628.198L84.9406 624.529C85.3758 623.213 85.5181 621.828 85.359 620.459C85.1998 619.09 84.7425 617.765 84.0148 616.565C83.2871 615.366 82.3043 614.316 81.1262 613.481C79.9481 612.646 78.5995 612.042 77.1623 611.706C74.3086 610.971 71.2578 611.314 68.6756 612.661C66.0933 614.008 64.1891 616.25 63.3784 618.896L62.2494 622.578C61.4946 625.229 61.8803 628.049 63.3247 630.44C64.7692 632.832 67.1589 634.606 69.9872 635.388C71.4029 635.779 72.8885 635.902 74.3562 635.75C75.8239 635.598 77.244 635.175 78.5326 634.505C79.8212 633.835 80.9523 632.931 81.859 631.848C82.7657 630.765 83.4296 629.524 83.8116 628.198L83.8251 628.198Z" fill="#EBEBEB"/>
<path d="M229.331 318.152L230.995 312.635C231.176 312.09 231.236 311.516 231.171 310.949C231.106 310.382 230.917 309.832 230.617 309.335C230.316 308.838 229.91 308.402 229.423 308.055C228.936 307.708 228.377 307.456 227.782 307.316C226.598 307.008 225.331 307.148 224.258 307.707C223.185 308.266 222.394 309.197 222.059 310.296L219.388 319.136C219.388 319.215 219.461 319.241 219.432 319.329C219.314 319.386 219.314 319.386 219.286 319.474C218.988 320.575 219.155 321.739 219.753 322.728C220.35 323.717 221.333 324.456 222.498 324.793C223.893 325.099 225.206 325.664 226.36 326.454C227.513 327.244 228.482 328.242 229.209 329.39C229.936 330.537 230.406 331.809 230.59 333.13C230.773 334.45 230.668 335.791 230.279 337.073C229.89 338.354 229.226 339.549 228.326 340.586C227.427 341.622 226.312 342.479 225.047 343.104C223.782 343.729 222.394 344.11 220.966 344.223C219.539 344.336 218.101 344.18 216.74 343.763C214.967 343.307 213.355 342.424 212.067 341.204C210.778 339.983 209.859 338.469 209.401 336.813C209.251 336.253 208.983 335.726 208.613 335.263C208.242 334.801 207.775 334.411 207.241 334.118C206.707 333.824 206.115 333.632 205.5 333.553C204.885 333.474 204.259 333.51 203.659 333.658C203.071 333.803 202.52 334.056 202.037 334.4C201.554 334.744 201.149 335.174 200.846 335.664C200.542 336.154 200.346 336.695 200.269 337.256C200.191 337.817 200.233 338.387 200.393 338.932C201.213 341.902 202.813 344.636 205.051 346.888C207.289 349.141 210.094 350.841 213.214 351.837C216.334 352.833 219.671 353.093 222.926 352.594C226.181 352.094 229.251 350.851 231.861 348.976C234.47 347.101 236.538 344.653 237.878 341.852C239.218 339.051 239.787 335.984 239.536 332.927C239.285 329.87 238.22 326.919 236.438 324.34C234.656 321.76 232.212 319.632 229.326 318.147L229.331 318.152ZM234.947 299.588L235.41 298.065C235.591 297.518 235.65 296.943 235.584 296.375C235.518 295.806 235.328 295.256 235.025 294.758C234.723 294.26 234.315 293.824 233.826 293.477C233.337 293.13 232.777 292.88 232.18 292.74C230.995 292.435 229.728 292.578 228.656 293.137C227.584 293.696 226.793 294.627 226.457 295.726L225.988 297.255C225.675 298.355 225.835 299.526 226.434 300.519C227.034 301.512 228.027 302.249 229.201 302.574C229.789 302.736 230.406 302.787 231.015 302.724C231.624 302.661 232.214 302.485 232.749 302.207C233.284 301.928 233.754 301.553 234.13 301.104C234.507 300.654 234.782 300.139 234.941 299.588L234.947 299.588Z" fill="#EBEBEB"/>
</svg>
