<svg width="774" height="766" viewBox="0 0 774 766" fill="none" xmlns="http://www.w3.org/2000/svg">
<path d="M547.199 173.651L540.794 178.721C540.173 179.243 539.445 179.641 538.653 179.891C537.862 180.14 537.023 180.236 536.19 180.172C535.356 180.108 534.545 179.886 533.805 179.519C533.065 179.152 532.413 178.648 531.888 178.038C530.802 176.842 530.266 175.294 530.398 173.733C530.53 172.172 531.318 170.726 532.59 169.711L542.798 161.582C542.899 161.493 542.98 161.6 543.094 161.524C543.208 161.448 543 161.351 543.144 161.223C544.435 160.248 546.079 159.775 547.737 159.902C549.394 160.029 550.938 160.746 552.05 161.906C553.263 163.324 554.768 164.5 556.475 165.365C558.182 166.23 560.057 166.766 561.987 166.942C563.917 167.117 565.865 166.928 567.713 166.386C569.562 165.845 571.274 164.961 572.748 163.787C574.222 162.613 575.428 161.174 576.295 159.555C577.161 157.935 577.67 156.168 577.792 154.359C577.914 152.55 577.646 150.735 577.004 149.022C576.362 147.309 575.359 145.733 574.055 144.387C572.43 142.595 570.331 141.232 567.969 140.437C565.606 139.642 563.063 139.442 560.595 139.858C559.76 140.039 558.893 140.059 558.048 139.918C557.203 139.776 556.397 139.476 555.678 139.035C554.959 138.594 554.343 138.022 553.867 137.353C553.391 136.684 553.065 135.932 552.908 135.142C552.751 134.353 552.766 133.542 552.954 132.76C553.141 131.977 553.497 131.239 553.998 130.589C554.5 129.94 555.138 129.392 555.873 128.981C556.608 128.569 557.426 128.301 558.276 128.193C562.701 127.445 567.258 127.738 571.539 129.044C575.82 130.351 579.69 132.631 582.801 135.679C585.912 138.728 588.167 142.449 589.363 146.508C590.559 150.568 590.659 154.838 589.653 158.936C588.648 163.034 586.568 166.831 583.602 169.985C580.635 173.14 576.875 175.553 572.658 177.008C568.442 178.463 563.902 178.914 559.446 178.321C554.99 177.728 550.757 176.109 547.13 173.61L547.199 173.651ZM525.695 190.774L523.922 192.175C523.3 192.695 522.571 193.091 521.78 193.339C520.989 193.587 520.151 193.682 519.318 193.619C518.485 193.555 517.675 193.333 516.935 192.968C516.195 192.603 515.542 192.101 515.015 191.493C513.937 190.291 513.408 188.741 513.542 187.18C513.676 185.619 514.463 184.172 515.732 183.153L517.504 181.752C518.788 180.759 520.437 180.275 522.1 180.402C523.763 180.53 525.31 181.259 526.411 182.435C526.959 183.023 527.377 183.709 527.639 184.45C527.9 185.192 528 185.974 527.934 186.751C527.867 187.528 527.635 188.285 527.25 188.976C526.865 189.667 526.336 190.278 525.695 190.774Z" fill="#41BDC9"/>
<path d="M170.29 722.987L173.876 730.181C174.255 730.887 174.481 731.654 174.538 732.435C174.596 733.217 174.484 733.996 174.21 734.726C173.936 735.456 173.506 736.12 172.946 736.679C172.385 737.238 171.706 737.679 170.951 737.976C169.456 738.608 167.738 738.647 166.174 738.083C164.609 737.519 163.326 736.399 162.606 734.969L156.84 723.489C156.774 723.373 156.904 723.331 156.855 723.207C156.805 723.083 156.654 723.242 156.559 723.077C155.884 721.64 155.812 720.029 156.356 718.579C156.9 717.128 158.02 715.948 159.485 715.282C161.239 714.598 162.819 713.584 164.131 712.299C165.443 711.015 166.46 709.487 167.122 707.805C167.784 706.123 168.078 704.322 167.985 702.509C167.893 700.696 167.417 698.908 166.584 697.25C165.752 695.593 164.581 694.1 163.14 692.86C161.7 691.62 160.019 690.659 158.198 690.033C156.377 689.407 154.453 689.129 152.54 689.216C150.627 689.303 148.763 689.752 147.061 690.539C144.82 691.484 142.901 692.978 141.497 694.87C140.093 696.763 139.253 698.987 139.061 701.32C139.037 702.121 138.841 702.904 138.485 703.622C138.129 704.34 137.62 704.977 136.989 705.496C136.359 706.015 135.619 706.404 134.815 706.64C134.012 706.876 133.161 706.955 132.314 706.87C131.466 706.785 130.641 706.54 129.887 706.148C129.133 705.756 128.467 705.227 127.927 704.591C127.388 703.955 126.988 703.227 126.75 702.45C126.512 701.673 126.443 700.863 126.545 700.07C126.886 695.887 128.325 691.881 130.732 688.414C133.139 684.947 136.44 682.126 140.337 680.205C144.234 678.285 148.605 677.324 153.058 677.41C157.511 677.496 161.906 678.627 165.848 680.699C169.789 682.771 173.154 685.721 175.64 689.283C178.126 692.845 179.655 696.908 180.09 701.106C180.524 705.304 179.851 709.506 178.13 713.334C176.409 717.162 173.694 720.497 170.23 723.038L170.29 722.987ZM182.435 747.169L183.425 749.159C183.802 749.866 184.025 750.632 184.081 751.413C184.137 752.194 184.024 752.972 183.751 753.701C183.477 754.43 183.048 755.094 182.489 755.654C181.93 756.213 181.254 756.655 180.5 756.954C179 757.578 177.282 757.611 175.718 757.045C174.154 756.479 172.871 755.36 172.145 753.93L171.155 751.94C170.46 750.505 170.376 748.887 170.923 747.432C171.469 745.976 172.602 744.797 174.08 744.145C174.82 743.821 175.626 743.642 176.45 743.619C177.274 743.596 178.099 743.729 178.878 744.011C179.657 744.293 180.372 744.718 180.983 745.26C181.594 745.802 182.088 746.451 182.435 747.169Z" fill="#41BDC9"/>
<path d="M745.92 38.9874L749.015 43.9427C749.339 44.4271 749.555 44.9661 749.652 45.5267C749.748 46.0873 749.722 46.6578 749.576 47.2032C749.429 47.7486 749.165 48.2575 748.8 48.6987C748.434 49.14 747.975 49.5043 747.45 49.7694C746.415 50.3265 745.177 50.4697 744.008 50.1675C742.839 49.8652 741.834 49.1423 741.213 48.1572L736.243 40.2523C736.187 40.1733 736.278 40.1337 736.233 40.0474C736.189 39.9612 736.091 40.0862 736.011 39.9734C735.423 38.9806 735.257 37.8225 735.548 36.7381C735.839 35.6538 736.565 34.7261 737.576 34.1466C738.794 33.535 739.864 32.6964 740.721 31.6807C741.578 30.6649 742.206 29.4927 742.566 28.2335C742.926 26.9743 743.011 25.6539 742.817 24.3505C742.623 23.0471 742.153 21.7873 741.436 20.6459C740.718 19.5045 739.767 18.5047 738.64 17.7058C737.513 16.907 736.232 16.3253 734.873 15.9953C733.514 15.6654 732.105 15.5939 730.729 15.785C729.354 15.9762 728.04 16.4261 726.865 17.1082C725.314 17.9412 724.033 19.1491 723.152 20.6104C722.271 22.0717 721.821 23.7348 721.846 25.4322C721.885 26.0125 721.799 26.5914 721.592 27.1338C721.386 27.6762 721.063 28.1709 720.644 28.588C720.225 29.0051 719.718 29.3358 719.154 29.5603C718.591 29.7849 717.982 29.8984 717.364 29.8942C716.746 29.8899 716.133 29.7679 715.561 29.5356C714.989 29.3033 714.47 28.9654 714.036 28.5425C713.602 28.1195 713.262 27.6202 713.036 27.0749C712.81 26.5295 712.702 25.9493 712.721 25.3694C712.673 22.325 713.43 19.3355 714.925 16.6694C716.42 14.0034 718.605 11.7444 721.284 10.0956C723.963 8.4467 727.052 7.45963 730.274 7.22304C733.496 6.98646 736.748 7.50779 739.74 8.74018C742.732 9.97257 745.37 11.8774 747.415 14.2834C749.461 16.6895 750.85 19.5213 751.459 22.5245C752.068 25.5276 751.877 28.608 750.903 31.4886C749.929 34.3692 748.203 36.9599 745.88 39.0277L745.92 38.9874ZM756.389 55.6389L757.244 57.0101C757.566 57.495 757.781 58.0339 757.876 58.5941C757.971 59.1543 757.945 59.7241 757.799 60.269C757.652 60.8138 757.389 61.3224 757.025 61.7638C756.661 62.2052 756.203 62.5703 755.68 62.8369C754.64 63.3882 753.402 63.5269 752.233 63.223C751.064 62.9191 750.058 62.197 749.434 61.2133L748.579 59.8421C747.976 58.8522 747.802 57.6895 748.095 56.6013C748.387 55.5132 749.122 54.5854 750.144 54.0153C750.655 53.7315 751.224 53.5483 751.818 53.4764C752.411 53.4045 753.017 53.4454 753.599 53.5967C754.181 53.7481 754.728 54.0067 755.207 54.3574C755.686 54.7081 756.088 55.1439 756.389 55.6389Z" fill="#41BDC9"/>
<path d="M672.355 635.78L677.878 624.984C678.398 623.896 679.15 622.919 680.088 622.113C681.026 621.307 682.131 620.688 683.334 620.295C684.538 619.901 685.816 619.74 687.091 619.823C688.365 619.905 689.61 620.229 690.749 620.774C693.058 621.814 694.836 623.665 695.693 625.922C696.55 628.178 696.416 630.656 695.321 632.812L686.477 650.116C686.363 650.239 686.21 650.187 686.124 650.362C686.226 650.603 686.226 650.603 686.14 650.778C684.985 652.887 683.007 654.499 680.614 655.282C678.22 656.065 675.592 655.96 673.27 654.989C670.635 653.674 667.746 652.87 664.776 652.626C661.805 652.381 658.815 652.701 655.986 653.565C653.157 654.43 650.546 655.821 648.313 657.656C646.079 659.491 644.268 661.732 642.989 664.242C641.71 666.753 640.989 669.482 640.87 672.265C640.751 675.047 641.236 677.826 642.296 680.435C643.357 683.043 644.97 685.425 647.039 687.44C649.107 689.454 651.589 691.058 654.335 692.155C657.784 693.72 661.61 694.409 665.426 694.153C669.243 693.896 672.915 692.703 676.071 690.694C677.131 690.008 678.327 689.527 679.59 689.278C680.852 689.03 682.157 689.018 683.426 689.245C684.696 689.472 685.906 689.933 686.986 690.6C688.065 691.268 688.993 692.128 689.715 693.133C690.421 694.118 690.912 695.222 691.161 696.384C691.41 697.545 691.411 698.739 691.164 699.899C690.917 701.058 690.427 702.159 689.722 703.139C689.017 704.119 688.111 704.958 687.057 705.608C681.397 709.212 674.862 711.442 668.038 712.096C661.213 712.751 654.314 711.81 647.96 709.358C641.606 706.906 635.996 703.02 631.634 698.05C627.272 693.079 624.295 687.179 622.97 680.88C621.646 674.581 622.015 668.081 624.044 661.963C626.074 655.845 629.701 650.301 634.599 645.829C639.497 641.357 645.513 638.098 652.106 636.344C658.699 634.589 665.663 634.395 672.371 635.779L672.355 635.78ZM690.916 599.434L692.435 596.448C692.958 595.358 693.712 594.38 694.654 593.573C695.595 592.766 696.703 592.148 697.91 591.755C699.117 591.363 700.399 591.204 701.676 591.289C702.953 591.374 704.2 591.702 705.34 592.251C707.645 593.296 709.419 595.15 710.274 597.407C711.13 599.663 710.997 602.141 709.904 604.298L708.386 607.299C707.255 609.429 705.278 611.06 702.876 611.846C700.473 612.632 697.833 612.511 695.516 611.509C694.356 611.007 693.314 610.294 692.453 609.411C691.591 608.528 690.927 607.494 690.499 606.369C690.071 605.244 689.888 604.051 689.961 602.861C690.034 601.672 690.362 600.508 690.924 599.441L690.916 599.434Z" fill="#EBEBEB"/>
<path d="M98.7268 133.14L104.355 151.83C104.967 153.677 105.169 155.62 104.949 157.542C104.729 159.463 104.091 161.323 103.075 163.009C102.058 164.694 100.685 166.169 99.0366 167.345C97.3887 168.521 95.5011 169.372 93.4887 169.848C89.4834 170.892 85.1966 170.416 81.5681 168.524C77.9396 166.631 75.2652 163.477 74.1314 159.752L65.099 129.806C65.0974 129.542 65.3433 129.452 65.2467 129.153C64.8475 128.961 64.8475 128.961 64.7509 128.661C63.7446 124.934 64.3101 120.99 66.3311 117.639C68.3521 114.288 71.6752 111.785 75.6176 110.643C80.3339 109.608 84.7763 107.695 88.6771 105.019C92.5779 102.343 95.8564 98.96 98.315 95.0734C100.774 91.1867 102.362 86.8771 102.983 82.4041C103.605 77.9311 103.247 73.3874 101.931 69.0467C100.616 64.7059 98.3696 60.658 95.3284 57.1469C92.2873 53.6357 88.5139 50.734 84.2356 48.6164C79.9573 46.4989 75.2627 45.2095 70.4347 44.8258C65.6066 44.4422 60.745 44.9722 56.1428 46.384C50.1462 47.9294 44.6937 50.9198 40.3355 55.0534C35.9773 59.187 32.8676 64.3175 31.3204 69.927C30.8142 71.8238 29.9075 73.608 28.6532 75.1755C27.3989 76.743 25.8221 78.0626 24.0145 79.0573C22.207 80.0521 20.2048 80.7021 18.1247 80.9695C16.0447 81.237 13.9282 81.1165 11.8987 80.6151C9.91011 80.1215 8.04594 79.267 6.41335 78.1007C4.78076 76.9343 3.41194 75.4792 2.38557 73.8188C1.3592 72.1584 0.695519 70.3256 0.432669 68.4256C0.16982 66.5257 0.312987 64.5961 0.853943 62.7478C3.62573 52.6885 9.03911 43.4275 16.6077 35.7971C24.1762 28.1667 33.6629 22.4059 44.2151 19.0324C54.7674 15.6588 66.0546 14.7782 77.0627 16.4697C88.0708 18.1612 98.4548 22.3718 107.282 28.7231C116.109 35.0744 123.102 43.3674 127.633 52.8571C132.164 62.3467 134.091 72.7356 133.241 83.0903C132.391 93.445 128.79 103.441 122.763 112.18C116.735 120.919 108.469 128.128 98.708 133.158L98.7268 133.14ZM117.719 196.026L119.286 201.187C119.897 203.039 120.097 204.987 119.873 206.912C119.65 208.838 119.008 210.701 117.986 212.389C116.964 214.076 115.584 215.552 113.929 216.727C112.275 217.902 110.381 218.751 108.362 219.223C104.355 220.257 100.071 219.774 96.4442 217.88C92.8179 215.985 90.1437 212.832 89.0051 209.11L87.4196 203.931C86.3596 200.202 86.9013 196.236 88.9298 192.872C90.9583 189.509 94.3143 187.013 98.2863 185.913C100.274 185.364 102.361 185.19 104.422 185.404C106.483 185.617 108.477 186.213 110.287 187.156C112.097 188.098 113.685 189.369 114.958 190.892C116.232 192.416 117.164 194.162 117.7 196.026L117.719 196.026Z" fill="#EBEBEB"/>
<path d="M394.087 627.118L396.424 634.878C396.678 635.645 396.762 636.452 396.671 637.25C396.579 638.047 396.315 638.82 395.892 639.52C395.47 640.219 394.9 640.832 394.216 641.32C393.531 641.808 392.748 642.162 391.912 642.359C390.249 642.793 388.469 642.595 386.962 641.81C385.456 641.024 384.345 639.714 383.875 638.167L380.124 625.733C380.123 625.623 380.226 625.586 380.185 625.462C380.02 625.382 380.02 625.382 379.98 625.258C379.562 623.71 379.797 622.073 380.636 620.681C381.475 619.29 382.855 618.25 384.492 617.776C386.45 617.346 388.295 616.552 389.914 615.441C391.534 614.33 392.895 612.925 393.916 611.311C394.937 609.697 395.596 607.908 395.854 606.051C396.112 604.193 395.964 602.307 395.418 600.504C394.871 598.702 393.939 597.021 392.676 595.563C391.413 594.105 389.846 592.901 388.07 592.021C386.294 591.142 384.344 590.607 382.34 590.447C380.335 590.288 378.316 590.508 376.405 591.094C373.915 591.736 371.651 592.978 369.842 594.694C368.032 596.41 366.741 598.541 366.098 600.87C365.888 601.658 365.512 602.398 364.991 603.049C364.47 603.7 363.815 604.248 363.065 604.661C362.314 605.074 361.483 605.344 360.619 605.455C359.756 605.566 358.877 605.516 358.034 605.308C357.208 605.103 356.434 604.748 355.756 604.264C355.079 603.78 354.51 603.175 354.084 602.486C353.658 601.796 353.382 601.035 353.273 600.247C353.164 599.458 353.223 598.656 353.448 597.889C354.599 593.712 356.847 589.867 359.989 586.698C363.132 583.53 367.071 581.138 371.453 579.737C375.834 578.337 380.521 577.971 385.092 578.673C389.662 579.376 393.974 581.124 397.639 583.761C401.304 586.398 404.208 589.842 406.09 593.782C407.971 597.722 408.771 602.036 408.418 606.336C408.065 610.635 406.57 614.786 404.067 618.414C401.565 622.043 398.132 625.036 394.079 627.125L394.087 627.118ZM401.973 653.229L402.624 655.372C402.877 656.141 402.961 656.95 402.868 657.749C402.775 658.549 402.508 659.323 402.084 660.023C401.66 660.724 401.086 661.337 400.4 661.825C399.713 662.313 398.926 662.665 398.088 662.861C396.424 663.29 394.645 663.09 393.139 662.303C391.634 661.517 390.523 660.208 390.05 658.662L389.392 656.511C388.952 654.963 389.177 653.316 390.019 651.92C390.861 650.523 392.255 649.487 393.904 649.03C394.73 648.802 395.596 648.73 396.452 648.819C397.308 648.907 398.136 649.154 398.887 649.546C399.639 649.937 400.298 650.465 400.827 651.098C401.356 651.73 401.743 652.455 401.965 653.229L401.973 653.229Z" fill="#EBEBEB"/>
</svg>
