<?xml version="1.0" encoding="UTF-8"?>
<!DOCTYPE svg PUBLIC "-//W3C//DTD SVG 1.1//EN" "http://www.w3.org/Graphics/SVG/1.1/DTD/svg11.dtd">
<!-- Creator: CorelDRAW 2020 (64-Bit) -->
<svg xmlns="http://www.w3.org/2000/svg" xml:space="preserve" width="12.1516mm" height="3.7288mm" version="1.1" style="shape-rendering:geometricPrecision; text-rendering:geometricPrecision; image-rendering:optimizeQuality; fill-rule:evenodd; clip-rule:evenodd"
viewBox="0 0 442.9 135.91"
 xmlns:xlink="http://www.w3.org/1999/xlink"
 xmlns:xodm="http://www.corel.com/coreldraw/odm/2003">
 <defs>
  <style type="text/css">
   <![CDATA[
    .fil0 {fill:#FFCA05;fill-rule:nonzero}
   ]]>
  </style>
 </defs>
 <g id="Layer_x0020_1">
  <metadata id="CorelCorpID_0Corel-Layer"/>
  <path class="fil0" d="M73.5 81.6l270.04 47.04c9.21,4.67 19.64,7.29 30.72,7.26 2.76,0 5.47,-0.17 8.13,-0.49l2.76 -0.39c32.44,-5.27 57.45,-33.39 57.74,-67.22 0.31,-33.83 -24.2,-61.83 -56.53,-66.96l-2.75 -0.38c-2.67,-0.31 -5.38,-0.47 -8.14,-0.46 -11.08,0.02 -21.56,2.7 -30.85,7.4l-344.63 61.39 73.5 12.8zm303.95 -42.79c16.2,3.46 26.51,19.54 23.01,35.93 -3.49,16.38 -19.46,26.87 -35.67,23.42 -16.2,-3.46 -26.5,-19.54 -23.01,-35.93 3.5,-16.39 19.47,-26.88 35.67,-23.42z"/>
 </g>
</svg>
