<?xml version="1.0" encoding="UTF-8"?>
<!DOCTYPE svg PUBLIC "-//W3C//DTD SVG 1.1//EN" "http://www.w3.org/Graphics/SVG/1.1/DTD/svg11.dtd">
<!-- Creator: CorelDRAW 2020 (64-Bit) -->
<svg xmlns="http://www.w3.org/2000/svg" xml:space="preserve" width="56.0786mm" height="28.0917mm" version="1.1" style="shape-rendering:geometricPrecision; text-rendering:geometricPrecision; image-rendering:optimizeQuality; fill-rule:evenodd; clip-rule:evenodd"
viewBox="0 0 39586.23 19830.11"
 xmlns:xlink="http://www.w3.org/1999/xlink"
 xmlns:xodm="http://www.corel.com/coreldraw/odm/2003">
 <defs>
  <style type="text/css">
   <![CDATA[
    .fil6 {fill:#F7ECC5;fill-rule:nonzero}
    .fil7 {fill:#F9E495;fill-rule:nonzero}
    .fil5 {fill:#FDD235;fill-rule:nonzero}
    .fil0 {fill:#FFCA05;fill-rule:nonzero}
    .fil4 {fill:#FFCA05;fill-rule:nonzero;fill-opacity:0.200000}
    .fil3 {fill:#FFCA05;fill-rule:nonzero;fill-opacity:0.400000}
    .fil2 {fill:#FFCA05;fill-rule:nonzero;fill-opacity:0.600000}
    .fil1 {fill:#FFCA05;fill-rule:nonzero;fill-opacity:0.800000}
   ]]>
  </style>
 </defs>
 <g id="Layer_x0020_1">
  <metadata id="CorelCorpID_0Corel-Layer"/>
  <g id="_2036580379824">
   <path class="fil0" d="M39586.23 19788.24c0,-4180.87 -1323.64,-8254.44 -3780.97,-11636.72l-7207.44 5236.48c1351.46,1860.42 2079.53,4100.68 2079.53,6400.24l8908.89 0z"/>
   <path class="fil1" d="M35792.34 8150.04c-2457.89,-3379.67 -5922.41,-5894.53 -9897.3,-7184.08l-2747.95 8470.1c2186.33,709.29 4091.79,2092.38 5443.67,3951.17l7201.58 -5237.19z"/>
   <path class="fil2" d="M25877.11 960.1c-3976.16,-1285.81 -8257.13,-1279.88 -12229.75,16.94l2763.48 8465.02c2184.85,-713.25 4539.47,-716.49 6726.37,-9.32l2739.9 -8472.64z"/>
   <path class="fil3" d="M13624.55 984.39c-3970.86,1301.55 -7427.83,3826.86 -9875.42,7213.94l7217.47 5215.45c1346.09,-1862.89 3247.38,-3251.76 5431.52,-3967.62l-2773.58 -8461.77z"/>
   <path class="fil4" d="M3754.72 8190.91c-2449.14,3385.88 -3763.4,7460.16 -3754.64,11639.19l8904.65 -18.92c-4.8,-2298.36 718.19,-4539.26 2065.06,-6401.58l-7215.07 -5218.69z"/>
   <polygon class="fil0" points="3898.93,14720.05 3898.93,14244.9 4726.68,14244.9 4726.68,16426.37 4194.78,16426.37 4194.78,14720.05 "/>
   <path class="fil5" d="M10273.41 7799.13c67.63,-53.79 98.62,-78.71 92.61,-74.76 195.18,-161.37 348.51,-293.8 460.18,-397.43 113.51,-103.63 209.16,-212.2 286.88,-325.71 77.65,-113.58 116.55,-224.13 116.55,-331.71 0,-81.67 -19.06,-145.49 -56.83,-191.3 -37.91,-45.81 -94.66,-68.68 -170.34,-68.68 -75.81,0 -135.53,28.87 -179.3,86.61 -41.79,55.84 -62.76,135.46 -62.76,239.09l-493 0c3.95,-169.35 39.81,-310.81 107.58,-424.32 69.67,-113.58 160.31,-197.23 271.99,-251.02 113.44,-53.79 238.95,-80.69 376.46,-80.69 236.97,0 415.36,60.71 534.87,182.26 121.42,121.56 182.34,279.89 182.34,475.15 0,213.18 -72.85,411.4 -218.2,594.66 -145.49,181.35 -330.72,358.6 -555.83,531.97l806.85 0 0 415.36 -1500.05 0 0 -379.5z"/>
   <path class="fil6" d="M19409.81 3280.77c8.05,-213.18 77.72,-377.52 209.16,-493.08 131.51,-115.56 309.89,-173.37 534.94,-173.37 149.44,0 277,25.91 382.53,77.72 107.58,51.81 188.27,122.55 242.06,212.2 55.84,89.65 83.65,190.24 83.65,301.77 0,131.51 -32.9,239.09 -98.62,322.74 -65.72,81.67 -142.31,137.51 -230.13,167.37l0 11.93c113.58,37.91 203.23,100.66 268.95,188.27 65.79,87.67 98.62,200.27 98.62,337.71 0,123.53 -28.73,233.09 -86.61,328.74 -55.7,93.6 -138.43,167.3 -248.06,221.09 -107.58,53.79 -236.06,80.69 -385.5,80.69 -239.09,0 -430.32,-58.73 -573.76,-176.26 -141.39,-117.53 -216.08,-294.86 -224.13,-531.97l496.04 0c2.05,87.67 26.9,157.42 74.76,209.23 47.79,49.77 117.6,74.68 209.16,74.68 77.72,0 137.44,-21.88 179.3,-65.72 43.91,-45.81 65.72,-105.6 65.72,-179.3 0,-95.65 -30.78,-164.41 -92.61,-206.2 -59.79,-43.84 -156.36,-65.79 -289.85,-65.79l-95.65 0 0 -415.36 95.65 0c101.58,0 183.39,-16.94 245.02,-50.83 63.88,-35.86 95.65,-98.62 95.65,-188.27 0,-71.72 -19.84,-127.49 -59.79,-167.3 -39.81,-39.88 -94.52,-59.79 -164.33,-59.79 -75.67,0 -132.43,22.94 -170.34,68.76 -35.86,45.81 -56.83,102.57 -62.76,170.34l-499.08 0z"/>
   <path class="fil6" d="M28542.54 8193.59l0 -412.39 944.29 -1350.75 570.8 0 0 1320.82 245.02 0 0 442.32 -245.02 0 0 388.46 -511.01 0 0 -388.46 -1004.08 0zm1039.94 -1201.31l-502.04 758.99 502.04 0 0 -758.99z"/>
   <path class="fil7" d="M35335.48 14690.12l-932.36 0 0 412.39c39.81,-43.91 95.65,-79.77 167.37,-107.58 71.72,-27.81 149.44,-41.79 233.09,-41.79 149.44,0 272.9,33.74 370.53,101.58 99.6,67.77 172.45,155.37 218.2,262.95 45.74,107.58 68.68,224.13 68.68,349.64 0,233.09 -65.72,418.39 -197.23,555.83 -131.44,135.39 -316.74,203.23 -555.83,203.23 -159.25,0 -297.89,-26.9 -415.36,-80.69 -117.46,-55.84 -208.24,-132.43 -271.92,-230.13 -63.67,-97.7 -98.62,-210.08 -104.62,-337.63l499.08 0c11.93,61.77 40.87,113.51 86.61,155.37 45.81,39.74 108.57,59.79 188.27,59.79 93.6,0 163.49,-29.93 209.23,-89.65 45.74,-59.79 68.68,-139.56 68.68,-239.09 0,-97.7 -23.86,-172.38 -71.72,-224.13 -47.79,-51.74 -117.46,-77.72 -209.16,-77.72 -67.77,0 -123.46,17.01 -167.37,50.83 -43.84,31.91 -72.64,74.68 -86.61,128.47l-493.08 0 0 -1299.93 1395.51 0 0 448.25z"/>
  </g>
 </g>
</svg>
