<svg width="39" height="39" viewBox="0 0 39 39" fill="none" xmlns="http://www.w3.org/2000/svg">
<path d="M5.914 14.2894C6.75972 12.0842 8.12956 10.1179 9.90521 8.56055C11.6809 7.00317 13.8089 5.90146 16.1056 5.35056C18.4024 4.79966 20.7986 4.81613 23.0876 5.39857C25.3765 5.981 27.4892 7.11188 29.2433 8.69353L25.3577 13.0026C24.3031 12.0517 23.0329 11.3718 21.6567 11.0216C20.2806 10.6714 18.8399 10.6615 17.459 10.9927C16.0782 11.3239 14.7987 11.9863 13.7311 12.9227C12.6635 13.859 11.84 15.0412 11.3315 16.367L5.914 14.2894Z" fill="#FF4132"/>
<path d="M5.94199 24.7807C4.62925 21.4102 4.61897 17.6717 5.91313 14.294L11.3312 16.37C10.5532 18.4007 10.5593 20.6485 11.3486 22.6749L5.94199 24.7807Z" fill="#EDBA25"/>
<path d="M27.7574 31.4801C25.9498 32.7261 23.8836 33.5468 21.7137 33.8809C19.5438 34.2149 17.3264 34.0536 15.2277 33.4089C13.1291 32.7643 11.2035 31.6531 9.59519 30.1586C7.98694 28.6641 6.73773 26.825 5.94116 24.7792L11.348 22.674C11.8269 23.904 12.578 25.0097 13.5449 25.9083C14.5118 26.8068 15.6696 27.4749 16.9314 27.8625C18.1932 28.25 19.5263 28.347 20.8309 28.1462C22.1355 27.9454 23.3778 27.4519 24.4646 26.7028L27.7574 31.4801Z" fill="#01A84C"/>
<path fill-rule="evenodd" clip-rule="evenodd" d="M19.5 16.9372V22.3364H27.37C27.2981 22.8391 27.0798 23.8153 26.706 24.4599C26.6212 24.5831 26.5333 24.7041 26.4423 24.8227C26.4285 24.8372 26.4145 24.8512 26.4004 24.8648L26.3633 24.8987C26.3758 24.8878 26.3881 24.8765 26.4004 24.8648L26.4327 24.8351C25.8804 25.5528 25.2171 26.184 24.4638 26.7031L27.756 31.4809C30.0527 29.8983 31.8462 27.689 32.9228 25.116C33.9051 22.7684 34.2529 20.2084 33.9377 17.6917L33.8672 16.8457L19.5 16.9372Z" fill="#0033FF"/>
</svg>
