<?xml version="1.0" encoding="UTF-8"?>
<!DOCTYPE svg PUBLIC "-//W3C//DTD SVG 1.1//EN" "http://www.w3.org/Graphics/SVG/1.1/DTD/svg11.dtd">
<!-- Creator: CorelDRAW 2020 (64-Bit) -->
<svg xmlns="http://www.w3.org/2000/svg" xml:space="preserve" width="25.1406mm" height="25.1406mm" version="1.1" style="shape-rendering:geometricPrecision; text-rendering:geometricPrecision; image-rendering:optimizeQuality; fill-rule:evenodd; clip-rule:evenodd"
viewBox="0 0 819.68 819.68"
 xmlns:xlink="http://www.w3.org/1999/xlink"
 xmlns:xodm="http://www.corel.com/coreldraw/odm/2003">
 <defs>
  <style type="text/css">
   <![CDATA[
    .fil0 {fill:#FFF3C8}
   ]]>
  </style>
 </defs>
 <g id="Layer_x0020_1">
  <metadata id="CorelCorpID_0Corel-Layer"/>
  <g id="_2435368256480">
   <path class="fil0" d="M529.96 17.81c-35.89,-10.98 -73.88,-17.16 -113.22,-17.81l0 76.09c31.13,0.63 61.22,5.53 89.69,14.12l23.52 -72.4z"/>
   <path class="fil0" d="M645.17 74.18c-31.13,-21.86 -65.43,-39.51 -102.09,-52.1l-23.52 72.4c28.98,10.08 56.15,24.05 80.87,41.27l44.74 -61.57z"/>
   <path class="fil0" d="M737.38 163.33c-23.1,-30.64 -50.39,-57.94 -81.04,-81.03l-44.74 61.58c24.2,18.39 45.81,40 64.2,64.2l61.58 -44.74z"/>
   <path class="fil0" d="M797.61 276.59c-12.59,-36.65 -30.24,-70.96 -52.11,-102.09l-61.57 44.74c17.23,24.72 31.19,51.9 41.28,80.88l72.4 -23.52z"/>
   <path class="fil0" d="M819.68 402.94c-0.65,-39.34 -6.82,-77.33 -17.81,-113.22l-72.4 23.52c8.6,28.48 13.49,58.56 14.13,89.69l76.08 0z"/>
   <path class="fil0" d="M801.87 529.96c10.98,-35.89 17.16,-73.88 17.81,-113.22l-76.08 0c-0.63,31.13 -5.53,61.22 -14.13,89.7l72.4 23.52z"/>
   <path class="fil0" d="M745.5 645.18c21.86,-31.13 39.51,-65.44 52.1,-102.09l-72.4 -23.52c-10.08,28.98 -24.05,56.15 -41.28,80.88l61.57 44.74z"/>
   <path class="fil0" d="M656.35 737.38c30.64,-23.1 57.94,-50.4 81.04,-81.04l-61.58 -44.74c-18.39,24.2 -40,45.81 -64.2,64.2l44.74 61.58z"/>
   <path class="fil0" d="M543.09 797.61c36.66,-12.59 70.96,-30.24 102.09,-52.1l-44.74 -61.57c-24.72,17.23 -51.9,31.19 -80.88,41.28l23.53 72.4z"/>
   <path class="fil0" d="M416.74 819.68c39.34,-0.65 77.33,-6.82 113.22,-17.81l-23.53 -72.4c-28.48,8.6 -58.56,13.49 -89.69,14.12l0 76.09z"/>
   <path class="fil0" d="M289.72 801.87c35.89,10.98 73.88,17.17 113.22,17.81l0 -76.09c-31.13,-0.63 -61.21,-5.53 -89.69,-14.13l-23.52 72.4z"/>
   <path class="fil0" d="M174.5 745.5c31.13,21.87 65.43,39.52 102.09,52.11l23.53 -72.4c-28.98,-10.08 -56.15,-24.05 -80.88,-41.28l-44.74 61.58z"/>
   <path class="fil0" d="M82.3 656.34c23.1,30.64 50.39,57.94 81.03,81.04l44.74 -61.58c-24.2,-18.39 -45.81,-40 -64.2,-64.2l-61.58 44.74z"/>
   <path class="fil0" d="M22.07 543.09c12.59,36.65 30.24,70.96 52.1,102.09l61.57 -44.73c-17.23,-24.72 -31.19,-51.89 -41.28,-80.88l-72.4 23.52z"/>
   <path class="fil0" d="M-0 416.74c0.65,39.34 6.82,77.33 17.81,113.22l72.4 -23.52c-8.6,-28.48 -13.49,-58.56 -14.12,-89.69l-76.08 0z"/>
   <path class="fil0" d="M17.81 289.72c-10.98,35.89 -17.16,73.88 -17.81,113.22l76.08 0c0.63,-31.13 5.53,-61.21 14.13,-89.69l-72.4 -23.52z"/>
   <path class="fil0" d="M74.18 174.5c-21.86,31.13 -39.51,65.44 -52.11,102.09l72.4 23.52c10.08,-28.99 24.05,-56.15 41.28,-80.88l-61.57 -44.74z"/>
   <path class="fil0" d="M163.34 82.3c-30.64,23.1 -57.94,50.4 -81.03,81.04l61.58 44.74c18.39,-24.2 40,-45.81 64.2,-64.19l-44.74 -61.58z"/>
   <path class="fil0" d="M276.59 22.08c-36.65,12.6 -70.96,30.24 -102.09,52.1l44.74 61.58c24.72,-17.23 51.89,-31.19 80.87,-41.28l-23.52 -72.4z"/>
   <path class="fil0" d="M402.94 0c-39.34,0.65 -77.33,6.82 -113.22,17.81l23.52 72.4c28.48,-8.6 58.56,-13.49 89.69,-14.13l0 -76.09z"/>
  </g>
 </g>
</svg>
