<svg width="22" height="22" viewBox="0 0 22 22" fill="none" xmlns="http://www.w3.org/2000/svg">
<g id="Group">
<g id="google">
<path id="Ellipse 17" d="M3.24411 7.83974C3.70806 6.62997 4.45954 5.55132 5.43364 4.69696C6.40775 3.8426 7.57518 3.23821 8.83513 2.93599C10.0951 2.63377 11.4097 2.64281 12.6653 2.96233C13.921 3.28184 15.08 3.90223 16.0423 4.76991L13.9107 7.13383C13.3322 6.61215 12.6354 6.23916 11.8804 6.04706C11.1255 5.85495 10.3351 5.84952 9.57757 6.03122C8.82005 6.21292 8.11815 6.5763 7.5325 7.08997C6.94684 7.60364 6.49503 8.25215 6.21608 8.9795L3.24411 7.83974Z" fill="#FF4132"/>
<path id="Ellipse 18" d="M3.25933 13.5944C2.53918 11.7454 2.53354 9.69442 3.2435 7.8415L6.21582 8.98036C5.78897 10.0944 5.79236 11.3275 6.22534 12.4392L3.25933 13.5944Z" fill="#EDBA25"/>
<path id="Ellipse 19" d="M15.2263 17.2692C14.2347 17.9527 13.1012 18.403 11.9108 18.5862C10.7204 18.7695 9.50399 18.681 8.35267 18.3273C7.20135 17.9737 6.14499 17.3641 5.26272 16.5442C4.38044 15.7244 3.69514 14.7155 3.25816 13.5932L6.22428 12.4383C6.48701 13.1131 6.89904 13.7196 7.42948 14.2126C7.95993 14.7055 8.59505 15.072 9.28726 15.2846C9.97946 15.4972 10.7108 15.5504 11.4265 15.4403C12.1422 15.3301 12.8237 15.0594 13.4199 14.6484L15.2263 17.2692Z" fill="#01A84C"/>
<path id="Union" fill-rule="evenodd" clip-rule="evenodd" d="M10.6992 9.29141V12.2533H15.0166C14.9772 12.5289 14.8576 13.0639 14.6528 13.4176C14.606 13.4855 14.5575 13.5523 14.5073 13.6177C14.4998 13.6255 14.4923 13.6331 14.4847 13.6404L14.4644 13.659C14.4712 13.653 14.478 13.6468 14.4847 13.6404L14.5021 13.6244C14.1992 14.018 13.8354 14.3641 13.4223 14.6488L15.2283 17.2698C16.4883 16.4017 17.4722 15.1896 18.0628 13.7781C18.6016 12.4905 18.7924 11.0863 18.6196 9.70589L18.5809 9.24121L10.6992 9.29141Z" fill="#0183FF"/>
</g>
</g>
</svg>
