<svg width="13" height="13" viewBox="0 0 13 13" fill="none" xmlns="http://www.w3.org/2000/svg">
<g id="Group">
<g id="Group_2">
<path id="Vector" d="M1.53124 0.185547C2.36323 0.185547 3.04629 0.871857 3.04305 1.70708C3.04305 2.58115 2.31467 3.23832 1.51829 3.22213C0.708968 3.23832 0 2.56496 0 1.70384C0 0.868617 0.686307 0.188787 1.528 0.188787L1.53124 0.185547Z" fill="#0084B3"/>
<path id="Vector_2" d="M2.41297 12.8075H0.632457C0.40261 12.8075 0.214844 12.6198 0.214844 12.3899V4.79847C0.214844 4.56863 0.40261 4.38086 0.632457 4.38086H2.41297C2.64282 4.38086 2.83058 4.56863 2.83058 4.79847V12.3899C2.83058 12.6198 2.64282 12.8075 2.41297 12.8075Z" fill="#0084B3"/>
<path id="Vector_3" d="M12.6553 7.04819C12.6553 5.45544 11.3669 4.16699 9.77411 4.16699H9.31765C8.44682 4.16699 7.67959 4.60079 7.21665 5.26444C7.16486 5.33566 7.11954 5.41336 7.07745 5.48781C7.06126 5.48781 7.05479 5.48458 7.05479 5.48781V4.55547C7.05479 4.45835 6.97709 4.38065 6.87997 4.38065H4.65919C4.56207 4.38065 4.48438 4.45835 4.48438 4.55547V12.6358C4.48438 12.7329 4.56207 12.8106 4.65919 12.8106H6.92853C7.02565 12.8106 7.10334 12.7329 7.10334 12.639V7.97081C7.10334 7.16473 7.74757 6.49461 8.55366 6.4849C8.96479 6.48166 9.34031 6.64677 9.60901 6.91546C9.87447 7.18092 10.0396 7.54673 10.0396 7.95139V12.639C10.0396 12.7361 10.1173 12.8138 10.2144 12.8138H12.487C12.5841 12.8138 12.6618 12.7361 12.6618 12.6422V7.05466L12.6553 7.04819Z" fill="#0084B3"/>
</g>
</g>
</svg>
