<svg width="28" height="28" viewBox="0 0 28 28" fill="none" xmlns="http://www.w3.org/2000/svg">
<path d="M3.31881 0C5.12206 0 6.60253 1.48751 6.59551 3.29777C6.59551 5.19222 5.0168 6.61657 3.29074 6.58149C1.53662 6.61657 0 5.15713 0 3.29074C0 1.48048 1.4875 0.00702336 3.31179 0.00702336L3.31881 0Z" fill="#0033FF"/>
<path d="M5.22906 27.3577H1.36998C0.871807 27.3577 0.464844 26.9508 0.464844 26.4526V9.99889C0.464844 9.50071 0.871807 9.09375 1.36998 9.09375H5.22906C5.72723 9.09375 6.13419 9.50071 6.13419 9.99889V26.4526C6.13419 26.9508 5.72723 27.3577 5.22906 27.3577Z" fill="#0033FF"/>
<path d="M27.4284 14.8756C27.4284 11.4234 24.6358 8.63086 21.1837 8.63086H20.1944C18.3069 8.63086 16.644 9.57108 15.6407 11.0095C15.5284 11.1638 15.4302 11.3322 15.339 11.4936C15.3039 11.4936 15.2899 11.4866 15.2899 11.4936V9.47285C15.2899 9.26235 15.1215 9.09395 14.911 9.09395H10.0976C9.88715 9.09395 9.71875 9.26235 9.71875 9.47285V26.986C9.71875 27.1965 9.88715 27.3649 10.0976 27.3649H15.0162C15.2267 27.3649 15.3951 27.1965 15.3951 26.9931V16.8753C15.3951 15.1281 16.7914 13.6757 18.5385 13.6547C19.4296 13.6477 20.2435 14.0055 20.8259 14.5879C21.4012 15.1632 21.7591 15.9561 21.7591 16.8332V26.9931C21.7591 27.2036 21.9275 27.372 22.138 27.372H27.0636C27.274 27.372 27.4425 27.2036 27.4425 27.0001V14.8896L27.4284 14.8756Z" fill="#0033FF"/>
</svg>
