<svg width="201" height="161" viewBox="0 0 201 161" fill="none" xmlns="http://www.w3.org/2000/svg">
<path fill-rule="evenodd" clip-rule="evenodd" d="M0.319264 82.4135C11.7421 128.403 52.6359 160.573 100.155 160.573C148.816 160.573 190.852 126.364 200.448 79.2418C200.905 74.9373 198.392 70.1797 193.366 69.047C188.568 67.9142 183.542 71.0859 183.085 76.0701C175.089 115.037 139.907 142.903 99.9265 142.903C60.6319 142.903 26.5918 116.623 17.4535 78.7887C16.3113 74.0311 11.5136 70.8594 6.71604 72.4452C2.37535 73.1249 -0.823022 77.4294 0.319264 82.4135Z" fill="white"/>
<path fill-rule="evenodd" clip-rule="evenodd" d="M47.7578 17.2787C47.7578 27.0549 55.6131 35.0122 65.2639 35.0122C74.9147 35.0122 82.77 27.0549 82.77 17.2787C82.77 7.50261 74.9147 0 65.2639 0C55.6131 0.227352 47.7578 7.72996 47.7578 17.2787Z" fill="white"/>
<path fill-rule="evenodd" clip-rule="evenodd" d="M132.908 0C123.258 0 115.402 7.50261 115.402 17.2787C115.402 27.0549 123.258 35.0122 132.908 35.0122C142.335 35.0122 150.415 27.0549 150.415 17.2787C150.415 7.50261 142.335 0 132.908 0Z" fill="white"/>
</svg>
