<svg width="156" height="154" viewBox="0 0 156 154" fill="none" xmlns="http://www.w3.org/2000/svg">
<path fill-rule="evenodd" clip-rule="evenodd" d="M69 26.3333C69 -8.77778 28 -8.77778 28 26.3333C28 37.8889 41.3744 37.8889 41.3744 26.3333C41.3744 14.3333 55.4064 14.3333 55.4064 26.3333C55.6257 37.8889 69 37.8889 69 26.3333Z" fill="white"/>
<path fill-rule="evenodd" clip-rule="evenodd" d="M128 26.3333C128 -8.77778 87 -8.77778 87 26.3333C87 37.8889 100.374 37.8889 100.374 26.3333C100.374 14.3333 113.749 14.3333 113.749 26.3333C113.968 37.8889 128 37.8889 128 26.3333Z" fill="white"/>
<path fill-rule="evenodd" clip-rule="evenodd" d="M142.752 69.157C128.655 157.068 29.7553 159.712 13.6758 71.8009C11.6934 60.3438 -1.96305 64.5301 0.239617 75.5465C20.0636 182.185 139.228 179.101 155.748 72.4619C156.849 67.8351 154.206 62.9878 150.462 62.1065C146.937 61.4455 143.193 63.8692 142.752 69.157Z" fill="white"/>
</svg>
