<svg width="166" height="133" viewBox="0 0 166 133" fill="none" xmlns="http://www.w3.org/2000/svg">
<path fill-rule="evenodd" clip-rule="evenodd" d="M0.19326 68.2614C9.65462 106.354 43.5262 133 82.8855 133C123.191 133 158.009 104.665 165.956 65.6343C166.335 62.069 164.253 58.1284 160.09 57.1902C156.116 56.2519 151.953 58.879 151.575 63.0073C144.952 95.2827 115.811 118.363 82.6962 118.363C50.1492 118.363 21.9544 96.5963 14.3853 65.259C13.4392 61.3184 9.46537 58.6914 5.4916 60.0049C1.89628 60.5678 -0.752875 64.1332 0.19326 68.2614Z" fill="white"/>
<path fill-rule="evenodd" clip-rule="evenodd" d="M37 14.3117C37 22.4091 43.5064 29 51.5 29C59.4936 29 66 22.4091 66 14.3117C66 6.21428 59.4936 0 51.5 0C43.5064 0.188312 37 6.4026 37 14.3117Z" fill="white"/>
<path fill-rule="evenodd" clip-rule="evenodd" d="M112.5 0C104.506 0 98 6.21428 98 14.3117C98 22.4091 104.506 29 112.5 29C120.308 29 127 22.4091 127 14.3117C127 6.21428 120.308 0 112.5 0Z" fill="white"/>
</svg>
