<svg width="96" height="94" viewBox="0 0 96 94" fill="none" xmlns="http://www.w3.org/2000/svg">
<path fill-rule="evenodd" clip-rule="evenodd" d="M76.1223 28.6627C86.8876 28.6627 95.4999 19.1085 95.4999 6.99745C95.4999 3.22958 92.674 0 89.1753 0C85.6765 0 82.4469 3.22958 82.4469 6.99745C82.4469 11.169 79.621 14.2641 76.1223 14.2641C72.6235 14.2641 69.3939 11.0345 69.3939 6.99745C69.3939 3.22958 66.568 0 63.0693 0C59.5706 0 56.7446 3.22958 56.7446 6.99745C56.7446 19.1085 65.3569 28.6627 76.1223 28.6627Z" fill="white"/>
<path fill-rule="evenodd" clip-rule="evenodd" d="M19.8776 28.6627C30.643 28.6627 39.2552 19.1085 39.2552 6.99745C39.2552 3.22958 36.4293 0 32.9306 0C29.1627 0 26.2022 3.22958 26.2022 6.99745C26.2022 11.169 23.3764 14.2641 19.8776 14.2641C16.3789 14.2641 13.1493 11.0345 13.1493 6.99745C13.1493 3.22958 10.3234 0 6.82462 0C3.32588 0 0.5 3.22958 0.5 6.99745C0.5 19.1085 9.11227 28.6627 19.8776 28.6627Z" fill="white"/>
<path fill-rule="evenodd" clip-rule="evenodd" d="M83.7887 72.2568C78.4061 72.2568 73.9653 76.9667 73.9653 83.0222C73.9653 89.0777 78.4061 93.7875 83.7887 93.7875C89.1714 93.7875 93.6121 89.0777 93.6121 83.0222C93.6121 76.9667 89.1714 72.2568 83.7887 72.2568Z" fill="white"/>
</svg>
