<svg width="150" height="143" viewBox="0 0 150 143" fill="none" xmlns="http://www.w3.org/2000/svg">
<path fill-rule="evenodd" clip-rule="evenodd" d="M31.9834 13.4103C31.9834 20.6925 37.9108 26.2812 45.1931 26.2812C52.4753 26.2812 58.064 20.6925 58.064 13.4103C58.064 6.12802 52.4753 0.200604 45.1931 0.200605C37.9108 0.200605 31.9834 6.29738 31.9834 13.4103Z" fill="white"/>
<path fill-rule="evenodd" clip-rule="evenodd" d="M124.621 7.80267C124.621 4.24622 121.742 1.36719 118.186 1.36719C114.629 1.36719 111.412 4.24622 111.412 7.80267C111.412 11.3591 108.533 14.5769 104.976 14.5769C101.42 14.5769 98.202 11.3591 98.202 7.80267C98.202 4.24622 95.323 1.36719 91.7665 1.36719C88.2101 1.36719 85.3311 4.24622 85.3311 7.80267C85.3311 18.6414 94.1375 27.4478 104.976 27.4478C115.815 27.4478 124.621 18.6414 124.621 7.80267Z" fill="white"/>
<path fill-rule="evenodd" clip-rule="evenodd" d="M136.146 79.6316C130.219 108.422 104.477 129.591 74.5013 129.591C45.3723 129.591 20.4772 109.607 13.703 81.1558C12.8562 77.938 9.29977 75.5671 5.74332 76.4138C2.18687 77.2606 0.154623 80.8171 1.0014 84.3735C8.96107 118.753 39.4449 142.801 74.6707 142.801C110.743 142.801 141.905 117.228 149.017 82.0026C149.864 78.4461 147.493 75.2284 144.275 74.3816C140.55 73.5348 136.824 75.9058 136.146 79.6316Z" fill="white"/>
</svg>
