<?xml version="1.0" encoding="UTF-8"?>
<!DOCTYPE svg PUBLIC "-//W3C//DTD SVG 1.1//EN" "http://www.w3.org/Graphics/SVG/1.1/DTD/svg11.dtd">
<!-- Creator: CorelDRAW 2020 (64-Bit) -->
<svg xmlns="http://www.w3.org/2000/svg" xml:space="preserve" width="416px" height="638px" version="1.1" shape-rendering="geometricPrecision" text-rendering="geometricPrecision" image-rendering="optimizeQuality" fill-rule="evenodd" clip-rule="evenodd"
viewBox="0 0 58.15 89.16"
 xmlns:xlink="http://www.w3.org/1999/xlink"
 xmlns:xodm="http://www.corel.com/coreldraw/odm/2003">
 <g id="Layer_x0020_1">
  <metadata id="CorelCorpID_0Corel-Layer"/>
  <path fill="#EBEBEB" fill-rule="nonzero" d="M42.99 51.33l2.46 8.16c0.27,0.81 0.36,1.66 0.26,2.5 -0.1,0.84 -0.37,1.65 -0.82,2.39 -0.44,0.73 -1.04,1.38 -1.76,1.89 -0.72,0.51 -1.55,0.89 -2.43,1.09 -1.75,0.46 -3.62,0.25 -5.2,-0.57 -1.59,-0.83 -2.76,-2.21 -3.25,-3.84l-3.95 -13.08c0,-0.11 0.11,-0.15 0.07,-0.28 -0.18,-0.09 -0.18,-0.09 -0.22,-0.22 -0.44,-1.63 -0.19,-3.35 0.69,-4.81 0.88,-1.47 2.34,-2.56 4.06,-3.06 2.06,-0.45 4,-1.29 5.7,-2.45 1.71,-1.17 3.14,-2.65 4.21,-4.35 1.08,-1.7 1.77,-3.58 2.04,-5.53 0.27,-1.96 0.12,-3.94 -0.46,-5.84 -0.57,-1.89 -1.55,-3.66 -2.88,-5.2 -1.33,-1.53 -2.98,-2.8 -4.85,-3.72 -1.87,-0.93 -3.92,-1.49 -6.03,-1.66 -2.1,-0.17 -4.23,0.07 -6.24,0.68 -2.62,0.68 -5,1.98 -6.9,3.79 -1.91,1.81 -3.27,4.05 -3.94,6.5 -0.22,0.83 -0.62,1.6 -1.17,2.29 -0.54,0.68 -1.23,1.26 -2.02,1.7 -0.79,0.43 -1.67,0.71 -2.58,0.83 -0.9,0.12 -1.83,0.06 -2.72,-0.15 -0.86,-0.22 -1.68,-0.59 -2.39,-1.1 -0.71,-0.51 -1.31,-1.15 -1.76,-1.87 -0.45,-0.73 -0.74,-1.53 -0.85,-2.36 -0.12,-0.83 -0.06,-1.67 0.18,-2.48 1.21,-4.39 3.58,-8.44 6.88,-11.77 3.31,-3.33 7.45,-5.85 12.06,-7.32 4.61,-1.48 9.54,-1.86 14.35,-1.12 4.81,0.73 9.34,2.57 13.2,5.35 3.86,2.77 6.91,6.4 8.89,10.54 1.98,4.15 2.82,8.68 2.45,13.21 -0.37,4.52 -1.95,8.89 -4.58,12.7 -2.63,3.82 -6.24,6.97 -10.51,9.17l0.01 -0.01zm8.3 27.47l0.68 2.25c0.27,0.81 0.36,1.66 0.26,2.5 -0.1,0.85 -0.38,1.66 -0.82,2.4 -0.45,0.73 -1.05,1.38 -1.78,1.89 -0.72,0.51 -1.55,0.89 -2.43,1.09 -1.75,0.45 -3.62,0.24 -5.2,-0.58 -1.59,-0.83 -2.76,-2.21 -3.25,-3.84l-0.7 -2.26c-0.46,-1.63 -0.22,-3.36 0.66,-4.83 0.89,-1.47 2.36,-2.56 4.09,-3.04 0.87,-0.24 1.78,-0.31 2.68,-0.22 0.9,0.09 1.77,0.35 2.56,0.76 0.79,0.42 1.49,0.97 2.04,1.64 0.56,0.66 0.97,1.42 1.2,2.24l0.01 0z"/>
 </g>
</svg>
