<?xml version="1.0" encoding="UTF-8"?>
<!DOCTYPE svg PUBLIC "-//W3C//DTD SVG 1.1//EN" "http://www.w3.org/Graphics/SVG/1.1/DTD/svg11.dtd">
<!-- Creator: CorelDRAW 2020 (64-Bit) -->
<svg xmlns="http://www.w3.org/2000/svg" xml:space="preserve" width="240px" height="206px" version="1.1" shape-rendering="geometricPrecision" text-rendering="geometricPrecision" image-rendering="optimizeQuality" fill-rule="evenodd" clip-rule="evenodd"
viewBox="0 0 9.32 7.99"
 xmlns:xlink="http://www.w3.org/1999/xlink"
 xmlns:xodm="http://www.corel.com/coreldraw/odm/2003">
 <g id="Layer_x0020_1">
  <metadata id="CorelCorpID_0Corel-Layer"/>
  <path fill="#41BDC9" fill-rule="nonzero" d="M4.08 5.56l-0.77 0.62c-0.08,0.06 -0.17,0.11 -0.26,0.14 -0.1,0.03 -0.2,0.04 -0.3,0.03 -0.1,0 -0.2,-0.03 -0.29,-0.08 -0.09,-0.04 -0.17,-0.1 -0.23,-0.18 -0.13,-0.14 -0.2,-0.33 -0.18,-0.52 0.01,-0.19 0.11,-0.36 0.26,-0.49l1.24 -0.98c0.01,-0.01 0.02,0 0.04,-0.01 0.01,-0.01 -0.01,-0.02 0,-0.03 0.16,-0.12 0.36,-0.18 0.56,-0.17 0.2,0.02 0.39,0.11 0.52,0.25 0.15,0.17 0.33,0.31 0.54,0.42 0.21,0.1 0.43,0.17 0.67,0.19 0.23,0.02 0.47,0 0.69,-0.07 0.23,-0.06 0.43,-0.17 0.61,-0.31 0.18,-0.15 0.33,-0.32 0.43,-0.52 0.11,-0.19 0.17,-0.41 0.19,-0.63 0.01,-0.22 -0.02,-0.44 -0.1,-0.64 -0.08,-0.21 -0.2,-0.4 -0.36,-0.57 -0.2,-0.21 -0.45,-0.38 -0.74,-0.48 -0.28,-0.09 -0.59,-0.12 -0.89,-0.07 -0.1,0.03 -0.21,0.03 -0.31,0.01 -0.1,-0.02 -0.2,-0.05 -0.29,-0.11 -0.08,-0.05 -0.16,-0.12 -0.22,-0.2 -0.05,-0.08 -0.09,-0.17 -0.11,-0.27 -0.02,-0.09 -0.02,-0.19 0,-0.29 0.03,-0.09 0.07,-0.18 0.13,-0.26 0.06,-0.08 0.14,-0.15 0.23,-0.2 0.09,-0.05 0.19,-0.08 0.29,-0.09 0.53,-0.09 1.09,-0.06 1.61,0.1 0.52,0.16 0.99,0.44 1.36,0.81 0.38,0.37 0.65,0.82 0.8,1.31 0.14,0.49 0.16,1.01 0.03,1.51 -0.12,0.49 -0.37,0.96 -0.73,1.34 -0.36,0.38 -0.82,0.67 -1.33,0.85 -0.51,0.18 -1.06,0.23 -1.6,0.16 -0.54,-0.07 -1.05,-0.27 -1.49,-0.57l0 0zm-2.6 2.08l-0.22 0.17c-0.07,0.06 -0.16,0.11 -0.26,0.14 -0.09,0.03 -0.2,0.04 -0.3,0.03 -0.1,0 -0.2,-0.03 -0.29,-0.07 -0.09,-0.05 -0.16,-0.11 -0.23,-0.18 -0.13,-0.15 -0.19,-0.34 -0.18,-0.53 0.02,-0.19 0.11,-0.36 0.27,-0.49l0.21 -0.16c0.16,-0.13 0.36,-0.18 0.56,-0.17 0.2,0.02 0.39,0.11 0.52,0.25 0.07,0.07 0.12,0.15 0.15,0.24 0.03,0.09 0.05,0.19 0.04,0.28 -0.01,0.1 -0.04,0.19 -0.08,0.27 -0.05,0.09 -0.12,0.16 -0.19,0.22z"/>
 </g>
</svg>
