<?xml version="1.0" encoding="UTF-8"?>
<!DOCTYPE svg PUBLIC "-//W3C//DTD SVG 1.1//EN" "http://www.w3.org/Graphics/SVG/1.1/DTD/svg11.dtd">
<!-- Creator: CorelDRAW 2020 (64-Bit) -->
<svg xmlns="http://www.w3.org/2000/svg" xml:space="preserve" width="141px" height="176px" version="1.1" shape-rendering="geometricPrecision" text-rendering="geometricPrecision" image-rendering="optimizeQuality" fill-rule="evenodd" clip-rule="evenodd"
viewBox="0 0 2.68 3.33"
 xmlns:xlink="http://www.w3.org/1999/xlink"
 xmlns:xodm="http://www.corel.com/coreldraw/odm/2003">
 <g id="Layer_x0020_1">
  <metadata id="CorelCorpID_0Corel-Layer"/>
  <path fill="#41BDC9" fill-rule="nonzero" d="M1.97 1.89l0.18 0.29c0.02,0.03 0.03,0.06 0.04,0.1 0.01,0.03 0,0.06 0,0.09 -0.01,0.04 -0.03,0.07 -0.05,0.09 -0.02,0.03 -0.05,0.05 -0.08,0.07 -0.06,0.03 -0.13,0.04 -0.2,0.02 -0.07,-0.02 -0.13,-0.06 -0.17,-0.12l-0.29 -0.47c-0.01,0 0,0 -0.01,-0.01 0,0 0,0 -0.01,0 -0.03,-0.06 -0.04,-0.13 -0.03,-0.2 0.02,-0.06 0.06,-0.12 0.12,-0.15 0.08,-0.04 0.14,-0.09 0.19,-0.15 0.05,-0.06 0.09,-0.13 0.11,-0.2 0.02,-0.08 0.03,-0.15 0.02,-0.23 -0.02,-0.08 -0.04,-0.15 -0.09,-0.22 -0.04,-0.07 -0.1,-0.13 -0.16,-0.17 -0.07,-0.05 -0.15,-0.09 -0.23,-0.11 -0.08,-0.02 -0.16,-0.02 -0.24,-0.01 -0.08,0.01 -0.16,0.04 -0.23,0.08 -0.09,0.05 -0.17,0.12 -0.22,0.21 -0.05,0.08 -0.08,0.18 -0.08,0.28 0,0.04 0,0.07 -0.01,0.1 -0.02,0.04 -0.04,0.07 -0.06,0.09 -0.02,0.03 -0.05,0.04 -0.09,0.06 -0.03,0.01 -0.07,0.02 -0.1,0.02 -0.04,0 -0.08,-0.01 -0.11,-0.02 -0.04,-0.02 -0.07,-0.04 -0.09,-0.06 -0.03,-0.03 -0.05,-0.06 -0.06,-0.09 -0.01,-0.03 -0.02,-0.07 -0.02,-0.1 0,-0.18 0.04,-0.36 0.13,-0.52 0.09,-0.15 0.22,-0.29 0.38,-0.39 0.16,-0.09 0.34,-0.15 0.53,-0.17 0.19,-0.01 0.39,0.02 0.56,0.09 0.18,0.08 0.34,0.19 0.46,0.33 0.12,0.14 0.2,0.31 0.24,0.49 0.03,0.18 0.02,0.36 -0.04,0.53 -0.05,0.17 -0.16,0.33 -0.29,0.45l0 0zm0.62 0.99l0.05 0.08c0.02,0.03 0.03,0.06 0.04,0.09 0,0.03 0,0.07 -0.01,0.1 0,0.03 -0.02,0.06 -0.04,0.09 -0.02,0.02 -0.05,0.05 -0.08,0.06 -0.06,0.03 -0.14,0.04 -0.21,0.02 -0.07,-0.01 -0.13,-0.06 -0.16,-0.11l-0.05 -0.09c-0.04,-0.05 -0.05,-0.12 -0.03,-0.19 0.02,-0.06 0.06,-0.12 0.12,-0.15 0.03,-0.02 0.06,-0.03 0.1,-0.03 0.03,-0.01 0.07,-0.01 0.1,0 0.04,0.01 0.07,0.03 0.1,0.05 0.03,0.02 0.05,0.05 0.07,0.08z"/>
 </g>
</svg>
