<?xml version="1.0" encoding="UTF-8"?>
<!DOCTYPE svg PUBLIC "-//W3C//DTD SVG 1.1//EN" "http://www.w3.org/Graphics/SVG/1.1/DTD/svg11.dtd">
<!-- Creator: CorelDRAW 2020 (64-Bit) -->
<svg xmlns="http://www.w3.org/2000/svg" xml:space="preserve" width="180px" height="250px" version="1.1" shape-rendering="geometricPrecision" text-rendering="geometricPrecision" image-rendering="optimizeQuality" fill-rule="evenodd" clip-rule="evenodd"
viewBox="0 0 8.61 11.96"
 xmlns:xlink="http://www.w3.org/1999/xlink"
 xmlns:xodm="http://www.corel.com/coreldraw/odm/2003">
 <g id="Layer_x0020_1">
  <metadata id="CorelCorpID_0Corel-Layer"/>
  <path fill="#41BDC9" fill-rule="nonzero" d="M6.54 6.81l0.54 1.08c0.06,0.1 0.09,0.22 0.1,0.33 0.01,0.12 -0.01,0.24 -0.05,0.34 -0.04,0.11 -0.11,0.21 -0.19,0.3 -0.08,0.08 -0.19,0.15 -0.3,0.19 -0.22,0.09 -0.48,0.1 -0.71,0.02 -0.24,-0.09 -0.43,-0.26 -0.54,-0.47l-0.86 -1.71c-0.01,-0.02 0.01,-0.03 0.01,-0.05 -0.01,-0.02 -0.03,0.01 -0.05,-0.02 -0.1,-0.21 -0.11,-0.45 -0.03,-0.67 0.08,-0.21 0.25,-0.39 0.47,-0.49 0.26,-0.1 0.5,-0.25 0.69,-0.45 0.2,-0.19 0.35,-0.42 0.45,-0.67 0.1,-0.25 0.14,-0.52 0.13,-0.79 -0.02,-0.27 -0.09,-0.54 -0.21,-0.78 -0.13,-0.25 -0.3,-0.48 -0.52,-0.66 -0.21,-0.19 -0.46,-0.33 -0.73,-0.42 -0.28,-0.1 -0.56,-0.14 -0.85,-0.13 -0.29,0.02 -0.56,0.08 -0.82,0.2 -0.33,0.14 -0.62,0.37 -0.83,0.65 -0.21,0.28 -0.33,0.61 -0.36,0.96 -0.01,0.12 -0.04,0.24 -0.09,0.35 -0.05,0.1 -0.13,0.2 -0.22,0.28 -0.1,0.07 -0.21,0.13 -0.33,0.17 -0.12,0.03 -0.24,0.05 -0.37,0.03 -0.13,-0.01 -0.25,-0.05 -0.36,-0.11 -0.12,-0.05 -0.22,-0.13 -0.3,-0.23 -0.08,-0.09 -0.14,-0.2 -0.17,-0.32 -0.04,-0.11 -0.05,-0.24 -0.03,-0.35 0.05,-0.63 0.26,-1.23 0.62,-1.75 0.36,-0.51 0.86,-0.93 1.44,-1.22 0.58,-0.29 1.23,-0.43 1.9,-0.42 0.66,0.01 1.32,0.18 1.91,0.49 0.59,0.31 1.09,0.75 1.46,1.28 0.37,0.54 0.6,1.14 0.67,1.77 0.06,0.63 -0.04,1.26 -0.3,1.83 -0.25,0.57 -0.66,1.07 -1.18,1.45l0.01 -0.01zm1.82 3.61l0.15 0.3c0.05,0.11 0.08,0.22 0.09,0.34 0.01,0.11 -0.01,0.23 -0.05,0.34 -0.04,0.11 -0.1,0.21 -0.18,0.29 -0.09,0.08 -0.19,0.15 -0.3,0.2 -0.23,0.09 -0.48,0.09 -0.72,0.01 -0.23,-0.09 -0.42,-0.25 -0.53,-0.47l-0.15 -0.29c-0.1,-0.22 -0.11,-0.46 -0.03,-0.68 0.08,-0.21 0.25,-0.39 0.47,-0.49 0.11,-0.05 0.23,-0.07 0.35,-0.08 0.13,0 0.25,0.02 0.37,0.06 0.11,0.04 0.22,0.11 0.31,0.19 0.09,0.08 0.17,0.18 0.22,0.28z"/>
 </g>
</svg>
