<?xml version="1.0" encoding="UTF-8"?>
<!DOCTYPE svg PUBLIC "-//W3C//DTD SVG 1.1//EN" "http://www.w3.org/Graphics/SVG/1.1/DTD/svg11.dtd">
<!-- Creator: CorelDRAW 2020 (64-Bit) -->
<svg xmlns="http://www.w3.org/2000/svg" xml:space="preserve" width="173px" height="265px" version="1.1" shape-rendering="geometricPrecision" text-rendering="geometricPrecision" image-rendering="optimizeQuality" fill-rule="evenodd" clip-rule="evenodd"
viewBox="0 0 5.77 8.84"
 xmlns:xlink="http://www.w3.org/1999/xlink"
 xmlns:xodm="http://www.corel.com/coreldraw/odm/2003">
 <g id="Layer_x0020_1">
  <metadata id="CorelCorpID_0Corel-Layer"/>
  <path fill="#EBEBEB" fill-rule="nonzero" d="M4.26 5.09l0.25 0.81c0.02,0.08 0.03,0.16 0.02,0.25 -0.01,0.08 -0.03,0.16 -0.08,0.23 -0.04,0.08 -0.1,0.14 -0.17,0.19 -0.07,0.05 -0.16,0.09 -0.24,0.11 -0.18,0.05 -0.36,0.03 -0.52,-0.06 -0.16,-0.08 -0.27,-0.22 -0.32,-0.38l-0.39 -1.29c0,-0.02 0.01,-0.02 0,-0.03 -0.01,-0.01 -0.01,-0.01 -0.02,-0.02 -0.04,-0.16 -0.02,-0.34 0.07,-0.48 0.09,-0.15 0.23,-0.25 0.4,-0.3 0.21,-0.05 0.4,-0.13 0.57,-0.25 0.17,-0.11 0.31,-0.26 0.42,-0.43 0.1,-0.17 0.17,-0.35 0.2,-0.55 0.03,-0.19 0.01,-0.39 -0.05,-0.58 -0.05,-0.18 -0.15,-0.36 -0.28,-0.51 -0.14,-0.15 -0.3,-0.28 -0.48,-0.37 -0.19,-0.09 -0.39,-0.15 -0.6,-0.17 -0.21,-0.01 -0.42,0.01 -0.62,0.07 -0.26,0.07 -0.5,0.2 -0.69,0.38 -0.18,0.18 -0.32,0.4 -0.39,0.64 -0.02,0.08 -0.06,0.16 -0.11,0.23 -0.06,0.07 -0.12,0.12 -0.2,0.17 -0.08,0.04 -0.17,0.07 -0.26,0.08 -0.09,0.01 -0.18,0.01 -0.27,-0.01 -0.08,-0.03 -0.16,-0.06 -0.24,-0.11 -0.07,-0.05 -0.13,-0.12 -0.17,-0.19 -0.04,-0.07 -0.07,-0.15 -0.08,-0.23 -0.02,-0.09 -0.01,-0.17 0.01,-0.25 0.12,-0.43 0.36,-0.84 0.69,-1.17 0.32,-0.33 0.74,-0.58 1.19,-0.72 0.46,-0.15 0.95,-0.19 1.43,-0.11 0.47,0.07 0.92,0.25 1.3,0.53 0.39,0.27 0.69,0.63 0.89,1.04 0.19,0.41 0.28,0.86 0.24,1.31 -0.04,0.45 -0.19,0.88 -0.46,1.26 -0.26,0.38 -0.61,0.69 -1.04,0.91l0 0zm0.83 2.72l0.06 0.23c0.03,0.08 0.04,0.16 0.03,0.25 -0.01,0.08 -0.04,0.16 -0.08,0.23 -0.05,0.08 -0.11,0.14 -0.18,0.19 -0.07,0.05 -0.15,0.09 -0.24,0.11 -0.17,0.04 -0.36,0.02 -0.52,-0.06 -0.15,-0.08 -0.27,-0.22 -0.32,-0.38l-0.07 -0.22c-0.04,-0.16 -0.02,-0.34 0.07,-0.48 0.09,-0.15 0.23,-0.26 0.4,-0.3 0.09,-0.03 0.18,-0.03 0.27,-0.03 0.09,0.01 0.18,0.04 0.25,0.08 0.08,0.04 0.15,0.1 0.21,0.16 0.05,0.07 0.09,0.14 0.12,0.22l0 0z"/>
 </g>
</svg>
