<?xml version="1.0" encoding="UTF-8"?>
<!DOCTYPE svg PUBLIC "-//W3C//DTD SVG 1.1//EN" "http://www.w3.org/Graphics/SVG/1.1/DTD/svg11.dtd">
<!-- Creator: CorelDRAW 2020 (64-Bit) -->
<svg xmlns="http://www.w3.org/2000/svg" xml:space="preserve" width="277px" height="378px" version="1.1" shape-rendering="geometricPrecision" text-rendering="geometricPrecision" image-rendering="optimizeQuality" fill-rule="evenodd" clip-rule="evenodd"
viewBox="0 0 11.18 15.27"
 xmlns:xlink="http://www.w3.org/1999/xlink"
 xmlns:xodm="http://www.corel.com/coreldraw/odm/2003">
 <g id="Layer_x0020_1">
  <metadata id="CorelCorpID_0Corel-Layer"/>
  <path fill="#EBEBEB" fill-rule="nonzero" d="M6.33 5.61l0.69 -1.36c0.07,-0.13 0.16,-0.26 0.28,-0.36 0.12,-0.1 0.26,-0.18 0.41,-0.23 0.15,-0.05 0.32,-0.07 0.48,-0.06 0.16,0.01 0.31,0.05 0.46,0.12 0.29,0.13 0.51,0.37 0.62,0.65 0.11,0.29 0.09,0.6 -0.05,0.87l-1.11 2.18c-0.02,0.02 -0.04,0.01 -0.05,0.03 0.02,0.03 0.02,0.03 0.01,0.06 -0.15,0.26 -0.4,0.47 -0.7,0.56 -0.3,0.1 -0.63,0.09 -0.93,-0.03 -0.33,-0.17 -0.69,-0.27 -1.07,-0.3 -0.37,-0.03 -0.75,0.01 -1.11,0.12 -0.35,0.11 -0.68,0.28 -0.97,0.51 -0.28,0.24 -0.51,0.52 -0.67,0.83 -0.16,0.32 -0.25,0.67 -0.26,1.02 -0.02,0.35 0.04,0.7 0.18,1.03 0.13,0.33 0.33,0.63 0.59,0.88 0.26,0.25 0.58,0.46 0.92,0.6 0.44,0.19 0.92,0.28 1.4,0.25 0.48,-0.04 0.95,-0.19 1.35,-0.44 0.13,-0.09 0.28,-0.15 0.44,-0.18 0.16,-0.03 0.32,-0.03 0.48,0 0.16,0.03 0.32,0.08 0.45,0.17 0.14,0.08 0.26,0.19 0.35,0.32 0.09,0.12 0.15,0.26 0.18,0.41 0.03,0.15 0.03,0.3 0,0.44 -0.03,0.15 -0.09,0.29 -0.18,0.41 -0.09,0.12 -0.21,0.23 -0.34,0.31 -0.71,0.46 -1.54,0.74 -2.4,0.82 -0.86,0.08 -1.73,-0.04 -2.53,-0.34 -0.8,-0.31 -1.51,-0.8 -2.06,-1.43 -0.55,-0.63 -0.92,-1.37 -1.09,-2.17 -0.17,-0.79 -0.12,-1.61 0.13,-2.38 0.26,-0.77 0.72,-1.47 1.34,-2.04 0.61,-0.56 1.37,-0.97 2.2,-1.19 0.83,-0.23 1.71,-0.25 2.56,-0.08l0 0zm2.34 -4.58l0.19 -0.38c0.07,-0.13 0.16,-0.26 0.28,-0.36 0.12,-0.1 0.26,-0.18 0.41,-0.23 0.15,-0.05 0.31,-0.07 0.48,-0.06 0.16,0.01 0.31,0.05 0.46,0.12 0.29,0.14 0.51,0.37 0.62,0.65 0.11,0.29 0.09,0.6 -0.05,0.87l-0.19 0.38c-0.14,0.27 -0.39,0.48 -0.69,0.58 -0.31,0.09 -0.64,0.08 -0.93,-0.05 -0.15,-0.06 -0.28,-0.15 -0.39,-0.26 -0.11,-0.11 -0.19,-0.24 -0.24,-0.39 -0.06,-0.14 -0.08,-0.29 -0.07,-0.44 0.01,-0.15 0.05,-0.29 0.12,-0.43l0 0z"/>
 </g>
</svg>
